<svg width="298" height="60" viewBox="0 0 298 60" fill="none" xmlns="http://www.w3.org/2000/svg">
<path d="M136.5 8.95898C137.092 9.19733 136.868 10.3126 136.903 10.8744C137.065 13.4452 137.152 15.9746 137.152 18.5576C137.152 22.5419 136.199 26.8034 135.383 30.6919C134.471 35.0364 134.02 39.4359 133.113 43.7831C132.713 45.6971 132.539 47.6354 132.278 49.5696C132.126 50.7003 131.659 51.9148 131.659 53.054C131.659 53.3406 131.941 54.7232 132.408 54.5111C133.106 54.1944 133.733 52.405 134.163 51.828C136.604 48.555 139.66 45.4464 142.616 42.6382C145.905 39.5132 148.12 36.1179 150.734 32.4312C153.192 28.9648 155.74 27.9104 159.457 26.2716C159.997 26.0334 164.523 22.308 164.069 21.8867C163.822 21.6582 163.023 21.778 162.745 21.778C161.876 21.778 160.98 22.1442 160.16 22.3944C157.947 23.0697 155.689 23.5729 153.465 24.2078C148.683 25.5729 144.052 27.3756 139.389 29.0771C135.511 30.4923 131.415 31.2245 127.53 32.6193C125.617 33.3061 123.989 35.315 126.457 36.5704C129.43 38.0824 133.142 38.2258 136.331 39.0042C141.36 40.2315 146.127 42.6461 150.98 44.4451C154.211 45.6429 156.439 48.0286 159.3 49.7837C160.025 50.2285 162.138 51.1215 162.117 49.6857C162.105 48.8664 161.619 47.9594 161.282 47.2354C160.297 45.1233 159.2 43.0662 158.224 40.9497C156.491 37.1876 154.771 33.4798 152.327 30.113C150.624 27.7668 148.548 25.7409 146.77 23.4578C144.83 20.9664 143.659 18.1528 142.163 15.4061C141.941 15 141.78 14.1933 141.319 14.0013" stroke="#D7EE00" stroke-width="8" stroke-linecap="round" stroke-linejoin="round"/>
<path d="M31.6011 8.51758C31.0088 8.75592 31.2331 9.87119 31.1977 10.4329C31.0355 13.0038 30.9485 15.5331 30.9485 18.1162C30.9485 22.1005 31.9019 26.3619 32.7178 30.2505C33.6294 34.595 34.0807 38.9945 34.9881 43.3417C35.3876 45.2557 35.5622 47.194 35.8226 49.1282C35.9748 50.2589 36.4423 51.4734 36.4423 52.6126C36.4423 52.8992 36.1599 54.2818 35.6924 54.0697C34.9948 53.753 34.368 51.9636 33.9377 51.3866C31.4966 48.1136 28.4412 45.005 25.4852 42.1968C22.1958 39.0718 19.981 35.6765 17.3669 31.9898C14.9092 28.5234 12.3604 27.469 8.64388 25.8302C8.10377 25.592 3.5776 21.8666 4.032 21.4453C4.27843 21.2168 5.07768 21.3365 5.35602 21.3365C6.2248 21.3365 7.12064 21.7028 7.94082 21.953C10.1542 22.6283 12.4115 23.1315 14.6359 23.7664C19.4179 25.1315 24.0488 26.9342 28.7114 28.6357C32.5895 30.0509 36.6856 30.7831 40.5708 32.1779C42.4837 32.8647 44.1118 34.8736 41.6438 36.129C38.671 37.641 34.9593 37.7844 31.7696 38.5628C26.7406 39.79 21.9735 42.2047 17.1212 44.0036C13.8903 45.2015 11.6623 47.5872 8.80068 49.3423C8.0756 49.787 5.9627 50.6801 5.98411 49.2443C5.99632 48.425 6.48152 47.518 6.81916 46.794C7.80416 44.6819 8.90118 42.6248 9.8765 40.5083C11.6102 36.7462 13.3297 33.0384 15.774 29.6716C17.4773 27.3254 19.5529 25.2995 21.3309 23.0164C23.2711 20.525 24.4419 17.7114 25.9382 14.9647C26.1594 14.5586 26.3213 13.7519 26.7822 13.5599" stroke="#D7EE00" stroke-width="8" stroke-linecap="round" stroke-linejoin="round"/>
<path d="M214.135 8.68509C212.575 8.68509 213.18 8.39579 213.774 10.344C216.089 17.9291 217.757 25.7656 220.75 33.1231C222.87 38.3355 225.365 43.322 227.032 48.7102C228.008 51.8667 226.312 50.1185 224.433 48.9542C218.561 45.3162 212.424 42.0094 206.054 39.3307C199.018 36.3722 192.956 36.5761 185.583 36.5761C182.966 36.5761 181.217 36.34 184.066 34.2857C190.196 29.8642 197.838 29.084 204.818 26.7409C212.46 24.1755 218.986 19.2735 226.728 16.9224C230.083 15.9035 229.224 16.0698 227.559 18.3648C223.388 24.1131 218.43 29.4056 213.895 34.8694C210.585 38.8566 207.276 42.8036 204.309 47.0585C202.786 49.2425 201.495 51.6264 199.439 53.3719C193.046 58.7978 201.362 34.8258 201.87 33.6763C205.071 26.4314 212.254 19.5355 212.254 11.8391" stroke="#D7EE00" stroke-width="8" stroke-linecap="round" stroke-linejoin="round"/>
<path d="M76.1798 52.4662C74.9438 51.7526 75.2906 52.2584 76.653 50.9867C81.9574 46.0354 86.864 40.5889 92.6014 36.1282C96.6661 32.968 100.924 30.1578 104.71 26.651C106.928 24.5966 104.784 25.2057 102.762 25.2686C96.4446 25.4649 90.0692 25.2778 83.7961 24.4861C76.8677 23.6116 72.1573 20.6766 66.3153 17.3037C64.2419 16.1066 62.748 15.4937 64.0651 18.4245C66.9 24.7325 72.5981 28.8467 77.0573 33.8966C81.9395 39.4257 84.8673 46.2951 89.9265 51.7C92.1188 54.0422 91.5146 53.5176 91.2451 50.9373C90.57 44.4746 89.0626 38.0126 87.9684 31.6084C87.1698 26.9347 86.3533 22.2933 85.9489 17.5645C85.7414 15.1373 85.8091 12.6578 84.978 10.3338C82.3945 3.10969 78.0178 25.9094 77.8943 27.0526C77.1163 34.2576 79.6531 43.0079 76.1321 49.1064" stroke="#D7EE00" stroke-width="8" stroke-linecap="round" stroke-linejoin="round"/>
<path d="M277.25 11.2101C277.25 5.34252 273.282 22.2674 271.751 27.9318C269.782 35.2137 267.996 42.8801 267.686 50.4455C267.64 51.5681 266.922 52.8809 267.642 51.8416C270.053 48.3615 272.152 44.5815 274.884 41.3394C279.187 36.2348 285.74 34.3589 290.362 29.7371C299.2 20.8969 284.686 20.9603 278.317 20.0734C270.65 19.0057 262.909 19.1943 255.285 20.3932C254.633 20.4957 248.388 21.3716 251.344 19.8269C261.312 14.6186 272.64 27.0431 277.906 33.9379C281.454 38.5834 284.735 43.4318 289.002 47.4631C290.655 49.0252 290.542 47.9616 290.465 46.1396C289.886 32.3649 273.841 -6.43568 277.641 6.81725" stroke="#D7EE00" stroke-width="8" stroke-linecap="round" stroke-linejoin="round"/>
</svg>
