<svg width="48" height="8" viewBox="0 0 48 8" fill="none" xmlns="http://www.w3.org/2000/svg">
<path d="M4.57426 5.27H1.79426L1.16426 7H0.0642578L2.55426 0.4H3.83426L6.32426 7H5.19426L4.57426 5.27ZM4.25426 4.4L3.49426 2.28L3.19426 1.33H3.16426L2.88426 2.26L2.10426 4.4H4.25426ZM12.7303 5.25C12.5303 5.84333 12.1869 6.3 11.7003 6.62C11.2203 6.94 10.6536 7.1 10.0003 7.1C9.36694 7.1 8.81694 6.96333 8.35027 6.69C7.88361 6.41667 7.52361 6.02333 7.27027 5.51C7.01694 4.99667 6.89027 4.39333 6.89027 3.7C6.89027 3.00667 7.01694 2.40333 7.27027 1.89C7.52361 1.37667 7.88361 0.983333 8.35027 0.71C8.81694 0.436667 9.36361 0.3 9.99027 0.3C10.6503 0.3 11.2036 0.436667 11.6503 0.71C12.1036 0.983333 12.4303 1.38667 12.6303 1.92L11.6203 2.37C11.4869 1.97667 11.2936 1.69 11.0403 1.51C10.7869 1.32333 10.4569 1.23 10.0503 1.23C9.43027 1.23 8.93361 1.45 8.56027 1.89C8.19361 2.32333 8.01027 2.92667 8.01027 3.7C8.01027 4.48 8.18694 5.08667 8.54027 5.52C8.89361 5.95333 9.38361 6.17 10.0103 6.17C10.4369 6.17 10.7936 6.06333 11.0803 5.85C11.3736 5.63667 11.5836 5.32333 11.7103 4.91L12.7303 5.25ZM19.5662 5.25C19.3662 5.84333 19.0229 6.3 18.5362 6.62C18.0562 6.94 17.4895 7.1 16.8362 7.1C16.2029 7.1 15.6529 6.96333 15.1862 6.69C14.7195 6.41667 14.3595 6.02333 14.1062 5.51C13.8529 4.99667 13.7262 4.39333 13.7262 3.7C13.7262 3.00667 13.8529 2.40333 14.1062 1.89C14.3595 1.37667 14.7195 0.983333 15.1862 0.71C15.6529 0.436667 16.1995 0.3 16.8262 0.3C17.4862 0.3 18.0395 0.436667 18.4862 0.71C18.9395 0.983333 19.2662 1.38667 19.4662 1.92L18.4562 2.37C18.3229 1.97667 18.1295 1.69 17.8762 1.51C17.6229 1.32333 17.2929 1.23 16.8862 1.23C16.2662 1.23 15.7695 1.45 15.3962 1.89C15.0295 2.32333 14.8462 2.92667 14.8462 3.7C14.8462 4.48 15.0229 5.08667 15.3762 5.52C15.7295 5.95333 16.2195 6.17 16.8462 6.17C17.2729 6.17 17.6295 6.06333 17.9162 5.85C18.2095 5.63667 18.4195 5.32333 18.5462 4.91L19.5662 5.25ZM23.6721 0.3C24.3055 0.3 24.8555 0.436667 25.3221 0.71C25.7955 0.983333 26.1588 1.37667 26.4121 1.89C26.6655 2.40333 26.7921 3.00667 26.7921 3.7C26.7921 4.39333 26.6655 4.99667 26.4121 5.51C26.1588 6.02333 25.7955 6.41667 25.3221 6.69C24.8555 6.96333 24.3055 7.1 23.6721 7.1C23.0388 7.1 22.4888 6.96333 22.0221 6.69C21.5555 6.41667 21.1955 6.02333 20.9421 5.51C20.6888 4.99667 20.5621 4.39333 20.5621 3.7C20.5621 3.00667 20.6888 2.40333 20.9421 1.89C21.1955 1.37667 21.5555 0.983333 22.0221 0.71C22.4888 0.436667 23.0388 0.3 23.6721 0.3ZM23.6721 1.23C23.0521 1.23 22.5655 1.44667 22.2121 1.88C21.8588 2.31333 21.6821 2.92 21.6821 3.7C21.6821 4.48 21.8588 5.08667 22.2121 5.52C22.5655 5.95333 23.0521 6.17 23.6721 6.17C24.2988 6.17 24.7888 5.95333 25.1421 5.52C25.4955 5.08667 25.6721 4.48 25.6721 3.7C25.6721 2.92 25.4955 2.31333 25.1421 1.88C24.7888 1.44667 24.2988 1.23 23.6721 1.23ZM33.6933 4.47C33.6933 5.33667 33.4633 5.99333 33.0033 6.44C32.5433 6.88 31.8733 7.1 30.9933 7.1C30.1133 7.1 29.4433 6.88 28.9833 6.44C28.5233 5.99333 28.2933 5.33667 28.2933 4.47V0.4H29.3733V4.34C29.3733 4.96667 29.5033 5.43 29.7633 5.73C30.03 6.02333 30.44 6.17 30.9933 6.17C31.5467 6.17 31.9533 6.02333 32.2133 5.73C32.48 5.43 32.6133 4.96667 32.6133 4.34V0.4H33.6933V4.47ZM40.9711 7H39.7011L37.1511 2.84L36.5111 1.62H36.5011L36.5411 2.74V7H35.5611V0.4H36.8211L39.3611 4.55L40.0111 5.78H40.0211L39.9811 4.66V0.4H40.9711V7ZM47.8343 1.32H45.5743V7H44.5043V1.32H42.2443V0.4H47.8343V1.32Z" fill="#FEF8E5"/>
</svg>
