<svg width="199" height="51" viewBox="0 0 199 51" fill="none" xmlns="http://www.w3.org/2000/svg">
<g filter="url(#filter0_d_758_671)">
<rect x="4.5" y="0.5" width="190" height="41.3704" rx="11.5" fill="#FEF8E5" stroke="black"/>
<path d="M39.8591 22.488C40.4671 22.488 41.2991 22.488 42.0671 22.472C41.6191 21.16 41.1551 19.784 40.7551 18.664C40.3231 17.544 40.0671 16.76 39.8751 16.2C39.6831 16.776 39.4271 17.544 38.9951 18.744C38.6111 19.848 38.1631 21.192 37.7151 22.472C38.4671 22.488 39.2831 22.488 39.8591 22.488ZM46.2751 27H43.5231C43.4111 26.536 43.0911 25.496 42.6591 24.216C41.6671 24.216 40.6431 24.216 39.8591 24.216C39.1551 24.216 38.0831 24.216 37.1071 24.216C36.6911 25.448 36.3551 26.472 36.1951 27H33.6351C34.8031 24.2 37.5231 16.712 38.1151 15H41.6991C42.3551 16.76 45.0111 24.04 46.2751 27ZM52.3397 24.952C54.8197 24.952 55.9877 24.072 55.9877 20.904C55.9877 17.832 54.8357 17.048 52.4037 17.048C51.5717 17.048 50.8037 17.064 50.0837 17.096C50.0677 18.296 50.0517 19.72 50.0517 21.08C50.0517 22.904 50.0517 24.04 50.0677 24.904C50.8677 24.952 51.4757 24.952 52.3397 24.952ZM47.6677 15H52.4037C56.4517 15 58.3237 16.536 58.3237 20.856C58.3237 25.16 56.5797 27 52.3557 27H47.6677C47.7157 25.352 47.7157 23.56 47.7157 21.016C47.7157 18.472 47.7157 16.472 47.6677 15ZM65.3866 24.952C67.8666 24.952 69.0346 24.072 69.0346 20.904C69.0346 17.832 67.8826 17.048 65.4506 17.048C64.6186 17.048 63.8506 17.064 63.1306 17.096C63.1146 18.296 63.0986 19.72 63.0986 21.08C63.0986 22.904 63.0986 24.04 63.1146 24.904C63.9146 24.952 64.5226 24.952 65.3866 24.952ZM60.7146 15H65.4506C69.4986 15 71.3706 16.536 71.3706 20.856C71.3706 25.16 69.6266 27 65.4026 27H60.7146C60.7626 25.352 60.7626 23.56 60.7626 21.016C60.7626 18.472 60.7626 16.472 60.7146 15ZM83.2013 21.624C85.3293 21.624 86.2093 21 86.2093 19.32C86.2093 17.672 85.2813 17.016 83.3133 17.016C82.8173 17.016 81.5853 17.032 80.8653 17.048C80.8653 18.632 80.8653 20.184 80.8653 21.592C81.3293 21.608 82.2253 21.624 83.2013 21.624ZM78.4653 15H83.7133C86.7213 15 88.5293 16.216 88.5293 19.352C88.5293 22.28 86.7053 23.656 83.6333 23.656C82.6413 23.656 82.0653 23.64 80.8813 23.608C80.9133 24.936 80.9453 26.104 80.9933 27H78.4653C78.5293 25.272 78.5293 23.56 78.5293 21C78.5293 18.456 78.5293 16.616 78.4653 15ZM101.663 20.872C101.663 24.952 99.3751 27.224 95.7431 27.224C92.1111 27.224 89.8551 24.952 89.8551 20.872C89.8551 16.792 92.2391 14.776 95.7431 14.776C99.2631 14.776 101.663 16.792 101.663 20.872ZM95.7591 25.112C97.9831 25.112 99.2631 23.672 99.2631 20.952C99.2631 18.232 97.9671 16.872 95.7591 16.872C93.5351 16.872 92.2231 18.2 92.2231 20.952C92.2231 23.688 93.5351 25.112 95.7591 25.112ZM108.748 21.624C110.876 21.624 111.756 21 111.756 19.32C111.756 17.672 110.828 17.016 108.86 17.016C108.364 17.016 107.132 17.032 106.412 17.048C106.412 18.632 106.412 20.184 106.412 21.592C106.876 21.608 107.772 21.624 108.748 21.624ZM104.012 15H109.26C112.268 15 114.076 16.216 114.076 19.352C114.076 22.28 112.252 23.656 109.18 23.656C108.188 23.656 107.612 23.64 106.428 23.608C106.46 24.936 106.492 26.104 106.54 27H104.012C104.076 25.272 104.076 23.56 104.076 21C104.076 18.456 104.076 16.616 104.012 15ZM116.122 15H118.57C118.522 15.944 118.49 18.184 118.49 20.968C118.49 22.36 118.506 23.88 118.506 24.904C119.978 24.904 122.01 24.904 123.674 24.856C123.674 25.208 123.658 25.576 123.658 25.928C123.658 26.296 123.674 26.648 123.674 27H116.122C116.122 25.992 116.17 23.56 116.17 21C116.17 18.072 116.17 16.136 116.122 15ZM127.945 27H125.513C125.561 25.272 125.561 23.544 125.561 21C125.561 18.44 125.561 16.712 125.513 15H127.945C127.897 16.696 127.897 18.424 127.897 20.984C127.897 23.528 127.897 25.256 127.945 27ZM141.269 20.552C141.557 24.824 140.645 27.208 136.101 27.208C132.325 27.208 130.277 24.76 130.277 20.888C130.277 17 132.341 14.792 136.149 14.792C139.845 14.792 141.317 16.712 141.317 18.728C141.317 18.952 141.317 19.128 141.301 19.352C141.029 19.336 140.613 19.32 140.181 19.32C139.701 19.32 139.269 19.32 138.981 19.352C138.997 19.208 138.997 19.064 138.997 18.952C138.997 17.544 138.053 16.776 136.133 16.776C133.925 16.776 132.661 17.88 132.661 20.92C132.661 23.88 133.877 25.256 136.197 25.256C138.341 25.256 139.109 24.392 139.061 22.136C137.973 22.152 136.437 22.152 135.541 22.184C135.557 22.024 135.557 21.704 135.557 21.528C135.557 21.128 135.557 20.808 135.541 20.536C136.517 20.568 137.493 20.568 138.213 20.568C139.029 20.568 140.181 20.584 141.269 20.552ZM152.332 15H154.812C154.764 16.6 154.748 18.456 154.748 21C154.748 23.544 154.764 25.272 154.812 27H152.332C152.38 25.704 152.396 23.512 152.396 22.12C151.5 22.104 150.428 22.104 149.404 22.104C148.396 22.104 147.324 22.104 146.412 22.12C146.412 23.512 146.428 25.704 146.476 27H144.012C144.076 25.272 144.06 23.544 144.06 21C144.06 18.456 144.076 16.6 144.012 15H146.476C146.428 16.216 146.412 18.488 146.412 19.96C147.324 19.976 148.396 19.992 149.404 19.992C150.428 19.992 151.5 19.976 152.396 19.96C152.396 18.488 152.38 16.2 152.332 15ZM156.657 15H166.113V16.024V17.08C164.865 17.064 163.617 17.048 162.545 17.048C162.545 21.528 162.545 26.008 162.593 27.016C162.257 26.984 161.745 26.984 161.377 26.984C161.041 26.984 160.545 26.984 160.193 27.016C160.241 26.024 160.241 21.544 160.241 17.048C159.169 17.048 157.921 17.064 156.657 17.08V16.024V15Z" fill="black"/>
</g>
<defs>
<filter id="filter0_d_758_671" x="0" y="0" width="199" height="50.3704" filterUnits="userSpaceOnUse" color-interpolation-filters="sRGB">
<feFlood flood-opacity="0" result="BackgroundImageFix"/>
<feColorMatrix in="SourceAlpha" type="matrix" values="0 0 0 0 0 0 0 0 0 0 0 0 0 0 0 0 0 0 127 0" result="hardAlpha"/>
<feOffset dy="4"/>
<feGaussianBlur stdDeviation="2"/>
<feComposite in2="hardAlpha" operator="out"/>
<feColorMatrix type="matrix" values="0 0 0 0 0 0 0 0 0 0 0 0 0 0 0 0 0 0 0.25 0"/>
<feBlend mode="normal" in2="BackgroundImageFix" result="effect1_dropShadow_758_671"/>
<feBlend mode="normal" in="SourceGraphic" in2="effect1_dropShadow_758_671" result="shape"/>
</filter>
</defs>
</svg>
