<svg width="84" height="9" viewBox="0 0 84 9" fill="none" xmlns="http://www.w3.org/2000/svg">
<path d="M4.04363 5.03H3.19363C3.36363 4.31 3.53363 3.57 3.68363 2.92C3.83363 2.38 3.94363 1.9 4.03363 1.54H4.06363C4.14363 1.9 4.25363 2.39 4.40363 2.9C4.57363 3.55 4.74363 4.3 4.90363 5.03H4.04363ZM8.26363 8C7.61363 6.09 6.39363 1.55 6.11363 0.499999H2.10363C1.85363 1.54 0.643633 6.12 0.0336328 8H2.59363C2.63363 7.7 2.73363 7.19 2.86363 6.57C3.30363 6.57 3.73363 6.57 4.04363 6.57C4.37363 6.57 4.79363 6.57 5.22363 6.57C5.35363 7.21 5.43363 7.73 5.46363 8H8.26363ZM12.2254 6.06C11.9054 6.06 11.6454 6.06 11.3554 6.04C11.3454 5.59 11.3454 5.03 11.3454 4.27C11.3454 3.62 11.3454 2.96 11.3654 2.35C11.6454 2.33 11.9354 2.32 12.2454 2.32C13.2354 2.32 13.6554 2.56 13.6554 4.14C13.6554 5.78 13.2254 6.06 12.2254 6.06ZM8.88535 0.499999C8.90535 1.48 8.91535 2.67 8.91535 4.26C8.91535 5.85 8.90535 6.95 8.88535 8H12.3754C15.1154 8 16.1154 7.05 16.1154 4.05C16.1154 1.25 14.9854 0.499999 12.4254 0.499999H8.88535ZM20.4578 6.06C20.1378 6.06 19.8778 6.06 19.5878 6.04C19.5778 5.59 19.5778 5.03 19.5778 4.27C19.5778 3.62 19.5778 2.96 19.5978 2.35C19.8778 2.33 20.1678 2.32 20.4778 2.32C21.4678 2.32 21.8878 2.56 21.8878 4.14C21.8878 5.78 21.4578 6.06 20.4578 6.06ZM17.1178 0.499999C17.1378 1.48 17.1478 2.67 17.1478 4.26C17.1478 5.85 17.1378 6.95 17.1178 8H20.6078C23.3478 8 24.3478 7.05 24.3478 4.05C24.3478 1.25 23.2178 0.499999 20.6578 0.499999H17.1178ZM31.1881 4.51C30.8581 4.51 30.5681 4.5 30.3681 4.5C30.3581 3.8 30.3581 3.05 30.3581 2.27C30.6681 2.26 31.0581 2.26 31.2381 2.26C32.1081 2.26 32.4681 2.51 32.4681 3.37C32.4681 4.23 32.1481 4.51 31.1881 4.51ZM27.9281 0.499999C27.9581 1.54 27.9681 2.66 27.9681 4.25C27.9681 5.85 27.9581 6.92 27.9281 8H30.4681C30.4281 7.52 30.4081 6.93 30.3881 6.25C30.8481 6.26 31.2181 6.27 31.5981 6.27C33.8881 6.27 34.8081 5.38 34.8081 3.32C34.8081 1.16 33.7381 0.499999 31.8081 0.499999H27.9281ZM43.162 4.12C43.162 1.41 41.692 0.359999 39.262 0.359999C36.822 0.359999 35.392 1.41 35.392 4.12C35.392 6.83 36.682 8.14 39.252 8.14C41.822 8.14 43.162 6.83 43.162 4.12ZM39.262 6.12C38.372 6.12 37.902 5.52 37.902 4.15C37.902 2.8 38.372 2.27 39.262 2.27C40.152 2.27 40.612 2.82 40.612 4.15C40.612 5.5 40.162 6.12 39.262 6.12ZM47.4186 4.51C47.0886 4.51 46.7986 4.5 46.5986 4.5C46.5886 3.8 46.5886 3.05 46.5886 2.27C46.8986 2.26 47.2886 2.26 47.4686 2.26C48.3386 2.26 48.6986 2.51 48.6986 3.37C48.6986 4.23 48.3786 4.51 47.4186 4.51ZM44.1586 0.499999C44.1886 1.54 44.1986 2.66 44.1986 4.25C44.1986 5.85 44.1886 6.92 44.1586 8H46.6986C46.6586 7.52 46.6386 6.93 46.6186 6.25C47.0786 6.26 47.4486 6.27 47.8286 6.27C50.1186 6.27 51.0386 5.38 51.0386 3.32C51.0386 1.16 49.9686 0.499999 48.0386 0.499999H44.1586ZM51.9127 0.499999C51.9427 1.22 51.9427 2.53 51.9427 4.25C51.9427 5.85 51.9127 7.39 51.9127 8H56.8627C56.8627 7.62 56.8527 7.25 56.8527 6.87C56.8527 6.5 56.8627 6.12 56.8627 5.75C56.0627 5.77 55.1427 5.78 54.4527 5.78C54.4427 5.31 54.4427 4.77 54.4427 4.24C54.4527 2.58 54.4727 1.06 54.4927 0.499999H51.9127ZM60.1851 8C60.1651 6.91 60.1651 5.83 60.1651 4.24C60.1651 2.64 60.1651 1.56 60.1851 0.499999H57.6451C57.6751 1.57 57.6751 2.65 57.6751 4.25C57.6751 5.84 57.6751 6.92 57.6451 8H60.1851ZM68.493 3.82C67.793 3.84 67.103 3.83 66.573 3.83C66.093 3.83 65.453 3.83 64.813 3.82C64.823 4.02 64.823 4.28 64.823 4.59C64.823 4.75 64.823 5.11 64.813 5.26C65.213 5.25 65.733 5.24 66.213 5.24C66.153 6.04 65.843 6.35 65.093 6.35C64.043 6.35 63.683 5.71 63.683 4.2C63.683 2.6 64.083 2.1 65.023 2.1C65.743 2.1 66.113 2.37 66.113 2.98C66.113 3.05 66.103 3.14 66.103 3.22C66.403 3.2 66.843 3.2 67.303 3.2C67.753 3.2 68.213 3.21 68.543 3.22C68.553 3.07 68.553 2.94 68.553 2.8C68.553 1.46 67.663 0.37 65.033 0.37C62.403 0.37 61.173 1.58 61.173 4.17C61.173 6.77 62.383 8.13 65.003 8.13C68.153 8.13 68.683 6.69 68.513 3.82H68.493ZM74.505 0.499999C74.525 1.2 74.535 2.33 74.545 3.23C74.185 3.24 73.785 3.25 73.385 3.25C72.985 3.25 72.585 3.24 72.225 3.23C72.225 2.33 72.235 1.2 72.265 0.499999H69.735C69.775 1.53 69.775 2.66 69.775 4.25C69.775 5.84 69.775 6.92 69.735 8H72.265C72.235 7.27 72.225 6.19 72.225 5.32C72.585 5.31 72.985 5.31 73.385 5.31C73.785 5.31 74.185 5.31 74.545 5.32C74.535 6.19 74.525 7.28 74.505 8H77.035C77.005 6.92 76.995 5.84 76.995 4.25C76.995 2.66 77.005 1.53 77.035 0.499999H74.505ZM77.8585 0.499999C77.8685 0.779999 77.8685 1.21 77.8685 1.6C77.8685 1.97 77.8685 2.44 77.8585 2.74C78.4585 2.73 79.0485 2.72 79.5885 2.72C79.5885 5.14 79.5785 7.47 79.5485 8.01C79.9085 7.98 80.4585 7.98 80.8585 7.98C81.2585 7.98 81.8285 7.98 82.1785 8.01C82.1485 7.47 82.1385 5.13 82.1385 2.72C82.6785 2.72 83.2685 2.73 83.8585 2.74C83.8485 2.44 83.8485 1.97 83.8485 1.6C83.8485 1.21 83.8485 0.779999 83.8585 0.499999H77.8585Z" fill="#EAFC38"/>
</svg>
