<svg width="301" height="21" viewBox="0 0 301 21" fill="none" xmlns="http://www.w3.org/2000/svg">
<path d="M10.6745 12.575H12.8245C12.4245 10.75 11.9995 8.875 11.5745 7.25C11.1995 5.975 10.9245 4.75 10.7245 3.85H10.6495C10.4245 4.75 10.1495 5.95 9.77451 7.3C9.39951 8.925 8.97451 10.775 8.54951 12.575H10.6745ZM21.2245 20H14.2245C14.1495 19.325 13.9495 18.025 13.6245 16.425C12.5495 16.425 11.4995 16.425 10.6745 16.425C9.89951 16.425 8.82451 16.425 7.72451 16.425C7.39951 17.975 7.14951 19.25 7.04951 20H0.649512C2.17451 15.3 5.19951 3.85 5.82451 1.25H15.8495C16.5495 3.875 19.5995 15.225 21.2245 20ZM31.1288 15.15C33.6288 15.15 34.7038 14.45 34.7038 10.35C34.7038 6.4 33.6538 5.8 31.1788 5.8C30.4038 5.8 29.6788 5.825 28.9788 5.875C28.9288 7.4 28.9288 9.05 28.9288 10.675C28.9288 12.575 28.9288 13.975 28.9538 15.1C29.6788 15.15 30.3288 15.15 31.1288 15.15ZM22.7788 1.25H31.6288C38.0288 1.25 40.8538 3.125 40.8538 10.125C40.8538 17.625 38.3538 20 31.5038 20H22.7788C22.8288 17.375 22.8538 14.625 22.8538 10.65C22.8538 6.675 22.8288 3.7 22.7788 1.25ZM46.0228 1.25H52.3978C52.3728 3.075 52.3728 4.5 52.3728 6.4C52.3728 7.5 52.4478 10.15 52.4478 13.7C52.4478 17.5 50.9228 20.225 46.3228 20.225C44.8478 20.225 43.1228 20.05 41.6978 19.6C41.8478 18.65 42.2228 14.925 42.2728 13.75C42.9228 14.075 43.5478 14.3 44.5228 14.3C45.5978 14.3 46.2478 13.7 46.2478 12.45C46.2478 8.125 46.2478 3 46.0228 1.25ZM67.4169 1.25H73.6419C73.5919 2.875 73.5419 4.475 73.5419 6.9C73.5419 8.4 73.5919 10.75 73.5919 12.5C73.5919 17.55 71.3169 20.35 64.5919 20.35C57.8669 20.35 55.5669 17.55 55.5669 12.5C55.5669 10.75 55.6169 8.4 55.6169 6.9C55.6169 4.475 55.5669 2.875 55.5169 1.25H61.8919C61.7919 4.2 61.7669 9.2 61.7669 12.05C61.7669 14.25 62.6669 15.2 64.7419 15.2C66.7419 15.2 67.5169 14.25 67.5169 12.05C67.5169 9.2 67.4669 4.2 67.4169 1.25ZM81.7321 13.875V14.225C81.7321 15.65 82.3821 16.175 84.5321 16.175C86.6321 16.175 87.2071 15.675 87.2071 14.75C87.2071 13.675 86.6321 12.95 83.3821 12.5C77.6571 11.725 76.2571 9.8 76.2571 6.55C76.2571 3 78.8071 0.899999 84.5571 0.899999C90.9571 0.899999 92.9321 2.75 92.9321 6.1C92.9321 6.45 92.9071 6.825 92.8821 7.225C92.1321 7.175 90.9071 7.15 89.8321 7.15C88.9821 7.15 88.1571 7.15 87.6321 7.175C87.6571 7 87.6571 6.825 87.6571 6.675C87.6571 5.675 87.1071 5.025 84.7321 5.025C82.9071 5.025 82.3321 5.55 82.3321 6.35C82.3321 7.25 82.7321 8 86.2571 8.525C91.3821 9.3 93.1821 10.925 93.1821 14.575C93.1821 18.225 90.8821 20.35 84.8321 20.35C78.3321 20.35 76.2071 18.575 76.2071 15.1C76.2071 14.675 76.2071 14.225 76.2571 13.775C77.0821 13.85 78.3321 13.925 79.5071 13.925C80.3571 13.925 81.1571 13.925 81.7321 13.875ZM94.406 1.25H109.406C109.381 1.95 109.381 3.025 109.381 4C109.381 4.925 109.381 6.1 109.406 6.85C107.931 6.825 106.456 6.8 105.106 6.8C105.106 12.825 105.131 18.675 105.206 20.025C104.331 19.95 102.906 19.95 101.906 19.95C100.906 19.95 99.531 19.95 98.631 20.025C98.706 18.675 98.731 12.85 98.731 6.8C97.381 6.8 95.906 6.825 94.406 6.85C94.431 6.1 94.431 4.925 94.431 4C94.431 3.025 94.431 1.95 94.406 1.25ZM127.17 15.925C128.895 15.925 129.57 15.475 129.57 13.925C129.57 12.475 128.845 12 127.12 12C126.17 12 125.095 12.025 123.92 12.05C123.92 13.4 123.945 14.725 123.97 15.875C125.22 15.925 126.245 15.925 127.17 15.925ZM129.42 6.75C129.42 5.425 128.745 4.975 127.145 4.975C126.145 4.975 125.095 5 123.945 5.05C123.92 6.15 123.92 7.5 123.92 8.9C125.07 8.95 126.12 8.925 127.07 8.925C128.695 8.9 129.42 8.275 129.42 6.75ZM131.47 10.45V10.575C132.095 10.625 132.62 10.7 133.045 10.85C134.97 11.475 135.67 12.775 135.67 15C135.67 18.45 133.77 20 129.32 20H117.87C117.995 17.375 117.995 14.6 117.995 10.625C117.995 6.65 117.995 3.8 117.87 1.25H129.07C133.17 1.25 135.445 2.525 135.445 6.2C135.445 8.35 134.87 9.375 133.27 10.05C132.795 10.25 132.195 10.375 131.47 10.45ZM147.356 10.3C149.006 10.3 149.756 9.525 149.756 7.85C149.756 5.85 148.906 5.4 147.031 5.4C146.506 5.4 145.281 5.425 144.306 5.45C144.306 7.075 144.306 8.7 144.331 10.25C145.031 10.275 146.131 10.275 147.356 10.3ZM151.306 12.4V12.55C153.881 12.875 154.906 13.625 155.531 16.15C155.931 17.575 156.306 19.15 156.556 20H150.981C150.056 20 149.881 19.675 149.456 17.75C148.856 14.6 148.506 14.05 146.981 14.05C146.081 14.05 145.556 14.025 144.356 14.05C144.406 16.45 144.481 18.525 144.631 20H138.306C138.356 17.275 138.406 14.625 138.406 10.625C138.406 6.65 138.381 3.95 138.306 1.25H148.531C153.106 1.25 155.731 2.95 155.731 6.9C155.731 10.325 154.481 11.9 151.306 12.4ZM165.066 20H158.716C158.791 17.3 158.791 14.6 158.791 10.625C158.791 6.625 158.791 3.925 158.716 1.25H165.066C165.016 3.9 165.016 6.6 165.016 10.6C165.016 14.575 165.016 17.275 165.066 20ZM185.836 9.55H185.886C186.311 16.725 184.986 20.325 177.111 20.325C170.561 20.325 167.536 16.925 167.536 10.425C167.536 3.95 170.611 0.925 177.186 0.925C183.761 0.925 185.986 3.65 185.986 7C185.986 7.35 185.986 7.675 185.961 8.05C185.136 8.025 183.986 8 182.861 8C181.711 8 180.611 8 179.861 8.05C179.861 7.85 179.886 7.625 179.886 7.45C179.886 5.925 178.961 5.25 177.161 5.25C174.811 5.25 173.811 6.5 173.811 10.5C173.811 14.275 174.711 15.875 177.336 15.875C179.211 15.875 179.986 15.1 180.136 13.1C178.936 13.1 177.636 13.125 176.636 13.15C176.661 12.775 176.661 11.875 176.661 11.475C176.661 10.7 176.661 10.05 176.636 9.55C178.236 9.575 179.836 9.575 181.036 9.575C182.361 9.575 184.086 9.6 185.836 9.55ZM200.866 1.25H207.191C207.116 3.825 207.091 6.65 207.091 10.625C207.091 14.6 207.116 17.3 207.191 20H200.866C200.916 18.2 200.941 15.475 200.966 13.3C200.066 13.275 199.066 13.275 198.066 13.275C197.066 13.275 196.066 13.275 195.166 13.3C195.166 15.475 195.191 18.175 195.266 20H188.941C189.041 17.3 189.041 14.6 189.041 10.625C189.041 6.65 189.041 3.825 188.941 1.25H195.266C195.191 3 195.166 5.825 195.166 8.075C196.066 8.1 197.066 8.125 198.066 8.125C199.066 8.125 200.066 8.1 200.966 8.075C200.941 5.825 200.916 3 200.866 1.25ZM209.25 1.25H224.25C224.225 1.95 224.225 3.025 224.225 4C224.225 4.925 224.225 6.1 224.25 6.85C222.775 6.825 221.3 6.8 219.95 6.8C219.95 12.825 219.975 18.675 220.05 20.025C219.175 19.95 217.75 19.95 216.75 19.95C215.75 19.95 214.375 19.95 213.475 20.025C213.55 18.675 213.575 12.85 213.575 6.8C212.225 6.8 210.75 6.825 209.25 6.85C209.275 6.1 209.275 4.925 209.275 4C209.275 3.025 209.275 1.95 209.25 1.25ZM238.869 1.25H244.294C244.244 3.05 244.219 6.625 244.219 10.6C244.219 14.75 244.219 17.575 244.269 20H237.894C237.094 18.325 234.969 14.9 233.169 12.025C232.519 10.775 231.994 9.475 231.544 8.2H231.494C231.619 9.825 231.694 11.3 231.744 12.775C231.769 16.45 231.769 18.95 231.844 20H226.294C226.319 17.5 226.344 14.625 226.344 10.625C226.344 6.65 226.344 3.725 226.294 1.25H233.319C233.819 2.45 236.269 6.375 237.894 9.375C238.394 10.35 238.844 11.5 239.219 12.65L239.269 12.625C239.144 11.2 239.069 9.85 239.069 8.65C239.044 5.9 238.969 2.775 238.869 1.25ZM247.535 1.25H262.585C262.56 1.775 262.535 2.725 262.535 3.45C262.535 4.225 262.535 5.3 262.585 5.85C259.535 5.825 256.21 5.8 253.71 5.8V8.425C256.685 8.425 259.91 8.425 262.36 8.35C262.335 9.275 262.335 11.45 262.335 12.45C259.91 12.4 256.66 12.375 253.71 12.375V15.1C256.235 15.1 259.735 15.075 262.585 15.05C262.535 15.65 262.535 16.75 262.535 17.625C262.535 18.375 262.535 19.375 262.585 20H247.535C247.61 17.475 247.61 14.625 247.61 10.625C247.61 6.65 247.61 3.675 247.535 1.25ZM270.453 13.875V14.225C270.453 15.65 271.103 16.175 273.253 16.175C275.353 16.175 275.928 15.675 275.928 14.75C275.928 13.675 275.353 12.95 272.103 12.5C266.378 11.725 264.978 9.8 264.978 6.55C264.978 3 267.528 0.899999 273.278 0.899999C279.678 0.899999 281.653 2.75 281.653 6.1C281.653 6.45 281.628 6.825 281.603 7.225C280.853 7.175 279.628 7.15 278.553 7.15C277.703 7.15 276.878 7.15 276.353 7.175C276.378 7 276.378 6.825 276.378 6.675C276.378 5.675 275.828 5.025 273.453 5.025C271.628 5.025 271.053 5.55 271.053 6.35C271.053 7.25 271.453 8 274.978 8.525C280.103 9.3 281.903 10.925 281.903 14.575C281.903 18.225 279.603 20.35 273.553 20.35C267.053 20.35 264.928 18.575 264.928 15.1C264.928 14.675 264.928 14.225 264.978 13.775C265.803 13.85 267.053 13.925 268.228 13.925C269.078 13.925 269.878 13.925 270.453 13.875ZM289.252 13.875V14.225C289.252 15.65 289.902 16.175 292.052 16.175C294.152 16.175 294.727 15.675 294.727 14.75C294.727 13.675 294.152 12.95 290.902 12.5C285.177 11.725 283.777 9.8 283.777 6.55C283.777 3 286.327 0.899999 292.077 0.899999C298.477 0.899999 300.452 2.75 300.452 6.1C300.452 6.45 300.427 6.825 300.402 7.225C299.652 7.175 298.427 7.15 297.352 7.15C296.502 7.15 295.677 7.15 295.152 7.175C295.177 7 295.177 6.825 295.177 6.675C295.177 5.675 294.627 5.025 292.252 5.025C290.427 5.025 289.852 5.55 289.852 6.35C289.852 7.25 290.252 8 293.777 8.525C298.902 9.3 300.702 10.925 300.702 14.575C300.702 18.225 298.402 20.35 292.352 20.35C285.852 20.35 283.727 18.575 283.727 15.1C283.727 14.675 283.727 14.225 283.777 13.775C284.602 13.85 285.852 13.925 287.027 13.925C287.877 13.925 288.677 13.925 289.252 13.875Z" fill="#FEF8E5"/>
</svg>
