<svg width="203" height="23" viewBox="0 0 203 23" fill="none" xmlns="http://www.w3.org/2000/svg">
<path d="M7.4966 8H6.5166V4.18L6.5866 2.36H6.5766L4.5666 8H3.6766L1.6666 2.36H1.6566L1.7366 4.18V8H0.746602V1.4H2.3366L3.6666 5.22L4.1266 6.79H4.1466L4.6166 5.22L5.9366 1.4H7.4966V8ZM13.5787 7.3C13.7254 7.3 13.8487 7.28667 13.9487 7.26L13.8787 7.98C13.6987 8.06 13.492 8.1 13.2587 8.1C12.972 8.1 12.742 8.04333 12.5687 7.93C12.402 7.81667 12.292 7.62667 12.2387 7.36C12.0854 7.59333 11.8587 7.77667 11.5587 7.91C11.2587 8.03667 10.922 8.1 10.5487 8.1C10.062 8.1 9.66871 7.98667 9.36871 7.76C9.06871 7.53333 8.91871 7.21 8.91871 6.79C8.91871 6.39667 9.08204 6.06667 9.40871 5.8C9.73538 5.52667 10.222 5.33333 10.8687 5.22L12.1387 5V4.73C12.1387 4.42333 12.0487 4.18333 11.8687 4.01C11.6887 3.83 11.4387 3.74 11.1187 3.74C10.4587 3.74 10.0287 4.04 9.82871 4.64L8.99871 4.2C9.11871 3.8 9.36204 3.48333 9.72871 3.25C10.102 3.01667 10.5587 2.9 11.0987 2.9C11.7454 2.9 12.2587 3.05 12.6387 3.35C13.0187 3.65 13.2087 4.09 13.2087 4.67V6.93C13.2087 7.05667 13.2354 7.15 13.2887 7.21C13.3487 7.27 13.4454 7.3 13.5787 7.3ZM10.7787 7.29C11.1387 7.29 11.4554 7.20333 11.7287 7.03C12.002 6.85667 12.1387 6.62667 12.1387 6.34V5.74L11.0487 5.96C10.702 6.02667 10.4454 6.12 10.2787 6.24C10.112 6.36 10.0287 6.52 10.0287 6.72C10.0287 6.90667 10.092 7.05 10.2187 7.15C10.352 7.24333 10.5387 7.29 10.7787 7.29ZM17.0218 5.65L16.0318 6.67V8H14.9618V0.75H16.0318V5.45L18.4218 3H19.6818L17.7718 4.96L19.8018 8H18.5618L17.0218 5.65ZM25.0471 5.35C25.0471 5.54333 25.0337 5.72667 25.0071 5.9H21.3471C21.4071 6.34 21.5637 6.67667 21.8171 6.91C22.0704 7.13667 22.3971 7.25 22.7971 7.25C23.1237 7.25 23.3937 7.19333 23.6071 7.08C23.8271 6.96 23.9771 6.79 24.0571 6.57L24.9471 6.94C24.5737 7.71333 23.8571 8.1 22.7971 8.1C22.0104 8.1 21.3937 7.87 20.9471 7.41C20.5071 6.95 20.2871 6.31333 20.2871 5.5C20.2871 4.68 20.5004 4.04333 20.9271 3.59C21.3537 3.13 21.9537 2.9 22.7271 2.9C23.4604 2.9 24.0304 3.12333 24.4371 3.57C24.8437 4.01667 25.0471 4.61 25.0471 5.35ZM22.7271 3.75C22.3404 3.75 22.0271 3.86333 21.7871 4.09C21.5537 4.31667 21.4071 4.64667 21.3471 5.08H24.0471C23.9937 4.66 23.8504 4.33333 23.6171 4.1C23.3904 3.86667 23.0937 3.75 22.7271 3.75ZM31.4496 8.1C30.9429 8.1 30.4929 8.01333 30.0996 7.84C29.7129 7.66667 29.4196 7.40333 29.2196 7.05L29.9396 6.43C30.0662 6.71667 30.2629 6.92667 30.5296 7.06C30.7962 7.19333 31.1162 7.26 31.4896 7.26C31.8296 7.26 32.0929 7.20667 32.2796 7.1C32.4662 6.98667 32.5596 6.84 32.5596 6.66C32.5596 6.5 32.4729 6.37333 32.2996 6.28C32.1262 6.18 31.8262 6.08667 31.3996 6C30.6596 5.86 30.1396 5.67333 29.8396 5.44C29.5396 5.20667 29.3896 4.87667 29.3896 4.45C29.3896 4.17667 29.4729 3.92333 29.6396 3.69C29.8062 3.45 30.0462 3.26 30.3596 3.12C30.6796 2.97333 31.0562 2.9 31.4896 2.9C32.0429 2.9 32.4862 2.99333 32.8196 3.18C33.1529 3.36 33.4096 3.64333 33.5896 4.03L32.8296 4.59C32.7096 4.29667 32.5396 4.08333 32.3196 3.95C32.1062 3.81 31.8329 3.74 31.4996 3.74C31.1996 3.74 30.9496 3.80333 30.7496 3.93C30.5562 4.05 30.4596 4.19 30.4596 4.35C30.4596 4.53 30.5462 4.67333 30.7196 4.78C30.8996 4.88667 31.2229 4.98333 31.6896 5.07C32.3962 5.19667 32.8962 5.37667 33.1896 5.61C33.4829 5.84333 33.6296 6.17 33.6296 6.59C33.6296 7.03667 33.4362 7.4 33.0496 7.68C32.6629 7.96 32.1296 8.1 31.4496 8.1ZM39.4625 3V8H38.5125L38.4725 7.19C38.1325 7.79667 37.5392 8.1 36.6925 8.1C36.1525 8.1 35.7159 7.95333 35.3825 7.66C35.0559 7.36 34.8925 6.90333 34.8925 6.29V3H35.9625V6.01C35.9625 6.45 36.0492 6.76333 36.2225 6.95C36.3959 7.13 36.6525 7.22 36.9925 7.22C37.3992 7.22 37.7325 7.09333 37.9925 6.84C38.2592 6.58 38.3925 6.2 38.3925 5.7V3H39.4625ZM43.7039 2.9C43.9373 2.9 44.1206 2.93333 44.2539 3L44.0839 3.98C43.9306 3.89333 43.7206 3.85 43.4539 3.85C43.2406 3.85 43.0373 3.90667 42.8439 4.02C42.6573 4.13333 42.5006 4.30333 42.3739 4.53C42.2539 4.75667 42.1939 5.03 42.1939 5.35V8H41.1239V3H42.0339L42.1239 3.9C42.4039 3.23333 42.9306 2.9 43.7039 2.9ZM49.6076 5.35C49.6076 5.54333 49.5943 5.72667 49.5676 5.9H45.9076C45.9676 6.34 46.1243 6.67667 46.3776 6.91C46.631 7.13667 46.9576 7.25 47.3576 7.25C47.6843 7.25 47.9543 7.19333 48.1676 7.08C48.3876 6.96 48.5376 6.79 48.6176 6.57L49.5076 6.94C49.1343 7.71333 48.4176 8.1 47.3576 8.1C46.571 8.1 45.9543 7.87 45.5076 7.41C45.0676 6.95 44.8476 6.31333 44.8476 5.5C44.8476 4.68 45.061 4.04333 45.4876 3.59C45.9143 3.13 46.5143 2.9 47.2876 2.9C48.021 2.9 48.591 3.12333 48.9976 3.57C49.4043 4.01667 49.6076 4.61 49.6076 5.35ZM47.2876 3.75C46.901 3.75 46.5876 3.86333 46.3476 4.09C46.1143 4.31667 45.9676 4.64667 45.9076 5.08H48.6076C48.5543 4.66 48.411 4.33333 48.1776 4.1C47.951 3.86667 47.6543 3.75 47.2876 3.75ZM56.2953 8.59C56.0753 9.16333 55.8253 9.56667 55.5453 9.8C55.2653 10.0333 54.8986 10.15 54.4453 10.15C54.1853 10.15 53.9586 10.1167 53.7653 10.05C53.5786 9.99 53.4119 9.89 53.2653 9.75L53.5753 8.93C53.7753 9.17 54.0486 9.29 54.3953 9.29C54.5953 9.29 54.7619 9.23667 54.8953 9.13C55.0353 9.03 55.1586 8.84333 55.2653 8.57L55.4853 8.03L54.9653 6.79L53.4053 3H54.6053L55.7053 6.14L55.9953 7.08L56.3353 6.05L57.3753 3H58.4853L56.2953 8.59ZM61.615 2.9C62.395 2.9 63.005 3.13 63.445 3.59C63.885 4.05 64.105 4.68667 64.105 5.5C64.105 6.31333 63.885 6.95 63.445 7.41C63.005 7.87 62.395 8.1 61.615 8.1C60.835 8.1 60.225 7.87 59.785 7.41C59.345 6.95 59.125 6.31333 59.125 5.5C59.125 4.68667 59.345 4.05 59.785 3.59C60.225 3.13 60.835 2.9 61.615 2.9ZM61.615 3.74C61.1616 3.74 60.8116 3.89333 60.565 4.2C60.325 4.5 60.205 4.93333 60.205 5.5C60.205 6.06667 60.325 6.50333 60.565 6.81C60.8116 7.11 61.1616 7.26 61.615 7.26C62.0683 7.26 62.4183 7.10667 62.665 6.8C62.9116 6.49333 63.035 6.06 63.035 5.5C63.035 4.94 62.9116 4.50667 62.665 4.2C62.4183 3.89333 62.0683 3.74 61.615 3.74ZM70.0094 3V8H69.0594L69.0194 7.19C68.6794 7.79667 68.0861 8.1 67.2394 8.1C66.6994 8.1 66.2627 7.95333 65.9294 7.66C65.6027 7.36 65.4394 6.90333 65.4394 6.29V3H66.5094V6.01C66.5094 6.45 66.5961 6.76333 66.7694 6.95C66.9427 7.13 67.1994 7.22 67.5394 7.22C67.9461 7.22 68.2794 7.09333 68.5394 6.84C68.8061 6.58 68.9394 6.2 68.9394 5.7V3H70.0094ZM74.2508 2.9C74.4842 2.9 74.6675 2.93333 74.8008 3L74.6308 3.98C74.4775 3.89333 74.2675 3.85 74.0008 3.85C73.7875 3.85 73.5842 3.90667 73.3908 4.02C73.2042 4.13333 73.0475 4.30333 72.9208 4.53C72.8008 4.75667 72.7408 5.03 72.7408 5.35V8H71.6708V3H72.5808L72.6708 3.9C72.9508 3.23333 73.4775 2.9 74.2508 2.9ZM81.5386 2.9C82.2252 2.9 82.7652 3.13333 83.1586 3.6C83.5519 4.06 83.7486 4.69667 83.7486 5.51C83.7486 6.32333 83.5519 6.96 83.1586 7.42C82.7652 7.87333 82.2252 8.1 81.5386 8.1C81.1452 8.1 80.7986 8.00667 80.4986 7.82C80.2052 7.63333 79.9852 7.38333 79.8386 7.07L79.7886 8H78.8486V0.75H79.9186V3.8C80.0719 3.52 80.2886 3.3 80.5686 3.14C80.8552 2.98 81.1786 2.9 81.5386 2.9ZM81.2986 7.24C81.7319 7.24 82.0686 7.08667 82.3086 6.78C82.5552 6.47333 82.6786 6.04667 82.6786 5.5C82.6786 4.95333 82.5552 4.53 82.3086 4.23C82.0686 3.92333 81.7319 3.77 81.2986 3.77C80.8919 3.77 80.5652 3.90667 80.3186 4.18C80.0786 4.45333 79.9452 4.83 79.9186 5.31V5.69C79.9452 6.17667 80.0786 6.55667 80.3186 6.83C80.5652 7.10333 80.8919 7.24 81.2986 7.24ZM86.1776 6.54C86.1776 6.78667 86.2143 6.96 86.2876 7.06C86.361 7.15333 86.4976 7.2 86.6976 7.2C86.8243 7.2 86.931 7.19333 87.0176 7.18C87.111 7.16 87.2243 7.12333 87.3576 7.07L87.2376 7.93C87.011 8.04333 86.7343 8.1 86.4076 8.1C85.961 8.1 85.631 7.98667 85.4176 7.76C85.211 7.53333 85.1076 7.17667 85.1076 6.69V0.75H86.1776V6.54ZM92.7829 3V8H91.8329L91.7929 7.19C91.4529 7.79667 90.8595 8.1 90.0129 8.1C89.4729 8.1 89.0362 7.95333 88.7029 7.66C88.3762 7.36 88.2129 6.90333 88.2129 6.29V3H89.2829V6.01C89.2829 6.45 89.3695 6.76333 89.5429 6.95C89.7162 7.13 89.9729 7.22 90.3129 7.22C90.7195 7.22 91.0529 7.09333 91.3129 6.84C91.5795 6.58 91.7129 6.2 91.7129 5.7V3H92.7829ZM98.9143 5.35C98.9143 5.54333 98.9009 5.72667 98.8743 5.9H95.2143C95.2743 6.34 95.4309 6.67667 95.6843 6.91C95.9376 7.13667 96.2643 7.25 96.6643 7.25C96.9909 7.25 97.2609 7.19333 97.4743 7.08C97.6943 6.96 97.8443 6.79 97.9243 6.57L98.8143 6.94C98.4409 7.71333 97.7243 8.1 96.6643 8.1C95.8776 8.1 95.2609 7.87 94.8143 7.41C94.3743 6.95 94.1543 6.31333 94.1543 5.5C94.1543 4.68 94.3676 4.04333 94.7943 3.59C95.2209 3.13 95.8209 2.9 96.5943 2.9C97.3276 2.9 97.8976 3.12333 98.3043 3.57C98.7109 4.01667 98.9143 4.61 98.9143 5.35ZM96.5943 3.75C96.2076 3.75 95.8943 3.86333 95.6543 4.09C95.4209 4.31667 95.2743 4.64667 95.2143 5.08H97.9143C97.8609 4.66 97.7176 4.33333 97.4843 4.1C97.2576 3.86667 96.9609 3.75 96.5943 3.75ZM103.378 7.67C103.218 7.80333 103.021 7.91 102.788 7.99C102.561 8.06333 102.314 8.1 102.048 8.1C101.588 8.1 101.218 7.98667 100.938 7.76C100.664 7.52667 100.524 7.16667 100.518 6.68V3.84H99.5676V3H100.518V1.83L101.588 1.53V3H103.338V3.84H101.588V6.5C101.588 6.74 101.651 6.92 101.778 7.04C101.911 7.15333 102.091 7.21 102.318 7.21C102.624 7.21 102.894 7.10333 103.128 6.89L103.378 7.67ZM106.576 2.9C107.356 2.9 107.966 3.13 108.406 3.59C108.846 4.05 109.066 4.68667 109.066 5.5C109.066 6.31333 108.846 6.95 108.406 7.41C107.966 7.87 107.356 8.1 106.576 8.1C105.796 8.1 105.186 7.87 104.746 7.41C104.306 6.95 104.086 6.31333 104.086 5.5C104.086 4.68667 104.306 4.05 104.746 3.59C105.186 3.13 105.796 2.9 106.576 2.9ZM106.576 3.74C106.123 3.74 105.773 3.89333 105.526 4.2C105.286 4.5 105.166 4.93333 105.166 5.5C105.166 6.06667 105.286 6.50333 105.526 6.81C105.773 7.11 106.123 7.26 106.576 7.26C107.029 7.26 107.379 7.10667 107.626 6.8C107.873 6.49333 107.996 6.06 107.996 5.5C107.996 4.94 107.873 4.50667 107.626 4.2C107.379 3.89333 107.029 3.74 106.576 3.74ZM112.64 2.9C113.42 2.9 114.03 3.13 114.47 3.59C114.91 4.05 115.13 4.68667 115.13 5.5C115.13 6.31333 114.91 6.95 114.47 7.41C114.03 7.87 113.42 8.1 112.64 8.1C111.86 8.1 111.25 7.87 110.81 7.41C110.37 6.95 110.15 6.31333 110.15 5.5C110.15 4.68667 110.37 4.05 110.81 3.59C111.25 3.13 111.86 2.9 112.64 2.9ZM112.64 3.74C112.187 3.74 111.837 3.89333 111.59 4.2C111.35 4.5 111.23 4.93333 111.23 5.5C111.23 6.06667 111.35 6.50333 111.59 6.81C111.837 7.11 112.187 7.26 112.64 7.26C113.094 7.26 113.444 7.10667 113.69 6.8C113.937 6.49333 114.06 6.06 114.06 5.5C114.06 4.94 113.937 4.50667 113.69 4.2C113.444 3.89333 113.094 3.74 112.64 3.74ZM119.676 7.67C119.516 7.80333 119.32 7.91 119.086 7.99C118.86 8.06333 118.613 8.1 118.346 8.1C117.886 8.1 117.516 7.98667 117.236 7.76C116.963 7.52667 116.823 7.16667 116.816 6.68V3.84H115.866V3H116.816V1.83L117.886 1.53V3H119.636V3.84H117.886V6.5C117.886 6.74 117.95 6.92 118.076 7.04C118.21 7.15333 118.39 7.21 118.616 7.21C118.923 7.21 119.193 7.10333 119.426 6.89L119.676 7.67ZM123.404 2.9C123.957 2.9 124.407 3.06 124.754 3.38C125.107 3.7 125.284 4.16 125.284 4.76V8H124.214V5.1C124.214 4.22 123.857 3.78 123.144 3.78C122.77 3.78 122.45 3.91 122.184 4.17C121.917 4.43 121.784 4.82667 121.784 5.36V8H120.714V0.75H121.784V3.8C121.95 3.49333 122.17 3.26667 122.444 3.12C122.724 2.97333 123.044 2.9 123.404 2.9ZM135.457 8.1C135.157 8.1 134.894 8.05333 134.667 7.96C134.44 7.86 134.17 7.66667 133.857 7.38C133.61 7.60667 133.32 7.78333 132.987 7.91C132.66 8.03667 132.3 8.1 131.907 8.1C131.487 8.1 131.11 8.02667 130.777 7.88C130.45 7.73333 130.194 7.53 130.007 7.27C129.827 7.00333 129.737 6.7 129.737 6.36C129.737 5.96667 129.854 5.61 130.087 5.29C130.327 4.96333 130.717 4.67 131.257 4.41C130.977 4.05667 130.784 3.76667 130.677 3.54C130.57 3.31333 130.517 3.07667 130.517 2.83C130.517 2.57 130.58 2.32333 130.707 2.09C130.84 1.85 131.034 1.66 131.287 1.52C131.54 1.37333 131.847 1.3 132.207 1.3C132.7 1.3 133.1 1.42333 133.407 1.67C133.714 1.91 133.867 2.26 133.867 2.72C133.867 3.10667 133.77 3.44333 133.577 3.73C133.384 4.01667 133.034 4.29333 132.527 4.56C132.8 4.9 133.004 5.14667 133.137 5.3C133.504 5.74 133.76 6.04333 133.907 6.21C134.147 5.77667 134.267 5.28333 134.267 4.73L134.257 4.5L135.047 4.56C135.06 4.96667 135.014 5.36 134.907 5.74C134.8 6.12 134.634 6.46 134.407 6.76C134.647 6.99333 134.854 7.15 135.027 7.23C135.2 7.30333 135.407 7.33333 135.647 7.32L135.457 8.1ZM132.207 2.11C131.974 2.11 131.794 2.18 131.667 2.32C131.54 2.45333 131.477 2.62667 131.477 2.84C131.477 3.00667 131.514 3.16667 131.587 3.32C131.667 3.47333 131.834 3.71 132.087 4.03C132.447 3.81667 132.684 3.61333 132.797 3.42C132.91 3.22667 132.967 3.00667 132.967 2.76C132.967 2.54667 132.9 2.38667 132.767 2.28C132.64 2.16667 132.454 2.11 132.207 2.11ZM130.697 6.29C130.697 6.58333 130.817 6.82667 131.057 7.02C131.297 7.21333 131.59 7.31 131.937 7.31C132.47 7.31 132.94 7.15667 133.347 6.85C133.04 6.52333 132.76 6.20667 132.507 5.9L132.357 5.73L131.727 4.98C131.32 5.22667 131.047 5.44667 130.907 5.64C130.767 5.83333 130.697 6.05 130.697 6.29ZM142.398 1.4C143.111 1.4 143.675 1.58333 144.088 1.95C144.508 2.31667 144.718 2.82 144.718 3.46C144.718 4.1 144.508 4.60333 144.088 4.97C143.675 5.33 143.111 5.51 142.398 5.51H140.928V8H139.858V1.4H142.398ZM142.228 4.6C142.695 4.6 143.041 4.50667 143.268 4.32C143.495 4.12667 143.608 3.84 143.608 3.46C143.608 2.69333 143.148 2.31 142.228 2.31H140.928V4.6H142.228ZM148.07 2.9C148.85 2.9 149.46 3.13 149.9 3.59C150.34 4.05 150.56 4.68667 150.56 5.5C150.56 6.31333 150.34 6.95 149.9 7.41C149.46 7.87 148.85 8.1 148.07 8.1C147.29 8.1 146.68 7.87 146.24 7.41C145.8 6.95 145.58 6.31333 145.58 5.5C145.58 4.68667 145.8 4.05 146.24 3.59C146.68 3.13 147.29 2.9 148.07 2.9ZM148.07 3.74C147.617 3.74 147.267 3.89333 147.02 4.2C146.78 4.5 146.66 4.93333 146.66 5.5C146.66 6.06667 146.78 6.50333 147.02 6.81C147.267 7.11 147.617 7.26 148.07 7.26C148.523 7.26 148.873 7.10667 149.12 6.8C149.367 6.49333 149.49 6.06 149.49 5.5C149.49 4.94 149.367 4.50667 149.12 4.2C148.873 3.89333 148.523 3.74 148.07 3.74ZM154.624 2.9C155.311 2.9 155.851 3.13 156.244 3.59C156.638 4.04333 156.834 4.67667 156.834 5.49C156.834 6.30333 156.638 6.94333 156.244 7.41C155.851 7.87 155.311 8.1 154.624 8.1C154.264 8.1 153.941 8.02 153.654 7.86C153.374 7.7 153.158 7.48 153.004 7.2V10.1H151.934V3H152.874L152.924 3.93C153.071 3.61667 153.291 3.36667 153.584 3.18C153.884 2.99333 154.231 2.9 154.624 2.9ZM154.384 7.23C154.818 7.23 155.154 7.08 155.394 6.78C155.641 6.47333 155.764 6.04667 155.764 5.5C155.764 4.95333 155.641 4.52667 155.394 4.22C155.154 3.91333 154.818 3.76 154.384 3.76C153.978 3.76 153.651 3.89667 153.404 4.17C153.164 4.44333 153.031 4.82333 153.004 5.31V5.69C153.031 6.17 153.164 6.54667 153.404 6.82C153.651 7.09333 153.978 7.23 154.384 7.23ZM159.264 6.54C159.264 6.78667 159.3 6.96 159.374 7.06C159.447 7.15333 159.584 7.2 159.784 7.2C159.91 7.2 160.017 7.19333 160.104 7.18C160.197 7.16 160.31 7.12333 160.444 7.07L160.324 7.93C160.097 8.04333 159.82 8.1 159.494 8.1C159.047 8.1 158.717 7.98667 158.504 7.76C158.297 7.53333 158.194 7.17667 158.194 6.69V0.75H159.264V6.54ZM161.879 2.16C161.652 2.16 161.475 2.10333 161.349 1.99C161.222 1.87 161.159 1.70333 161.159 1.49C161.159 1.27667 161.222 1.11333 161.349 1C161.475 0.886666 161.652 0.83 161.879 0.83C162.105 0.83 162.279 0.886666 162.399 1C162.525 1.11333 162.589 1.27667 162.589 1.49C162.589 1.70333 162.525 1.87 162.399 1.99C162.279 2.10333 162.105 2.16 161.879 2.16ZM162.409 8H161.339V3H162.409V8ZM166.993 7.22C167.5 7.22 167.893 7.33333 168.173 7.56C168.453 7.78667 168.593 8.1 168.593 8.5C168.593 8.84 168.48 9.13333 168.253 9.38C168.033 9.62667 167.726 9.81667 167.333 9.95C166.946 10.0833 166.51 10.15 166.023 10.15C165.23 10.15 164.633 10.0333 164.233 9.8C163.84 9.56667 163.643 9.25667 163.643 8.87C163.643 8.64333 163.72 8.44333 163.873 8.27C164.033 8.10333 164.253 7.98333 164.533 7.91C164.32 7.81 164.15 7.68333 164.023 7.53C163.896 7.37 163.833 7.18 163.833 6.96C163.833 6.47333 164.093 6.14 164.613 5.96C164.36 5.81333 164.166 5.62333 164.033 5.39C163.906 5.15667 163.843 4.89 163.843 4.59C163.843 4.25667 163.933 3.96333 164.113 3.71C164.293 3.45 164.546 3.25 164.873 3.11C165.206 2.97 165.586 2.9 166.013 2.9C166.38 2.9 166.716 2.95333 167.023 3.06C167.116 2.69333 167.283 2.41667 167.523 2.23C167.77 2.03667 168.093 1.94333 168.493 1.95L168.673 2.78C168.353 2.77333 168.093 2.81333 167.893 2.9C167.7 2.98667 167.566 3.11667 167.493 3.29C167.713 3.44333 167.883 3.63 168.003 3.85C168.123 4.07 168.183 4.31667 168.183 4.59C168.183 5.10333 167.983 5.51333 167.583 5.82C167.19 6.12667 166.666 6.28 166.013 6.28C165.706 6.28 165.43 6.25 165.183 6.19C165.016 6.23 164.893 6.29667 164.813 6.39C164.74 6.47667 164.703 6.59333 164.703 6.74C164.703 6.89333 164.756 7.01333 164.863 7.1C164.976 7.18 165.13 7.22 165.323 7.22H166.993ZM166.013 3.65C165.706 3.65 165.45 3.74 165.243 3.92C165.036 4.09333 164.933 4.31667 164.933 4.59C164.933 4.87 165.036 5.1 165.243 5.28C165.45 5.45333 165.706 5.54 166.013 5.54C166.326 5.54 166.583 5.45333 166.783 5.28C166.99 5.1 167.093 4.87 167.093 4.59C167.093 4.31 166.99 4.08333 166.783 3.91C166.583 3.73667 166.326 3.65 166.013 3.65ZM166.123 9.35C166.61 9.35 166.99 9.28 167.263 9.14C167.536 9 167.673 8.82667 167.673 8.62C167.673 8.45333 167.606 8.32667 167.473 8.24C167.34 8.15333 167.116 8.11 166.803 8.11H165.453C165.153 8.11 164.926 8.15667 164.773 8.25C164.626 8.34333 164.553 8.47333 164.553 8.64C164.553 8.86667 164.683 9.04 164.943 9.16C165.21 9.28667 165.603 9.35 166.123 9.35ZM172.31 2.9C172.863 2.9 173.313 3.06 173.66 3.38C174.013 3.7 174.19 4.16 174.19 4.76V8H173.12V5.1C173.12 4.22 172.763 3.78 172.05 3.78C171.677 3.78 171.357 3.91 171.09 4.17C170.823 4.43 170.69 4.82667 170.69 5.36V8H169.62V0.75H170.69V3.8C170.857 3.49333 171.077 3.26667 171.35 3.12C171.63 2.97333 171.95 2.9 172.31 2.9ZM178.993 7.67C178.833 7.80333 178.636 7.91 178.403 7.99C178.176 8.06333 177.93 8.1 177.663 8.1C177.203 8.1 176.833 7.98667 176.553 7.76C176.28 7.52667 176.14 7.16667 176.133 6.68V3.84H175.183V3H176.133V1.83L177.203 1.53V3H178.953V3.84H177.203V6.5C177.203 6.74 177.266 6.92 177.393 7.04C177.526 7.15333 177.706 7.21 177.933 7.21C178.24 7.21 178.51 7.10333 178.743 6.89L178.993 7.67ZM181.801 8.1C181.294 8.1 180.844 8.01333 180.451 7.84C180.064 7.66667 179.771 7.40333 179.571 7.05L180.291 6.43C180.418 6.71667 180.614 6.92667 180.881 7.06C181.148 7.19333 181.468 7.26 181.841 7.26C182.181 7.26 182.444 7.20667 182.631 7.1C182.818 6.98667 182.911 6.84 182.911 6.66C182.911 6.5 182.824 6.37333 182.651 6.28C182.478 6.18 182.178 6.08667 181.751 6C181.011 5.86 180.491 5.67333 180.191 5.44C179.891 5.20667 179.741 4.87667 179.741 4.45C179.741 4.17667 179.824 3.92333 179.991 3.69C180.158 3.45 180.398 3.26 180.711 3.12C181.031 2.97333 181.408 2.9 181.841 2.9C182.394 2.9 182.838 2.99333 183.171 3.18C183.504 3.36 183.761 3.64333 183.941 4.03L183.181 4.59C183.061 4.29667 182.891 4.08333 182.671 3.95C182.458 3.81 182.184 3.74 181.851 3.74C181.551 3.74 181.301 3.80333 181.101 3.93C180.908 4.05 180.811 4.19 180.811 4.35C180.811 4.53 180.898 4.67333 181.071 4.78C181.251 4.88667 181.574 4.98333 182.041 5.07C182.748 5.19667 183.248 5.37667 183.541 5.61C183.834 5.84333 183.981 6.17 183.981 6.59C183.981 7.03667 183.788 7.4 183.401 7.68C183.014 7.96 182.481 8.1 181.801 8.1ZM192.856 7.3C193.003 7.3 193.126 7.28667 193.226 7.26L193.156 7.98C192.976 8.06 192.769 8.1 192.536 8.1C192.249 8.1 192.019 8.04333 191.846 7.93C191.679 7.81667 191.569 7.62667 191.516 7.36C191.363 7.59333 191.136 7.77667 190.836 7.91C190.536 8.03667 190.199 8.1 189.826 8.1C189.339 8.1 188.946 7.98667 188.646 7.76C188.346 7.53333 188.196 7.21 188.196 6.79C188.196 6.39667 188.359 6.06667 188.686 5.8C189.013 5.52667 189.499 5.33333 190.146 5.22L191.416 5V4.73C191.416 4.42333 191.326 4.18333 191.146 4.01C190.966 3.83 190.716 3.74 190.396 3.74C189.736 3.74 189.306 4.04 189.106 4.64L188.276 4.2C188.396 3.8 188.639 3.48333 189.006 3.25C189.379 3.01667 189.836 2.9 190.376 2.9C191.023 2.9 191.536 3.05 191.916 3.35C192.296 3.65 192.486 4.09 192.486 4.67V6.93C192.486 7.05667 192.513 7.15 192.566 7.21C192.626 7.27 192.723 7.3 192.856 7.3ZM190.056 7.29C190.416 7.29 190.733 7.20333 191.006 7.03C191.279 6.85667 191.416 6.62667 191.416 6.34V5.74L190.326 5.96C189.979 6.02667 189.723 6.12 189.556 6.24C189.389 6.36 189.306 6.52 189.306 6.72C189.306 6.90667 189.369 7.05 189.496 7.15C189.629 7.24333 189.816 7.29 190.056 7.29ZM196.819 2.9C197.053 2.9 197.236 2.93333 197.369 3L197.199 3.98C197.046 3.89333 196.836 3.85 196.569 3.85C196.356 3.85 196.153 3.90667 195.959 4.02C195.773 4.13333 195.616 4.30333 195.489 4.53C195.369 4.75667 195.309 5.03 195.309 5.35V8H194.239V3H195.149L195.239 3.9C195.519 3.23333 196.046 2.9 196.819 2.9ZM202.723 5.35C202.723 5.54333 202.71 5.72667 202.683 5.9H199.023C199.083 6.34 199.24 6.67667 199.493 6.91C199.746 7.13667 200.073 7.25 200.473 7.25C200.8 7.25 201.07 7.19333 201.283 7.08C201.503 6.96 201.653 6.79 201.733 6.57L202.623 6.94C202.25 7.71333 201.533 8.1 200.473 8.1C199.686 8.1 199.07 7.87 198.623 7.41C198.183 6.95 197.963 6.31333 197.963 5.5C197.963 4.68 198.176 4.04333 198.603 3.59C199.03 3.13 199.63 2.9 200.403 2.9C201.136 2.9 201.706 3.12333 202.113 3.57C202.52 4.01667 202.723 4.61 202.723 5.35ZM200.403 3.75C200.016 3.75 199.703 3.86333 199.463 4.09C199.23 4.31667 199.083 4.64667 199.023 5.08H201.723C201.67 4.66 201.526 4.33333 201.293 4.1C201.066 3.86667 200.77 3.75 200.403 3.75ZM47.943 19.67C47.783 19.8033 47.5864 19.91 47.353 19.99C47.1264 20.0633 46.8797 20.1 46.613 20.1C46.153 20.1 45.783 19.9867 45.503 19.76C45.2297 19.5267 45.0897 19.1667 45.083 18.68V15.84H44.133V15H45.083V13.83L46.153 13.53V15H47.903V15.84H46.153V18.5C46.153 18.74 46.2164 18.92 46.343 19.04C46.4764 19.1533 46.6564 19.21 46.883 19.21C47.1897 19.21 47.4597 19.1033 47.693 18.89L47.943 19.67ZM53.4713 15V20H52.5213L52.4813 19.19C52.1413 19.7967 51.548 20.1 50.7013 20.1C50.1613 20.1 49.7247 19.9533 49.3913 19.66C49.0647 19.36 48.9013 18.9033 48.9013 18.29V15H49.9713V18.01C49.9713 18.45 50.058 18.7633 50.2313 18.95C50.4047 19.13 50.6613 19.22 51.0013 19.22C51.408 19.22 51.7413 19.0933 52.0013 18.84C52.268 18.58 52.4013 18.2 52.4013 17.7V15H53.4713ZM57.7127 14.9C57.9461 14.9 58.1294 14.9333 58.2627 15L58.0927 15.98C57.9394 15.8933 57.7294 15.85 57.4627 15.85C57.2494 15.85 57.0461 15.9067 56.8527 16.02C56.6661 16.1333 56.5094 16.3033 56.3827 16.53C56.2627 16.7567 56.2027 17.03 56.2027 17.35V20H55.1327V15H56.0427L56.1327 15.9C56.4127 15.2333 56.9394 14.9 57.7127 14.9ZM61.9634 14.9C62.5167 14.9 62.9667 15.06 63.3134 15.38C63.6667 15.7 63.8434 16.16 63.8434 16.76V20H62.7734V17.1C62.7734 16.22 62.4167 15.78 61.7034 15.78C61.33 15.78 61.01 15.91 60.7434 16.17C60.4767 16.4233 60.3434 16.8167 60.3434 17.35V20H59.2734V15H60.2234L60.2734 15.83C60.44 15.5167 60.67 15.2833 60.9634 15.13C61.2567 14.9767 61.59 14.9 61.9634 14.9ZM69.9348 17.35C69.9348 17.5433 69.9214 17.7267 69.8948 17.9H66.2348C66.2948 18.34 66.4514 18.6767 66.7048 18.91C66.9581 19.1367 67.2848 19.25 67.6848 19.25C68.0114 19.25 68.2814 19.1933 68.4948 19.08C68.7148 18.96 68.8648 18.79 68.9448 18.57L69.8348 18.94C69.4614 19.7133 68.7448 20.1 67.6848 20.1C66.8981 20.1 66.2814 19.87 65.8348 19.41C65.3948 18.95 65.1748 18.3133 65.1748 17.5C65.1748 16.68 65.3881 16.0433 65.8148 15.59C66.2414 15.13 66.8414 14.9 67.6148 14.9C68.3481 14.9 68.9181 15.1233 69.3248 15.57C69.7314 16.0167 69.9348 16.61 69.9348 17.35ZM67.6148 15.75C67.2281 15.75 66.9148 15.8633 66.6748 16.09C66.4414 16.3167 66.2948 16.6467 66.2348 17.08H68.9348C68.8814 16.66 68.7381 16.3333 68.5048 16.1C68.2781 15.8667 67.9814 15.75 67.6148 15.75ZM75.9053 12.75V20H74.9653L74.9053 19.11C74.7586 19.41 74.5353 19.65 74.2353 19.83C73.942 20.01 73.6053 20.1 73.2253 20.1C72.5386 20.1 71.9953 19.8733 71.5953 19.42C71.202 18.96 71.0053 18.3233 71.0053 17.51C71.0053 16.6967 71.202 16.06 71.5953 15.6C71.9953 15.1333 72.5386 14.9 73.2253 14.9C73.592 14.9 73.9153 14.9833 74.1953 15.15C74.4753 15.31 74.6886 15.53 74.8353 15.81V12.75H75.9053ZM73.4653 19.24C73.8853 19.24 74.2186 19.09 74.4653 18.79C74.712 18.49 74.8353 18.08 74.8353 17.56V17.44C74.8353 16.92 74.712 16.5133 74.4653 16.22C74.2186 15.92 73.8853 15.77 73.4653 15.77C73.032 15.77 72.692 15.9233 72.4453 16.23C72.2053 16.53 72.0853 16.9533 72.0853 17.5C72.0853 18.0467 72.2053 18.4733 72.4453 18.78C72.692 19.0867 73.032 19.24 73.4653 19.24ZM83.0163 14.9C83.7963 14.9 84.4063 15.13 84.8463 15.59C85.2863 16.05 85.5063 16.6867 85.5063 17.5C85.5063 18.3133 85.2863 18.95 84.8463 19.41C84.4063 19.87 83.7963 20.1 83.0163 20.1C82.2363 20.1 81.6263 19.87 81.1863 19.41C80.7463 18.95 80.5263 18.3133 80.5263 17.5C80.5263 16.6867 80.7463 16.05 81.1863 15.59C81.6263 15.13 82.2363 14.9 83.0163 14.9ZM83.0163 15.74C82.563 15.74 82.213 15.8933 81.9663 16.2C81.7263 16.5 81.6063 16.9333 81.6063 17.5C81.6063 18.0667 81.7263 18.5033 81.9663 18.81C82.213 19.11 82.563 19.26 83.0163 19.26C83.4697 19.26 83.8197 19.1067 84.0663 18.8C84.313 18.4933 84.4363 18.06 84.4363 17.5C84.4363 16.94 84.313 16.5067 84.0663 16.2C83.8197 15.8933 83.4697 15.74 83.0163 15.74ZM89.5708 14.9C90.1241 14.9 90.5741 15.06 90.9208 15.38C91.2741 15.7 91.4508 16.16 91.4508 16.76V20H90.3808V17.1C90.3808 16.22 90.0241 15.78 89.3108 15.78C88.9374 15.78 88.6174 15.91 88.3508 16.17C88.0841 16.4233 87.9508 16.8167 87.9508 17.35V20H86.8808V15H87.8308L87.8808 15.83C88.0474 15.5167 88.2774 15.2833 88.5708 15.13C88.8641 14.9767 89.1974 14.9 89.5708 14.9ZM100.644 19.3C100.791 19.3 100.914 19.2867 101.014 19.26L100.944 19.98C100.764 20.06 100.557 20.1 100.324 20.1C100.037 20.1 99.8075 20.0433 99.6341 19.93C99.4675 19.8167 99.3575 19.6267 99.3041 19.36C99.1508 19.5933 98.9241 19.7767 98.6241 19.91C98.3241 20.0367 97.9875 20.1 97.6141 20.1C97.1275 20.1 96.7341 19.9867 96.4341 19.76C96.1341 19.5333 95.9841 19.21 95.9841 18.79C95.9841 18.3967 96.1475 18.0667 96.4741 17.8C96.8008 17.5267 97.2875 17.3333 97.9341 17.22L99.2041 17V16.73C99.2041 16.4233 99.1141 16.1833 98.9341 16.01C98.7541 15.83 98.5041 15.74 98.1841 15.74C97.5241 15.74 97.0941 16.04 96.8941 16.64L96.0641 16.2C96.1841 15.8 96.4275 15.4833 96.7941 15.25C97.1675 15.0167 97.6241 14.9 98.1641 14.9C98.8108 14.9 99.3241 15.05 99.7041 15.35C100.084 15.65 100.274 16.09 100.274 16.67V18.93C100.274 19.0567 100.301 19.15 100.354 19.21C100.414 19.27 100.511 19.3 100.644 19.3ZM97.8441 19.29C98.2041 19.29 98.5208 19.2033 98.7941 19.03C99.0675 18.8567 99.2041 18.6267 99.2041 18.34V17.74L98.1141 17.96C97.7675 18.0267 97.5108 18.12 97.3441 18.24C97.1775 18.36 97.0941 18.52 97.0941 18.72C97.0941 18.9067 97.1575 19.05 97.2841 19.15C97.4175 19.2433 97.6041 19.29 97.8441 19.29ZM104.717 14.9C105.271 14.9 105.721 15.06 106.067 15.38C106.421 15.7 106.597 16.16 106.597 16.76V20H105.527V17.1C105.527 16.22 105.171 15.78 104.457 15.78C104.084 15.78 103.764 15.91 103.497 16.17C103.231 16.4233 103.097 16.8167 103.097 17.35V20H102.027V15H102.977L103.027 15.83C103.194 15.5167 103.424 15.2833 103.717 15.13C104.011 14.9767 104.344 14.9 104.717 14.9ZM112.849 12.75V20H111.909L111.849 19.11C111.702 19.41 111.479 19.65 111.179 19.83C110.885 20.01 110.549 20.1 110.169 20.1C109.482 20.1 108.939 19.8733 108.539 19.42C108.145 18.96 107.949 18.3233 107.949 17.51C107.949 16.6967 108.145 16.06 108.539 15.6C108.939 15.1333 109.482 14.9 110.169 14.9C110.535 14.9 110.859 14.9833 111.139 15.15C111.419 15.31 111.632 15.53 111.779 15.81V12.75H112.849ZM110.409 19.24C110.829 19.24 111.162 19.09 111.409 18.79C111.655 18.49 111.779 18.08 111.779 17.56V17.44C111.779 16.92 111.655 16.5133 111.409 16.22C111.162 15.92 110.829 15.77 110.409 15.77C109.975 15.77 109.635 15.9233 109.389 16.23C109.149 16.53 109.029 16.9533 109.029 17.5C109.029 18.0467 109.149 18.4733 109.389 18.78C109.635 19.0867 109.975 19.24 110.409 19.24ZM118.3 14.16C118.073 14.16 117.896 14.1033 117.77 13.99C117.643 13.87 117.58 13.7033 117.58 13.49C117.58 13.2767 117.643 13.1133 117.77 13C117.896 12.8867 118.073 12.83 118.3 12.83C118.526 12.83 118.7 12.8867 118.82 13C118.946 13.1133 119.01 13.2767 119.01 13.49C119.01 13.7033 118.946 13.87 118.82 13.99C118.7 14.1033 118.526 14.16 118.3 14.16ZM118.83 20H117.76V15H118.83V20ZM123.194 14.9C123.747 14.9 124.197 15.06 124.544 15.38C124.897 15.7 125.074 16.16 125.074 16.76V20H124.004V17.1C124.004 16.22 123.647 15.78 122.934 15.78C122.56 15.78 122.24 15.91 121.974 16.17C121.707 16.4233 121.574 16.8167 121.574 17.35V20H120.504V15H121.454L121.504 15.83C121.67 15.5167 121.9 15.2833 122.194 15.13C122.487 14.9767 122.82 14.9 123.194 14.9ZM132.527 14.9C132.761 14.9 132.944 14.9333 133.077 15L132.907 15.98C132.754 15.8933 132.544 15.85 132.277 15.85C132.064 15.85 131.861 15.9067 131.667 16.02C131.481 16.1333 131.324 16.3033 131.197 16.53C131.077 16.7567 131.017 17.03 131.017 17.35V20H129.947V15H130.857L130.947 15.9C131.227 15.2333 131.754 14.9 132.527 14.9ZM138.3 19.3C138.447 19.3 138.57 19.2867 138.67 19.26L138.6 19.98C138.42 20.06 138.214 20.1 137.98 20.1C137.694 20.1 137.464 20.0433 137.29 19.93C137.124 19.8167 137.014 19.6267 136.96 19.36C136.807 19.5933 136.58 19.7767 136.28 19.91C135.98 20.0367 135.644 20.1 135.27 20.1C134.784 20.1 134.39 19.9867 134.09 19.76C133.79 19.5333 133.64 19.21 133.64 18.79C133.64 18.3967 133.804 18.0667 134.13 17.8C134.457 17.5267 134.944 17.3333 135.59 17.22L136.86 17V16.73C136.86 16.4233 136.77 16.1833 136.59 16.01C136.41 15.83 136.16 15.74 135.84 15.74C135.18 15.74 134.75 16.04 134.55 16.64L133.72 16.2C133.84 15.8 134.084 15.4833 134.45 15.25C134.824 15.0167 135.28 14.9 135.82 14.9C136.467 14.9 136.98 15.05 137.36 15.35C137.74 15.65 137.93 16.09 137.93 16.67V18.93C137.93 19.0567 137.957 19.15 138.01 19.21C138.07 19.27 138.167 19.3 138.3 19.3ZM135.5 19.29C135.86 19.29 136.177 19.2033 136.45 19.03C136.724 18.8567 136.86 18.6267 136.86 18.34V17.74L135.77 17.96C135.424 18.0267 135.167 18.12 135 18.24C134.834 18.36 134.75 18.52 134.75 18.72C134.75 18.9067 134.814 19.05 134.94 19.15C135.074 19.2433 135.26 19.29 135.5 19.29ZM142.374 14.9C142.927 14.9 143.377 15.06 143.724 15.38C144.077 15.7 144.254 16.16 144.254 16.76V20H143.184V17.1C143.184 16.22 142.827 15.78 142.114 15.78C141.74 15.78 141.42 15.91 141.154 16.17C140.887 16.4233 140.754 16.8167 140.754 17.35V20H139.684V15H140.634L140.684 15.83C140.85 15.5167 141.08 15.2833 141.374 15.13C141.667 14.9767 142 14.9 142.374 14.9ZM148.785 19.22C149.292 19.22 149.685 19.3333 149.965 19.56C150.245 19.7867 150.385 20.1 150.385 20.5C150.385 20.84 150.272 21.1333 150.045 21.38C149.825 21.6267 149.518 21.8167 149.125 21.95C148.738 22.0833 148.302 22.15 147.815 22.15C147.022 22.15 146.425 22.0333 146.025 21.8C145.632 21.5667 145.435 21.2567 145.435 20.87C145.435 20.6433 145.512 20.4433 145.665 20.27C145.825 20.1033 146.045 19.9833 146.325 19.91C146.112 19.81 145.942 19.6833 145.815 19.53C145.688 19.37 145.625 19.18 145.625 18.96C145.625 18.4733 145.885 18.14 146.405 17.96C146.152 17.8133 145.958 17.6233 145.825 17.39C145.698 17.1567 145.635 16.89 145.635 16.59C145.635 16.2567 145.725 15.9633 145.905 15.71C146.085 15.45 146.338 15.25 146.665 15.11C146.998 14.97 147.378 14.9 147.805 14.9C148.172 14.9 148.508 14.9533 148.815 15.06C148.908 14.6933 149.075 14.4167 149.315 14.23C149.562 14.0367 149.885 13.9433 150.285 13.95L150.465 14.78C150.145 14.7733 149.885 14.8133 149.685 14.9C149.492 14.9867 149.358 15.1167 149.285 15.29C149.505 15.4433 149.675 15.63 149.795 15.85C149.915 16.07 149.975 16.3167 149.975 16.59C149.975 17.1033 149.775 17.5133 149.375 17.82C148.982 18.1267 148.458 18.28 147.805 18.28C147.498 18.28 147.222 18.25 146.975 18.19C146.808 18.23 146.685 18.2967 146.605 18.39C146.532 18.4767 146.495 18.5933 146.495 18.74C146.495 18.8933 146.548 19.0133 146.655 19.1C146.768 19.18 146.922 19.22 147.115 19.22H148.785ZM147.805 15.65C147.498 15.65 147.242 15.74 147.035 15.92C146.828 16.0933 146.725 16.3167 146.725 16.59C146.725 16.87 146.828 17.1 147.035 17.28C147.242 17.4533 147.498 17.54 147.805 17.54C148.118 17.54 148.375 17.4533 148.575 17.28C148.782 17.1 148.885 16.87 148.885 16.59C148.885 16.31 148.782 16.0833 148.575 15.91C148.375 15.7367 148.118 15.65 147.805 15.65ZM147.915 21.35C148.402 21.35 148.782 21.28 149.055 21.14C149.328 21 149.465 20.8267 149.465 20.62C149.465 20.4533 149.398 20.3267 149.265 20.24C149.132 20.1533 148.908 20.11 148.595 20.11H147.245C146.945 20.11 146.718 20.1567 146.565 20.25C146.418 20.3433 146.345 20.4733 146.345 20.64C146.345 20.8667 146.475 21.04 146.735 21.16C147.002 21.2867 147.395 21.35 147.915 21.35ZM155.882 17.35C155.882 17.5433 155.869 17.7267 155.842 17.9H152.182C152.242 18.34 152.399 18.6767 152.652 18.91C152.905 19.1367 153.232 19.25 153.632 19.25C153.959 19.25 154.229 19.1933 154.442 19.08C154.662 18.96 154.812 18.79 154.892 18.57L155.782 18.94C155.409 19.7133 154.692 20.1 153.632 20.1C152.845 20.1 152.229 19.87 151.782 19.41C151.342 18.95 151.122 18.3133 151.122 17.5C151.122 16.68 151.335 16.0433 151.762 15.59C152.189 15.13 152.789 14.9 153.562 14.9C154.295 14.9 154.865 15.1233 155.272 15.57C155.679 16.0167 155.882 16.61 155.882 17.35ZM153.562 15.75C153.175 15.75 152.862 15.8633 152.622 16.09C152.389 16.3167 152.242 16.6467 152.182 17.08H154.882C154.829 16.66 154.685 16.3333 154.452 16.1C154.225 15.8667 153.929 15.75 153.562 15.75ZM157.763 18.65C157.989 18.65 158.169 18.7167 158.303 18.85C158.443 18.9767 158.513 19.15 158.513 19.37C158.513 19.59 158.443 19.7667 158.303 19.9C158.169 20.0333 157.989 20.1 157.763 20.1C157.536 20.1 157.353 20.0333 157.213 19.9C157.073 19.7667 157.003 19.59 157.003 19.37C157.003 19.15 157.069 18.9767 157.203 18.85C157.343 18.7167 157.529 18.65 157.763 18.65Z" fill="#FEF8E5"/>
</svg>
