<svg width="303" height="103" viewBox="0 0 303 103" fill="none" xmlns="http://www.w3.org/2000/svg">
<g filter="url(#filter0_d_1001_2302)">
<rect x="4.5" y="0.5" width="294" height="94" rx="5.5" fill="#FD4A1E" stroke="black"/>
<path d="M48.9425 24.06H50.6625C50.3425 22.6 50.0025 21.1 49.6625 19.8C49.3625 18.78 49.1425 17.8 48.9825 17.08H48.9225C48.7425 17.8 48.5225 18.76 48.2225 19.84C47.9225 21.14 47.5825 22.62 47.2425 24.06H48.9425ZM57.3825 30H51.7825C51.7225 29.46 51.5625 28.42 51.3025 27.14C50.4425 27.14 49.6025 27.14 48.9425 27.14C48.3225 27.14 47.4625 27.14 46.5825 27.14C46.3225 28.38 46.1225 29.4 46.0425 30H40.9225C42.1425 26.24 44.5625 17.08 45.0625 15H53.0825C53.6425 17.1 56.0825 26.18 57.3825 30ZM65.866 22.24C67.186 22.24 67.786 21.62 67.786 20.28C67.786 18.68 67.106 18.32 65.606 18.32C65.186 18.32 64.206 18.34 63.426 18.36C63.426 19.66 63.426 20.96 63.446 22.2C64.006 22.22 64.886 22.22 65.866 22.24ZM69.026 23.92V24.04C71.086 24.3 71.906 24.9 72.406 26.92C72.726 28.06 73.026 29.32 73.226 30H68.766C68.026 30 67.886 29.74 67.546 28.2C67.066 25.68 66.786 25.24 65.566 25.24C64.846 25.24 64.426 25.22 63.466 25.24C63.506 27.16 63.566 28.82 63.686 30H58.626C58.666 27.82 58.706 25.7 58.706 22.5C58.706 19.32 58.686 17.16 58.626 15H66.806C70.466 15 72.566 16.36 72.566 19.52C72.566 22.26 71.566 23.52 69.026 23.92ZM74.9541 15H86.9941C86.9741 15.42 86.9541 16.18 86.9541 16.76C86.9541 17.38 86.9541 18.24 86.9941 18.68C84.5541 18.66 81.8941 18.64 79.8941 18.64V20.74C82.2741 20.74 84.8541 20.74 86.8141 20.68C86.7941 21.42 86.7941 23.16 86.7941 23.96C84.8541 23.92 82.2541 23.9 79.8941 23.9V26.08C81.9141 26.08 84.7141 26.06 86.9941 26.04C86.9541 26.52 86.9541 27.4 86.9541 28.1C86.9541 28.7 86.9541 29.5 86.9941 30H74.9541C75.0141 27.98 75.0141 25.7 75.0141 22.5C75.0141 19.32 75.0141 16.94 74.9541 15ZM103.104 15H107.944C106.724 17.38 104.164 23.42 103.364 25.48C103.384 27.72 103.424 29.38 103.444 30.02C102.684 29.98 101.504 29.98 100.604 29.98C99.6844 29.98 98.5044 29.98 97.7244 30.02C97.7844 29.38 97.8244 27.68 97.8244 25.42C97.0244 23.24 94.4444 17.22 93.2444 15H98.6844C98.9244 15.78 99.5644 17.88 100.084 19.64C100.344 20.56 100.584 21.44 100.764 22.14H100.924C101.104 21.46 101.324 20.6 101.604 19.72C102.184 17.92 102.904 15.78 103.104 15ZM123.332 22.24C123.332 27.66 120.652 30.28 115.512 30.28C110.372 30.28 107.792 27.66 107.792 22.24C107.792 16.82 110.652 14.72 115.532 14.72C120.392 14.72 123.332 16.82 123.332 22.24ZM115.532 26.24C117.332 26.24 118.232 25 118.232 22.3C118.232 19.64 117.312 18.54 115.532 18.54C113.752 18.54 112.812 19.6 112.812 22.3C112.812 25.04 113.752 26.24 115.532 26.24ZM134.825 15H139.805C139.765 16.3 139.725 17.58 139.725 19.52C139.725 20.72 139.765 22.6 139.765 24C139.765 28.04 137.945 30.28 132.565 30.28C127.185 30.28 125.345 28.04 125.345 24C125.345 22.6 125.385 20.72 125.385 19.52C125.385 17.58 125.345 16.3 125.305 15H130.405C130.325 17.36 130.305 21.36 130.305 23.64C130.305 25.4 131.025 26.16 132.685 26.16C134.285 26.16 134.905 25.4 134.905 23.64C134.905 21.36 134.865 17.36 134.825 15ZM151.453 25.1V25.38C151.453 26.52 151.973 26.94 153.693 26.94C155.373 26.94 155.833 26.54 155.833 25.8C155.833 24.94 155.373 24.36 152.773 24C148.193 23.38 147.073 21.84 147.073 19.24C147.073 16.4 149.113 14.72 153.713 14.72C158.833 14.72 160.413 16.2 160.413 18.88C160.413 19.16 160.393 19.46 160.373 19.78C159.773 19.74 158.793 19.72 157.933 19.72C157.253 19.72 156.593 19.72 156.173 19.74C156.193 19.6 156.193 19.46 156.193 19.34C156.193 18.54 155.753 18.02 153.853 18.02C152.393 18.02 151.933 18.44 151.933 19.08C151.933 19.8 152.253 20.4 155.073 20.82C159.173 21.44 160.613 22.74 160.613 25.66C160.613 28.58 158.773 30.28 153.933 30.28C148.733 30.28 147.033 28.86 147.033 26.08C147.033 25.74 147.033 25.38 147.073 25.02C147.733 25.08 148.733 25.14 149.673 25.14C150.353 25.14 150.993 25.14 151.453 25.1ZM172.032 15H177.012C176.972 16.3 176.932 17.58 176.932 19.52C176.932 20.72 176.972 22.6 176.972 24C176.972 28.04 175.152 30.28 169.772 30.28C164.392 30.28 162.552 28.04 162.552 24C162.552 22.6 162.592 20.72 162.592 19.52C162.592 17.58 162.552 16.3 162.512 15H167.612C167.532 17.36 167.512 21.36 167.512 23.64C167.512 25.4 168.232 26.16 169.892 26.16C171.492 26.16 172.112 25.4 172.112 23.64C172.112 21.36 172.072 17.36 172.032 15ZM186.784 22.24C188.104 22.24 188.704 21.62 188.704 20.28C188.704 18.68 188.024 18.32 186.524 18.32C186.104 18.32 185.124 18.34 184.344 18.36C184.344 19.66 184.344 20.96 184.364 22.2C184.924 22.22 185.804 22.22 186.784 22.24ZM189.944 23.92V24.04C192.004 24.3 192.824 24.9 193.324 26.92C193.644 28.06 193.944 29.32 194.144 30H189.684C188.944 30 188.804 29.74 188.464 28.2C187.984 25.68 187.704 25.24 186.484 25.24C185.764 25.24 185.344 25.22 184.384 25.24C184.424 27.16 184.484 28.82 184.604 30H179.544C179.584 27.82 179.624 25.7 179.624 22.5C179.624 19.32 179.604 17.16 179.544 15H187.724C191.384 15 193.484 16.36 193.484 19.52C193.484 22.26 192.484 23.52 189.944 23.92ZM195.872 15H207.912C207.892 15.42 207.872 16.18 207.872 16.76C207.872 17.38 207.872 18.24 207.912 18.68C205.472 18.66 202.812 18.64 200.812 18.64V20.74C203.192 20.74 205.772 20.74 207.732 20.68C207.712 21.42 207.712 23.16 207.712 23.96C205.772 23.92 203.172 23.9 200.812 23.9V26.08C202.832 26.08 205.632 26.06 207.912 26.04C207.872 26.52 207.872 27.4 207.872 28.1C207.872 28.7 207.872 29.5 207.912 30H195.872C195.932 27.98 195.932 25.7 195.932 22.5C195.932 19.32 195.932 16.94 195.872 15ZM224.022 15H228.862C227.642 17.38 225.082 23.42 224.282 25.48C224.302 27.72 224.342 29.38 224.362 30.02C223.602 29.98 222.422 29.98 221.522 29.98C220.602 29.98 219.422 29.98 218.642 30.02C218.702 29.38 218.742 27.68 218.742 25.42C217.942 23.24 215.362 17.22 214.162 15H219.602C219.842 15.78 220.482 17.88 221.002 19.64C221.262 20.56 221.502 21.44 221.682 22.14H221.842C222.022 21.46 222.242 20.6 222.522 19.72C223.102 17.92 223.822 15.78 224.022 15ZM244.25 22.24C244.25 27.66 241.57 30.28 236.43 30.28C231.29 30.28 228.71 27.66 228.71 22.24C228.71 16.82 231.57 14.72 236.45 14.72C241.31 14.72 244.25 16.82 244.25 22.24ZM236.45 26.24C238.25 26.24 239.15 25 239.15 22.3C239.15 19.64 238.23 18.54 236.45 18.54C234.67 18.54 233.73 19.6 233.73 22.3C233.73 25.04 234.67 26.24 236.45 26.24ZM255.743 15H260.723C260.683 16.3 260.643 17.58 260.643 19.52C260.643 20.72 260.683 22.6 260.683 24C260.683 28.04 258.863 30.28 253.483 30.28C248.103 30.28 246.263 28.04 246.263 24C246.263 22.6 246.303 20.72 246.303 19.52C246.303 17.58 246.263 16.3 246.223 15H251.323C251.243 17.36 251.223 21.36 251.223 23.64C251.223 25.4 251.943 26.16 253.603 26.16C255.203 26.16 255.823 25.4 255.823 23.64C255.823 21.36 255.783 17.36 255.743 15ZM44.4507 40H48.5707C47.6907 43.48 45.8507 52.82 45.4107 55C44.7107 54.98 43.7307 54.96 42.6107 54.96C41.0507 54.96 39.9107 54.98 39.4307 55C39.2307 53.82 38.7707 50.94 38.3507 48.36C38.1907 47.24 38.0507 45.94 37.9107 44.78H37.8107C37.6507 45.96 37.4907 47.3 37.2907 48.4C36.8507 50.88 36.3307 53.7 36.1107 55C35.4507 55 34.2707 54.96 33.1907 54.96C31.7307 54.96 30.8707 54.98 30.4107 55C29.8707 52.52 28.1707 43.5 27.2307 40H32.5107C32.5907 41.1 33.1707 45.38 33.6107 48.3C33.7507 49.2 33.8707 50.1 33.9907 50.82H34.1107C34.2307 50.08 34.3707 49.2 34.5307 48.26C34.9707 45.38 35.6307 41.44 35.7307 40C36.4307 40.02 37.8307 40.02 38.6307 40.02C39.4307 40.02 40.6107 40.02 41.2707 40C41.4107 41.32 41.8907 45.36 42.4107 48.34C42.5907 49.34 42.7107 50.2 42.8107 50.9H42.9307C43.0307 50.18 43.1307 49.32 43.3107 48.34C43.7507 45.38 44.3107 41.46 44.4507 40ZM55.9933 49.06H57.7133C57.3933 47.6 57.0533 46.1 56.7133 44.8C56.4133 43.78 56.1933 42.8 56.0333 42.08H55.9733C55.7933 42.8 55.5733 43.76 55.2733 44.84C54.9733 46.14 54.6333 47.62 54.2933 49.06H55.9933ZM64.4333 55H58.8333C58.7733 54.46 58.6133 53.42 58.3533 52.14C57.4933 52.14 56.6533 52.14 55.9933 52.14C55.3733 52.14 54.5133 52.14 53.6333 52.14C53.3733 53.38 53.1733 54.4 53.0933 55H47.9733C49.1933 51.24 51.6133 42.08 52.1133 40H60.1333C60.6933 42.1 63.1333 51.18 64.4333 55ZM75.893 40H80.233C80.193 41.44 80.173 44.3 80.173 47.48C80.173 50.8 80.173 53.06 80.213 55H75.113C74.473 53.66 72.773 50.92 71.333 48.62C70.813 47.62 70.393 46.58 70.033 45.56H69.993C70.093 46.86 70.153 48.04 70.193 49.22C70.213 52.16 70.213 54.16 70.273 55H65.833C65.853 53 65.873 50.7 65.873 47.5C65.873 44.32 65.873 41.98 65.833 40H71.453C71.853 40.96 73.813 44.1 75.113 46.5C75.513 47.28 75.873 48.2 76.173 49.12L76.213 49.1C76.113 47.96 76.053 46.88 76.053 45.92C76.033 43.72 75.973 41.22 75.893 40ZM81.8652 40H93.8652C93.8452 40.56 93.8452 41.42 93.8452 42.2C93.8452 42.94 93.8452 43.88 93.8652 44.48C92.6852 44.46 91.5052 44.44 90.4252 44.44C90.4252 49.26 90.4452 53.94 90.5052 55.02C89.8052 54.96 88.6652 54.96 87.8652 54.96C87.0652 54.96 85.9652 54.96 85.2452 55.02C85.3052 53.94 85.3252 49.28 85.3252 44.44C84.2452 44.44 83.0652 44.46 81.8652 44.48C81.8852 43.88 81.8852 42.94 81.8852 42.2C81.8852 41.42 81.8852 40.56 81.8652 40ZM99.7168 40H111.717C111.697 40.56 111.697 41.42 111.697 42.2C111.697 42.94 111.697 43.88 111.717 44.48C110.537 44.46 109.357 44.44 108.277 44.44C108.277 49.26 108.297 53.94 108.357 55.02C107.657 54.96 106.517 54.96 105.717 54.96C104.917 54.96 103.817 54.96 103.097 55.02C103.157 53.94 103.177 49.28 103.177 44.44C102.097 44.44 100.917 44.46 99.7168 44.48C99.7368 43.88 99.7368 42.94 99.7368 42.2C99.7368 41.42 99.7368 40.56 99.7168 40ZM128.175 47.24C128.175 52.66 125.495 55.28 120.355 55.28C115.215 55.28 112.635 52.66 112.635 47.24C112.635 41.82 115.495 39.72 120.375 39.72C125.235 39.72 128.175 41.82 128.175 47.24ZM120.375 51.24C122.175 51.24 123.075 50 123.075 47.3C123.075 44.64 122.155 43.54 120.375 43.54C118.595 43.54 117.655 44.6 117.655 47.3C117.655 50.04 118.595 51.24 120.375 51.24ZM142.044 51.12C144.044 51.12 144.904 50.56 144.904 47.28C144.904 44.12 144.064 43.64 142.084 43.64C141.464 43.64 140.884 43.66 140.324 43.7C140.284 44.92 140.284 46.24 140.284 47.54C140.284 49.06 140.284 50.18 140.304 51.08C140.884 51.12 141.404 51.12 142.044 51.12ZM135.364 40H142.444C147.564 40 149.824 41.5 149.824 47.1C149.824 53.1 147.824 55 142.344 55H135.364C135.404 52.9 135.424 50.7 135.424 47.52C135.424 44.34 135.404 41.96 135.364 40ZM151.829 40H163.869C163.849 40.42 163.829 41.18 163.829 41.76C163.829 42.38 163.829 43.24 163.869 43.68C161.429 43.66 158.769 43.64 156.769 43.64V45.74C159.149 45.74 161.729 45.74 163.689 45.68C163.669 46.42 163.669 48.16 163.669 48.96C161.729 48.92 159.129 48.9 156.769 48.9V51.08C158.789 51.08 161.589 51.06 163.869 51.04C163.829 51.52 163.829 52.4 163.829 53.1C163.829 53.7 163.829 54.5 163.869 55H151.829C151.889 52.98 151.889 50.7 151.889 47.5C151.889 44.32 151.889 41.94 151.829 40ZM166.224 40H171.384C171.344 41.12 171.304 44.16 171.284 47.48C171.284 48.54 171.284 49.62 171.304 50.56C172.684 50.56 174.524 50.54 176.124 50.5C176.124 51.24 176.104 52 176.104 52.74C176.104 53.5 176.124 54.24 176.124 55H166.224C166.224 53.78 166.284 50.7 166.284 47.5C166.284 44.06 166.284 41.44 166.224 40ZM177.688 40H189.728C189.708 40.42 189.688 41.18 189.688 41.76C189.688 42.38 189.688 43.24 189.728 43.68C187.288 43.66 184.628 43.64 182.628 43.64V45.74C185.008 45.74 187.588 45.74 189.548 45.68C189.528 46.42 189.528 48.16 189.528 48.96C187.588 48.92 184.988 48.9 182.628 48.9V51.08C184.648 51.08 187.448 51.06 189.728 51.04C189.688 51.52 189.688 52.4 189.688 53.1C189.688 53.7 189.688 54.5 189.728 55H177.688C177.748 52.98 177.748 50.7 177.748 47.5C177.748 44.32 177.748 41.94 177.688 40ZM191.123 40H203.123C203.103 40.56 203.103 41.42 203.103 42.2C203.103 42.94 203.103 43.88 203.123 44.48C201.943 44.46 200.763 44.44 199.683 44.44C199.683 49.26 199.703 53.94 199.763 55.02C199.063 54.96 197.923 54.96 197.123 54.96C196.323 54.96 195.223 54.96 194.503 55.02C194.563 53.94 194.583 49.28 194.583 44.44C193.503 44.44 192.323 44.46 191.123 44.48C191.143 43.88 191.143 42.94 191.143 42.2C191.143 41.42 191.143 40.56 191.123 40ZM204.759 40H216.799C216.779 40.42 216.759 41.18 216.759 41.76C216.759 42.38 216.759 43.24 216.799 43.68C214.359 43.66 211.699 43.64 209.699 43.64V45.74C212.079 45.74 214.659 45.74 216.619 45.68C216.599 46.42 216.599 48.16 216.599 48.96C214.659 48.92 212.059 48.9 209.699 48.9V51.08C211.719 51.08 214.519 51.06 216.799 51.04C216.759 51.52 216.759 52.4 216.759 53.1C216.759 53.7 216.759 54.5 216.799 55H204.759C204.819 52.98 204.819 50.7 204.819 47.5C204.819 44.32 204.819 41.94 204.759 40ZM223.369 40H235.369C235.349 40.56 235.349 41.42 235.349 42.2C235.349 42.94 235.349 43.88 235.369 44.48C234.189 44.46 233.009 44.44 231.929 44.44C231.929 49.26 231.949 53.94 232.009 55.02C231.309 54.96 230.169 54.96 229.369 54.96C228.569 54.96 227.469 54.96 226.749 55.02C226.809 53.94 226.829 49.28 226.829 44.44C225.749 44.44 224.569 44.46 223.369 44.48C223.389 43.88 223.389 42.94 223.389 42.2C223.389 41.42 223.389 40.56 223.369 40ZM246.545 40H251.605C251.545 42.06 251.525 44.32 251.525 47.5C251.525 50.68 251.545 52.84 251.605 55H246.545C246.585 53.56 246.605 51.38 246.625 49.64C245.905 49.62 245.105 49.62 244.305 49.62C243.505 49.62 242.705 49.62 241.985 49.64C241.985 51.38 242.005 53.54 242.065 55H237.005C237.085 52.84 237.085 50.68 237.085 47.5C237.085 44.32 237.085 42.06 237.005 40H242.065C242.005 41.4 241.985 43.66 241.985 45.46C242.705 45.48 243.505 45.5 244.305 45.5C245.105 45.5 245.905 45.48 246.625 45.46C246.605 43.66 246.585 41.4 246.545 40ZM259.292 55H254.212C254.272 52.84 254.272 50.68 254.272 47.5C254.272 44.3 254.272 42.14 254.212 40H259.292C259.252 42.12 259.252 44.28 259.252 47.48C259.252 50.66 259.252 52.82 259.292 55ZM265.828 50.1V50.38C265.828 51.52 266.348 51.94 268.068 51.94C269.748 51.94 270.208 51.54 270.208 50.8C270.208 49.94 269.748 49.36 267.148 49C262.568 48.38 261.448 46.84 261.448 44.24C261.448 41.4 263.488 39.72 268.088 39.72C273.208 39.72 274.788 41.2 274.788 43.88C274.788 44.16 274.768 44.46 274.748 44.78C274.148 44.74 273.168 44.72 272.308 44.72C271.628 44.72 270.968 44.72 270.548 44.74C270.568 44.6 270.568 44.46 270.568 44.34C270.568 43.54 270.128 43.02 268.228 43.02C266.768 43.02 266.308 43.44 266.308 44.08C266.308 44.8 266.628 45.4 269.448 45.82C273.548 46.44 274.988 47.74 274.988 50.66C274.988 53.58 273.148 55.28 268.308 55.28C263.108 55.28 261.408 53.86 261.408 51.08C261.408 50.74 261.408 50.38 261.448 50.02C262.108 50.08 263.108 50.14 264.048 50.14C264.728 50.14 265.368 50.14 265.828 50.1ZM118.857 71.64H118.897C119.237 77.38 118.177 80.26 111.877 80.26C106.637 80.26 104.217 77.54 104.217 72.34C104.217 67.16 106.677 64.74 111.937 64.74C117.197 64.74 118.977 66.92 118.977 69.6C118.977 69.88 118.977 70.14 118.957 70.44C118.297 70.42 117.377 70.4 116.477 70.4C115.557 70.4 114.677 70.4 114.077 70.44C114.077 70.28 114.097 70.1 114.097 69.96C114.097 68.74 113.357 68.2 111.917 68.2C110.037 68.2 109.237 69.2 109.237 72.4C109.237 75.42 109.957 76.7 112.057 76.7C113.557 76.7 114.177 76.08 114.297 74.48C113.337 74.48 112.297 74.5 111.497 74.52C111.517 74.22 111.517 73.5 111.517 73.18C111.517 72.56 111.517 72.04 111.497 71.64C112.777 71.66 114.057 71.66 115.017 71.66C116.077 71.66 117.457 71.68 118.857 71.64ZM128.581 72.24C129.901 72.24 130.501 71.62 130.501 70.28C130.501 68.68 129.821 68.32 128.321 68.32C127.901 68.32 126.921 68.34 126.141 68.36C126.141 69.66 126.141 70.96 126.161 72.2C126.721 72.22 127.601 72.22 128.581 72.24ZM131.741 73.92V74.04C133.801 74.3 134.621 74.9 135.121 76.92C135.441 78.06 135.741 79.32 135.941 80H131.481C130.741 80 130.601 79.74 130.261 78.2C129.781 75.68 129.501 75.24 128.281 75.24C127.561 75.24 127.141 75.22 126.181 75.24C126.221 77.16 126.281 78.82 126.401 80H121.341C121.381 77.82 121.421 75.7 121.421 72.5C121.421 69.32 121.401 67.16 121.341 65H129.521C133.181 65 135.281 66.36 135.281 69.52C135.281 72.26 134.281 73.52 131.741 73.92ZM152.414 72.24C152.414 77.66 149.734 80.28 144.594 80.28C139.454 80.28 136.874 77.66 136.874 72.24C136.874 66.82 139.734 64.72 144.614 64.72C149.474 64.72 152.414 66.82 152.414 72.24ZM144.614 76.24C146.414 76.24 147.314 75 147.314 72.3C147.314 69.64 146.394 68.54 144.614 68.54C142.834 68.54 141.894 69.6 141.894 72.3C141.894 75.04 142.834 76.24 144.614 76.24ZM163.907 65H168.887C168.847 66.3 168.807 67.58 168.807 69.52C168.807 70.72 168.847 72.6 168.847 74C168.847 78.04 167.027 80.28 161.647 80.28C156.267 80.28 154.427 78.04 154.427 74C154.427 72.6 154.467 70.72 154.467 69.52C154.467 67.58 154.427 66.3 154.387 65H159.487C159.407 67.36 159.387 71.36 159.387 73.64C159.387 75.4 160.107 76.16 161.767 76.16C163.367 76.16 163.987 75.4 163.987 73.64C163.987 71.36 163.947 67.36 163.907 65ZM177.919 73.02C179.839 73.02 180.479 72.46 180.479 70.74C180.479 69.02 179.759 68.52 178.019 68.52C177.659 68.52 176.879 68.52 176.259 68.54C176.259 70.1 176.259 71.6 176.279 73C176.679 73 177.259 73.02 177.919 73.02ZM171.399 65H179.159C183.019 65 185.159 66.32 185.159 70.64C185.159 74.76 183.319 76.54 178.739 76.54C177.979 76.54 177.239 76.52 176.319 76.5C176.359 77.86 176.399 79.04 176.479 80H171.399C171.459 77.84 171.479 75.7 171.479 72.5C171.479 69.32 171.459 67.08 171.399 65ZM192.064 76.2C193.924 76.2 194.884 76.82 194.884 78.18C194.884 79.52 193.924 80.18 192.064 80.18C190.244 80.18 189.284 79.52 189.284 78.18C189.284 76.82 190.244 76.2 192.064 76.2ZM186.224 69.34C186.224 66.52 187.824 64.76 192.484 64.76C196.724 64.76 198.624 66.2 198.624 69.02C198.624 71.04 197.804 72.12 195.864 73.08C194.844 73.64 194.484 74.3 194.484 74.84C194.484 75.06 194.484 75.12 194.504 75.28C193.864 75.22 192.924 75.22 192.104 75.22C191.204 75.22 190.424 75.24 189.704 75.3C189.684 75.12 189.684 74.98 189.684 74.82C189.684 73.1 190.344 72.02 192.044 71.26C193.544 70.6 193.964 70.06 193.964 69.28C193.964 68.58 193.544 68.04 192.284 68.04C190.924 68.04 190.464 68.76 190.464 69.78C190.464 69.98 190.464 70.24 190.504 70.48C190.044 70.46 189.324 70.44 188.604 70.44C187.764 70.44 186.844 70.48 186.264 70.52C186.244 70.1 186.224 69.72 186.224 69.34Z" fill="#FEF8E5"/>
</g>
<defs>
<filter id="filter0_d_1001_2302" x="0" y="0" width="303" height="103" filterUnits="userSpaceOnUse" color-interpolation-filters="sRGB">
<feFlood flood-opacity="0" result="BackgroundImageFix"/>
<feColorMatrix in="SourceAlpha" type="matrix" values="0 0 0 0 0 0 0 0 0 0 0 0 0 0 0 0 0 0 127 0" result="hardAlpha"/>
<feOffset dy="4"/>
<feGaussianBlur stdDeviation="2"/>
<feComposite in2="hardAlpha" operator="out"/>
<feColorMatrix type="matrix" values="0 0 0 0 0 0 0 0 0 0 0 0 0 0 0 0 0 0 0.25 0"/>
<feBlend mode="normal" in2="BackgroundImageFix" result="effect1_dropShadow_1001_2302"/>
<feBlend mode="normal" in="SourceGraphic" in2="effect1_dropShadow_1001_2302" result="shape"/>
</filter>
</defs>
</svg>
