<svg width="390" height="443" viewBox="0 0 390 443" fill="none" xmlns="http://www.w3.org/2000/svg">
<g filter="url(#filter0_d_1101_1758)">
<rect x="66.5" y="108.5" width="255" height="56" rx="12" fill="#FEF8E5" stroke="black"/>
<path d="M89.9837 136.75C90.4737 136.764 91.5517 136.778 92.7277 136.792C94.0997 136.792 94.7857 136.106 94.7857 134.986C94.7857 133.586 94.0857 133.166 92.4757 133.166C91.9857 133.166 90.7257 133.18 89.9837 133.208C89.9837 134.412 89.9697 135.616 89.9837 136.75ZM94.2817 137.716V137.772C95.6957 137.954 96.1717 138.346 96.6757 139.816C96.9977 140.768 97.2637 141.566 97.4457 142H95.4717C95.0937 142 95.0517 141.874 94.7997 140.95C94.1697 138.794 93.9177 138.332 92.6157 138.332C91.7337 138.332 91.2297 138.346 89.9977 138.346C90.0117 139.83 90.0537 141.118 90.1237 142H87.9537C87.9677 140.474 87.9957 138.99 87.9957 136.75C87.9957 134.524 87.9817 133.012 87.9537 131.5H92.8957C95.3597 131.5 96.7877 132.536 96.7877 134.692C96.7877 136.428 96.0317 137.422 94.2817 137.716ZM99.2317 131.5H107.31C107.296 131.682 107.296 132.06 107.296 132.326C107.296 132.62 107.296 133.054 107.31 133.264C105.224 133.25 102.97 133.236 101.304 133.236V135.896C103.32 135.896 105.504 135.896 107.184 135.854C107.17 136.232 107.17 137.142 107.17 137.52C105.518 137.492 103.292 137.492 101.304 137.492V140.194C102.97 140.194 105.294 140.18 107.31 140.166C107.296 140.39 107.296 140.81 107.296 141.132C107.296 141.384 107.296 141.776 107.31 142H99.2317C99.2737 140.67 99.2737 138.99 99.2737 136.75C99.2737 134.524 99.2737 132.746 99.2317 131.5ZM117.069 131.5H118.973C118.959 132.662 118.931 134.51 118.931 136.736C118.931 139.046 118.931 140.614 118.959 142H116.803C116.229 140.95 114.213 138.024 112.617 135.714C112.183 135.028 111.791 134.314 111.483 133.628H111.469C111.525 134.524 111.567 135.378 111.581 136.176C111.595 139.158 111.595 141.188 111.623 142H109.705C109.719 140.628 109.733 138.99 109.733 136.75C109.733 134.524 109.733 132.788 109.705 131.5H112.197C112.645 132.312 114.801 135.364 116.271 137.618C116.635 138.178 116.985 138.864 117.265 139.522L117.293 139.508C117.223 138.682 117.181 137.884 117.181 137.142C117.181 134.986 117.139 132.494 117.069 131.5ZM125.841 138.052C126.373 138.052 127.101 138.052 127.773 138.038C127.381 136.89 126.975 135.686 126.625 134.706C126.247 133.726 126.023 133.04 125.855 132.55C125.687 133.054 125.463 133.726 125.085 134.776C124.749 135.742 124.357 136.918 123.965 138.038C124.623 138.052 125.337 138.052 125.841 138.052ZM131.455 142H129.047C128.949 141.594 128.669 140.684 128.291 139.564C127.423 139.564 126.527 139.564 125.841 139.564C125.225 139.564 124.287 139.564 123.433 139.564C123.069 140.642 122.775 141.538 122.635 142H120.395C121.417 139.55 123.797 132.998 124.315 131.5H127.451C128.025 133.04 130.349 139.41 131.455 142ZM144.667 142H142.581C142.651 139.928 142.665 138.262 142.679 136.008C142.679 135.224 142.721 134.342 142.749 133.516L142.679 133.502C142.427 134.328 142.133 135.196 141.839 135.868L139.165 142H138.241L135.525 135.728C135.217 135.014 134.923 134.188 134.671 133.432L134.587 133.446C134.615 134.328 134.671 135.238 134.685 136.092C134.685 138.374 134.713 139.9 134.755 142H132.893C132.935 140.488 132.935 138.962 132.935 136.736C132.935 134.44 132.935 132.872 132.907 131.5H135.581C136.043 132.508 137.065 134.93 138.115 137.296C138.339 137.8 138.619 138.514 138.857 139.186H138.913C139.151 138.542 139.417 137.87 139.669 137.324C140.677 134.986 141.713 132.55 142.189 131.5H144.653C144.611 132.872 144.597 134.44 144.597 136.736C144.597 138.962 144.611 140.488 144.667 142ZM147.357 131.5H155.435C155.421 131.682 155.421 132.06 155.421 132.326C155.421 132.62 155.421 133.054 155.435 133.264C153.349 133.25 151.095 133.236 149.429 133.236V135.896C151.445 135.896 153.629 135.896 155.309 135.854C155.295 136.232 155.295 137.142 155.295 137.52C153.643 137.492 151.417 137.492 149.429 137.492V140.194C151.095 140.194 153.419 140.18 155.435 140.166C155.421 140.39 155.421 140.81 155.421 141.132C155.421 141.384 155.421 141.776 155.435 142H147.357C147.399 140.67 147.399 138.99 147.399 136.75C147.399 134.524 147.399 132.746 147.357 131.5ZM166.048 140.516C167.854 140.516 168.484 140.026 168.484 139.144C168.484 138.29 167.952 137.758 165.614 137.45C162.52 137.03 161.554 135.994 161.554 134.258C161.554 132.48 162.968 131.304 165.838 131.304C169.002 131.304 170.234 132.438 170.234 134.272C170.234 134.51 170.22 134.692 170.206 134.944C169.982 134.93 169.632 134.916 169.282 134.916C168.918 134.916 168.54 134.93 168.316 134.944C168.33 134.79 168.33 134.608 168.33 134.496C168.33 133.572 167.714 132.984 165.782 132.984C164.228 132.984 163.584 133.432 163.584 134.244C163.584 134.93 163.934 135.518 166.384 135.854C169.338 136.274 170.43 137.212 170.43 139.088C170.43 140.992 169.044 142.196 166.062 142.196C162.8 142.196 161.428 141.09 161.428 139.13C161.428 138.906 161.428 138.696 161.456 138.458C161.694 138.5 162.058 138.514 162.422 138.514C162.828 138.514 163.192 138.5 163.486 138.486C163.472 138.584 163.472 138.682 163.472 138.78C163.472 139.97 164.2 140.516 166.048 140.516ZM172.54 131.5H180.618C180.604 131.682 180.604 132.06 180.604 132.326C180.604 132.62 180.604 133.054 180.618 133.264C178.532 133.25 176.278 133.236 174.612 133.236V135.896C176.628 135.896 178.812 135.896 180.492 135.854C180.478 136.232 180.478 137.142 180.478 137.52C178.826 137.492 176.6 137.492 174.612 137.492V140.194C176.278 140.194 178.602 140.18 180.618 140.166C180.604 140.39 180.604 140.81 180.604 141.132C180.604 141.384 180.604 141.776 180.618 142H172.54C172.582 140.67 172.582 138.99 172.582 136.75C172.582 134.524 172.582 132.746 172.54 131.5ZM183.014 131.5H185.156C185.114 132.326 185.086 134.286 185.086 136.722C185.086 137.94 185.1 139.27 185.1 140.166C186.388 140.166 188.166 140.166 189.622 140.124C189.622 140.432 189.608 140.754 189.608 141.062C189.608 141.384 189.622 141.692 189.622 142H183.014C183.014 141.118 183.056 138.99 183.056 136.75C183.056 134.188 183.056 132.494 183.014 131.5ZM191.189 131.5H199.267C199.253 131.682 199.253 132.06 199.253 132.326C199.253 132.62 199.253 133.054 199.267 133.264C197.181 133.25 194.927 133.236 193.261 133.236V135.896C195.277 135.896 197.461 135.896 199.141 135.854C199.127 136.232 199.127 137.142 199.127 137.52C197.475 137.492 195.249 137.492 193.261 137.492V140.194C194.927 140.194 197.251 140.18 199.267 140.166C199.253 140.39 199.253 140.81 199.253 141.132C199.253 141.384 199.253 141.776 199.267 142H191.189C191.231 140.67 191.231 138.99 191.231 136.75C191.231 134.524 191.231 132.746 191.189 131.5ZM208.676 135.742V135.476C208.676 133.81 207.78 133.152 206.044 133.152C204.224 133.152 203.118 134.076 203.118 136.638C203.118 139.256 204.266 140.32 206.114 140.32C207.92 140.32 208.704 139.438 208.704 138.01V137.73C209.054 137.744 209.362 137.744 209.712 137.744C210.048 137.744 210.398 137.744 210.748 137.73V138.136C210.748 140.6 209.194 142.168 206.128 142.168C203.02 142.168 201.004 140.432 201.004 136.694C201.004 133.264 202.824 131.332 206.128 131.332C209.334 131.332 210.706 132.97 210.706 135.154C210.706 135.35 210.706 135.532 210.692 135.742C210.356 135.728 210.006 135.728 209.67 135.728C209.32 135.728 209.012 135.728 208.676 135.742ZM211.892 131.5H220.166V132.396V133.32C219.074 133.306 217.982 133.292 217.044 133.292C217.044 137.212 217.044 141.132 217.086 142.014C216.792 141.986 216.344 141.986 216.022 141.986C215.728 141.986 215.294 141.986 214.986 142.014C215.028 141.146 215.028 137.226 215.028 133.292C214.09 133.292 212.998 133.306 211.892 133.32V132.396V131.5ZM221.773 131.5H229.851C229.837 131.682 229.837 132.06 229.837 132.326C229.837 132.62 229.837 133.054 229.851 133.264C227.765 133.25 225.511 133.236 223.845 133.236V135.896C225.861 135.896 228.045 135.896 229.725 135.854C229.711 136.232 229.711 137.142 229.711 137.52C228.059 137.492 225.833 137.492 223.845 137.492V140.194C225.511 140.194 227.835 140.18 229.851 140.166C229.837 140.39 229.837 140.81 229.837 141.132C229.837 141.384 229.837 141.776 229.851 142H221.773C221.815 140.67 221.815 138.99 221.815 136.75C221.815 134.524 221.815 132.746 221.773 131.5ZM236.292 140.208C238.462 140.208 239.484 139.438 239.484 136.666C239.484 133.978 238.476 133.292 236.348 133.292C235.62 133.292 234.948 133.306 234.318 133.334C234.304 134.384 234.29 135.63 234.29 136.82C234.29 138.416 234.29 139.41 234.304 140.166C235.004 140.208 235.536 140.208 236.292 140.208ZM232.204 131.5H236.348C239.89 131.5 241.528 132.844 241.528 136.624C241.528 140.39 240.002 142 236.306 142H232.204C232.246 140.558 232.246 138.99 232.246 136.764C232.246 134.538 232.246 132.788 232.204 131.5ZM256.724 136.358C256.976 140.096 256.178 142.182 252.202 142.182C248.898 142.182 247.106 140.04 247.106 136.652C247.106 133.25 248.912 131.318 252.244 131.318C255.478 131.318 256.766 132.998 256.766 134.762C256.766 134.958 256.766 135.112 256.752 135.308C256.514 135.294 256.15 135.28 255.772 135.28C255.352 135.28 254.974 135.28 254.722 135.308C254.736 135.182 254.736 135.056 254.736 134.958C254.736 133.726 253.91 133.054 252.23 133.054C250.298 133.054 249.192 134.02 249.192 136.68C249.192 139.27 250.256 140.474 252.286 140.474C254.162 140.474 254.834 139.718 254.792 137.744C253.84 137.758 252.496 137.758 251.712 137.786C251.726 137.646 251.726 137.366 251.726 137.212C251.726 136.862 251.726 136.582 251.712 136.344C252.566 136.372 253.42 136.372 254.05 136.372C254.764 136.372 255.772 136.386 256.724 136.358ZM261.197 136.75C261.687 136.764 262.765 136.778 263.941 136.792C265.313 136.792 265.999 136.106 265.999 134.986C265.999 133.586 265.299 133.166 263.689 133.166C263.199 133.166 261.939 133.18 261.197 133.208C261.197 134.412 261.183 135.616 261.197 136.75ZM265.495 137.716V137.772C266.909 137.954 267.385 138.346 267.889 139.816C268.211 140.768 268.477 141.566 268.659 142H266.685C266.307 142 266.265 141.874 266.013 140.95C265.383 138.794 265.131 138.332 263.829 138.332C262.947 138.332 262.443 138.346 261.211 138.346C261.225 139.83 261.267 141.118 261.337 142H259.167C259.181 140.474 259.209 138.99 259.209 136.75C259.209 134.524 259.195 133.012 259.167 131.5H264.109C266.573 131.5 268.001 132.536 268.001 134.692C268.001 136.428 267.245 137.422 265.495 137.716ZM279.997 136.638C279.997 140.208 277.995 142.196 274.817 142.196C271.639 142.196 269.665 140.208 269.665 136.638C269.665 133.068 271.751 131.304 274.817 131.304C277.897 131.304 279.997 133.068 279.997 136.638ZM274.831 140.348C276.777 140.348 277.897 139.088 277.897 136.708C277.897 134.328 276.763 133.138 274.831 133.138C272.885 133.138 271.737 134.3 271.737 136.708C271.737 139.102 272.885 140.348 274.831 140.348ZM289.235 131.5H291.363C291.321 132.354 291.307 133.194 291.307 134.468C291.307 135.336 291.335 136.624 291.335 137.716C291.335 140.488 289.977 142.182 286.715 142.182C283.453 142.182 282.081 140.488 282.081 137.716C282.081 136.624 282.109 135.336 282.109 134.468C282.109 133.194 282.095 132.34 282.053 131.5H284.209C284.153 132.928 284.125 136.05 284.125 137.646C284.125 139.522 284.993 140.348 286.757 140.348C288.493 140.348 289.291 139.522 289.291 137.646C289.291 136.05 289.263 132.914 289.235 131.5ZM298.146 137.296C300.008 137.296 300.778 136.75 300.778 135.28C300.778 133.838 299.966 133.264 298.244 133.264C297.81 133.264 296.732 133.278 296.102 133.292C296.102 134.678 296.102 136.036 296.102 137.268C296.508 137.282 297.292 137.296 298.146 137.296ZM294.002 131.5H298.594C301.226 131.5 302.808 132.564 302.808 135.308C302.808 137.87 301.212 139.074 298.524 139.074C297.656 139.074 297.152 139.06 296.116 139.032C296.144 140.194 296.172 141.216 296.214 142H294.002C294.058 140.488 294.058 138.99 294.058 136.75C294.058 134.524 294.058 132.914 294.002 131.5Z" fill="black"/>
</g>
<g filter="url(#filter1_d_1101_1758)">
<rect x="66.5" y="185.5" width="255" height="56" rx="12" fill="#FEF8E5" stroke="black"/>
<path d="M139.94 217.208C142.11 217.208 143.132 216.438 143.132 213.666C143.132 210.978 142.124 210.292 139.996 210.292C139.268 210.292 138.596 210.306 137.966 210.334C137.952 211.384 137.938 212.63 137.938 213.82C137.938 215.416 137.938 216.41 137.952 217.166C138.652 217.208 139.184 217.208 139.94 217.208ZM135.852 208.5H139.996C143.538 208.5 145.176 209.844 145.176 213.624C145.176 217.39 143.65 219 139.954 219H135.852C135.894 217.558 135.894 215.99 135.894 213.764C135.894 211.538 135.894 209.788 135.852 208.5ZM147.268 208.5H155.346C155.332 208.682 155.332 209.06 155.332 209.326C155.332 209.62 155.332 210.054 155.346 210.264C153.26 210.25 151.006 210.236 149.34 210.236V212.896C151.356 212.896 153.54 212.896 155.22 212.854C155.206 213.232 155.206 214.142 155.206 214.52C153.554 214.492 151.328 214.492 149.34 214.492V217.194C151.006 217.194 153.33 217.18 155.346 217.166C155.332 217.39 155.332 217.81 155.332 218.132C155.332 218.384 155.332 218.776 155.346 219H147.268C147.31 217.67 147.31 215.99 147.31 213.75C147.31 211.524 147.31 209.746 147.268 208.5ZM157.741 208.5H159.883C159.841 209.326 159.813 211.286 159.813 213.722C159.813 214.94 159.827 216.27 159.827 217.166C161.115 217.166 162.893 217.166 164.349 217.124C164.349 217.432 164.335 217.754 164.335 218.062C164.335 218.384 164.349 218.692 164.349 219H157.741C157.741 218.118 157.783 215.99 157.783 213.75C157.783 211.188 157.783 209.494 157.741 208.5ZM165.916 208.5H173.994C173.98 208.682 173.98 209.06 173.98 209.326C173.98 209.62 173.98 210.054 173.994 210.264C171.908 210.25 169.654 210.236 167.988 210.236V212.896C170.004 212.896 172.188 212.896 173.868 212.854C173.854 213.232 173.854 214.142 173.854 214.52C172.202 214.492 169.976 214.492 167.988 214.492V217.194C169.654 217.194 171.978 217.18 173.994 217.166C173.98 217.39 173.98 217.81 173.98 218.132C173.98 218.384 173.98 218.776 173.994 219H165.916C165.958 217.67 165.958 215.99 165.958 213.75C165.958 211.524 165.958 209.746 165.916 208.5ZM175.354 208.5H183.628V209.396V210.32C182.536 210.306 181.444 210.292 180.506 210.292C180.506 214.212 180.506 218.132 180.548 219.014C180.254 218.986 179.806 218.986 179.484 218.986C179.19 218.986 178.756 218.986 178.448 219.014C178.49 218.146 178.49 214.226 178.49 210.292C177.552 210.292 176.46 210.306 175.354 210.32V209.396V208.5ZM185.235 208.5H193.313C193.299 208.682 193.299 209.06 193.299 209.326C193.299 209.62 193.299 210.054 193.313 210.264C191.227 210.25 188.973 210.236 187.307 210.236V212.896C189.323 212.896 191.507 212.896 193.187 212.854C193.173 213.232 193.173 214.142 193.173 214.52C191.521 214.492 189.295 214.492 187.307 214.492V217.194C188.973 217.194 191.297 217.18 193.313 217.166C193.299 217.39 193.299 217.81 193.299 218.132C193.299 218.384 193.299 218.776 193.313 219H185.235C185.277 217.67 185.277 215.99 185.277 213.75C185.277 211.524 185.277 209.746 185.235 208.5ZM208.77 213.358C209.022 217.096 208.224 219.182 204.248 219.182C200.944 219.182 199.152 217.04 199.152 213.652C199.152 210.25 200.958 208.318 204.29 208.318C207.524 208.318 208.812 209.998 208.812 211.762C208.812 211.958 208.812 212.112 208.798 212.308C208.56 212.294 208.196 212.28 207.818 212.28C207.398 212.28 207.02 212.28 206.768 212.308C206.782 212.182 206.782 212.056 206.782 211.958C206.782 210.726 205.956 210.054 204.276 210.054C202.344 210.054 201.238 211.02 201.238 213.68C201.238 216.27 202.302 217.474 204.332 217.474C206.208 217.474 206.88 216.718 206.838 214.744C205.886 214.758 204.542 214.758 203.758 214.786C203.772 214.646 203.772 214.366 203.772 214.212C203.772 213.862 203.772 213.582 203.758 213.344C204.612 213.372 205.466 213.372 206.096 213.372C206.81 213.372 207.818 213.386 208.77 213.358ZM213.242 213.75C213.732 213.764 214.81 213.778 215.986 213.792C217.358 213.792 218.044 213.106 218.044 211.986C218.044 210.586 217.344 210.166 215.734 210.166C215.244 210.166 213.984 210.18 213.242 210.208C213.242 211.412 213.228 212.616 213.242 213.75ZM217.54 214.716V214.772C218.954 214.954 219.43 215.346 219.934 216.816C220.256 217.768 220.522 218.566 220.704 219H218.73C218.352 219 218.31 218.874 218.058 217.95C217.428 215.794 217.176 215.332 215.874 215.332C214.992 215.332 214.488 215.346 213.256 215.346C213.27 216.83 213.312 218.118 213.382 219H211.212C211.226 217.474 211.254 215.99 211.254 213.75C211.254 211.524 211.24 210.012 211.212 208.5H216.154C218.618 208.5 220.046 209.536 220.046 211.692C220.046 213.428 219.29 214.422 217.54 214.716ZM232.043 213.638C232.043 217.208 230.041 219.196 226.863 219.196C223.685 219.196 221.711 217.208 221.711 213.638C221.711 210.068 223.797 208.304 226.863 208.304C229.943 208.304 232.043 210.068 232.043 213.638ZM226.877 217.348C228.823 217.348 229.943 216.088 229.943 213.708C229.943 211.328 228.809 210.138 226.877 210.138C224.931 210.138 223.783 211.3 223.783 213.708C223.783 216.102 224.931 217.348 226.877 217.348ZM241.281 208.5H243.409C243.367 209.354 243.353 210.194 243.353 211.468C243.353 212.336 243.381 213.624 243.381 214.716C243.381 217.488 242.023 219.182 238.761 219.182C235.499 219.182 234.127 217.488 234.127 214.716C234.127 213.624 234.155 212.336 234.155 211.468C234.155 210.194 234.141 209.34 234.099 208.5H236.255C236.199 209.928 236.171 213.05 236.171 214.646C236.171 216.522 237.039 217.348 238.803 217.348C240.539 217.348 241.337 216.522 241.337 214.646C241.337 213.05 241.309 209.914 241.281 208.5ZM250.192 214.296C252.054 214.296 252.824 213.75 252.824 212.28C252.824 210.838 252.012 210.264 250.29 210.264C249.856 210.264 248.778 210.278 248.148 210.292C248.148 211.678 248.148 213.036 248.148 214.268C248.554 214.282 249.338 214.296 250.192 214.296ZM246.048 208.5H250.64C253.272 208.5 254.854 209.564 254.854 212.308C254.854 214.87 253.258 216.074 250.57 216.074C249.702 216.074 249.198 216.06 248.162 216.032C248.19 217.194 248.218 218.216 248.26 219H246.048C246.104 217.488 246.104 215.99 246.104 213.75C246.104 211.524 246.104 209.914 246.048 208.5Z" fill="black"/>
</g>
<g filter="url(#filter2_d_1101_1758)">
<rect x="66.5" y="261.5" width="255" height="56" rx="12" fill="#FEF8E5" stroke="black"/>
<path d="M120.862 288.742V288.476C120.862 286.81 119.966 286.152 118.23 286.152C116.41 286.152 115.304 287.076 115.304 289.638C115.304 292.256 116.452 293.32 118.3 293.32C120.106 293.32 120.89 292.438 120.89 291.01V290.73C121.24 290.744 121.548 290.744 121.898 290.744C122.234 290.744 122.584 290.744 122.934 290.73V291.136C122.934 293.6 121.38 295.168 118.314 295.168C115.206 295.168 113.19 293.432 113.19 289.694C113.19 286.264 115.01 284.332 118.314 284.332C121.52 284.332 122.892 285.97 122.892 288.154C122.892 288.35 122.892 288.532 122.878 288.742C122.542 288.728 122.192 288.728 121.856 288.728C121.506 288.728 121.198 288.728 120.862 288.742ZM127.158 289.75C127.648 289.764 128.726 289.778 129.902 289.792C131.274 289.792 131.96 289.106 131.96 287.986C131.96 286.586 131.26 286.166 129.65 286.166C129.16 286.166 127.9 286.18 127.158 286.208C127.158 287.412 127.144 288.616 127.158 289.75ZM131.456 290.716V290.772C132.87 290.954 133.346 291.346 133.85 292.816C134.172 293.768 134.438 294.566 134.62 295H132.646C132.268 295 132.226 294.874 131.974 293.95C131.344 291.794 131.092 291.332 129.79 291.332C128.908 291.332 128.404 291.346 127.172 291.346C127.186 292.83 127.228 294.118 127.298 295H125.128C125.142 293.474 125.17 291.99 125.17 289.75C125.17 287.524 125.156 286.012 125.128 284.5H130.07C132.534 284.5 133.962 285.536 133.962 287.692C133.962 289.428 133.206 290.422 131.456 290.716ZM136.406 284.5H144.484C144.47 284.682 144.47 285.06 144.47 285.326C144.47 285.62 144.47 286.054 144.484 286.264C142.398 286.25 140.144 286.236 138.478 286.236V288.896C140.494 288.896 142.678 288.896 144.358 288.854C144.344 289.232 144.344 290.142 144.344 290.52C142.692 290.492 140.466 290.492 138.478 290.492V293.194C140.144 293.194 142.468 293.18 144.484 293.166C144.47 293.39 144.47 293.81 144.47 294.132C144.47 294.384 144.47 294.776 144.484 295H136.406C136.448 293.67 136.448 291.99 136.448 289.75C136.448 287.524 136.448 285.746 136.406 284.5ZM151.065 291.052C151.597 291.052 152.325 291.052 152.997 291.038C152.605 289.89 152.199 288.686 151.849 287.706C151.471 286.726 151.247 286.04 151.079 285.55C150.911 286.054 150.687 286.726 150.309 287.776C149.973 288.742 149.581 289.918 149.189 291.038C149.847 291.052 150.561 291.052 151.065 291.052ZM156.679 295H154.271C154.173 294.594 153.893 293.684 153.515 292.564C152.647 292.564 151.751 292.564 151.065 292.564C150.449 292.564 149.511 292.564 148.657 292.564C148.293 293.642 147.999 294.538 147.859 295H145.619C146.641 292.55 149.021 285.998 149.539 284.5H152.675C153.249 286.04 155.573 292.41 156.679 295ZM156.152 284.5H164.426V285.396V286.32C163.334 286.306 162.242 286.292 161.304 286.292C161.304 290.212 161.304 294.132 161.346 295.014C161.052 294.986 160.604 294.986 160.282 294.986C159.988 294.986 159.554 294.986 159.246 295.014C159.288 294.146 159.288 290.226 159.288 286.292C158.35 286.292 157.258 286.306 156.152 286.32V285.396V284.5ZM166.032 284.5H174.11C174.096 284.682 174.096 285.06 174.096 285.326C174.096 285.62 174.096 286.054 174.11 286.264C172.024 286.25 169.77 286.236 168.104 286.236V288.896C170.12 288.896 172.304 288.896 173.984 288.854C173.97 289.232 173.97 290.142 173.97 290.52C172.318 290.492 170.092 290.492 168.104 290.492V293.194C169.77 293.194 172.094 293.18 174.11 293.166C174.096 293.39 174.096 293.81 174.096 294.132C174.096 294.384 174.096 294.776 174.11 295H166.032C166.074 293.67 166.074 291.99 166.074 289.75C166.074 287.524 166.074 285.746 166.032 284.5ZM187.958 284.5H189.862C189.848 285.662 189.82 287.51 189.82 289.736C189.82 292.046 189.82 293.614 189.848 295H187.692C187.118 293.95 185.102 291.024 183.506 288.714C183.072 288.028 182.68 287.314 182.372 286.628H182.358C182.414 287.524 182.456 288.378 182.47 289.176C182.484 292.158 182.484 294.188 182.512 295H180.594C180.608 293.628 180.622 291.99 180.622 289.75C180.622 287.524 180.622 285.788 180.594 284.5H183.086C183.534 285.312 185.69 288.364 187.16 290.618C187.524 291.178 187.874 291.864 188.154 292.522L188.182 292.508C188.112 291.682 188.07 290.884 188.07 290.142C188.07 287.986 188.028 285.494 187.958 284.5ZM192.501 284.5H200.579C200.565 284.682 200.565 285.06 200.565 285.326C200.565 285.62 200.565 286.054 200.579 286.264C198.493 286.25 196.239 286.236 194.573 286.236V288.896C196.589 288.896 198.773 288.896 200.453 288.854C200.439 289.232 200.439 290.142 200.439 290.52C198.787 290.492 196.561 290.492 194.573 290.492V293.194C196.239 293.194 198.563 293.18 200.579 293.166C200.565 293.39 200.565 293.81 200.565 294.132C200.565 294.384 200.565 294.776 200.579 295H192.501C192.543 293.67 192.543 291.99 192.543 289.75C192.543 287.524 192.543 285.746 192.501 284.5ZM214.329 284.5H216.359C215.645 286.768 213.951 293.18 213.447 295C213.167 294.986 212.761 294.986 212.299 294.986C211.683 294.986 211.151 294.986 210.899 295C210.647 293.964 210.017 291.262 209.541 289.078C209.345 288.196 209.177 287.272 209.051 286.53H208.981C208.841 287.286 208.659 288.252 208.449 289.106C207.931 291.262 207.259 293.852 206.979 295C206.671 294.986 206.181 294.986 205.761 294.986C205.173 294.986 204.809 294.986 204.571 295C204.011 292.984 202.485 286.782 201.701 284.5H204.067C204.193 285.368 204.963 288.77 205.481 291.094C205.691 291.99 205.845 292.704 205.957 293.25H206.027C206.153 292.69 206.321 291.962 206.531 291.066C207.007 288.84 207.763 285.676 207.945 284.5C208.281 284.514 208.911 284.514 209.289 284.514C209.667 284.514 210.143 284.514 210.479 284.5C210.689 285.634 211.319 288.728 211.879 291.108C212.103 292.032 212.243 292.76 212.355 293.306H212.439C212.551 292.76 212.691 292.046 212.915 291.136C213.405 288.84 214.161 285.592 214.329 284.5ZM230.816 289.358C231.068 293.096 230.27 295.182 226.294 295.182C222.99 295.182 221.198 293.04 221.198 289.652C221.198 286.25 223.004 284.318 226.336 284.318C229.57 284.318 230.858 285.998 230.858 287.762C230.858 287.958 230.858 288.112 230.844 288.308C230.606 288.294 230.242 288.28 229.864 288.28C229.444 288.28 229.066 288.28 228.814 288.308C228.828 288.182 228.828 288.056 228.828 287.958C228.828 286.726 228.002 286.054 226.322 286.054C224.39 286.054 223.284 287.02 223.284 289.68C223.284 292.27 224.348 293.474 226.378 293.474C228.254 293.474 228.926 292.718 228.884 290.744C227.932 290.758 226.588 290.758 225.804 290.786C225.818 290.646 225.818 290.366 225.818 290.212C225.818 289.862 225.818 289.582 225.804 289.344C226.658 289.372 227.512 289.372 228.142 289.372C228.856 289.372 229.864 289.386 230.816 289.358ZM235.288 289.75C235.778 289.764 236.856 289.778 238.032 289.792C239.404 289.792 240.09 289.106 240.09 287.986C240.09 286.586 239.39 286.166 237.78 286.166C237.29 286.166 236.03 286.18 235.288 286.208C235.288 287.412 235.274 288.616 235.288 289.75ZM239.586 290.716V290.772C241 290.954 241.476 291.346 241.98 292.816C242.302 293.768 242.568 294.566 242.75 295H240.776C240.398 295 240.356 294.874 240.104 293.95C239.474 291.794 239.222 291.332 237.92 291.332C237.038 291.332 236.534 291.346 235.302 291.346C235.316 292.83 235.358 294.118 235.428 295H233.258C233.272 293.474 233.3 291.99 233.3 289.75C233.3 287.524 233.286 286.012 233.258 284.5H238.2C240.664 284.5 242.092 285.536 242.092 287.692C242.092 289.428 241.336 290.422 239.586 290.716ZM254.089 289.638C254.089 293.208 252.087 295.196 248.909 295.196C245.731 295.196 243.757 293.208 243.757 289.638C243.757 286.068 245.843 284.304 248.909 284.304C251.989 284.304 254.089 286.068 254.089 289.638ZM248.923 293.348C250.869 293.348 251.989 292.088 251.989 289.708C251.989 287.328 250.855 286.138 248.923 286.138C246.977 286.138 245.829 287.3 245.829 289.708C245.829 292.102 246.977 293.348 248.923 293.348ZM263.326 284.5H265.454C265.412 285.354 265.398 286.194 265.398 287.468C265.398 288.336 265.426 289.624 265.426 290.716C265.426 293.488 264.068 295.182 260.806 295.182C257.544 295.182 256.172 293.488 256.172 290.716C256.172 289.624 256.2 288.336 256.2 287.468C256.2 286.194 256.186 285.34 256.144 284.5H258.3C258.244 285.928 258.216 289.05 258.216 290.646C258.216 292.522 259.084 293.348 260.848 293.348C262.584 293.348 263.382 292.522 263.382 290.646C263.382 289.05 263.354 285.914 263.326 284.5ZM272.238 290.296C274.1 290.296 274.87 289.75 274.87 288.28C274.87 286.838 274.058 286.264 272.336 286.264C271.902 286.264 270.824 286.278 270.194 286.292C270.194 287.678 270.194 289.036 270.194 290.268C270.6 290.282 271.384 290.296 272.238 290.296ZM268.094 284.5H272.686C275.318 284.5 276.9 285.564 276.9 288.308C276.9 290.87 275.304 292.074 272.616 292.074C271.748 292.074 271.244 292.06 270.208 292.032C270.236 293.194 270.264 294.216 270.306 295H268.094C268.15 293.488 268.15 291.99 268.15 289.75C268.15 287.524 268.15 285.914 268.094 284.5Z" fill="black"/>
</g>
<path d="M200.378 439C200.862 439 199.821 434.823 199.713 434.08C198.891 428.414 199.276 422.747 199.086 417.065C198.817 409.032 198.306 401.126 199 393.083C199.291 389.713 199.585 386.324 199.585 382.946C199.585 382.736 199.04 380.062 198.835 380.36" stroke="#D7EE00" stroke-width="7" stroke-linecap="round" stroke-linejoin="round"/>
<path d="M189 389.781C189 388.104 191.968 386.19 193.203 384.863C194.568 383.396 195.519 381.89 196.318 380.223C196.38 380.094 197.01 378.671 197.237 379.07C197.884 380.211 200.01 380.96 201.244 381.72C202.093 382.244 211.006 386.474 211.006 385.895" stroke="#D7EE00" stroke-width="7" stroke-linecap="round" stroke-linejoin="round"/>
<path d="M192.628 3.99978C192.144 3.99978 193.185 8.17657 193.293 8.91993C194.115 14.5857 193.73 20.253 193.92 25.9346C194.189 33.9681 194.699 41.8744 194.006 49.9168C193.715 53.2868 193.42 56.6761 193.42 60.0539C193.42 60.264 193.966 62.9383 194.171 62.6399" stroke="#D7EE00" stroke-width="7" stroke-linecap="round" stroke-linejoin="round"/>
<path d="M204.006 53.2192C204.006 54.8964 201.037 56.8098 199.803 58.137C198.438 59.6041 197.487 61.1098 196.688 62.7772C196.626 62.9061 195.996 64.3286 195.769 63.9297C195.121 62.7886 192.995 62.0399 191.762 61.2796C190.913 60.7564 182 56.5264 182 57.1049" stroke="#D7EE00" stroke-width="7" stroke-linecap="round" stroke-linejoin="round"/>
<path d="M338.523 423.957C338.863 423.865 337.051 420.027 336.782 419.329C334.738 414.011 333.542 408.465 331.938 403.012C329.67 395.303 327.265 387.763 325.671 379.863C325.003 376.554 324.333 373.224 323.458 369.962C323.404 369.759 322.328 367.278 322.261 367.605" stroke="#D7EE00" stroke-width="7" stroke-linecap="round" stroke-linejoin="round"/>
<path d="M317.79 378.556C317.356 376.936 318.946 374.529 319.47 373.015C320.049 371.341 320.328 369.707 320.458 367.946C320.468 367.81 320.543 366.317 320.805 366.66C321.555 367.64 323.243 367.963 324.306 368.465C325.038 368.811 332.395 371.219 332.245 370.66" stroke="#D7EE00" stroke-width="7" stroke-linecap="round" stroke-linejoin="round"/>
<path d="M53.5191 428.643C53.1766 428.562 54.9066 424.571 55.1598 423.848C57.089 418.335 58.1638 412.616 59.6494 406.981C61.75 399.013 63.9915 391.212 65.4131 383.073C66.0088 379.662 66.6064 376.232 67.4097 372.862C67.4596 372.653 68.4818 370.077 68.5559 370.409" stroke="#D7EE00" stroke-width="7" stroke-linecap="round" stroke-linejoin="round"/>
<path d="M73.2737 381.466C73.6726 379.793 72.0273 377.384 71.4695 375.851C70.8529 374.158 70.5378 372.495 70.3691 370.697C70.3561 370.558 70.2481 369.033 69.993 369.393C69.2635 370.422 67.5812 370.81 66.5277 371.36C65.8028 371.739 58.4908 374.455 58.6284 373.878" stroke="#D7EE00" stroke-width="7" stroke-linecap="round" stroke-linejoin="round"/>
<path d="M29.1996 19.3244C28.6894 19.5936 31.6046 22.4609 32.0418 23.0143C35.3743 27.2319 37.4343 32.1223 40.1072 36.7046C43.8867 43.1836 47.8658 49.4231 50.6346 56.4445C51.7949 59.3867 52.9596 62.3469 54.4296 65.1338C54.521 65.3072 56.2601 67.2103 56.3463 66.8501" stroke="#D7EE00" stroke-width="7" stroke-linecap="round" stroke-linejoin="round"/>
<path d="M62.6104 53.6106C63.3404 54.9945 61.0448 58.2233 60.3215 60.0046C59.5219 61.9736 59.1745 63.7447 59.0583 65.5645C59.0493 65.7053 59.0037 67.2295 58.5915 67.0262C57.4123 66.4447 54.8461 67.0087 53.2153 67.067C52.0932 67.1071 40.8595 68.5712 41.1112 69.0485" stroke="#D7EE00" stroke-width="7" stroke-linecap="round" stroke-linejoin="round"/>
<path d="M346.749 25.6019C346.355 25.4378 345.871 28.9818 345.722 29.5863C344.587 34.1936 342.468 38.3926 340.813 42.7977C338.473 49.0263 336.371 55.2396 333.245 61.1488C331.936 63.6248 330.617 66.1144 329.541 68.695C329.474 68.8555 329.066 71.0836 329.328 70.9251" stroke="#D7EE00" stroke-width="7" stroke-linecap="round" stroke-linejoin="round"/>
<path d="M340.325 67.0605C339.79 68.3419 336.768 68.7976 335.341 69.3932C333.764 70.0515 332.511 70.8794 331.331 71.8825C331.24 71.9601 330.274 72.833 330.217 72.4515C330.054 71.3602 328.564 70.0677 327.803 69.0688C327.279 68.3814 321.38 62.1289 321.196 62.5709" stroke="#D7EE00" stroke-width="7" stroke-linecap="round" stroke-linejoin="round"/>
<path d="M399.065 269.632C399.103 270.042 395.32 269.499 394.652 269.467C389.567 269.23 384.573 270.015 379.522 270.314C372.38 270.737 365.332 270.945 358.257 272.183C355.292 272.702 352.31 273.226 349.316 273.499C349.13 273.516 346.717 273.271 346.966 273.073" stroke="#D7EE00" stroke-width="7" stroke-linecap="round" stroke-linejoin="round"/>
<path d="M354.556 263.985C353.07 264.12 351.603 266.788 350.522 267.941C349.327 269.215 348.066 270.142 346.65 270.953C346.54 271.016 345.328 271.665 345.699 271.825C346.761 272.281 347.589 274.02 348.358 275.002C348.888 275.678 353.326 282.881 352.813 282.928" stroke="#D7EE00" stroke-width="7" stroke-linecap="round" stroke-linejoin="round"/>
<path d="M-11.1786 273.854C-11.216 273.444 -7.43306 273.988 -6.76578 274.019C-1.67991 274.256 3.3139 273.471 8.36494 273.172C15.5069 272.749 22.5547 272.542 29.63 271.303C32.5948 270.784 35.5764 270.261 38.5706 269.987C38.7568 269.97 41.1696 270.216 40.9209 270.413" stroke="#D7EE00" stroke-width="7" stroke-linecap="round" stroke-linejoin="round"/>
<path d="M33.3303 279.502C34.8171 279.366 36.2836 276.698 37.3647 275.546C38.5596 274.272 39.8207 273.344 41.237 272.533C41.3465 272.47 42.5587 271.821 42.1875 271.662C41.126 271.206 40.2979 269.467 39.5286 268.484C38.9992 267.808 34.5605 260.605 35.0733 260.558" stroke="#D7EE00" stroke-width="7" stroke-linecap="round" stroke-linejoin="round"/>
<path d="M-16.1786 142.632C-16.216 143.042 -12.4331 142.499 -11.7658 142.467C-6.67991 142.23 -1.6861 143.015 3.36494 143.314C10.5069 143.737 17.5547 143.945 24.63 145.183C27.5948 145.702 30.5764 146.226 33.5706 146.499C33.7568 146.516 36.1696 146.271 35.9209 146.073" stroke="#D7EE00" stroke-width="7" stroke-linecap="round" stroke-linejoin="round"/>
<path d="M28.3303 136.985C29.8171 137.12 31.2836 139.788 32.3647 140.941C33.5596 142.215 34.8207 143.142 36.237 143.953C36.3465 144.016 37.5587 144.665 37.1875 144.825C36.126 145.281 35.2979 147.02 34.5286 148.002C33.9992 148.678 29.5605 155.881 30.0733 155.928" stroke="#D7EE00" stroke-width="7" stroke-linecap="round" stroke-linejoin="round"/>
<path d="M396 142.176C396 141.758 392.519 142.657 391.9 142.751C387.178 143.461 382.456 143.128 377.721 143.292C371.026 143.524 364.438 143.965 357.736 143.366C354.928 143.115 352.103 142.861 349.288 142.861C349.113 142.861 346.885 143.332 347.133 143.509" stroke="#D7EE00" stroke-width="7" stroke-linecap="round" stroke-linejoin="round"/>
<path d="M351.984 152C350.586 152 348.992 149.437 347.886 148.371C346.663 147.193 345.409 146.371 344.019 145.682C343.912 145.628 342.726 145.084 343.059 144.888C344.01 144.329 344.633 142.493 345.267 141.428C345.703 140.696 349.228 133 348.746 133" stroke="#D7EE00" stroke-width="7" stroke-linecap="round" stroke-linejoin="round"/>
<defs>
<filter id="filter0_d_1101_1758" x="62" y="108" width="264" height="65" filterUnits="userSpaceOnUse" color-interpolation-filters="sRGB">
<feFlood flood-opacity="0" result="BackgroundImageFix"/>
<feColorMatrix in="SourceAlpha" type="matrix" values="0 0 0 0 0 0 0 0 0 0 0 0 0 0 0 0 0 0 127 0" result="hardAlpha"/>
<feOffset dy="4"/>
<feGaussianBlur stdDeviation="2"/>
<feComposite in2="hardAlpha" operator="out"/>
<feColorMatrix type="matrix" values="0 0 0 0 0 0 0 0 0 0 0 0 0 0 0 0 0 0 0.25 0"/>
<feBlend mode="normal" in2="BackgroundImageFix" result="effect1_dropShadow_1101_1758"/>
<feBlend mode="normal" in="SourceGraphic" in2="effect1_dropShadow_1101_1758" result="shape"/>
</filter>
<filter id="filter1_d_1101_1758" x="62" y="185" width="264" height="65" filterUnits="userSpaceOnUse" color-interpolation-filters="sRGB">
<feFlood flood-opacity="0" result="BackgroundImageFix"/>
<feColorMatrix in="SourceAlpha" type="matrix" values="0 0 0 0 0 0 0 0 0 0 0 0 0 0 0 0 0 0 127 0" result="hardAlpha"/>
<feOffset dy="4"/>
<feGaussianBlur stdDeviation="2"/>
<feComposite in2="hardAlpha" operator="out"/>
<feColorMatrix type="matrix" values="0 0 0 0 0 0 0 0 0 0 0 0 0 0 0 0 0 0 0.25 0"/>
<feBlend mode="normal" in2="BackgroundImageFix" result="effect1_dropShadow_1101_1758"/>
<feBlend mode="normal" in="SourceGraphic" in2="effect1_dropShadow_1101_1758" result="shape"/>
</filter>
<filter id="filter2_d_1101_1758" x="62" y="261" width="264" height="65" filterUnits="userSpaceOnUse" color-interpolation-filters="sRGB">
<feFlood flood-opacity="0" result="BackgroundImageFix"/>
<feColorMatrix in="SourceAlpha" type="matrix" values="0 0 0 0 0 0 0 0 0 0 0 0 0 0 0 0 0 0 127 0" result="hardAlpha"/>
<feOffset dy="4"/>
<feGaussianBlur stdDeviation="2"/>
<feComposite in2="hardAlpha" operator="out"/>
<feColorMatrix type="matrix" values="0 0 0 0 0 0 0 0 0 0 0 0 0 0 0 0 0 0 0.25 0"/>
<feBlend mode="normal" in2="BackgroundImageFix" result="effect1_dropShadow_1101_1758"/>
<feBlend mode="normal" in="SourceGraphic" in2="effect1_dropShadow_1101_1758" result="shape"/>
</filter>
</defs>
</svg>
