<svg width="74" height="9" viewBox="0 0 74 9" fill="none" xmlns="http://www.w3.org/2000/svg">
<path d="M4.30898 6.37C3.93898 6.37 3.52898 6.37 3.02898 6.35C3.01898 5.89 3.00898 5.36 3.00898 4.82C3.47898 4.81 3.90898 4.8 4.28898 4.8C4.97898 4.8 5.26898 4.99 5.26898 5.57C5.26898 6.19 4.99898 6.37 4.30898 6.37ZM5.20898 2.7C5.20898 3.31 4.91898 3.56 4.26898 3.57C3.88898 3.57 3.46898 3.58 3.00898 3.56C3.00898 3 3.00898 2.46 3.01898 2.02C3.47898 2 3.89898 1.99 4.29898 1.99C4.93898 1.99 5.20898 2.17 5.20898 2.7ZM6.02898 4.18C6.31898 4.15 6.55898 4.1 6.74898 4.02C7.38898 3.75 7.61898 3.34 7.61898 2.48C7.61898 1.01 6.70898 0.499999 5.06898 0.499999H0.588984C0.638984 1.52 0.638984 2.66 0.638984 4.25C0.638984 5.84 0.638984 6.95 0.588984 8H5.16898C6.94898 8 7.70898 7.38 7.70898 6C7.70898 5.11 7.42898 4.59 6.65898 4.34C6.48898 4.28 6.27898 4.25 6.02898 4.23V4.18ZM12.3833 4.12C11.8933 4.11 11.4533 4.11 11.1733 4.1C11.1633 3.48 11.1633 2.83 11.1633 2.18C11.5533 2.17 12.0433 2.16 12.2533 2.16C13.0033 2.16 13.3433 2.34 13.3433 3.14C13.3433 3.81 13.0433 4.12 12.3833 4.12ZM13.9633 4.96C15.2333 4.76 15.7333 4.13 15.7333 2.76C15.7333 1.18 14.6833 0.499999 12.8533 0.499999H8.76328C8.79328 1.58 8.80328 2.66 8.80328 4.25C8.80328 5.85 8.78328 6.91 8.76328 8H11.2933C11.2333 7.41 11.2033 6.58 11.1833 5.62C11.6633 5.61 11.8733 5.62 12.2333 5.62C12.8433 5.62 12.9833 5.84 13.2233 7.1C13.3933 7.87 13.4633 8 13.8333 8H16.0633C15.9633 7.66 15.8133 7.03 15.6533 6.46C15.4033 5.45 14.9933 5.15 13.9633 5.02V4.96ZM19.4673 8C19.4473 6.91 19.4473 5.83 19.4473 4.24C19.4473 2.64 19.4473 1.56 19.4673 0.499999H16.9273C16.9573 1.57 16.9573 2.65 16.9573 4.25C16.9573 5.84 16.9573 6.92 16.9273 8H19.4673ZM27.7752 3.82C27.0752 3.84 26.3852 3.83 25.8552 3.83C25.3752 3.83 24.7352 3.83 24.0952 3.82C24.1052 4.02 24.1052 4.28 24.1052 4.59C24.1052 4.75 24.1052 5.11 24.0952 5.26C24.4952 5.25 25.0152 5.24 25.4952 5.24C25.4352 6.04 25.1252 6.35 24.3752 6.35C23.3252 6.35 22.9652 5.71 22.9652 4.2C22.9652 2.6 23.3652 2.1 24.3052 2.1C25.0252 2.1 25.3952 2.37 25.3952 2.98C25.3952 3.05 25.3852 3.14 25.3852 3.22C25.6852 3.2 26.1252 3.2 26.5852 3.2C27.0352 3.2 27.4952 3.21 27.8252 3.22C27.8352 3.07 27.8352 2.94 27.8352 2.8C27.8352 1.46 26.9452 0.37 24.3152 0.37C21.6852 0.37 20.4552 1.58 20.4552 4.17C20.4552 6.77 21.6652 8.13 24.2852 8.13C27.4352 8.13 27.9652 6.69 27.7952 3.82H27.7752ZM33.7872 0.499999C33.8072 1.2 33.8172 2.33 33.8272 3.23C33.4672 3.24 33.0672 3.25 32.6672 3.25C32.2672 3.25 31.8672 3.24 31.5072 3.23C31.5072 2.33 31.5172 1.2 31.5472 0.499999H29.0172C29.0572 1.53 29.0572 2.66 29.0572 4.25C29.0572 5.84 29.0572 6.92 29.0172 8H31.5472C31.5172 7.27 31.5072 6.19 31.5072 5.32C31.8672 5.31 32.2672 5.31 32.6672 5.31C33.0672 5.31 33.4672 5.31 33.8272 5.32C33.8172 6.19 33.8072 7.28 33.7872 8H36.3172C36.2872 6.92 36.2772 5.84 36.2772 4.25C36.2772 2.66 36.2872 1.53 36.3172 0.499999H33.7872ZM37.1407 0.499999C37.1507 0.779999 37.1507 1.21 37.1507 1.6C37.1507 1.97 37.1507 2.44 37.1407 2.74C37.7407 2.73 38.3307 2.72 38.8707 2.72C38.8707 5.14 38.8607 7.47 38.8307 8.01C39.1907 7.98 39.7407 7.98 40.1407 7.98C40.5407 7.98 41.1107 7.98 41.4607 8.01C41.4307 7.47 41.4207 5.13 41.4207 2.72C41.9607 2.72 42.5507 2.73 43.1407 2.74C43.1307 2.44 43.1307 1.97 43.1307 1.6C43.1307 1.21 43.1307 0.779999 43.1407 0.499999H37.1407ZM48.9886 0.499999C49.0286 1.11 49.0586 2.36 49.0686 3.46C49.0686 3.94 49.0986 4.48 49.1486 5.05L49.1286 5.06C48.9786 4.6 48.7986 4.14 48.5986 3.75C47.9486 2.55 46.9686 0.98 46.7686 0.499999H43.9586C43.9786 1.49 43.9786 2.66 43.9786 4.25C43.9786 5.85 43.9686 7 43.9586 8H46.1786C46.1486 7.58 46.1486 6.58 46.1386 5.11C46.1186 4.52 46.0886 3.93 46.0386 3.28H46.0586C46.2386 3.79 46.4486 4.31 46.7086 4.81C47.4286 5.96 48.2786 7.33 48.5986 8H51.1486C51.1286 7.03 51.1286 5.9 51.1286 4.24C51.1286 2.65 51.1386 1.22 51.1586 0.499999H48.9886ZM52.4547 0.499999C52.4847 1.47 52.4847 2.66 52.4847 4.25C52.4847 5.85 52.4847 6.99 52.4547 8H58.4747C58.4547 7.75 58.4547 7.35 58.4547 7.05C58.4547 6.7 58.4547 6.26 58.4747 6.02C57.3347 6.03 55.9347 6.04 54.9247 6.04V4.95C56.1047 4.95 57.4047 4.96 58.3747 4.98C58.3747 4.58 58.3747 3.71 58.3847 3.34C57.4047 3.37 56.1147 3.37 54.9247 3.37V2.32C55.9247 2.32 57.2547 2.33 58.4747 2.34C58.4547 2.12 58.4547 1.69 58.4547 1.38C58.4547 1.09 58.4647 0.71 58.4747 0.499999H52.4547ZM61.622 5.55C61.392 5.57 61.072 5.57 60.732 5.57C60.262 5.57 59.762 5.54 59.432 5.51C59.412 5.69 59.412 5.87 59.412 6.04C59.412 7.43 60.262 8.14 62.862 8.14C65.282 8.14 66.202 7.29 66.202 5.83C66.202 4.37 65.482 3.72 63.432 3.41C62.022 3.2 61.862 2.9 61.862 2.54C61.862 2.22 62.092 2.01 62.822 2.01C63.772 2.01 63.992 2.27 63.992 2.67C63.992 2.73 63.992 2.8 63.982 2.87C64.192 2.86 64.522 2.86 64.862 2.86C65.292 2.86 65.782 2.87 66.082 2.89C66.092 2.73 66.102 2.58 66.102 2.44C66.102 1.1 65.312 0.359999 62.752 0.359999C60.452 0.359999 59.432 1.2 59.432 2.62C59.432 3.92 59.992 4.69 62.282 5C63.582 5.18 63.812 5.47 63.812 5.9C63.812 6.27 63.582 6.47 62.742 6.47C61.882 6.47 61.622 6.26 61.622 5.69V5.55ZM69.1415 5.55C68.9115 5.57 68.5915 5.57 68.2515 5.57C67.7815 5.57 67.2815 5.54 66.9515 5.51C66.9315 5.69 66.9315 5.87 66.9315 6.04C66.9315 7.43 67.7815 8.14 70.3815 8.14C72.8015 8.14 73.7215 7.29 73.7215 5.83C73.7215 4.37 73.0015 3.72 70.9515 3.41C69.5415 3.2 69.3815 2.9 69.3815 2.54C69.3815 2.22 69.6115 2.01 70.3415 2.01C71.2915 2.01 71.5115 2.27 71.5115 2.67C71.5115 2.73 71.5115 2.8 71.5015 2.87C71.7115 2.86 72.0415 2.86 72.3815 2.86C72.8115 2.86 73.3015 2.87 73.6015 2.89C73.6115 2.73 73.6215 2.58 73.6215 2.44C73.6215 1.1 72.8315 0.359999 70.2715 0.359999C67.9715 0.359999 66.9515 1.2 66.9515 2.62C66.9515 3.92 67.5115 4.69 69.8015 5C71.1015 5.18 71.3315 5.47 71.3315 5.9C71.3315 6.27 71.1015 6.47 70.2615 6.47C69.4015 6.47 69.1415 6.26 69.1415 5.69V5.55Z" fill="#EAFC38"/>
</svg>
