<svg width="103" height="12" viewBox="0 0 103 12" fill="none" xmlns="http://www.w3.org/2000/svg">
<path d="M0.902375 11V0.44H6.03838C7.33971 0.450666 8.29971 0.701333 8.91838 1.192C9.53704 1.672 9.84638 2.37067 9.84638 3.288C9.84638 3.88533 9.67038 4.40267 9.31838 4.84C8.96638 5.26667 8.42771 5.53867 7.70238 5.656V5.672C8.51304 5.77867 9.11571 6.06133 9.51038 6.52C9.91571 6.968 10.1184 7.512 10.1184 8.152C10.1184 9.05867 9.79838 9.76267 9.15838 10.264C8.51838 10.7547 7.55838 11 6.27838 11H0.902375ZM3.55838 9.064H5.81438C6.31571 9.064 6.68904 8.96267 6.93438 8.76C7.17971 8.55733 7.30238 8.264 7.30238 7.88C7.30238 7.50667 7.17971 7.224 6.93438 7.032C6.68904 6.82933 6.31571 6.728 5.81438 6.728H3.55838V9.064ZM3.55838 4.76H5.55838C6.53971 4.76 7.03038 4.376 7.03038 3.608C7.03038 2.84 6.53971 2.456 5.55838 2.456H3.55838V4.76ZM16.8799 0.44C18.1385 0.44 19.1145 0.738666 19.8079 1.336C20.5119 1.92267 20.8639 2.70667 20.8639 3.688C20.8639 4.76533 20.5172 5.58667 19.8239 6.152C19.1305 6.71733 18.1545 7 16.8959 7L16.6399 7.144H14.5439V11H11.8399V0.44H16.8799ZM16.4959 5.192C17.0292 5.192 17.4292 5.08533 17.6959 4.872C17.9625 4.65867 18.0959 4.31733 18.0959 3.848C18.0959 3.38933 17.9625 3.05333 17.6959 2.84C17.4292 2.62667 17.0292 2.52 16.4959 2.52H14.5439V5.192H16.4959ZM18.1119 5.768L21.4879 11H18.4479L15.7439 6.376L18.1119 5.768ZM25.6231 0.44V11H22.8711V0.44H25.6231ZM32.3329 11.16C31.3942 11.16 30.5569 10.952 29.8209 10.536C29.0955 10.12 28.5302 9.50667 28.1249 8.696C27.7195 7.88533 27.5169 6.89867 27.5169 5.736C27.5169 4.59467 27.7302 3.61867 28.1569 2.808C28.5835 1.99733 29.1915 1.37333 29.9809 0.936C30.7809 0.498666 31.7195 0.28 32.7969 0.28C33.9915 0.28 34.9569 0.498666 35.6929 0.936C36.4289 1.36267 36.9995 2.04533 37.4049 2.984L34.8609 3.992C34.7222 3.448 34.4769 3.05333 34.1249 2.808C33.7729 2.56267 33.3355 2.44 32.8129 2.44C32.2902 2.44 31.8422 2.568 31.4689 2.824C31.0955 3.06933 30.8129 3.43733 30.6209 3.928C30.4289 4.408 30.3329 5.00533 30.3329 5.72C30.3329 6.46667 30.4289 7.09067 30.6209 7.592C30.8235 8.09333 31.1169 8.46667 31.5009 8.712C31.8955 8.94667 32.3809 9.064 32.9569 9.064C33.2662 9.064 33.5489 9.02667 33.8049 8.952C34.0609 8.87733 34.2849 8.77067 34.4769 8.632C34.6689 8.48267 34.8182 8.30133 34.9249 8.088C35.0315 7.864 35.0849 7.60267 35.0849 7.304V7.144H32.6689V5.304H37.4209V11H35.5489L35.3409 8.52L35.7889 8.904C35.5649 9.62933 35.1595 10.1893 34.5729 10.584C33.9969 10.968 33.2502 11.16 32.3329 11.16ZM49.0634 0.44V11H46.3114V0.44H49.0634ZM42.2794 0.44V11H39.5274V0.44H42.2794ZM47.7834 4.616V6.744H40.8714V4.616H47.7834ZM60.2824 0.44V2.568H56.8424V11H54.0904V2.568H50.6344V0.44H60.2824ZM71.3755 0.44V11H68.3195L65.0395 5.288L64.2395 3.72H64.2235L64.2875 5.672V11H61.8555V0.44H64.9115L68.1915 6.152L68.9915 7.72H69.0075L68.9435 5.768V0.44H71.3755ZM73.7149 11V0.44H81.9389V2.568H76.4669V4.712H80.8189V6.712H76.4669V8.872H82.1469V11H73.7149ZM87.9366 0.28C88.918 0.28 89.782 0.434666 90.5286 0.743999C91.286 1.04267 91.942 1.48533 92.4966 2.072L91.1686 3.848C90.71 3.368 90.214 3.01067 89.6806 2.776C89.158 2.53067 88.5606 2.408 87.8886 2.408C87.494 2.408 87.174 2.45067 86.9286 2.536C86.6833 2.62133 86.5073 2.73867 86.4006 2.888C86.294 3.03733 86.2406 3.208 86.2406 3.4C86.2406 3.624 86.342 3.816 86.5446 3.976C86.758 4.12533 87.0993 4.25333 87.5686 4.36L89.3446 4.76C90.4006 5.00533 91.174 5.36267 91.6646 5.832C92.1553 6.30133 92.4006 6.92533 92.4006 7.704C92.4006 8.45067 92.2086 9.08533 91.8246 9.608C91.4406 10.12 90.9126 10.5093 90.2406 10.776C89.5686 11.032 88.8006 11.16 87.9366 11.16C87.2326 11.16 86.5606 11.0853 85.9206 10.936C85.2806 10.776 84.7046 10.552 84.1926 10.264C83.6806 9.976 83.2486 9.64533 82.8966 9.272L84.2246 7.432C84.4913 7.74133 84.8166 8.01867 85.2006 8.264C85.5953 8.49867 86.022 8.68533 86.4806 8.824C86.95 8.96267 87.4246 9.032 87.9046 9.032C88.278 9.032 88.5873 8.99467 88.8326 8.92C89.0886 8.84533 89.2753 8.73333 89.3926 8.584C89.51 8.43467 89.5686 8.25867 89.5686 8.056C89.5686 7.832 89.4886 7.64533 89.3286 7.496C89.1686 7.336 88.8646 7.20267 88.4166 7.096L86.4646 6.664C85.8673 6.52533 85.334 6.344 84.8646 6.12C84.406 5.88533 84.0433 5.576 83.7766 5.192C83.51 4.79733 83.3766 4.30667 83.3766 3.72C83.3766 3.05867 83.558 2.472 83.9206 1.96C84.2833 1.43733 84.806 1.02667 85.4886 0.728C86.1713 0.429333 86.9873 0.28 87.9366 0.28ZM98.2491 0.28C99.2305 0.28 100.094 0.434666 100.841 0.743999C101.598 1.04267 102.254 1.48533 102.809 2.072L101.481 3.848C101.022 3.368 100.526 3.01067 99.9931 2.776C99.4705 2.53067 98.8731 2.408 98.2011 2.408C97.8065 2.408 97.4865 2.45067 97.2411 2.536C96.9958 2.62133 96.8198 2.73867 96.7131 2.888C96.6065 3.03733 96.5531 3.208 96.5531 3.4C96.5531 3.624 96.6545 3.816 96.8571 3.976C97.0705 4.12533 97.4118 4.25333 97.8811 4.36L99.6571 4.76C100.713 5.00533 101.486 5.36267 101.977 5.832C102.468 6.30133 102.713 6.92533 102.713 7.704C102.713 8.45067 102.521 9.08533 102.137 9.608C101.753 10.12 101.225 10.5093 100.553 10.776C99.8811 11.032 99.1131 11.16 98.2491 11.16C97.5451 11.16 96.8731 11.0853 96.2331 10.936C95.5931 10.776 95.0171 10.552 94.5051 10.264C93.9931 9.976 93.5611 9.64533 93.2091 9.272L94.5371 7.432C94.8038 7.74133 95.1291 8.01867 95.5131 8.264C95.9078 8.49867 96.3345 8.68533 96.7931 8.824C97.2625 8.96267 97.7371 9.032 98.2171 9.032C98.5905 9.032 98.8998 8.99467 99.1451 8.92C99.4011 8.84533 99.5878 8.73333 99.7051 8.584C99.8225 8.43467 99.8811 8.25867 99.8811 8.056C99.8811 7.832 99.8011 7.64533 99.6411 7.496C99.4811 7.336 99.1771 7.20267 98.7291 7.096L96.7771 6.664C96.1798 6.52533 95.6465 6.344 95.1771 6.12C94.7185 5.88533 94.3558 5.576 94.0891 5.192C93.8225 4.79733 93.6891 4.30667 93.6891 3.72C93.6891 3.05867 93.8705 2.472 94.2331 1.96C94.5958 1.43733 95.1185 1.02667 95.8011 0.728C96.4838 0.429333 97.2998 0.28 98.2491 0.28Z" fill="black"/>
</svg>
