<svg width="100" height="66" viewBox="0 0 100 66" fill="none" xmlns="http://www.w3.org/2000/svg">
<path d="M0.75 0.75H88C94.2132 0.75 99.25 5.7868 99.25 12V54C99.25 60.2132 94.2132 65.25 88 65.25H0.75V0.75Z" fill="#FEF8E5" stroke="black" stroke-width="1.5"/>
<path d="M40.1461 14.7441C41.0744 16.7787 40.7756 16.0605 41.0744 16.7787C42.1115 19.2718 43.1523 21.8287 44.5162 24.1644C47.4413 29.1739 50.6404 34.0994 53.2966 39.2584C54.3296 41.2648 55.7059 43.0778 56.8113 45.0468C57.8101 46.8259 58.7248 48.6818 59.8228 50.3991C60.3202 51.1769 60.8409 51.9392 61.3246 52.7213C61.4759 52.9659 61.6353 53.8124 61.6353 53.5253" stroke="black" stroke-width="2" stroke-linecap="round" stroke-linejoin="round"/>
<path d="M51.7113 12.0019C51.6774 12.4368 51.5297 13.5815 51.5499 14.1162C51.3885 16.151 51.504 17.8327 51.3599 19.6854C50.8641 26.0602 50.6386 32.4512 50.1428 38.8257C50.0555 39.9469 49.0151 56.3051 49.1772 56.3284" stroke="black" stroke-width="2" stroke-linecap="round" stroke-linejoin="round"/>
<path d="M32.2861 21.8295C32.6435 22.0848 33.5534 22.8064 34.0249 23.068C35.6952 24.2651 37.2053 25.0442 38.7275 26.1318C43.9653 29.8739 49.3579 33.3961 54.5954 37.138C55.5166 37.7962 69.0779 47.2027 69.1824 47.078" stroke="black" stroke-width="2" stroke-linecap="round" stroke-linejoin="round"/>
<path d="M28 30.4648L73 38.2204" stroke="black" stroke-width="2" stroke-linecap="round"/>
<path d="M30.8029 39.7803L72.847 29.5406" stroke="black" stroke-width="2" stroke-linecap="round"/>
<path d="M36.4088 51.6055L65.3725 17.5194" stroke="black" stroke-width="2" stroke-linecap="round"/>
<ellipse cx="50.3738" cy="34.1137" rx="16.5602" ry="14.8471" fill="#FEF8E5"/>
<path d="M54.0045 19.8483C48.8651 19.2774 48.3122 19.7061 45.6466 20.3382C41.8081 21.2483 38.1033 24.0549 36.0977 27.8318C32.0557 35.4434 37.4349 45.6795 45.7415 48.0469C48.857 48.9349 53.5695 49.1088 56.6553 47.8181C60.9092 46.0388 64.2646 42.9821 65.4769 38.4012C66.1411 35.8912 66.2561 33.2931 65.7919 30.6868C65.4023 28.4985 64.2792 26.5497 62.9939 24.8376C61.7828 23.2245 59.6518 21.6722 57.7973 20.9793C56.7692 20.5952 56.0826 20.1448 53.4722 19.765" stroke="black" stroke-width="2" stroke-linecap="round" stroke-linejoin="round"/>
</svg>
