<svg width="33" height="52" viewBox="0 0 33 52" fill="none" xmlns="http://www.w3.org/2000/svg">
<path d="M21.8247 25.9906C25.5572 29.7064 29.2545 33.3882 33 37.1169C32.8157 37.3163 32.6806 37.4711 32.535 37.6165C27.8738 42.2742 23.209 46.9295 18.5547 51.5953C18.2694 51.8815 17.9888 52.0176 17.5814 51.9977C16.9215 51.966 16.2605 51.9894 15.5325 51.9894C15.5325 45.4375 15.5325 38.9443 15.5325 32.3971C11.5522 36.3733 7.633 40.2896 3.76308 44.1555C2.47741 42.8712 1.26806 41.6643 0.0493133 40.4468C4.79513 35.7059 9.61962 30.8875 14.4629 26.0493C9.59144 21.1817 4.77165 16.3669 0 11.6013C1.25162 10.3521 2.4504 9.15694 3.68441 7.92538C7.5285 11.7667 11.456 15.6913 15.3846 19.6158C15.4304 19.5912 15.4762 19.5677 15.522 19.5431C15.522 13.051 15.522 6.55894 15.522 0.00234583C16.3826 0.00234583 17.1786 -0.00703749 17.9735 0.0117291C18.105 0.0152479 18.2588 0.123156 18.361 0.2252C23.1796 5.03063 27.9924 9.84075 32.8063 14.6509C32.8591 14.7037 32.8979 14.7717 32.9765 14.8761C29.2628 18.5766 25.556 22.2725 21.8247 25.9906ZM25.3764 37.226C23.8512 35.7012 22.2802 34.1295 20.795 32.6446C20.795 35.6038 20.795 38.7261 20.795 41.8625C22.3824 40.2568 23.9381 38.6816 25.3764 37.226ZM20.7903 10.1586C20.7903 13.2833 20.7903 16.4102 20.7903 19.5314C22.3789 17.9268 23.9463 16.3422 25.4551 14.8174C23.944 13.3091 22.3753 11.742 20.7903 10.1586Z" fill="black"/>
</svg>
