<svg width="360" height="21" viewBox="0 0 360 21" fill="none" xmlns="http://www.w3.org/2000/svg">
<path d="M13.2795 12.475V11.825C14.2795 11.85 15.2795 11.85 16.2795 11.85C17.2795 11.85 18.3045 11.85 19.3045 11.825C19.3295 12.225 19.3295 12.6 19.3295 12.925C19.3295 17.9 16.4045 20.325 10.3795 20.325C4.02949 20.325 0.954492 17.425 0.954492 10.375C0.954492 3.925 3.92949 0.925 10.4545 0.925C16.8545 0.925 19.2795 3.425 19.2795 7.5C19.2795 7.975 19.2545 8.5 19.2045 9.05C18.2045 9 17.1795 9 16.2045 9C15.2045 9 14.2295 9 13.2295 9.05C13.2545 8.85 13.2545 8.65 13.2545 8.5C13.2545 6.375 12.2795 5.65 10.3795 5.65C8.27949 5.675 7.27949 6.65 7.27949 10.35C7.27949 14.025 8.30449 15.25 10.5045 15.25C12.4295 15.25 13.2795 14.15 13.2795 12.475ZM33.8449 1.25H40.1699C40.0949 3.825 40.0699 6.65 40.0699 10.625C40.0699 14.6 40.0949 17.3 40.1699 20H33.8449C33.8949 18.2 33.9199 15.475 33.9449 13.3C33.0449 13.275 32.0449 13.275 31.0449 13.275C30.0449 13.275 29.0449 13.275 28.1449 13.3C28.1449 15.475 28.1699 18.175 28.2449 20H21.9199C22.0199 17.3 22.0199 14.6 22.0199 10.625C22.0199 6.65 22.0199 3.825 21.9199 1.25H28.2449C28.1699 3 28.1449 5.825 28.1449 8.075C29.0449 8.1 30.0449 8.125 31.0449 8.125C32.0449 8.125 33.0449 8.1 33.9449 8.075C33.9199 5.825 33.8949 3 33.8449 1.25ZM62.1037 10.3C62.1037 17.075 58.7537 20.35 52.3287 20.35C45.9037 20.35 42.6787 17.075 42.6787 10.3C42.6787 3.525 46.2537 0.899999 52.3537 0.899999C58.4287 0.899999 62.1037 3.525 62.1037 10.3ZM52.3537 15.3C54.6037 15.3 55.7287 13.75 55.7287 10.375C55.7287 7.05 54.5787 5.675 52.3537 5.675C50.1287 5.675 48.9537 7 48.9537 10.375C48.9537 13.8 50.1287 15.3 52.3537 15.3ZM83.2951 10.3C83.2951 17.075 79.9451 20.35 73.5201 20.35C67.0951 20.35 63.8701 17.075 63.8701 10.3C63.8701 3.525 67.4451 0.899999 73.5451 0.899999C79.6201 0.899999 83.2951 3.525 83.2951 10.3ZM73.5451 15.3C75.7951 15.3 76.9201 13.75 76.9201 10.375C76.9201 7.05 75.7701 5.675 73.5451 5.675C71.3201 5.675 70.1451 7 70.1451 10.375C70.1451 13.8 71.3201 15.3 73.5451 15.3ZM90.7365 13.875V14.225C90.7365 15.65 91.3865 16.175 93.5365 16.175C95.6365 16.175 96.2115 15.675 96.2115 14.75C96.2115 13.675 95.6365 12.95 92.3865 12.5C86.6615 11.725 85.2615 9.8 85.2615 6.55C85.2615 3 87.8115 0.899999 93.5615 0.899999C99.9615 0.899999 101.937 2.75 101.937 6.1C101.937 6.45 101.912 6.825 101.887 7.225C101.137 7.175 99.9115 7.15 98.8365 7.15C97.9865 7.15 97.1615 7.15 96.6365 7.175C96.6615 7 96.6615 6.825 96.6615 6.675C96.6615 5.675 96.1115 5.025 93.7365 5.025C91.9115 5.025 91.3365 5.55 91.3365 6.35C91.3365 7.25 91.7365 8 95.2615 8.525C100.387 9.3 102.187 10.925 102.187 14.575C102.187 18.225 99.8865 20.35 93.8365 20.35C87.3365 20.35 85.2115 18.575 85.2115 15.1C85.2115 14.675 85.2115 14.225 85.2615 13.775C86.0865 13.85 87.3365 13.925 88.5115 13.925C89.3615 13.925 90.1615 13.925 90.7365 13.875ZM104.61 1.25H119.66C119.635 1.775 119.61 2.725 119.61 3.45C119.61 4.225 119.61 5.3 119.66 5.85C116.61 5.825 113.285 5.8 110.785 5.8V8.425C113.76 8.425 116.985 8.425 119.435 8.35C119.41 9.275 119.41 11.45 119.41 12.45C116.985 12.4 113.735 12.375 110.785 12.375V15.1C113.31 15.1 116.81 15.075 119.66 15.05C119.61 15.65 119.61 16.75 119.61 17.625C119.61 18.375 119.61 19.375 119.66 20H104.61C104.685 17.475 104.685 14.625 104.685 10.625C104.685 6.65 104.685 3.675 104.61 1.25ZM140.623 12.475V11.825C141.623 11.85 142.623 11.85 143.623 11.85C144.623 11.85 145.648 11.85 146.648 11.825C146.673 12.225 146.673 12.6 146.673 12.925C146.673 17.9 143.748 20.325 137.723 20.325C131.373 20.325 128.298 17.425 128.298 10.375C128.298 3.925 131.273 0.925 137.798 0.925C144.198 0.925 146.623 3.425 146.623 7.5C146.623 7.975 146.598 8.5 146.548 9.05C145.548 9 144.523 9 143.548 9C142.548 9 141.573 9 140.573 9.05C140.598 8.85 140.598 8.65 140.598 8.5C140.598 6.375 139.623 5.65 137.723 5.65C135.623 5.675 134.623 6.65 134.623 10.35C134.623 14.025 135.648 15.25 137.848 15.25C139.773 15.25 140.623 14.15 140.623 12.475ZM167.939 10.3C167.939 17.075 164.589 20.35 158.164 20.35C151.739 20.35 148.514 17.075 148.514 10.3C148.514 3.525 152.089 0.899999 158.189 0.899999C164.264 0.899999 167.939 3.525 167.939 10.3ZM158.189 15.3C160.439 15.3 161.564 13.75 161.564 10.375C161.564 7.05 160.414 5.675 158.189 5.675C155.964 5.675 154.789 7 154.789 10.375C154.789 13.8 155.964 15.3 158.189 15.3ZM170.455 1.25H176.905C176.855 2.65 176.805 6.45 176.78 10.6C176.78 11.925 176.78 13.275 176.805 14.45C178.53 14.45 180.83 14.425 182.83 14.375C182.83 15.3 182.805 16.25 182.805 17.175C182.805 18.125 182.83 19.05 182.83 20H170.455C170.455 18.475 170.53 14.625 170.53 10.625C170.53 6.325 170.53 3.05 170.455 1.25ZM203.144 10.3C203.144 17.075 199.794 20.35 193.369 20.35C186.944 20.35 183.719 17.075 183.719 10.3C183.719 3.525 187.294 0.899999 193.394 0.899999C199.469 0.899999 203.144 3.525 203.144 10.3ZM193.394 15.3C195.644 15.3 196.769 13.75 196.769 10.375C196.769 7.05 195.619 5.675 193.394 5.675C191.169 5.675 189.994 7 189.994 10.375C189.994 13.8 191.169 15.3 193.394 15.3ZM214.71 10.3C216.36 10.3 217.11 9.525 217.11 7.85C217.11 5.85 216.26 5.4 214.385 5.4C213.86 5.4 212.635 5.425 211.66 5.45C211.66 7.075 211.66 8.7 211.685 10.25C212.385 10.275 213.485 10.275 214.71 10.3ZM218.66 12.4V12.55C221.235 12.875 222.26 13.625 222.885 16.15C223.285 17.575 223.66 19.15 223.91 20H218.335C217.41 20 217.235 19.675 216.81 17.75C216.21 14.6 215.86 14.05 214.335 14.05C213.435 14.05 212.91 14.025 211.71 14.05C211.76 16.45 211.835 18.525 211.985 20H205.66C205.71 17.275 205.76 14.625 205.76 10.625C205.76 6.65 205.735 3.95 205.66 1.25H215.885C220.46 1.25 223.085 2.95 223.085 6.9C223.085 10.325 221.835 11.9 218.66 12.4ZM252.687 1.25H257.837C256.737 5.6 254.437 17.275 253.887 20C253.012 19.975 251.787 19.95 250.387 19.95C248.437 19.95 247.012 19.975 246.412 20C246.162 18.525 245.587 14.925 245.062 11.7C244.862 10.3 244.687 8.675 244.512 7.225H244.387C244.187 8.7 243.987 10.375 243.737 11.75C243.187 14.85 242.537 18.375 242.262 20C241.437 20 239.962 19.95 238.612 19.95C236.787 19.95 235.712 19.975 235.137 20C234.462 16.9 232.337 5.625 231.162 1.25H237.762C237.862 2.625 238.587 7.975 239.137 11.625C239.312 12.75 239.462 13.875 239.612 14.775H239.762C239.912 13.85 240.087 12.75 240.287 11.575C240.837 7.975 241.662 3.05 241.787 1.25C242.662 1.275 244.412 1.275 245.412 1.275C246.412 1.275 247.887 1.275 248.712 1.25C248.887 2.9 249.487 7.95 250.137 11.675C250.362 12.925 250.512 14 250.637 14.875H250.787C250.912 13.975 251.037 12.9 251.262 11.675C251.812 7.975 252.512 3.075 252.687 1.25ZM267.115 12.575H269.265C268.865 10.75 268.44 8.875 268.015 7.25C267.64 5.975 267.365 4.75 267.165 3.85H267.09C266.865 4.75 266.59 5.95 266.215 7.3C265.84 8.925 265.415 10.775 264.99 12.575H267.115ZM277.665 20H270.665C270.59 19.325 270.39 18.025 270.065 16.425C268.99 16.425 267.94 16.425 267.115 16.425C266.34 16.425 265.265 16.425 264.165 16.425C263.84 17.975 263.59 19.25 263.49 20H257.09C258.615 15.3 261.64 3.85 262.265 1.25H272.29C272.99 3.875 276.04 15.225 277.665 20ZM288.27 10.3C289.92 10.3 290.67 9.525 290.67 7.85C290.67 5.85 289.82 5.4 287.945 5.4C287.42 5.4 286.195 5.425 285.22 5.45C285.22 7.075 285.22 8.7 285.245 10.25C285.945 10.275 287.045 10.275 288.27 10.3ZM292.22 12.4V12.55C294.795 12.875 295.82 13.625 296.445 16.15C296.845 17.575 297.22 19.15 297.47 20H291.895C290.97 20 290.795 19.675 290.37 17.75C289.77 14.6 289.42 14.05 287.895 14.05C286.995 14.05 286.47 14.025 285.27 14.05C285.32 16.45 285.395 18.525 285.545 20H279.22C279.27 17.275 279.32 14.625 279.32 10.625C279.32 6.65 279.295 3.95 279.22 1.25H289.445C294.02 1.25 296.645 2.95 296.645 6.9C296.645 10.325 295.395 11.9 292.22 12.4ZM321.927 20H315.977C316.102 17.1 316.152 14.9 316.177 11.8C316.177 10.575 316.252 9.175 316.327 7.825L316.177 7.8C315.802 9.225 315.377 10.65 315.027 11.675L311.877 20H309.227L306.002 11.475C305.627 10.425 305.202 9.025 304.827 7.675L304.702 7.7C304.752 9.05 304.827 10.35 304.852 11.725C304.877 14.875 304.927 17.15 305.002 20H299.777C299.852 17.3 299.877 14.575 299.877 10.6C299.877 6.5 299.852 3.7 299.802 1.25H307.627C308.202 3 309.152 5.875 310.302 8.925C310.552 9.75 310.852 10.875 311.127 11.95H311.202C311.502 10.875 311.802 9.8 312.077 8.95C313.127 5.95 314.152 2.975 314.727 1.25H321.902C321.827 3.7 321.802 6.5 321.802 10.6C321.802 14.575 321.827 17.3 321.927 20ZM323.967 1.25H338.967C338.942 1.95 338.942 3.025 338.942 4C338.942 4.925 338.942 6.1 338.967 6.85C337.492 6.825 336.017 6.8 334.667 6.8C334.667 12.825 334.692 18.675 334.767 20.025C333.892 19.95 332.467 19.95 331.467 19.95C330.467 19.95 329.092 19.95 328.192 20.025C328.267 18.675 328.292 12.85 328.292 6.8C326.942 6.8 325.467 6.825 323.967 6.85C323.992 6.1 323.992 4.925 323.992 4C323.992 3.025 323.992 1.95 323.967 1.25ZM352.937 1.25H359.262C359.187 3.825 359.162 6.65 359.162 10.625C359.162 14.6 359.187 17.3 359.262 20H352.937C352.987 18.2 353.012 15.475 353.037 13.3C352.137 13.275 351.137 13.275 350.137 13.275C349.137 13.275 348.137 13.275 347.237 13.3C347.237 15.475 347.262 18.175 347.337 20H341.012C341.112 17.3 341.112 14.6 341.112 10.625C341.112 6.65 341.112 3.825 341.012 1.25H347.337C347.262 3 347.237 5.825 347.237 8.075C348.137 8.1 349.137 8.125 350.137 8.125C351.137 8.125 352.137 8.1 353.037 8.075C353.012 5.825 352.987 3 352.937 1.25Z" fill="#FEF8E5"/>
</svg>
