<svg width="229" height="23" viewBox="0 0 229 23" fill="none" xmlns="http://www.w3.org/2000/svg">
<path d="M6.4334 6.25C6.2334 6.84333 5.89007 7.3 5.4034 7.62C4.9234 7.94 4.35673 8.1 3.7034 8.1C3.07007 8.1 2.52007 7.96333 2.0534 7.69C1.58673 7.41667 1.22673 7.02333 0.973399 6.51C0.720065 5.99667 0.593398 5.39333 0.593398 4.7C0.593398 4.00667 0.720065 3.40333 0.973399 2.89C1.22673 2.37667 1.58673 1.98333 2.0534 1.71C2.52007 1.43667 3.06673 1.3 3.6934 1.3C4.3534 1.3 4.90673 1.43667 5.3534 1.71C5.80673 1.98333 6.1334 2.38667 6.3334 2.92L5.3234 3.37C5.19007 2.97667 4.99673 2.69 4.7434 2.51C4.49007 2.32333 4.16007 2.23 3.7534 2.23C3.1334 2.23 2.63673 2.45 2.2634 2.89C1.89673 3.32333 1.7134 3.92667 1.7134 4.7C1.7134 5.48 1.89007 6.08667 2.2434 6.52C2.59673 6.95333 3.08673 7.17 3.7134 7.17C4.14007 7.17 4.49673 7.06333 4.7834 6.85C5.07673 6.63667 5.28673 6.32333 5.4134 5.91L6.4334 6.25ZM10.3393 2.9C10.8927 2.9 11.3427 3.06 11.6893 3.38C12.0427 3.7 12.2193 4.16 12.2193 4.76V8H11.1493V5.1C11.1493 4.22 10.7927 3.78 10.0793 3.78C9.706 3.78 9.386 3.91 9.11934 4.17C8.85267 4.43 8.71934 4.82667 8.71934 5.36V8H7.64934V0.75H8.71934V3.8C8.886 3.49333 9.106 3.26667 9.37934 3.12C9.65934 2.97333 9.97934 2.9 10.3393 2.9ZM16.0407 2.9C16.8207 2.9 17.4307 3.13 17.8707 3.59C18.3107 4.05 18.5307 4.68667 18.5307 5.5C18.5307 6.31333 18.3107 6.95 17.8707 7.41C17.4307 7.87 16.8207 8.1 16.0407 8.1C15.2607 8.1 14.6507 7.87 14.2107 7.41C13.7707 6.95 13.5507 6.31333 13.5507 5.5C13.5507 4.68667 13.7707 4.05 14.2107 3.59C14.6507 3.13 15.2607 2.9 16.0407 2.9ZM16.0407 3.74C15.5874 3.74 15.2374 3.89333 14.9907 4.2C14.7507 4.5 14.6307 4.93333 14.6307 5.5C14.6307 6.06667 14.7507 6.50333 14.9907 6.81C15.2374 7.11 15.5874 7.26 16.0407 7.26C16.4941 7.26 16.8441 7.10667 17.0907 6.8C17.3374 6.49333 17.4607 6.06 17.4607 5.5C17.4607 4.94 17.3374 4.50667 17.0907 4.2C16.8441 3.89333 16.4941 3.74 16.0407 3.74ZM22.1052 2.9C22.8852 2.9 23.4952 3.13 23.9352 3.59C24.3752 4.05 24.5952 4.68667 24.5952 5.5C24.5952 6.31333 24.3752 6.95 23.9352 7.41C23.4952 7.87 22.8852 8.1 22.1052 8.1C21.3252 8.1 20.7152 7.87 20.2752 7.41C19.8352 6.95 19.6152 6.31333 19.6152 5.5C19.6152 4.68667 19.8352 4.05 20.2752 3.59C20.7152 3.13 21.3252 2.9 22.1052 2.9ZM22.1052 3.74C21.6519 3.74 21.3019 3.89333 21.0552 4.2C20.8152 4.5 20.6952 4.93333 20.6952 5.5C20.6952 6.06667 20.8152 6.50333 21.0552 6.81C21.3019 7.11 21.6519 7.26 22.1052 7.26C22.5585 7.26 22.9085 7.10667 23.1552 6.8C23.4019 6.49333 23.5252 6.06 23.5252 5.5C23.5252 4.94 23.4019 4.50667 23.1552 4.2C22.9085 3.89333 22.5585 3.74 22.1052 3.74ZM27.7796 8.1C27.273 8.1 26.823 8.01333 26.4296 7.84C26.043 7.66667 25.7496 7.40333 25.5496 7.05L26.2696 6.43C26.3963 6.71667 26.593 6.92667 26.8596 7.06C27.1263 7.19333 27.4463 7.26 27.8196 7.26C28.1596 7.26 28.423 7.20667 28.6096 7.1C28.7963 6.98667 28.8896 6.84 28.8896 6.66C28.8896 6.5 28.803 6.37333 28.6296 6.28C28.4563 6.18 28.1563 6.08667 27.7296 6C26.9896 5.86 26.4696 5.67333 26.1696 5.44C25.8696 5.20667 25.7196 4.87667 25.7196 4.45C25.7196 4.17667 25.803 3.92333 25.9696 3.69C26.1363 3.45 26.3763 3.26 26.6896 3.12C27.0096 2.97333 27.3863 2.9 27.8196 2.9C28.373 2.9 28.8163 2.99333 29.1496 3.18C29.483 3.36 29.7396 3.64333 29.9196 4.03L29.1596 4.59C29.0396 4.29667 28.8696 4.08333 28.6496 3.95C28.4363 3.81 28.163 3.74 27.8296 3.74C27.5296 3.74 27.2796 3.80333 27.0796 3.93C26.8863 4.05 26.7896 4.19 26.7896 4.35C26.7896 4.53 26.8763 4.67333 27.0496 4.78C27.2296 4.88667 27.553 4.98333 28.0196 5.07C28.7263 5.19667 29.2263 5.37667 29.5196 5.61C29.813 5.84333 29.9596 6.17 29.9596 6.59C29.9596 7.03667 29.7663 7.4 29.3796 7.68C28.993 7.96 28.4596 8.1 27.7796 8.1ZM35.7229 5.35C35.7229 5.54333 35.7095 5.72667 35.6829 5.9H32.0229C32.0829 6.34 32.2395 6.67667 32.4929 6.91C32.7462 7.13667 33.0729 7.25 33.4729 7.25C33.7995 7.25 34.0695 7.19333 34.2829 7.08C34.5029 6.96 34.6529 6.79 34.7329 6.57L35.6229 6.94C35.2495 7.71333 34.5329 8.1 33.4729 8.1C32.6862 8.1 32.0695 7.87 31.6229 7.41C31.1829 6.95 30.9629 6.31333 30.9629 5.5C30.9629 4.68 31.1762 4.04333 31.6029 3.59C32.0295 3.13 32.6295 2.9 33.4029 2.9C34.1362 2.9 34.7062 3.12333 35.1129 3.57C35.5195 4.01667 35.7229 4.61 35.7229 5.35ZM33.4029 3.75C33.0162 3.75 32.7029 3.86333 32.4629 4.09C32.2295 4.31667 32.0829 4.64667 32.0229 5.08H34.7229C34.6695 4.66 34.5262 4.33333 34.2929 4.1C34.0662 3.86667 33.7695 3.75 33.4029 3.75ZM44.9454 0.75V8H44.0054L43.9454 7.11C43.7987 7.41 43.5754 7.65 43.2754 7.83C42.982 8.01 42.6454 8.1 42.2654 8.1C41.5787 8.1 41.0354 7.87333 40.6354 7.42C40.242 6.96 40.0454 6.32333 40.0454 5.51C40.0454 4.69667 40.242 4.06 40.6354 3.6C41.0354 3.13333 41.5787 2.9 42.2654 2.9C42.632 2.9 42.9554 2.98333 43.2354 3.15C43.5154 3.31 43.7287 3.53 43.8754 3.81V0.75H44.9454ZM42.5054 7.24C42.9254 7.24 43.2587 7.09 43.5054 6.79C43.752 6.49 43.8754 6.08 43.8754 5.56V5.44C43.8754 4.92 43.752 4.51333 43.5054 4.22C43.2587 3.92 42.9254 3.77 42.5054 3.77C42.072 3.77 41.732 3.92333 41.4854 4.23C41.2454 4.53 41.1254 4.95333 41.1254 5.5C41.1254 6.04667 41.2454 6.47333 41.4854 6.78C41.732 7.08667 42.072 7.24 42.5054 7.24ZM47.1444 2.16C46.9177 2.16 46.7411 2.10333 46.6144 1.99C46.4877 1.87 46.4244 1.70333 46.4244 1.49C46.4244 1.27667 46.4877 1.11333 46.6144 1C46.7411 0.886666 46.9177 0.83 47.1444 0.83C47.3711 0.83 47.5444 0.886666 47.6644 1C47.7911 1.11333 47.8544 1.27667 47.8544 1.49C47.8544 1.70333 47.7911 1.87 47.6644 1.99C47.5444 2.10333 47.3711 2.16 47.1444 2.16ZM47.6744 8H46.6044V3H47.6744V8ZM50.7686 3H52.3886V3.84H50.7986V8H49.7286V3.84H48.7886V3H49.7286V2.28C49.7286 1.77333 49.8819 1.38 50.1886 1.1C50.4952 0.819999 50.9252 0.679999 51.4786 0.679999C51.6786 0.679999 51.8619 0.703333 52.0286 0.75C52.1952 0.79 52.3252 0.846666 52.4186 0.92L52.2186 1.7C52.0652 1.6 51.8752 1.55 51.6486 1.55C51.0619 1.55 50.7686 1.82 50.7686 2.36V3ZM54.167 3H55.787V3.84H54.197V8H53.127V3.84H52.187V3H53.127V2.28C53.127 1.77333 53.2803 1.38 53.587 1.1C53.8937 0.819999 54.3237 0.679999 54.877 0.679999C55.077 0.679999 55.2603 0.703333 55.427 0.75C55.5937 0.79 55.7237 0.846666 55.817 0.92L55.617 1.7C55.4637 1.6 55.2737 1.55 55.047 1.55C54.4603 1.55 54.167 1.82 54.167 2.36V3ZM61.1135 5.35C61.1135 5.54333 61.1001 5.72667 61.0735 5.9H57.4135C57.4735 6.34 57.6301 6.67667 57.8835 6.91C58.1368 7.13667 58.4635 7.25 58.8635 7.25C59.1901 7.25 59.4601 7.19333 59.6735 7.08C59.8935 6.96 60.0435 6.79 60.1235 6.57L61.0135 6.94C60.6401 7.71333 59.9235 8.1 58.8635 8.1C58.0768 8.1 57.4601 7.87 57.0135 7.41C56.5735 6.95 56.3535 6.31333 56.3535 5.5C56.3535 4.68 56.5668 4.04333 56.9935 3.59C57.4201 3.13 58.0201 2.9 58.7935 2.9C59.5268 2.9 60.0968 3.12333 60.5035 3.57C60.9101 4.01667 61.1135 4.61 61.1135 5.35ZM58.7935 3.75C58.4068 3.75 58.0935 3.86333 57.8535 4.09C57.6201 4.31667 57.4735 4.64667 57.4135 5.08H60.1135C60.0601 4.66 59.9168 4.33333 59.6835 4.1C59.4568 3.86667 59.1601 3.75 58.7935 3.75ZM65.034 2.9C65.2674 2.9 65.4507 2.93333 65.584 3L65.414 3.98C65.2607 3.89333 65.0507 3.85 64.784 3.85C64.5707 3.85 64.3674 3.90667 64.174 4.02C63.9874 4.13333 63.8307 4.30333 63.704 4.53C63.584 4.75667 63.524 5.03 63.524 5.35V8H62.454V3H63.364L63.454 3.9C63.734 3.23333 64.2607 2.9 65.034 2.9ZM70.9377 5.35C70.9377 5.54333 70.9244 5.72667 70.8977 5.9H67.2377C67.2977 6.34 67.4544 6.67667 67.7077 6.91C67.961 7.13667 68.2877 7.25 68.6877 7.25C69.0144 7.25 69.2844 7.19333 69.4977 7.08C69.7177 6.96 69.8677 6.79 69.9477 6.57L70.8377 6.94C70.4644 7.71333 69.7477 8.1 68.6877 8.1C67.901 8.1 67.2844 7.87 66.8377 7.41C66.3977 6.95 66.1777 6.31333 66.1777 5.5C66.1777 4.68 66.391 4.04333 66.8177 3.59C67.2444 3.13 67.8444 2.9 68.6177 2.9C69.351 2.9 69.921 3.12333 70.3277 3.57C70.7344 4.01667 70.9377 4.61 70.9377 5.35ZM68.6177 3.75C68.231 3.75 67.9177 3.86333 67.6777 4.09C67.4444 4.31667 67.2977 4.64667 67.2377 5.08H69.9377C69.8844 4.66 69.741 4.33333 69.5077 4.1C69.281 3.86667 68.9844 3.75 68.6177 3.75ZM74.9682 2.9C75.5216 2.9 75.9716 3.06 76.3182 3.38C76.6716 3.7 76.8482 4.16 76.8482 4.76V8H75.7782V5.1C75.7782 4.22 75.4216 3.78 74.7082 3.78C74.3349 3.78 74.0149 3.91 73.7482 4.17C73.4816 4.42333 73.3482 4.81667 73.3482 5.35V8H72.2782V3H73.2282L73.2782 3.83C73.4449 3.51667 73.6749 3.28333 73.9682 3.13C74.2616 2.97667 74.5949 2.9 74.9682 2.9ZM81.6511 7.67C81.4911 7.80333 81.2944 7.91 81.0611 7.99C80.8344 8.06333 80.5877 8.1 80.3211 8.1C79.8611 8.1 79.4911 7.98667 79.2111 7.76C78.9377 7.52667 78.7977 7.16667 78.7911 6.68V3.84H77.8411V3H78.7911V1.83L79.8611 1.53V3H81.6111V3.84H79.8611V6.5C79.8611 6.74 79.9244 6.92 80.0511 7.04C80.1844 7.15333 80.3644 7.21 80.5911 7.21C80.8977 7.21 81.1677 7.10333 81.4011 6.89L81.6511 7.67ZM88.8113 7.22C89.318 7.22 89.7113 7.33333 89.9913 7.56C90.2713 7.78667 90.4113 8.1 90.4113 8.5C90.4113 8.84 90.298 9.13333 90.0713 9.38C89.8513 9.62667 89.5446 9.81667 89.1513 9.95C88.7646 10.0833 88.328 10.15 87.8413 10.15C87.048 10.15 86.4513 10.0333 86.0513 9.8C85.658 9.56667 85.4613 9.25667 85.4613 8.87C85.4613 8.64333 85.538 8.44333 85.6913 8.27C85.8513 8.10333 86.0713 7.98333 86.3513 7.91C86.138 7.81 85.968 7.68333 85.8413 7.53C85.7146 7.37 85.6513 7.18 85.6513 6.96C85.6513 6.47333 85.9113 6.14 86.4313 5.96C86.178 5.81333 85.9846 5.62333 85.8513 5.39C85.7246 5.15667 85.6613 4.89 85.6613 4.59C85.6613 4.25667 85.7513 3.96333 85.9313 3.71C86.1113 3.45 86.3646 3.25 86.6913 3.11C87.0246 2.97 87.4046 2.9 87.8313 2.9C88.198 2.9 88.5346 2.95333 88.8413 3.06C88.9346 2.69333 89.1013 2.41667 89.3413 2.23C89.588 2.03667 89.9113 1.94333 90.3113 1.95L90.4913 2.78C90.1713 2.77333 89.9113 2.81333 89.7113 2.9C89.518 2.98667 89.3846 3.11667 89.3113 3.29C89.5313 3.44333 89.7013 3.63 89.8213 3.85C89.9413 4.07 90.0013 4.31667 90.0013 4.59C90.0013 5.10333 89.8013 5.51333 89.4013 5.82C89.008 6.12667 88.4846 6.28 87.8313 6.28C87.5246 6.28 87.248 6.25 87.0013 6.19C86.8346 6.23 86.7113 6.29667 86.6313 6.39C86.558 6.47667 86.5213 6.59333 86.5213 6.74C86.5213 6.89333 86.5746 7.01333 86.6813 7.1C86.7946 7.18 86.948 7.22 87.1413 7.22H88.8113ZM87.8313 3.65C87.5246 3.65 87.268 3.74 87.0613 3.92C86.8546 4.09333 86.7513 4.31667 86.7513 4.59C86.7513 4.87 86.8546 5.1 87.0613 5.28C87.268 5.45333 87.5246 5.54 87.8313 5.54C88.1446 5.54 88.4013 5.45333 88.6013 5.28C88.808 5.1 88.9113 4.87 88.9113 4.59C88.9113 4.31 88.808 4.08333 88.6013 3.91C88.4013 3.73667 88.1446 3.65 87.8313 3.65ZM87.9413 9.35C88.428 9.35 88.808 9.28 89.0813 9.14C89.3546 9 89.4913 8.82667 89.4913 8.62C89.4913 8.45333 89.4246 8.32667 89.2913 8.24C89.158 8.15333 88.9346 8.11 88.6213 8.11H87.2713C86.9713 8.11 86.7446 8.15667 86.5913 8.25C86.4446 8.34333 86.3713 8.47333 86.3713 8.64C86.3713 8.86667 86.5013 9.04 86.7613 9.16C87.028 9.28667 87.4213 9.35 87.9413 9.35ZM94.0184 2.9C94.2517 2.9 94.4351 2.93333 94.5684 3L94.3984 3.98C94.2451 3.89333 94.0351 3.85 93.7684 3.85C93.5551 3.85 93.3517 3.90667 93.1584 4.02C92.9717 4.13333 92.8151 4.30333 92.6884 4.53C92.5684 4.75667 92.5084 5.03 92.5084 5.35V8H91.4384V3H92.3484L92.4384 3.9C92.7184 3.23333 93.2451 2.9 94.0184 2.9ZM97.6521 2.9C98.4321 2.9 99.0421 3.13 99.4821 3.59C99.9221 4.05 100.142 4.68667 100.142 5.5C100.142 6.31333 99.9221 6.95 99.4821 7.41C99.0421 7.87 98.4321 8.1 97.6521 8.1C96.8721 8.1 96.2621 7.87 95.8221 7.41C95.3821 6.95 95.1621 6.31333 95.1621 5.5C95.1621 4.68667 95.3821 4.05 95.8221 3.59C96.2621 3.13 96.8721 2.9 97.6521 2.9ZM97.6521 3.74C97.1987 3.74 96.8487 3.89333 96.6021 4.2C96.3621 4.5 96.2421 4.93333 96.2421 5.5C96.2421 6.06667 96.3621 6.50333 96.6021 6.81C96.8487 7.11 97.1987 7.26 97.6521 7.26C98.1054 7.26 98.4554 7.10667 98.7021 6.8C98.9487 6.49333 99.0721 6.06 99.0721 5.5C99.0721 4.94 98.9487 4.50667 98.7021 4.2C98.4554 3.89333 98.1054 3.74 97.6521 3.74ZM106.047 3V8H105.097L105.057 7.19C104.717 7.79667 104.123 8.1 103.277 8.1C102.737 8.1 102.3 7.95333 101.967 7.66C101.64 7.36 101.477 6.90333 101.477 6.29V3H102.547V6.01C102.547 6.45 102.633 6.76333 102.807 6.95C102.98 7.13 103.237 7.22 103.577 7.22C103.983 7.22 104.317 7.09333 104.577 6.84C104.843 6.58 104.977 6.2 104.977 5.7V3H106.047ZM110.398 2.9C111.085 2.9 111.625 3.13 112.018 3.59C112.411 4.04333 112.608 4.67667 112.608 5.49C112.608 6.30333 112.411 6.94333 112.018 7.41C111.625 7.87 111.085 8.1 110.398 8.1C110.038 8.1 109.715 8.02 109.428 7.86C109.148 7.7 108.931 7.48 108.778 7.2V10.1H107.708V3H108.648L108.698 3.93C108.845 3.61667 109.065 3.36667 109.358 3.18C109.658 2.99333 110.005 2.9 110.398 2.9ZM110.158 7.23C110.591 7.23 110.928 7.08 111.168 6.78C111.415 6.47333 111.538 6.04667 111.538 5.5C111.538 4.95333 111.415 4.52667 111.168 4.22C110.928 3.91333 110.591 3.76 110.158 3.76C109.751 3.76 109.425 3.89667 109.178 4.17C108.938 4.44333 108.805 4.82333 108.778 5.31V5.69C108.805 6.17 108.938 6.54667 109.178 6.82C109.425 7.09333 109.751 7.23 110.158 7.23ZM115.807 8.1C115.3 8.1 114.85 8.01333 114.457 7.84C114.07 7.66667 113.777 7.40333 113.577 7.05L114.297 6.43C114.424 6.71667 114.62 6.92667 114.887 7.06C115.154 7.19333 115.474 7.26 115.847 7.26C116.187 7.26 116.45 7.20667 116.637 7.1C116.824 6.98667 116.917 6.84 116.917 6.66C116.917 6.5 116.83 6.37333 116.657 6.28C116.484 6.18 116.184 6.08667 115.757 6C115.017 5.86 114.497 5.67333 114.197 5.44C113.897 5.20667 113.747 4.87667 113.747 4.45C113.747 4.17667 113.83 3.92333 113.997 3.69C114.164 3.45 114.404 3.26 114.717 3.12C115.037 2.97333 115.414 2.9 115.847 2.9C116.4 2.9 116.844 2.99333 117.177 3.18C117.51 3.36 117.767 3.64333 117.947 4.03L117.187 4.59C117.067 4.29667 116.897 4.08333 116.677 3.95C116.464 3.81 116.19 3.74 115.857 3.74C115.557 3.74 115.307 3.80333 115.107 3.93C114.914 4.05 114.817 4.19 114.817 4.35C114.817 4.53 114.904 4.67333 115.077 4.78C115.257 4.88667 115.58 4.98333 116.047 5.07C116.754 5.19667 117.254 5.37667 117.547 5.61C117.84 5.84333 117.987 6.17 117.987 6.59C117.987 7.03667 117.794 7.4 117.407 7.68C117.02 7.96 116.487 8.1 115.807 8.1ZM123.082 2.16C122.855 2.16 122.679 2.10333 122.552 1.99C122.425 1.87 122.362 1.70333 122.362 1.49C122.362 1.27667 122.425 1.11333 122.552 1C122.679 0.886666 122.855 0.83 123.082 0.83C123.309 0.83 123.482 0.886666 123.602 1C123.729 1.11333 123.792 1.27667 123.792 1.49C123.792 1.70333 123.729 1.87 123.602 1.99C123.482 2.10333 123.309 2.16 123.082 2.16ZM123.612 8H122.542V3H123.612V8ZM126.706 3H128.326V3.84H126.736V8H125.666V3.84H124.726V3H125.666V2.28C125.666 1.77333 125.819 1.38 126.126 1.1C126.433 0.819999 126.863 0.679999 127.416 0.679999C127.616 0.679999 127.799 0.703333 127.966 0.75C128.133 0.79 128.263 0.846666 128.356 0.92L128.156 1.7C128.003 1.6 127.813 1.55 127.586 1.55C126.999 1.55 126.706 1.82 126.706 2.36V3ZM134.305 8.59C134.085 9.16333 133.835 9.56667 133.555 9.8C133.275 10.0333 132.908 10.15 132.455 10.15C132.195 10.15 131.968 10.1167 131.775 10.05C131.588 9.99 131.422 9.89 131.275 9.75L131.585 8.93C131.785 9.17 132.058 9.29 132.405 9.29C132.605 9.29 132.772 9.23667 132.905 9.13C133.045 9.03 133.168 8.84333 133.275 8.57L133.495 8.03L132.975 6.79L131.415 3H132.615L133.715 6.14L134.005 7.08L134.345 6.05L135.385 3H136.495L134.305 8.59ZM139.625 2.9C140.405 2.9 141.015 3.13 141.455 3.59C141.895 4.05 142.115 4.68667 142.115 5.5C142.115 6.31333 141.895 6.95 141.455 7.41C141.015 7.87 140.405 8.1 139.625 8.1C138.845 8.1 138.235 7.87 137.795 7.41C137.355 6.95 137.135 6.31333 137.135 5.5C137.135 4.68667 137.355 4.05 137.795 3.59C138.235 3.13 138.845 2.9 139.625 2.9ZM139.625 3.74C139.171 3.74 138.821 3.89333 138.575 4.2C138.335 4.5 138.215 4.93333 138.215 5.5C138.215 6.06667 138.335 6.50333 138.575 6.81C138.821 7.11 139.171 7.26 139.625 7.26C140.078 7.26 140.428 7.10667 140.675 6.8C140.921 6.49333 141.045 6.06 141.045 5.5C141.045 4.94 140.921 4.50667 140.675 4.2C140.428 3.89333 140.078 3.74 139.625 3.74ZM148.019 3V8H147.069L147.029 7.19C146.689 7.79667 146.096 8.1 145.249 8.1C144.709 8.1 144.273 7.95333 143.939 7.66C143.613 7.36 143.449 6.90333 143.449 6.29V3H144.519V6.01C144.519 6.45 144.606 6.76333 144.779 6.95C144.953 7.13 145.209 7.22 145.549 7.22C145.956 7.22 146.289 7.09333 146.549 6.84C146.816 6.58 146.949 6.2 146.949 5.7V3H148.019ZM155.623 2.9C156.176 2.9 156.626 3.06 156.973 3.38C157.326 3.7 157.503 4.16 157.503 4.76V8H156.433V5.1C156.433 4.22 156.076 3.78 155.363 3.78C154.989 3.78 154.669 3.91 154.403 4.17C154.136 4.43 154.003 4.82667 154.003 5.36V8H152.933V0.75H154.003V3.8C154.169 3.49333 154.389 3.26667 154.663 3.12C154.943 2.97333 155.263 2.9 155.623 2.9ZM163.444 7.3C163.591 7.3 163.714 7.28667 163.814 7.26L163.744 7.98C163.564 8.06 163.357 8.1 163.124 8.1C162.837 8.1 162.607 8.04333 162.434 7.93C162.267 7.81667 162.157 7.62667 162.104 7.36C161.951 7.59333 161.724 7.77667 161.424 7.91C161.124 8.03667 160.787 8.1 160.414 8.1C159.927 8.1 159.534 7.98667 159.234 7.76C158.934 7.53333 158.784 7.21 158.784 6.79C158.784 6.39667 158.947 6.06667 159.274 5.8C159.601 5.52667 160.087 5.33333 160.734 5.22L162.004 5V4.73C162.004 4.42333 161.914 4.18333 161.734 4.01C161.554 3.83 161.304 3.74 160.984 3.74C160.324 3.74 159.894 4.04 159.694 4.64L158.864 4.2C158.984 3.8 159.227 3.48333 159.594 3.25C159.967 3.01667 160.424 2.9 160.964 2.9C161.611 2.9 162.124 3.05 162.504 3.35C162.884 3.65 163.074 4.09 163.074 4.67V6.93C163.074 7.05667 163.101 7.15 163.154 7.21C163.214 7.27 163.311 7.3 163.444 7.3ZM160.644 7.29C161.004 7.29 161.321 7.20333 161.594 7.03C161.867 6.85667 162.004 6.62667 162.004 6.34V5.74L160.914 5.96C160.567 6.02667 160.311 6.12 160.144 6.24C159.977 6.36 159.894 6.52 159.894 6.72C159.894 6.90667 159.957 7.05 160.084 7.15C160.217 7.24333 160.404 7.29 160.644 7.29ZM169.061 3L167.071 8H165.901L163.901 3H165.081L166.491 7.13L167.941 3H169.061ZM174.414 5.35C174.414 5.54333 174.401 5.72667 174.374 5.9H170.714C170.774 6.34 170.931 6.67667 171.184 6.91C171.438 7.13667 171.764 7.25 172.164 7.25C172.491 7.25 172.761 7.19333 172.974 7.08C173.194 6.96 173.344 6.79 173.424 6.57L174.314 6.94C173.941 7.71333 173.224 8.1 172.164 8.1C171.378 8.1 170.761 7.87 170.314 7.41C169.874 6.95 169.654 6.31333 169.654 5.5C169.654 4.68 169.868 4.04333 170.294 3.59C170.721 3.13 171.321 2.9 172.094 2.9C172.828 2.9 173.398 3.12333 173.804 3.57C174.211 4.01667 174.414 4.61 174.414 5.35ZM172.094 3.75C171.708 3.75 171.394 3.86333 171.154 4.09C170.921 4.31667 170.774 4.64667 170.714 5.08H173.414C173.361 4.66 173.218 4.33333 172.984 4.1C172.758 3.86667 172.461 3.75 172.094 3.75ZM185.037 2.9C185.37 2.9 185.677 2.97 185.957 3.11C186.237 3.24333 186.46 3.45 186.627 3.73C186.793 4.01 186.877 4.35333 186.877 4.76V8H185.807V4.93C185.807 4.53667 185.713 4.24667 185.527 4.06C185.34 3.87333 185.09 3.78 184.777 3.78C184.41 3.78 184.1 3.91333 183.847 4.18C183.6 4.44667 183.477 4.81333 183.477 5.28V8H182.407V4.93C182.407 4.53667 182.313 4.24667 182.127 4.06C181.94 3.87333 181.69 3.78 181.377 3.78C181.163 3.78 180.957 3.83667 180.757 3.95C180.557 4.05667 180.393 4.22667 180.267 4.46C180.14 4.69333 180.077 4.98667 180.077 5.34V8H179.007V3H179.957L180.007 3.83C180.173 3.52333 180.4 3.29333 180.687 3.14C180.973 2.98 181.287 2.9 181.627 2.9C182 2.9 182.337 2.98667 182.637 3.16C182.943 3.32667 183.17 3.57333 183.317 3.9C183.47 3.57333 183.703 3.32667 184.017 3.16C184.337 2.98667 184.677 2.9 185.037 2.9ZM190.699 2.9C191.479 2.9 192.089 3.13 192.529 3.59C192.969 4.05 193.189 4.68667 193.189 5.5C193.189 6.31333 192.969 6.95 192.529 7.41C192.089 7.87 191.479 8.1 190.699 8.1C189.919 8.1 189.309 7.87 188.869 7.41C188.429 6.95 188.209 6.31333 188.209 5.5C188.209 4.68667 188.429 4.05 188.869 3.59C189.309 3.13 189.919 2.9 190.699 2.9ZM190.699 3.74C190.246 3.74 189.896 3.89333 189.649 4.2C189.409 4.5 189.289 4.93333 189.289 5.5C189.289 6.06667 189.409 6.50333 189.649 6.81C189.896 7.11 190.246 7.26 190.699 7.26C191.152 7.26 191.502 7.10667 191.749 6.8C191.996 6.49333 192.119 6.06 192.119 5.5C192.119 4.94 191.996 4.50667 191.749 4.2C191.502 3.89333 191.152 3.74 190.699 3.74ZM197.143 2.9C197.377 2.9 197.56 2.93333 197.693 3L197.523 3.98C197.37 3.89333 197.16 3.85 196.893 3.85C196.68 3.85 196.477 3.90667 196.283 4.02C196.097 4.13333 195.94 4.30333 195.813 4.53C195.693 4.75667 195.633 5.03 195.633 5.35V8H194.563V3H195.473L195.563 3.9C195.843 3.23333 196.37 2.9 197.143 2.9ZM203.047 5.35C203.047 5.54333 203.034 5.72667 203.007 5.9H199.347C199.407 6.34 199.564 6.67667 199.817 6.91C200.07 7.13667 200.397 7.25 200.797 7.25C201.124 7.25 201.394 7.19333 201.607 7.08C201.827 6.96 201.977 6.79 202.057 6.57L202.947 6.94C202.574 7.71333 201.857 8.1 200.797 8.1C200.01 8.1 199.394 7.87 198.947 7.41C198.507 6.95 198.287 6.31333 198.287 5.5C198.287 4.68 198.5 4.04333 198.927 3.59C199.354 3.13 199.954 2.9 200.727 2.9C201.46 2.9 202.03 3.12333 202.437 3.57C202.844 4.01667 203.047 4.61 203.047 5.35ZM200.727 3.75C200.34 3.75 200.027 3.86333 199.787 4.09C199.554 4.31667 199.407 4.64667 199.347 5.08H202.047C201.994 4.66 201.85 4.33333 201.617 4.1C201.39 3.86667 201.094 3.75 200.727 3.75ZM210.723 7.67C210.563 7.80333 210.367 7.91 210.133 7.99C209.907 8.06333 209.66 8.1 209.393 8.1C208.933 8.1 208.563 7.98667 208.283 7.76C208.01 7.52667 207.87 7.16667 207.863 6.68V3.84H206.913V3H207.863V1.83L208.933 1.53V3H210.683V3.84H208.933V6.5C208.933 6.74 208.997 6.92 209.123 7.04C209.257 7.15333 209.437 7.21 209.663 7.21C209.97 7.21 210.24 7.10333 210.473 6.89L210.723 7.67ZM214.451 2.9C215.004 2.9 215.454 3.06 215.801 3.38C216.154 3.7 216.331 4.16 216.331 4.76V8H215.261V5.1C215.261 4.22 214.904 3.78 214.191 3.78C213.817 3.78 213.497 3.91 213.231 4.17C212.964 4.43 212.831 4.82667 212.831 5.36V8H211.761V0.75H212.831V3.8C212.997 3.49333 213.217 3.26667 213.491 3.12C213.771 2.97333 214.091 2.9 214.451 2.9ZM222.272 7.3C222.419 7.3 222.542 7.28667 222.642 7.26L222.572 7.98C222.392 8.06 222.185 8.1 221.952 8.1C221.665 8.1 221.435 8.04333 221.262 7.93C221.095 7.81667 220.985 7.62667 220.932 7.36C220.779 7.59333 220.552 7.77667 220.252 7.91C219.952 8.03667 219.615 8.1 219.242 8.1C218.755 8.1 218.362 7.98667 218.062 7.76C217.762 7.53333 217.612 7.21 217.612 6.79C217.612 6.39667 217.775 6.06667 218.102 5.8C218.429 5.52667 218.915 5.33333 219.562 5.22L220.832 5V4.73C220.832 4.42333 220.742 4.18333 220.562 4.01C220.382 3.83 220.132 3.74 219.812 3.74C219.152 3.74 218.722 4.04 218.522 4.64L217.692 4.2C217.812 3.8 218.055 3.48333 218.422 3.25C218.795 3.01667 219.252 2.9 219.792 2.9C220.439 2.9 220.952 3.05 221.332 3.35C221.712 3.65 221.902 4.09 221.902 4.67V6.93C221.902 7.05667 221.929 7.15 221.982 7.21C222.042 7.27 222.139 7.3 222.272 7.3ZM219.472 7.29C219.832 7.29 220.149 7.20333 220.422 7.03C220.695 6.85667 220.832 6.62667 220.832 6.34V5.74L219.742 5.96C219.395 6.02667 219.139 6.12 218.972 6.24C218.805 6.36 218.722 6.52 218.722 6.72C218.722 6.90667 218.785 7.05 218.912 7.15C219.045 7.24333 219.232 7.29 219.472 7.29ZM226.345 2.9C226.899 2.9 227.349 3.06 227.695 3.38C228.049 3.7 228.225 4.16 228.225 4.76V8H227.155V5.1C227.155 4.22 226.799 3.78 226.085 3.78C225.712 3.78 225.392 3.91 225.125 4.17C224.859 4.42333 224.725 4.81667 224.725 5.35V8H223.655V3H224.605L224.655 3.83C224.822 3.51667 225.052 3.28333 225.345 3.13C225.639 2.97667 225.972 2.9 226.345 2.9ZM41.2898 14.9C42.0698 14.9 42.6798 15.13 43.1198 15.59C43.5598 16.05 43.7798 16.6867 43.7798 17.5C43.7798 18.3133 43.5598 18.95 43.1198 19.41C42.6798 19.87 42.0698 20.1 41.2898 20.1C40.5098 20.1 39.8998 19.87 39.4598 19.41C39.0198 18.95 38.7998 18.3133 38.7998 17.5C38.7998 16.6867 39.0198 16.05 39.4598 15.59C39.8998 15.13 40.5098 14.9 41.2898 14.9ZM41.2898 15.74C40.8364 15.74 40.4864 15.8933 40.2398 16.2C39.9998 16.5 39.8798 16.9333 39.8798 17.5C39.8798 18.0667 39.9998 18.5033 40.2398 18.81C40.4864 19.11 40.8364 19.26 41.2898 19.26C41.7431 19.26 42.0931 19.1067 42.3398 18.8C42.5864 18.4933 42.7098 18.06 42.7098 17.5C42.7098 16.94 42.5864 16.5067 42.3398 16.2C42.0931 15.8933 41.7431 15.74 41.2898 15.74ZM47.8442 14.9C48.3976 14.9 48.8476 15.06 49.1942 15.38C49.5476 15.7 49.7242 16.16 49.7242 16.76V20H48.6542V17.1C48.6542 16.22 48.2976 15.78 47.5842 15.78C47.2109 15.78 46.8909 15.91 46.6242 16.17C46.3576 16.4233 46.2242 16.8167 46.2242 17.35V20H45.1542V15H46.1042L46.1542 15.83C46.3209 15.5167 46.5509 15.2833 46.8442 15.13C47.1376 14.9767 47.4709 14.9 47.8442 14.9ZM55.8156 17.35C55.8156 17.5433 55.8023 17.7267 55.7756 17.9H52.1156C52.1756 18.34 52.3323 18.6767 52.5856 18.91C52.839 19.1367 53.1656 19.25 53.5656 19.25C53.8923 19.25 54.1623 19.1933 54.3756 19.08C54.5956 18.96 54.7456 18.79 54.8256 18.57L55.7156 18.94C55.3423 19.7133 54.6256 20.1 53.5656 20.1C52.779 20.1 52.1623 19.87 51.7156 19.41C51.2756 18.95 51.0556 18.3133 51.0556 17.5C51.0556 16.68 51.269 16.0433 51.6956 15.59C52.1223 15.13 52.7223 14.9 53.4956 14.9C54.229 14.9 54.799 15.1233 55.2056 15.57C55.6123 16.0167 55.8156 16.61 55.8156 17.35ZM53.4956 15.75C53.109 15.75 52.7956 15.8633 52.5556 16.09C52.3223 16.3167 52.1756 16.6467 52.1156 17.08H54.8156C54.7623 16.66 54.619 16.3333 54.3856 16.1C54.159 15.8667 53.8623 15.75 53.4956 15.75ZM62.5033 20.59C62.2833 21.1633 62.0333 21.5667 61.7533 21.8C61.4733 22.0333 61.1066 22.15 60.6533 22.15C60.3933 22.15 60.1666 22.1167 59.9733 22.05C59.7866 21.99 59.6199 21.89 59.4733 21.75L59.7833 20.93C59.9833 21.17 60.2566 21.29 60.6033 21.29C60.8033 21.29 60.9699 21.2367 61.1033 21.13C61.2433 21.03 61.3666 20.8433 61.4733 20.57L61.6933 20.03L61.1733 18.79L59.6133 15H60.8133L61.9133 18.14L62.2033 19.08L62.5433 18.05L63.5833 15H64.6933L62.5033 20.59ZM67.823 14.9C68.603 14.9 69.213 15.13 69.653 15.59C70.093 16.05 70.313 16.6867 70.313 17.5C70.313 18.3133 70.093 18.95 69.653 19.41C69.213 19.87 68.603 20.1 67.823 20.1C67.043 20.1 66.433 19.87 65.993 19.41C65.553 18.95 65.333 18.3133 65.333 17.5C65.333 16.6867 65.553 16.05 65.993 15.59C66.433 15.13 67.043 14.9 67.823 14.9ZM67.823 15.74C67.3696 15.74 67.0196 15.8933 66.773 16.2C66.533 16.5 66.413 16.9333 66.413 17.5C66.413 18.0667 66.533 18.5033 66.773 18.81C67.0196 19.11 67.3696 19.26 67.823 19.26C68.2763 19.26 68.6263 19.1067 68.873 18.8C69.1196 18.4933 69.243 18.06 69.243 17.5C69.243 16.94 69.1196 16.5067 68.873 16.2C68.6263 15.8933 68.2763 15.74 67.823 15.74ZM76.2174 15V20H75.2674L75.2274 19.19C74.8874 19.7967 74.2941 20.1 73.4474 20.1C72.9074 20.1 72.4708 19.9533 72.1374 19.66C71.8108 19.36 71.6474 18.9033 71.6474 18.29V15H72.7174V18.01C72.7174 18.45 72.8041 18.7633 72.9774 18.95C73.1508 19.13 73.4074 19.22 73.7474 19.22C74.1541 19.22 74.4874 19.0933 74.7474 18.84C75.0141 18.58 75.1474 18.2 75.1474 17.7V15H76.2174ZM88.5062 15L86.8362 20H85.6662L84.4062 16.22L83.2062 20H82.0362L80.3662 15H81.5262L82.6562 19L83.9062 15H84.9662L86.2062 19L87.3462 15H88.5062ZM93.8395 19.3C93.9861 19.3 94.1095 19.2867 94.2095 19.26L94.1395 19.98C93.9595 20.06 93.7528 20.1 93.5195 20.1C93.2328 20.1 93.0028 20.0433 92.8295 19.93C92.6628 19.8167 92.5528 19.6267 92.4995 19.36C92.3461 19.5933 92.1195 19.7767 91.8195 19.91C91.5195 20.0367 91.1828 20.1 90.8095 20.1C90.3228 20.1 89.9295 19.9867 89.6295 19.76C89.3295 19.5333 89.1795 19.21 89.1795 18.79C89.1795 18.3967 89.3428 18.0667 89.6695 17.8C89.9961 17.5267 90.4828 17.3333 91.1295 17.22L92.3995 17V16.73C92.3995 16.4233 92.3095 16.1833 92.1295 16.01C91.9495 15.83 91.6995 15.74 91.3795 15.74C90.7195 15.74 90.2895 16.04 90.0895 16.64L89.2595 16.2C89.3795 15.8 89.6228 15.4833 89.9895 15.25C90.3628 15.0167 90.8195 14.9 91.3595 14.9C92.0061 14.9 92.5195 15.05 92.8995 15.35C93.2795 15.65 93.4695 16.09 93.4695 16.67V18.93C93.4695 19.0567 93.4961 19.15 93.5495 19.21C93.6095 19.27 93.7061 19.3 93.8395 19.3ZM91.0395 19.29C91.3995 19.29 91.7161 19.2033 91.9895 19.03C92.2628 18.8567 92.3995 18.6267 92.3995 18.34V17.74L91.3095 17.96C90.9628 18.0267 90.7061 18.12 90.5395 18.24C90.3728 18.36 90.2895 18.52 90.2895 18.72C90.2895 18.9067 90.3528 19.05 90.4795 19.15C90.6128 19.2433 90.7995 19.29 91.0395 19.29ZM97.9126 14.9C98.4659 14.9 98.9159 15.06 99.2626 15.38C99.6159 15.7 99.7926 16.16 99.7926 16.76V20H98.7226V17.1C98.7226 16.22 98.3659 15.78 97.6526 15.78C97.2792 15.78 96.9592 15.91 96.6926 16.17C96.4259 16.4233 96.2926 16.8167 96.2926 17.35V20H95.2226V15H96.1726L96.2226 15.83C96.3892 15.5167 96.6192 15.2833 96.9126 15.13C97.2059 14.9767 97.5392 14.9 97.9126 14.9ZM104.595 19.67C104.435 19.8033 104.239 19.91 104.005 19.99C103.779 20.0633 103.532 20.1 103.265 20.1C102.805 20.1 102.435 19.9867 102.155 19.76C101.882 19.5267 101.742 19.1667 101.735 18.68V15.84H100.785V15H101.735V13.83L102.805 13.53V15H104.555V15.84H102.805V18.5C102.805 18.74 102.869 18.92 102.995 19.04C103.129 19.1533 103.309 19.21 103.535 19.21C103.842 19.21 104.112 19.1033 104.345 18.89L104.595 19.67ZM111.929 19.67C111.769 19.8033 111.573 19.91 111.339 19.99C111.113 20.0633 110.866 20.1 110.599 20.1C110.139 20.1 109.769 19.9867 109.489 19.76C109.216 19.5267 109.076 19.1667 109.069 18.68V15.84H108.119V15H109.069V13.83L110.139 13.53V15H111.889V15.84H110.139V18.5C110.139 18.74 110.203 18.92 110.329 19.04C110.463 19.1533 110.643 19.21 110.869 19.21C111.176 19.21 111.446 19.1033 111.679 18.89L111.929 19.67ZM115.128 14.9C115.908 14.9 116.518 15.13 116.958 15.59C117.398 16.05 117.618 16.6867 117.618 17.5C117.618 18.3133 117.398 18.95 116.958 19.41C116.518 19.87 115.908 20.1 115.128 20.1C114.348 20.1 113.738 19.87 113.298 19.41C112.858 18.95 112.638 18.3133 112.638 17.5C112.638 16.6867 112.858 16.05 113.298 15.59C113.738 15.13 114.348 14.9 115.128 14.9ZM115.128 15.74C114.674 15.74 114.324 15.8933 114.078 16.2C113.838 16.5 113.718 16.9333 113.718 17.5C113.718 18.0667 113.838 18.5033 114.078 18.81C114.324 19.11 114.674 19.26 115.128 19.26C115.581 19.26 115.931 19.1067 116.178 18.8C116.424 18.4933 116.548 18.06 116.548 17.5C116.548 16.94 116.424 16.5067 116.178 16.2C115.931 15.8933 115.581 15.74 115.128 15.74ZM124.054 20.1C123.547 20.1 123.097 20.0133 122.704 19.84C122.317 19.6667 122.024 19.4033 121.824 19.05L122.544 18.43C122.671 18.7167 122.867 18.9267 123.134 19.06C123.401 19.1933 123.721 19.26 124.094 19.26C124.434 19.26 124.697 19.2067 124.884 19.1C125.071 18.9867 125.164 18.84 125.164 18.66C125.164 18.5 125.077 18.3733 124.904 18.28C124.731 18.18 124.431 18.0867 124.004 18C123.264 17.86 122.744 17.6733 122.444 17.44C122.144 17.2067 121.994 16.8767 121.994 16.45C121.994 16.1767 122.077 15.9233 122.244 15.69C122.411 15.45 122.651 15.26 122.964 15.12C123.284 14.9733 123.661 14.9 124.094 14.9C124.647 14.9 125.091 14.9933 125.424 15.18C125.757 15.36 126.014 15.6433 126.194 16.03L125.434 16.59C125.314 16.2967 125.144 16.0833 124.924 15.95C124.711 15.81 124.437 15.74 124.104 15.74C123.804 15.74 123.554 15.8033 123.354 15.93C123.161 16.05 123.064 16.19 123.064 16.35C123.064 16.53 123.151 16.6733 123.324 16.78C123.504 16.8867 123.827 16.9833 124.294 17.07C125.001 17.1967 125.501 17.3767 125.794 17.61C126.087 17.8433 126.234 18.17 126.234 18.59C126.234 19.0367 126.041 19.4 125.654 19.68C125.267 19.96 124.734 20.1 124.054 20.1ZM130.227 14.9C130.78 14.9 131.23 15.06 131.577 15.38C131.93 15.7 132.107 16.16 132.107 16.76V20H131.037V17.1C131.037 16.22 130.68 15.78 129.967 15.78C129.594 15.78 129.274 15.91 129.007 16.17C128.74 16.4233 128.607 16.8167 128.607 17.35V20H127.537V15H128.487L128.537 15.83C128.704 15.5167 128.934 15.2833 129.227 15.13C129.52 14.9767 129.854 14.9 130.227 14.9ZM135.882 20.59C135.662 21.1633 135.412 21.5667 135.132 21.8C134.852 22.0333 134.486 22.15 134.032 22.15C133.772 22.15 133.546 22.1167 133.352 22.05C133.166 21.99 132.999 21.89 132.852 21.75L133.162 20.93C133.362 21.17 133.636 21.29 133.982 21.29C134.182 21.29 134.349 21.2367 134.482 21.13C134.622 21.03 134.746 20.8433 134.852 20.57L135.072 20.03L134.552 18.79L132.992 15H134.192L135.292 18.14L135.582 19.08L135.922 18.05L136.962 15H138.072L135.882 20.59ZM141.202 14.9C142.295 14.9 143.019 15.3667 143.372 16.3L142.372 16.7C142.199 16.0667 141.809 15.75 141.202 15.75C140.755 15.75 140.409 15.9033 140.162 16.21C139.915 16.5167 139.792 16.95 139.792 17.51C139.792 18.07 139.915 18.5 140.162 18.8C140.409 19.1 140.755 19.25 141.202 19.25C141.542 19.25 141.815 19.1667 142.022 19C142.229 18.8333 142.365 18.5933 142.432 18.28L143.412 18.61C143.265 19.0767 143.005 19.4433 142.632 19.71C142.259 19.97 141.789 20.1 141.222 20.1C140.435 20.1 139.819 19.87 139.372 19.41C138.932 18.95 138.712 18.3133 138.712 17.5C138.712 16.6867 138.932 16.05 139.372 15.59C139.812 15.13 140.422 14.9 141.202 14.9ZM151.002 19.67C150.842 19.8033 150.645 19.91 150.412 19.99C150.185 20.0633 149.938 20.1 149.672 20.1C149.212 20.1 148.842 19.9867 148.562 19.76C148.288 19.5267 148.148 19.1667 148.142 18.68V15.84H147.192V15H148.142V13.83L149.212 13.53V15H150.962V15.84H149.212V18.5C149.212 18.74 149.275 18.92 149.402 19.04C149.535 19.1533 149.715 19.21 149.942 19.21C150.248 19.21 150.518 19.1033 150.752 18.89L151.002 19.67ZM154.2 14.9C154.98 14.9 155.59 15.13 156.03 15.59C156.47 16.05 156.69 16.6867 156.69 17.5C156.69 18.3133 156.47 18.95 156.03 19.41C155.59 19.87 154.98 20.1 154.2 20.1C153.42 20.1 152.81 19.87 152.37 19.41C151.93 18.95 151.71 18.3133 151.71 17.5C151.71 16.6867 151.93 16.05 152.37 15.59C152.81 15.13 153.42 14.9 154.2 14.9ZM154.2 15.74C153.747 15.74 153.397 15.8933 153.15 16.2C152.91 16.5 152.79 16.9333 152.79 17.5C152.79 18.0667 152.91 18.5033 153.15 18.81C153.397 19.11 153.747 19.26 154.2 19.26C154.653 19.26 155.003 19.1067 155.25 18.8C155.497 18.4933 155.62 18.06 155.62 17.5C155.62 16.94 155.497 16.5067 155.25 16.2C155.003 15.8933 154.653 15.74 154.2 15.74ZM160.955 19.22C161.462 19.22 161.855 19.3333 162.135 19.56C162.415 19.7867 162.555 20.1 162.555 20.5C162.555 20.84 162.442 21.1333 162.215 21.38C161.995 21.6267 161.688 21.8167 161.295 21.95C160.908 22.0833 160.472 22.15 159.985 22.15C159.192 22.15 158.595 22.0333 158.195 21.8C157.802 21.5667 157.605 21.2567 157.605 20.87C157.605 20.6433 157.682 20.4433 157.835 20.27C157.995 20.1033 158.215 19.9833 158.495 19.91C158.282 19.81 158.112 19.6833 157.985 19.53C157.858 19.37 157.795 19.18 157.795 18.96C157.795 18.4733 158.055 18.14 158.575 17.96C158.322 17.8133 158.128 17.6233 157.995 17.39C157.868 17.1567 157.805 16.89 157.805 16.59C157.805 16.2567 157.895 15.9633 158.075 15.71C158.255 15.45 158.508 15.25 158.835 15.11C159.168 14.97 159.548 14.9 159.975 14.9C160.342 14.9 160.678 14.9533 160.985 15.06C161.078 14.6933 161.245 14.4167 161.485 14.23C161.732 14.0367 162.055 13.9433 162.455 13.95L162.635 14.78C162.315 14.7733 162.055 14.8133 161.855 14.9C161.662 14.9867 161.528 15.1167 161.455 15.29C161.675 15.4433 161.845 15.63 161.965 15.85C162.085 16.07 162.145 16.3167 162.145 16.59C162.145 17.1033 161.945 17.5133 161.545 17.82C161.152 18.1267 160.628 18.28 159.975 18.28C159.668 18.28 159.392 18.25 159.145 18.19C158.978 18.23 158.855 18.2967 158.775 18.39C158.702 18.4767 158.665 18.5933 158.665 18.74C158.665 18.8933 158.718 19.0133 158.825 19.1C158.938 19.18 159.092 19.22 159.285 19.22H160.955ZM159.975 15.65C159.668 15.65 159.412 15.74 159.205 15.92C158.998 16.0933 158.895 16.3167 158.895 16.59C158.895 16.87 158.998 17.1 159.205 17.28C159.412 17.4533 159.668 17.54 159.975 17.54C160.288 17.54 160.545 17.4533 160.745 17.28C160.952 17.1 161.055 16.87 161.055 16.59C161.055 16.31 160.952 16.0833 160.745 15.91C160.545 15.7367 160.288 15.65 159.975 15.65ZM160.085 21.35C160.572 21.35 160.952 21.28 161.225 21.14C161.498 21 161.635 20.8267 161.635 20.62C161.635 20.4533 161.568 20.3267 161.435 20.24C161.302 20.1533 161.078 20.11 160.765 20.11H159.415C159.115 20.11 158.888 20.1567 158.735 20.25C158.588 20.3433 158.515 20.4733 158.515 20.64C158.515 20.8667 158.645 21.04 158.905 21.16C159.172 21.2867 159.565 21.35 160.085 21.35ZM168.052 17.35C168.052 17.5433 168.039 17.7267 168.012 17.9H164.352C164.412 18.34 164.569 18.6767 164.822 18.91C165.075 19.1367 165.402 19.25 165.802 19.25C166.129 19.25 166.399 19.1933 166.612 19.08C166.832 18.96 166.982 18.79 167.062 18.57L167.952 18.94C167.579 19.7133 166.862 20.1 165.802 20.1C165.015 20.1 164.399 19.87 163.952 19.41C163.512 18.95 163.292 18.3133 163.292 17.5C163.292 16.68 163.505 16.0433 163.932 15.59C164.359 15.13 164.959 14.9 165.732 14.9C166.465 14.9 167.035 15.1233 167.442 15.57C167.849 16.0167 168.052 16.61 168.052 17.35ZM165.732 15.75C165.345 15.75 165.032 15.8633 164.792 16.09C164.559 16.3167 164.412 16.6467 164.352 17.08H167.052C166.999 16.66 166.855 16.3333 166.622 16.1C166.395 15.8667 166.099 15.75 165.732 15.75ZM172.515 19.67C172.355 19.8033 172.159 19.91 171.925 19.99C171.699 20.0633 171.452 20.1 171.185 20.1C170.725 20.1 170.355 19.9867 170.075 19.76C169.802 19.5267 169.662 19.1667 169.655 18.68V15.84H168.705V15H169.655V13.83L170.725 13.53V15H172.475V15.84H170.725V18.5C170.725 18.74 170.789 18.92 170.915 19.04C171.049 19.1533 171.229 19.21 171.455 19.21C171.762 19.21 172.032 19.1033 172.265 18.89L172.515 19.67ZM176.243 14.9C176.796 14.9 177.246 15.06 177.593 15.38C177.946 15.7 178.123 16.16 178.123 16.76V20H177.053V17.1C177.053 16.22 176.696 15.78 175.983 15.78C175.609 15.78 175.289 15.91 175.023 16.17C174.756 16.43 174.623 16.8267 174.623 17.36V20H173.553V12.75H174.623V15.8C174.789 15.4933 175.009 15.2667 175.283 15.12C175.563 14.9733 175.883 14.9 176.243 14.9ZM184.214 17.35C184.214 17.5433 184.201 17.7267 184.174 17.9H180.514C180.574 18.34 180.731 18.6767 180.984 18.91C181.237 19.1367 181.564 19.25 181.964 19.25C182.291 19.25 182.561 19.1933 182.774 19.08C182.994 18.96 183.144 18.79 183.224 18.57L184.114 18.94C183.741 19.7133 183.024 20.1 181.964 20.1C181.177 20.1 180.561 19.87 180.114 19.41C179.674 18.95 179.454 18.3133 179.454 17.5C179.454 16.68 179.667 16.0433 180.094 15.59C180.521 15.13 181.121 14.9 181.894 14.9C182.627 14.9 183.197 15.1233 183.604 15.57C184.011 16.0167 184.214 16.61 184.214 17.35ZM181.894 15.75C181.507 15.75 181.194 15.8633 180.954 16.09C180.721 16.3167 180.574 16.6467 180.514 17.08H183.214C183.161 16.66 183.017 16.3333 182.784 16.1C182.557 15.8667 182.261 15.75 181.894 15.75ZM188.135 14.9C188.368 14.9 188.551 14.9333 188.685 15L188.515 15.98C188.361 15.8933 188.151 15.85 187.885 15.85C187.671 15.85 187.468 15.9067 187.275 16.02C187.088 16.1333 186.931 16.3033 186.805 16.53C186.685 16.7567 186.625 17.03 186.625 17.35V20H185.555V15H186.465L186.555 15.9C186.835 15.2333 187.361 14.9 188.135 14.9ZM189.376 18.65C189.603 18.65 189.783 18.7167 189.916 18.85C190.056 18.9767 190.126 19.15 190.126 19.37C190.126 19.59 190.056 19.7667 189.916 19.9C189.783 20.0333 189.603 20.1 189.376 20.1C189.149 20.1 188.966 20.0333 188.826 19.9C188.686 19.7667 188.616 19.59 188.616 19.37C188.616 19.15 188.683 18.9767 188.816 18.85C188.956 18.7167 189.143 18.65 189.376 18.65Z" fill="black"/>
</svg>
