<svg width="255" height="42" viewBox="0 0 255 42" fill="none" xmlns="http://www.w3.org/2000/svg">
<path d="M10.1103 9.98C10.1103 11.32 9.43031 12.2 7.89031 12.2C6.13031 12.2 5.31031 11.22 5.31031 8.28C5.31031 5.32 6.11031 4.54 7.79031 4.52C9.31031 4.52 10.0903 5.1 10.0903 6.8C10.0903 6.92 10.0903 7.08 10.0703 7.24C10.8703 7.2 11.6503 7.2 12.4503 7.2C13.2303 7.2 14.0503 7.2 14.8503 7.24C14.8903 6.8 14.9103 6.38 14.9103 6C14.9103 2.74 12.9703 0.74 7.85031 0.74C2.63031 0.74 0.250313 3.14 0.250313 8.3C0.250313 13.94 2.71031 16.26 7.79031 16.26C12.6103 16.26 14.9503 14.32 14.9503 10.34C14.9503 10.08 14.9503 9.78 14.9303 9.46C14.1303 9.48 13.3103 9.48 12.5103 9.48C11.7103 9.48 10.9103 9.48 10.1103 9.46V9.98ZM17.0227 0.999999C17.0827 2.44 17.0827 5.06 17.0827 8.5C17.0827 11.7 17.0227 14.78 17.0227 16H26.9227C26.9227 15.24 26.9027 14.5 26.9027 13.74C26.9027 13 26.9227 12.24 26.9227 11.5C25.3227 11.54 23.4827 11.56 22.1027 11.56C22.0827 10.62 22.0827 9.54 22.0827 8.48C22.1027 5.16 22.1427 2.12 22.1827 0.999999H17.0227ZM33.5675 16C33.5275 13.82 33.5275 11.66 33.5275 8.48C33.5275 5.28 33.5275 3.12 33.5675 0.999999H28.4875C28.5475 3.14 28.5475 5.3 28.5475 8.5C28.5475 11.68 28.5475 13.84 28.4875 16H33.5675ZM45.4033 9.98C45.4033 11.32 44.7233 12.2 43.1833 12.2C41.4233 12.2 40.6033 11.22 40.6033 8.28C40.6033 5.32 41.4033 4.54 43.0833 4.52C44.6033 4.52 45.3833 5.1 45.3833 6.8C45.3833 6.92 45.3833 7.08 45.3633 7.24C46.1633 7.2 46.9433 7.2 47.7433 7.2C48.5233 7.2 49.3433 7.2 50.1433 7.24C50.1833 6.8 50.2033 6.38 50.2033 6C50.2033 2.74 48.2633 0.74 43.1433 0.74C37.9233 0.74 35.5433 3.14 35.5433 8.3C35.5433 13.94 38.0033 16.26 43.0833 16.26C47.9033 16.26 50.2433 14.32 50.2433 10.34C50.2433 10.08 50.2433 9.78 50.2233 9.46C49.4233 9.48 48.6033 9.48 47.8033 9.48C47.0033 9.48 46.2033 9.48 45.4033 9.46V9.98ZM61.4156 0.999999C60.9156 2.08 60.2356 3.58 59.0556 5.52C58.5556 6.3 57.9956 7.1 57.4356 7.84H57.3356C57.3356 5.36 57.3356 2.94 57.4156 0.999999H52.3156C52.3756 3.14 52.3956 5.3 52.3956 8.5C52.3956 11.68 52.3756 13.8 52.3156 16H57.4156C57.3556 14.26 57.3356 12.3 57.3356 10.16H57.5156C58.6156 11.38 59.9356 13.78 60.8756 15.38C61.1156 15.84 61.3956 16 62.0356 16H67.1756C66.7356 15.32 65.8756 13.7 64.0956 11.1C63.4356 9.98 62.6756 9.14 61.6756 8.64C63.5556 7.06 65.7356 3.08 67.0556 0.999999H61.4156ZM72.7619 0.999999C72.7819 1.56 72.7819 2.42 72.7819 3.2C72.7819 3.94 72.7819 4.88 72.7619 5.48C73.9619 5.46 75.1419 5.44 76.2219 5.44C76.2219 10.28 76.2019 14.94 76.1419 16.02C76.8619 15.96 77.9619 15.96 78.7619 15.96C79.5619 15.96 80.7019 15.96 81.4019 16.02C81.3419 14.94 81.3219 10.26 81.3219 5.44C82.4019 5.44 83.5819 5.46 84.7619 5.48C84.7419 4.88 84.7419 3.94 84.7419 3.2C84.7419 2.42 84.7419 1.56 84.7619 0.999999H72.7619ZM95.9377 0.999999C95.9777 2.4 95.9977 4.66 96.0177 6.46C95.2977 6.48 94.4977 6.5 93.6977 6.5C92.8977 6.5 92.0977 6.48 91.3777 6.46C91.3777 4.66 91.3977 2.4 91.4577 0.999999H86.3977C86.4777 3.06 86.4777 5.32 86.4777 8.5C86.4777 11.68 86.4777 13.84 86.3977 16H91.4577C91.3977 14.54 91.3777 12.38 91.3777 10.64C92.0977 10.62 92.8977 10.62 93.6977 10.62C94.4977 10.62 95.2977 10.62 96.0177 10.64C95.9977 12.38 95.9777 14.56 95.9377 16H100.998C100.938 13.84 100.918 11.68 100.918 8.5C100.918 5.32 100.938 3.06 100.998 0.999999H95.9377ZM103.605 0.999999C103.665 2.94 103.665 5.32 103.665 8.5C103.665 11.7 103.665 13.98 103.605 16H115.645C115.605 15.5 115.605 14.7 115.605 14.1C115.605 13.4 115.605 12.52 115.645 12.04C113.365 12.06 110.565 12.08 108.545 12.08V9.9C110.905 9.9 113.505 9.92 115.445 9.96C115.445 9.16 115.445 7.42 115.465 6.68C113.505 6.74 110.925 6.74 108.545 6.74V4.64C110.545 4.64 113.205 4.66 115.645 4.68C115.605 4.24 115.605 3.38 115.605 2.76C115.605 2.18 115.625 1.42 115.645 0.999999H103.605ZM123.175 0.999999C123.235 2.44 123.235 5.06 123.235 8.5C123.235 11.7 123.175 14.78 123.175 16H133.075C133.075 15.24 133.055 14.5 133.055 13.74C133.055 13 133.075 12.24 133.075 11.5C131.475 11.54 129.635 11.56 128.255 11.56C128.235 10.62 128.235 9.54 128.235 8.48C128.255 5.16 128.295 2.12 128.335 0.999999H123.175ZM139.72 16C139.68 13.82 139.68 11.66 139.68 8.48C139.68 5.28 139.68 3.12 139.72 0.999999H134.64C134.7 3.14 134.7 5.3 134.7 8.5C134.7 11.68 134.7 13.84 134.64 16H139.72ZM156.336 7.64C154.936 7.68 153.556 7.66 152.496 7.66C151.536 7.66 150.256 7.66 148.976 7.64C148.996 8.04 148.996 8.56 148.996 9.18C148.996 9.5 148.996 10.22 148.976 10.52C149.776 10.5 150.816 10.48 151.776 10.48C151.656 12.08 151.036 12.7 149.536 12.7C147.436 12.7 146.716 11.42 146.716 8.4C146.716 5.2 147.516 4.2 149.396 4.2C150.836 4.2 151.576 4.74 151.576 5.96C151.576 6.1 151.556 6.28 151.556 6.44C152.156 6.4 153.036 6.4 153.956 6.4C154.856 6.4 155.776 6.42 156.436 6.44C156.456 6.14 156.456 5.88 156.456 5.6C156.456 2.92 154.676 0.74 149.416 0.74C144.156 0.74 141.696 3.16 141.696 8.34C141.696 13.54 144.116 16.26 149.356 16.26C155.656 16.26 156.716 13.38 156.376 7.64H156.336ZM168.36 0.999999C168.4 2.4 168.42 4.66 168.44 6.46C167.72 6.48 166.92 6.5 166.12 6.5C165.32 6.5 164.52 6.48 163.8 6.46C163.8 4.66 163.82 2.4 163.88 0.999999H158.82C158.9 3.06 158.9 5.32 158.9 8.5C158.9 11.68 158.9 13.84 158.82 16H163.88C163.82 14.54 163.8 12.38 163.8 10.64C164.52 10.62 165.32 10.62 166.12 10.62C166.92 10.62 167.72 10.62 168.44 10.64C168.42 12.38 168.4 14.56 168.36 16H173.42C173.36 13.84 173.34 11.68 173.34 8.5C173.34 5.32 173.36 3.06 173.42 0.999999H168.36ZM175.067 0.999999C175.087 1.56 175.087 2.42 175.087 3.2C175.087 3.94 175.087 4.88 175.067 5.48C176.267 5.46 177.447 5.44 178.527 5.44C178.527 10.28 178.507 14.94 178.447 16.02C179.167 15.96 180.267 15.96 181.067 15.96C181.867 15.96 183.007 15.96 183.707 16.02C183.647 14.94 183.627 10.26 183.627 5.44C184.707 5.44 185.887 5.46 187.067 5.48C187.047 4.88 187.047 3.94 187.047 3.2C187.047 2.42 187.047 1.56 187.067 0.999999H175.067ZM192.642 11.1C192.182 11.14 191.542 11.14 190.862 11.14C189.922 11.14 188.922 11.08 188.262 11.02C188.222 11.38 188.222 11.74 188.222 12.08C188.222 14.86 189.922 16.28 195.122 16.28C199.962 16.28 201.802 14.58 201.802 11.66C201.802 8.74 200.362 7.44 196.262 6.82C193.442 6.4 193.122 5.8 193.122 5.08C193.122 4.44 193.582 4.02 195.042 4.02C196.942 4.02 197.382 4.54 197.382 5.34C197.382 5.46 197.382 5.6 197.362 5.74C197.782 5.72 198.442 5.72 199.122 5.72C199.982 5.72 200.962 5.74 201.562 5.78C201.582 5.46 201.602 5.16 201.602 4.88C201.602 2.2 200.022 0.719999 194.902 0.719999C190.302 0.719999 188.262 2.4 188.262 5.24C188.262 7.84 189.382 9.38 193.962 10C196.562 10.36 197.022 10.94 197.022 11.8C197.022 12.54 196.562 12.94 194.882 12.94C193.162 12.94 192.642 12.52 192.642 11.38V11.1ZM217.497 0.999999C217.297 1.78 216.577 3.92 215.997 5.72C215.717 6.6 215.497 7.46 215.317 8.14H215.157C214.977 7.44 214.737 6.56 214.477 5.64C213.957 3.88 213.317 1.78 213.077 0.999999H207.637C208.837 3.22 211.417 9.24 212.217 11.42C212.217 13.68 212.177 15.38 212.117 16.02C212.897 15.98 214.077 15.98 214.997 15.98C215.897 15.98 217.077 15.98 217.837 16.02C217.817 15.38 217.777 13.72 217.757 11.48C218.557 9.42 221.117 3.38 222.337 0.999999H217.497ZM237.724 8.24C237.724 2.82 234.784 0.719999 229.924 0.719999C225.044 0.719999 222.184 2.82 222.184 8.24C222.184 13.66 224.764 16.28 229.904 16.28C235.044 16.28 237.724 13.66 237.724 8.24ZM229.924 12.24C228.144 12.24 227.204 11.04 227.204 8.3C227.204 5.6 228.144 4.54 229.924 4.54C231.704 4.54 232.624 5.64 232.624 8.3C232.624 11 231.724 12.24 229.924 12.24ZM249.218 0.999999C249.258 3.36 249.298 7.36 249.298 9.64C249.298 11.4 248.678 12.16 247.078 12.16C245.418 12.16 244.698 11.4 244.698 9.64C244.698 7.36 244.718 3.36 244.798 0.999999H239.698C239.738 2.3 239.778 3.58 239.778 5.52C239.778 6.72 239.738 8.6 239.738 10C239.738 14.04 241.578 16.28 246.958 16.28C252.338 16.28 254.158 14.04 254.158 10C254.158 8.6 254.118 6.72 254.118 5.52C254.118 3.58 254.158 2.3 254.198 0.999999H249.218ZM60.0934 26C59.9534 27.46 59.3934 31.38 58.9534 34.34C58.7734 35.32 58.6734 36.18 58.5734 36.9H58.4534C58.3534 36.2 58.2334 35.34 58.0534 34.34C57.5334 31.36 57.0534 27.32 56.9134 26C56.2534 26.02 55.0734 26.02 54.2734 26.02C53.4734 26.02 52.0734 26.02 51.3734 26C51.2734 27.44 50.6134 31.38 50.1734 34.26C50.0134 35.2 49.8734 36.08 49.7534 36.82H49.6334C49.5134 36.1 49.3934 35.2 49.2534 34.3C48.8134 31.38 48.2334 27.1 48.1534 26H42.8734C43.8134 29.5 45.5134 38.52 46.0534 41C46.5134 40.98 47.3734 40.96 48.8334 40.96C49.9134 40.96 51.0934 41 51.7534 41C51.9734 39.7 52.4934 36.88 52.9334 34.4C53.1334 33.3 53.2934 31.96 53.4534 30.78H53.5534C53.6934 31.94 53.8334 33.24 53.9934 34.36C54.4134 36.94 54.8734 39.82 55.0734 41C55.5534 40.98 56.6934 40.96 58.2534 40.96C59.3734 40.96 60.3534 40.98 61.0534 41C61.4934 38.82 63.3334 29.48 64.2134 26H60.0934ZM71.6361 35.06H69.9361C70.2761 33.62 70.6161 32.14 70.9161 30.84C71.2161 29.76 71.4361 28.8 71.6161 28.08H71.6761C71.8361 28.8 72.0561 29.78 72.3561 30.8C72.6961 32.1 73.0361 33.6 73.3561 35.06H71.6361ZM80.0761 41C78.7761 37.18 76.3361 28.1 75.7761 26H67.7561C67.2561 28.08 64.8361 37.24 63.6161 41H68.7361C68.8161 40.4 69.0161 39.38 69.2761 38.14C70.1561 38.14 71.0161 38.14 71.6361 38.14C72.2961 38.14 73.1361 38.14 73.9961 38.14C74.2561 39.42 74.4161 40.46 74.4761 41H80.0761ZM91.5358 26C91.6158 27.22 91.6758 29.72 91.6958 31.92C91.6958 32.88 91.7558 33.96 91.8558 35.1L91.8158 35.12C91.5158 34.2 91.1558 33.28 90.7558 32.5C89.4558 30.1 87.4958 26.96 87.0958 26H81.4758C81.5158 27.98 81.5158 30.32 81.5158 33.5C81.5158 36.7 81.4958 39 81.4758 41H85.9158C85.8558 40.16 85.8558 38.16 85.8358 35.22C85.7958 34.04 85.7358 32.86 85.6358 31.56H85.6758C86.0358 32.58 86.4558 33.62 86.9758 34.62C88.4158 36.92 90.1158 39.66 90.7558 41H95.8558C95.8158 39.06 95.8158 36.8 95.8158 33.48C95.8158 30.3 95.8358 27.44 95.8758 26H91.5358ZM97.508 26C97.528 26.56 97.528 27.42 97.528 28.2C97.528 28.94 97.528 29.88 97.508 30.48C98.708 30.46 99.888 30.44 100.968 30.44C100.968 35.28 100.948 39.94 100.888 41.02C101.608 40.96 102.708 40.96 103.508 40.96C104.308 40.96 105.448 40.96 106.148 41.02C106.088 39.94 106.068 35.26 106.068 30.44C107.148 30.44 108.328 30.46 109.508 30.48C109.488 29.88 109.488 28.94 109.488 28.2C109.488 27.42 109.488 26.56 109.508 26H97.508ZM115.36 26C115.38 26.56 115.38 27.42 115.38 28.2C115.38 28.94 115.38 29.88 115.36 30.48C116.56 30.46 117.74 30.44 118.82 30.44C118.82 35.28 118.8 39.94 118.74 41.02C119.46 40.96 120.56 40.96 121.36 40.96C122.16 40.96 123.3 40.96 124 41.02C123.94 39.94 123.92 35.26 123.92 30.44C125 30.44 126.18 30.46 127.36 30.48C127.34 29.88 127.34 28.94 127.34 28.2C127.34 27.42 127.34 26.56 127.36 26H115.36ZM143.818 33.24C143.818 27.82 140.878 25.72 136.018 25.72C131.138 25.72 128.278 27.82 128.278 33.24C128.278 38.66 130.858 41.28 135.998 41.28C141.138 41.28 143.818 38.66 143.818 33.24ZM136.018 37.24C134.238 37.24 133.298 36.04 133.298 33.3C133.298 30.6 134.238 29.54 136.018 29.54C137.798 29.54 138.718 30.64 138.718 33.3C138.718 36 137.818 37.24 136.018 37.24ZM154.947 36.1C154.487 36.14 153.847 36.14 153.167 36.14C152.227 36.14 151.227 36.08 150.567 36.02C150.527 36.38 150.527 36.74 150.527 37.08C150.527 39.86 152.227 41.28 157.427 41.28C162.267 41.28 164.107 39.58 164.107 36.66C164.107 33.74 162.667 32.44 158.567 31.82C155.747 31.4 155.427 30.8 155.427 30.08C155.427 29.44 155.887 29.02 157.347 29.02C159.247 29.02 159.687 29.54 159.687 30.34C159.687 30.46 159.687 30.6 159.667 30.74C160.087 30.72 160.747 30.72 161.427 30.72C162.287 30.72 163.267 30.74 163.867 30.78C163.887 30.46 163.907 30.16 163.907 29.88C163.907 27.2 162.327 25.72 157.207 25.72C152.607 25.72 150.567 27.4 150.567 30.24C150.567 32.84 151.687 34.38 156.267 35C158.867 35.36 159.327 35.94 159.327 36.8C159.327 37.54 158.867 37.94 157.187 37.94C155.467 37.94 154.947 37.52 154.947 36.38V36.1ZM174.235 26C174.035 26.78 173.315 28.92 172.735 30.72C172.455 31.6 172.235 32.46 172.055 33.14H171.895C171.715 32.44 171.475 31.56 171.215 30.64C170.695 28.88 170.055 26.78 169.815 26H164.375C165.575 28.22 168.155 34.24 168.955 36.42C168.955 38.68 168.915 40.38 168.855 41.02C169.635 40.98 170.815 40.98 171.735 40.98C172.635 40.98 173.815 40.98 174.575 41.02C174.555 40.38 174.515 38.72 174.495 36.48C175.295 34.42 177.855 28.38 179.075 26H174.235ZM190.442 26C190.522 27.22 190.582 29.72 190.602 31.92C190.602 32.88 190.662 33.96 190.762 35.1L190.722 35.12C190.422 34.2 190.062 33.28 189.662 32.5C188.362 30.1 186.402 26.96 186.002 26H180.382C180.422 27.98 180.422 30.32 180.422 33.5C180.422 36.7 180.402 39 180.382 41H184.822C184.762 40.16 184.762 38.16 184.742 35.22C184.702 34.04 184.642 32.86 184.542 31.56H184.582C184.942 32.58 185.362 33.62 185.882 34.62C187.322 36.92 189.022 39.66 189.662 41H194.762C194.722 39.06 194.722 36.8 194.722 33.48C194.722 30.3 194.742 27.44 194.782 26H190.442ZM206.614 34.98C206.614 36.32 205.934 37.2 204.394 37.2C202.634 37.2 201.814 36.22 201.814 33.28C201.814 30.32 202.614 29.54 204.294 29.52C205.814 29.52 206.594 30.1 206.594 31.8C206.594 31.92 206.594 32.08 206.574 32.24C207.374 32.2 208.154 32.2 208.954 32.2C209.734 32.2 210.554 32.2 211.354 32.24C211.394 31.8 211.414 31.38 211.414 31C211.414 27.74 209.474 25.74 204.354 25.74C199.134 25.74 196.754 28.14 196.754 33.3C196.754 38.94 199.214 41.26 204.294 41.26C209.114 41.26 211.454 39.32 211.454 35.34C211.454 35.08 211.454 34.78 211.434 34.46C210.634 34.48 209.814 34.48 209.014 34.48C208.214 34.48 207.414 34.48 206.614 34.46V34.98Z" fill="#FD4A1E"/>
</svg>
