<svg width="111" height="9" viewBox="0 0 111 9" fill="none" xmlns="http://www.w3.org/2000/svg">
<path d="M5.09394 3.432C5.22994 3.424 5.34994 3.424 5.49394 3.424C5.62994 3.424 5.76594 3.424 5.89394 3.432C5.90194 3.32 5.90194 3.24 5.90194 3.128C5.90194 1.808 5.12594 0.896 3.36594 0.896C1.57394 0.896 0.509938 2 0.509938 3.96C0.509938 6.096 1.67794 7.104 3.37394 7.104C5.09394 7.096 5.92594 6.224 5.92594 4.8C5.92594 4.704 5.91794 4.64 5.91794 4.56H5.10994V4.744C5.10994 5.76 4.58194 6.36 3.36594 6.36C2.18194 6.36 1.34194 5.624 1.34194 3.944C1.34994 2.28 2.17394 1.632 3.33394 1.632C4.49394 1.632 5.09394 2.128 5.09394 3.256V3.432ZM11.0044 4.56C11.0044 5.784 10.3164 6.432 9.31638 6.432C8.33238 6.432 7.63638 5.792 7.63638 4.56C7.63638 3.32 8.34838 2.768 9.31638 2.768C10.2924 2.768 11.0044 3.328 11.0044 4.56ZM11.7644 4.536C11.7644 2.904 10.7004 2.088 9.31638 2.088C7.93238 2.088 6.88438 2.904 6.88438 4.536C6.88438 6.168 7.88438 7.104 9.31638 7.104C10.7564 7.104 11.7644 6.168 11.7644 4.536ZM17.4203 7C17.4043 6.504 17.3963 6.016 17.3963 5.472C17.3963 4.992 17.4123 4.728 17.4123 3.936C17.4123 2.728 16.7963 2.112 15.6203 2.112C14.7003 2.112 14.0443 2.448 13.7323 3.096L13.6843 3.088C13.6923 2.768 13.6923 2.512 13.7003 2.192H12.8923C12.9083 2.816 12.9163 3.624 12.9163 4.68C12.9163 5.704 12.9083 6.352 12.8923 7H13.7003C13.6923 6.512 13.6843 5.912 13.6843 4.24C13.6843 3.232 14.4043 2.776 15.3083 2.776C16.2603 2.776 16.6283 3.24 16.6283 4.088C16.6283 5.376 16.6203 6.248 16.6043 7H17.4203ZM23.3578 7C23.3418 6.504 23.3338 6.016 23.3338 5.472C23.3338 4.992 23.3498 4.728 23.3498 3.936C23.3498 2.728 22.7338 2.112 21.5578 2.112C20.6378 2.112 19.9818 2.448 19.6698 3.096L19.6218 3.088C19.6298 2.768 19.6298 2.512 19.6378 2.192H18.8298C18.8458 2.816 18.8538 3.624 18.8538 4.68C18.8538 5.704 18.8458 6.352 18.8298 7H19.6378C19.6298 6.512 19.6218 5.912 19.6218 4.24C19.6218 3.232 20.3418 2.776 21.2458 2.776C22.1978 2.776 22.5658 3.24 22.5658 4.088C22.5658 5.376 22.5578 6.248 22.5418 7H23.3578ZM26.8153 2.672C27.7753 2.672 28.1833 3.184 28.1833 4C28.1833 4.104 28.1833 4.216 28.1753 4.304C27.5353 4.32 26.0312 4.32 25.1913 4.304C25.2793 3.168 25.8713 2.672 26.8153 2.672ZM28.5512 5.4C28.3993 5.4 28.2873 5.392 28.1833 5.384C28.1833 6.056 27.8873 6.512 26.8393 6.512C25.8153 6.512 25.2153 5.944 25.1753 4.752C25.6873 4.76 26.3273 4.768 26.9433 4.768C27.8713 4.768 28.5353 4.76 28.8873 4.768C28.9033 4.576 28.9033 4.328 28.9033 4.072C28.9033 2.88 28.3273 2.088 26.8473 2.088C25.3993 2.088 24.4473 2.88 24.4473 4.6C24.4473 6.296 25.3753 7.104 26.8313 7.104C28.5433 7.104 28.9193 6.304 28.8953 5.384C28.7993 5.392 28.6953 5.4 28.5512 5.4ZM33.7808 5.208C33.7808 5.92 33.3568 6.424 32.3408 6.424C31.3008 6.424 30.6288 5.864 30.6288 4.576C30.6288 3.296 31.3008 2.76 32.3328 2.76C33.3408 2.76 33.7648 3.176 33.7728 3.944V4.064C33.8528 4.064 33.9808 4.056 34.1248 4.056C34.2608 4.056 34.4048 4.064 34.4928 4.064V3.912C34.4928 2.72 33.7328 2.08 32.3488 2.08C30.8528 2.08 29.8768 2.912 29.8768 4.576C29.8768 6.248 30.8528 7.104 32.3088 7.104C33.9568 7.104 34.5248 6.264 34.5248 5.224C34.5248 5.168 34.5248 5.136 34.5168 5.096C34.4128 5.104 34.2768 5.104 34.1408 5.104C34.0048 5.104 33.8848 5.104 33.7808 5.096V5.208ZM35.9444 2.856C35.9444 3.856 35.9364 4.832 35.9364 5.488C35.9364 6.432 36.4484 7.072 37.7444 7.072C38.2564 7.072 38.6164 6.992 39.0324 6.888C39.0004 6.696 38.9444 6.416 38.9204 6.184C38.6084 6.296 38.2484 6.376 37.8324 6.376C37.0084 6.376 36.7044 6.04 36.7044 5.408C36.7044 4.48 36.7044 3.632 36.7124 2.864C37.4724 2.864 38.2724 2.872 38.9284 2.888C38.9284 2.672 38.9364 2.4 38.9444 2.192C38.1844 2.208 37.4244 2.208 36.7204 2.208C36.7284 1.856 36.7284 1.512 36.7364 1.192C36.6164 1.2 36.4804 1.2 36.3524 1.2C36.2164 1.2 36.0724 1.192 35.9444 1.192C35.9444 1.52 35.9444 1.856 35.9444 2.208C35.6884 2.2 35.4404 2.2 35.2164 2.192C35.2244 2.4 35.2244 2.664 35.2244 2.856H35.9444ZM49.1807 7C49.1487 6.136 49.1487 5.264 49.1487 3.992C49.1487 2.68 49.1487 1.784 49.1727 1H48.1807C47.8927 1.616 47.1807 3.208 46.5007 4.696C46.3247 5.072 46.1407 5.496 45.9807 5.896H45.9487C45.7887 5.48 45.5887 5 45.4367 4.672C44.7407 3.176 44.0207 1.56 43.7407 1H42.6687C42.6847 1.784 42.6927 2.68 42.6927 3.992C42.6927 5.264 42.6847 6.136 42.6607 7H43.4367C43.4127 5.704 43.3967 4.832 43.3967 3.424C43.3967 2.92 43.3647 2.312 43.3487 1.776L43.3887 1.768C43.5487 2.2 43.7407 2.688 43.9487 3.128L45.7087 7H46.1007L47.8367 3.208C48.0287 2.792 48.2287 2.272 48.3807 1.808L48.4207 1.816C48.4047 2.296 48.3807 2.824 48.3807 3.304C48.3727 4.688 48.3727 5.736 48.3327 7H49.1807ZM54.6137 4.56C54.6137 5.784 53.9258 6.432 52.9258 6.432C51.9418 6.432 51.2458 5.792 51.2458 4.56C51.2458 3.32 51.9578 2.768 52.9258 2.768C53.9018 2.768 54.6137 3.328 54.6137 4.56ZM55.3738 4.536C55.3738 2.904 54.3098 2.088 52.9258 2.088C51.5418 2.088 50.4938 2.904 50.4938 4.536C50.4938 6.168 51.4938 7.104 52.9258 7.104C54.3658 7.104 55.3738 6.168 55.3738 4.536ZM57.1656 3.272C57.1816 2.84 57.1976 2.488 57.2056 2.192H56.5016C56.5176 2.88 56.5176 3.56 56.5176 4.584C56.5176 5.616 56.5176 6.328 56.5016 7H57.3416C57.3176 6.456 57.3176 5.344 57.3176 4.488C57.3176 3.328 57.9096 2.864 58.7336 2.864C59.0616 2.864 59.3496 2.92 59.6056 3.048C59.6296 2.832 59.6936 2.48 59.7416 2.296C59.4776 2.192 59.1816 2.12 58.8216 2.12C58.0216 2.12 57.4696 2.48 57.2216 3.272H57.1656ZM62.3856 2.672C63.3456 2.672 63.7536 3.184 63.7536 4C63.7536 4.104 63.7536 4.216 63.7456 4.304C63.1056 4.32 61.6016 4.32 60.7616 4.304C60.8496 3.168 61.4416 2.672 62.3856 2.672ZM64.1216 5.4C63.9696 5.4 63.8576 5.392 63.7536 5.384C63.7536 6.056 63.4576 6.512 62.4096 6.512C61.3856 6.512 60.7856 5.944 60.7456 4.752C61.2576 4.76 61.8976 4.768 62.5136 4.768C63.4416 4.768 64.1056 4.76 64.4576 4.768C64.4736 4.576 64.4736 4.328 64.4736 4.072C64.4736 2.88 63.8976 2.088 62.4176 2.088C60.9696 2.088 60.0176 2.88 60.0176 4.6C60.0176 6.296 60.9456 7.104 62.4016 7.104C64.1136 7.104 64.4896 6.304 64.4656 5.384C64.3696 5.392 64.2656 5.4 64.1216 5.4ZM70.5802 4.464C69.9962 4.464 69.4282 4.456 69.1882 4.448C69.1882 3.608 69.1882 2.672 69.1882 1.72C69.5882 1.712 70.3562 1.704 70.6602 1.704C71.7402 1.704 72.3082 2.112 72.3082 3.112C72.3082 4.096 71.7562 4.464 70.5802 4.464ZM68.3402 1C68.3722 1.8 68.3722 2.728 68.3722 4C68.3722 5.28 68.3722 6.136 68.3402 7H69.2442C69.2122 6.512 69.2042 5.88 69.1962 5.152C69.9242 5.168 70.2042 5.168 70.7402 5.168C72.1722 5.168 73.1082 4.56 73.1082 3.12C73.1082 1.584 72.2122 1 70.7962 1H68.3402ZM77.9028 4.56C77.9028 5.784 77.2148 6.432 76.2148 6.432C75.2308 6.432 74.5348 5.792 74.5348 4.56C74.5348 3.32 75.2468 2.768 76.2148 2.768C77.1908 2.768 77.9028 3.328 77.9028 4.56ZM78.6628 4.536C78.6628 2.904 77.5988 2.088 76.2148 2.088C74.8308 2.088 73.7828 2.904 73.7828 4.536C73.7828 6.168 74.7828 7.104 76.2148 7.104C77.6548 7.104 78.6628 6.168 78.6628 4.536ZM80.5827 4.232C80.5827 3.216 81.3427 2.736 82.2307 2.736C83.1987 2.736 83.6947 3.376 83.6947 4.576C83.6947 5.776 83.1987 6.448 82.1907 6.448C81.5427 6.448 80.9747 6.264 80.5827 5.968V4.232ZM80.5827 3.144C80.5907 3.008 80.5987 2.896 80.5987 2.784C80.5987 2.56 80.6067 2.392 80.6067 2.192H79.7987C79.8067 2.64 79.8147 3.112 79.8147 4.32C79.8147 5.52 79.8147 6.784 79.7907 8.112H80.6067C80.5987 7.768 80.5987 7.496 80.5987 7.176C80.5987 6.88 80.5987 6.664 80.5827 6.392L80.6307 6.376C80.9667 6.784 81.6147 7.088 82.4547 7.088C83.7187 7.088 84.4627 6.128 84.4627 4.576C84.4627 3.024 83.8067 2.104 82.4947 2.104C81.5187 2.104 80.9027 2.536 80.6147 3.152L80.5827 3.144ZM86.411 7C86.387 5.992 86.395 5.088 86.395 3.952C86.395 2.64 86.387 1.816 86.411 0.808H85.603C85.627 1.84 85.627 2.664 85.627 3.92C85.627 5 85.627 6.016 85.603 7H86.411ZM88.9244 1.288C88.9244 1.072 88.7964 0.927999 88.3564 0.927999C87.9164 0.927999 87.7964 1.072 87.7964 1.288C87.7964 1.488 87.9084 1.664 88.3564 1.664C88.8124 1.664 88.9244 1.488 88.9244 1.288ZM88.7644 7C88.7324 6.2 88.7324 5.584 88.7324 4.536C88.7324 3.552 88.7324 2.944 88.7644 2.192H87.9484C87.9724 2.944 87.9724 3.56 87.9724 4.512C87.9724 5.52 87.9724 6.2 87.9484 7H88.7644ZM93.8105 3.848C93.8105 4.472 93.3625 4.856 92.3145 4.856C91.2665 4.856 90.8265 4.464 90.8265 3.832C90.8265 3.232 91.2665 2.76 92.3145 2.76C93.3785 2.76 93.8105 3.208 93.8105 3.848ZM93.3945 6.608C93.9545 6.608 94.1865 6.712 94.1865 7.032C94.1865 7.472 93.6265 7.68 92.3625 7.68C90.9705 7.68 90.6265 7.496 90.6265 7.136C90.6265 6.952 90.7625 6.792 91.0185 6.648C91.1145 6.656 91.2265 6.664 91.3465 6.664C91.9225 6.664 92.7785 6.608 93.3945 6.608ZM94.9865 2.2C93.9145 2.2 92.4745 2.184 92.2985 2.184C90.9065 2.184 90.1385 2.792 90.1385 3.824C90.1385 4.464 90.4105 4.944 91.0185 5.2V5.208C90.6425 5.368 90.2825 5.656 90.2825 6.056C90.2825 6.288 90.3865 6.48 90.7065 6.584V6.592C90.1945 6.744 89.8985 6.992 89.8985 7.36C89.8985 7.848 90.1945 8.216 92.3385 8.216C94.3465 8.216 94.9065 7.744 94.9065 7.032C94.9065 6.328 94.4585 6.064 93.5545 6.064C92.9945 6.064 92.2985 6.128 91.4585 6.128C91.1785 6.128 91.0025 6.04 91.0025 5.832C91.0025 5.664 91.1065 5.472 91.3225 5.304C91.5945 5.368 91.9225 5.408 92.2985 5.408C93.8425 5.408 94.4985 4.84 94.4985 4.024C94.4985 3.384 94.2345 3.008 93.5305 2.808V2.76C94.0585 2.784 94.6425 2.816 94.9865 2.816V2.2ZM100.522 7C100.506 6.48 100.498 5.96 100.498 5.376C100.498 4.904 100.514 4.584 100.514 3.832C100.514 2.72 99.874 2.104 98.722 2.104C97.794 2.104 97.13 2.432 96.826 3.112L96.786 3.104C96.794 2.8 96.802 2.56 96.802 2.264C96.802 1.76 96.802 1.32 96.818 0.808H95.986C96.002 1.704 96.018 2.944 96.018 4.408C96.018 5.584 96.01 6.272 95.994 7H96.802C96.794 6.512 96.786 5.944 96.786 4.272C96.786 3.232 97.53 2.784 98.426 2.784C99.338 2.784 99.73 3.208 99.73 4.04C99.73 5.328 99.722 6.224 99.706 7H100.522ZM102.171 2.856C102.171 3.856 102.163 4.832 102.163 5.488C102.163 6.432 102.675 7.072 103.971 7.072C104.483 7.072 104.843 6.992 105.259 6.888C105.227 6.696 105.171 6.416 105.147 6.184C104.835 6.296 104.475 6.376 104.059 6.376C103.235 6.376 102.931 6.04 102.931 5.408C102.931 4.48 102.931 3.632 102.939 2.864C103.699 2.864 104.499 2.872 105.155 2.888C105.155 2.672 105.163 2.4 105.171 2.192C104.411 2.208 103.651 2.208 102.947 2.208C102.955 1.856 102.955 1.512 102.963 1.192C102.843 1.2 102.707 1.2 102.579 1.2C102.443 1.2 102.299 1.192 102.171 1.192C102.171 1.52 102.171 1.856 102.171 2.208C101.915 2.2 101.667 2.2 101.443 2.192C101.451 2.4 101.451 2.664 101.451 2.856H102.171ZM108.306 6.472C107.258 6.472 106.77 6.216 106.77 5.552C106.77 5.496 106.77 5.432 106.778 5.36C106.69 5.368 106.554 5.376 106.426 5.376C106.274 5.376 106.146 5.368 106.05 5.36C106.05 5.456 106.042 5.528 106.042 5.616C106.042 6.592 106.698 7.104 108.298 7.104C109.778 7.104 110.442 6.608 110.442 5.704C110.442 4.848 109.954 4.424 108.474 4.264C107.154 4.128 106.874 3.88 106.874 3.432C106.874 2.944 107.29 2.696 108.234 2.696C109.226 2.696 109.602 2.968 109.602 3.552C109.602 3.608 109.602 3.712 109.594 3.792C109.666 3.784 109.794 3.784 109.938 3.784C110.074 3.784 110.218 3.784 110.314 3.792C110.322 3.672 110.322 3.6 110.322 3.48C110.322 2.536 109.682 2.08 108.234 2.08C106.858 2.08 106.122 2.52 106.122 3.424C106.122 4.192 106.554 4.672 108.026 4.816C109.37 4.952 109.698 5.2 109.698 5.688C109.698 6.224 109.306 6.472 108.306 6.472Z" fill="#FD4A1E"/>
</svg>
