<svg width="390" height="844" viewBox="0 0 390 844" fill="none" xmlns="http://www.w3.org/2000/svg">
<g clip-path="url(#clip0_2049_1600)">
<rect width="390" height="844" fill="white"/>
<rect width="390" height="844" fill="#FEF8E5"/>
<path d="M-134.896 143.051C-138.798 145.514 -139.496 130.931 -140.034 128.438C-141.33 122.433 -146.67 104.686 -137.12 98.6577C-120.584 88.2204 -78.513 136.795 -65.2951 103.35C-57.1623 82.7717 -62.748 63.5469 -54.9253 42.7381C-52.518 36.3345 -50.1088 28.5235 -43.2627 23.9657C-36.0644 19.1735 -29.5354 21.8656 -23.5536 23.4612C-13.8575 26.0477 -5.58461 30.6586 3.1009 34.7244C9.19405 37.5767 17.6808 42.6187 26.4066 39.3587C44.3366 32.6598 41.3397 3.63952 42.7785 -7.34281C44.5465 -20.8385 47.7581 -45.3357 65.0788 -54.2542C72.8587 -58.2601 82.1843 -53.0375 87.304 -50.4921C96.7416 -45.8 104.922 -39.6565 114.474 -35.1158C119.868 -32.5517 127.582 -26.9176 135.459 -29.6783C143.595 -32.5295 146.275 -41.1137 147.387 -47.5384C149.516 -59.8459 149.567 -71.8249 151.631 -84.1397C153.065 -92.6959 154.179 -103.74 161.504 -111.635C168.632 -119.317 177.474 -117.247 184.323 -115.578C195.846 -112.77 206.789 -106.947 219.473 -106.569C248.865 -105.693 254.473 -136.98 258.411 -157.307C260.343 -167.282 268.52 -205.956 287.628 -200.193C295.142 -197.927 300.495 -192.761 305.805 -187.943C308.636 -185.375 310.249 -183.382 314.929 -186.336" stroke="#D7EE00" stroke-width="6" stroke-linecap="round" stroke-linejoin="round"/>
<path d="M-123.896 179.051C-127.798 181.514 -128.496 166.931 -129.034 164.438C-130.33 158.433 -135.67 140.686 -126.12 134.658C-109.584 124.22 -67.513 172.795 -54.2951 139.35C-46.1623 118.772 -51.748 99.5469 -43.9253 78.7381C-41.518 72.3345 -39.1088 64.5235 -32.2627 59.9657C-25.0644 55.1735 -18.5354 57.8656 -12.5536 59.4612C-2.85752 62.0477 5.41539 66.6586 14.1009 70.7244C20.1941 73.5767 28.6808 78.6187 37.4066 75.3587C55.3366 68.6598 52.3397 39.6395 53.7785 28.6572C55.5465 15.1615 58.7581 -9.33571 76.0788 -18.2542C83.8587 -22.2601 93.1843 -17.0375 98.304 -14.4921C107.742 -9.79999 115.922 -3.65652 125.474 0.884181C130.868 3.44832 138.582 9.08236 146.459 6.3217C154.595 3.47052 157.275 -5.11373 158.387 -11.5384C160.516 -23.8459 160.567 -35.8249 162.631 -48.1397C164.065 -56.6959 165.179 -67.7402 172.504 -75.6346C179.632 -83.3166 188.474 -81.247 195.323 -79.5782C206.846 -76.7704 217.789 -70.9469 230.473 -70.5689C259.865 -69.6931 265.473 -100.98 269.411 -121.307C271.343 -131.282 279.52 -169.956 298.628 -164.193C306.142 -161.927 311.495 -156.761 316.805 -151.943C319.636 -149.375 321.249 -147.382 325.929 -150.336" stroke="#D7EE00" stroke-width="6" stroke-linecap="round" stroke-linejoin="round"/>
<path d="M-112.896 215.051C-116.798 217.514 -117.496 202.931 -118.034 200.438C-119.33 194.433 -124.67 176.686 -115.12 170.658C-98.5839 160.22 -56.513 208.795 -43.2951 175.35C-35.1623 154.772 -40.748 135.547 -32.9253 114.738C-30.518 108.335 -28.1088 100.524 -21.2627 95.9657C-14.0644 91.1735 -7.5354 93.8656 -1.55358 95.4612C8.14248 98.0477 16.4154 102.659 25.1009 106.724C31.1941 109.577 39.6808 114.619 48.4066 111.359C66.3366 104.66 63.3397 75.6395 64.7785 64.6572C66.5465 51.1615 69.7581 26.6643 87.0788 17.7458C94.8587 13.7399 104.184 18.9625 109.304 21.5079C118.742 26.2 126.922 32.3435 136.474 36.8842C141.868 39.4483 149.582 45.0824 157.459 42.3217C165.595 39.4705 168.275 30.8863 169.387 24.4616C171.516 12.1541 171.567 0.175127 173.631 -12.1397C175.065 -20.6959 176.179 -31.7402 183.504 -39.6346C190.632 -47.3166 199.474 -45.247 206.323 -43.5782C217.846 -40.7704 228.789 -34.9469 241.473 -34.5689C270.865 -33.6931 276.473 -64.9803 280.411 -85.3065C282.343 -95.2818 290.52 -133.956 309.628 -128.193C317.142 -125.927 322.495 -120.761 327.805 -115.943C330.636 -113.375 332.249 -111.382 336.929 -114.336" stroke="#D7EE00" stroke-width="6" stroke-linecap="round" stroke-linejoin="round"/>
<path d="M-101.896 251.051C-105.798 253.514 -106.496 238.931 -107.034 236.438C-108.33 230.433 -113.67 212.686 -104.12 206.658C-87.5839 196.22 -45.513 244.795 -32.2951 211.35C-24.1623 190.772 -29.748 171.547 -21.9253 150.738C-19.518 144.335 -17.1088 136.524 -10.2627 131.966C-3.06443 127.173 3.4646 129.866 9.44642 131.461C19.1425 134.048 27.4154 138.659 36.1009 142.724C42.1941 145.577 50.6808 150.619 59.4066 147.359C77.3366 140.66 74.3397 111.64 75.7785 100.657C77.5465 87.1615 80.7581 62.6643 98.0788 53.7458C105.859 49.7399 115.184 54.9625 120.304 57.5079C129.742 62.2 137.922 68.3435 147.474 72.8842C152.868 75.4483 160.582 81.0824 168.459 78.3217C176.595 75.4705 179.275 66.8863 180.387 60.4616C182.516 48.1541 182.567 36.1751 184.631 23.8603C186.065 15.3041 187.179 4.25978 194.504 -3.63457C201.632 -11.3166 210.474 -9.24701 217.323 -7.5782C228.846 -4.77042 239.789 1.05308 252.473 1.43106C281.865 2.30692 287.473 -28.9803 291.411 -49.3065C293.343 -59.2818 301.52 -97.9565 320.628 -92.193C328.142 -89.9267 333.495 -84.7609 338.805 -79.9434C341.636 -77.3751 343.249 -75.382 347.929 -78.3361" stroke="#D7EE00" stroke-width="6" stroke-linecap="round" stroke-linejoin="round"/>
<path d="M-90.8958 287.051C-94.7977 289.514 -95.4962 274.931 -96.0343 272.438C-97.3303 266.433 -102.67 248.686 -93.1198 242.658C-76.5839 232.22 -34.513 280.795 -21.2951 247.35C-13.1623 226.772 -18.748 207.547 -10.9253 186.738C-8.51797 180.335 -6.10879 172.524 0.737301 167.966C7.93557 163.173 14.4646 165.866 20.4464 167.461C30.1425 170.048 38.4154 174.659 47.1009 178.724C53.1941 181.577 61.6808 186.619 70.4066 183.359C88.3366 176.66 85.3397 147.64 86.7785 136.657C88.5465 123.161 91.7581 98.6643 109.079 89.7458C116.859 85.7399 126.184 90.9625 131.304 93.5079C140.742 98.2 148.922 104.343 158.474 108.884C163.868 111.448 171.582 117.082 179.459 114.322C187.595 111.471 190.275 102.886 191.387 96.4616C193.516 84.1541 193.567 72.1751 195.631 59.8603C197.065 51.3041 198.179 40.2598 205.504 32.3654C212.632 24.6834 221.474 26.753 228.323 28.4218C239.846 31.2296 250.789 37.0531 263.473 37.4311C292.865 38.3069 298.473 7.01966 302.411 -13.3065C304.343 -23.2818 312.52 -61.9565 331.628 -56.193C339.142 -53.9267 344.495 -48.7609 349.805 -43.9434C352.636 -41.3751 354.249 -39.382 358.929 -42.3361" stroke="#D7EE00" stroke-width="6" stroke-linecap="round" stroke-linejoin="round"/>
<path d="M-79.8958 323.051C-83.7977 325.514 -84.4962 310.931 -85.0343 308.438C-86.3303 302.433 -91.6703 284.686 -82.1198 278.658C-65.5839 268.22 -23.513 316.795 -10.2951 283.35C-2.16234 262.772 -7.74803 243.547 0.0747236 222.738C2.48203 216.335 4.89121 208.524 11.7373 203.966C18.9356 199.173 25.4646 201.866 31.4464 203.461C41.1425 206.048 49.4154 210.659 58.1009 214.724C64.1941 217.577 72.6808 222.619 81.4066 219.359C99.3366 212.66 96.3397 183.64 97.7785 172.657C99.5465 159.161 102.758 134.664 120.079 125.746C127.859 121.74 137.184 126.962 142.304 129.508C151.742 134.2 159.922 140.343 169.474 144.884C174.868 147.448 182.582 153.082 190.459 150.322C198.595 147.471 201.275 138.886 202.387 132.462C204.516 120.154 204.567 108.175 206.631 95.8603C208.065 87.3041 209.179 76.2598 216.504 68.3654C223.632 60.6834 232.474 62.753 239.323 64.4218C250.846 67.2296 261.789 73.0531 274.473 73.4311C303.865 74.3069 309.473 43.0197 313.411 22.6935C315.343 12.7182 323.52 -25.9565 342.628 -20.193C350.142 -17.9267 355.495 -12.7609 360.805 -7.9434C363.636 -5.3751 365.249 -3.38199 369.929 -6.33606" stroke="#D7EE00" stroke-width="6" stroke-linecap="round" stroke-linejoin="round"/>
<path d="M-68.8958 359.051C-72.7977 361.514 -73.4962 346.931 -74.0343 344.438C-75.3303 338.433 -80.6703 320.686 -71.1198 314.658C-54.5839 304.22 -12.513 352.795 0.704873 319.35C8.83766 298.772 3.25197 279.547 11.0747 258.738C13.482 252.335 15.8912 244.524 22.7373 239.966C29.9356 235.173 36.4646 237.866 42.4464 239.461C52.1425 242.048 60.4154 246.659 69.1009 250.724C75.1941 253.577 83.6808 258.619 92.4066 255.359C110.337 248.66 107.34 219.64 108.778 208.657C110.547 195.161 113.758 170.664 131.079 161.746C138.859 157.74 148.184 162.962 153.304 165.508C162.742 170.2 170.922 176.343 180.474 180.884C185.868 183.448 193.582 189.082 201.459 186.322C209.595 183.471 212.275 174.886 213.387 168.462C215.516 156.154 215.567 144.175 217.631 131.86C219.065 123.304 220.179 112.26 227.504 104.365C234.632 96.6834 243.474 98.753 250.323 100.422C261.846 103.23 272.789 109.053 285.473 109.431C314.865 110.307 320.473 79.0197 324.411 58.6935C326.343 48.7182 334.52 10.0435 353.628 15.807C361.142 18.0733 366.495 23.2391 371.805 28.0566C374.636 30.6249 376.249 32.618 380.929 29.6639" stroke="#D7EE00" stroke-width="6" stroke-linecap="round" stroke-linejoin="round"/>
<path d="M-57.8958 395.051C-61.7977 397.514 -62.4962 382.931 -63.0343 380.438C-64.3303 374.433 -69.6703 356.686 -60.1198 350.658C-43.5839 340.22 -1.51302 388.795 11.7049 355.35C19.8377 334.772 14.252 315.547 22.0747 294.738C24.482 288.335 26.8912 280.524 33.7373 275.966C40.9356 271.173 47.4646 273.866 53.4464 275.461C63.1425 278.048 71.4154 282.659 80.1009 286.724C86.1941 289.577 94.6808 294.619 103.407 291.359C121.337 284.66 118.34 255.64 119.778 244.657C121.547 231.161 124.758 206.664 142.079 197.746C149.859 193.74 159.184 198.962 164.304 201.508C173.742 206.2 181.922 212.343 191.474 216.884C196.868 219.448 204.582 225.082 212.459 222.322C220.595 219.471 223.275 210.886 224.387 204.462C226.516 192.154 226.567 180.175 228.631 167.86C230.065 159.304 231.179 148.26 238.504 140.365C245.632 132.683 254.474 134.753 261.323 136.422C272.846 139.23 283.789 145.053 296.473 145.431C325.865 146.307 331.473 115.02 335.411 94.6935C337.343 84.7182 345.52 46.0435 364.628 51.807C372.142 54.0733 377.495 59.2391 382.805 64.0566C385.636 66.6249 387.249 68.618 391.929 65.6639" stroke="#D7EE00" stroke-width="6" stroke-linecap="round" stroke-linejoin="round"/>
<path d="M-46.8958 431.051C-50.7977 433.514 -51.4962 418.931 -52.0343 416.438C-53.3303 410.433 -58.6703 392.686 -49.1198 386.658C-32.5839 376.22 9.48698 424.795 22.7049 391.35C30.8377 370.772 25.252 351.547 33.0747 330.738C35.482 324.335 37.8912 316.524 44.7373 311.966C51.9356 307.173 58.4646 309.866 64.4464 311.461C74.1425 314.048 82.4154 318.659 91.1009 322.724C97.1941 325.577 105.681 330.619 114.407 327.359C132.337 320.66 129.34 291.64 130.778 280.657C132.547 267.161 135.758 242.664 153.079 233.746C160.859 229.74 170.184 234.962 175.304 237.508C184.742 242.2 192.922 248.343 202.474 252.884C207.868 255.448 215.582 261.082 223.459 258.322C231.595 255.471 234.275 246.886 235.387 240.462C237.516 228.154 237.567 216.175 239.631 203.86C241.065 195.304 242.179 184.26 249.504 176.365C256.632 168.683 265.474 170.753 272.323 172.422C283.846 175.23 294.789 181.053 307.473 181.431C336.865 182.307 342.473 151.02 346.411 130.693C348.343 120.718 356.52 82.0435 375.628 87.807C383.142 90.0733 388.495 95.2391 393.805 100.057C396.636 102.625 398.249 104.618 402.929 101.664" stroke="#D7EE00" stroke-width="6" stroke-linecap="round" stroke-linejoin="round"/>
<path d="M-35.8958 467.051C-39.7977 469.514 -40.4962 454.931 -41.0343 452.438C-42.3303 446.433 -47.6703 428.686 -38.1198 422.658C-21.5839 412.22 20.487 460.795 33.7049 427.35C41.8377 406.772 36.252 387.547 44.0747 366.738C46.482 360.335 48.8912 352.524 55.7373 347.966C62.9356 343.173 69.4646 345.866 75.4464 347.461C85.1425 350.048 93.4154 354.659 102.101 358.724C108.194 361.577 116.681 366.619 125.407 363.359C143.337 356.66 140.34 327.64 141.778 316.657C143.547 303.161 146.758 278.664 164.079 269.746C171.859 265.74 181.184 270.962 186.304 273.508C195.742 278.2 203.922 284.343 213.474 288.884C218.868 291.448 226.582 297.082 234.459 294.322C242.595 291.471 245.275 282.886 246.387 276.462C248.516 264.154 248.567 252.175 250.631 239.86C252.065 231.304 253.179 220.26 260.504 212.365C267.632 204.683 276.474 206.753 283.323 208.422C294.846 211.23 305.789 217.053 318.473 217.431C347.865 218.307 353.473 187.02 357.411 166.693C359.343 156.718 367.52 118.044 386.628 123.807C394.142 126.073 399.495 131.239 404.805 136.057C407.636 138.625 409.249 140.618 413.929 137.664" stroke="#D7EE00" stroke-width="6" stroke-linecap="round" stroke-linejoin="round"/>
<path d="M-24.8958 503.051C-28.7977 505.514 -29.4962 490.931 -30.0343 488.438C-31.3303 482.433 -36.6703 464.686 -27.1198 458.658C-10.5839 448.22 31.487 496.795 44.7049 463.35C52.8377 442.772 47.252 423.547 55.0747 402.738C57.482 396.335 59.8912 388.524 66.7373 383.966C73.9356 379.173 80.4646 381.866 86.4464 383.461C96.1425 386.048 104.415 390.659 113.101 394.724C119.194 397.577 127.681 402.619 136.407 399.359C154.337 392.66 151.34 363.64 152.778 352.657C154.547 339.161 157.758 314.664 175.079 305.746C182.859 301.74 192.184 306.962 197.304 309.508C206.742 314.2 214.922 320.343 224.474 324.884C229.868 327.448 237.582 333.082 245.459 330.322C253.595 327.471 256.275 318.886 257.387 312.462C259.516 300.154 259.567 288.175 261.631 275.86C263.065 267.304 264.179 256.26 271.504 248.365C278.632 240.683 287.474 242.753 294.323 244.422C305.846 247.23 316.789 253.053 329.473 253.431C358.865 254.307 364.473 223.02 368.411 202.693C370.343 192.718 378.52 154.044 397.628 159.807C405.142 162.073 410.495 167.239 415.805 172.057C418.636 174.625 420.249 176.618 424.929 173.664" stroke="#D7EE00" stroke-width="6" stroke-linecap="round" stroke-linejoin="round"/>
<path d="M-13.8958 539.051C-17.7977 541.514 -18.4962 526.931 -19.0343 524.438C-20.3303 518.433 -25.6703 500.686 -16.1198 494.658C0.416097 484.22 42.487 532.795 55.7049 499.35C63.8377 478.772 58.252 459.547 66.0747 438.738C68.482 432.335 70.8912 424.524 77.7373 419.966C84.9356 415.173 91.4646 417.866 97.4464 419.461C107.142 422.048 115.415 426.659 124.101 430.724C130.194 433.577 138.681 438.619 147.407 435.359C165.337 428.66 162.34 399.64 163.778 388.657C165.547 375.161 168.758 350.664 186.079 341.746C193.859 337.74 203.184 342.962 208.304 345.508C217.742 350.2 225.922 356.343 235.474 360.884C240.868 363.448 248.582 369.082 256.459 366.322C264.595 363.471 267.275 354.886 268.387 348.462C270.516 336.154 270.567 324.175 272.631 311.86C274.065 303.304 275.179 292.26 282.504 284.365C289.632 276.683 298.474 278.753 305.323 280.422C316.846 283.23 327.789 289.053 340.473 289.431C369.865 290.307 375.473 259.02 379.411 238.693C381.343 228.718 389.52 190.044 408.628 195.807C416.142 198.073 421.495 203.239 426.805 208.057C429.636 210.625 431.249 212.618 435.929 209.664" stroke="#D7EE00" stroke-width="6" stroke-linecap="round" stroke-linejoin="round"/>
<path d="M-2.8958 575.051C-6.7977 577.514 -7.49616 562.931 -8.03426 560.438C-9.33031 554.433 -14.6703 536.686 -5.11983 530.658C11.4161 520.22 53.487 568.795 66.7049 535.35C74.8377 514.772 69.252 495.547 77.0747 474.738C79.482 468.335 81.8912 460.524 88.7373 455.966C95.9356 451.173 102.465 453.866 108.446 455.461C118.142 458.048 126.415 462.659 135.101 466.724C141.194 469.577 149.681 474.619 158.407 471.359C176.337 464.66 173.34 435.64 174.778 424.657C176.547 411.161 179.758 386.664 197.079 377.746C204.859 373.74 214.184 378.962 219.304 381.508C228.742 386.2 236.922 392.343 246.474 396.884C251.868 399.448 259.582 405.082 267.459 402.322C275.595 399.471 278.275 390.886 279.387 384.462C281.516 372.154 281.567 360.175 283.631 347.86C285.065 339.304 286.179 328.26 293.504 320.365C300.632 312.683 309.474 314.753 316.323 316.422C327.846 319.23 338.789 325.053 351.473 325.431C380.865 326.307 386.473 295.02 390.411 274.693C392.343 264.718 400.52 226.044 419.628 231.807C427.142 234.073 432.495 239.239 437.805 244.057C440.636 246.625 442.249 248.618 446.929 245.664" stroke="#D7EE00" stroke-width="6" stroke-linecap="round" stroke-linejoin="round"/>
<path d="M8.1042 611.051C4.2023 613.514 3.50384 598.931 2.96574 596.438C1.66969 590.433 -3.67034 572.686 5.88017 566.658C22.4161 556.22 64.487 604.795 77.7049 571.35C85.8377 550.772 80.252 531.547 88.0747 510.738C90.482 504.335 92.8912 496.524 99.7373 491.966C106.936 487.173 113.465 489.866 119.446 491.461C129.142 494.048 137.415 498.659 146.101 502.724C152.194 505.577 160.681 510.619 169.407 507.359C187.337 500.66 184.34 471.64 185.778 460.657C187.547 447.161 190.758 422.664 208.079 413.746C215.859 409.74 225.184 414.962 230.304 417.508C239.742 422.2 247.922 428.343 257.474 432.884C262.868 435.448 270.582 441.082 278.459 438.322C286.595 435.471 289.275 426.886 290.387 420.462C292.516 408.154 292.567 396.175 294.631 383.86C296.065 375.304 297.179 364.26 304.504 356.365C311.632 348.683 320.474 350.753 327.323 352.422C338.846 355.23 349.789 361.053 362.473 361.431C391.865 362.307 397.473 331.02 401.411 310.693C403.343 300.718 411.52 262.044 430.628 267.807C438.142 270.073 443.495 275.239 448.805 280.057C451.636 282.625 453.249 284.618 457.929 281.664" stroke="#D7EE00" stroke-width="6" stroke-linecap="round" stroke-linejoin="round"/>
<path d="M19.1042 647.051C15.2023 649.514 14.5038 634.931 13.9657 632.438C12.6697 626.433 7.32966 608.686 16.8802 602.658C33.4161 592.22 75.487 640.795 88.7049 607.35C96.8377 586.772 91.252 567.547 99.0747 546.738C101.482 540.335 103.891 532.524 110.737 527.966C117.936 523.173 124.465 525.866 130.446 527.461C140.142 530.048 148.415 534.659 157.101 538.724C163.194 541.577 171.681 546.619 180.407 543.359C198.337 536.66 195.34 507.64 196.778 496.657C198.547 483.161 201.758 458.664 219.079 449.746C226.859 445.74 236.184 450.962 241.304 453.508C250.742 458.2 258.922 464.343 268.474 468.884C273.868 471.448 281.582 477.082 289.459 474.322C297.595 471.471 300.275 462.886 301.387 456.462C303.516 444.154 303.567 432.175 305.631 419.86C307.065 411.304 308.179 400.26 315.504 392.365C322.632 384.683 331.474 386.753 338.323 388.422C349.846 391.23 360.789 397.053 373.473 397.431C402.865 398.307 408.473 367.02 412.411 346.693C414.343 336.718 422.52 298.044 441.628 303.807C449.142 306.073 454.495 311.239 459.805 316.057C462.636 318.625 464.249 320.618 468.929 317.664" stroke="#D7EE00" stroke-width="6" stroke-linecap="round" stroke-linejoin="round"/>
<path d="M30.1042 683.051C26.2023 685.514 25.5038 670.931 24.9657 668.438C23.6697 662.433 18.3297 644.686 27.8802 638.658C44.4161 628.22 86.487 676.795 99.7049 643.35C107.838 622.772 102.252 603.547 110.075 582.738C112.482 576.335 114.891 568.524 121.737 563.966C128.936 559.173 135.465 561.866 141.446 563.461C151.142 566.048 159.415 570.659 168.101 574.724C174.194 577.577 182.681 582.619 191.407 579.359C209.337 572.66 206.34 543.64 207.778 532.657C209.547 519.161 212.758 494.664 230.079 485.746C237.859 481.74 247.184 486.962 252.304 489.508C261.742 494.2 269.922 500.343 279.474 504.884C284.868 507.448 292.582 513.082 300.459 510.322C308.595 507.471 311.275 498.886 312.387 492.462C314.516 480.154 314.567 468.175 316.631 455.86C318.065 447.304 319.179 436.26 326.504 428.365C333.632 420.683 342.474 422.753 349.323 424.422C360.846 427.23 371.789 433.053 384.473 433.431C413.865 434.307 419.473 403.02 423.411 382.693C425.343 372.718 433.52 334.044 452.628 339.807C460.142 342.073 465.495 347.239 470.805 352.057C473.636 354.625 475.249 356.618 479.929 353.664" stroke="#D7EE00" stroke-width="6" stroke-linecap="round" stroke-linejoin="round"/>
<path d="M41.1042 719.051C37.2023 721.514 36.5038 706.931 35.9657 704.438C34.6697 698.433 29.3297 680.686 38.8802 674.658C55.4161 664.22 97.487 712.795 110.705 679.35C118.838 658.772 113.252 639.547 121.075 618.738C123.482 612.335 125.891 604.524 132.737 599.966C139.936 595.173 146.465 597.866 152.446 599.461C162.142 602.048 170.415 606.659 179.101 610.724C185.194 613.577 193.681 618.619 202.407 615.359C220.337 608.66 217.34 579.64 218.778 568.657C220.547 555.161 223.758 530.664 241.079 521.746C248.859 517.74 258.184 522.962 263.304 525.508C272.742 530.2 280.922 536.343 290.474 540.884C295.868 543.448 303.582 549.082 311.459 546.322C319.595 543.471 322.275 534.886 323.387 528.462C325.516 516.154 325.567 504.175 327.631 491.86C329.065 483.304 330.179 472.26 337.504 464.365C344.632 456.683 353.474 458.753 360.323 460.422C371.846 463.23 382.789 469.053 395.473 469.431C424.865 470.307 430.473 439.02 434.411 418.693C436.343 408.718 444.52 370.044 463.628 375.807C471.142 378.073 476.495 383.239 481.805 388.057C484.636 390.625 486.249 392.618 490.929 389.664" stroke="#D7EE00" stroke-width="6" stroke-linecap="round" stroke-linejoin="round"/>
<path d="M52.1042 755.051C48.2023 757.514 47.5038 742.931 46.9657 740.438C45.6697 734.433 40.3297 716.686 49.8802 710.658C66.4161 700.22 108.487 748.795 121.705 715.35C129.838 694.772 124.252 675.547 132.075 654.738C134.482 648.335 136.891 640.524 143.737 635.966C150.936 631.173 157.465 633.866 163.446 635.461C173.142 638.048 181.415 642.659 190.101 646.724C196.194 649.577 204.681 654.619 213.407 651.359C231.337 644.66 228.34 615.64 229.778 604.657C231.547 591.161 234.758 566.664 252.079 557.746C259.859 553.74 269.184 558.962 274.304 561.508C283.742 566.2 291.922 572.343 301.474 576.884C306.868 579.448 314.582 585.082 322.459 582.322C330.595 579.471 333.275 570.886 334.387 564.462C336.516 552.154 336.567 540.175 338.631 527.86C340.065 519.304 341.179 508.26 348.504 500.365C355.632 492.683 364.474 494.753 371.323 496.422C382.846 499.23 393.789 505.053 406.473 505.431C435.865 506.307 441.473 475.02 445.411 454.693C447.343 444.718 455.52 406.044 474.628 411.807C482.142 414.073 487.495 419.239 492.805 424.057C495.636 426.625 497.249 428.618 501.929 425.664" stroke="#D7EE00" stroke-width="6" stroke-linecap="round" stroke-linejoin="round"/>
<path d="M0 580C0 552.386 22.3858 530 50 530H340C367.614 530 390 552.386 390 580V844H0V580Z" fill="#FD4A1E"/>
<g filter="url(#filter0_d_2049_1600)">
<rect x="60" y="79" width="270" height="57" rx="12.5" fill="#FEF8E5"/>
<rect x="61" y="80" width="268" height="55" rx="11.5" stroke="#333333" stroke-width="2"/>
</g>
<g clip-path="url(#clip1_2049_1600)">
<path d="M317.5 111.964L314.767 107.49L312.033 103.017L317.5 103.017L322.967 103.017L320.233 107.49L317.5 111.964Z" fill="#1A1A1A" stroke="black" stroke-width="0.218" stroke-miterlimit="10"/>
</g>
<g filter="url(#filter1_d_2049_1600)">
<rect x="151.75" y="745.75" width="98.5" height="64.5" fill="#FEF8E5" stroke="black" stroke-width="1.5"/>
<path d="M196.786 761.888C196.786 760.992 196.834 760.043 196.786 759.364C197.49 758.93 198.886 757.877 199.937 757.877H199.938C201.063 757.877 202.566 757.877 203.617 758.404C203.917 758.404 203.982 758.861 204.256 759.029C204.473 759.405 204.47 760.098 204.453 760.382C204.473 761.54 204.732 764.554 204.732 765.811V773.642C204.732 775.392 204.607 775.712 204.732 777.675C204.717 777.989 204.952 779.908 205.103 780.204C205.417 780.822 205.755 781.111 206.322 781.571C207.157 782.247 207.617 782.732 208.355 783.495C208.766 783.919 209.264 784.59 209.65 785.031C210.068 785.51 210.36 786.134 210.537 786.713C210.985 788.178 211.077 789.608 210.877 791.115C210.512 793.875 208.985 795.537 206.985 797.49C206.134 798.321 205.064 798.662 203.914 798.979C203.349 799.135 202.731 799.334 202.144 799.35C201.609 799.364 201.085 799.346 200.557 799.35C198.29 799.366 195.707 798.135 194.207 796.575C192.685 794.992 191.012 792.351 191 790.178C190.993 788.826 191.067 787.563 191.695 786.313C192.191 785.328 192.959 784.404 193.605 783.495C194.233 782.609 195.269 782.042 196.056 781.277C196.241 781.097 196.87 780.625 196.87 780.354C196.87 779.123 196.744 777.876 196.661 776.647C196.524 774.629 196.613 772.593 196.613 770.571C196.613 768.55 196.786 766.55 196.786 764.529V761.888Z" fill="#EAFC38" stroke="black" stroke-width="2" stroke-linecap="round" stroke-linejoin="round"/>
<path d="M201.516 779.1C201.454 779.105 203.519 779.152 204.119 779.1" stroke="black" stroke-linecap="round" stroke-linejoin="round"/>
<path d="M201.516 776.992C201.454 776.998 203.519 777.044 204.119 776.992" stroke="black" stroke-linecap="round" stroke-linejoin="round"/>
<path d="M203.617 795.145C204.01 795.095 204.573 794.82 204.573 794.82C205.137 794.546 205.969 793.762 206.338 792.973C206.722 792.151 206.951 791.48 206.877 790.876C206.828 790.477 206.681 789.278 205.97 788.355" stroke="black" stroke-linecap="round"/>
<path d="M201.516 772.778C201.454 772.784 203.519 772.83 204.119 772.778" stroke="black" stroke-linecap="round" stroke-linejoin="round"/>
<path d="M201.516 774.886C201.454 774.891 203.519 774.938 204.119 774.886" stroke="black" stroke-linecap="round" stroke-linejoin="round"/>
<path d="M201.516 770.673C201.454 770.678 203.519 770.725 204.119 770.673" stroke="black" stroke-linecap="round" stroke-linejoin="round"/>
<path d="M211.187 758.053C211.187 758.635 210.716 759.107 210.136 759.107C209.555 759.107 209.084 758.635 209.084 758.053C209.084 757.472 209.555 757 210.136 757C210.716 757 211.187 757.472 211.187 758.053Z" fill="black"/>
<path d="M201.516 766.459C201.454 766.464 203.519 766.511 204.119 766.459" stroke="black" stroke-linecap="round" stroke-linejoin="round"/>
<path d="M201.516 764.353C201.454 764.358 203.519 764.405 204.119 764.353" stroke="black" stroke-linecap="round" stroke-linejoin="round"/>
<path d="M201.516 768.566C201.454 768.572 203.519 768.618 204.119 768.566" stroke="black" stroke-linecap="round" stroke-linejoin="round"/>
<path d="M53.75 757C53.75 750.787 58.7868 745.75 65 745.75H152.25V810.25H65C58.7868 810.25 53.75 805.213 53.75 799V757Z" fill="#FEF8E5" stroke="black" stroke-width="1.5"/>
<path d="M105.399 765.664C99.8433 765.047 99.2457 765.51 96.3643 766.193C92.2152 767.177 88.2104 770.211 86.0425 774.294C81.6733 782.521 87.488 793.586 96.4669 796.145C99.8346 797.105 104.929 797.293 108.264 795.898C112.862 793.974 116.489 790.67 117.8 785.719C118.518 783.005 118.642 780.197 118.14 777.38C117.719 775.014 116.505 772.908 115.116 771.057C113.807 769.313 111.503 767.635 109.499 766.886C108.387 766.471 107.645 765.984 104.823 765.574" stroke="black" stroke-width="2" stroke-linecap="round" stroke-linejoin="round"/>
<path d="M104.134 774.282C103.914 774.282 103.488 779.672 103.401 780.506C103.331 781.175 103.027 784.524 102.9 784.458C102.13 784.058 96.2044 784.572 96.1248 784.294" stroke="black" stroke-width="2" stroke-linecap="round" stroke-linejoin="round"/>
<path d="M109.036 795.85C108.726 795.85 108.772 795.621 108.899 795.889C109.118 796.354 109.353 796.813 109.571 797.279C109.992 798.179 110.368 799.141 110.801 800.018C111.139 800.702 111.375 801.513 111.617 802.239" stroke="black" stroke-width="2" stroke-linecap="round" stroke-linejoin="round"/>
<path d="M94.3867 795.931C94.7518 796.129 94.3868 795.865 94.3163 795.893C93.7944 796.097 93.2999 798.224 93.12 798.731C92.8222 799.571 92.4995 800.553 92.105 801.341" stroke="black" stroke-width="2" stroke-linecap="round" stroke-linejoin="round"/>
<path d="M93.1083 760.125C94.2263 762.714 91.3137 763.185 88.3266 764.475C85.3395 765.765 82.8968 767.753 81.7788 765.164C80.6608 762.575 82.176 759.431 85.1631 758.141C88.1502 756.851 91.9904 757.536 93.1083 760.125Z" fill="#FEF8E5"/>
<path d="M112.08 759.453C110.801 761.966 113.678 762.62 116.578 764.096C119.478 765.571 121.791 767.709 123.07 765.195C124.349 762.682 123.034 759.448 120.134 757.973C117.234 756.497 113.359 756.94 112.08 759.453Z" fill="#FEF8E5"/>
<path d="M82.8966 767.981C84.7713 767.022 87.6559 765.035 89.8856 763.832C90.9959 763.233 92.1573 762.756 93.2547 762.122C93.4098 762.032 94.2867 761.696 94.6794 761.304" stroke="black" stroke-width="2" stroke-linecap="round" stroke-linejoin="round"/>
<path d="M121.777 767.936C119.966 766.861 117.213 764.697 115.063 763.355C113.993 762.687 112.864 762.138 111.808 761.437C111.659 761.338 110.805 760.947 110.438 760.53" stroke="black" stroke-width="2" stroke-linecap="round" stroke-linejoin="round"/>
<path d="M115.744 765.104C114.71 766.409 114.643 766.421 114.118 767.101C113.918 767.361 113.532 767.98 113.063 768.581" stroke="black" stroke-width="2" stroke-linecap="round" stroke-linejoin="round"/>
<path d="M87.6975 765.82C88.3952 766.801 88.799 767.137 89.3233 767.817C89.524 768.077 89.9466 768.627 90.359 769.158" stroke="black" stroke-width="2" stroke-linecap="round" stroke-linejoin="round"/>
<path d="M98.3757 759.613C99.6826 759.613 100.963 759.613 102.236 759.613C102.524 759.587 102.9 759.613 103.713 759.613" stroke="black" stroke-width="2" stroke-linecap="round" stroke-linejoin="round"/>
<path d="M100.995 760.308C100.86 760.308 100.954 762.519 100.954 762.87C100.954 763.572 101.032 765.678 101.032 764.976" stroke="black" stroke-width="2" stroke-linecap="round" stroke-linejoin="round"/>
<path d="M82.8966 767.98C82.5038 767.588 82.024 766.095 81.9299 765.625C81.6148 764.052 81.6867 762.313 82.5039 760.517C83.84 757.58 86.672 756.828 89.6805 757.414C90.9215 757.656 92.1017 758.359 92.9904 759.235C93.2273 759.469 94.2866 760.91 94.6794 761.302" stroke="black" stroke-width="2" stroke-linecap="round" stroke-linejoin="round"/>
<path d="M121.777 767.936C122.194 767.568 122.766 766.109 122.89 765.646C123.303 764.096 123.341 762.356 122.639 760.512C121.49 757.497 118.711 756.568 115.672 756.963C114.418 757.126 113.196 757.754 112.254 758.572C112.002 758.791 110.855 760.162 110.438 760.529" stroke="black" stroke-width="2" stroke-linecap="round" stroke-linejoin="round"/>
<path d="M249.75 745.75H337C343.213 745.75 348.25 750.787 348.25 757V799C348.25 805.213 343.213 810.25 337 810.25H249.75V745.75Z" fill="#FEF8E5" stroke="black" stroke-width="1.5"/>
<path d="M289.146 759.744C290.074 761.779 289.776 761.061 290.074 761.779C291.112 764.272 292.152 766.829 293.516 769.164C296.441 774.174 299.64 779.099 302.297 784.258C303.33 786.265 304.706 788.078 305.811 790.047C306.81 791.826 307.725 793.682 308.823 795.399C309.32 796.177 309.841 796.939 310.325 797.721C310.476 797.966 310.635 798.812 310.635 798.525" stroke="black" stroke-width="2" stroke-linecap="round" stroke-linejoin="round"/>
<path d="M300.711 757.002C300.677 757.437 300.53 758.582 300.55 759.116C300.389 761.151 300.504 762.833 300.36 764.685C299.864 771.06 299.639 777.451 299.143 783.826C299.056 784.947 298.015 801.305 298.177 801.328" stroke="black" stroke-width="2" stroke-linecap="round" stroke-linejoin="round"/>
<path d="M281.286 766.83C281.643 767.085 282.553 767.806 283.025 768.068C284.695 769.265 286.205 770.044 287.728 771.132C292.965 774.874 298.358 778.396 303.595 782.138C304.517 782.796 318.078 792.203 318.182 792.078" stroke="black" stroke-width="2" stroke-linecap="round" stroke-linejoin="round"/>
<path d="M277 775.465L322 783.22" stroke="black" stroke-width="2" stroke-linecap="round"/>
<path d="M279.803 784.78L321.847 774.541" stroke="black" stroke-width="2" stroke-linecap="round"/>
<path d="M285.409 796.605L314.373 762.519" stroke="black" stroke-width="2" stroke-linecap="round"/>
<ellipse cx="299.374" cy="779.114" rx="16.5602" ry="14.8471" fill="#FEF8E5"/>
<path d="M303.004 764.848C297.865 764.277 297.312 764.706 294.647 765.338C290.808 766.248 287.103 769.055 285.098 772.832C281.056 780.443 286.435 790.68 294.741 793.047C297.857 793.935 302.57 794.109 305.655 792.818C309.909 791.039 313.265 787.982 314.477 783.401C315.141 780.891 315.256 778.293 314.792 775.687C314.402 773.499 313.279 771.55 311.994 769.838C310.783 768.224 308.652 766.672 306.797 765.979C305.769 765.595 305.083 765.145 302.472 764.765" stroke="black" stroke-width="2" stroke-linecap="round" stroke-linejoin="round"/>
</g>
<path d="M28.2795 589.475V588.825C29.2795 588.85 30.2795 588.85 31.2795 588.85C32.2795 588.85 33.3045 588.85 34.3045 588.825C34.3295 589.225 34.3295 589.6 34.3295 589.925C34.3295 594.9 31.4045 597.325 25.3795 597.325C19.0295 597.325 15.9545 594.425 15.9545 587.375C15.9545 580.925 18.9295 577.925 25.4545 577.925C31.8545 577.925 34.2795 580.425 34.2795 584.5C34.2795 584.975 34.2545 585.5 34.2045 586.05C33.2045 586 32.1795 586 31.2045 586C30.2045 586 29.2295 586 28.2295 586.05C28.2545 585.85 28.2545 585.65 28.2545 585.5C28.2545 583.375 27.2795 582.65 25.3795 582.65C23.2795 582.675 22.2795 583.65 22.2795 587.35C22.2795 591.025 23.3045 592.25 25.5045 592.25C27.4295 592.25 28.2795 591.15 28.2795 589.475ZM48.8449 578.25H55.1699C55.0949 580.825 55.0699 583.65 55.0699 587.625C55.0699 591.6 55.0949 594.3 55.1699 597H48.8449C48.8949 595.2 48.9199 592.475 48.9449 590.3C48.0449 590.275 47.0449 590.275 46.0449 590.275C45.0449 590.275 44.0449 590.275 43.1449 590.3C43.1449 592.475 43.1699 595.175 43.2449 597H36.9199C37.0199 594.3 37.0199 591.6 37.0199 587.625C37.0199 583.65 37.0199 580.825 36.9199 578.25H43.2449C43.1699 580 43.1449 582.825 43.1449 585.075C44.0449 585.1 45.0449 585.125 46.0449 585.125C47.0449 585.125 48.0449 585.1 48.9449 585.075C48.9199 582.825 48.8949 580 48.8449 578.25ZM77.1037 587.3C77.1037 594.075 73.7537 597.35 67.3287 597.35C60.9037 597.35 57.6787 594.075 57.6787 587.3C57.6787 580.525 61.2537 577.9 67.3537 577.9C73.4287 577.9 77.1037 580.525 77.1037 587.3ZM67.3537 592.3C69.6037 592.3 70.7287 590.75 70.7287 587.375C70.7287 584.05 69.5787 582.675 67.3537 582.675C65.1287 582.675 63.9537 584 63.9537 587.375C63.9537 590.8 65.1287 592.3 67.3537 592.3ZM98.2951 587.3C98.2951 594.075 94.9451 597.35 88.5201 597.35C82.0951 597.35 78.8701 594.075 78.8701 587.3C78.8701 580.525 82.4451 577.9 88.5451 577.9C94.6201 577.9 98.2951 580.525 98.2951 587.3ZM88.5451 592.3C90.7951 592.3 91.9201 590.75 91.9201 587.375C91.9201 584.05 90.7701 582.675 88.5451 582.675C86.3201 582.675 85.1451 584 85.1451 587.375C85.1451 590.8 86.3201 592.3 88.5451 592.3ZM105.737 590.875V591.225C105.737 592.65 106.387 593.175 108.537 593.175C110.637 593.175 111.212 592.675 111.212 591.75C111.212 590.675 110.637 589.95 107.387 589.5C101.662 588.725 100.262 586.8 100.262 583.55C100.262 580 102.812 577.9 108.562 577.9C114.962 577.9 116.937 579.75 116.937 583.1C116.937 583.45 116.912 583.825 116.887 584.225C116.137 584.175 114.912 584.15 113.837 584.15C112.987 584.15 112.162 584.15 111.637 584.175C111.662 584 111.662 583.825 111.662 583.675C111.662 582.675 111.112 582.025 108.737 582.025C106.912 582.025 106.337 582.55 106.337 583.35C106.337 584.25 106.737 585 110.262 585.525C115.387 586.3 117.187 587.925 117.187 591.575C117.187 595.225 114.887 597.35 108.837 597.35C102.337 597.35 100.212 595.575 100.212 592.1C100.212 591.675 100.212 591.225 100.262 590.775C101.087 590.85 102.337 590.925 103.512 590.925C104.362 590.925 105.162 590.925 105.737 590.875ZM119.61 578.25H134.66C134.635 578.775 134.61 579.725 134.61 580.45C134.61 581.225 134.61 582.3 134.66 582.85C131.61 582.825 128.285 582.8 125.785 582.8V585.425C128.76 585.425 131.985 585.425 134.435 585.35C134.41 586.275 134.41 588.45 134.41 589.45C131.985 589.4 128.735 589.375 125.785 589.375V592.1C128.31 592.1 131.81 592.075 134.66 592.05C134.61 592.65 134.61 593.75 134.61 594.625C134.61 595.375 134.61 596.375 134.66 597H119.61C119.685 594.475 119.685 591.625 119.685 587.625C119.685 583.65 119.685 580.675 119.61 578.25ZM155.623 589.475V588.825C156.623 588.85 157.623 588.85 158.623 588.85C159.623 588.85 160.648 588.85 161.648 588.825C161.673 589.225 161.673 589.6 161.673 589.925C161.673 594.9 158.748 597.325 152.723 597.325C146.373 597.325 143.298 594.425 143.298 587.375C143.298 580.925 146.273 577.925 152.798 577.925C159.198 577.925 161.623 580.425 161.623 584.5C161.623 584.975 161.598 585.5 161.548 586.05C160.548 586 159.523 586 158.548 586C157.548 586 156.573 586 155.573 586.05C155.598 585.85 155.598 585.65 155.598 585.5C155.598 583.375 154.623 582.65 152.723 582.65C150.623 582.675 149.623 583.65 149.623 587.35C149.623 591.025 150.648 592.25 152.848 592.25C154.773 592.25 155.623 591.15 155.623 589.475ZM182.939 587.3C182.939 594.075 179.589 597.35 173.164 597.35C166.739 597.35 163.514 594.075 163.514 587.3C163.514 580.525 167.089 577.9 173.189 577.9C179.264 577.9 182.939 580.525 182.939 587.3ZM173.189 592.3C175.439 592.3 176.564 590.75 176.564 587.375C176.564 584.05 175.414 582.675 173.189 582.675C170.964 582.675 169.789 584 169.789 587.375C169.789 590.8 170.964 592.3 173.189 592.3ZM185.455 578.25H191.905C191.855 579.65 191.805 583.45 191.78 587.6C191.78 588.925 191.78 590.275 191.805 591.45C193.53 591.45 195.83 591.425 197.83 591.375C197.83 592.3 197.805 593.25 197.805 594.175C197.805 595.125 197.83 596.05 197.83 597H185.455C185.455 595.475 185.53 591.625 185.53 587.625C185.53 583.325 185.53 580.05 185.455 578.25ZM218.144 587.3C218.144 594.075 214.794 597.35 208.369 597.35C201.944 597.35 198.719 594.075 198.719 587.3C198.719 580.525 202.294 577.9 208.394 577.9C214.469 577.9 218.144 580.525 218.144 587.3ZM208.394 592.3C210.644 592.3 211.769 590.75 211.769 587.375C211.769 584.05 210.619 582.675 208.394 582.675C206.169 582.675 204.994 584 204.994 587.375C204.994 590.8 206.169 592.3 208.394 592.3ZM229.71 587.3C231.36 587.3 232.11 586.525 232.11 584.85C232.11 582.85 231.26 582.4 229.385 582.4C228.86 582.4 227.635 582.425 226.66 582.45C226.66 584.075 226.66 585.7 226.685 587.25C227.385 587.275 228.485 587.275 229.71 587.3ZM233.66 589.4V589.55C236.235 589.875 237.26 590.625 237.885 593.15C238.285 594.575 238.66 596.15 238.91 597H233.335C232.41 597 232.235 596.675 231.81 594.75C231.21 591.6 230.86 591.05 229.335 591.05C228.435 591.05 227.91 591.025 226.71 591.05C226.76 593.45 226.835 595.525 226.985 597H220.66C220.71 594.275 220.76 591.625 220.76 587.625C220.76 583.65 220.735 580.95 220.66 578.25H230.885C235.46 578.25 238.085 579.95 238.085 583.9C238.085 587.325 236.835 588.9 233.66 589.4ZM267.687 578.25H272.837C271.737 582.6 269.437 594.275 268.887 597C268.012 596.975 266.787 596.95 265.387 596.95C263.437 596.95 262.012 596.975 261.412 597C261.162 595.525 260.587 591.925 260.062 588.7C259.862 587.3 259.687 585.675 259.512 584.225H259.387C259.187 585.7 258.987 587.375 258.737 588.75C258.187 591.85 257.537 595.375 257.262 597C256.437 597 254.962 596.95 253.612 596.95C251.787 596.95 250.712 596.975 250.137 597C249.462 593.9 247.337 582.625 246.162 578.25H252.762C252.862 579.625 253.587 584.975 254.137 588.625C254.312 589.75 254.462 590.875 254.612 591.775H254.762C254.912 590.85 255.087 589.75 255.287 588.575C255.837 584.975 256.662 580.05 256.787 578.25C257.662 578.275 259.412 578.275 260.412 578.275C261.412 578.275 262.887 578.275 263.712 578.25C263.887 579.9 264.487 584.95 265.137 588.675C265.362 589.925 265.512 591 265.637 591.875H265.787C265.912 590.975 266.037 589.9 266.262 588.675C266.812 584.975 267.512 580.075 267.687 578.25ZM282.115 589.575H284.265C283.865 587.75 283.44 585.875 283.015 584.25C282.64 582.975 282.365 581.75 282.165 580.85H282.09C281.865 581.75 281.59 582.95 281.215 584.3C280.84 585.925 280.415 587.775 279.99 589.575H282.115ZM292.665 597H285.665C285.59 596.325 285.39 595.025 285.065 593.425C283.99 593.425 282.94 593.425 282.115 593.425C281.34 593.425 280.265 593.425 279.165 593.425C278.84 594.975 278.59 596.25 278.49 597H272.09C273.615 592.3 276.64 580.85 277.265 578.25H287.29C287.99 580.875 291.04 592.225 292.665 597ZM303.27 587.3C304.92 587.3 305.67 586.525 305.67 584.85C305.67 582.85 304.82 582.4 302.945 582.4C302.42 582.4 301.195 582.425 300.22 582.45C300.22 584.075 300.22 585.7 300.245 587.25C300.945 587.275 302.045 587.275 303.27 587.3ZM307.22 589.4V589.55C309.795 589.875 310.82 590.625 311.445 593.15C311.845 594.575 312.22 596.15 312.47 597H306.895C305.97 597 305.795 596.675 305.37 594.75C304.77 591.6 304.42 591.05 302.895 591.05C301.995 591.05 301.47 591.025 300.27 591.05C300.32 593.45 300.395 595.525 300.545 597H294.22C294.27 594.275 294.32 591.625 294.32 587.625C294.32 583.65 294.295 580.95 294.22 578.25H304.445C309.02 578.25 311.645 579.95 311.645 583.9C311.645 587.325 310.395 588.9 307.22 589.4ZM336.927 597H330.977C331.102 594.1 331.152 591.9 331.177 588.8C331.177 587.575 331.252 586.175 331.327 584.825L331.177 584.8C330.802 586.225 330.377 587.65 330.027 588.675L326.877 597H324.227L321.002 588.475C320.627 587.425 320.202 586.025 319.827 584.675L319.702 584.7C319.752 586.05 319.827 587.35 319.852 588.725C319.877 591.875 319.927 594.15 320.002 597H314.777C314.852 594.3 314.877 591.575 314.877 587.6C314.877 583.5 314.852 580.7 314.802 578.25H322.627C323.202 580 324.152 582.875 325.302 585.925C325.552 586.75 325.852 587.875 326.127 588.95H326.202C326.502 587.875 326.802 586.8 327.077 585.95C328.127 582.95 329.152 579.975 329.727 578.25H336.902C336.827 580.7 336.802 583.5 336.802 587.6C336.802 591.575 336.827 594.3 336.927 597ZM338.967 578.25H353.967C353.942 578.95 353.942 580.025 353.942 581C353.942 581.925 353.942 583.1 353.967 583.85C352.492 583.825 351.017 583.8 349.667 583.8C349.667 589.825 349.692 595.675 349.767 597.025C348.892 596.95 347.467 596.95 346.467 596.95C345.467 596.95 344.092 596.95 343.192 597.025C343.267 595.675 343.292 589.85 343.292 583.8C341.942 583.8 340.467 583.825 338.967 583.85C338.992 583.1 338.992 581.925 338.992 581C338.992 580.025 338.992 578.95 338.967 578.25ZM367.937 578.25H374.262C374.187 580.825 374.162 583.65 374.162 587.625C374.162 591.6 374.187 594.3 374.262 597H367.937C367.987 595.2 368.012 592.475 368.037 590.3C367.137 590.275 366.137 590.275 365.137 590.275C364.137 590.275 363.137 590.275 362.237 590.3C362.237 592.475 362.262 595.175 362.337 597H356.012C356.112 594.3 356.112 591.6 356.112 587.625C356.112 583.65 356.112 580.825 356.012 578.25H362.337C362.262 580 362.237 582.825 362.237 585.075C363.137 585.1 364.137 585.125 365.137 585.125C366.137 585.125 367.137 585.1 368.037 585.075C368.012 582.825 367.987 580 367.937 578.25Z" fill="#FEF8E5"/>
<g filter="url(#filter2_d_2049_1600)">
<path d="M253.257 640.75H346.5C352.713 640.75 357.75 645.787 357.75 652V694C357.75 700.213 352.713 705.25 346.5 705.25H253.257V640.75Z" fill="#FEF8E5" stroke="black" stroke-width="1.5"/>
<path d="M44.8316 652C44.8316 645.787 49.8684 640.75 56.0816 640.75H149.324V705.25H56.0816C49.8684 705.25 44.8316 700.213 44.8316 694V652Z" fill="#FEF8E5" stroke="black" stroke-width="1.5"/>
<path d="M149.743 640.75H254.236V705.25H149.743V640.75Z" fill="#EAFC38" stroke="black" stroke-width="1.5"/>
<path d="M168.954 657.526H171.754C171.738 658.79 171.706 660.966 171.706 663.51C171.706 666.166 171.706 667.958 171.738 669.526H168.458C167.866 668.358 165.994 665.51 164.458 663.19C163.978 662.406 163.578 661.606 163.258 660.806C163.338 661.846 163.386 662.822 163.402 663.75C163.418 666.694 163.418 668.71 163.466 669.526H160.586C160.602 667.942 160.634 666.086 160.634 663.526C160.634 660.982 160.634 659.062 160.586 657.526H164.314C164.73 658.374 166.794 661.382 168.202 663.702C168.586 664.342 168.954 665.094 169.226 665.83C169.146 664.886 169.082 663.942 169.082 663.062C169.082 661.014 169.018 658.582 168.954 657.526ZM174.461 657.526H183.965C183.949 657.798 183.933 658.358 183.933 658.758C183.933 659.19 183.933 659.862 183.965 660.166C181.773 660.15 179.357 660.134 177.581 660.134V662.246C179.709 662.246 182.061 662.246 183.821 662.198C183.805 662.742 183.805 664.086 183.805 664.662C182.077 664.63 179.693 664.614 177.581 664.614V666.79C179.357 666.79 181.869 666.774 183.965 666.758C183.933 667.078 183.933 667.75 183.933 668.23C183.933 668.614 183.933 669.206 183.965 669.526H174.461C174.525 667.958 174.525 666.086 174.525 663.526C174.525 660.982 174.525 659.014 174.461 657.526ZM194.446 657.526H197.646C197.614 658.502 197.582 659.494 197.582 660.95C197.582 661.894 197.614 663.318 197.614 664.454C197.614 667.654 196.046 669.75 192.046 669.75C188.046 669.75 186.462 667.654 186.462 664.454C186.462 663.318 186.494 661.894 186.494 660.95C186.494 659.494 186.462 658.502 186.43 657.526H189.63C189.566 659.254 189.55 662.598 189.55 664.374C189.55 666.182 190.334 666.966 192.11 666.966C193.838 666.966 194.51 666.182 194.51 664.374C194.51 662.598 194.478 659.238 194.446 657.526ZM199.313 657.526H208.913C208.897 657.862 208.897 658.39 208.897 658.886C208.897 659.318 208.897 659.894 208.913 660.262C207.777 660.246 206.641 660.23 205.633 660.23C205.633 664.438 205.649 668.598 205.697 669.542C205.281 669.494 204.577 669.494 204.113 669.494C203.633 669.494 202.993 669.494 202.529 669.542C202.577 668.614 202.593 664.454 202.593 660.23C201.585 660.23 200.449 660.246 199.313 660.262C199.329 659.894 199.329 659.318 199.329 658.886C199.329 658.39 199.329 657.878 199.313 657.526ZM213.674 663.366C214.218 663.382 215.21 663.382 216.314 663.398C217.61 663.398 218.25 662.838 218.25 661.718C218.25 660.326 217.53 660.022 216.01 660.022C215.562 660.022 214.442 660.038 213.674 660.07C213.674 661.19 213.674 662.294 213.674 663.366ZM218.474 664.806V664.886C220.026 665.078 220.618 665.51 221.13 667.046C221.466 668.054 221.77 669.014 221.962 669.526H218.938C218.426 669.526 218.378 669.366 218.01 667.958C217.482 666.022 217.21 665.702 216.058 665.702C215.274 665.702 214.858 665.702 213.706 665.718C213.722 667.254 213.77 668.598 213.85 669.526H210.602C210.618 667.782 210.65 666.086 210.65 663.526C210.65 660.982 210.634 659.254 210.602 657.526H216.634C219.562 657.526 221.274 658.79 221.274 661.222C221.274 663.35 220.474 664.47 218.474 664.806ZM227.911 661.366L226.855 664.87C227.495 664.886 228.151 664.886 228.631 664.886C229.127 664.886 229.799 664.886 230.455 664.87C230.103 663.654 229.703 662.374 229.367 661.318C229.031 660.342 228.823 659.59 228.647 659.046C228.471 659.59 228.247 660.326 227.911 661.366ZM235.303 669.526H231.719C231.655 669.126 231.415 668.246 231.111 667.126C230.215 667.126 229.303 667.126 228.615 667.126C227.975 667.126 227.063 667.126 226.183 667.126C225.879 668.182 225.623 669.062 225.511 669.526H222.199C223.351 666.534 225.735 659.254 226.295 657.526H231.111C231.703 659.27 234.071 666.47 235.303 669.526ZM236.633 657.526H239.833C239.785 658.438 239.753 660.774 239.753 663.494C239.753 664.63 239.753 665.83 239.769 666.758C241.097 666.758 242.969 666.758 244.489 666.71C244.489 667.174 244.473 667.638 244.473 668.118C244.473 668.598 244.489 669.062 244.489 669.526H236.633C236.633 668.534 236.681 666.086 236.681 663.526C236.681 660.678 236.681 658.662 236.633 657.526ZM185.983 681.814C185.359 681.814 184.783 681.814 184.415 681.846C184.431 681.734 184.431 681.622 184.431 681.526C184.431 680.454 183.631 679.926 182.079 679.926C180.143 679.926 179.263 680.79 179.263 683.462C179.263 686.006 180.047 687.174 182.191 687.174C183.871 687.174 184.463 686.518 184.495 684.982C183.535 684.998 182.383 685.014 181.567 685.03C181.583 684.822 181.583 684.406 181.583 684.198C181.583 683.686 181.583 683.27 181.567 682.934C182.575 682.95 183.615 682.95 184.367 682.95C185.199 682.95 186.287 682.966 187.407 682.934C187.679 687.126 186.879 689.734 182.063 689.734C178.031 689.734 176.111 687.126 176.095 683.414C176.095 679.67 178.079 677.318 182.079 677.318C185.983 677.318 187.487 679.382 187.487 681.238C187.487 681.43 187.487 681.638 187.471 681.846C187.119 681.83 186.543 681.814 185.983 681.814ZM189.953 677.526H193.153C193.105 678.438 193.073 680.774 193.073 683.494C193.073 684.63 193.073 685.83 193.089 686.758C194.417 686.758 196.289 686.758 197.809 686.71C197.809 687.174 197.793 687.638 197.793 688.118C197.793 688.598 197.809 689.062 197.809 689.526H189.953C189.953 688.534 190.001 686.086 190.001 683.526C190.001 680.678 190.001 678.662 189.953 677.526ZM210.677 683.366C210.677 687.462 208.325 689.766 204.597 689.766C200.869 689.766 198.565 687.462 198.565 683.366C198.565 679.238 201.029 677.286 204.597 677.286C208.165 677.286 210.677 679.238 210.677 683.366ZM204.613 686.966C206.501 686.966 207.493 685.702 207.493 683.462C207.493 681.206 206.485 680.07 204.613 680.07C202.741 680.07 201.701 681.174 201.701 683.462C201.701 685.734 202.725 686.966 204.613 686.966ZM225.549 677.526H228.525C227.757 680.198 226.061 687.59 225.597 689.526C225.149 689.51 224.509 689.494 223.805 689.494C222.845 689.494 222.029 689.51 221.661 689.526C221.453 688.438 220.941 685.718 220.525 683.446C220.365 682.534 220.189 681.494 220.061 680.614H220.013C219.869 681.51 219.693 682.566 219.485 683.478C219.037 685.654 218.477 688.31 218.221 689.526C217.773 689.51 216.957 689.494 216.333 689.494C215.405 689.494 214.845 689.51 214.525 689.526C213.965 687.334 212.413 680.214 211.565 677.526H215.085C215.181 678.486 215.821 682.214 216.285 684.758C216.429 685.606 216.557 686.342 216.669 686.918H216.765C216.861 686.326 217.021 685.59 217.181 684.726C217.613 682.278 218.269 678.822 218.397 677.526C218.909 677.542 219.901 677.542 220.477 677.542C221.069 677.542 221.805 677.542 222.285 677.526C222.445 678.742 222.989 682.214 223.517 684.79C223.725 685.734 223.837 686.454 223.933 687.014H224.029C224.109 686.438 224.221 685.734 224.397 684.806C224.813 682.278 225.389 678.822 225.549 677.526Z" fill="black"/>
<path d="M81.5033 661.901V661.597C81.5033 659.693 80.4793 658.941 78.4953 658.941C76.4153 658.941 75.1513 659.997 75.1513 662.925C75.1513 665.917 76.4633 667.133 78.5753 667.133C80.6393 667.133 81.5353 666.125 81.5353 664.493V664.173C81.9353 664.189 82.2873 664.189 82.6873 664.189C83.0713 664.189 83.4713 664.189 83.8713 664.173V664.637C83.8713 667.453 82.0953 669.245 78.5913 669.245C75.0393 669.245 72.7353 667.261 72.7353 662.989C72.7353 659.069 74.8153 656.861 78.5913 656.861C82.2553 656.861 83.8233 658.733 83.8233 661.229C83.8233 661.453 83.8233 661.661 83.8073 661.901C83.4233 661.885 83.0233 661.885 82.6393 661.885C82.2393 661.885 81.8873 661.885 81.5033 661.901ZM97.4503 662.925C97.4503 667.005 95.1623 669.277 91.5303 669.277C87.8983 669.277 85.6423 667.005 85.6423 662.925C85.6423 658.845 88.0263 656.829 91.5303 656.829C95.0503 656.829 97.4503 658.845 97.4503 662.925ZM91.5463 667.165C93.7703 667.165 95.0503 665.725 95.0503 663.005C95.0503 660.285 93.7543 658.925 91.5463 658.925C89.3223 658.925 88.0103 660.253 88.0103 663.005C88.0103 665.741 89.3223 667.165 91.5463 667.165ZM110.903 662.925C110.903 667.005 108.615 669.277 104.983 669.277C101.351 669.277 99.0954 667.005 99.0954 662.925C99.0954 658.845 101.479 656.829 104.983 656.829C108.503 656.829 110.903 658.845 110.903 662.925ZM104.999 667.165C107.223 667.165 108.503 665.725 108.503 663.005C108.503 660.285 107.207 658.925 104.999 658.925C102.775 658.925 101.463 660.253 101.463 663.005C101.463 665.741 102.775 667.165 104.999 667.165ZM113.269 657.053H115.717C115.669 657.997 115.637 660.237 115.637 663.021C115.637 664.413 115.653 665.933 115.653 666.957C117.125 666.957 119.157 666.957 120.821 666.909C120.821 667.261 120.805 667.629 120.805 667.981C120.805 668.349 120.821 668.701 120.821 669.053H113.269C113.269 668.045 113.317 665.613 113.317 663.053C113.317 660.125 113.317 658.189 113.269 657.053ZM82.1261 682.605C82.4141 686.877 81.5021 689.261 76.9581 689.261C73.1821 689.261 71.1341 686.813 71.1341 682.941C71.1341 679.053 73.1981 676.845 77.0061 676.845C80.7021 676.845 82.1741 678.765 82.1741 680.781C82.1741 681.005 82.1741 681.181 82.1581 681.405C81.8861 681.389 81.4701 681.373 81.0381 681.373C80.5581 681.373 80.1261 681.373 79.8381 681.405C79.8541 681.261 79.8541 681.117 79.8541 681.005C79.8541 679.597 78.9101 678.829 76.9901 678.829C74.7821 678.829 73.5181 679.933 73.5181 682.973C73.5181 685.933 74.7341 687.309 77.0541 687.309C79.1981 687.309 79.9661 686.445 79.9181 684.189C78.8301 684.205 77.2941 684.205 76.3981 684.237C76.4141 684.077 76.4141 683.757 76.4141 683.581C76.4141 683.181 76.4141 682.861 76.3981 682.589C77.3741 682.621 78.3501 682.621 79.0701 682.621C79.8861 682.621 81.0381 682.637 82.1261 682.605ZM84.9014 677.053H87.3494C87.3014 677.997 87.2694 680.237 87.2694 683.021C87.2694 684.413 87.2854 685.933 87.2854 686.957C88.7574 686.957 90.7894 686.957 92.4534 686.909C92.4534 687.261 92.4374 687.629 92.4374 687.981C92.4374 688.349 92.4534 688.701 92.4534 689.053H84.9014C84.9014 688.045 84.9494 685.613 84.9494 683.053C84.9494 680.125 84.9494 678.189 84.9014 677.053ZM105.021 682.925C105.021 687.005 102.733 689.277 99.1006 689.277C95.4686 689.277 93.2126 687.005 93.2126 682.925C93.2126 678.845 95.5966 676.829 99.1006 676.829C102.621 676.829 105.021 678.845 105.021 682.925ZM99.1166 687.165C101.341 687.165 102.621 685.725 102.621 683.005C102.621 680.285 101.325 678.925 99.1166 678.925C96.8926 678.925 95.5806 680.253 95.5806 683.005C95.5806 685.741 96.8926 687.165 99.1166 687.165ZM120.362 677.053H122.682C121.866 679.645 119.93 686.973 119.354 689.053C119.034 689.037 118.57 689.037 118.042 689.037C117.338 689.037 116.73 689.037 116.442 689.053C116.154 687.869 115.434 684.781 114.89 682.285C114.666 681.277 114.474 680.221 114.33 679.373H114.25C114.09 680.237 113.882 681.341 113.642 682.317C113.05 684.781 112.282 687.741 111.962 689.053C111.61 689.037 111.05 689.037 110.57 689.037C109.898 689.037 109.482 689.037 109.21 689.053C108.57 686.749 106.826 679.661 105.93 677.053H108.634C108.778 678.045 109.658 681.933 110.25 684.589C110.49 685.613 110.666 686.429 110.794 687.053H110.874C111.018 686.413 111.21 685.581 111.45 684.557C111.994 682.013 112.858 678.397 113.066 677.053C113.45 677.069 114.17 677.069 114.602 677.069C115.034 677.069 115.578 677.069 115.962 677.053C116.202 678.349 116.922 681.885 117.562 684.605C117.818 685.661 117.978 686.493 118.106 687.117H118.202C118.33 686.493 118.49 685.677 118.746 684.637C119.306 682.013 120.17 678.301 120.362 677.053Z" fill="black"/>
<path d="M292.155 657.053H294.475C293.659 659.645 291.723 666.973 291.147 669.053C290.827 669.037 290.363 669.037 289.835 669.037C289.131 669.037 288.523 669.037 288.235 669.053C287.947 667.869 287.227 664.781 286.683 662.285C286.459 661.277 286.267 660.221 286.123 659.373H286.043C285.883 660.237 285.675 661.341 285.435 662.317C284.843 664.781 284.075 667.741 283.755 669.053C283.403 669.037 282.843 669.037 282.363 669.037C281.691 669.037 281.275 669.037 281.003 669.053C280.363 666.749 278.619 659.661 277.723 657.053H280.427C280.571 658.045 281.451 661.933 282.043 664.589C282.283 665.613 282.459 666.429 282.587 667.053H282.667C282.811 666.413 283.003 665.581 283.243 664.557C283.787 662.013 284.651 658.397 284.859 657.053C285.243 657.069 285.963 657.069 286.395 657.069C286.827 657.069 287.371 657.069 287.755 657.053C287.995 658.349 288.715 661.885 289.355 664.605C289.611 665.661 289.771 666.493 289.899 667.117H289.995C290.123 666.493 290.283 665.677 290.539 664.637C291.099 662.013 291.963 658.301 292.155 657.053ZM300.166 664.541C300.774 664.541 301.606 664.541 302.374 664.525C301.926 663.213 301.462 661.837 301.062 660.717C300.63 659.597 300.374 658.813 300.182 658.253C299.99 658.829 299.734 659.597 299.302 660.797C298.918 661.901 298.47 663.245 298.022 664.525C298.774 664.541 299.59 664.541 300.166 664.541ZM306.582 669.053H303.83C303.718 668.589 303.398 667.549 302.966 666.269C301.974 666.269 300.95 666.269 300.166 666.269C299.462 666.269 298.39 666.269 297.414 666.269C296.998 667.501 296.662 668.525 296.502 669.053H293.942C295.11 666.253 297.83 658.765 298.422 657.053H302.006C302.662 658.813 305.318 666.093 306.582 669.053ZM310.359 663.053C310.919 663.069 312.151 663.085 313.495 663.101C315.063 663.101 315.847 662.317 315.847 661.037C315.847 659.437 315.047 658.957 313.207 658.957C312.647 658.957 311.207 658.973 310.359 659.005C310.359 660.381 310.343 661.757 310.359 663.053ZM315.271 664.157V664.221C316.887 664.429 317.431 664.877 318.007 666.557C318.375 667.645 318.679 668.557 318.887 669.053H316.631C316.199 669.053 316.151 668.909 315.863 667.853C315.143 665.389 314.855 664.861 313.367 664.861C312.359 664.861 311.783 664.877 310.375 664.877C310.391 666.573 310.439 668.045 310.519 669.053H308.039C308.055 667.309 308.087 665.613 308.087 663.053C308.087 660.509 308.071 658.781 308.039 657.053H313.687C316.503 657.053 318.135 658.237 318.135 660.701C318.135 662.685 317.271 663.821 315.271 664.157ZM334.573 669.053H332.189C332.269 666.685 332.285 664.781 332.301 662.205C332.301 661.309 332.349 660.301 332.381 659.357L332.301 659.341C332.013 660.285 331.677 661.277 331.341 662.045L328.285 669.053H327.229L324.125 661.885C323.773 661.069 323.437 660.125 323.149 659.261L323.053 659.277C323.085 660.285 323.149 661.325 323.165 662.301C323.165 664.909 323.197 666.653 323.245 669.053H321.117C321.165 667.325 321.165 665.581 321.165 663.037C321.165 660.413 321.165 658.621 321.133 657.053H324.189C324.717 658.205 325.885 660.973 327.085 663.677C327.341 664.253 327.661 665.069 327.933 665.837H327.997C328.269 665.101 328.573 664.333 328.861 663.709C330.013 661.037 331.197 658.253 331.741 657.053H334.557C334.509 658.621 334.493 660.413 334.493 663.037C334.493 665.581 334.509 667.325 334.573 669.053ZM292.49 682.605C292.778 686.877 291.866 689.261 287.322 689.261C283.546 689.261 281.498 686.813 281.498 682.941C281.498 679.053 283.562 676.845 287.37 676.845C291.066 676.845 292.538 678.765 292.538 680.781C292.538 681.005 292.538 681.181 292.522 681.405C292.25 681.389 291.834 681.373 291.402 681.373C290.922 681.373 290.49 681.373 290.202 681.405C290.218 681.261 290.218 681.117 290.218 681.005C290.218 679.597 289.274 678.829 287.354 678.829C285.146 678.829 283.882 679.933 283.882 682.973C283.882 685.933 285.098 687.309 287.418 687.309C289.562 687.309 290.33 686.445 290.282 684.189C289.194 684.205 287.658 684.205 286.762 684.237C286.778 684.077 286.778 683.757 286.778 683.581C286.778 683.181 286.778 682.861 286.762 682.589C287.738 682.621 288.714 682.621 289.434 682.621C290.25 682.621 291.402 682.637 292.49 682.605ZM295.265 677.053H297.713C297.665 677.997 297.633 680.237 297.633 683.021C297.633 684.413 297.649 685.933 297.649 686.957C299.121 686.957 301.153 686.957 302.817 686.909C302.817 687.261 302.801 687.629 302.801 687.981C302.801 688.349 302.817 688.701 302.817 689.053H295.265C295.265 688.045 295.313 685.613 295.313 683.053C295.313 680.125 295.313 678.189 295.265 677.053ZM315.384 682.925C315.384 687.005 313.096 689.277 309.464 689.277C305.832 689.277 303.576 687.005 303.576 682.925C303.576 678.845 305.96 676.829 309.464 676.829C312.984 676.829 315.384 678.845 315.384 682.925ZM309.48 687.165C311.704 687.165 312.984 685.725 312.984 683.005C312.984 680.285 311.688 678.925 309.48 678.925C307.256 678.925 305.944 680.253 305.944 683.005C305.944 685.741 307.256 687.165 309.48 687.165ZM330.725 677.053H333.045C332.229 679.645 330.293 686.973 329.717 689.053C329.397 689.037 328.933 689.037 328.405 689.037C327.701 689.037 327.093 689.037 326.805 689.053C326.517 687.869 325.797 684.781 325.253 682.285C325.029 681.277 324.837 680.221 324.693 679.373H324.613C324.453 680.237 324.245 681.341 324.005 682.317C323.413 684.781 322.645 687.741 322.325 689.053C321.973 689.037 321.413 689.037 320.933 689.037C320.261 689.037 319.845 689.037 319.573 689.053C318.933 686.749 317.189 679.661 316.293 677.053H318.997C319.141 678.045 320.021 681.933 320.613 684.589C320.853 685.613 321.029 686.429 321.157 687.053H321.237C321.381 686.413 321.573 685.581 321.813 684.557C322.357 682.013 323.221 678.397 323.429 677.053C323.813 677.069 324.533 677.069 324.965 677.069C325.397 677.069 325.941 677.069 326.325 677.053C326.565 678.349 327.285 681.885 327.925 684.605C328.181 685.661 328.341 686.493 328.469 687.117H328.565C328.693 686.493 328.853 685.677 329.109 684.637C329.669 682.013 330.533 678.301 330.725 677.053Z" fill="black"/>
</g>
</g>
<defs>
<filter id="filter0_d_2049_1600" x="56" y="79" width="278" height="65" filterUnits="userSpaceOnUse" color-interpolation-filters="sRGB">
<feFlood flood-opacity="0" result="BackgroundImageFix"/>
<feColorMatrix in="SourceAlpha" type="matrix" values="0 0 0 0 0 0 0 0 0 0 0 0 0 0 0 0 0 0 127 0" result="hardAlpha"/>
<feOffset dy="4"/>
<feGaussianBlur stdDeviation="2"/>
<feComposite in2="hardAlpha" operator="out"/>
<feColorMatrix type="matrix" values="0 0 0 0 0 0 0 0 0 0 0 0 0 0 0 0 0 0 0.25 0"/>
<feBlend mode="normal" in2="BackgroundImageFix" result="effect1_dropShadow_2049_1600"/>
<feBlend mode="normal" in="SourceGraphic" in2="effect1_dropShadow_2049_1600" result="shape"/>
</filter>
<filter id="filter1_d_2049_1600" x="49" y="745" width="304" height="74" filterUnits="userSpaceOnUse" color-interpolation-filters="sRGB">
<feFlood flood-opacity="0" result="BackgroundImageFix"/>
<feColorMatrix in="SourceAlpha" type="matrix" values="0 0 0 0 0 0 0 0 0 0 0 0 0 0 0 0 0 0 127 0" result="hardAlpha"/>
<feOffset dy="4"/>
<feGaussianBlur stdDeviation="2"/>
<feComposite in2="hardAlpha" operator="out"/>
<feColorMatrix type="matrix" values="0 0 0 0 0 0 0 0 0 0 0 0 0 0 0 0 0 0 0.25 0"/>
<feBlend mode="normal" in2="BackgroundImageFix" result="effect1_dropShadow_2049_1600"/>
<feBlend mode="normal" in="SourceGraphic" in2="effect1_dropShadow_2049_1600" result="shape"/>
</filter>
<filter id="filter2_d_2049_1600" x="39" y="640" width="323.5" height="74" filterUnits="userSpaceOnUse" color-interpolation-filters="sRGB">
<feFlood flood-opacity="0" result="BackgroundImageFix"/>
<feColorMatrix in="SourceAlpha" type="matrix" values="0 0 0 0 0 0 0 0 0 0 0 0 0 0 0 0 0 0 127 0" result="hardAlpha"/>
<feOffset dy="4"/>
<feGaussianBlur stdDeviation="2"/>
<feComposite in2="hardAlpha" operator="out"/>
<feColorMatrix type="matrix" values="0 0 0 0 0 0 0 0 0 0 0 0 0 0 0 0 0 0 0.25 0"/>
<feBlend mode="normal" in2="BackgroundImageFix" result="effect1_dropShadow_2049_1600"/>
<feBlend mode="normal" in="SourceGraphic" in2="effect1_dropShadow_2049_1600" result="shape"/>
</filter>
<clipPath id="clip0_2049_1600">
<rect width="390" height="844" fill="white"/>
</clipPath>
<clipPath id="clip1_2049_1600">
<rect width="11" height="9" fill="white" transform="translate(323 112) rotate(180)"/>
</clipPath>
</defs>
</svg>
