<svg width="115" height="9" viewBox="0 0 115 9" fill="none" xmlns="http://www.w3.org/2000/svg">
<path d="M5.02879 4.99C5.02879 5.66 4.68879 6.1 3.91879 6.1C3.03879 6.1 2.62879 5.61 2.62879 4.14C2.62879 2.66 3.02879 2.27 3.86879 2.26C4.62879 2.26 5.01879 2.55 5.01879 3.4C5.01879 3.46 5.01879 3.54 5.00879 3.62C5.40879 3.6 5.79879 3.6 6.19879 3.6C6.58879 3.6 6.99879 3.6 7.39879 3.62C7.41879 3.4 7.42879 3.19 7.42879 3C7.42879 1.37 6.45879 0.37 3.89879 0.37C1.28879 0.37 0.0987891 1.57 0.0987891 4.15C0.0987891 6.97 1.32879 8.13 3.86879 8.13C6.27879 8.13 7.44879 7.16 7.44879 5.17C7.44879 5.04 7.44879 4.89 7.43879 4.73C7.03879 4.74 6.62879 4.74 6.22879 4.74C5.82879 4.74 5.42879 4.74 5.02879 4.73V4.99ZM15.955 4.12C15.955 1.41 14.485 0.359999 12.055 0.359999C9.61496 0.359999 8.18496 1.41 8.18496 4.12C8.18496 6.83 9.47496 8.14 12.045 8.14C14.615 8.14 15.955 6.83 15.955 4.12ZM12.055 6.12C11.165 6.12 10.695 5.52 10.695 4.15C10.695 2.8 11.165 2.27 12.055 2.27C12.945 2.27 13.405 2.82 13.405 4.15C13.405 5.5 12.955 6.12 12.055 6.12ZM21.9915 0.499999C22.0315 1.11 22.0615 2.36 22.0715 3.46C22.0715 3.94 22.1015 4.48 22.1515 5.05L22.1315 5.06C21.9815 4.6 21.8015 4.14 21.6015 3.75C20.9515 2.55 19.9715 0.98 19.7715 0.499999H16.9615C16.9815 1.49 16.9815 2.66 16.9815 4.25C16.9815 5.85 16.9715 7 16.9615 8H19.1815C19.1515 7.58 19.1515 6.58 19.1415 5.11C19.1215 4.52 19.0915 3.93 19.0415 3.28H19.0615C19.2415 3.79 19.4515 4.31 19.7115 4.81C20.4315 5.96 21.2815 7.33 21.6015 8H24.1515C24.1315 7.03 24.1315 5.9 24.1315 4.24C24.1315 2.65 24.1415 1.22 24.1615 0.499999H21.9915ZM30.4876 0.499999C30.5276 1.11 30.5576 2.36 30.5676 3.46C30.5676 3.94 30.5976 4.48 30.6476 5.05L30.6276 5.06C30.4776 4.6 30.2976 4.14 30.0976 3.75C29.4476 2.55 28.4676 0.98 28.2676 0.499999H25.4576C25.4776 1.49 25.4776 2.66 25.4776 4.25C25.4776 5.85 25.4676 7 25.4576 8H27.6776C27.6476 7.58 27.6476 6.58 27.6376 5.11C27.6176 4.52 27.5876 3.93 27.5376 3.28H27.5576C27.7376 3.79 27.9476 4.31 28.2076 4.81C28.9276 5.96 29.7776 7.33 30.0976 8H32.6476C32.6276 7.03 32.6276 5.9 32.6276 4.24C32.6276 2.65 32.6376 1.22 32.6576 0.499999H30.4876ZM33.9537 0.499999C33.9837 1.47 33.9837 2.66 33.9837 4.25C33.9837 5.85 33.9837 6.99 33.9537 8H39.9737C39.9537 7.75 39.9537 7.35 39.9537 7.05C39.9537 6.7 39.9537 6.26 39.9737 6.02C38.8337 6.03 37.4337 6.04 36.4237 6.04V4.95C37.6037 4.95 38.9037 4.96 39.8737 4.98C39.8737 4.58 39.8737 3.71 39.8837 3.34C38.9037 3.37 37.6137 3.37 36.4237 3.37V2.32C37.4237 2.32 38.7537 2.33 39.9737 2.34C39.9537 2.12 39.9537 1.69 39.9537 1.38C39.9537 1.09 39.9637 0.71 39.9737 0.499999H33.9537ZM45.771 4.99C45.771 5.66 45.431 6.1 44.661 6.1C43.781 6.1 43.371 5.61 43.371 4.14C43.371 2.66 43.771 2.27 44.611 2.26C45.371 2.26 45.761 2.55 45.761 3.4C45.761 3.46 45.761 3.54 45.751 3.62C46.151 3.6 46.541 3.6 46.941 3.6C47.331 3.6 47.741 3.6 48.141 3.62C48.161 3.4 48.171 3.19 48.171 3C48.171 1.37 47.201 0.37 44.641 0.37C42.031 0.37 40.841 1.57 40.841 4.15C40.841 6.97 42.071 8.13 44.611 8.13C47.021 8.13 48.191 7.16 48.191 5.17C48.191 5.04 48.191 4.89 48.181 4.73C47.781 4.74 47.371 4.74 46.971 4.74C46.571 4.74 46.171 4.74 45.771 4.73V4.99ZM48.7471 0.499999C48.7571 0.779999 48.7571 1.21 48.7571 1.6C48.7571 1.97 48.7571 2.44 48.7471 2.74C49.3471 2.73 49.9371 2.72 50.4771 2.72C50.4771 5.14 50.4671 7.47 50.4371 8.01C50.7971 7.98 51.3471 7.98 51.7471 7.98C52.1471 7.98 52.7171 7.98 53.0671 8.01C53.0371 7.47 53.0271 5.13 53.0271 2.72C53.5671 2.72 54.1571 2.73 54.7471 2.74C54.7371 2.44 54.7371 1.97 54.7371 1.6C54.7371 1.21 54.7371 0.779999 54.7471 0.499999H48.7471ZM61.4029 4.51C61.0729 4.51 60.7829 4.5 60.5829 4.5C60.5729 3.8 60.5729 3.05 60.5729 2.27C60.8829 2.26 61.2729 2.26 61.4529 2.26C62.3229 2.26 62.6829 2.51 62.6829 3.37C62.6829 4.23 62.3629 4.51 61.4029 4.51ZM58.1429 0.499999C58.1729 1.54 58.1829 2.66 58.1829 4.25C58.1829 5.85 58.1729 6.92 58.1429 8H60.6829C60.6429 7.52 60.6229 6.93 60.6029 6.25C61.0629 6.26 61.4329 6.27 61.8129 6.27C64.1029 6.27 65.0229 5.38 65.0229 3.32C65.0229 1.16 63.9529 0.499999 62.0229 0.499999H58.1429ZM73.3768 4.12C73.3768 1.41 71.9068 0.359999 69.4768 0.359999C67.0368 0.359999 65.6068 1.41 65.6068 4.12C65.6068 6.83 66.8968 8.14 69.4668 8.14C72.0368 8.14 73.3768 6.83 73.3768 4.12ZM69.4768 6.12C68.5868 6.12 68.1168 5.52 68.1168 4.15C68.1168 2.8 68.5868 2.27 69.4768 2.27C70.3668 2.27 70.8268 2.82 70.8268 4.15C70.8268 5.5 70.3768 6.12 69.4768 6.12ZM77.6334 4.51C77.3034 4.51 77.0134 4.5 76.8134 4.5C76.8034 3.8 76.8034 3.05 76.8034 2.27C77.1134 2.26 77.5034 2.26 77.6834 2.26C78.5534 2.26 78.9134 2.51 78.9134 3.37C78.9134 4.23 78.5934 4.51 77.6334 4.51ZM74.3734 0.499999C74.4034 1.54 74.4134 2.66 74.4134 4.25C74.4134 5.85 74.4034 6.92 74.3734 8H76.9134C76.8734 7.52 76.8534 6.93 76.8334 6.25C77.2934 6.26 77.6634 6.27 78.0434 6.27C80.3334 6.27 81.2534 5.38 81.2534 3.32C81.2534 1.16 80.1834 0.499999 78.2534 0.499999H74.3734ZM82.1275 0.499999C82.1575 1.22 82.1575 2.53 82.1575 4.25C82.1575 5.85 82.1275 7.39 82.1275 8H87.0775C87.0775 7.62 87.0675 7.25 87.0675 6.87C87.0675 6.5 87.0775 6.12 87.0775 5.75C86.2775 5.77 85.3575 5.78 84.6675 5.78C84.6575 5.31 84.6575 4.77 84.6575 4.24C84.6675 2.58 84.6875 1.06 84.7075 0.499999H82.1275ZM90.4 8C90.38 6.91 90.38 5.83 90.38 4.24C90.38 2.64 90.38 1.56 90.4 0.499999H87.86C87.89 1.57 87.89 2.65 87.89 4.25C87.89 5.84 87.89 6.92 87.86 8H90.4ZM98.7079 3.82C98.0079 3.84 97.3179 3.83 96.7879 3.83C96.3079 3.83 95.6679 3.83 95.0279 3.82C95.0379 4.02 95.0379 4.28 95.0379 4.59C95.0379 4.75 95.0379 5.11 95.0279 5.26C95.4279 5.25 95.9479 5.24 96.4279 5.24C96.3679 6.04 96.0579 6.35 95.3079 6.35C94.2579 6.35 93.8979 5.71 93.8979 4.2C93.8979 2.6 94.2979 2.1 95.2379 2.1C95.9579 2.1 96.3279 2.37 96.3279 2.98C96.3279 3.05 96.3179 3.14 96.3179 3.22C96.6179 3.2 97.0579 3.2 97.5179 3.2C97.9679 3.2 98.4279 3.21 98.7579 3.22C98.7679 3.07 98.7679 2.94 98.7679 2.8C98.7679 1.46 97.8779 0.37 95.2479 0.37C92.6179 0.37 91.3879 1.58 91.3879 4.17C91.3879 6.77 92.5979 8.13 95.2179 8.13C98.3679 8.13 98.8979 6.69 98.7279 3.82H98.7079ZM104.72 0.499999C104.74 1.2 104.75 2.33 104.76 3.23C104.4 3.24 104 3.25 103.6 3.25C103.2 3.25 102.8 3.24 102.44 3.23C102.44 2.33 102.45 1.2 102.48 0.499999H99.9498C99.9898 1.53 99.9898 2.66 99.9898 4.25C99.9898 5.84 99.9898 6.92 99.9498 8H102.48C102.45 7.27 102.44 6.19 102.44 5.32C102.8 5.31 103.2 5.31 103.6 5.31C104 5.31 104.4 5.31 104.76 5.32C104.75 6.19 104.74 7.28 104.72 8H107.25C107.22 6.92 107.21 5.84 107.21 4.25C107.21 2.66 107.22 1.53 107.25 0.499999H104.72ZM108.073 0.499999C108.083 0.779999 108.083 1.21 108.083 1.6C108.083 1.97 108.083 2.44 108.073 2.74C108.673 2.73 109.263 2.72 109.803 2.72C109.803 5.14 109.793 7.47 109.763 8.01C110.123 7.98 110.673 7.98 111.073 7.98C111.473 7.98 112.043 7.98 112.393 8.01C112.363 7.47 112.353 5.13 112.353 2.72C112.893 2.72 113.483 2.73 114.073 2.74C114.063 2.44 114.063 1.97 114.063 1.6C114.063 1.21 114.063 0.779999 114.073 0.499999H108.073Z" fill="#EAFC38"/>
</svg>
