<svg width="115" height="12" viewBox="0 0 115 12" fill="none" xmlns="http://www.w3.org/2000/svg">
<path d="M6.61275 7.141C6.45875 7.55167 6.23875 7.90733 5.95275 8.208C5.66675 8.50133 5.32942 8.725 4.94075 8.879C4.55942 9.033 4.14142 9.11 3.68675 9.11C2.99742 9.11 2.39975 8.95967 1.89375 8.659C1.39509 8.351 1.00642 7.91833 0.727754 7.361C0.456421 6.80367 0.320754 6.14 0.320754 5.37C0.320754 4.6 0.456421 3.93633 0.727754 3.379C1.00642 2.82167 1.39509 2.39267 1.89375 2.092C2.39975 1.784 2.99009 1.63 3.66475 1.63C4.13409 1.63 4.55209 1.696 4.91875 1.828C5.28542 1.95267 5.59709 2.14333 5.85375 2.4C6.11775 2.64933 6.32675 2.95733 6.48075 3.324L5.61175 3.731C5.45042 3.313 5.21575 2.99767 4.90775 2.785C4.60709 2.565 4.21475 2.455 3.73075 2.455C3.23942 2.455 2.80675 2.57233 2.43275 2.807C2.05875 3.03433 1.76542 3.36433 1.55275 3.797C1.34742 4.22967 1.24475 4.754 1.24475 5.37C1.24475 5.97867 1.34375 6.503 1.54175 6.943C1.73975 7.37567 2.02209 7.70933 2.38875 7.944C2.75542 8.17133 3.18809 8.285 3.68675 8.285C4.17075 8.285 4.59242 8.164 4.95175 7.922C5.31109 7.67267 5.57142 7.30233 5.73275 6.811L6.61275 7.141ZM10.4138 3.39C10.9344 3.39 11.3928 3.50367 11.7888 3.731C12.1921 3.95833 12.5074 4.28833 12.7348 4.721C12.9621 5.14633 13.0758 5.656 13.0758 6.25C13.0758 6.844 12.9621 7.35733 12.7348 7.79C12.5074 8.21533 12.1921 8.54167 11.7888 8.769C11.3928 8.99633 10.9344 9.11 10.4138 9.11C9.90044 9.11 9.4421 8.99633 9.03877 8.769C8.63544 8.54167 8.3201 8.21533 8.09277 7.79C7.86544 7.35733 7.75177 6.844 7.75177 6.25C7.75177 5.656 7.86544 5.14633 8.09277 4.721C8.3201 4.28833 8.63544 3.95833 9.03877 3.731C9.4421 3.50367 9.90044 3.39 10.4138 3.39ZM10.4138 4.149C10.0398 4.149 9.72077 4.23333 9.45677 4.402C9.19277 4.57067 8.98744 4.81267 8.84077 5.128C8.70144 5.436 8.63177 5.81 8.63177 6.25C8.63177 6.68267 8.70144 7.05667 8.84077 7.372C8.98744 7.68733 9.19277 7.92933 9.45677 8.098C9.72077 8.26667 10.0398 8.351 10.4138 8.351C10.7878 8.351 11.1068 8.26667 11.3708 8.098C11.6348 7.92933 11.8364 7.68733 11.9758 7.372C12.1224 7.05667 12.1958 6.68267 12.1958 6.25C12.1958 5.81 12.1224 5.436 11.9758 5.128C11.8364 4.81267 11.6348 4.57067 11.3708 4.402C11.1068 4.23333 10.7878 4.149 10.4138 4.149ZM14.7325 9V3.5H15.5025L15.5795 4.732L15.4365 4.611C15.5538 4.31767 15.7115 4.083 15.9095 3.907C16.1075 3.72367 16.3348 3.59167 16.5915 3.511C16.8555 3.43033 17.1268 3.39 17.4055 3.39C17.8015 3.39 18.1608 3.467 18.4835 3.621C18.8061 3.76767 19.0628 3.995 19.2535 4.303C19.4515 4.611 19.5505 5.00333 19.5505 5.48V9H18.6705V5.788C18.6705 5.17933 18.5385 4.75767 18.2745 4.523C18.0178 4.281 17.6988 4.16 17.3175 4.16C17.0535 4.16 16.7895 4.22233 16.5255 4.347C16.2615 4.47167 16.0415 4.67333 15.8655 4.952C15.6968 5.23067 15.6125 5.60467 15.6125 6.074V9H14.7325ZM22.7658 1.938V7.482C22.7658 7.75333 22.8428 7.955 22.9968 8.087C23.1508 8.219 23.3488 8.285 23.5908 8.285C23.8035 8.285 23.9868 8.24833 24.1408 8.175C24.2948 8.10167 24.4342 8.00267 24.5588 7.878L24.8668 8.615C24.6982 8.769 24.4965 8.89 24.2618 8.978C24.0345 9.066 23.7705 9.11 23.4698 9.11C23.1912 9.11 22.9308 9.06233 22.6888 8.967C22.4468 8.86433 22.2525 8.70667 22.1058 8.494C21.9665 8.274 21.8932 7.988 21.8858 7.636V2.18L22.7658 1.938ZM24.7678 3.5V4.259H20.7858V3.5H24.7678ZM26.5162 2.444C26.3182 2.444 26.1569 2.38533 26.0322 2.268C25.9149 2.14333 25.8562 1.982 25.8562 1.784C25.8562 1.586 25.9149 1.42833 26.0322 1.311C26.1569 1.18633 26.3182 1.124 26.5162 1.124C26.7142 1.124 26.8719 1.18633 26.9892 1.311C27.1139 1.42833 27.1762 1.586 27.1762 1.784C27.1762 1.982 27.1139 2.14333 26.9892 2.268C26.8719 2.38533 26.7142 2.444 26.5162 2.444ZM26.9562 3.5V9H26.0762V3.5H26.9562ZM28.9981 9V3.5H29.7681L29.8451 4.732L29.7021 4.611C29.8194 4.31767 29.9771 4.083 30.1751 3.907C30.3731 3.72367 30.6004 3.59167 30.8571 3.511C31.1211 3.43033 31.3924 3.39 31.6711 3.39C32.0671 3.39 32.4264 3.467 32.7491 3.621C33.0718 3.76767 33.3284 3.995 33.5191 4.303C33.7171 4.611 33.8161 5.00333 33.8161 5.48V9H32.9361V5.788C32.9361 5.17933 32.8041 4.75767 32.5401 4.523C32.2834 4.281 31.9644 4.16 31.5831 4.16C31.3191 4.16 31.0551 4.22233 30.7911 4.347C30.5271 4.47167 30.3071 4.67333 30.1311 4.952C29.9624 5.23067 29.8781 5.60467 29.8781 6.074V9H28.9981ZM37.7996 9.11C37.4476 9.11 37.114 9.044 36.7986 8.912C36.4906 8.78 36.2376 8.56733 36.0396 8.274C35.849 7.97333 35.7536 7.58467 35.7536 7.108V3.5H36.6336V6.877C36.6336 7.43433 36.7546 7.81933 36.9966 8.032C37.2386 8.23733 37.5796 8.34 38.0196 8.34C38.225 8.34 38.4266 8.307 38.6246 8.241C38.8226 8.16767 38.9986 8.05767 39.1526 7.911C39.314 7.757 39.4386 7.56267 39.5266 7.328C39.622 7.09333 39.6696 6.81467 39.6696 6.492V3.5H40.5496V9H39.7796L39.7246 8.164C39.534 8.494 39.2736 8.736 38.9436 8.89C38.621 9.03667 38.2396 9.11 37.7996 9.11ZM44.8967 9.11C44.376 9.11 43.9104 8.99633 43.4997 8.769C43.0964 8.54167 42.781 8.21533 42.5537 7.79C42.3264 7.35733 42.2127 6.844 42.2127 6.25C42.2127 5.656 42.3264 5.14633 42.5537 4.721C42.781 4.28833 43.0927 3.95833 43.4887 3.731C43.8847 3.50367 44.3357 3.39 44.8417 3.39C45.355 3.39 45.7914 3.5 46.1507 3.72C46.5174 3.94 46.796 4.24067 46.9867 4.622C47.1774 4.996 47.2727 5.41767 47.2727 5.887C47.2727 6.01167 47.269 6.12533 47.2617 6.228C47.2544 6.33067 47.2434 6.42233 47.2287 6.503H42.7847V5.722H46.8437L46.3927 5.81C46.3927 5.282 46.246 4.875 45.9527 4.589C45.6667 4.303 45.289 4.16 44.8197 4.16C44.4604 4.16 44.1487 4.24433 43.8847 4.413C43.628 4.57433 43.4264 4.81267 43.2797 5.128C43.1404 5.436 43.0707 5.81 43.0707 6.25C43.0707 6.68267 43.144 7.05667 43.2907 7.372C43.4374 7.68733 43.6427 7.92933 43.9067 8.098C44.178 8.25933 44.5007 8.34 44.8747 8.34C45.278 8.34 45.6044 8.263 45.8537 8.109C46.1104 7.955 46.3157 7.746 46.4697 7.482L47.1627 7.889C47.0234 8.13833 46.8437 8.35467 46.6237 8.538C46.411 8.72133 46.158 8.86433 45.8647 8.967C45.5787 9.06233 45.256 9.11 44.8967 9.11ZM59.3453 3.5H60.3243L58.4103 9H57.5303L55.9793 4.622L54.5163 9H53.6363L51.7223 3.5H52.7013L54.0873 7.977L55.5833 3.5H56.4633L57.9593 7.977L59.3453 3.5ZM62.0836 2.444C61.8856 2.444 61.7243 2.38533 61.5996 2.268C61.4823 2.14333 61.4236 1.982 61.4236 1.784C61.4236 1.586 61.4823 1.42833 61.5996 1.311C61.7243 1.18633 61.8856 1.124 62.0836 1.124C62.2816 1.124 62.4393 1.18633 62.5566 1.311C62.6813 1.42833 62.7436 1.586 62.7436 1.784C62.7436 1.982 62.6813 2.14333 62.5566 2.268C62.4393 2.38533 62.2816 2.444 62.0836 2.444ZM62.5236 3.5V9H61.6436V3.5H62.5236ZM65.8635 1.938V7.482C65.8635 7.75333 65.9405 7.955 66.0945 8.087C66.2485 8.219 66.4465 8.285 66.6885 8.285C66.9011 8.285 67.0845 8.24833 67.2385 8.175C67.3925 8.10167 67.5318 8.00267 67.6565 7.878L67.9645 8.615C67.7958 8.769 67.5941 8.89 67.3595 8.978C67.1321 9.066 66.8681 9.11 66.5675 9.11C66.2888 9.11 66.0285 9.06233 65.7865 8.967C65.5445 8.86433 65.3501 8.70667 65.2035 8.494C65.0641 8.274 64.9908 7.988 64.9835 7.636V2.18L65.8635 1.938ZM67.8655 3.5V4.259H63.8835V3.5H67.8655ZM69.1739 9V0.97H70.0539V4.325C70.2445 3.995 70.4975 3.75667 70.8129 3.61C71.1282 3.46333 71.4729 3.39 71.8469 3.39C72.2429 3.39 72.6022 3.467 72.9249 3.621C73.2475 3.76767 73.5042 3.995 73.6949 4.303C73.8929 4.611 73.9919 5.00333 73.9919 5.48V9H73.1119V5.788C73.1119 5.17933 72.9799 4.75767 72.7159 4.523C72.4592 4.281 72.1402 4.16 71.7589 4.16C71.4949 4.16 71.2309 4.22233 70.9669 4.347C70.7029 4.47167 70.4829 4.677 70.3069 4.963C70.1382 5.24167 70.0539 5.61567 70.0539 6.085V9H69.1739ZM82.8244 9.11C82.1351 9.11 81.5374 8.95967 81.0314 8.659C80.5328 8.351 80.1441 7.91833 79.8654 7.361C79.5941 6.80367 79.4584 6.14 79.4584 5.37C79.4584 4.6 79.6014 3.93633 79.8874 3.379C80.1808 2.82167 80.5878 2.39267 81.1084 2.092C81.6291 1.784 82.2268 1.63 82.9014 1.63C83.6201 1.63 84.2031 1.76567 84.6504 2.037C85.1051 2.30833 85.4718 2.72633 85.7504 3.291L84.9474 3.731C84.7861 3.313 84.5294 2.99767 84.1774 2.785C83.8328 2.565 83.4074 2.455 82.9014 2.455C82.4101 2.455 81.9738 2.57233 81.5924 2.807C81.2184 3.03433 80.9214 3.368 80.7014 3.808C80.4888 4.24067 80.3824 4.76133 80.3824 5.37C80.3824 5.97867 80.4741 6.503 80.6574 6.943C80.8481 7.37567 81.1268 7.70933 81.4934 7.944C81.8674 8.17133 82.3221 8.285 82.8574 8.285C83.1581 8.285 83.4368 8.24833 83.6934 8.175C83.9574 8.09433 84.1848 7.977 84.3754 7.823C84.5734 7.669 84.7274 7.47467 84.8374 7.24C84.9474 7.00533 85.0024 6.73033 85.0024 6.415V6.162H82.6924V5.337H85.8054V9H85.1124L85.0684 7.647L85.2554 7.68C85.0648 8.13467 84.7641 8.48667 84.3534 8.736C83.9428 8.98533 83.4331 9.11 82.8244 9.11ZM89.9704 3.39C90.4911 3.39 90.9494 3.50367 91.3454 3.731C91.7487 3.95833 92.0641 4.28833 92.2914 4.721C92.5187 5.14633 92.6324 5.656 92.6324 6.25C92.6324 6.844 92.5187 7.35733 92.2914 7.79C92.0641 8.21533 91.7487 8.54167 91.3454 8.769C90.9494 8.99633 90.4911 9.11 89.9704 9.11C89.4571 9.11 88.9987 8.99633 88.5954 8.769C88.1921 8.54167 87.8767 8.21533 87.6494 7.79C87.4221 7.35733 87.3084 6.844 87.3084 6.25C87.3084 5.656 87.4221 5.14633 87.6494 4.721C87.8767 4.28833 88.1921 3.95833 88.5954 3.731C88.9987 3.50367 89.4571 3.39 89.9704 3.39ZM89.9704 4.149C89.5964 4.149 89.2774 4.23333 89.0134 4.402C88.7494 4.57067 88.5441 4.81267 88.3974 5.128C88.2581 5.436 88.1884 5.81 88.1884 6.25C88.1884 6.68267 88.2581 7.05667 88.3974 7.372C88.5441 7.68733 88.7494 7.92933 89.0134 8.098C89.2774 8.26667 89.5964 8.351 89.9704 8.351C90.3444 8.351 90.6634 8.26667 90.9274 8.098C91.1914 7.92933 91.3931 7.68733 91.5324 7.372C91.6791 7.05667 91.7524 6.68267 91.7524 6.25C91.7524 5.81 91.6791 5.436 91.5324 5.128C91.3931 4.81267 91.1914 4.57067 90.9274 4.402C90.6634 4.23333 90.3444 4.149 89.9704 4.149ZM96.5661 3.39C97.0868 3.39 97.5451 3.50367 97.9411 3.731C98.3444 3.95833 98.6598 4.28833 98.8871 4.721C99.1144 5.14633 99.2281 5.656 99.2281 6.25C99.2281 6.844 99.1144 7.35733 98.8871 7.79C98.6598 8.21533 98.3444 8.54167 97.9411 8.769C97.5451 8.99633 97.0868 9.11 96.5661 9.11C96.0528 9.11 95.5944 8.99633 95.1911 8.769C94.7878 8.54167 94.4724 8.21533 94.2451 7.79C94.0178 7.35733 93.9041 6.844 93.9041 6.25C93.9041 5.656 94.0178 5.14633 94.2451 4.721C94.4724 4.28833 94.7878 3.95833 95.1911 3.731C95.5944 3.50367 96.0528 3.39 96.5661 3.39ZM96.5661 4.149C96.1921 4.149 95.8731 4.23333 95.6091 4.402C95.3451 4.57067 95.1398 4.81267 94.9931 5.128C94.8538 5.436 94.7841 5.81 94.7841 6.25C94.7841 6.68267 94.8538 7.05667 94.9931 7.372C95.1398 7.68733 95.3451 7.92933 95.6091 8.098C95.8731 8.26667 96.1921 8.351 96.5661 8.351C96.9401 8.351 97.2591 8.26667 97.5231 8.098C97.7871 7.92933 97.9888 7.68733 98.1281 7.372C98.2748 7.05667 98.3481 6.68267 98.3481 6.25C98.3481 5.81 98.2748 5.436 98.1281 5.128C97.9888 4.81267 97.7871 4.57067 97.5231 4.402C97.2591 4.23333 96.9401 4.149 96.5661 4.149ZM105.516 2.488L105.714 3.269C105.706 3.269 105.695 3.269 105.681 3.269C105.666 3.269 105.651 3.269 105.637 3.269C105.277 3.269 104.999 3.34233 104.801 3.489C104.61 3.62833 104.515 3.85567 104.515 4.171L103.976 3.896C103.976 3.61 104.042 3.36067 104.174 3.148C104.306 2.93533 104.485 2.774 104.713 2.664C104.94 2.54667 105.189 2.488 105.461 2.488C105.468 2.488 105.475 2.488 105.483 2.488C105.497 2.488 105.508 2.488 105.516 2.488ZM103.844 8.296C104.364 8.296 104.771 8.417 105.065 8.659C105.358 8.89367 105.505 9.209 105.505 9.605C105.505 9.96433 105.384 10.276 105.142 10.54C104.907 10.804 104.588 11.0057 104.185 11.145C103.789 11.2917 103.341 11.365 102.843 11.365C101.977 11.365 101.328 11.2183 100.896 10.925C100.47 10.6317 100.258 10.2797 100.258 9.869C100.258 9.57567 100.353 9.31167 100.544 9.077C100.742 8.84967 101.072 8.72133 101.534 8.692L101.457 8.857C101.207 8.791 100.995 8.681 100.819 8.527C100.65 8.36567 100.566 8.13467 100.566 7.834C100.566 7.53333 100.676 7.27667 100.896 7.064C101.123 6.844 101.457 6.70833 101.897 6.657L102.48 6.954H102.37C102.01 6.99067 101.754 7.08233 101.6 7.229C101.453 7.36833 101.38 7.52233 101.38 7.691C101.38 7.89633 101.453 8.05033 101.6 8.153C101.754 8.24833 101.966 8.296 102.238 8.296H103.844ZM102.832 10.628C103.257 10.628 103.605 10.584 103.877 10.496C104.155 10.408 104.361 10.2943 104.493 10.155C104.625 10.0157 104.691 9.86533 104.691 9.704C104.691 9.506 104.61 9.34833 104.449 9.231C104.295 9.11367 104.012 9.055 103.602 9.055H101.908C101.673 9.055 101.475 9.11367 101.314 9.231C101.152 9.35567 101.072 9.52433 101.072 9.737C101.072 10.0083 101.226 10.2247 101.534 10.386C101.849 10.5473 102.282 10.628 102.832 10.628ZM102.755 3.39C103.195 3.39 103.583 3.47067 103.921 3.632C104.265 3.786 104.533 4.00233 104.724 4.281C104.914 4.55967 105.01 4.88233 105.01 5.249C105.01 5.60833 104.914 5.931 104.724 6.217C104.533 6.49567 104.265 6.71567 103.921 6.877C103.583 7.031 103.195 7.108 102.755 7.108C102.029 7.108 101.471 6.93567 101.083 6.591C100.694 6.239 100.5 5.79167 100.5 5.249C100.5 4.88233 100.595 4.55967 100.786 4.281C100.984 4.00233 101.251 3.786 101.589 3.632C101.926 3.47067 102.315 3.39 102.755 3.39ZM102.755 4.105C102.373 4.105 102.054 4.21133 101.798 4.424C101.541 4.62933 101.413 4.90433 101.413 5.249C101.413 5.58633 101.541 5.86133 101.798 6.074C102.054 6.28667 102.373 6.393 102.755 6.393C103.136 6.393 103.455 6.28667 103.712 6.074C103.968 5.86133 104.097 5.58633 104.097 5.249C104.097 4.90433 103.968 4.62933 103.712 4.424C103.455 4.21133 103.136 4.105 102.755 4.105ZM107.575 0.97V7.603C107.575 7.88167 107.627 8.076 107.729 8.186C107.832 8.28867 107.997 8.34 108.224 8.34C108.371 8.34 108.492 8.329 108.587 8.307C108.683 8.285 108.811 8.24467 108.972 8.186L108.829 8.956C108.712 9.00733 108.584 9.044 108.444 9.066C108.305 9.09533 108.162 9.11 108.015 9.11C107.568 9.11 107.234 8.989 107.014 8.747C106.802 8.505 106.695 8.13467 106.695 7.636V0.97H107.575ZM112.401 9.11C111.88 9.11 111.414 8.99633 111.004 8.769C110.6 8.54167 110.285 8.21533 110.058 7.79C109.83 7.35733 109.717 6.844 109.717 6.25C109.717 5.656 109.83 5.14633 110.058 4.721C110.285 4.28833 110.597 3.95833 110.993 3.731C111.389 3.50367 111.84 3.39 112.346 3.39C112.859 3.39 113.295 3.5 113.655 3.72C114.021 3.94 114.3 4.24067 114.491 4.622C114.681 4.996 114.777 5.41767 114.777 5.887C114.777 6.01167 114.773 6.12533 114.766 6.228C114.758 6.33067 114.747 6.42233 114.733 6.503H110.289V5.722H114.348L113.897 5.81C113.897 5.282 113.75 4.875 113.457 4.589C113.171 4.303 112.793 4.16 112.324 4.16C111.964 4.16 111.653 4.24433 111.389 4.413C111.132 4.57433 110.93 4.81267 110.784 5.128C110.644 5.436 110.575 5.81 110.575 6.25C110.575 6.68267 110.648 7.05667 110.795 7.372C110.941 7.68733 111.147 7.92933 111.411 8.098C111.682 8.25933 112.005 8.34 112.379 8.34C112.782 8.34 113.108 8.263 113.358 8.109C113.614 7.955 113.82 7.746 113.974 7.482L114.667 7.889C114.527 8.13833 114.348 8.35467 114.128 8.538C113.915 8.72133 113.662 8.86433 113.369 8.967C113.083 9.06233 112.76 9.11 112.401 9.11Z" fill="black"/>
</svg>
