<svg width="264" height="65" viewBox="0 0 264 65" fill="none" xmlns="http://www.w3.org/2000/svg">
<g filter="url(#filter0_d_1001_5258)">
<rect x="4.625" y="0.625" width="254.75" height="55.75" rx="11.875" fill="#FEF8E5" stroke="black" stroke-width="1.25"/>
<path d="M47.2708 27.848V27.544C47.2708 25.64 46.2468 24.888 44.2628 24.888C42.1828 24.888 40.9188 25.944 40.9188 28.872C40.9188 31.864 42.2308 33.08 44.3428 33.08C46.4068 33.08 47.3028 32.072 47.3028 30.44V30.12C47.7028 30.136 48.0548 30.136 48.4548 30.136C48.8388 30.136 49.2388 30.136 49.6388 30.12V30.584C49.6388 33.4 47.8628 35.192 44.3588 35.192C40.8068 35.192 38.5028 33.208 38.5028 28.936C38.5028 25.016 40.5828 22.808 44.3588 22.808C48.0228 22.808 49.5908 24.68 49.5908 27.176C49.5908 27.4 49.5908 27.608 49.5748 27.848C49.1908 27.832 48.7908 27.832 48.4068 27.832C48.0068 27.832 47.6548 27.832 47.2708 27.848ZM54.4658 29C55.0258 29.016 56.2578 29.032 57.6018 29.048C59.1698 29.048 59.9538 28.264 59.9538 26.984C59.9538 25.384 59.1538 24.904 57.3138 24.904C56.7538 24.904 55.3138 24.92 54.4658 24.952C54.4658 26.328 54.4498 27.704 54.4658 29ZM59.3778 30.104V30.168C60.9938 30.376 61.5378 30.824 62.1138 32.504C62.4818 33.592 62.7858 34.504 62.9938 35H60.7378C60.3058 35 60.2578 34.856 59.9698 33.8C59.2498 31.336 58.9618 30.808 57.4738 30.808C56.4658 30.808 55.8898 30.824 54.4818 30.824C54.4978 32.52 54.5458 33.992 54.6258 35H52.1458C52.1618 33.256 52.1938 31.56 52.1938 29C52.1938 26.456 52.1778 24.728 52.1458 23H57.7938C60.6098 23 62.2418 24.184 62.2418 26.648C62.2418 28.632 61.3778 29.768 59.3778 30.104ZM65.0349 23H74.2669C74.2509 23.208 74.2509 23.64 74.2509 23.944C74.2509 24.28 74.2509 24.776 74.2669 25.016C71.8829 25 69.3069 24.984 67.4029 24.984V28.024C69.7069 28.024 72.2029 28.024 74.1229 27.976C74.1069 28.408 74.1069 29.448 74.1069 29.88C72.2189 29.848 69.6749 29.848 67.4029 29.848V32.936C69.3069 32.936 71.9629 32.92 74.2669 32.904C74.2509 33.16 74.2509 33.64 74.2509 34.008C74.2509 34.296 74.2509 34.744 74.2669 35H65.0349C65.0829 33.48 65.0829 31.56 65.0829 29C65.0829 26.456 65.0829 24.424 65.0349 23ZM81.7888 30.488C82.3968 30.488 83.2288 30.488 83.9968 30.472C83.5487 29.16 83.0848 27.784 82.6848 26.664C82.2528 25.544 81.9968 24.76 81.8048 24.2C81.6128 24.776 81.3568 25.544 80.9248 26.744C80.5408 27.848 80.0928 29.192 79.6448 30.472C80.3968 30.488 81.2128 30.488 81.7888 30.488ZM88.2048 35H85.4528C85.3408 34.536 85.0208 33.496 84.5888 32.216C83.5968 32.216 82.5728 32.216 81.7888 32.216C81.0848 32.216 80.0128 32.216 79.0368 32.216C78.6208 33.448 78.2848 34.472 78.1248 35H75.5648C76.7328 32.2 79.4528 24.712 80.0448 23H83.6288C84.2847 24.76 86.9408 32.04 88.2048 35ZM87.602 23H97.058V24.024V25.08C95.81 25.064 94.562 25.048 93.49 25.048C93.49 29.528 93.49 34.008 93.538 35.016C93.202 34.984 92.69 34.984 92.322 34.984C91.986 34.984 91.49 34.984 91.138 35.016C91.186 34.024 91.186 29.544 91.186 25.048C90.114 25.048 88.866 25.064 87.602 25.08V24.024V23ZM98.8943 23H108.126C108.11 23.208 108.11 23.64 108.11 23.944C108.11 24.28 108.11 24.776 108.126 25.016C105.742 25 103.166 24.984 101.262 24.984V28.024C103.566 28.024 106.062 28.024 107.982 27.976C107.966 28.408 107.966 29.448 107.966 29.88C106.078 29.848 103.534 29.848 101.262 29.848V32.936C103.166 32.936 105.822 32.92 108.126 32.904C108.11 33.16 108.11 33.64 108.11 34.008C108.11 34.296 108.11 34.744 108.126 35H98.8943C98.9423 33.48 98.9423 31.56 98.9423 29C98.9423 26.456 98.9423 24.424 98.8943 23ZM123.952 23H126.128C126.112 24.328 126.08 26.44 126.08 28.984C126.08 31.624 126.08 33.416 126.112 35H123.648C122.992 33.8 120.688 30.456 118.864 27.816C118.368 27.032 117.92 26.216 117.568 25.432H117.552C117.616 26.456 117.664 27.432 117.68 28.344C117.696 31.752 117.696 34.072 117.728 35H115.536C115.552 33.432 115.568 31.56 115.568 29C115.568 26.456 115.568 24.472 115.536 23H118.384C118.896 23.928 121.36 27.416 123.04 29.992C123.456 30.632 123.856 31.416 124.176 32.168L124.208 32.152C124.128 31.208 124.08 30.296 124.08 29.448C124.08 26.984 124.032 24.136 123.952 23ZM129.144 23H138.376C138.36 23.208 138.36 23.64 138.36 23.944C138.36 24.28 138.36 24.776 138.376 25.016C135.992 25 133.416 24.984 131.512 24.984V28.024C133.816 28.024 136.312 28.024 138.232 27.976C138.216 28.408 138.216 29.448 138.216 29.88C136.328 29.848 133.784 29.848 131.512 29.848V32.936C133.416 32.936 136.072 32.92 138.376 32.904C138.36 33.16 138.36 33.64 138.36 34.008C138.36 34.296 138.36 34.744 138.376 35H129.144C129.192 33.48 129.192 31.56 129.192 29C129.192 26.456 129.192 24.424 129.144 23ZM154.09 23H156.41C155.594 25.592 153.658 32.92 153.082 35C152.762 34.984 152.298 34.984 151.77 34.984C151.066 34.984 150.458 34.984 150.17 35C149.882 33.816 149.162 30.728 148.618 28.232C148.394 27.224 148.202 26.168 148.058 25.32H147.978C147.818 26.184 147.61 27.288 147.37 28.264C146.778 30.728 146.01 33.688 145.69 35C145.338 34.984 144.778 34.984 144.298 34.984C143.626 34.984 143.21 34.984 142.938 35C142.298 32.696 140.554 25.608 139.658 23H142.362C142.506 23.992 143.386 27.88 143.978 30.536C144.218 31.56 144.394 32.376 144.522 33H144.602C144.746 32.36 144.938 31.528 145.178 30.504C145.722 27.96 146.586 24.344 146.794 23C147.178 23.016 147.898 23.016 148.33 23.016C148.762 23.016 149.306 23.016 149.69 23C149.93 24.296 150.65 27.832 151.29 30.552C151.546 31.608 151.706 32.44 151.834 33.064H151.93C152.058 32.44 152.218 31.624 152.474 30.584C153.034 27.96 153.898 24.248 154.09 23ZM172.933 28.552C173.221 32.824 172.309 35.208 167.765 35.208C163.989 35.208 161.941 32.76 161.941 28.888C161.941 25 164.005 22.792 167.813 22.792C171.509 22.792 172.981 24.712 172.981 26.728C172.981 26.952 172.981 27.128 172.965 27.352C172.693 27.336 172.277 27.32 171.845 27.32C171.365 27.32 170.933 27.32 170.645 27.352C170.661 27.208 170.661 27.064 170.661 26.952C170.661 25.544 169.717 24.776 167.797 24.776C165.589 24.776 164.325 25.88 164.325 28.92C164.325 31.88 165.541 33.256 167.861 33.256C170.005 33.256 170.773 32.392 170.725 30.136C169.637 30.152 168.101 30.152 167.205 30.184C167.221 30.024 167.221 29.704 167.221 29.528C167.221 29.128 167.221 28.808 167.205 28.536C168.181 28.568 169.157 28.568 169.877 28.568C170.693 28.568 171.845 28.584 172.933 28.552ZM178.044 29C178.604 29.016 179.836 29.032 181.18 29.048C182.748 29.048 183.532 28.264 183.532 26.984C183.532 25.384 182.732 24.904 180.892 24.904C180.332 24.904 178.892 24.92 178.044 24.952C178.044 26.328 178.028 27.704 178.044 29ZM182.956 30.104V30.168C184.572 30.376 185.116 30.824 185.692 32.504C186.06 33.592 186.364 34.504 186.572 35H184.316C183.884 35 183.836 34.856 183.548 33.8C182.828 31.336 182.54 30.808 181.052 30.808C180.044 30.808 179.468 30.824 178.06 30.824C178.076 32.52 178.124 33.992 178.204 35H175.724C175.74 33.256 175.772 31.56 175.772 29C175.772 26.456 175.756 24.728 175.724 23H181.372C184.188 23 185.82 24.184 185.82 26.648C185.82 28.632 184.956 29.768 182.956 30.104ZM199.53 28.872C199.53 32.952 197.242 35.224 193.61 35.224C189.978 35.224 187.722 32.952 187.722 28.872C187.722 24.792 190.106 22.776 193.61 22.776C197.13 22.776 199.53 24.792 199.53 28.872ZM193.626 33.112C195.85 33.112 197.13 31.672 197.13 28.952C197.13 26.232 195.834 24.872 193.626 24.872C191.402 24.872 190.09 26.2 190.09 28.952C190.09 31.688 191.402 33.112 193.626 33.112ZM210.087 23H212.519C212.471 23.976 212.455 24.936 212.455 26.392C212.455 27.384 212.487 28.856 212.487 30.104C212.487 33.272 210.935 35.208 207.207 35.208C203.479 35.208 201.911 33.272 201.911 30.104C201.911 28.856 201.943 27.384 201.943 26.392C201.943 24.936 201.927 23.96 201.879 23H204.343C204.279 24.632 204.247 28.2 204.247 30.024C204.247 32.168 205.239 33.112 207.255 33.112C209.239 33.112 210.151 32.168 210.151 30.024C210.151 28.2 210.119 24.616 210.087 23ZM220.272 29.624C222.4 29.624 223.28 29 223.28 27.32C223.28 25.672 222.352 25.016 220.384 25.016C219.888 25.016 218.656 25.032 217.936 25.048C217.936 26.632 217.936 28.184 217.936 29.592C218.4 29.608 219.296 29.624 220.272 29.624ZM215.536 23H220.784C223.792 23 225.6 24.216 225.6 27.352C225.6 30.28 223.776 31.656 220.704 31.656C219.712 31.656 219.136 31.64 217.952 31.608C217.984 32.936 218.016 34.104 218.064 35H215.536C215.6 33.272 215.6 31.56 215.6 29C215.6 26.456 215.6 24.616 215.536 23Z" fill="black"/>
</g>
<defs>
<filter id="filter0_d_1001_5258" x="0" y="0" width="264" height="65" filterUnits="userSpaceOnUse" color-interpolation-filters="sRGB">
<feFlood flood-opacity="0" result="BackgroundImageFix"/>
<feColorMatrix in="SourceAlpha" type="matrix" values="0 0 0 0 0 0 0 0 0 0 0 0 0 0 0 0 0 0 127 0" result="hardAlpha"/>
<feOffset dy="4"/>
<feGaussianBlur stdDeviation="2"/>
<feComposite in2="hardAlpha" operator="out"/>
<feColorMatrix type="matrix" values="0 0 0 0 0 0 0 0 0 0 0 0 0 0 0 0 0 0 0.25 0"/>
<feBlend mode="normal" in2="BackgroundImageFix" result="effect1_dropShadow_1001_5258"/>
<feBlend mode="normal" in="SourceGraphic" in2="effect1_dropShadow_1001_5258" result="shape"/>
</filter>
</defs>
</svg>
