<svg width="249" height="17" viewBox="0 0 249 17" fill="none" xmlns="http://www.w3.org/2000/svg">
<path d="M10.5185 9.98C10.5185 11.32 9.83852 12.2 8.29852 12.2C6.53852 12.2 5.71852 11.22 5.71852 8.28C5.71852 5.32 6.51852 4.54 8.19852 4.52C9.71852 4.52 10.4985 5.1 10.4985 6.8C10.4985 6.92 10.4985 7.08 10.4785 7.24C11.2785 7.2 12.0585 7.2 12.8585 7.2C13.6385 7.2 14.4585 7.2 15.2585 7.24C15.2985 6.8 15.3185 6.38 15.3185 6C15.3185 2.74 13.3785 0.74 8.25852 0.74C3.03852 0.74 0.658516 3.14 0.658516 8.3C0.658516 13.94 3.11852 16.26 8.19852 16.26C13.0185 16.26 15.3585 14.32 15.3585 10.34C15.3585 10.08 15.3585 9.78 15.3385 9.46C14.5385 9.48 13.7185 9.48 12.9185 9.48C12.1185 9.48 11.3185 9.48 10.5185 9.46V9.98ZM24.6709 8.24C23.6909 8.22 22.8109 8.22 22.2509 8.2C22.2309 6.96 22.2309 5.66 22.2309 4.36C23.0109 4.34 23.9909 4.32 24.4109 4.32C25.9109 4.32 26.5909 4.68 26.5909 6.28C26.5909 7.62 25.9909 8.24 24.6709 8.24ZM27.8309 9.92C30.3709 9.52 31.3709 8.26 31.3709 5.52C31.3709 2.36 29.2709 0.999999 25.6109 0.999999H17.4309C17.4909 3.16 17.5109 5.32 17.5109 8.5C17.5109 11.7 17.4709 13.82 17.4309 16H22.4909C22.3709 14.82 22.3109 13.16 22.2709 11.24C23.2309 11.22 23.6509 11.24 24.3709 11.24C25.5909 11.24 25.8709 11.68 26.3509 14.2C26.6909 15.74 26.8309 16 27.5709 16H32.0309C31.8309 15.32 31.5309 14.06 31.2109 12.92C30.7109 10.9 29.8909 10.3 27.8309 10.04V9.92ZM33.759 0.999999C33.819 2.94 33.819 5.32 33.819 8.5C33.819 11.7 33.819 13.98 33.759 16H45.799C45.759 15.5 45.759 14.7 45.759 14.1C45.759 13.4 45.759 12.52 45.799 12.04C43.519 12.06 40.719 12.08 38.699 12.08V9.9C41.059 9.9 43.659 9.92 45.599 9.96C45.599 9.16 45.599 7.42 45.619 6.68C43.659 6.74 41.079 6.74 38.699 6.74V4.64C40.699 4.64 43.359 4.66 45.799 4.68C45.759 4.24 45.759 3.38 45.759 2.76C45.759 2.18 45.779 1.42 45.799 0.999999H33.759ZM54.9935 10.06H53.2935C53.6335 8.62 53.9735 7.14 54.2735 5.84C54.5735 4.76 54.7935 3.8 54.9735 3.08H55.0335C55.1935 3.8 55.4135 4.78 55.7135 5.8C56.0535 7.1 56.3935 8.6 56.7135 10.06H54.9935ZM63.4335 16C62.1335 12.18 59.6935 3.1 59.1335 0.999999H51.1135C50.6135 3.08 48.1935 12.24 46.9735 16H52.0935C52.1735 15.4 52.3735 14.38 52.6335 13.14C53.5135 13.14 54.3735 13.14 54.9935 13.14C55.6535 13.14 56.4935 13.14 57.3535 13.14C57.6135 14.42 57.7735 15.46 57.8335 16H63.4335ZM62.8576 0.999999C62.8776 1.56 62.8776 2.42 62.8776 3.2C62.8776 3.94 62.8776 4.88 62.8576 5.48C64.0576 5.46 65.2376 5.44 66.3176 5.44C66.3176 10.28 66.2976 14.94 66.2376 16.02C66.9576 15.96 68.0576 15.96 68.8576 15.96C69.6576 15.96 70.7976 15.96 71.4976 16.02C71.4376 14.94 71.4176 10.26 71.4176 5.44C72.4976 5.44 73.6776 5.46 74.8576 5.48C74.8376 4.88 74.8376 3.94 74.8376 3.2C74.8376 2.42 74.8376 1.56 74.8576 0.999999H62.8576ZM76.4934 0.999999C76.5534 2.94 76.5534 5.32 76.5534 8.5C76.5534 11.7 76.5534 13.98 76.4934 16H88.5334C88.4934 15.5 88.4934 14.7 88.4934 14.1C88.4934 13.4 88.4934 12.52 88.5334 12.04C86.2534 12.06 83.4534 12.08 81.4334 12.08V9.9C83.7934 9.9 86.3934 9.92 88.3334 9.96C88.3334 9.16 88.3334 7.42 88.3534 6.68C86.3934 6.74 83.8134 6.74 81.4334 6.74V4.64C83.4334 4.64 86.0934 4.66 88.5334 4.68C88.4934 4.24 88.4934 3.38 88.4934 2.76C88.4934 2.18 88.5134 1.42 88.5334 0.999999H76.4934ZM102.904 10.06H101.204C101.544 8.62 101.884 7.14 102.184 5.84C102.484 4.76 102.704 3.8 102.884 3.08H102.944C103.104 3.8 103.324 4.78 103.624 5.8C103.964 7.1 104.304 8.6 104.624 10.06H102.904ZM111.344 16C110.044 12.18 107.604 3.1 107.044 0.999999H99.0237C98.5237 3.08 96.1037 12.24 94.8837 16H100.004C100.084 15.4 100.284 14.38 100.544 13.14C101.424 13.14 102.284 13.14 102.904 13.14C103.564 13.14 104.404 13.14 105.264 13.14C105.524 14.42 105.684 15.46 105.744 16H111.344ZM122.803 0.999999C122.883 2.22 122.943 4.72 122.963 6.92C122.963 7.88 123.023 8.96 123.123 10.1L123.083 10.12C122.783 9.2 122.423 8.28 122.023 7.5C120.723 5.1 118.763 1.96 118.363 0.999999H112.743C112.783 2.98 112.783 5.32 112.783 8.5C112.783 11.7 112.763 14 112.743 16H117.183C117.123 15.16 117.123 13.16 117.103 10.22C117.063 9.04 117.003 7.86 116.903 6.56H116.943C117.303 7.58 117.723 8.62 118.243 9.62C119.683 11.92 121.383 14.66 122.023 16H127.123C127.083 14.06 127.083 11.8 127.083 8.48C127.083 5.3 127.103 2.44 127.143 0.999999H122.803ZM141.751 10.06H140.051C140.391 8.62 140.731 7.14 141.031 5.84C141.331 4.76 141.551 3.8 141.731 3.08H141.791C141.951 3.8 142.171 4.78 142.471 5.8C142.811 7.1 143.151 8.6 143.471 10.06H141.751ZM150.191 16C148.891 12.18 146.451 3.1 145.891 0.999999H137.871C137.371 3.08 134.951 12.24 133.731 16H138.851C138.931 15.4 139.131 14.38 139.391 13.14C140.271 13.14 141.131 13.14 141.751 13.14C142.411 13.14 143.251 13.14 144.111 13.14C144.371 14.42 144.531 15.46 144.591 16H150.191ZM160.206 9.98C160.206 11.32 159.526 12.2 157.986 12.2C156.226 12.2 155.406 11.22 155.406 8.28C155.406 5.32 156.206 4.54 157.886 4.52C159.406 4.52 160.186 5.1 160.186 6.8C160.186 6.92 160.186 7.08 160.166 7.24C160.966 7.2 161.746 7.2 162.546 7.2C163.326 7.2 164.146 7.2 164.946 7.24C164.986 6.8 165.006 6.38 165.006 6C165.006 2.74 163.066 0.74 157.946 0.74C152.726 0.74 150.346 3.14 150.346 8.3C150.346 13.94 152.806 16.26 157.886 16.26C162.706 16.26 165.046 14.32 165.046 10.34C165.046 10.08 165.046 9.78 165.026 9.46C164.226 9.48 163.406 9.48 162.606 9.48C161.806 9.48 161.006 9.48 160.206 9.46V9.98ZM176.358 9.98C176.358 11.32 175.678 12.2 174.138 12.2C172.378 12.2 171.558 11.22 171.558 8.28C171.558 5.32 172.358 4.54 174.038 4.52C175.558 4.52 176.338 5.1 176.338 6.8C176.338 6.92 176.338 7.08 176.318 7.24C177.118 7.2 177.898 7.2 178.698 7.2C179.478 7.2 180.298 7.2 181.098 7.24C181.138 6.8 181.158 6.38 181.158 6C181.158 2.74 179.218 0.74 174.098 0.74C168.878 0.74 166.498 3.14 166.498 8.3C166.498 13.94 168.958 16.26 174.038 16.26C178.858 16.26 181.198 14.32 181.198 10.34C181.198 10.08 181.198 9.78 181.178 9.46C180.378 9.48 179.558 9.48 178.758 9.48C177.958 9.48 177.158 9.48 176.358 9.46V9.98ZM198.211 8.24C198.211 2.82 195.271 0.719999 190.411 0.719999C185.531 0.719999 182.671 2.82 182.671 8.24C182.671 13.66 185.251 16.28 190.391 16.28C195.531 16.28 198.211 13.66 198.211 8.24ZM190.411 12.24C188.631 12.24 187.691 11.04 187.691 8.3C187.691 5.6 188.631 4.54 190.411 4.54C192.191 4.54 193.111 5.64 193.111 8.3C193.111 11 192.211 12.24 190.411 12.24ZM209.704 0.999999C209.744 3.36 209.784 7.36 209.784 9.64C209.784 11.4 209.164 12.16 207.564 12.16C205.904 12.16 205.184 11.4 205.184 9.64C205.184 7.36 205.204 3.36 205.284 0.999999H200.184C200.224 2.3 200.264 3.58 200.264 5.52C200.264 6.72 200.224 8.6 200.224 10C200.224 14.04 202.064 16.28 207.444 16.28C212.824 16.28 214.644 14.04 214.644 10C214.644 8.6 214.604 6.72 214.604 5.52C214.604 3.58 214.644 2.3 214.684 0.999999H209.704ZM227.276 0.999999C227.356 2.22 227.416 4.72 227.436 6.92C227.436 7.88 227.496 8.96 227.596 10.1L227.556 10.12C227.256 9.2 226.896 8.28 226.496 7.5C225.196 5.1 223.236 1.96 222.836 0.999999H217.216C217.256 2.98 217.256 5.32 217.256 8.5C217.256 11.7 217.236 14 217.216 16H221.656C221.596 15.16 221.596 13.16 221.576 10.22C221.536 9.04 221.476 7.86 221.376 6.56H221.416C221.776 7.58 222.196 8.62 222.716 9.62C224.156 11.92 225.856 14.66 226.496 16H231.596C231.556 14.06 231.556 11.8 231.556 8.48C231.556 5.3 231.576 2.44 231.616 0.999999H227.276ZM233.248 0.999999C233.268 1.56 233.268 2.42 233.268 3.2C233.268 3.94 233.268 4.88 233.248 5.48C234.448 5.46 235.628 5.44 236.708 5.44C236.708 10.28 236.688 14.94 236.628 16.02C237.348 15.96 238.448 15.96 239.248 15.96C240.048 15.96 241.188 15.96 241.888 16.02C241.828 14.94 241.808 10.26 241.808 5.44C242.888 5.44 244.068 5.46 245.248 5.48C245.228 4.88 245.228 3.94 245.228 3.2C245.228 2.42 245.228 1.56 245.248 0.999999H233.248ZM246.502 11.06C245.002 11.06 244.142 11.86 244.142 13.58C244.142 15.32 244.982 16.18 246.502 16.18C248.042 16.18 248.882 15.32 248.882 13.58C248.882 11.86 248.022 11.06 246.502 11.06Z" fill="#FEF8E5"/>
</svg>
