<svg width="390" height="769" viewBox="0 0 390 769" fill="none" xmlns="http://www.w3.org/2000/svg">
    <path d="M-64.54 727.632C-62.5545 751.072 -22.2465 751.363 -3.86998 755.296C38.8313 764.436 99.0064 775.72 133.875 732.883C158.582 702.531 154.312 630.457 144.769 598.797C135.412 567.755 107.798 526.467 69.3707 533.54C35.9765 539.687 40.0413 572.436 55.524 590.633C83.4855 623.498 122.78 642.683 168.319 643.737C213.604 644.784 225.718 601.208 228.175 564.555C231.876 509.331 201.137 468.208 179.114 422.871C159.855 383.225 150.835 339.922 188.958 301.637C222.701 267.751 295.491 249.679 337.085 260.197C366.61 267.662 438.138 300.687 426.583 342.794C416.424 379.815 365.858 390.82 337.924 380.262C233.819 340.916 195.943 198.488 302.265 118.671C338.808 91.2376 373.072 70.4835 373.497 21.8336C373.988 -34.2911 343.908 -94.4992 316.434 -139" stroke="#D7EE00" stroke-width="10" stroke-linecap="round" stroke-linejoin="round"/>
</svg>
