<svg width="264" height="65" viewBox="0 0 264 65" fill="none" xmlns="http://www.w3.org/2000/svg">
<g filter="url(#filter0_d_1001_5255)">
<rect x="4.625" y="0.625" width="254.75" height="55.75" rx="11.875" fill="#FEF8E5" stroke="black" stroke-width="1.25"/>
<path d="M69.0741 32.952C71.5541 32.952 72.7221 32.072 72.7221 28.904C72.7221 25.832 71.5701 25.048 69.1381 25.048C68.3061 25.048 67.5381 25.064 66.8181 25.096C66.8021 26.296 66.7861 27.72 66.7861 29.08C66.7861 30.904 66.7861 32.04 66.8021 32.904C67.6021 32.952 68.2101 32.952 69.0741 32.952ZM64.4021 23H69.1381C73.1861 23 75.0581 24.536 75.0581 28.856C75.0581 33.16 73.3141 35 69.0901 35H64.4021C64.4501 33.352 64.4501 31.56 64.4501 29.016C64.4501 26.472 64.4501 24.472 64.4021 23ZM77.4489 23H86.6809C86.6649 23.208 86.6649 23.64 86.6649 23.944C86.6649 24.28 86.6649 24.776 86.6809 25.016C84.2969 25 81.7209 24.984 79.8169 24.984V28.024C82.1209 28.024 84.6169 28.024 86.5369 27.976C86.5209 28.408 86.5209 29.448 86.5209 29.88C84.6329 29.848 82.0889 29.848 79.8169 29.848V32.936C81.7209 32.936 84.3769 32.92 86.6809 32.904C86.6649 33.16 86.6649 33.64 86.6649 34.008C86.6649 34.296 86.6649 34.744 86.6809 35H77.4489C77.4969 33.48 77.4969 31.56 77.4969 29C77.4969 26.456 77.4969 24.424 77.4489 23ZM89.4188 23H91.8668C91.8188 23.944 91.7868 26.184 91.7868 28.968C91.7868 30.36 91.8028 31.88 91.8028 32.904C93.2748 32.904 95.3068 32.904 96.9708 32.856C96.9708 33.208 96.9548 33.576 96.9548 33.928C96.9548 34.296 96.9708 34.648 96.9708 35H89.4188C89.4188 33.992 89.4668 31.56 89.4668 29C89.4668 26.072 89.4668 24.136 89.4188 23ZM98.7614 23H107.993C107.977 23.208 107.977 23.64 107.977 23.944C107.977 24.28 107.977 24.776 107.993 25.016C105.609 25 103.033 24.984 101.129 24.984V28.024C103.433 28.024 105.929 28.024 107.849 27.976C107.833 28.408 107.833 29.448 107.833 29.88C105.945 29.848 103.401 29.848 101.129 29.848V32.936C103.033 32.936 105.689 32.92 107.993 32.904C107.977 33.16 107.977 33.64 107.977 34.008C107.977 34.296 107.977 34.744 107.993 35H98.7614C98.8094 33.48 98.8094 31.56 98.8094 29C98.8094 26.456 98.8094 24.424 98.7614 23ZM109.547 23H119.003V24.024V25.08C117.755 25.064 116.507 25.048 115.435 25.048C115.435 29.528 115.435 34.008 115.483 35.016C115.147 34.984 114.635 34.984 114.267 34.984C113.931 34.984 113.435 34.984 113.083 35.016C113.131 34.024 113.131 29.544 113.131 25.048C112.059 25.048 110.811 25.064 109.547 25.08V24.024V23ZM120.84 23H130.072C130.056 23.208 130.056 23.64 130.056 23.944C130.056 24.28 130.056 24.776 130.072 25.016C127.688 25 125.112 24.984 123.208 24.984V28.024C125.512 28.024 128.008 28.024 129.928 27.976C129.912 28.408 129.912 29.448 129.912 29.88C128.024 29.848 125.48 29.848 123.208 29.848V32.936C125.112 32.936 127.768 32.92 130.072 32.904C130.056 33.16 130.056 33.64 130.056 34.008C130.056 34.296 130.056 34.744 130.072 35H120.84C120.888 33.48 120.888 31.56 120.888 29C120.888 26.456 120.888 24.424 120.84 23ZM147.737 28.552C148.025 32.824 147.113 35.208 142.569 35.208C138.793 35.208 136.745 32.76 136.745 28.888C136.745 25 138.809 22.792 142.617 22.792C146.313 22.792 147.785 24.712 147.785 26.728C147.785 26.952 147.785 27.128 147.769 27.352C147.497 27.336 147.081 27.32 146.649 27.32C146.169 27.32 145.737 27.32 145.449 27.352C145.465 27.208 145.465 27.064 145.465 26.952C145.465 25.544 144.521 24.776 142.601 24.776C140.393 24.776 139.129 25.88 139.129 28.92C139.129 31.88 140.345 33.256 142.665 33.256C144.809 33.256 145.577 32.392 145.529 30.136C144.441 30.152 142.905 30.152 142.009 30.184C142.025 30.024 142.025 29.704 142.025 29.528C142.025 29.128 142.025 28.808 142.009 28.536C142.985 28.568 143.961 28.568 144.681 28.568C145.497 28.568 146.649 28.584 147.737 28.552ZM152.849 29C153.409 29.016 154.641 29.032 155.985 29.048C157.553 29.048 158.337 28.264 158.337 26.984C158.337 25.384 157.537 24.904 155.697 24.904C155.137 24.904 153.697 24.92 152.849 24.952C152.849 26.328 152.833 27.704 152.849 29ZM157.761 30.104V30.168C159.377 30.376 159.921 30.824 160.497 32.504C160.865 33.592 161.169 34.504 161.377 35H159.121C158.689 35 158.641 34.856 158.353 33.8C157.633 31.336 157.345 30.808 155.857 30.808C154.849 30.808 154.273 30.824 152.865 30.824C152.881 32.52 152.929 33.992 153.009 35H150.529C150.545 33.256 150.577 31.56 150.577 29C150.577 26.456 150.561 24.728 150.529 23H156.177C158.993 23 160.625 24.184 160.625 26.648C160.625 28.632 159.761 29.768 157.761 30.104ZM174.335 28.872C174.335 32.952 172.047 35.224 168.415 35.224C164.783 35.224 162.527 32.952 162.527 28.872C162.527 24.792 164.911 22.776 168.415 22.776C171.935 22.776 174.335 24.792 174.335 28.872ZM168.431 33.112C170.655 33.112 171.935 31.672 171.935 28.952C171.935 26.232 170.639 24.872 168.431 24.872C166.207 24.872 164.895 26.2 164.895 28.952C164.895 31.688 166.207 33.112 168.431 33.112ZM184.892 23H187.324C187.276 23.976 187.26 24.936 187.26 26.392C187.26 27.384 187.292 28.856 187.292 30.104C187.292 33.272 185.74 35.208 182.012 35.208C178.284 35.208 176.716 33.272 176.716 30.104C176.716 28.856 176.748 27.384 176.748 26.392C176.748 24.936 176.732 23.96 176.684 23H179.148C179.084 24.632 179.052 28.2 179.052 30.024C179.052 32.168 180.044 33.112 182.06 33.112C184.044 33.112 184.956 32.168 184.956 30.024C184.956 28.2 184.924 24.616 184.892 23ZM195.076 29.624C197.204 29.624 198.084 29 198.084 27.32C198.084 25.672 197.156 25.016 195.188 25.016C194.692 25.016 193.46 25.032 192.74 25.048C192.74 26.632 192.74 28.184 192.74 29.592C193.204 29.608 194.1 29.624 195.076 29.624ZM190.34 23H195.588C198.596 23 200.404 24.216 200.404 27.352C200.404 30.28 198.58 31.656 195.508 31.656C194.516 31.656 193.94 31.64 192.756 31.608C192.788 32.936 192.82 34.104 192.868 35H190.34C190.404 33.272 190.404 31.56 190.404 29C190.404 26.456 190.404 24.616 190.34 23Z" fill="black"/>
</g>
<defs>
<filter id="filter0_d_1001_5255" x="0" y="0" width="264" height="65" filterUnits="userSpaceOnUse" color-interpolation-filters="sRGB">
<feFlood flood-opacity="0" result="BackgroundImageFix"/>
<feColorMatrix in="SourceAlpha" type="matrix" values="0 0 0 0 0 0 0 0 0 0 0 0 0 0 0 0 0 0 127 0" result="hardAlpha"/>
<feOffset dy="4"/>
<feGaussianBlur stdDeviation="2"/>
<feComposite in2="hardAlpha" operator="out"/>
<feColorMatrix type="matrix" values="0 0 0 0 0 0 0 0 0 0 0 0 0 0 0 0 0 0 0.25 0"/>
<feBlend mode="normal" in2="BackgroundImageFix" result="effect1_dropShadow_1001_5255"/>
<feBlend mode="normal" in="SourceGraphic" in2="effect1_dropShadow_1001_5255" result="shape"/>
</filter>
</defs>
</svg>
