<svg width="46" height="64" viewBox="0 0 46 64" fill="none" xmlns="http://www.w3.org/2000/svg">
<g filter="url(#filter0_d_822_1010)">
<path d="M17.7107 40.4167C17.2721 40.9334 17.3183 39.119 17.1219 38.4703C16.791 37.3773 16.3014 36.3533 15.8716 35.3003C14.6693 32.3552 12.7228 29.6906 11.1442 26.9392C9.4962 24.067 7.45473 20.9489 8.13402 17.4431C8.88386 13.5732 11.1779 10.395 14.1589 7.98718C21.1448 2.34472 30.3352 5.31253 35.7195 11.7535C40.1408 17.0422 35.7481 24.7739 32.9103 29.694C31.3781 32.3504 30.8587 35.4328 29.9331 38.3042C29.4627 39.7638 29.053 39.5546 27.8219 39.2328C26.0792 38.7774 24.1102 39.1237 22.3198 39.1237C21.6945 39.1237 19.3854 34.4658 19.0413 33.8728C17.4599 31.1485 16.268 27.7452 15.2749 24.7741C13.8651 20.5559 14.979 17.1853 16.4017 13.2057C17.1131 11.2155 18.9224 9.71145 21.0434 9.72915C21.998 9.73712 23.2735 11.8813 23.6199 12.6324C24.5186 14.5811 23.4585 17.0296 22.7589 18.8698C21.5939 21.9341 20.9325 24.8589 20.5912 28.1128C20.4273 29.6756 19.7532 32.4153 21.2732 33.5182C21.702 33.8293 23.113 35.1015 23.5487 34.3264C25.1467 31.4832 24.4395 26.5897 24.3482 23.5308C24.2598 20.5688 23.2828 12.9413 27.4093 12.1983C29.3551 11.848 30.0821 11.862 30.156 14.0603C30.2521 16.9152 29.8134 19.4133 29.0143 22.1549C28.8911 22.5776 27.1591 30.4479 28.2732 30.4479" stroke="#FFCD29" stroke-width="8" stroke-linecap="round" stroke-linejoin="round"/>
<path d="M17.2471 44.6978C17.502 44.6978 18.1826 50.2014 18.4716 51.1001C18.9198 52.4936 19.5253 52.4138 20.9317 52.5689C22.5833 52.751 25.0171 52.9204 26.5667 52.32C27.5568 51.9364 29.0282 52.3237 29.2002 51.0303C29.356 49.8597 29.1271 48.8029 29.5369 47.6761C29.7964 46.9628 29.7949 46.2813 29.7949 45.5303C29.7949 44.1895 29.1881 44.0718 27.9476 43.7436C26.1794 43.2757 24.5324 44.0181 22.7341 44.0181C21.9032 44.0181 17.5597 43.4786 17.5597 44.4829" stroke="#898989" stroke-width="3" stroke-linecap="round" stroke-linejoin="round"/>
<path d="M19.1647 49.8072C19.1647 50.6268 23.8798 50.1563 24.6112 50.2412C25.2513 50.3156 26.9527 50.9685 26.5294 50.4826C26.0732 49.9588 24.8638 49.9501 24.2609 49.8482C22.2846 49.5143 16.3922 49.1966 18.3477 48.7569C19.9403 48.3987 21.8966 48.793 23.4822 48.9761C24.7825 49.1262 28.5764 49.9117 27.3906 49.3571C24.9815 48.2305 21.1789 49.2345 19.1878 47.2404C18.2556 46.3067 23.3369 46.4713 23.7914 46.4713C24.0118 46.4713 25.9751 46.6861 24.9181 46.6861C23.1787 46.6861 21.2382 46.2488 19.5729 45.7916C18.4859 45.4932 18.9169 45.2976 18.6123 45.1549C18.1621 44.944 16.0195 44.5494 17.8579 44.5494C20.3345 44.5494 22.6243 44.0125 25.0947 44.4157C25.8003 44.5309 27.2712 44.3214 27.7261 45.0655C28.585 46.4702 26.2697 47.775 26.3348 47.4166" stroke="#898989" stroke-width="3" stroke-linecap="round" stroke-linejoin="round"/>
<path d="M20.4141 53.8115C18.9833 53.8115 23.2358 54.8115 24.6665 54.8115C25.8836 54.8115 26.903 53.9593 28.124 53.9593" stroke="#1E1E1E" stroke-width="2" stroke-linecap="round" stroke-linejoin="round"/>
<path d="M20.7384 41.7805C20.7384 43.6102 20.8263 38.1211 20.9454 36.2952C21.2034 32.3389 20.5063 28.1993 19.2909 24.4142C18.861 23.0752 18.1303 22.9172 16.799 22.9172C15.6646 22.9172 15.5451 24.6302 15.4841 25.4582C15.1963 29.3617 19.3791 29.7464 21.7768 27.6902C23.2331 26.4413 24.7579 25.2956 26.1357 23.9543C26.7134 23.3919 27.6773 21.3819 27.0563 20.5661C26.6224 19.9961 25.8069 20.6555 25.5793 21.0548C24.6866 22.6208 24.3415 24.6389 24.5342 26.4216C24.9714 30.4649 27.1509 34.1194 27.3128 38.221C27.3524 39.2252 27.2891 42.2107 27.5073 41.2297" stroke="#1E1E1E" stroke-width="3" stroke-linecap="round" stroke-linejoin="round"/>
<path d="M20.2878 49.6748C20.452 49.8594 20.8638 49.8037 21.0845 49.8037C22.5722 49.8037 24.3141 50.0534 25.7674 49.665C26.0784 49.5819 27.6231 49.766 26.9387 49.5233C25.565 49.0363 24.0507 48.8686 22.6339 48.5329C20.5418 48.0372 26.9882 47.0342 25.1722 47.0342C24.2718 47.0342 21.4072 47.2201 20.9027 46.2225C20.8496 46.1174 23.894 46.042 24.3471 46.042" stroke="#1E1E1E" stroke-linecap="round" stroke-linejoin="round"/>
</g>
<defs>
<filter id="filter0_d_822_1010" x="-0.000312805" y="0.975159" width="45.5973" height="62.8364" filterUnits="userSpaceOnUse" color-interpolation-filters="sRGB">
<feFlood flood-opacity="0" result="BackgroundImageFix"/>
<feColorMatrix in="SourceAlpha" type="matrix" values="0 0 0 0 0 0 0 0 0 0 0 0 0 0 0 0 0 0 127 0" result="hardAlpha"/>
<feOffset dy="4"/>
<feGaussianBlur stdDeviation="2"/>
<feComposite in2="hardAlpha" operator="out"/>
<feColorMatrix type="matrix" values="0 0 0 0 0 0 0 0 0 0 0 0 0 0 0 0 0 0 0.25 0"/>
<feBlend mode="normal" in2="BackgroundImageFix" result="effect1_dropShadow_822_1010"/>
<feBlend mode="normal" in="SourceGraphic" in2="effect1_dropShadow_822_1010" result="shape"/>
</filter>
</defs>
</svg>
