<svg width="390" height="844" viewBox="0 0 390 844" fill="none" xmlns="http://www.w3.org/2000/svg">
<g clip-path="url(#clip0_2055_1600)">
<rect width="390" height="844" fill="white"/>
<rect width="390" height="844" fill="#FEF8E5"/>
<path d="M390 316C390 288.386 367.614 266 340 266H50C22.3858 266 0 288.386 0 316V844H390V316Z" fill="#FD4A1E"/>
<path d="M-4.50005 844C-8.5654 845.766 -5.14904 832.753 -4.49994 831C-2.89325 826.662 2.74231 812.751 12.3087 813.322C20.0273 813.782 27.4238 820.529 32.5931 824.036C39.8438 828.954 48.5504 834.335 58.9051 835.18C70.7737 836.148 76.9293 815.48 79.7987 810.235C83.8128 802.897 92.096 789.014 107 790C120.509 790.894 130.319 804.552 135.794 811.678C140.801 818.195 147.985 836.542 162.897 835.478C168.405 835.085 171.75 829.404 174.139 826.668C178.852 821.271 182.823 815.542 187.736 810.24C194.174 803.293 204.649 795.484 218.009 801.328C231.859 807.386 240.407 818.28 254.552 823.864C269.252 829.668 279.335 818.944 287.642 812.599C299.147 803.811 309.802 804.519 320.202 814.745C326.156 820.598 331.253 839.846 344 838.5C356.319 837.199 361 802.828 373 801.328C385 799.828 386.985 822.392 391.5 824" stroke="#D7EE00" stroke-width="8" stroke-linecap="round" stroke-linejoin="round"/>
<path d="M171.897 39H176.957C176.897 41.06 176.877 43.32 176.877 46.5C176.877 49.68 176.897 51.84 176.957 54H171.897C171.937 52.56 171.957 50.38 171.977 48.64C171.257 48.62 170.457 48.62 169.657 48.62C168.857 48.62 168.057 48.62 167.337 48.64C167.337 50.38 167.357 52.54 167.417 54H162.357C162.437 51.84 162.437 49.68 162.437 46.5C162.437 43.32 162.437 41.06 162.357 39H167.417C167.357 40.4 167.337 42.66 167.337 44.46C168.057 44.48 168.857 44.5 169.657 44.5C170.457 44.5 171.257 44.48 171.977 44.46C171.957 42.66 171.937 40.4 171.897 39ZM194.504 46.24C194.504 51.66 191.824 54.28 186.684 54.28C181.544 54.28 178.964 51.66 178.964 46.24C178.964 40.82 181.824 38.72 186.704 38.72C191.564 38.72 194.504 40.82 194.504 46.24ZM186.704 50.24C188.504 50.24 189.404 49 189.404 46.3C189.404 43.64 188.484 42.54 186.704 42.54C184.924 42.54 183.984 43.6 183.984 46.3C183.984 49.04 184.924 50.24 186.704 50.24ZM214.257 54H209.497C209.597 51.68 209.637 49.92 209.657 47.44C209.657 46.46 209.717 45.34 209.777 44.26L209.657 44.24C209.357 45.38 209.017 46.52 208.737 47.34L206.217 54H204.097L201.517 47.18C201.217 46.34 200.877 45.22 200.577 44.14L200.477 44.16C200.517 45.24 200.577 46.28 200.597 47.38C200.617 49.9 200.657 51.72 200.717 54H196.537C196.597 51.84 196.617 49.66 196.617 46.48C196.617 43.2 196.597 40.96 196.557 39H202.817C203.277 40.4 204.037 42.7 204.957 45.14C205.157 45.8 205.397 46.7 205.617 47.56H205.677C205.917 46.7 206.157 45.84 206.377 45.16C207.217 42.76 208.037 40.38 208.497 39H214.237C214.177 40.96 214.157 43.2 214.157 46.48C214.157 49.66 214.177 51.84 214.257 54ZM216.849 39H228.889C228.869 39.42 228.849 40.18 228.849 40.76C228.849 41.38 228.849 42.24 228.889 42.68C226.449 42.66 223.789 42.64 221.789 42.64V44.74C224.169 44.74 226.749 44.74 228.709 44.68C228.689 45.42 228.689 47.16 228.689 47.96C226.749 47.92 224.149 47.9 221.789 47.9V50.08C223.809 50.08 226.609 50.06 228.889 50.04C228.849 50.52 228.849 51.4 228.849 52.1C228.849 52.7 228.849 53.5 228.889 54H216.849C216.909 51.98 216.909 49.7 216.909 46.5C216.909 43.32 216.909 40.94 216.849 39Z" fill="#FD4A1E"/>
<g filter="url(#filter0_d_2055_1600)">
<rect x="41.5" y="79.5" width="148" height="72" rx="9.5" fill="#FD4A1E" stroke="black"/>
<path d="M117.099 111H112.339C112.439 108.68 112.479 106.92 112.499 104.44C112.499 103.46 112.559 102.34 112.619 101.26L112.499 101.24C112.199 102.38 111.859 103.52 111.579 104.34L109.059 111H106.939L104.359 104.18C104.059 103.34 103.719 102.22 103.419 101.14L103.319 101.16C103.359 102.24 103.419 103.28 103.439 104.38C103.459 106.9 103.499 108.72 103.559 111H99.3786C99.4386 108.84 99.4586 106.66 99.4586 103.48C99.4586 100.2 99.4386 97.96 99.3986 96H105.659C106.119 97.4 106.879 99.7 107.799 102.14C107.999 102.8 108.239 103.7 108.459 104.56H108.519C108.759 103.7 108.999 102.84 109.219 102.16C110.059 99.76 110.879 97.38 111.339 96H117.079C117.019 97.96 116.999 100.2 116.999 103.48C116.999 106.66 117.019 108.84 117.099 111ZM128.095 96H132.935C131.715 98.38 129.155 104.42 128.355 106.48C128.375 108.72 128.415 110.38 128.435 111.02C127.675 110.98 126.495 110.98 125.595 110.98C124.675 110.98 123.495 110.98 122.715 111.02C122.775 110.38 122.815 108.68 122.815 106.42C122.015 104.24 119.435 98.22 118.235 96H123.675C123.915 96.78 124.555 98.88 125.075 100.64C125.335 101.56 125.575 102.44 125.755 103.14H125.915C126.095 102.46 126.315 101.6 126.595 100.72C127.175 98.92 127.895 96.78 128.095 96ZM59.0422 126.02C60.9622 126.02 61.6022 125.46 61.6022 123.74C61.6022 122.02 60.8822 121.52 59.1422 121.52C58.7822 121.52 58.0022 121.52 57.3822 121.54C57.3822 123.1 57.3822 124.6 57.4022 126C57.8022 126 58.3822 126.02 59.0422 126.02ZM52.5222 118H60.2822C64.1422 118 66.2822 119.32 66.2822 123.64C66.2822 127.76 64.4422 129.54 59.8622 129.54C59.1022 129.54 58.3622 129.52 57.4422 129.5C57.4822 130.86 57.5222 132.04 57.6022 133H52.5222C52.5822 130.84 52.6022 128.7 52.6022 125.5C52.6022 122.32 52.5822 120.08 52.5222 118ZM82.99 125.24C82.99 130.66 80.31 133.28 75.17 133.28C70.03 133.28 67.45 130.66 67.45 125.24C67.45 119.82 70.31 117.72 75.19 117.72C80.05 117.72 82.99 119.82 82.99 125.24ZM75.19 129.24C76.99 129.24 77.89 128 77.89 125.3C77.89 122.64 76.97 121.54 75.19 121.54C73.41 121.54 72.47 122.6 72.47 125.3C72.47 128.04 73.41 129.24 75.19 129.24ZM91.5031 126.02C93.4231 126.02 94.0631 125.46 94.0631 123.74C94.0631 122.02 93.3431 121.52 91.6031 121.52C91.2431 121.52 90.4631 121.52 89.8431 121.54C89.8431 123.1 89.8431 124.6 89.8631 126C90.2631 126 90.8431 126.02 91.5031 126.02ZM84.9831 118H92.7431C96.6031 118 98.7431 119.32 98.7431 123.64C98.7431 127.76 96.9031 129.54 92.3231 129.54C91.5631 129.54 90.8231 129.52 89.9031 129.5C89.9431 130.86 89.9831 132.04 90.0631 133H84.9831C85.0431 130.84 85.0631 128.7 85.0631 125.5C85.0631 122.32 85.0431 120.08 84.9831 118ZM100.491 118H105.651C105.611 119.12 105.571 122.16 105.551 125.48C105.551 126.54 105.551 127.62 105.571 128.56C106.951 128.56 108.791 128.54 110.391 128.5C110.391 129.24 110.371 130 110.371 130.74C110.371 131.5 110.391 132.24 110.391 133H100.491C100.491 131.78 100.551 128.7 100.551 125.5C100.551 122.06 100.551 119.44 100.491 118ZM117.036 133H111.956C112.016 130.84 112.016 128.68 112.016 125.5C112.016 122.3 112.016 120.14 111.956 118H117.036C116.996 120.12 116.996 122.28 116.996 125.48C116.996 128.66 116.996 130.82 117.036 133ZM133.652 124.64H133.692C134.032 130.38 132.972 133.26 126.672 133.26C121.432 133.26 119.012 130.54 119.012 125.34C119.012 120.16 121.472 117.74 126.732 117.74C131.992 117.74 133.772 119.92 133.772 122.6C133.772 122.88 133.772 123.14 133.752 123.44C133.092 123.42 132.172 123.4 131.272 123.4C130.352 123.4 129.472 123.4 128.872 123.44C128.872 123.28 128.892 123.1 128.892 122.96C128.892 121.74 128.152 121.2 126.712 121.2C124.832 121.2 124.032 122.2 124.032 125.4C124.032 128.42 124.752 129.7 126.852 129.7C128.352 129.7 128.972 129.08 129.092 127.48C128.132 127.48 127.092 127.5 126.292 127.52C126.312 127.22 126.312 126.5 126.312 126.18C126.312 125.56 126.312 125.04 126.292 124.64C127.572 124.66 128.852 124.66 129.812 124.66C130.872 124.66 132.252 124.68 133.652 124.64ZM145.676 118H150.736C150.676 120.06 150.656 122.32 150.656 125.5C150.656 128.68 150.676 130.84 150.736 133H145.676C145.716 131.56 145.736 129.38 145.756 127.64C145.036 127.62 144.236 127.62 143.436 127.62C142.636 127.62 141.836 127.62 141.116 127.64C141.116 129.38 141.136 131.54 141.196 133H136.136C136.216 130.84 136.216 128.68 136.216 125.5C136.216 122.32 136.216 120.06 136.136 118H141.196C141.136 119.4 141.116 121.66 141.116 123.46C141.836 123.48 142.636 123.5 143.436 123.5C144.236 123.5 145.036 123.48 145.756 123.46C145.736 121.66 145.716 119.4 145.676 118ZM152.383 118H164.383C164.363 118.56 164.363 119.42 164.363 120.2C164.363 120.94 164.363 121.88 164.383 122.48C163.203 122.46 162.023 122.44 160.943 122.44C160.943 127.26 160.963 131.94 161.023 133.02C160.323 132.96 159.183 132.96 158.383 132.96C157.583 132.96 156.483 132.96 155.763 133.02C155.823 131.94 155.843 127.28 155.843 122.44C154.763 122.44 153.583 122.46 152.383 122.48C152.403 121.88 152.403 120.94 152.403 120.2C152.403 119.42 152.403 118.56 152.383 118ZM169.959 128.1V128.38C169.959 129.52 170.479 129.94 172.199 129.94C173.879 129.94 174.339 129.54 174.339 128.8C174.339 127.94 173.879 127.36 171.279 127C166.699 126.38 165.579 124.84 165.579 122.24C165.579 119.4 167.619 117.72 172.219 117.72C177.339 117.72 178.919 119.2 178.919 121.88C178.919 122.16 178.899 122.46 178.879 122.78C178.279 122.74 177.299 122.72 176.439 122.72C175.759 122.72 175.099 122.72 174.679 122.74C174.699 122.6 174.699 122.46 174.699 122.34C174.699 121.54 174.259 121.02 172.359 121.02C170.899 121.02 170.439 121.44 170.439 122.08C170.439 122.8 170.759 123.4 173.579 123.82C177.679 124.44 179.119 125.74 179.119 128.66C179.119 131.58 177.279 133.28 172.439 133.28C167.239 133.28 165.539 131.86 165.539 129.08C165.539 128.74 165.539 128.38 165.579 128.02C166.239 128.08 167.239 128.14 168.179 128.14C168.859 128.14 169.499 128.14 169.959 128.1Z" fill="#FEF8E5"/>
</g>
<g filter="url(#filter1_d_2055_1600)">
<rect x="200.5" y="79.5" width="148" height="72" rx="9.5" fill="#FEF8E5" stroke="black"/>
<path d="M221.43 113.507V113.146C221.43 110.885 220.214 109.992 217.858 109.992C215.388 109.992 213.887 111.246 213.887 114.723C213.887 118.276 215.445 119.72 217.953 119.72C220.404 119.72 221.468 118.523 221.468 116.585V116.205C221.943 116.224 222.361 116.224 222.836 116.224C223.292 116.224 223.767 116.224 224.242 116.205V116.756C224.242 120.1 222.133 122.228 217.972 122.228C213.754 122.228 211.018 119.872 211.018 114.799C211.018 110.144 213.488 107.522 217.972 107.522C222.323 107.522 224.185 109.745 224.185 112.709C224.185 112.975 224.185 113.222 224.166 113.507C223.71 113.488 223.235 113.488 222.779 113.488C222.304 113.488 221.886 113.488 221.43 113.507ZM236.928 107.75H239.816C239.759 108.909 239.74 110.049 239.74 111.778C239.74 112.956 239.778 114.704 239.778 116.186C239.778 119.948 237.935 122.247 233.508 122.247C229.081 122.247 227.219 119.948 227.219 116.186C227.219 114.704 227.257 112.956 227.257 111.778C227.257 110.049 227.238 108.89 227.181 107.75H230.107C230.031 109.688 229.993 113.925 229.993 116.091C229.993 118.637 231.171 119.758 233.565 119.758C235.921 119.758 237.004 118.637 237.004 116.091C237.004 113.925 236.966 109.669 236.928 107.75ZM249.022 119.986C251.473 119.986 252.328 119.321 252.328 118.124C252.328 116.965 251.606 116.243 248.433 115.825C244.234 115.255 242.923 113.849 242.923 111.493C242.923 109.08 244.842 107.484 248.737 107.484C253.031 107.484 254.703 109.023 254.703 111.512C254.703 111.835 254.684 112.082 254.665 112.424C254.361 112.405 253.886 112.386 253.411 112.386C252.917 112.386 252.404 112.405 252.1 112.424C252.119 112.215 252.119 111.968 252.119 111.816C252.119 110.562 251.283 109.764 248.661 109.764C246.552 109.764 245.678 110.372 245.678 111.474C245.678 112.405 246.153 113.203 249.478 113.659C253.487 114.229 254.969 115.502 254.969 118.048C254.969 120.632 253.088 122.266 249.041 122.266C244.614 122.266 242.752 120.765 242.752 118.105C242.752 117.801 242.752 117.516 242.79 117.193C243.113 117.25 243.607 117.269 244.101 117.269C244.652 117.269 245.146 117.25 245.545 117.231C245.526 117.364 245.526 117.497 245.526 117.63C245.526 119.245 246.514 119.986 249.022 119.986ZM256.484 107.75H267.713V108.966V110.22C266.231 110.201 264.749 110.182 263.476 110.182C263.476 115.502 263.476 120.822 263.533 122.019C263.134 121.981 262.526 121.981 262.089 121.981C261.69 121.981 261.101 121.981 260.683 122.019C260.74 120.841 260.74 115.521 260.74 110.182C259.467 110.182 257.985 110.201 256.484 110.22V108.966V107.75ZM282.839 114.723C282.839 119.568 280.122 122.266 275.809 122.266C271.496 122.266 268.817 119.568 268.817 114.723C268.817 109.878 271.648 107.484 275.809 107.484C279.989 107.484 282.839 109.878 282.839 114.723ZM275.828 119.758C278.469 119.758 279.989 118.048 279.989 114.818C279.989 111.588 278.45 109.973 275.828 109.973C273.187 109.973 271.629 111.55 271.629 114.818C271.629 118.067 273.187 119.758 275.828 119.758ZM301.646 122H298.815C298.91 119.188 298.929 116.927 298.948 113.868C298.948 112.804 299.005 111.607 299.043 110.486L298.948 110.467C298.606 111.588 298.207 112.766 297.808 113.678L294.179 122H292.925L289.239 113.488C288.821 112.519 288.422 111.398 288.08 110.372L287.966 110.391C288.004 111.588 288.08 112.823 288.099 113.982C288.099 117.079 288.137 119.15 288.194 122H285.667C285.724 119.948 285.724 117.877 285.724 114.856C285.724 111.74 285.724 109.612 285.686 107.75H289.315C289.942 109.118 291.329 112.405 292.754 115.616C293.058 116.3 293.438 117.269 293.761 118.181H293.837C294.16 117.307 294.521 116.395 294.863 115.654C296.231 112.481 297.637 109.175 298.283 107.75H301.627C301.57 109.612 301.551 111.74 301.551 114.856C301.551 117.877 301.57 119.948 301.646 122ZM308.241 122H305.353C305.41 119.948 305.41 117.896 305.41 114.875C305.41 111.835 305.41 109.783 305.353 107.75H308.241C308.184 109.764 308.184 111.816 308.184 114.856C308.184 117.877 308.184 119.929 308.241 122ZM323.455 122H311.39C311.409 121.601 311.409 121.278 311.409 120.955C311.409 120.499 311.409 119.91 311.39 119.663C312.302 118.941 315.494 115.236 317.679 112.69C318.496 111.759 319.427 110.866 320.149 110.22L320.111 110.106C319.256 110.163 318.306 110.163 317.204 110.163C313.898 110.163 312.625 110.182 311.485 110.201C311.504 109.84 311.523 109.251 311.523 108.947C311.523 108.586 311.523 108.149 311.504 107.75H323.417C323.417 108.168 323.398 108.51 323.398 108.871C323.398 109.232 323.398 109.859 323.417 110.163C322.562 110.885 319.807 114.229 317.47 116.946C316.501 118.067 315.779 118.846 315.038 119.511L315.057 119.587C315.95 119.568 316.824 119.549 317.66 119.568C320.358 119.568 322.315 119.511 323.436 119.473C323.398 119.948 323.398 120.575 323.398 120.898C323.398 121.24 323.417 121.582 323.455 122ZM326.522 107.75H337.485C337.466 107.997 337.466 108.51 337.466 108.871C337.466 109.27 337.466 109.859 337.485 110.144C334.654 110.125 331.595 110.106 329.334 110.106V113.716C332.07 113.716 335.034 113.716 337.314 113.659C337.295 114.172 337.295 115.407 337.295 115.92C335.053 115.882 332.032 115.882 329.334 115.882V119.549C331.595 119.549 334.749 119.53 337.485 119.511C337.466 119.815 337.466 120.385 337.466 120.822C337.466 121.164 337.466 121.696 337.485 122H326.522C326.579 120.195 326.579 117.915 326.579 114.875C326.579 111.854 326.579 109.441 326.522 107.75Z" fill="black"/>
<rect x="200.5" y="79.5" width="148" height="72" rx="9.5" fill="#FEF8E5" stroke="black"/>
<path d="M239.041 106.36C239.801 106.36 240.841 106.36 241.801 106.34C241.241 104.7 240.661 102.98 240.161 101.58C239.621 100.18 239.301 99.2 239.061 98.5C238.821 99.22 238.501 100.18 237.961 101.68C237.481 103.06 236.921 104.74 236.361 106.34C237.301 106.36 238.321 106.36 239.041 106.36ZM247.061 112H243.621C243.481 111.42 243.081 110.12 242.541 108.52C241.301 108.52 240.021 108.52 239.041 108.52C238.161 108.52 236.821 108.52 235.601 108.52C235.081 110.06 234.661 111.34 234.461 112H231.261C232.721 108.5 236.121 99.14 236.861 97H241.341C242.161 99.2 245.481 108.3 247.061 112ZM254.641 109.44C257.741 109.44 259.201 108.34 259.201 104.38C259.201 100.54 257.761 99.56 254.721 99.56C253.681 99.56 252.721 99.58 251.821 99.62C251.801 101.12 251.781 102.9 251.781 104.6C251.781 106.88 251.781 108.3 251.801 109.38C252.801 109.44 253.561 109.44 254.641 109.44ZM248.801 97H254.721C259.781 97 262.121 98.92 262.121 104.32C262.121 109.7 259.941 112 254.661 112H248.801C248.861 109.94 248.861 107.7 248.861 104.52C248.861 101.34 248.861 98.84 248.801 97ZM268.008 97H271.088C271.048 98.62 271.028 99.86 271.028 101.64C271.028 102.44 271.088 104.42 271.088 107.02C271.088 110.02 269.668 112.18 266.448 112.18C265.328 112.18 264.028 111.98 262.928 111.48C263.068 110.94 263.408 109.4 263.488 108.7C264.188 109.12 264.968 109.4 266.068 109.4C267.388 109.4 268.148 108.64 268.148 107.18C268.148 101.84 268.148 98.52 268.008 97ZM285.019 97H288.059C287.999 98.22 287.979 99.42 287.979 101.24C287.979 102.48 288.019 104.32 288.019 105.88C288.019 109.84 286.079 112.26 281.419 112.26C276.759 112.26 274.799 109.84 274.799 105.88C274.799 104.32 274.839 102.48 274.839 101.24C274.839 99.42 274.819 98.2 274.759 97H277.839C277.759 99.04 277.719 103.5 277.719 105.78C277.719 108.46 278.959 109.64 281.479 109.64C283.959 109.64 285.099 108.46 285.099 105.78C285.099 103.5 285.059 99.02 285.019 97ZM297.75 109.88C300.33 109.88 301.23 109.18 301.23 107.92C301.23 106.7 300.47 105.94 297.13 105.5C292.71 104.9 291.33 103.42 291.33 100.94C291.33 98.4 293.35 96.72 297.45 96.72C301.97 96.72 303.73 98.34 303.73 100.96C303.73 101.3 303.71 101.56 303.69 101.92C303.37 101.9 302.87 101.88 302.37 101.88C301.85 101.88 301.31 101.9 300.99 101.92C301.01 101.7 301.01 101.44 301.01 101.28C301.01 99.96 300.13 99.12 297.37 99.12C295.15 99.12 294.23 99.76 294.23 100.92C294.23 101.9 294.73 102.74 298.23 103.22C302.45 103.82 304.01 105.16 304.01 107.84C304.01 110.56 302.03 112.28 297.77 112.28C293.11 112.28 291.15 110.7 291.15 107.9C291.15 107.58 291.15 107.28 291.19 106.94C291.53 107 292.05 107.02 292.57 107.02C293.15 107.02 293.67 107 294.09 106.98C294.07 107.12 294.07 107.26 294.07 107.4C294.07 109.1 295.11 109.88 297.75 109.88ZM305.604 97H317.424V98.28V99.6C315.864 99.58 314.304 99.56 312.964 99.56C312.964 105.16 312.964 110.76 313.024 112.02C312.604 111.98 311.964 111.98 311.504 111.98C311.084 111.98 310.464 111.98 310.024 112.02C310.084 110.78 310.084 105.18 310.084 99.56C308.744 99.56 307.184 99.58 305.604 99.6V98.28V97ZM226.822 131.88C229.402 131.88 230.302 131.18 230.302 129.92C230.302 128.7 229.542 127.94 226.202 127.5C221.782 126.9 220.402 125.42 220.402 122.94C220.402 120.4 222.422 118.72 226.522 118.72C231.042 118.72 232.802 120.34 232.802 122.96C232.802 123.3 232.782 123.56 232.762 123.92C232.442 123.9 231.942 123.88 231.442 123.88C230.922 123.88 230.382 123.9 230.062 123.92C230.082 123.7 230.082 123.44 230.082 123.28C230.082 121.96 229.202 121.12 226.442 121.12C224.222 121.12 223.302 121.76 223.302 122.92C223.302 123.9 223.802 124.74 227.302 125.22C231.522 125.82 233.082 127.16 233.082 129.84C233.082 132.56 231.102 134.28 226.842 134.28C222.182 134.28 220.222 132.7 220.222 129.9C220.222 129.58 220.222 129.28 220.262 128.94C220.602 129 221.122 129.02 221.642 129.02C222.222 129.02 222.742 129 223.162 128.98C223.142 129.12 223.142 129.26 223.142 129.4C223.142 131.1 224.182 131.88 226.822 131.88ZM236.096 119H247.636C247.616 119.26 247.616 119.8 247.616 120.18C247.616 120.6 247.616 121.22 247.636 121.52C244.656 121.5 241.436 121.48 239.056 121.48V125.28C241.936 125.28 245.056 125.28 247.456 125.22C247.436 125.76 247.436 127.06 247.436 127.6C245.076 127.56 241.896 127.56 239.056 127.56V131.42C241.436 131.42 244.756 131.4 247.636 131.38C247.616 131.7 247.616 132.3 247.616 132.76C247.616 133.12 247.616 133.68 247.636 134H236.096C236.156 132.1 236.156 129.7 236.156 126.5C236.156 123.32 236.156 120.78 236.096 119ZM249.579 119H261.399V120.28V121.6C259.839 121.58 258.279 121.56 256.939 121.56C256.939 127.16 256.939 132.76 256.999 134.02C256.579 133.98 255.939 133.98 255.479 133.98C255.059 133.98 254.439 133.98 253.999 134.02C254.059 132.78 254.059 127.18 254.059 121.56C252.719 121.56 251.159 121.58 249.579 121.6V120.28V119ZM262.274 119H274.094V120.28V121.6C272.534 121.58 270.974 121.56 269.634 121.56C269.634 127.16 269.634 132.76 269.694 134.02C269.274 133.98 268.634 133.98 268.174 133.98C267.754 133.98 267.134 133.98 266.694 134.02C266.754 132.78 266.754 127.18 266.754 121.56C265.414 121.56 263.854 121.58 262.274 121.6V120.28V119ZM279.489 134H276.449C276.509 131.84 276.509 129.68 276.509 126.5C276.509 123.3 276.509 121.14 276.449 119H279.489C279.429 121.12 279.429 123.28 279.429 126.48C279.429 129.66 279.429 131.82 279.489 134ZM293.844 119H296.564C296.544 120.66 296.504 123.3 296.504 126.48C296.504 129.78 296.504 132.02 296.544 134H293.464C292.644 132.5 289.764 128.32 287.484 125.02C286.864 124.04 286.304 123.02 285.864 122.04H285.844C285.924 123.32 285.984 124.54 286.004 125.68C286.024 129.94 286.024 132.84 286.064 134H283.324C283.344 132.04 283.364 129.7 283.364 126.5C283.364 123.32 283.364 120.84 283.324 119H286.884C287.524 120.16 290.604 124.52 292.704 127.74C293.224 128.54 293.724 129.52 294.124 130.46L294.164 130.44C294.064 129.26 294.004 128.12 294.004 127.06C294.004 123.98 293.944 120.42 293.844 119ZM313.215 125.94C313.575 131.28 312.435 134.26 306.755 134.26C302.035 134.26 299.475 131.2 299.475 126.36C299.475 121.5 302.055 118.74 306.815 118.74C311.435 118.74 313.275 121.14 313.275 123.66C313.275 123.94 313.275 124.16 313.255 124.44C312.915 124.42 312.395 124.4 311.855 124.4C311.255 124.4 310.715 124.4 310.355 124.44C310.375 124.26 310.375 124.08 310.375 123.94C310.375 122.18 309.195 121.22 306.795 121.22C304.035 121.22 302.455 122.6 302.455 126.4C302.455 130.1 303.975 131.82 306.875 131.82C309.555 131.82 310.515 130.74 310.455 127.92C309.095 127.94 307.175 127.94 306.055 127.98C306.075 127.78 306.075 127.38 306.075 127.16C306.075 126.66 306.075 126.26 306.055 125.92C307.275 125.96 308.495 125.96 309.395 125.96C310.415 125.96 311.855 125.98 313.215 125.94ZM322.584 131.88C325.164 131.88 326.064 131.18 326.064 129.92C326.064 128.7 325.304 127.94 321.964 127.5C317.544 126.9 316.164 125.42 316.164 122.94C316.164 120.4 318.184 118.72 322.284 118.72C326.804 118.72 328.564 120.34 328.564 122.96C328.564 123.3 328.544 123.56 328.524 123.92C328.204 123.9 327.704 123.88 327.204 123.88C326.684 123.88 326.144 123.9 325.824 123.92C325.844 123.7 325.844 123.44 325.844 123.28C325.844 121.96 324.964 121.12 322.204 121.12C319.984 121.12 319.064 121.76 319.064 122.92C319.064 123.9 319.564 124.74 323.064 125.22C327.284 125.82 328.844 127.16 328.844 129.84C328.844 132.56 326.864 134.28 322.604 134.28C317.944 134.28 315.984 132.7 315.984 129.9C315.984 129.58 315.984 129.28 316.024 128.94C316.364 129 316.884 129.02 317.404 129.02C317.984 129.02 318.504 129 318.924 128.98C318.904 129.12 318.904 129.26 318.904 129.4C318.904 131.1 319.944 131.88 322.584 131.88Z" fill="black"/>
</g>
<g filter="url(#filter2_d_2055_1600)">
<rect x="41.5" y="158.5" width="148" height="72" rx="9.5" fill="#FEF8E5" stroke="black"/>
<path d="M99.191 184.36C99.951 184.36 100.991 184.36 101.951 184.34C101.391 182.7 100.811 180.98 100.311 179.58C99.771 178.18 99.451 177.2 99.211 176.5C98.971 177.22 98.651 178.18 98.111 179.68C97.631 181.06 97.071 182.74 96.511 184.34C97.451 184.36 98.471 184.36 99.191 184.36ZM107.211 190H103.771C103.631 189.42 103.231 188.12 102.691 186.52C101.451 186.52 100.171 186.52 99.191 186.52C98.311 186.52 96.971 186.52 95.751 186.52C95.231 188.06 94.811 189.34 94.611 190H91.411C92.871 186.5 96.271 177.14 97.011 175H101.491C102.311 177.2 105.631 186.3 107.211 190ZM114.792 187.44C117.892 187.44 119.352 186.34 119.352 182.38C119.352 178.54 117.912 177.56 114.872 177.56C113.832 177.56 112.872 177.58 111.972 177.62C111.952 179.12 111.932 180.9 111.932 182.6C111.932 184.88 111.932 186.3 111.952 187.38C112.952 187.44 113.712 187.44 114.792 187.44ZM108.952 175H114.872C119.932 175 122.272 176.92 122.272 182.32C122.272 187.7 120.092 190 114.812 190H108.952C109.012 187.94 109.012 185.7 109.012 182.52C109.012 179.34 109.012 176.84 108.952 175ZM131.1 187.44C134.2 187.44 135.66 186.34 135.66 182.38C135.66 178.54 134.22 177.56 131.18 177.56C130.14 177.56 129.18 177.58 128.28 177.62C128.26 179.12 128.24 180.9 128.24 182.6C128.24 184.88 128.24 186.3 128.26 187.38C129.26 187.44 130.02 187.44 131.1 187.44ZM125.26 175H131.18C136.24 175 138.58 176.92 138.58 182.32C138.58 187.7 136.4 190 131.12 190H125.26C125.32 187.94 125.32 185.7 125.32 182.52C125.32 179.34 125.32 176.84 125.26 175ZM59.7555 205.28C62.4155 205.28 63.5155 204.5 63.5155 202.4C63.5155 200.34 62.3555 199.52 59.8955 199.52C59.2755 199.52 57.7355 199.54 56.8355 199.56C56.8355 201.54 56.8355 203.48 56.8355 205.24C57.4155 205.26 58.5355 205.28 59.7555 205.28ZM53.8355 197H60.3955C64.1555 197 66.4155 198.52 66.4155 202.44C66.4155 206.1 64.1355 207.82 60.2955 207.82C59.0555 207.82 58.3355 207.8 56.8555 207.76C56.8955 209.42 56.9355 210.88 56.9955 212H53.8355C53.9155 209.84 53.9155 207.7 53.9155 204.5C53.9155 201.32 53.9155 199.02 53.8355 197ZM82.8327 204.34C82.8327 209.44 79.9727 212.28 75.4327 212.28C70.8927 212.28 68.0727 209.44 68.0727 204.34C68.0727 199.24 71.0527 196.72 75.4327 196.72C79.8327 196.72 82.8327 199.24 82.8327 204.34ZM75.4527 209.64C78.2327 209.64 79.8327 207.84 79.8327 204.44C79.8327 201.04 78.2127 199.34 75.4527 199.34C72.6727 199.34 71.0327 201 71.0327 204.44C71.0327 207.86 72.6727 209.64 75.4527 209.64ZM91.6891 205.28C94.3491 205.28 95.4491 204.5 95.4491 202.4C95.4491 200.34 94.2891 199.52 91.8291 199.52C91.2091 199.52 89.6691 199.54 88.7691 199.56C88.7691 201.54 88.7691 203.48 88.7691 205.24C89.3491 205.26 90.4691 205.28 91.6891 205.28ZM85.7691 197H92.3291C96.0891 197 98.3491 198.52 98.3491 202.44C98.3491 206.1 96.0691 207.82 92.2291 207.82C90.9891 207.82 90.2691 207.8 88.7891 207.76C88.8291 209.42 88.8691 210.88 88.9291 212H85.7691C85.8491 209.84 85.8491 207.7 85.8491 204.5C85.8491 201.32 85.8491 199.02 85.7691 197ZM100.906 197H103.966C103.906 198.18 103.866 200.98 103.866 204.46C103.866 206.2 103.886 208.1 103.886 209.38C105.726 209.38 108.266 209.38 110.346 209.32C110.346 209.76 110.326 210.22 110.326 210.66C110.326 211.12 110.346 211.56 110.346 212H100.906C100.906 210.74 100.966 207.7 100.966 204.5C100.966 200.84 100.966 198.42 100.906 197ZM115.685 212H112.645C112.705 209.84 112.705 207.68 112.705 204.5C112.705 201.3 112.705 199.14 112.645 197H115.685C115.625 199.12 115.625 201.28 115.625 204.48C115.625 207.66 115.625 209.82 115.685 212ZM132.34 203.94C132.7 209.28 131.56 212.26 125.88 212.26C121.16 212.26 118.6 209.2 118.6 204.36C118.6 199.5 121.18 196.74 125.94 196.74C130.56 196.74 132.4 199.14 132.4 201.66C132.4 201.94 132.4 202.16 132.38 202.44C132.04 202.42 131.52 202.4 130.98 202.4C130.38 202.4 129.84 202.4 129.48 202.44C129.5 202.26 129.5 202.08 129.5 201.94C129.5 200.18 128.32 199.22 125.92 199.22C123.16 199.22 121.58 200.6 121.58 204.4C121.58 208.1 123.1 209.82 126 209.82C128.68 209.82 129.64 208.74 129.58 205.92C128.22 205.94 126.3 205.94 125.18 205.98C125.2 205.78 125.2 205.38 125.2 205.16C125.2 204.66 125.2 204.26 125.18 203.92C126.4 203.96 127.62 203.96 128.52 203.96C129.54 203.96 130.98 203.98 132.34 203.94ZM146.169 197H149.269C149.209 199 149.189 201.32 149.189 204.5C149.189 207.68 149.209 209.84 149.269 212H146.169C146.229 210.38 146.249 207.64 146.249 205.9C145.129 205.88 143.789 205.88 142.509 205.88C141.249 205.88 139.909 205.88 138.769 205.9C138.769 207.64 138.789 210.38 138.849 212H135.769C135.849 209.84 135.829 207.68 135.829 204.5C135.829 201.32 135.849 199 135.769 197H138.849C138.789 198.52 138.769 201.36 138.769 203.2C139.909 203.22 141.249 203.24 142.509 203.24C143.789 203.24 145.129 203.22 146.249 203.2C146.249 201.36 146.229 198.5 146.169 197ZM151.575 197H163.395V198.28V199.6C161.835 199.58 160.275 199.56 158.935 199.56C158.935 205.16 158.935 210.76 158.995 212.02C158.575 211.98 157.935 211.98 157.475 211.98C157.055 211.98 156.435 211.98 155.995 212.02C156.055 210.78 156.055 205.18 156.055 199.56C154.715 199.56 153.155 199.58 151.575 199.6V198.28V197ZM171.65 209.88C174.23 209.88 175.13 209.18 175.13 207.92C175.13 206.7 174.37 205.94 171.03 205.5C166.61 204.9 165.23 203.42 165.23 200.94C165.23 198.4 167.25 196.72 171.35 196.72C175.87 196.72 177.63 198.34 177.63 200.96C177.63 201.3 177.61 201.56 177.59 201.92C177.27 201.9 176.77 201.88 176.27 201.88C175.75 201.88 175.21 201.9 174.89 201.92C174.91 201.7 174.91 201.44 174.91 201.28C174.91 199.96 174.03 199.12 171.27 199.12C169.05 199.12 168.13 199.76 168.13 200.92C168.13 201.9 168.63 202.74 172.13 203.22C176.35 203.82 177.91 205.16 177.91 207.84C177.91 210.56 175.93 212.28 171.67 212.28C167.01 212.28 165.05 210.7 165.05 207.9C165.05 207.58 165.05 207.28 165.09 206.94C165.43 207 165.95 207.02 166.47 207.02C167.05 207.02 167.57 207 167.99 206.98C167.97 207.12 167.97 207.26 167.97 207.4C167.97 209.1 169.01 209.88 171.65 209.88Z" fill="black"/>
</g>
<g filter="url(#filter3_d_2055_1600)">
<rect x="200.5" y="158.5" width="148" height="72" rx="9.5" fill="#FEF8E5" stroke="black"/>
<path d="M243.439 191H240.459C240.559 188.04 240.579 185.66 240.599 182.44C240.599 181.32 240.659 180.06 240.699 178.88L240.599 178.86C240.239 180.04 239.819 181.28 239.399 182.24L235.579 191H234.259L230.379 182.04C229.939 181.02 229.519 179.84 229.159 178.76L229.039 178.78C229.079 180.04 229.159 181.34 229.179 182.56C229.179 185.82 229.219 188 229.279 191H226.619C226.679 188.84 226.679 186.66 226.679 183.48C226.679 180.2 226.679 177.96 226.639 176H230.459C231.119 177.44 232.579 180.9 234.079 184.28C234.399 185 234.799 186.02 235.139 186.98H235.219C235.559 186.06 235.939 185.1 236.299 184.32C237.739 180.98 239.219 177.5 239.899 176H243.419C243.359 177.96 243.339 180.2 243.339 183.48C243.339 186.66 243.359 188.84 243.439 191ZM253.321 185.36C254.081 185.36 255.121 185.36 256.081 185.34C255.521 183.7 254.941 181.98 254.441 180.58C253.901 179.18 253.581 178.2 253.341 177.5C253.101 178.22 252.781 179.18 252.241 180.68C251.761 182.06 251.201 183.74 250.641 185.34C251.581 185.36 252.601 185.36 253.321 185.36ZM261.341 191H257.901C257.761 190.42 257.361 189.12 256.821 187.52C255.581 187.52 254.301 187.52 253.321 187.52C252.441 187.52 251.101 187.52 249.881 187.52C249.361 189.06 248.941 190.34 248.741 191H245.541C247.001 187.5 250.401 178.14 251.141 176H255.621C256.441 178.2 259.761 187.3 261.341 191ZM273.896 176H276.616C276.596 177.66 276.556 180.3 276.556 183.48C276.556 186.78 276.556 189.02 276.596 191H273.516C272.696 189.5 269.816 185.32 267.536 182.02C266.916 181.04 266.356 180.02 265.916 179.04H265.896C265.976 180.32 266.036 181.54 266.056 182.68C266.076 186.94 266.076 189.84 266.116 191H263.376C263.396 189.04 263.416 186.7 263.416 183.5C263.416 180.32 263.416 177.84 263.376 176H266.936C267.576 177.16 270.656 181.52 272.756 184.74C273.276 185.54 273.776 186.52 274.176 187.46L274.216 187.44C274.116 186.26 274.056 185.12 274.056 184.06C274.056 180.98 273.996 177.42 273.896 176ZM286.427 185.36C287.187 185.36 288.227 185.36 289.187 185.34C288.627 183.7 288.047 181.98 287.547 180.58C287.007 179.18 286.687 178.2 286.447 177.5C286.207 178.22 285.887 179.18 285.347 180.68C284.867 182.06 284.307 183.74 283.747 185.34C284.687 185.36 285.707 185.36 286.427 185.36ZM294.447 191H291.007C290.867 190.42 290.467 189.12 289.927 187.52C288.687 187.52 287.407 187.52 286.427 187.52C285.547 187.52 284.207 187.52 282.987 187.52C282.467 189.06 282.047 190.34 281.847 191H278.647C280.107 187.5 283.507 178.14 284.247 176H288.727C289.547 178.2 292.867 187.3 294.447 191ZM308.696 182.94C309.056 188.28 307.916 191.26 302.236 191.26C297.516 191.26 294.956 188.2 294.956 183.36C294.956 178.5 297.536 175.74 302.296 175.74C306.916 175.74 308.756 178.14 308.756 180.66C308.756 180.94 308.756 181.16 308.736 181.44C308.396 181.42 307.876 181.4 307.336 181.4C306.736 181.4 306.196 181.4 305.836 181.44C305.856 181.26 305.856 181.08 305.856 180.94C305.856 179.18 304.676 178.22 302.276 178.22C299.516 178.22 297.936 179.6 297.936 183.4C297.936 187.1 299.456 188.82 302.356 188.82C305.036 188.82 305.996 187.74 305.936 184.92C304.576 184.94 302.656 184.94 301.536 184.98C301.556 184.78 301.556 184.38 301.556 184.16C301.556 183.66 301.556 183.26 301.536 182.92C302.756 182.96 303.976 182.96 304.876 182.96C305.896 182.96 307.336 182.98 308.696 182.94ZM312.105 176H323.645C323.625 176.26 323.625 176.8 323.625 177.18C323.625 177.6 323.625 178.22 323.645 178.52C320.665 178.5 317.445 178.48 315.065 178.48V182.28C317.945 182.28 321.065 182.28 323.465 182.22C323.445 182.76 323.445 184.06 323.445 184.6C321.085 184.56 317.905 184.56 315.065 184.56V188.42C317.445 188.42 320.765 188.4 323.645 188.38C323.625 188.7 323.625 189.3 323.625 189.76C323.625 190.12 323.625 190.68 323.645 191H312.105C312.165 189.1 312.165 186.7 312.165 183.5C312.165 180.32 312.165 177.78 312.105 176ZM241.431 204.94C241.791 210.28 240.651 213.26 234.971 213.26C230.251 213.26 227.691 210.2 227.691 205.36C227.691 200.5 230.271 197.74 235.031 197.74C239.651 197.74 241.491 200.14 241.491 202.66C241.491 202.94 241.491 203.16 241.471 203.44C241.131 203.42 240.611 203.4 240.071 203.4C239.471 203.4 238.931 203.4 238.571 203.44C238.591 203.26 238.591 203.08 238.591 202.94C238.591 201.18 237.411 200.22 235.011 200.22C232.251 200.22 230.671 201.6 230.671 205.4C230.671 209.1 232.191 210.82 235.091 210.82C237.771 210.82 238.731 209.74 238.671 206.92C237.311 206.94 235.391 206.94 234.271 206.98C234.291 206.78 234.291 206.38 234.291 206.16C234.291 205.66 234.291 205.26 234.271 204.92C235.491 204.96 236.711 204.96 237.611 204.96C238.631 204.96 240.071 204.98 241.431 204.94ZM247.82 205.5C248.52 205.52 250.06 205.54 251.74 205.56C253.7 205.56 254.68 204.58 254.68 202.98C254.68 200.98 253.68 200.38 251.38 200.38C250.68 200.38 248.88 200.4 247.82 200.44C247.82 202.16 247.8 203.88 247.82 205.5ZM253.96 206.88V206.96C255.98 207.22 256.66 207.78 257.38 209.88C257.84 211.24 258.22 212.38 258.48 213H255.66C255.12 213 255.06 212.82 254.7 211.5C253.8 208.42 253.44 207.76 251.58 207.76C250.32 207.76 249.6 207.78 247.84 207.78C247.86 209.9 247.92 211.74 248.02 213H244.92C244.94 210.82 244.98 208.7 244.98 205.5C244.98 202.32 244.96 200.16 244.92 198H251.98C255.5 198 257.54 199.48 257.54 202.56C257.54 205.04 256.46 206.46 253.96 206.88ZM274.678 205.34C274.678 210.44 271.818 213.28 267.278 213.28C262.738 213.28 259.918 210.44 259.918 205.34C259.918 200.24 262.898 197.72 267.278 197.72C271.678 197.72 274.678 200.24 274.678 205.34ZM267.298 210.64C270.078 210.64 271.678 208.84 271.678 205.44C271.678 202.04 270.058 200.34 267.298 200.34C264.518 200.34 262.878 202 262.878 205.44C262.878 208.86 264.518 210.64 267.298 210.64ZM287.874 198H290.914C290.854 199.22 290.834 200.42 290.834 202.24C290.834 203.48 290.874 205.32 290.874 206.88C290.874 210.84 288.934 213.26 284.274 213.26C279.614 213.26 277.654 210.84 277.654 206.88C277.654 205.32 277.694 203.48 277.694 202.24C277.694 200.42 277.674 199.2 277.614 198H280.694C280.614 200.04 280.574 204.5 280.574 206.78C280.574 209.46 281.814 210.64 284.334 210.64C286.814 210.64 287.954 209.46 287.954 206.78C287.954 204.5 287.914 200.02 287.874 198ZM300.604 206.28C303.264 206.28 304.364 205.5 304.364 203.4C304.364 201.34 303.204 200.52 300.744 200.52C300.124 200.52 298.584 200.54 297.684 200.56C297.684 202.54 297.684 204.48 297.684 206.24C298.264 206.26 299.384 206.28 300.604 206.28ZM294.684 198H301.244C305.004 198 307.264 199.52 307.264 203.44C307.264 207.1 304.984 208.82 301.144 208.82C299.904 208.82 299.184 208.8 297.704 208.76C297.744 210.42 297.784 211.88 297.844 213H294.684C294.764 210.84 294.764 208.7 294.764 205.5C294.764 202.32 294.764 200.02 294.684 198ZM315.722 210.88C318.302 210.88 319.202 210.18 319.202 208.92C319.202 207.7 318.442 206.94 315.102 206.5C310.682 205.9 309.302 204.42 309.302 201.94C309.302 199.4 311.322 197.72 315.422 197.72C319.942 197.72 321.702 199.34 321.702 201.96C321.702 202.3 321.682 202.56 321.662 202.92C321.342 202.9 320.842 202.88 320.342 202.88C319.822 202.88 319.282 202.9 318.962 202.92C318.982 202.7 318.982 202.44 318.982 202.28C318.982 200.96 318.102 200.12 315.342 200.12C313.122 200.12 312.202 200.76 312.202 201.92C312.202 202.9 312.702 203.74 316.202 204.22C320.422 204.82 321.982 206.16 321.982 208.84C321.982 211.56 320.002 213.28 315.742 213.28C311.082 213.28 309.122 211.7 309.122 208.9C309.122 208.58 309.122 208.28 309.162 207.94C309.502 208 310.022 208.02 310.542 208.02C311.122 208.02 311.642 208 312.062 207.98C312.042 208.12 312.042 208.26 312.042 208.4C312.042 210.1 313.082 210.88 315.722 210.88Z" fill="black"/>
</g>
<circle cx="45.5" cy="50.5" r="10" fill="#FEF8E5" stroke="#FD4A1E"/>
<path d="M40.4697 50.4697C40.1768 50.7626 40.1768 51.2374 40.4697 51.5303L45.2426 56.3033C45.5355 56.5962 46.0104 56.5962 46.3033 56.3033C46.5962 56.0104 46.5962 55.5355 46.3033 55.2426L42.0607 51L46.3033 46.7574C46.5962 46.4645 46.5962 45.9896 46.3033 45.6967C46.0104 45.4038 45.5355 45.4038 45.2426 45.6967L40.4697 50.4697ZM50 50.25L41 50.25L41 51.75L50 51.75L50 50.25Z" fill="#FD4A1E"/>
<path d="M333 295.165C333 294.235 345.404 294.846 346.812 294.846C349.239 294.846 351.667 294.846 354.095 294.846C354.305 294.846 355.256 294.795 354.934 294.945" stroke="#D7EE00" stroke-width="3" stroke-linecap="round" stroke-linejoin="round"/>
<path d="M344.684 307C343.753 307 344.364 294.596 344.364 293.188C344.364 290.761 344.364 288.333 344.364 285.905C344.364 285.695 344.313 284.744 344.463 285.066" stroke="#D7EE00" stroke-width="3" stroke-linecap="round" stroke-linejoin="round"/>
</g>
<defs>
<filter id="filter0_d_2055_1600" x="37" y="79" width="157" height="81" filterUnits="userSpaceOnUse" color-interpolation-filters="sRGB">
<feFlood flood-opacity="0" result="BackgroundImageFix"/>
<feColorMatrix in="SourceAlpha" type="matrix" values="0 0 0 0 0 0 0 0 0 0 0 0 0 0 0 0 0 0 127 0" result="hardAlpha"/>
<feOffset dy="4"/>
<feGaussianBlur stdDeviation="2"/>
<feComposite in2="hardAlpha" operator="out"/>
<feColorMatrix type="matrix" values="0 0 0 0 0 0 0 0 0 0 0 0 0 0 0 0 0 0 0.25 0"/>
<feBlend mode="normal" in2="BackgroundImageFix" result="effect1_dropShadow_2055_1600"/>
<feBlend mode="normal" in="SourceGraphic" in2="effect1_dropShadow_2055_1600" result="shape"/>
</filter>
<filter id="filter1_d_2055_1600" x="196" y="79" width="157" height="81" filterUnits="userSpaceOnUse" color-interpolation-filters="sRGB">
<feFlood flood-opacity="0" result="BackgroundImageFix"/>
<feColorMatrix in="SourceAlpha" type="matrix" values="0 0 0 0 0 0 0 0 0 0 0 0 0 0 0 0 0 0 127 0" result="hardAlpha"/>
<feOffset dy="4"/>
<feGaussianBlur stdDeviation="2"/>
<feComposite in2="hardAlpha" operator="out"/>
<feColorMatrix type="matrix" values="0 0 0 0 0 0 0 0 0 0 0 0 0 0 0 0 0 0 0.25 0"/>
<feBlend mode="normal" in2="BackgroundImageFix" result="effect1_dropShadow_2055_1600"/>
<feBlend mode="normal" in="SourceGraphic" in2="effect1_dropShadow_2055_1600" result="shape"/>
</filter>
<filter id="filter2_d_2055_1600" x="37" y="158" width="157" height="81" filterUnits="userSpaceOnUse" color-interpolation-filters="sRGB">
<feFlood flood-opacity="0" result="BackgroundImageFix"/>
<feColorMatrix in="SourceAlpha" type="matrix" values="0 0 0 0 0 0 0 0 0 0 0 0 0 0 0 0 0 0 127 0" result="hardAlpha"/>
<feOffset dy="4"/>
<feGaussianBlur stdDeviation="2"/>
<feComposite in2="hardAlpha" operator="out"/>
<feColorMatrix type="matrix" values="0 0 0 0 0 0 0 0 0 0 0 0 0 0 0 0 0 0 0.25 0"/>
<feBlend mode="normal" in2="BackgroundImageFix" result="effect1_dropShadow_2055_1600"/>
<feBlend mode="normal" in="SourceGraphic" in2="effect1_dropShadow_2055_1600" result="shape"/>
</filter>
<filter id="filter3_d_2055_1600" x="196" y="158" width="157" height="81" filterUnits="userSpaceOnUse" color-interpolation-filters="sRGB">
<feFlood flood-opacity="0" result="BackgroundImageFix"/>
<feColorMatrix in="SourceAlpha" type="matrix" values="0 0 0 0 0 0 0 0 0 0 0 0 0 0 0 0 0 0 127 0" result="hardAlpha"/>
<feOffset dy="4"/>
<feGaussianBlur stdDeviation="2"/>
<feComposite in2="hardAlpha" operator="out"/>
<feColorMatrix type="matrix" values="0 0 0 0 0 0 0 0 0 0 0 0 0 0 0 0 0 0 0.25 0"/>
<feBlend mode="normal" in2="BackgroundImageFix" result="effect1_dropShadow_2055_1600"/>
<feBlend mode="normal" in="SourceGraphic" in2="effect1_dropShadow_2055_1600" result="shape"/>
</filter>
<clipPath id="clip0_2055_1600">
<rect width="390" height="844" fill="white"/>
</clipPath>
</defs>
</svg>
