<svg width="83" height="9" viewBox="0 0 83 9" fill="none" xmlns="http://www.w3.org/2000/svg">
<path d="M0.718156 1C0.742156 1.808 0.742156 2.728 0.742156 4C0.742156 5.28 0.734156 6.192 0.718156 7H1.59016C1.56616 6.448 1.55816 5.536 1.55016 4.728C2.79816 4.728 4.07016 4.736 5.13416 4.744C5.13416 4.568 5.13416 4.232 5.14216 4.04C4.07016 4.064 2.81416 4.064 1.55016 4.064V3.888C1.55016 3.304 1.55016 2.368 1.55016 1.72C2.59016 1.72 3.88616 1.72 5.19816 1.736C5.19816 1.616 5.19016 1.472 5.19016 1.336C5.19016 1.224 5.19816 1.088 5.19816 1H0.718156ZM10.1645 4.56C10.1645 5.784 9.47653 6.432 8.47653 6.432C7.49253 6.432 6.79653 5.792 6.79653 4.56C6.79653 3.32 7.50853 2.768 8.47653 2.768C9.45253 2.768 10.1645 3.328 10.1645 4.56ZM10.9245 4.536C10.9245 2.904 9.86053 2.088 8.47653 2.088C7.09253 2.088 6.04453 2.904 6.04453 4.536C6.04453 6.168 7.04453 7.104 8.47653 7.104C9.91653 7.104 10.9245 6.168 10.9245 4.536ZM12.7164 3.272C12.7324 2.84 12.7484 2.488 12.7564 2.192H12.0524C12.0684 2.88 12.0684 3.56 12.0684 4.584C12.0684 5.616 12.0684 6.328 12.0524 7H12.8924C12.8684 6.456 12.8684 5.344 12.8684 4.488C12.8684 3.328 13.4604 2.864 14.2844 2.864C14.6124 2.864 14.9004 2.92 15.1564 3.048C15.1804 2.832 15.2444 2.48 15.2924 2.296C15.0284 2.192 14.7324 2.12 14.3724 2.12C13.5724 2.12 13.0204 2.48 12.7724 3.272H12.7164ZM19.3222 3.848C19.3222 4.472 18.8742 4.856 17.8262 4.856C16.7782 4.856 16.3382 4.464 16.3382 3.832C16.3382 3.232 16.7782 2.76 17.8262 2.76C18.8902 2.76 19.3222 3.208 19.3222 3.848ZM18.9062 6.608C19.4662 6.608 19.6982 6.712 19.6982 7.032C19.6982 7.472 19.1382 7.68 17.8742 7.68C16.4822 7.68 16.1382 7.496 16.1382 7.136C16.1382 6.952 16.2742 6.792 16.5302 6.648C16.6262 6.656 16.7382 6.664 16.8582 6.664C17.4342 6.664 18.2902 6.608 18.9062 6.608ZM20.4982 2.2C19.4262 2.2 17.9862 2.184 17.8102 2.184C16.4182 2.184 15.6502 2.792 15.6502 3.824C15.6502 4.464 15.9222 4.944 16.5302 5.2V5.208C16.1542 5.368 15.7942 5.656 15.7942 6.056C15.7942 6.288 15.8982 6.48 16.2182 6.584V6.592C15.7062 6.744 15.4102 6.992 15.4102 7.36C15.4102 7.848 15.7062 8.216 17.8502 8.216C19.8582 8.216 20.4182 7.744 20.4182 7.032C20.4182 6.328 19.9702 6.064 19.0662 6.064C18.5062 6.064 17.8102 6.128 16.9702 6.128C16.6902 6.128 16.5142 6.04 16.5142 5.832C16.5142 5.664 16.6182 5.472 16.8342 5.304C17.1062 5.368 17.4342 5.408 17.8102 5.408C19.3542 5.408 20.0102 4.84 20.0102 4.024C20.0102 3.384 19.7462 3.008 19.0422 2.808V2.76C19.5702 2.784 20.1542 2.816 20.4982 2.816V2.2ZM25.2817 4.56C25.2817 5.784 24.5937 6.432 23.5937 6.432C22.6097 6.432 21.9137 5.792 21.9137 4.56C21.9137 3.32 22.6257 2.768 23.5937 2.768C24.5697 2.768 25.2817 3.328 25.2817 4.56ZM26.0417 4.536C26.0417 2.904 24.9777 2.088 23.5937 2.088C22.2097 2.088 21.1617 2.904 21.1617 4.536C21.1617 6.168 22.1617 7.104 23.5937 7.104C25.0337 7.104 26.0417 6.168 26.0417 4.536ZM27.3936 2.856C27.3936 3.856 27.3856 4.832 27.3856 5.488C27.3856 6.432 27.8976 7.072 29.1936 7.072C29.7056 7.072 30.0656 6.992 30.4816 6.888C30.4496 6.696 30.3936 6.416 30.3696 6.184C30.0576 6.296 29.6976 6.376 29.2816 6.376C28.4576 6.376 28.1536 6.04 28.1536 5.408C28.1536 4.48 28.1536 3.632 28.1616 2.864C28.9216 2.864 29.7216 2.872 30.3776 2.888C30.3776 2.672 30.3856 2.4 30.3936 2.192C29.6336 2.208 28.8736 2.208 28.1696 2.208C28.1776 1.856 28.1776 1.512 28.1856 1.192C28.0656 1.2 27.9296 1.2 27.8016 1.2C27.6656 1.2 27.5216 1.192 27.3936 1.192C27.3936 1.52 27.3936 1.856 27.3936 2.208C27.1376 2.2 26.8896 2.2 26.6656 2.192C26.6736 2.4 26.6736 2.664 26.6736 2.856H27.3936ZM34.7819 4.232C34.7819 3.216 35.5419 2.736 36.4299 2.736C37.3979 2.736 37.8939 3.376 37.8939 4.576C37.8939 5.776 37.3979 6.448 36.3899 6.448C35.7419 6.448 35.1739 6.264 34.7819 5.968V4.232ZM34.7819 3.144C34.7899 3.008 34.7979 2.896 34.7979 2.784C34.7979 2.56 34.8059 2.392 34.8059 2.192H33.9979C34.0059 2.64 34.0139 3.112 34.0139 4.32C34.0139 5.52 34.0139 6.784 33.9899 8.112H34.8059C34.7979 7.768 34.7979 7.496 34.7979 7.176C34.7979 6.88 34.7979 6.664 34.7819 6.392L34.8299 6.376C35.1659 6.784 35.8139 7.088 36.6539 7.088C37.9179 7.088 38.6619 6.128 38.6619 4.576C38.6619 3.024 38.0059 2.104 36.6939 2.104C35.7179 2.104 35.1019 2.536 34.8139 3.152L34.7819 3.144ZM43.2102 5.144C43.2102 5.928 42.6422 6.504 41.5462 6.504C40.7142 6.504 40.3542 6.2 40.3542 5.648C40.3542 5.048 40.7862 4.784 41.7062 4.784C42.2502 4.784 42.7702 4.808 43.2102 4.88V5.144ZM43.2342 6.056C43.2262 6.296 43.2182 6.56 43.2182 6.76C43.2182 6.96 43.2582 7 43.4342 7H44.0742C44.0022 6.752 43.9782 6.112 43.9782 5.536C43.9782 4.96 44.0022 4.504 44.0022 3.92C44.0022 2.888 43.4182 2.104 41.8822 2.104C40.4022 2.104 39.7462 2.872 39.7862 3.96C39.8982 3.944 40.0502 3.944 40.1942 3.944C40.3302 3.944 40.4422 3.944 40.5382 3.952C40.5142 3.168 40.9702 2.752 41.8902 2.752C42.8662 2.752 43.2262 3.256 43.2262 3.96C43.2262 4.112 43.2262 4.296 43.2182 4.496C42.8502 4.408 42.2822 4.36 41.6022 4.36C40.2422 4.36 39.5942 4.8 39.5942 5.744C39.5942 6.656 40.1942 7.088 41.2662 7.088C42.2742 7.088 42.9382 6.728 43.1942 6.056H43.2342ZM47.4897 6.472C46.4417 6.472 45.9537 6.216 45.9537 5.552C45.9537 5.496 45.9537 5.432 45.9617 5.36C45.8737 5.368 45.7377 5.376 45.6097 5.376C45.4577 5.376 45.3297 5.368 45.2337 5.36C45.2337 5.456 45.2257 5.528 45.2257 5.616C45.2257 6.592 45.8817 7.104 47.4817 7.104C48.9617 7.104 49.6257 6.608 49.6257 5.704C49.6257 4.848 49.1377 4.424 47.6577 4.264C46.3377 4.128 46.0577 3.88 46.0577 3.432C46.0577 2.944 46.4737 2.696 47.4177 2.696C48.4097 2.696 48.7857 2.968 48.7857 3.552C48.7857 3.608 48.7857 3.712 48.7777 3.792C48.8497 3.784 48.9777 3.784 49.1217 3.784C49.2577 3.784 49.4017 3.784 49.4977 3.792C49.5057 3.672 49.5057 3.6 49.5057 3.48C49.5057 2.536 48.8657 2.08 47.4177 2.08C46.0417 2.08 45.3057 2.52 45.3057 3.424C45.3057 4.192 45.7377 4.672 47.2097 4.816C48.5537 4.952 48.8817 5.2 48.8817 5.688C48.8817 6.224 48.4897 6.472 47.4897 6.472ZM52.8257 6.472C51.7777 6.472 51.2897 6.216 51.2897 5.552C51.2897 5.496 51.2897 5.432 51.2977 5.36C51.2097 5.368 51.0737 5.376 50.9457 5.376C50.7937 5.376 50.6657 5.368 50.5697 5.36C50.5697 5.456 50.5617 5.528 50.5617 5.616C50.5617 6.592 51.2177 7.104 52.8177 7.104C54.2977 7.104 54.9617 6.608 54.9617 5.704C54.9617 4.848 54.4737 4.424 52.9937 4.264C51.6737 4.128 51.3937 3.88 51.3937 3.432C51.3937 2.944 51.8097 2.696 52.7537 2.696C53.7457 2.696 54.1217 2.968 54.1217 3.552C54.1217 3.608 54.1217 3.712 54.1137 3.792C54.1857 3.784 54.3137 3.784 54.4577 3.784C54.5937 3.784 54.7377 3.784 54.8337 3.792C54.8417 3.672 54.8417 3.6 54.8417 3.48C54.8417 2.536 54.2017 2.08 52.7537 2.08C51.3777 2.08 50.6417 2.52 50.6417 3.424C50.6417 4.192 51.0737 4.672 52.5457 4.816C53.8897 4.952 54.2177 5.2 54.2177 5.688C54.2177 6.224 53.8257 6.472 52.8257 6.472ZM61.8816 2.2C61.7936 2.656 61.2976 4.176 61.0016 5.232C60.8656 5.672 60.7696 6.04 60.7056 6.288H60.6896C60.6256 6.024 60.5376 5.664 60.4016 5.224C60.0896 4.112 59.6976 2.712 59.5776 2.2C59.4416 2.2 59.2576 2.208 59.1216 2.208C59.0016 2.208 58.7776 2.2 58.6656 2.2C58.5376 2.728 58.0896 4.176 57.8016 5.2C57.6576 5.664 57.5696 6.016 57.5056 6.28H57.4896C57.4336 6.024 57.3536 5.68 57.2096 5.216C56.9056 4.136 56.4336 2.592 56.3536 2.2H55.4736C55.8736 3.208 56.6896 6.048 57.0016 7C57.0976 7 57.2256 6.992 57.4176 6.992C57.5696 6.992 57.7216 7 57.8416 7C58.0096 6.448 58.4176 5.144 58.7296 4.024C58.8576 3.624 58.9616 3.24 59.0336 2.944H59.0496C59.1216 3.224 59.2176 3.592 59.3376 4.016C59.6416 5.128 60.0256 6.488 60.1856 7C60.2736 6.992 60.4576 6.992 60.6736 6.992C60.8256 6.992 60.9696 7 61.0656 7C61.3536 6.128 62.2816 3.248 62.6496 2.2H61.8816ZM67.0786 4.56C67.0786 5.784 66.3906 6.432 65.3906 6.432C64.4066 6.432 63.7106 5.792 63.7106 4.56C63.7106 3.32 64.4226 2.768 65.3906 2.768C66.3666 2.768 67.0786 3.328 67.0786 4.56ZM67.8386 4.536C67.8386 2.904 66.7746 2.088 65.3906 2.088C64.0066 2.088 62.9586 2.904 62.9586 4.536C62.9586 6.168 63.9586 7.104 65.3906 7.104C66.8306 7.104 67.8386 6.168 67.8386 4.536ZM69.6305 3.272C69.6465 2.84 69.6625 2.488 69.6705 2.192H68.9665C68.9825 2.88 68.9825 3.56 68.9825 4.584C68.9825 5.616 68.9825 6.328 68.9665 7H69.8065C69.7825 6.456 69.7825 5.344 69.7825 4.488C69.7825 3.328 70.3745 2.864 71.1985 2.864C71.5265 2.864 71.8145 2.92 72.0705 3.048C72.0945 2.832 72.1585 2.48 72.2065 2.296C71.9425 2.192 71.6465 2.12 71.2865 2.12C70.4865 2.12 69.9345 2.48 69.6865 3.272H69.6305ZM76.3624 4.968C76.3624 5.904 75.6344 6.456 74.7704 6.456C73.8264 6.456 73.2264 5.896 73.2264 4.64C73.2264 3.4 73.7864 2.744 74.8664 2.744C75.4344 2.744 75.9784 2.92 76.3624 3.208V4.968ZM76.3384 0.808C76.3624 1.208 76.3544 1.496 76.3544 1.952C76.3544 2.264 76.3544 2.496 76.3704 2.792L76.3384 2.8C75.9784 2.352 75.4024 2.104 74.6504 2.104C73.3304 2.104 72.4824 3.008 72.4824 4.648C72.4824 6.288 73.2984 7.088 74.5544 7.088C75.4504 7.088 76.0584 6.584 76.3224 5.952L76.3784 5.96C76.3704 6.12 76.3624 6.272 76.3624 6.416C76.3624 6.632 76.3624 6.816 76.3544 7H77.1624C77.1384 6.208 77.1384 5.336 77.1384 4.128C77.1384 2.512 77.1384 1.728 77.1624 0.808H76.3384ZM80.3427 6.016C79.9827 6.016 79.7827 6.2 79.7827 6.528C79.7827 6.856 79.9747 7.056 80.3427 7.056C80.7107 7.056 80.9107 6.856 80.9107 6.528C80.9107 6.2 80.7027 6.016 80.3427 6.016ZM78.1907 2.688C78.1907 2.84 78.1987 2.944 78.2067 3.104C78.3027 3.096 78.4307 3.096 78.5747 3.096C78.7267 3.096 78.8627 3.096 78.9667 3.104C78.9507 2.992 78.9507 2.84 78.9507 2.768C78.9507 1.992 79.4947 1.568 80.5107 1.568C81.5747 1.568 81.9907 1.928 81.9907 2.536C81.9907 2.96 81.7187 3.24 80.9907 3.6C80.2067 4.008 79.9747 4.512 79.9747 5.136C79.9747 5.2 79.9747 5.272 79.9827 5.352C80.0787 5.344 80.1987 5.344 80.3427 5.344C80.4867 5.344 80.6067 5.344 80.7107 5.352C80.7027 5.288 80.7027 5.192 80.7027 5.12C80.7027 4.704 80.8387 4.352 81.4947 4.016C82.3507 3.616 82.7587 3.176 82.7587 2.472C82.7587 1.512 82.0947 0.904 80.5347 0.904C78.9987 0.904 78.1907 1.592 78.1907 2.688Z" fill="#FEF8E5"/>
</svg>
