<svg width="83" height="8" viewBox="0 0 83 8" fill="none" xmlns="http://www.w3.org/2000/svg">
<path d="M6.8723 3.59V7H6.0823L6.0523 6.16C5.85897 6.46 5.5923 6.69333 5.2523 6.86C4.9123 7.02 4.50564 7.1 4.0323 7.1C3.41897 7.1 2.8823 6.96333 2.4223 6.69C1.9623 6.41667 1.60564 6.02667 1.3523 5.52C1.09897 5.00667 0.972305 4.4 0.972305 3.7C0.972305 3.00667 1.1023 2.40667 1.3623 1.9C1.6223 1.38667 1.98897 0.993333 2.4623 0.72C2.93564 0.44 3.48564 0.3 4.1123 0.3C4.7923 0.3 5.35231 0.426666 5.79231 0.68C6.23231 0.933333 6.57897 1.32667 6.8323 1.86L5.8523 2.33C5.72564 1.97 5.5123 1.69667 5.2123 1.51C4.9123 1.32333 4.5523 1.23 4.1323 1.23C3.50564 1.23 3.00897 1.44667 2.6423 1.88C2.27564 2.31333 2.0923 2.92 2.0923 3.7C2.0923 4.49333 2.26564 5.10667 2.6123 5.54C2.96564 5.96667 3.47897 6.18 4.1523 6.18C4.67897 6.18 5.10564 6.05 5.4323 5.79C5.75897 5.53 5.92231 5.15333 5.92231 4.66V4.47H3.9023V3.59H6.8723ZM11.3186 0.3C11.952 0.3 12.502 0.436667 12.9686 0.71C13.442 0.983333 13.8053 1.37667 14.0586 1.89C14.312 2.40333 14.4386 3.00667 14.4386 3.7C14.4386 4.39333 14.312 4.99667 14.0586 5.51C13.8053 6.02333 13.442 6.41667 12.9686 6.69C12.502 6.96333 11.952 7.1 11.3186 7.1C10.6853 7.1 10.1353 6.96333 9.66863 6.69C9.20197 6.41667 8.84197 6.02333 8.58863 5.51C8.3353 4.99667 8.20863 4.39333 8.20863 3.7C8.20863 3.00667 8.3353 2.40333 8.58863 1.89C8.84197 1.37667 9.20197 0.983333 9.66863 0.71C10.1353 0.436667 10.6853 0.3 11.3186 0.3ZM11.3186 1.23C10.6986 1.23 10.212 1.44667 9.85863 1.88C9.5053 2.31333 9.32863 2.92 9.32863 3.7C9.32863 4.48 9.5053 5.08667 9.85863 5.52C10.212 5.95333 10.6986 6.17 11.3186 6.17C11.9453 6.17 12.4353 5.95333 12.7886 5.52C13.142 5.08667 13.3186 4.48 13.3186 3.7C13.3186 2.92 13.142 2.31333 12.7886 1.88C12.4353 1.44667 11.9453 1.23 11.3186 1.23ZM23.9476 1.32H21.6876V7H20.6176V1.32H18.3576V0.4H23.9476V1.32ZM27.7346 0.3C28.368 0.3 28.918 0.436667 29.3846 0.71C29.858 0.983333 30.2213 1.37667 30.4746 1.89C30.728 2.40333 30.8546 3.00667 30.8546 3.7C30.8546 4.39333 30.728 4.99667 30.4746 5.51C30.2213 6.02333 29.858 6.41667 29.3846 6.69C28.918 6.96333 28.368 7.1 27.7346 7.1C27.1013 7.1 26.5513 6.96333 26.0846 6.69C25.618 6.41667 25.258 6.02333 25.0046 5.51C24.7513 4.99667 24.6246 4.39333 24.6246 3.7C24.6246 3.00667 24.7513 2.40333 25.0046 1.89C25.258 1.37667 25.618 0.983333 26.0846 0.71C26.5513 0.436667 27.1013 0.3 27.7346 0.3ZM27.7346 1.23C27.1146 1.23 26.628 1.44667 26.2746 1.88C25.9213 2.31333 25.7446 2.92 25.7446 3.7C25.7446 4.48 25.9213 5.08667 26.2746 5.52C26.628 5.95333 27.1146 6.17 27.7346 6.17C28.3613 6.17 28.8513 5.95333 29.2046 5.52C29.558 5.08667 29.7346 4.48 29.7346 3.7C29.7346 2.92 29.558 2.31333 29.2046 1.88C28.8513 1.44667 28.3613 1.23 27.7346 1.23ZM39.0762 5.27H36.2962L35.6662 7H34.5662L37.0562 0.4H38.3362L40.8262 7H39.6962L39.0762 5.27ZM38.7562 4.4L37.9962 2.28L37.6962 1.33H37.6662L37.3862 2.26L36.6062 4.4H38.7562ZM47.2322 5.25C47.0322 5.84333 46.6889 6.3 46.2022 6.62C45.7222 6.94 45.1556 7.1 44.5022 7.1C43.8689 7.1 43.3189 6.96333 42.8522 6.69C42.3856 6.41667 42.0256 6.02333 41.7722 5.51C41.5189 4.99667 41.3922 4.39333 41.3922 3.7C41.3922 3.00667 41.5189 2.40333 41.7722 1.89C42.0256 1.37667 42.3856 0.983333 42.8522 0.71C43.3189 0.436667 43.8656 0.3 44.4922 0.3C45.1522 0.3 45.7056 0.436667 46.1522 0.71C46.6056 0.983333 46.9322 1.38667 47.1322 1.92L46.1222 2.37C45.9889 1.97667 45.7956 1.69 45.5422 1.51C45.2889 1.32333 44.9589 1.23 44.5522 1.23C43.9322 1.23 43.4356 1.45 43.0622 1.89C42.6956 2.32333 42.5122 2.92667 42.5122 3.7C42.5122 4.48 42.6889 5.08667 43.0422 5.52C43.3956 5.95333 43.8856 6.17 44.5122 6.17C44.9389 6.17 45.2956 6.06333 45.5822 5.85C45.8756 5.63667 46.0856 5.32333 46.2122 4.91L47.2322 5.25ZM54.0682 5.25C53.8682 5.84333 53.5248 6.3 53.0382 6.62C52.5582 6.94 51.9915 7.1 51.3382 7.1C50.7048 7.1 50.1548 6.96333 49.6882 6.69C49.2215 6.41667 48.8615 6.02333 48.6082 5.51C48.3548 4.99667 48.2282 4.39333 48.2282 3.7C48.2282 3.00667 48.3548 2.40333 48.6082 1.89C48.8615 1.37667 49.2215 0.983333 49.6882 0.71C50.1548 0.436667 50.7015 0.3 51.3282 0.3C51.9882 0.3 52.5415 0.436667 52.9882 0.71C53.4415 0.983333 53.7682 1.38667 53.9682 1.92L52.9582 2.37C52.8248 1.97667 52.6315 1.69 52.3782 1.51C52.1248 1.32333 51.7948 1.23 51.3882 1.23C50.7682 1.23 50.2715 1.45 49.8982 1.89C49.5315 2.32333 49.3482 2.92667 49.3482 3.7C49.3482 4.48 49.5248 5.08667 49.8782 5.52C50.2315 5.95333 50.7215 6.17 51.3482 6.17C51.7748 6.17 52.1315 6.06333 52.4182 5.85C52.7115 5.63667 52.9215 5.32333 53.0482 4.91L54.0682 5.25ZM58.1741 0.3C58.8074 0.3 59.3574 0.436667 59.8241 0.71C60.2974 0.983333 60.6608 1.37667 60.9141 1.89C61.1674 2.40333 61.2941 3.00667 61.2941 3.7C61.2941 4.39333 61.1674 4.99667 60.9141 5.51C60.6608 6.02333 60.2974 6.41667 59.8241 6.69C59.3574 6.96333 58.8074 7.1 58.1741 7.1C57.5408 7.1 56.9908 6.96333 56.5241 6.69C56.0574 6.41667 55.6974 6.02333 55.4441 5.51C55.1908 4.99667 55.0641 4.39333 55.0641 3.7C55.0641 3.00667 55.1908 2.40333 55.4441 1.89C55.6974 1.37667 56.0574 0.983333 56.5241 0.71C56.9908 0.436667 57.5408 0.3 58.1741 0.3ZM58.1741 1.23C57.5541 1.23 57.0674 1.44667 56.7141 1.88C56.3608 2.31333 56.1841 2.92 56.1841 3.7C56.1841 4.48 56.3608 5.08667 56.7141 5.52C57.0674 5.95333 57.5541 6.17 58.1741 6.17C58.8008 6.17 59.2908 5.95333 59.6441 5.52C59.9974 5.08667 60.1741 4.48 60.1741 3.7C60.1741 2.92 59.9974 2.31333 59.6441 1.88C59.2908 1.44667 58.8008 1.23 58.1741 1.23ZM68.1953 4.47C68.1953 5.33667 67.9653 5.99333 67.5053 6.44C67.0453 6.88 66.3753 7.1 65.4953 7.1C64.6153 7.1 63.9453 6.88 63.4853 6.44C63.0253 5.99333 62.7953 5.33667 62.7953 4.47V0.4H63.8753V4.34C63.8753 4.96667 64.0053 5.43 64.2653 5.73C64.5319 6.02333 64.9419 6.17 65.4953 6.17C66.0486 6.17 66.4553 6.02333 66.7153 5.73C66.9819 5.43 67.1153 4.96667 67.1153 4.34V0.4H68.1953V4.47ZM75.473 7H74.203L71.653 2.84L71.013 1.62H71.003L71.043 2.74V7H70.063V0.4H71.323L73.863 4.55L74.513 5.78H74.523L74.483 4.66V0.4H75.473V7ZM82.3363 1.32H80.0763V7H79.0063V1.32H76.7463V0.4H82.3363V1.32Z" fill="#FEF8E5"/>
</svg>
