<svg width="38" height="8" viewBox="0 0 38 8" fill="none" xmlns="http://www.w3.org/2000/svg">
<path d="M6.07178 3.776C5.52778 3.792 4.95178 3.784 4.54378 3.784C4.18378 3.784 3.69578 3.784 3.20778 3.768C3.21578 3.904 3.21578 4.064 3.21578 4.264C3.21578 4.352 3.21578 4.512 3.20778 4.592C3.65578 4.576 4.42378 4.576 4.96778 4.568C4.99178 5.696 4.60778 6.128 3.53578 6.128C2.37578 6.128 1.76778 5.44 1.76778 3.96C1.76778 2.44 2.39978 1.888 3.50378 1.888C4.46378 1.888 4.93578 2.272 4.93578 2.976C4.93578 3.032 4.93578 3.104 4.92778 3.176C5.07178 3.16 5.28778 3.16 5.52778 3.16C5.74378 3.16 5.95178 3.168 6.08778 3.176C6.09578 3.064 6.09578 2.976 6.09578 2.864C6.09578 1.856 5.35978 0.896 3.51178 0.896C1.60778 0.896 0.575781 2 0.575781 3.944C0.575781 5.88 1.59978 7.104 3.48778 7.104C5.75978 7.104 6.21578 5.912 6.07178 3.776ZM8.62741 4C8.61941 3.352 8.62741 2.664 8.62741 1.976C9.05141 1.96 9.77141 1.952 10.0514 1.952C10.9714 1.952 11.3714 2.192 11.3714 2.992C11.3714 3.632 10.9794 4.024 10.1954 4.024C9.52341 4.016 8.90741 4.008 8.62741 4ZM11.0834 4.552C12.0834 4.384 12.5154 3.816 12.5154 2.824C12.5154 1.592 11.6994 1 10.2914 1H7.46741C7.48341 1.864 7.49141 2.728 7.49141 4C7.49141 5.28 7.47541 6.128 7.46741 7H8.70741C8.66741 6.496 8.64341 5.76 8.63541 4.912C9.33941 4.912 9.62741 4.904 10.1314 4.904C10.8754 4.904 11.0194 5.168 11.3794 6.4C11.5234 6.928 11.5474 7 11.7634 7H12.8914C12.7874 6.752 12.6354 6.296 12.4514 5.752C12.1634 4.912 11.8914 4.688 11.0834 4.584V4.552ZM19.3706 3.936C19.3706 1.896 18.1706 0.888 16.4106 0.888C14.6586 0.888 13.4666 1.896 13.4666 3.936C13.4666 5.976 14.5946 7.112 16.4106 7.112C18.2266 7.112 19.3706 5.976 19.3706 3.936ZM16.4186 6.056C15.3066 6.056 14.6506 5.344 14.6506 3.976C14.6506 2.6 15.3066 1.936 16.4186 1.936C17.5226 1.936 18.1706 2.616 18.1706 3.976C18.1706 5.336 17.5306 6.056 16.4186 6.056ZM24.6492 1C24.6652 1.808 24.6812 3.6 24.6812 4.512C24.6812 5.584 24.2252 6.056 23.2332 6.056C22.2252 6.056 21.7292 5.584 21.7292 4.512C21.7292 3.6 21.7452 1.816 21.7772 1H20.5452C20.5692 1.48 20.5772 1.968 20.5772 2.696C20.5772 3.192 20.5612 3.928 20.5612 4.552C20.5612 6.136 21.3452 7.104 23.2092 7.104C25.0732 7.104 25.8492 6.136 25.8492 4.552C25.8492 3.928 25.8332 3.192 25.8332 2.696C25.8332 1.968 25.8412 1.488 25.8652 1H24.6492ZM29.7413 4.312C29.2533 4.312 28.8053 4.304 28.5733 4.296C28.5733 3.592 28.5733 2.816 28.5733 2.024C28.9333 2.016 29.5493 2.008 29.7973 2.008C30.7813 2.008 31.2453 2.336 31.2453 3.16C31.2453 4 30.8053 4.312 29.7413 4.312ZM27.3733 1C27.4053 1.808 27.4053 2.728 27.4053 4C27.4053 5.28 27.4053 6.136 27.3733 7H28.6373C28.6133 6.552 28.5973 5.968 28.5813 5.304C29.1733 5.32 29.4613 5.328 29.9573 5.328C31.4933 5.328 32.4053 4.64 32.4053 3.176C32.4053 1.608 31.5013 1 29.9973 1H27.3733ZM35.842 7.008C36.106 6.992 36.306 6.984 36.49 6.984C36.658 6.984 36.834 6.984 37.09 7C37.066 6.16 37.058 5.272 37.058 4C37.058 2.712 37.066 1.664 37.09 1C37.018 1.008 36.93 1.008 36.81 1.008C36.714 1.008 36.61 1.008 36.506 1C36.33 1.208 36.066 1.416 35.81 1.544C35.834 2.096 35.874 2.776 35.874 4C35.874 5.28 35.866 6.168 35.842 7.008Z" fill="#EAFC38"/>
</svg>
