<svg width="106" height="65" viewBox="0 0 106 65" fill="none" xmlns="http://www.w3.org/2000/svg">
<g filter="url(#filter0_d_1001_5593)">
<rect x="4.5" y="0.5" width="97" height="56" rx="11.5" fill="#FEF8E5" stroke="black"/>
<path d="M32.7217 28.552C33.0097 32.824 32.0977 35.208 27.5537 35.208C23.7777 35.208 21.7297 32.76 21.7297 28.888C21.7297 25 23.7937 22.792 27.6017 22.792C31.2977 22.792 32.7697 24.712 32.7697 26.728C32.7697 26.952 32.7697 27.128 32.7537 27.352C32.4817 27.336 32.0657 27.32 31.6337 27.32C31.1537 27.32 30.7217 27.32 30.4337 27.352C30.4497 27.208 30.4497 27.064 30.4497 26.952C30.4497 25.544 29.5057 24.776 27.5857 24.776C25.3777 24.776 24.1137 25.88 24.1137 28.92C24.1137 31.88 25.3297 33.256 27.6497 33.256C29.7937 33.256 30.5617 32.392 30.5137 30.136C29.4257 30.152 27.8897 30.152 26.9937 30.184C27.0097 30.024 27.0097 29.704 27.0097 29.528C27.0097 29.128 27.0097 28.808 26.9937 28.536C27.9697 28.568 28.9457 28.568 29.6657 28.568C30.4817 28.568 31.6337 28.584 32.7217 28.552ZM37.8329 29C38.3929 29.016 39.6249 29.032 40.9689 29.048C42.5369 29.048 43.3209 28.264 43.3209 26.984C43.3209 25.384 42.5209 24.904 40.6809 24.904C40.1209 24.904 38.6809 24.92 37.8329 24.952C37.8329 26.328 37.8169 27.704 37.8329 29ZM42.7449 30.104V30.168C44.3609 30.376 44.9049 30.824 45.4809 32.504C45.8489 33.592 46.1529 34.504 46.3609 35H44.1049C43.6729 35 43.6249 34.856 43.3369 33.8C42.6169 31.336 42.3289 30.808 40.8409 30.808C39.8329 30.808 39.2569 30.824 37.8489 30.824C37.8649 32.52 37.9129 33.992 37.9929 35H35.5129C35.5289 33.256 35.5609 31.56 35.5609 29C35.5609 26.456 35.5449 24.728 35.5129 23H41.1609C43.9769 23 45.6089 24.184 45.6089 26.648C45.6089 28.632 44.7449 29.768 42.7449 30.104ZM59.3193 28.872C59.3193 32.952 57.0313 35.224 53.3993 35.224C49.7673 35.224 47.5113 32.952 47.5113 28.872C47.5113 24.792 49.8953 22.776 53.3993 22.776C56.9193 22.776 59.3193 24.792 59.3193 28.872ZM53.4153 33.112C55.6393 33.112 56.9193 31.672 56.9193 28.952C56.9193 26.232 55.6233 24.872 53.4153 24.872C51.1913 24.872 49.8793 26.2 49.8793 28.952C49.8793 31.688 51.1913 33.112 53.4153 33.112ZM69.8764 23H72.3084C72.2604 23.976 72.2444 24.936 72.2444 26.392C72.2444 27.384 72.2764 28.856 72.2764 30.104C72.2764 33.272 70.7244 35.208 66.9964 35.208C63.2684 35.208 61.7004 33.272 61.7004 30.104C61.7004 28.856 61.7324 27.384 61.7324 26.392C61.7324 24.936 61.7164 23.96 61.6684 23H64.1324C64.0684 24.632 64.0364 28.2 64.0364 30.024C64.0364 32.168 65.0284 33.112 67.0444 33.112C69.0284 33.112 69.9404 32.168 69.9404 30.024C69.9404 28.2 69.9084 24.616 69.8764 23ZM80.0607 29.624C82.1887 29.624 83.0687 29 83.0687 27.32C83.0687 25.672 82.1407 25.016 80.1727 25.016C79.6767 25.016 78.4447 25.032 77.7247 25.048C77.7247 26.632 77.7247 28.184 77.7247 29.592C78.1887 29.608 79.0847 29.624 80.0607 29.624ZM75.3247 23H80.5727C83.5807 23 85.3887 24.216 85.3887 27.352C85.3887 30.28 83.5647 31.656 80.4927 31.656C79.5007 31.656 78.9247 31.64 77.7407 31.608C77.7727 32.936 77.8047 34.104 77.8527 35H75.3247C75.3887 33.272 75.3887 31.56 75.3887 29C75.3887 26.456 75.3887 24.616 75.3247 23Z" fill="black"/>
</g>
<defs>
<filter id="filter0_d_1001_5593" x="0" y="0" width="106" height="65" filterUnits="userSpaceOnUse" color-interpolation-filters="sRGB">
<feFlood flood-opacity="0" result="BackgroundImageFix"/>
<feColorMatrix in="SourceAlpha" type="matrix" values="0 0 0 0 0 0 0 0 0 0 0 0 0 0 0 0 0 0 127 0" result="hardAlpha"/>
<feOffset dy="4"/>
<feGaussianBlur stdDeviation="2"/>
<feComposite in2="hardAlpha" operator="out"/>
<feColorMatrix type="matrix" values="0 0 0 0 0 0 0 0 0 0 0 0 0 0 0 0 0 0 0.25 0"/>
<feBlend mode="normal" in2="BackgroundImageFix" result="effect1_dropShadow_1001_5593"/>
<feBlend mode="normal" in="SourceGraphic" in2="effect1_dropShadow_1001_5593" result="shape"/>
</filter>
</defs>
</svg>
