<svg width="54" height="21" viewBox="0 0 54 21" fill="none" xmlns="http://www.w3.org/2000/svg">
<path d="M5.33895 0.499999C5.35895 1.2 5.36895 2.33 5.37895 3.23C5.01895 3.24 4.61895 3.25 4.21895 3.25C3.81895 3.25 3.41895 3.24 3.05895 3.23C3.05895 2.33 3.06895 1.2 3.09895 0.499999H0.568945C0.608945 1.53 0.608945 2.66 0.608945 4.25C0.608945 5.84 0.608945 6.92 0.568945 8H3.09895C3.06895 7.27 3.05895 6.19 3.05895 5.32C3.41895 5.31 3.81895 5.31 4.21895 5.31C4.61895 5.31 5.01895 5.31 5.37895 5.32C5.36895 6.19 5.35895 7.28 5.33895 8H7.86895C7.83895 6.92 7.82895 5.84 7.82895 4.25C7.82895 2.66 7.83895 1.53 7.86895 0.499999H5.33895ZM12.5925 5.03H11.7425C11.9125 4.31 12.0825 3.57 12.2325 2.92C12.3825 2.38 12.4925 1.9 12.5825 1.54H12.6125C12.6925 1.9 12.8025 2.39 12.9525 2.9C13.1225 3.55 13.2925 4.3 13.4525 5.03H12.5925ZM16.8125 8C16.1625 6.09 14.9425 1.55 14.6625 0.499999H10.6525C10.4025 1.54 9.19246 6.12 8.58246 8H11.1425C11.1825 7.7 11.2825 7.19 11.4125 6.57C11.8525 6.57 12.2825 6.57 12.5925 6.57C12.9225 6.57 13.3425 6.57 13.7725 6.57C13.9025 7.21 13.9825 7.73 14.0125 8H16.8125ZM17.4342 0.499999C17.4642 1.22 17.4642 2.53 17.4642 4.25C17.4642 5.85 17.4342 7.39 17.4342 8H22.3842C22.3842 7.62 22.3742 7.25 22.3742 6.87C22.3742 6.5 22.3842 6.12 22.3842 5.75C21.5842 5.77 20.6642 5.78 19.9742 5.78C19.9642 5.31 19.9642 4.77 19.9642 4.24C19.9742 2.58 19.9942 1.06 20.0142 0.499999H17.4342ZM23.1666 0.499999C23.1966 1.22 23.1966 2.53 23.1966 4.25C23.1966 5.85 23.1666 7.39 23.1666 8H28.1166C28.1166 7.62 28.1066 7.25 28.1066 6.87C28.1066 6.5 28.1166 6.12 28.1166 5.75C27.3166 5.77 26.3966 5.78 25.7066 5.78C25.6966 5.31 25.6966 4.77 25.6966 4.24C25.7066 2.58 25.7266 1.06 25.7466 0.499999H23.1666ZM36.7918 0.499999C36.7218 1.23 36.4418 3.19 36.2218 4.67C36.1318 5.16 36.0818 5.59 36.0318 5.95H35.9718C35.9218 5.6 35.8618 5.17 35.7718 4.67C35.5118 3.18 35.2718 1.16 35.2018 0.499999C34.8718 0.51 34.2818 0.51 33.8818 0.51C33.4818 0.51 32.7818 0.51 32.4318 0.499999C32.3818 1.22 32.0518 3.19 31.8318 4.63C31.7518 5.1 31.6818 5.54 31.6218 5.91H31.5618C31.5018 5.55 31.4418 5.1 31.3718 4.65C31.1518 3.19 30.8618 1.05 30.8218 0.499999H28.1818C28.6518 2.25 29.5018 6.76 29.7718 8C30.0018 7.99 30.4318 7.98 31.1618 7.98C31.7018 7.98 32.2918 8 32.6218 8C32.7318 7.35 32.9918 5.94 33.2118 4.7C33.3118 4.15 33.3918 3.48 33.4718 2.89H33.5218C33.5918 3.47 33.6618 4.12 33.7418 4.68C33.9518 5.97 34.1818 7.41 34.2818 8C34.5218 7.99 35.0918 7.98 35.8718 7.98C36.4318 7.98 36.9218 7.99 37.2718 8C37.4918 6.91 38.4118 2.24 38.8518 0.499999H36.7918ZM42.5632 5.03H41.7132C41.8832 4.31 42.0532 3.57 42.2032 2.92C42.3532 2.38 42.4632 1.9 42.5532 1.54H42.5832C42.6632 1.9 42.7732 2.39 42.9232 2.9C43.0932 3.55 43.2632 4.3 43.4232 5.03H42.5632ZM46.7832 8C46.1332 6.09 44.9132 1.55 44.6332 0.499999H40.6232C40.3732 1.54 39.1632 6.12 38.5532 8H41.1132C41.1532 7.7 41.2532 7.19 41.3832 6.57C41.8232 6.57 42.2532 6.57 42.5632 6.57C42.8932 6.57 43.3132 6.57 43.7432 6.57C43.8732 7.21 43.9532 7.73 43.9832 8H46.7832ZM51.0699 0.499999C50.9699 0.89 50.6099 1.96 50.3199 2.86C50.1799 3.3 50.0699 3.73 49.9799 4.07H49.8999C49.8099 3.72 49.6899 3.28 49.5599 2.82C49.2999 1.94 48.9799 0.89 48.8599 0.499999H46.1399C46.7399 1.61 48.0299 4.62 48.4299 5.71C48.4299 6.84 48.4099 7.69 48.3799 8.01C48.7699 7.99 49.3599 7.99 49.8199 7.99C50.2699 7.99 50.8599 7.99 51.2399 8.01C51.2299 7.69 51.2099 6.86 51.1999 5.74C51.5999 4.71 52.8799 1.69 53.4899 0.499999H51.0699ZM12.2682 12.5C12.2982 13.22 12.2982 14.53 12.2982 16.25C12.2982 17.85 12.2682 19.39 12.2682 20H17.2182C17.2182 19.62 17.2082 19.25 17.2082 18.87C17.2082 18.5 17.2182 18.12 17.2182 17.75C16.4182 17.77 15.4982 17.78 14.8082 17.78C14.7982 17.31 14.7982 16.77 14.7982 16.24C14.8082 14.58 14.8282 13.06 14.8482 12.5H12.2682ZM20.5406 20C20.5206 18.91 20.5206 17.83 20.5206 16.24C20.5206 14.64 20.5206 13.56 20.5406 12.5H18.0006C18.0306 13.57 18.0306 14.65 18.0306 16.25C18.0306 17.84 18.0306 18.92 18.0006 20H20.5406ZM28.8485 15.82C28.1485 15.84 27.4585 15.83 26.9285 15.83C26.4485 15.83 25.8085 15.83 25.1685 15.82C25.1785 16.02 25.1785 16.28 25.1785 16.59C25.1785 16.75 25.1785 17.11 25.1685 17.26C25.5685 17.25 26.0885 17.24 26.5685 17.24C26.5085 18.04 26.1985 18.35 25.4485 18.35C24.3985 18.35 24.0385 17.71 24.0385 16.2C24.0385 14.6 24.4385 14.1 25.3785 14.1C26.0985 14.1 26.4685 14.37 26.4685 14.98C26.4685 15.05 26.4585 15.14 26.4585 15.22C26.7585 15.2 27.1985 15.2 27.6585 15.2C28.1085 15.2 28.5685 15.21 28.8985 15.22C28.9085 15.07 28.9085 14.94 28.9085 14.8C28.9085 13.46 28.0185 12.37 25.3885 12.37C22.7585 12.37 21.5285 13.58 21.5285 16.17C21.5285 18.77 22.7385 20.13 25.3585 20.13C28.5085 20.13 29.0385 18.69 28.8685 15.82H28.8485ZM34.8604 12.5C34.8804 13.2 34.8904 14.33 34.9004 15.23C34.5404 15.24 34.1404 15.25 33.7404 15.25C33.3404 15.25 32.9404 15.24 32.5804 15.23C32.5804 14.33 32.5904 13.2 32.6204 12.5H30.0904C30.1304 13.53 30.1304 14.66 30.1304 16.25C30.1304 17.84 30.1304 18.92 30.0904 20H32.6204C32.5904 19.27 32.5804 18.19 32.5804 17.32C32.9404 17.31 33.3404 17.31 33.7404 17.31C34.1404 17.31 34.5404 17.31 34.9004 17.32C34.8904 18.19 34.8804 19.28 34.8604 20H37.3904C37.3604 18.92 37.3504 17.84 37.3504 16.25C37.3504 14.66 37.3604 13.53 37.3904 12.5H34.8604ZM38.2139 12.5C38.2239 12.78 38.2239 13.21 38.2239 13.6C38.2239 13.97 38.2239 14.44 38.2139 14.74C38.8139 14.73 39.4039 14.72 39.9439 14.72C39.9439 17.14 39.9339 19.47 39.9039 20.01C40.2639 19.98 40.8139 19.98 41.2139 19.98C41.6139 19.98 42.1839 19.98 42.5339 20.01C42.5039 19.47 42.4939 17.13 42.4939 14.72C43.0339 14.72 43.6239 14.73 44.2139 14.74C44.2039 14.44 44.2039 13.97 44.2039 13.6C44.2039 13.21 44.2039 12.78 44.2139 12.5H38.2139Z" fill="black"/>
</svg>
