<svg width="242" height="67" viewBox="0 0 242 67" fill="none" xmlns="http://www.w3.org/2000/svg">
<path d="M0.638828 0.999999H12.6388C12.6188 1.56 12.6188 2.42 12.6188 3.2C12.6188 3.94 12.6188 4.88 12.6388 5.48C11.4588 5.46 10.2788 5.44 9.19883 5.44C9.19883 10.26 9.21883 14.94 9.27883 16.02C8.57883 15.96 7.43883 15.96 6.63883 15.96C5.83883 15.96 4.73883 15.96 4.01883 16.02C4.07883 14.94 4.09883 10.28 4.09883 5.44C3.01883 5.44 1.83883 5.46 0.638828 5.48C0.658828 4.88 0.658828 3.94 0.658828 3.2C0.658828 2.42 0.658828 1.56 0.638828 0.999999ZM23.7546 0.999999H28.7346C28.6946 2.3 28.6546 3.58 28.6546 5.52C28.6546 6.72 28.6946 8.6 28.6946 10C28.6946 14.04 26.8746 16.28 21.4946 16.28C16.1146 16.28 14.2746 14.04 14.2746 10C14.2746 8.6 14.3146 6.72 14.3146 5.52C14.3146 3.58 14.2746 2.3 14.2346 0.999999H19.3346C19.2546 3.36 19.2346 7.36 19.2346 9.64C19.2346 11.4 19.9546 12.16 21.6146 12.16C23.2146 12.16 23.8346 11.4 23.8346 9.64C23.8346 7.36 23.7946 3.36 23.7546 0.999999ZM38.5068 8.24C39.8268 8.24 40.4268 7.62 40.4268 6.28C40.4268 4.68 39.7468 4.32 38.2468 4.32C37.8268 4.32 36.8468 4.34 36.0668 4.36C36.0668 5.66 36.0668 6.96 36.0868 8.2C36.6468 8.22 37.5268 8.22 38.5068 8.24ZM41.6668 9.92V10.04C43.7268 10.3 44.5468 10.9 45.0468 12.92C45.3668 14.06 45.6668 15.32 45.8668 16H41.4068C40.6668 16 40.5268 15.74 40.1868 14.2C39.7068 11.68 39.4268 11.24 38.2068 11.24C37.4868 11.24 37.0668 11.22 36.1068 11.24C36.1468 13.16 36.2068 14.82 36.3268 16H31.2668C31.3068 13.82 31.3468 11.7 31.3468 8.5C31.3468 5.32 31.3268 3.16 31.2668 0.999999H39.4468C43.1068 0.999999 45.2068 2.36 45.2068 5.52C45.2068 8.26 44.2068 9.52 41.6668 9.92ZM57.7526 0.999999H62.0926C62.0526 2.44 62.0326 5.3 62.0326 8.48C62.0326 11.8 62.0326 14.06 62.0726 16H56.9726C56.3326 14.66 54.6326 11.92 53.1926 9.62C52.6726 8.62 52.2526 7.58 51.8926 6.56H51.8526C51.9526 7.86 52.0126 9.04 52.0526 10.22C52.0726 13.16 52.0726 15.16 52.1326 16H47.6926C47.7126 14 47.7326 11.7 47.7326 8.5C47.7326 5.32 47.7326 2.98 47.6926 0.999999H53.3126C53.7126 1.96 55.6726 5.1 56.9726 7.5C57.3726 8.28 57.7326 9.2 58.0326 10.12L58.0726 10.1C57.9726 8.96 57.9126 7.88 57.9126 6.92C57.8926 4.72 57.8326 2.22 57.7526 0.999999ZM84.8005 8.24C84.8005 13.66 82.1205 16.28 76.9805 16.28C71.8405 16.28 69.2605 13.66 69.2605 8.24C69.2605 2.82 72.1205 0.719999 77.0005 0.719999C81.8605 0.719999 84.8005 2.82 84.8005 8.24ZM77.0005 12.24C78.8005 12.24 79.7005 11 79.7005 8.3C79.7005 5.64 78.7805 4.54 77.0005 4.54C75.2205 4.54 74.2805 5.6 74.2805 8.3C74.2805 11.04 75.2205 12.24 77.0005 12.24ZM96.8737 0.999999H101.214C101.174 2.44 101.154 5.3 101.154 8.48C101.154 11.8 101.154 14.06 101.194 16H96.0937C95.4537 14.66 93.7537 11.92 92.3137 9.62C91.7937 8.62 91.3737 7.58 91.0137 6.56H90.9737C91.0737 7.86 91.1337 9.04 91.1737 10.22C91.1937 13.16 91.1937 15.16 91.2537 16H86.8137C86.8337 14 86.8537 11.7 86.8537 8.5C86.8537 5.32 86.8537 2.98 86.8137 0.999999H92.4337C92.8337 1.96 94.7937 5.1 96.0937 7.5C96.4937 8.28 96.8537 9.2 97.1537 10.12L97.1937 10.1C97.0937 8.96 97.0337 7.88 97.0337 6.92C97.0137 4.72 96.9537 2.22 96.8737 0.999999ZM116.382 12.74C117.762 12.74 118.302 12.38 118.302 11.14C118.302 9.98 117.722 9.6 116.342 9.6C115.582 9.6 114.722 9.62 113.782 9.64C113.782 10.72 113.802 11.78 113.822 12.7C114.822 12.74 115.642 12.74 116.382 12.74ZM118.182 5.4C118.182 4.34 117.642 3.98 116.362 3.98C115.562 3.98 114.722 4 113.802 4.04C113.782 4.92 113.782 6 113.782 7.12C114.702 7.16 115.542 7.14 116.302 7.14C117.602 7.12 118.182 6.62 118.182 5.4ZM119.822 8.36V8.46C120.322 8.5 120.742 8.56 121.082 8.68C122.622 9.18 123.182 10.22 123.182 12C123.182 14.76 121.662 16 118.102 16H108.942C109.042 13.9 109.042 11.68 109.042 8.5C109.042 5.32 109.042 3.04 108.942 0.999999H117.902C121.182 0.999999 123.002 2.02 123.002 4.96C123.002 6.68 122.542 7.5 121.262 8.04C120.882 8.2 120.402 8.3 119.822 8.36ZM125.29 0.999999H130.45C130.41 2.12 130.37 5.16 130.35 8.48C130.35 9.54 130.35 10.62 130.37 11.56C131.75 11.56 133.59 11.54 135.19 11.5C135.19 12.24 135.17 13 135.17 13.74C135.17 14.5 135.19 15.24 135.19 16H125.29C125.29 14.78 125.35 11.7 125.35 8.5C125.35 5.06 125.35 2.44 125.29 0.999999ZM145.864 0.999999H150.844C150.804 2.3 150.764 3.58 150.764 5.52C150.764 6.72 150.804 8.6 150.804 10C150.804 14.04 148.984 16.28 143.604 16.28C138.224 16.28 136.384 14.04 136.384 10C136.384 8.6 136.424 6.72 136.424 5.52C136.424 3.58 136.384 2.3 136.344 0.999999H141.444C141.364 3.36 141.344 7.36 141.344 9.64C141.344 11.4 142.064 12.16 143.724 12.16C145.324 12.16 145.944 11.4 145.944 9.64C145.944 7.36 145.904 3.36 145.864 0.999999ZM153.376 0.999999H165.416C165.396 1.42 165.376 2.18 165.376 2.76C165.376 3.38 165.376 4.24 165.416 4.68C162.976 4.66 160.316 4.64 158.316 4.64V6.74C160.696 6.74 163.276 6.74 165.236 6.68C165.216 7.42 165.216 9.16 165.216 9.96C163.276 9.92 160.676 9.9 158.316 9.9V12.08C160.336 12.08 163.136 12.06 165.416 12.04C165.376 12.52 165.376 13.4 165.376 14.1C165.376 14.7 165.376 15.5 165.416 16H153.376C153.436 13.98 153.436 11.7 153.436 8.5C153.436 5.32 153.436 2.94 153.376 0.999999ZM166.811 0.999999H178.811C178.791 1.56 178.791 2.42 178.791 3.2C178.791 3.94 178.791 4.88 178.811 5.48C177.631 5.46 176.451 5.44 175.371 5.44C175.371 10.26 175.391 14.94 175.451 16.02C174.751 15.96 173.611 15.96 172.811 15.96C172.011 15.96 170.911 15.96 170.191 16.02C170.251 14.94 170.271 10.28 170.271 5.44C169.191 5.44 168.011 5.46 166.811 5.48C166.831 4.88 166.831 3.94 166.831 3.2C166.831 2.42 166.831 1.56 166.811 0.999999ZM195.269 8.24C195.269 13.66 192.589 16.28 187.449 16.28C182.309 16.28 179.729 13.66 179.729 8.24C179.729 2.82 182.589 0.719999 187.469 0.719999C192.329 0.719999 195.269 2.82 195.269 8.24ZM187.469 12.24C189.269 12.24 190.169 11 190.169 8.3C190.169 5.64 189.249 4.54 187.469 4.54C185.689 4.54 184.749 5.6 184.749 8.3C184.749 11.04 185.689 12.24 187.469 12.24ZM212.222 8.24C212.222 13.66 209.542 16.28 204.402 16.28C199.262 16.28 196.682 13.66 196.682 8.24C196.682 2.82 199.542 0.719999 204.422 0.719999C209.282 0.719999 212.222 2.82 212.222 8.24ZM204.422 12.24C206.222 12.24 207.122 11 207.122 8.3C207.122 5.64 206.202 4.54 204.422 4.54C202.642 4.54 201.702 5.6 201.702 8.3C201.702 11.04 202.642 12.24 204.422 12.24ZM213.158 0.999999H225.158C225.138 1.56 225.138 2.42 225.138 3.2C225.138 3.94 225.138 4.88 225.158 5.48C223.978 5.46 222.798 5.44 221.718 5.44C221.718 10.26 221.738 14.94 221.798 16.02C221.098 15.96 219.958 15.96 219.158 15.96C218.358 15.96 217.258 15.96 216.538 16.02C216.598 14.94 216.618 10.28 216.618 5.44C215.538 5.44 214.358 5.46 213.158 5.48C213.178 4.88 213.178 3.94 213.178 3.2C213.178 2.42 213.178 1.56 213.158 0.999999ZM236.334 0.999999H241.394C241.334 3.06 241.314 5.32 241.314 8.5C241.314 11.68 241.334 13.84 241.394 16H236.334C236.374 14.56 236.394 12.38 236.414 10.64C235.694 10.62 234.894 10.62 234.094 10.62C233.294 10.62 232.494 10.62 231.774 10.64C231.774 12.38 231.794 14.54 231.854 16H226.794C226.874 13.84 226.874 11.68 226.874 8.5C226.874 5.32 226.874 3.06 226.794 0.999999H231.854C231.794 2.4 231.774 4.66 231.774 6.46C232.494 6.48 233.294 6.5 234.094 6.5C234.894 6.5 235.694 6.48 236.414 6.46C236.394 4.66 236.374 2.4 236.334 0.999999ZM9.37633 35.06H11.0963C10.7763 33.6 10.4363 32.1 10.0963 30.8C9.79633 29.78 9.57633 28.8 9.41633 28.08H9.35633C9.17633 28.8 8.95633 29.76 8.65633 30.84C8.35633 32.14 8.01633 33.62 7.67633 35.06H9.37633ZM17.8163 41H12.2163C12.1563 40.46 11.9963 39.42 11.7363 38.14C10.8763 38.14 10.0363 38.14 9.37633 38.14C8.75633 38.14 7.89633 38.14 7.01633 38.14C6.75633 39.38 6.55633 40.4 6.47633 41H1.35633C2.57633 37.24 4.99633 28.08 5.49633 26H13.5163C14.0763 28.1 16.5163 37.18 17.8163 41ZM29.276 26H33.616C33.576 27.44 33.556 30.3 33.556 33.48C33.556 36.8 33.556 39.06 33.596 41H28.496C27.856 39.66 26.156 36.92 24.716 34.62C24.196 33.62 23.776 32.58 23.416 31.56H23.376C23.476 32.86 23.536 34.04 23.576 35.22C23.596 38.16 23.596 40.16 23.656 41H19.216C19.236 39 19.256 36.7 19.256 33.5C19.256 30.32 19.256 27.98 19.216 26H24.836C25.236 26.96 27.196 30.1 28.496 32.5C28.896 33.28 29.256 34.2 29.556 35.12L29.596 35.1C29.496 33.96 29.436 32.88 29.436 31.92C29.416 29.72 29.356 27.22 29.276 26ZM42.8882 37.12C44.8882 37.12 45.7482 36.56 45.7482 33.28C45.7482 30.12 44.9082 29.64 42.9282 29.64C42.3082 29.64 41.7282 29.66 41.1682 29.7C41.1282 30.92 41.1282 32.24 41.1282 33.54C41.1282 35.06 41.1282 36.18 41.1482 37.08C41.7282 37.12 42.2482 37.12 42.8882 37.12ZM36.2082 26H43.2882C48.4082 26 50.6682 27.5 50.6682 33.1C50.6682 39.1 48.6682 41 43.1882 41H36.2082C36.2482 38.9 36.2682 36.7 36.2682 33.52C36.2682 30.34 36.2482 27.96 36.2082 26ZM65.2488 37.74C66.6288 37.74 67.1688 37.38 67.1688 36.14C67.1688 34.98 66.5888 34.6 65.2088 34.6C64.4488 34.6 63.5888 34.62 62.6488 34.64C62.6488 35.72 62.6688 36.78 62.6888 37.7C63.6888 37.74 64.5088 37.74 65.2488 37.74ZM67.0488 30.4C67.0488 29.34 66.5088 28.98 65.2288 28.98C64.4288 28.98 63.5888 29 62.6688 29.04C62.6488 29.92 62.6488 31 62.6488 32.12C63.5688 32.16 64.4088 32.14 65.1688 32.14C66.4688 32.12 67.0488 31.62 67.0488 30.4ZM68.6888 33.36V33.46C69.1888 33.5 69.6088 33.56 69.9488 33.68C71.4888 34.18 72.0488 35.22 72.0488 37C72.0488 39.76 70.5288 41 66.9688 41H57.8088C57.9088 38.9 57.9088 36.68 57.9088 33.5C57.9088 30.32 57.9088 28.04 57.8088 26H66.7688C70.0488 26 71.8688 27.02 71.8688 29.96C71.8688 31.68 71.4088 32.5 70.1288 33.04C69.7488 33.2 69.2688 33.3 68.6888 33.36ZM74.1574 26H86.1974C86.1774 26.42 86.1574 27.18 86.1574 27.76C86.1574 28.38 86.1574 29.24 86.1974 29.68C83.7574 29.66 81.0974 29.64 79.0974 29.64V31.74C81.4774 31.74 84.0574 31.74 86.0174 31.68C85.9974 32.42 85.9974 34.16 85.9974 34.96C84.0574 34.92 81.4574 34.9 79.0974 34.9V37.08C81.1174 37.08 83.9174 37.06 86.1974 37.04C86.1574 37.52 86.1574 38.4 86.1574 39.1C86.1574 39.7 86.1574 40.5 86.1974 41H74.1574C74.2174 38.98 74.2174 36.7 74.2174 33.5C74.2174 30.32 74.2174 27.94 74.1574 26ZM109.748 26H113.868C112.988 29.48 111.148 38.82 110.708 41C110.008 40.98 109.028 40.96 107.908 40.96C106.348 40.96 105.208 40.98 104.728 41C104.528 39.82 104.068 36.94 103.648 34.36C103.488 33.24 103.348 31.94 103.208 30.78H103.108C102.948 31.96 102.788 33.3 102.588 34.4C102.148 36.88 101.628 39.7 101.408 41C100.748 41 99.5677 40.96 98.4877 40.96C97.0277 40.96 96.1677 40.98 95.7077 41C95.1677 38.52 93.4677 29.5 92.5277 26H97.8077C97.8877 27.1 98.4677 31.38 98.9077 34.3C99.0477 35.2 99.1677 36.1 99.2877 36.82H99.4077C99.5277 36.08 99.6677 35.2 99.8277 34.26C100.268 31.38 100.928 27.44 101.028 26C101.728 26.02 103.128 26.02 103.928 26.02C104.728 26.02 105.908 26.02 106.568 26C106.708 27.32 107.188 31.36 107.708 34.34C107.888 35.34 108.008 36.2 108.108 36.9H108.228C108.328 36.18 108.428 35.32 108.608 34.34C109.048 31.38 109.608 27.46 109.748 26ZM120.331 41H115.251C115.311 38.84 115.311 36.68 115.311 33.5C115.311 30.3 115.311 28.14 115.251 26H120.331C120.291 28.12 120.291 30.28 120.291 33.48C120.291 36.66 120.291 38.82 120.331 41ZM121.967 26H133.967C133.947 26.56 133.947 27.42 133.947 28.2C133.947 28.94 133.947 29.88 133.967 30.48C132.787 30.46 131.607 30.44 130.527 30.44C130.527 35.26 130.547 39.94 130.607 41.02C129.907 40.96 128.767 40.96 127.967 40.96C127.167 40.96 126.067 40.96 125.347 41.02C125.407 39.94 125.427 35.28 125.427 30.44C124.347 30.44 123.167 30.46 121.967 30.48C121.987 29.88 121.987 28.94 121.987 28.2C121.987 27.42 121.987 26.56 121.967 26ZM145.143 26H150.203C150.143 28.06 150.123 30.32 150.123 33.5C150.123 36.68 150.143 38.84 150.203 41H145.143C145.183 39.56 145.203 37.38 145.223 35.64C144.503 35.62 143.703 35.62 142.903 35.62C142.103 35.62 141.303 35.62 140.583 35.64C140.583 37.38 140.603 39.54 140.663 41H135.603C135.683 38.84 135.683 36.68 135.683 33.5C135.683 30.32 135.683 28.06 135.603 26H140.663C140.603 27.4 140.583 29.66 140.583 31.46C141.303 31.48 142.103 31.5 142.903 31.5C143.703 31.5 144.503 31.48 145.223 31.46C145.203 29.66 145.183 27.4 145.143 26ZM157.89 41H152.81C152.87 38.84 152.87 36.68 152.87 33.5C152.87 30.3 152.87 28.14 152.81 26H157.89C157.85 28.12 157.85 30.28 157.85 33.48C157.85 36.66 157.85 38.82 157.89 41ZM170.546 26H174.886C174.846 27.44 174.826 30.3 174.826 33.48C174.826 36.8 174.826 39.06 174.866 41H169.766C169.126 39.66 167.426 36.92 165.986 34.62C165.466 33.62 165.046 32.58 164.686 31.56H164.646C164.746 32.86 164.806 34.04 164.846 35.22C164.866 38.16 164.866 40.16 164.926 41H160.486C160.506 39 160.526 36.7 160.526 33.5C160.526 30.32 160.526 27.98 160.486 26H166.106C166.506 26.96 168.466 30.1 169.766 32.5C170.166 33.28 170.526 34.2 170.826 35.12L170.866 35.1C170.766 33.96 170.706 32.88 170.706 31.92C170.686 29.72 170.626 27.22 170.546 26ZM182.674 41.02C182.714 38.96 182.734 36.7 182.734 33.5C182.734 30.28 182.594 28.8 182.534 27.86C183.694 27.38 184.694 26.7 185.534 26C186.034 26.02 186.454 26.02 186.874 26.02C187.374 26.02 187.794 26.02 188.114 26C188.054 27.68 188.034 30.28 188.034 33.5C188.034 36.68 188.054 38.96 188.114 41C186.934 40.96 186.134 40.96 185.374 40.96C184.634 40.96 183.814 40.98 182.674 41.02ZM204.422 33.22C204.422 38.68 202.082 41.26 197.142 41.26C192.202 41.26 189.962 38.68 189.962 33.22C189.962 27.78 192.542 25.74 197.162 25.74C201.762 25.74 204.422 27.78 204.422 33.22ZM197.162 29.66C195.722 29.66 194.882 30.4 194.882 33.26C194.882 36.28 195.722 37.06 197.162 37.06C198.642 37.06 199.462 36.26 199.462 33.26C199.462 30.42 198.622 29.66 197.162 29.66ZM216.54 30.16V32.74V33.02C218.82 33.02 221.06 33 223.02 32.94C222.96 33.9 222.96 35.82 222.96 36.82C221.06 36.82 218.84 36.78 216.58 36.78C216.62 38.24 216.66 39.68 216.74 41H211.52C211.58 38.92 211.6 36.68 211.6 33.5C211.6 30.32 211.6 28.08 211.54 26H223.18C223.16 26.56 223.12 27.4 223.12 28.1C223.12 28.84 223.14 29.64 223.16 30.2C220.8 30.18 218.48 30.16 216.54 30.16ZM224.252 26H236.252C236.232 26.56 236.232 27.42 236.232 28.2C236.232 28.94 236.232 29.88 236.252 30.48C235.072 30.46 233.892 30.44 232.812 30.44C232.812 35.26 232.832 39.94 232.892 41.02C232.192 40.96 231.052 40.96 230.252 40.96C229.452 40.96 228.352 40.96 227.632 41.02C227.692 39.94 227.712 35.28 227.712 30.44C226.632 30.44 225.452 30.46 224.252 30.48C224.272 29.88 224.272 28.94 224.272 28.2C224.272 27.42 224.272 26.56 224.252 26ZM63.1013 58.24C63.1013 63.66 60.4213 66.28 55.2813 66.28C50.1413 66.28 47.5613 63.66 47.5613 58.24C47.5613 52.82 50.4213 50.72 55.3013 50.72C60.1613 50.72 63.1013 52.82 63.1013 58.24ZM55.3013 62.24C57.1013 62.24 58.0013 61 58.0013 58.3C58.0013 55.64 57.0813 54.54 55.3013 54.54C53.5213 54.54 52.5813 55.6 52.5813 58.3C52.5813 61.04 53.5213 62.24 55.3013 62.24ZM70.1145 55.16V57.74V58.02C72.3945 58.02 74.6345 58 76.5945 57.94C76.5345 58.9 76.5345 60.82 76.5345 61.82C74.6345 61.82 72.4145 61.78 70.1545 61.78C70.1945 63.24 70.2345 64.68 70.3145 66H65.0945C65.1545 63.92 65.1745 61.68 65.1745 58.5C65.1745 55.32 65.1745 53.08 65.1145 51H76.7545C76.7345 51.56 76.6945 52.4 76.6945 53.1C76.6945 53.84 76.7145 54.64 76.7345 55.2C74.3745 55.18 72.0545 55.16 70.1145 55.16ZM90.4621 59.02C92.3821 59.02 93.0221 58.46 93.0221 56.74C93.0221 55.02 92.3021 54.52 90.5621 54.52C90.2021 54.52 89.4221 54.52 88.8021 54.54C88.8021 56.1 88.8021 57.6 88.8221 59C89.2221 59 89.8021 59.02 90.4621 59.02ZM83.9421 51H91.7021C95.5621 51 97.7021 52.32 97.7021 56.64C97.7021 60.76 95.8621 62.54 91.2821 62.54C90.5221 62.54 89.7821 62.52 88.8621 62.5C88.9021 63.86 88.9421 65.04 89.0221 66H83.9421C84.0021 63.84 84.0221 61.7 84.0221 58.5C84.0221 55.32 84.0021 53.08 83.9421 51ZM114.41 58.24C114.41 63.66 111.73 66.28 106.59 66.28C101.45 66.28 98.8699 63.66 98.8699 58.24C98.8699 52.82 101.73 50.72 106.61 50.72C111.47 50.72 114.41 52.82 114.41 58.24ZM106.61 62.24C108.41 62.24 109.31 61 109.31 58.3C109.31 55.64 108.39 54.54 106.61 54.54C104.83 54.54 103.89 55.6 103.89 58.3C103.89 61.04 104.83 62.24 106.61 62.24ZM122.923 59.02C124.843 59.02 125.483 58.46 125.483 56.74C125.483 55.02 124.763 54.52 123.023 54.52C122.663 54.52 121.883 54.52 121.263 54.54C121.263 56.1 121.263 57.6 121.283 59C121.683 59 122.263 59.02 122.923 59.02ZM116.403 51H124.163C128.023 51 130.163 52.32 130.163 56.64C130.163 60.76 128.323 62.54 123.743 62.54C122.983 62.54 122.243 62.52 121.323 62.5C121.363 63.86 121.403 65.04 121.483 66H116.403C116.463 63.84 116.483 61.7 116.483 58.5C116.483 55.32 116.463 53.08 116.403 51ZM131.911 51H137.071C137.031 52.12 136.991 55.16 136.971 58.48C136.971 59.54 136.971 60.62 136.991 61.56C138.371 61.56 140.211 61.54 141.811 61.5C141.811 62.24 141.791 63 141.791 63.74C141.791 64.5 141.811 65.24 141.811 66H131.911C131.911 64.78 131.971 61.7 131.971 58.5C131.971 55.06 131.971 52.44 131.911 51ZM148.456 66H143.376C143.436 63.84 143.436 61.68 143.436 58.5C143.436 55.3 143.436 53.14 143.376 51H148.456C148.416 53.12 148.416 55.28 148.416 58.48C148.416 61.66 148.416 63.82 148.456 66ZM165.072 57.64H165.112C165.452 63.38 164.392 66.26 158.092 66.26C152.852 66.26 150.432 63.54 150.432 58.34C150.432 53.16 152.892 50.74 158.152 50.74C163.412 50.74 165.192 52.92 165.192 55.6C165.192 55.88 165.192 56.14 165.172 56.44C164.512 56.42 163.592 56.4 162.692 56.4C161.772 56.4 160.892 56.4 160.292 56.44C160.292 56.28 160.312 56.1 160.312 55.96C160.312 54.74 159.572 54.2 158.132 54.2C156.252 54.2 155.452 55.2 155.452 58.4C155.452 61.42 156.172 62.7 158.272 62.7C159.772 62.7 160.392 62.08 160.512 60.48C159.552 60.48 158.512 60.5 157.712 60.52C157.732 60.22 157.732 59.5 157.732 59.18C157.732 58.56 157.732 58.04 157.712 57.64C158.992 57.66 160.272 57.66 161.232 57.66C162.292 57.66 163.672 57.68 165.072 57.64ZM177.096 51H182.156C182.096 53.06 182.076 55.32 182.076 58.5C182.076 61.68 182.096 63.84 182.156 66H177.096C177.136 64.56 177.156 62.38 177.176 60.64C176.456 60.62 175.656 60.62 174.856 60.62C174.056 60.62 173.256 60.62 172.536 60.64C172.536 62.38 172.556 64.54 172.616 66H167.556C167.636 63.84 167.636 61.68 167.636 58.5C167.636 55.32 167.636 53.06 167.556 51H172.616C172.556 52.4 172.536 54.66 172.536 56.46C173.256 56.48 174.056 56.5 174.856 56.5C175.656 56.5 176.456 56.48 177.176 56.46C177.156 54.66 177.136 52.4 177.096 51ZM183.803 51H195.803C195.783 51.56 195.783 52.42 195.783 53.2C195.783 53.94 195.783 54.88 195.803 55.48C194.623 55.46 193.443 55.44 192.363 55.44C192.363 60.26 192.383 64.94 192.443 66.02C191.743 65.96 190.603 65.96 189.803 65.96C189.003 65.96 187.903 65.96 187.183 66.02C187.243 64.94 187.263 60.28 187.263 55.44C186.183 55.44 185.003 55.46 183.803 55.48C183.823 54.88 183.823 53.94 183.823 53.2C183.823 52.42 183.823 51.56 183.803 51Z" fill="#FEF8E5"/>
</svg>
