<svg width="34" height="9" viewBox="0 0 34 9" fill="none" xmlns="http://www.w3.org/2000/svg">
<path d="M0.316016 0.499999C0.346016 1.22 0.346016 2.53 0.346016 4.25C0.346016 5.85 0.316016 7.39 0.316016 8H5.26602C5.26602 7.62 5.25602 7.25 5.25602 6.87C5.25602 6.5 5.26602 6.12 5.26602 5.75C4.46602 5.77 3.54602 5.78 2.85602 5.78C2.84602 5.31 2.84602 4.77 2.84602 4.24C2.85602 2.58 2.87602 1.06 2.89602 0.499999H0.316016ZM13.3915 4.12C13.3915 1.41 11.9215 0.359999 9.49148 0.359999C7.05148 0.359999 5.62148 1.41 5.62148 4.12C5.62148 6.83 6.91148 8.14 9.48148 8.14C12.0515 8.14 13.3915 6.83 13.3915 4.12ZM9.49148 6.12C8.60148 6.12 8.13148 5.52 8.13148 4.15C8.13148 2.8 8.60148 2.27 9.49148 2.27C10.3815 2.27 10.8415 2.82 10.8415 4.15C10.8415 5.5 10.3915 6.12 9.49148 6.12ZM21.408 3.82C20.708 3.84 20.018 3.83 19.488 3.83C19.008 3.83 18.368 3.83 17.728 3.82C17.738 4.02 17.738 4.28 17.738 4.59C17.738 4.75 17.738 5.11 17.728 5.26C18.128 5.25 18.648 5.24 19.128 5.24C19.068 6.04 18.758 6.35 18.008 6.35C16.958 6.35 16.598 5.71 16.598 4.2C16.598 2.6 16.998 2.1 17.938 2.1C18.658 2.1 19.028 2.37 19.028 2.98C19.028 3.05 19.018 3.14 19.018 3.22C19.318 3.2 19.758 3.2 20.218 3.2C20.668 3.2 21.128 3.21 21.458 3.22C21.468 3.07 21.468 2.94 21.468 2.8C21.468 1.46 20.578 0.37 17.948 0.37C15.318 0.37 14.088 1.58 14.088 4.17C14.088 6.77 15.298 8.13 17.918 8.13C21.068 8.13 21.598 6.69 21.428 3.82H21.408ZM25.19 8C25.17 6.91 25.17 5.83 25.17 4.24C25.17 2.64 25.17 1.56 25.19 0.499999H22.65C22.68 1.57 22.68 2.65 22.68 4.25C22.68 5.84 22.68 6.92 22.65 8H25.19ZM31.5179 0.499999C31.5579 1.11 31.5879 2.36 31.5979 3.46C31.5979 3.94 31.6279 4.48 31.6779 5.05L31.6579 5.06C31.5079 4.6 31.3279 4.14 31.1279 3.75C30.4779 2.55 29.4979 0.98 29.2979 0.499999H26.4879C26.5079 1.49 26.5079 2.66 26.5079 4.25C26.5079 5.85 26.4979 7 26.4879 8H28.7079C28.6779 7.58 28.6779 6.58 28.6679 5.11C28.6479 4.52 28.6179 3.93 28.5679 3.28H28.5879C28.7679 3.79 28.9779 4.31 29.2379 4.81C29.9579 5.96 30.8079 7.33 31.1279 8H33.6779C33.6579 7.03 33.6579 5.9 33.6579 4.24C33.6579 2.65 33.6679 1.22 33.6879 0.499999H31.5179Z" fill="#EAFC38"/>
</svg>
