<svg width="295" height="38" viewBox="0 0 295 38" fill="none" xmlns="http://www.w3.org/2000/svg">
<path d="M56.8541 0.749999C56.8691 1.17 56.8691 1.815 56.8691 2.4C56.8691 2.955 56.8691 3.66 56.8541 4.11C57.7541 4.095 58.6391 4.08 59.4491 4.08C59.4491 7.71 59.4341 11.205 59.3891 12.015C59.9291 11.97 60.7541 11.97 61.3541 11.97C61.9541 11.97 62.8091 11.97 63.3341 12.015C63.2891 11.205 63.2741 7.695 63.2741 4.08C64.0841 4.08 64.9691 4.095 65.8541 4.11C65.8391 3.66 65.8391 2.955 65.8391 2.4C65.8391 1.815 65.8391 1.17 65.8541 0.749999H56.8541ZM74.191 0.749999C74.221 2.52 74.251 5.52 74.251 7.23C74.251 8.55 73.786 9.12 72.586 9.12C71.341 9.12 70.801 8.55 70.801 7.23C70.801 5.52 70.816 2.52 70.876 0.749999H67.051C67.081 1.725 67.111 2.685 67.111 4.14C67.111 5.04 67.081 6.45 67.081 7.5C67.081 10.53 68.461 12.21 72.496 12.21C76.531 12.21 77.896 10.53 77.896 7.5C77.896 6.45 77.866 5.04 77.866 4.14C77.866 2.685 77.896 1.725 77.926 0.749999H74.191ZM85.2551 6.18C84.5201 6.165 83.8601 6.165 83.4401 6.15C83.4251 5.22 83.4251 4.245 83.4251 3.27C84.0101 3.255 84.7451 3.24 85.0601 3.24C86.1851 3.24 86.6951 3.51 86.6951 4.71C86.6951 5.715 86.2451 6.18 85.2551 6.18ZM87.6251 7.44C89.5301 7.14 90.2801 6.195 90.2801 4.14C90.2801 1.77 88.7051 0.749999 85.9601 0.749999H79.8251C79.8701 2.37 79.8851 3.99 79.8851 6.375C79.8851 8.775 79.8551 10.365 79.8251 12H83.6201C83.5301 11.115 83.4851 9.87 83.4551 8.43C84.1751 8.415 84.4901 8.43 85.0301 8.43C85.9451 8.43 86.1551 8.76 86.5151 10.65C86.7701 11.805 86.8751 12 87.4301 12H90.7751C90.6251 11.49 90.4001 10.545 90.1601 9.69C89.7851 8.175 89.1701 7.725 87.6251 7.53V7.44ZM99.6894 0.749999C99.7494 1.665 99.7944 3.54 99.8094 5.19C99.8094 5.91 99.8544 6.72 99.9294 7.575L99.8994 7.59C99.6744 6.9 99.4044 6.21 99.1044 5.625C98.1294 3.825 96.6594 1.47 96.3594 0.749999H92.1444C92.1744 2.235 92.1744 3.99 92.1744 6.375C92.1744 8.775 92.1594 10.5 92.1444 12H95.4744C95.4294 11.37 95.4294 9.87 95.4144 7.665C95.3844 6.78 95.3394 5.895 95.2644 4.92H95.2944C95.5644 5.685 95.8794 6.465 96.2694 7.215C97.3494 8.94 98.6244 10.995 99.1044 12H102.929C102.899 10.545 102.899 8.85 102.899 6.36C102.899 3.975 102.914 1.83 102.944 0.749999H99.6894ZM119.975 6.18C119.975 2.115 117.77 0.539999 114.125 0.539999C110.465 0.539999 108.32 2.115 108.32 6.18C108.32 10.245 110.255 12.21 114.11 12.21C117.965 12.21 119.975 10.245 119.975 6.18ZM114.125 9.18C112.79 9.18 112.085 8.28 112.085 6.225C112.085 4.2 112.79 3.405 114.125 3.405C115.46 3.405 116.15 4.23 116.15 6.225C116.15 8.25 115.475 9.18 114.125 9.18ZM129.03 0.749999C129.09 1.665 129.135 3.54 129.15 5.19C129.15 5.91 129.195 6.72 129.27 7.575L129.24 7.59C129.015 6.9 128.745 6.21 128.445 5.625C127.47 3.825 126 1.47 125.7 0.749999H121.485C121.515 2.235 121.515 3.99 121.515 6.375C121.515 8.775 121.5 10.5 121.485 12H124.815C124.77 11.37 124.77 9.87 124.755 7.665C124.725 6.78 124.68 5.895 124.605 4.92H124.635C124.905 5.685 125.22 6.465 125.61 7.215C126.69 8.94 127.965 10.995 128.445 12H132.27C132.24 10.545 132.24 8.85 132.24 6.36C132.24 3.975 132.255 1.83 132.285 0.749999H129.03ZM143.661 9.555C143.106 9.555 142.491 9.555 141.741 9.525C141.726 8.835 141.711 8.04 141.711 7.23C142.416 7.215 143.061 7.2 143.631 7.2C144.666 7.2 145.101 7.485 145.101 8.355C145.101 9.285 144.696 9.555 143.661 9.555ZM145.011 4.05C145.011 4.965 144.576 5.34 143.601 5.355C143.031 5.355 142.401 5.37 141.711 5.34C141.711 4.5 141.711 3.69 141.726 3.03C142.416 3 143.046 2.985 143.646 2.985C144.606 2.985 145.011 3.255 145.011 4.05ZM146.241 6.27C146.676 6.225 147.036 6.15 147.321 6.03C148.281 5.625 148.626 5.01 148.626 3.72C148.626 1.515 147.261 0.749999 144.801 0.749999H138.081C138.156 2.28 138.156 3.99 138.156 6.375C138.156 8.76 138.156 10.425 138.081 12H144.951C147.621 12 148.761 11.07 148.761 9C148.761 7.665 148.341 6.885 147.186 6.51C146.931 6.42 146.616 6.375 146.241 6.345V6.27ZM150.343 0.749999C150.388 1.83 150.388 3.795 150.388 6.375C150.388 8.775 150.343 11.085 150.343 12H157.768C157.768 11.43 157.753 10.875 157.753 10.305C157.753 9.75 157.768 9.18 157.768 8.625C156.568 8.655 155.188 8.67 154.153 8.67C154.138 7.965 154.138 7.155 154.138 6.36C154.153 3.87 154.183 1.59 154.213 0.749999H150.343ZM165.773 0.749999C165.803 2.52 165.833 5.52 165.833 7.23C165.833 8.55 165.368 9.12 164.168 9.12C162.923 9.12 162.383 8.55 162.383 7.23C162.383 5.52 162.398 2.52 162.458 0.749999H158.633C158.663 1.725 158.693 2.685 158.693 4.14C158.693 5.04 158.663 6.45 158.663 7.5C158.663 10.53 160.043 12.21 164.078 12.21C168.113 12.21 169.478 10.53 169.478 7.5C169.478 6.45 169.448 5.04 169.448 4.14C169.448 2.685 169.478 1.725 169.508 0.749999H165.773ZM171.407 0.749999C171.452 2.205 171.452 3.99 171.452 6.375C171.452 8.775 171.452 10.485 171.407 12H180.437C180.407 11.625 180.407 11.025 180.407 10.575C180.407 10.05 180.407 9.39 180.437 9.03C178.727 9.045 176.627 9.06 175.112 9.06V7.425C176.882 7.425 178.832 7.44 180.287 7.47C180.287 6.87 180.287 5.565 180.302 5.01C178.832 5.055 176.897 5.055 175.112 5.055V3.48C176.612 3.48 178.607 3.495 180.437 3.51C180.407 3.18 180.407 2.535 180.407 2.07C180.407 1.635 180.422 1.065 180.437 0.749999H171.407ZM181.483 0.749999C181.498 1.17 181.498 1.815 181.498 2.4C181.498 2.955 181.498 3.66 181.483 4.11C182.383 4.095 183.268 4.08 184.078 4.08C184.078 7.71 184.063 11.205 184.018 12.015C184.558 11.97 185.383 11.97 185.983 11.97C186.583 11.97 187.438 11.97 187.963 12.015C187.918 11.205 187.903 7.695 187.903 4.08C188.713 4.08 189.598 4.095 190.483 4.11C190.468 3.66 190.468 2.955 190.468 2.4C190.468 1.815 190.468 1.17 190.483 0.749999H181.483ZM202.827 6.18C202.827 2.115 200.622 0.539999 196.977 0.539999C193.317 0.539999 191.172 2.115 191.172 6.18C191.172 10.245 193.107 12.21 196.962 12.21C200.817 12.21 202.827 10.245 202.827 6.18ZM196.977 9.18C195.642 9.18 194.937 8.28 194.937 6.225C194.937 4.2 195.642 3.405 196.977 3.405C198.312 3.405 199.002 4.23 199.002 6.225C199.002 8.25 198.327 9.18 196.977 9.18ZM215.542 6.18C215.542 2.115 213.337 0.539999 209.692 0.539999C206.032 0.539999 203.887 2.115 203.887 6.18C203.887 10.245 205.822 12.21 209.677 12.21C213.532 12.21 215.542 10.245 215.542 6.18ZM209.692 9.18C208.357 9.18 207.652 8.28 207.652 6.225C207.652 4.2 208.357 3.405 209.692 3.405C211.027 3.405 211.717 4.23 211.717 6.225C211.717 8.25 211.042 9.18 209.692 9.18ZM216.244 0.749999C216.259 1.17 216.259 1.815 216.259 2.4C216.259 2.955 216.259 3.66 216.244 4.11C217.144 4.095 218.029 4.08 218.839 4.08C218.839 7.71 218.824 11.205 218.779 12.015C219.319 11.97 220.144 11.97 220.744 11.97C221.344 11.97 222.199 11.97 222.724 12.015C222.679 11.205 222.664 7.695 222.664 4.08C223.474 4.08 224.359 4.095 225.244 4.11C225.229 3.66 225.229 2.955 225.229 2.4C225.229 1.815 225.229 1.17 225.244 0.749999H216.244ZM233.626 0.749999C233.656 1.8 233.671 3.495 233.686 4.845C233.146 4.86 232.546 4.875 231.946 4.875C231.346 4.875 230.746 4.86 230.206 4.845C230.206 3.495 230.221 1.8 230.266 0.749999H226.471C226.531 2.295 226.531 3.99 226.531 6.375C226.531 8.76 226.531 10.38 226.471 12H230.266C230.221 10.905 230.206 9.285 230.206 7.98C230.746 7.965 231.346 7.965 231.946 7.965C232.546 7.965 233.146 7.965 233.686 7.98C233.671 9.285 233.656 10.92 233.626 12H237.421C237.376 10.38 237.361 8.76 237.361 6.375C237.361 3.99 237.376 2.295 237.421 0.749999H233.626ZM6.13918 32.545H4.86418C5.11918 31.465 5.37418 30.355 5.59918 29.38C5.82418 28.57 5.98918 27.85 6.12418 27.31H6.16918C6.28918 27.85 6.45418 28.585 6.67918 29.35C6.93418 30.325 7.18918 31.45 7.42918 32.545H6.13918ZM12.4692 37C11.4942 34.135 9.66418 27.325 9.24418 25.75H3.22918C2.85418 27.31 1.03918 34.18 0.12418 37H3.96418C4.02418 36.55 4.17418 35.785 4.36918 34.855C5.02918 34.855 5.67418 34.855 6.13918 34.855C6.63418 34.855 7.26418 34.855 7.90918 34.855C8.10418 35.815 8.22418 36.595 8.26918 37H12.4692ZM21.0639 25.75C21.1239 26.665 21.1689 28.54 21.1839 30.19C21.1839 30.91 21.2289 31.72 21.3039 32.575L21.2739 32.59C21.0489 31.9 20.7789 31.21 20.4789 30.625C19.5039 28.825 18.0339 26.47 17.7339 25.75H13.5189C13.5489 27.235 13.5489 28.99 13.5489 31.375C13.5489 33.775 13.5339 35.5 13.5189 37H16.8489C16.8039 36.37 16.8039 34.87 16.7889 32.665C16.7589 31.78 16.7139 30.895 16.6389 29.92H16.6689C16.9389 30.685 17.2539 31.465 17.6439 32.215C18.7239 33.94 19.9989 35.995 20.4789 37H24.3039C24.2739 35.545 24.2739 33.85 24.2739 31.36C24.2739 28.975 24.2889 26.83 24.3189 25.75H21.0639ZM31.2731 34.09C30.7931 34.09 30.4031 34.09 29.9681 34.06C29.9531 33.385 29.9531 32.545 29.9531 31.405C29.9531 30.43 29.9531 29.44 29.9831 28.525C30.4031 28.495 30.8381 28.48 31.3031 28.48C32.7881 28.48 33.4181 28.84 33.4181 31.21C33.4181 33.67 32.7731 34.09 31.2731 34.09ZM26.2631 25.75C26.2931 27.22 26.3081 29.005 26.3081 31.39C26.3081 33.775 26.2931 35.425 26.2631 37H31.4981C35.6081 37 37.1081 35.575 37.1081 31.075C37.1081 26.875 35.4131 25.75 31.5731 25.75H26.2631ZM48.0436 34.555C47.4886 34.555 46.8736 34.555 46.1236 34.525C46.1086 33.835 46.0936 33.04 46.0936 32.23C46.7986 32.215 47.4436 32.2 48.0136 32.2C49.0486 32.2 49.4836 32.485 49.4836 33.355C49.4836 34.285 49.0786 34.555 48.0436 34.555ZM49.3936 29.05C49.3936 29.965 48.9586 30.34 47.9836 30.355C47.4136 30.355 46.7836 30.37 46.0936 30.34C46.0936 29.5 46.0936 28.69 46.1086 28.03C46.7986 28 47.4286 27.985 48.0286 27.985C48.9886 27.985 49.3936 28.255 49.3936 29.05ZM50.6236 31.27C51.0586 31.225 51.4186 31.15 51.7036 31.03C52.6636 30.625 53.0086 30.01 53.0086 28.72C53.0086 26.515 51.6436 25.75 49.1836 25.75H42.4636C42.5386 27.28 42.5386 28.99 42.5386 31.375C42.5386 33.76 42.5386 35.425 42.4636 37H49.3336C52.0036 37 53.1436 36.07 53.1436 34C53.1436 32.665 52.7236 31.885 51.5686 31.51C51.3136 31.42 50.9986 31.375 50.6236 31.345V31.27ZM54.725 25.75C54.77 27.205 54.77 28.99 54.77 31.375C54.77 33.775 54.77 35.485 54.725 37H63.755C63.725 36.625 63.725 36.025 63.725 35.575C63.725 35.05 63.725 34.39 63.755 34.03C62.045 34.045 59.945 34.06 58.43 34.06V32.425C60.2 32.425 62.15 32.44 63.605 32.47C63.605 31.87 63.605 30.565 63.62 30.01C62.15 30.055 60.215 30.055 58.43 30.055V28.48C59.93 28.48 61.925 28.495 63.755 28.51C63.725 28.18 63.725 27.535 63.725 27.07C63.725 26.635 63.74 26.065 63.755 25.75H54.725ZM81.4177 25.75C81.3127 26.845 80.8927 29.785 80.5627 32.005C80.4277 32.74 80.3527 33.385 80.2777 33.925H80.1877C80.1127 33.4 80.0227 32.755 79.8877 32.005C79.4977 29.77 79.1377 26.74 79.0327 25.75C78.5377 25.765 77.6527 25.765 77.0527 25.765C76.4527 25.765 75.4027 25.765 74.8777 25.75C74.8027 26.83 74.3077 29.785 73.9777 31.945C73.8577 32.65 73.7527 33.31 73.6627 33.865H73.5727C73.4827 33.325 73.3927 32.65 73.2877 31.975C72.9577 29.785 72.5227 26.575 72.4627 25.75H68.5027C69.2077 28.375 70.4827 35.14 70.8877 37C71.2327 36.985 71.8777 36.97 72.9727 36.97C73.7827 36.97 74.6677 37 75.1627 37C75.3277 36.025 75.7177 33.91 76.0477 32.05C76.1977 31.225 76.3177 30.22 76.4377 29.335H76.5127C76.6177 30.205 76.7227 31.18 76.8427 32.02C77.1577 33.955 77.5027 36.115 77.6527 37C78.0127 36.985 78.8677 36.97 80.0377 36.97C80.8777 36.97 81.6127 36.985 82.1377 37C82.4677 35.365 83.8477 28.36 84.5077 25.75H81.4177ZM89.3553 37C89.3253 35.365 89.3253 33.745 89.3253 31.36C89.3253 28.96 89.3253 27.34 89.3553 25.75H85.5453C85.5903 27.355 85.5903 28.975 85.5903 31.375C85.5903 33.76 85.5903 35.38 85.5453 37H89.3553ZM90.5821 25.75C90.5971 26.17 90.5971 26.815 90.5971 27.4C90.5971 27.955 90.5971 28.66 90.5821 29.11C91.4821 29.095 92.3671 29.08 93.1771 29.08C93.1771 32.71 93.1621 36.205 93.1171 37.015C93.6571 36.97 94.4821 36.97 95.0821 36.97C95.6821 36.97 96.5371 36.97 97.0621 37.015C97.0171 36.205 97.0021 32.695 97.0021 29.08C97.8121 29.08 98.6971 29.095 99.5821 29.11C99.5671 28.66 99.5671 27.955 99.5671 27.4C99.5671 26.815 99.5671 26.17 99.5821 25.75H90.5821ZM107.964 25.75C107.994 26.8 108.009 28.495 108.024 29.845C107.484 29.86 106.884 29.875 106.284 29.875C105.684 29.875 105.084 29.86 104.544 29.845C104.544 28.495 104.559 26.8 104.604 25.75H100.809C100.869 27.295 100.869 28.99 100.869 31.375C100.869 33.76 100.869 35.38 100.809 37H104.604C104.559 35.905 104.544 34.285 104.544 32.98C105.084 32.965 105.684 32.965 106.284 32.965C106.884 32.965 107.484 32.965 108.024 32.98C108.009 34.285 107.994 35.92 107.964 37H111.759C111.714 35.38 111.699 33.76 111.699 31.375C111.699 28.99 111.714 27.295 111.759 25.75H107.964ZM117.524 37C117.494 35.365 117.494 33.745 117.494 31.36C117.494 28.96 117.494 27.34 117.524 25.75H113.714C113.759 27.355 113.759 28.975 113.759 31.375C113.759 33.76 113.759 35.38 113.714 37H117.524ZM127.016 25.75C127.076 26.665 127.121 28.54 127.136 30.19C127.136 30.91 127.181 31.72 127.256 32.575L127.226 32.59C127.001 31.9 126.731 31.21 126.431 30.625C125.456 28.825 123.986 26.47 123.686 25.75H119.471C119.501 27.235 119.501 28.99 119.501 31.375C119.501 33.775 119.486 35.5 119.471 37H122.801C122.756 36.37 122.756 34.87 122.741 32.665C122.711 31.78 122.666 30.895 122.591 29.92H122.621C122.891 30.685 123.206 31.465 123.596 32.215C124.676 33.94 125.951 35.995 126.431 37H130.256C130.226 35.545 130.226 33.85 130.226 31.36C130.226 28.975 130.241 26.83 130.271 25.75H127.016ZM136.112 37.015C136.967 36.985 137.582 36.97 138.137 36.97C138.707 36.97 139.307 36.97 140.192 37C140.147 35.47 140.132 33.76 140.132 31.375C140.132 28.96 140.147 27.01 140.192 25.75C139.952 25.765 139.637 25.765 139.262 25.765C138.947 25.765 138.632 25.765 138.257 25.75C137.627 26.275 136.877 26.785 136.007 27.145C136.052 27.85 136.157 28.96 136.157 31.375C136.157 33.775 136.142 35.47 136.112 37.015ZM152.424 31.165C152.424 27.085 150.429 25.555 146.979 25.555C143.514 25.555 141.579 27.085 141.579 31.165C141.579 35.26 143.259 37.195 146.964 37.195C150.669 37.195 152.424 35.26 152.424 31.165ZM146.979 28.495C148.074 28.495 148.704 29.065 148.704 31.195C148.704 33.445 148.089 34.045 146.979 34.045C145.899 34.045 145.269 33.46 145.269 31.195C145.269 29.05 145.899 28.495 146.979 28.495ZM161.512 28.87C162.967 28.87 164.707 28.885 166.477 28.9C166.462 28.48 166.447 27.88 166.447 27.325C166.447 26.8 166.477 26.17 166.492 25.75H157.762C157.807 27.31 157.807 28.99 157.807 31.375C157.807 33.76 157.792 35.44 157.747 37H161.662C161.602 36.01 161.572 34.93 161.542 33.835C163.237 33.835 164.902 33.865 166.327 33.865C166.327 33.115 166.327 31.675 166.372 30.955C164.902 31 163.222 31.015 161.512 31.015V30.805V28.87ZM167.296 25.75C167.311 26.17 167.311 26.815 167.311 27.4C167.311 27.955 167.311 28.66 167.296 29.11C168.196 29.095 169.081 29.08 169.891 29.08C169.891 32.71 169.876 36.205 169.831 37.015C170.371 36.97 171.196 36.97 171.796 36.97C172.396 36.97 173.251 36.97 173.776 37.015C173.731 36.205 173.716 32.695 173.716 29.08C174.526 29.08 175.411 29.095 176.296 29.11C176.281 28.66 176.281 27.955 176.281 27.4C176.281 26.815 176.281 26.17 176.296 25.75H167.296ZM192.61 31.18C192.61 27.115 190.405 25.54 186.76 25.54C183.1 25.54 180.955 27.115 180.955 31.18C180.955 35.245 182.89 37.21 186.745 37.21C190.6 37.21 192.61 35.245 192.61 31.18ZM186.76 34.18C185.425 34.18 184.72 33.28 184.72 31.225C184.72 29.2 185.425 28.405 186.76 28.405C188.095 28.405 188.785 29.23 188.785 31.225C188.785 33.25 188.11 34.18 186.76 34.18ZM197.87 28.87C199.325 28.87 201.065 28.885 202.835 28.9C202.82 28.48 202.805 27.88 202.805 27.325C202.805 26.8 202.835 26.17 202.85 25.75H194.12C194.165 27.31 194.165 28.99 194.165 31.375C194.165 33.76 194.15 35.44 194.105 37H198.02C197.96 36.01 197.93 34.93 197.9 33.835C199.595 33.835 201.26 33.865 202.685 33.865C202.685 33.115 202.685 31.675 202.73 30.955C201.26 31 199.58 31.015 197.87 31.015V30.805V28.87ZM213.13 31.765C212.635 31.765 212.2 31.75 211.9 31.75C211.885 30.7 211.885 29.575 211.885 28.405C212.35 28.39 212.935 28.39 213.205 28.39C214.51 28.39 215.05 28.765 215.05 30.055C215.05 31.345 214.57 31.765 213.13 31.765ZM208.24 25.75C208.285 27.31 208.3 28.99 208.3 31.375C208.3 33.775 208.285 35.38 208.24 37H212.05C211.99 36.28 211.96 35.395 211.93 34.375C212.62 34.39 213.175 34.405 213.745 34.405C217.18 34.405 218.56 33.07 218.56 29.98C218.56 26.74 216.955 25.75 214.06 25.75H208.24ZM231.091 31.18C231.091 27.115 228.886 25.54 225.241 25.54C221.581 25.54 219.436 27.115 219.436 31.18C219.436 35.245 221.371 37.21 225.226 37.21C229.081 37.21 231.091 35.245 231.091 31.18ZM225.241 34.18C223.906 34.18 223.201 33.28 223.201 31.225C223.201 29.2 223.906 28.405 225.241 28.405C226.576 28.405 227.266 29.23 227.266 31.225C227.266 33.25 226.591 34.18 225.241 34.18ZM237.476 31.765C236.981 31.765 236.546 31.75 236.246 31.75C236.231 30.7 236.231 29.575 236.231 28.405C236.696 28.39 237.281 28.39 237.551 28.39C238.856 28.39 239.396 28.765 239.396 30.055C239.396 31.345 238.916 31.765 237.476 31.765ZM232.586 25.75C232.631 27.31 232.646 28.99 232.646 31.375C232.646 33.775 232.631 35.38 232.586 37H236.396C236.336 36.28 236.306 35.395 236.276 34.375C236.966 34.39 237.521 34.405 238.091 34.405C241.526 34.405 242.906 33.07 242.906 29.98C242.906 26.74 241.301 25.75 238.406 25.75H232.586ZM244.217 25.75C244.262 26.83 244.262 28.795 244.262 31.375C244.262 33.775 244.217 36.085 244.217 37H251.642C251.642 36.43 251.627 35.875 251.627 35.305C251.627 34.75 251.642 34.18 251.642 33.625C250.442 33.655 249.062 33.67 248.027 33.67C248.012 32.965 248.012 32.155 248.012 31.36C248.027 28.87 248.057 26.59 248.087 25.75H244.217ZM256.626 37C256.596 35.365 256.596 33.745 256.596 31.36C256.596 28.96 256.596 27.34 256.626 25.75H252.816C252.861 27.355 252.861 28.975 252.861 31.375C252.861 33.76 252.861 35.38 252.816 37H256.626ZM269.088 30.73C268.038 30.76 267.003 30.745 266.208 30.745C265.488 30.745 264.528 30.745 263.568 30.73C263.583 31.03 263.583 31.42 263.583 31.885C263.583 32.125 263.583 32.665 263.568 32.89C264.168 32.875 264.948 32.86 265.668 32.86C265.578 34.06 265.113 34.525 263.988 34.525C262.413 34.525 261.873 33.565 261.873 31.3C261.873 28.9 262.473 28.15 263.883 28.15C264.963 28.15 265.518 28.555 265.518 29.47C265.518 29.575 265.503 29.71 265.503 29.83C265.953 29.8 266.613 29.8 267.303 29.8C267.978 29.8 268.668 29.815 269.163 29.83C269.178 29.605 269.178 29.41 269.178 29.2C269.178 27.19 267.843 25.555 263.898 25.555C259.953 25.555 258.108 27.37 258.108 31.255C258.108 35.155 259.923 37.195 263.853 37.195C268.578 37.195 269.373 35.035 269.118 30.73H269.088ZM278.106 25.75C278.136 26.8 278.151 28.495 278.166 29.845C277.626 29.86 277.026 29.875 276.426 29.875C275.826 29.875 275.226 29.86 274.686 29.845C274.686 28.495 274.701 26.8 274.746 25.75H270.951C271.011 27.295 271.011 28.99 271.011 31.375C271.011 33.76 271.011 35.38 270.951 37H274.746C274.701 35.905 274.686 34.285 274.686 32.98C275.226 32.965 275.826 32.965 276.426 32.965C277.026 32.965 277.626 32.965 278.166 32.98C278.151 34.285 278.136 35.92 278.106 37H281.901C281.856 35.38 281.841 33.76 281.841 31.375C281.841 28.99 281.856 27.295 281.901 25.75H278.106ZM283.136 25.75C283.151 26.17 283.151 26.815 283.151 27.4C283.151 27.955 283.151 28.66 283.136 29.11C284.036 29.095 284.921 29.08 285.731 29.08C285.731 32.71 285.716 36.205 285.671 37.015C286.211 36.97 287.036 36.97 287.636 36.97C288.236 36.97 289.091 36.97 289.616 37.015C289.571 36.205 289.556 32.695 289.556 29.08C290.366 29.08 291.251 29.095 292.136 29.11C292.121 28.66 292.121 27.955 292.121 27.4C292.121 26.815 292.121 26.17 292.136 25.75H283.136ZM293.076 33.295C291.951 33.295 291.306 33.895 291.306 35.185C291.306 36.49 291.936 37.135 293.076 37.135C294.231 37.135 294.861 36.49 294.861 35.185C294.861 33.895 294.216 33.295 293.076 33.295Z" fill="#FEF8E5"/>
</svg>
