<svg width="88" height="21" viewBox="0 0 88 21" fill="none" xmlns="http://www.w3.org/2000/svg">
<path d="M0.919531 0.499999C0.949531 1.22 0.949531 2.53 0.949531 4.25C0.949531 5.85 0.919531 7.39 0.919531 8H5.86953C5.86953 7.62 5.85953 7.25 5.85953 6.87C5.85953 6.5 5.86953 6.12 5.86953 5.75C5.06953 5.77 4.14953 5.78 3.45953 5.78C3.44953 5.31 3.44953 4.77 3.44953 4.24C3.45953 2.58 3.47953 1.06 3.49953 0.499999H0.919531ZM6.65195 0.499999C6.68195 1.47 6.68195 2.66 6.68195 4.25C6.68195 5.85 6.68195 6.99 6.65195 8H12.672C12.652 7.75 12.652 7.35 12.652 7.05C12.652 6.7 12.652 6.26 12.672 6.02C11.532 6.03 10.132 6.04 9.12195 6.04V4.95C10.302 4.95 11.602 4.96 12.572 4.98C12.572 4.58 12.572 3.71 12.582 3.34C11.602 3.37 10.312 3.37 9.12195 3.37V2.32C10.122 2.32 11.452 2.33 12.672 2.34C12.652 2.12 12.652 1.69 12.652 1.38C12.652 1.09 12.662 0.71 12.672 0.499999H6.65195ZM16.3492 2.58C17.3192 2.58 18.4792 2.59 19.6592 2.6C19.6492 2.32 19.6392 1.92 19.6392 1.55C19.6392 1.2 19.6592 0.779999 19.6692 0.499999H13.8492C13.8792 1.54 13.8792 2.66 13.8792 4.25C13.8792 5.84 13.8692 6.96 13.8392 8H16.4492C16.4092 7.34 16.3892 6.62 16.3692 5.89C17.4992 5.89 18.6092 5.91 19.5592 5.91C19.5592 5.41 19.5592 4.45 19.5892 3.97C18.6092 4 17.4892 4.01 16.3492 4.01V3.87V2.58ZM20.2052 0.499999C20.2152 0.779999 20.2152 1.21 20.2152 1.6C20.2152 1.97 20.2152 2.44 20.2052 2.74C20.8052 2.73 21.3952 2.72 21.9352 2.72C21.9352 5.14 21.9252 7.47 21.8952 8.01C22.2552 7.98 22.8052 7.98 23.2052 7.98C23.6052 7.98 24.1752 7.98 24.5252 8.01C24.4952 7.47 24.4852 5.13 24.4852 2.72C25.0252 2.72 25.6152 2.73 26.2052 2.74C26.1952 2.44 26.1952 1.97 26.1952 1.6C26.1952 1.21 26.1952 0.779999 26.2052 0.499999H20.2052ZM33.3109 6.37C32.9409 6.37 32.5309 6.37 32.0309 6.35C32.0209 5.89 32.0109 5.36 32.0109 4.82C32.4809 4.81 32.9109 4.8 33.2909 4.8C33.9809 4.8 34.2709 4.99 34.2709 5.57C34.2709 6.19 34.0009 6.37 33.3109 6.37ZM34.2109 2.7C34.2109 3.31 33.9209 3.56 33.2709 3.57C32.8909 3.57 32.4709 3.58 32.0109 3.56C32.0109 3 32.0109 2.46 32.0209 2.02C32.4809 2 32.9009 1.99 33.3009 1.99C33.9409 1.99 34.2109 2.17 34.2109 2.7ZM35.0309 4.18C35.3209 4.15 35.5609 4.1 35.7509 4.02C36.3909 3.75 36.6209 3.34 36.6209 2.48C36.6209 1.01 35.7109 0.499999 34.0709 0.499999H29.5909C29.6409 1.52 29.6409 2.66 29.6409 4.25C29.6409 5.84 29.6409 6.95 29.5909 8H34.1709C35.9509 8 36.7109 7.38 36.7109 6C36.7109 5.11 36.4309 4.59 35.6609 4.34C35.4909 4.28 35.2809 4.25 35.0309 4.23V4.18ZM37.7652 0.499999C37.7952 1.47 37.7952 2.66 37.7952 4.25C37.7952 5.85 37.7952 6.99 37.7652 8H43.7852C43.7652 7.75 43.7652 7.35 43.7652 7.05C43.7652 6.7 43.7652 6.26 43.7852 6.02C42.6452 6.03 41.2452 6.04 40.2352 6.04V4.95C41.4152 4.95 42.7152 4.96 43.6852 4.98C43.6852 4.58 43.6852 3.71 43.6952 3.34C42.7152 3.37 41.4252 3.37 40.2352 3.37V2.32C41.2352 2.32 42.5652 2.33 43.7852 2.34C43.7652 2.12 43.7652 1.69 43.7652 1.38C43.7652 1.09 43.7752 0.71 43.7852 0.499999H37.7652ZM48.3025 6.06C47.9825 6.06 47.7225 6.06 47.4325 6.04C47.4225 5.59 47.4225 5.03 47.4225 4.27C47.4225 3.62 47.4225 2.96 47.4425 2.35C47.7225 2.33 48.0125 2.32 48.3225 2.32C49.3125 2.32 49.7325 2.56 49.7325 4.14C49.7325 5.78 49.3025 6.06 48.3025 6.06ZM44.9625 0.499999C44.9825 1.48 44.9925 2.67 44.9925 4.26C44.9925 5.85 44.9825 6.95 44.9625 8H48.4525C51.1925 8 52.1925 7.05 52.1925 4.05C52.1925 1.25 51.0625 0.499999 48.5025 0.499999H44.9625ZM56.8149 4.12C56.3249 4.11 55.8849 4.11 55.6049 4.1C55.5949 3.48 55.5949 2.83 55.5949 2.18C55.9849 2.17 56.4749 2.16 56.6849 2.16C57.4349 2.16 57.7749 2.34 57.7749 3.14C57.7749 3.81 57.4749 4.12 56.8149 4.12ZM58.3949 4.96C59.6649 4.76 60.1649 4.13 60.1649 2.76C60.1649 1.18 59.1149 0.499999 57.2849 0.499999H53.1949C53.2249 1.58 53.2349 2.66 53.2349 4.25C53.2349 5.85 53.2149 6.91 53.1949 8H55.7249C55.6649 7.41 55.6349 6.58 55.6149 5.62C56.0949 5.61 56.3049 5.62 56.6649 5.62C57.2749 5.62 57.4149 5.84 57.6549 7.1C57.8249 7.87 57.8949 8 58.2649 8H60.4949C60.3949 7.66 60.2449 7.03 60.0849 6.46C59.8349 5.45 59.4249 5.15 58.3949 5.02V4.96ZM68.7313 4.12C68.7313 1.41 67.2613 0.359999 64.8313 0.359999C62.3913 0.359999 60.9613 1.41 60.9613 4.12C60.9613 6.83 62.2513 8.14 64.8213 8.14C67.3913 8.14 68.7313 6.83 68.7313 4.12ZM64.8313 6.12C63.9413 6.12 63.4713 5.52 63.4713 4.15C63.4713 2.8 63.9413 2.27 64.8313 2.27C65.7213 2.27 66.1813 2.82 66.1813 4.15C66.1813 5.5 65.7313 6.12 64.8313 6.12ZM77.2079 4.12C77.2079 1.41 75.7379 0.359999 73.3079 0.359999C70.8679 0.359999 69.4379 1.41 69.4379 4.12C69.4379 6.83 70.7279 8.14 73.2979 8.14C75.8679 8.14 77.2079 6.83 77.2079 4.12ZM73.3079 6.12C72.4179 6.12 71.9479 5.52 71.9479 4.15C71.9479 2.8 72.4179 2.27 73.3079 2.27C74.1979 2.27 74.6579 2.82 74.6579 4.15C74.6579 5.5 74.2079 6.12 73.3079 6.12ZM87.0845 8C87.0445 6.92 87.0345 5.83 87.0345 4.24C87.0345 2.6 87.0445 1.48 87.0745 0.499999H84.2045C83.9745 1.19 83.5645 2.38 83.1445 3.58C83.0345 3.92 82.9145 4.35 82.7945 4.78H82.7645C82.6545 4.35 82.5345 3.9 82.4345 3.57C81.9745 2.35 81.5945 1.2 81.3645 0.499999H78.2345C78.2545 1.48 78.2645 2.6 78.2645 4.24C78.2645 5.83 78.2545 6.92 78.2245 8H80.3145C80.2845 6.86 80.2645 5.95 80.2545 4.69C80.2445 4.14 80.2145 3.62 80.1945 3.08L80.2445 3.07C80.3945 3.61 80.5645 4.17 80.7145 4.59L82.0045 8H83.0645L84.3245 4.67C84.4645 4.26 84.6345 3.69 84.7845 3.12L84.8445 3.13C84.8145 3.67 84.7845 4.23 84.7845 4.72C84.7745 5.96 84.7545 6.84 84.7045 8H87.0845ZM28.2682 12.5C28.2982 13.22 28.2982 14.53 28.2982 16.25C28.2982 17.85 28.2682 19.39 28.2682 20H33.2182C33.2182 19.62 33.2082 19.25 33.2082 18.87C33.2082 18.5 33.2182 18.12 33.2182 17.75C32.4182 17.77 31.4982 17.78 30.8082 17.78C30.7982 17.31 30.7982 16.77 30.7982 16.24C30.8082 14.58 30.8282 13.06 30.8482 12.5H28.2682ZM36.5406 20C36.5206 18.91 36.5206 17.83 36.5206 16.24C36.5206 14.64 36.5206 13.56 36.5406 12.5H34.0006C34.0306 13.57 34.0306 14.65 34.0306 16.25C34.0306 17.84 34.0306 18.92 34.0006 20H36.5406ZM44.8485 15.82C44.1485 15.84 43.4585 15.83 42.9285 15.83C42.4485 15.83 41.8085 15.83 41.1685 15.82C41.1785 16.02 41.1785 16.28 41.1785 16.59C41.1785 16.75 41.1785 17.11 41.1685 17.26C41.5685 17.25 42.0885 17.24 42.5685 17.24C42.5085 18.04 42.1985 18.35 41.4485 18.35C40.3985 18.35 40.0385 17.71 40.0385 16.2C40.0385 14.6 40.4385 14.1 41.3785 14.1C42.0985 14.1 42.4685 14.37 42.4685 14.98C42.4685 15.05 42.4585 15.14 42.4585 15.22C42.7585 15.2 43.1985 15.2 43.6585 15.2C44.1085 15.2 44.5685 15.21 44.8985 15.22C44.9085 15.07 44.9085 14.94 44.9085 14.8C44.9085 13.46 44.0185 12.37 41.3885 12.37C38.7585 12.37 37.5285 13.58 37.5285 16.17C37.5285 18.77 38.7385 20.13 41.3585 20.13C44.5085 20.13 45.0385 18.69 44.8685 15.82H44.8485ZM50.8604 12.5C50.8804 13.2 50.8904 14.33 50.9004 15.23C50.5404 15.24 50.1404 15.25 49.7404 15.25C49.3404 15.25 48.9404 15.24 48.5804 15.23C48.5804 14.33 48.5904 13.2 48.6204 12.5H46.0904C46.1304 13.53 46.1304 14.66 46.1304 16.25C46.1304 17.84 46.1304 18.92 46.0904 20H48.6204C48.5904 19.27 48.5804 18.19 48.5804 17.32C48.9404 17.31 49.3404 17.31 49.7404 17.31C50.1404 17.31 50.5404 17.31 50.9004 17.32C50.8904 18.19 50.8804 19.28 50.8604 20H53.3904C53.3604 18.92 53.3504 17.84 53.3504 16.25C53.3504 14.66 53.3604 13.53 53.3904 12.5H50.8604ZM54.2139 12.5C54.2239 12.78 54.2239 13.21 54.2239 13.6C54.2239 13.97 54.2239 14.44 54.2139 14.74C54.8139 14.73 55.4039 14.72 55.9439 14.72C55.9439 17.14 55.9339 19.47 55.9039 20.01C56.2639 19.98 56.8139 19.98 57.2139 19.98C57.6139 19.98 58.1839 19.98 58.5339 20.01C58.5039 19.47 58.4939 17.13 58.4939 14.72C59.0339 14.72 59.6239 14.73 60.2139 14.74C60.2039 14.44 60.2039 13.97 60.2039 13.6C60.2039 13.21 60.2039 12.78 60.2139 12.5H54.2139Z" fill="black"/>
</svg>
