<svg width="63" height="10" viewBox="0 0 63 10" fill="none" xmlns="http://www.w3.org/2000/svg">
<path d="M0.463555 0.499999C0.503555 1.21 0.493555 2.37 0.493555 4.25C0.493555 5.85 0.463555 7.37 0.463555 8H5.00356V7.53V7.06C3.89355 7.08 2.52355 7.08 1.51355 7.08C1.50355 6.42 1.49355 5.25 1.49355 4.23C1.49355 2.46 1.51355 1.11 1.55355 0.499999H0.463555ZM8.70363 2.59C9.90363 2.59 10.4136 3.23 10.4136 4.25C10.4136 4.38 10.4136 4.52 10.4036 4.63C9.60363 4.65 7.72363 4.65 6.67363 4.63C6.78363 3.21 7.52363 2.59 8.70363 2.59ZM10.8736 6C10.6836 6 10.5436 5.99 10.4136 5.98C10.4136 6.82 10.0436 7.39 8.73363 7.39C7.45363 7.39 6.70363 6.68 6.65363 5.19C7.29363 5.2 8.09363 5.21 8.86363 5.21C10.0236 5.21 10.8536 5.2 11.2936 5.21C11.3136 4.97 11.3136 4.66 11.3136 4.34C11.3136 2.85 10.5936 1.86 8.74363 1.86C6.93363 1.86 5.74363 2.85 5.74363 5C5.74363 7.12 6.90363 8.13 8.72363 8.13C10.8636 8.13 11.3336 7.13 11.3036 5.98C11.1836 5.99 11.0536 6 10.8736 6ZM13.2205 2.82C13.2205 4.07 13.2105 5.29 13.2105 6.11C13.2105 7.29 13.8505 8.09 15.4705 8.09C16.1105 8.09 16.5605 7.99 17.0805 7.86C17.0405 7.62 16.9705 7.27 16.9405 6.98C16.5505 7.12 16.1005 7.22 15.5805 7.22C14.5505 7.22 14.1705 6.8 14.1705 6.01C14.1705 4.85 14.1705 3.79 14.1805 2.83C15.1305 2.83 16.1305 2.84 16.9505 2.86C16.9505 2.59 16.9605 2.25 16.9705 1.99C16.0205 2.01 15.0705 2.01 14.1905 2.01C14.2005 1.57 14.2005 1.14 14.2105 0.74C14.0605 0.75 13.8905 0.75 13.7305 0.75C13.5605 0.75 13.3805 0.74 13.2205 0.74C13.2205 1.15 13.2205 1.57 13.2205 2.01C12.9005 2 12.5905 2 12.3105 1.99C12.3205 2.25 12.3205 2.58 12.3205 2.82H13.2205ZM18.0095 0.499999C17.9495 1.2 17.6895 2.86 17.5495 3.53C17.7395 3.55 18.0695 3.62 18.2695 3.65C18.3995 3.05 18.7995 1.22 18.9695 0.499999C18.8295 0.51 18.6295 0.51 18.4895 0.51C18.3095 0.51 18.1495 0.51 18.0095 0.499999ZM22.5301 7.34C21.2201 7.34 20.6101 7.02 20.6101 6.19C20.6101 6.12 20.6101 6.04 20.6201 5.95C20.5101 5.96 20.3401 5.97 20.1801 5.97C19.9901 5.97 19.8301 5.96 19.7101 5.95C19.7101 6.07 19.7001 6.16 19.7001 6.27C19.7001 7.49 20.5201 8.13 22.5201 8.13C24.3701 8.13 25.2001 7.51 25.2001 6.38C25.2001 5.31 24.5901 4.78 22.7401 4.58C21.0901 4.41 20.7401 4.1 20.7401 3.54C20.7401 2.93 21.2601 2.62 22.4401 2.62C23.6801 2.62 24.1501 2.96 24.1501 3.69C24.1501 3.76 24.1501 3.89 24.1401 3.99C24.2301 3.98 24.3901 3.98 24.5701 3.98C24.7401 3.98 24.9201 3.98 25.0401 3.99C25.0501 3.84 25.0501 3.75 25.0501 3.6C25.0501 2.42 24.2501 1.85 22.4401 1.85C20.7201 1.85 19.8001 2.4 19.8001 3.53C19.8001 4.49 20.3401 5.09 22.1801 5.27C23.8601 5.44 24.2701 5.75 24.2701 6.36C24.2701 7.03 23.7801 7.34 22.5301 7.34ZM34.1664 4.06C34.1664 4.84 33.6064 5.32 32.2964 5.32C30.9864 5.32 30.4364 4.83 30.4364 4.04C30.4364 3.29 30.9864 2.7 32.2964 2.7C33.6264 2.7 34.1664 3.26 34.1664 4.06ZM33.6464 7.51C34.3464 7.51 34.6364 7.64 34.6364 8.04C34.6364 8.59 33.9364 8.85 32.3564 8.85C30.6164 8.85 30.1864 8.62 30.1864 8.17C30.1864 7.94 30.3564 7.74 30.6764 7.56C30.7964 7.57 30.9364 7.58 31.0864 7.58C31.8064 7.58 32.8764 7.51 33.6464 7.51ZM35.6364 2C34.2964 2 32.4964 1.98 32.2764 1.98C30.5364 1.98 29.5764 2.74 29.5764 4.03C29.5764 4.83 29.9164 5.43 30.6764 5.75V5.76C30.2064 5.96 29.7564 6.32 29.7564 6.82C29.7564 7.11 29.8864 7.35 30.2864 7.48V7.49C29.6464 7.68 29.2764 7.99 29.2764 8.45C29.2764 9.06 29.6464 9.52 32.3264 9.52C34.8364 9.52 35.5364 8.93 35.5364 8.04C35.5364 7.16 34.9764 6.83 33.8464 6.83C33.1464 6.83 32.2764 6.91 31.2264 6.91C30.8764 6.91 30.6564 6.8 30.6564 6.54C30.6564 6.33 30.7864 6.09 31.0564 5.88C31.3964 5.96 31.8064 6.01 32.2764 6.01C34.2064 6.01 35.0264 5.3 35.0264 4.28C35.0264 3.48 34.6964 3.01 33.8164 2.76V2.7C34.4764 2.73 35.2064 2.77 35.6364 2.77V2ZM39.4458 2.59C40.6458 2.59 41.1558 3.23 41.1558 4.25C41.1558 4.38 41.1558 4.52 41.1458 4.63C40.3458 4.65 38.4658 4.65 37.4158 4.63C37.5258 3.21 38.2658 2.59 39.4458 2.59ZM41.6158 6C41.4258 6 41.2858 5.99 41.1558 5.98C41.1558 6.82 40.7858 7.39 39.4758 7.39C38.1958 7.39 37.4458 6.68 37.3958 5.19C38.0358 5.2 38.8358 5.21 39.6058 5.21C40.7658 5.21 41.5958 5.2 42.0358 5.21C42.0558 4.97 42.0558 4.66 42.0558 4.34C42.0558 2.85 41.3358 1.86 39.4858 1.86C37.6758 1.86 36.4858 2.85 36.4858 5C36.4858 7.12 37.6458 8.13 39.4658 8.13C41.6058 8.13 42.0758 7.13 42.0458 5.98C41.9258 5.99 41.7958 6 41.6158 6ZM43.9627 2.82C43.9627 4.07 43.9527 5.29 43.9527 6.11C43.9527 7.29 44.5927 8.09 46.2127 8.09C46.8527 8.09 47.3027 7.99 47.8227 7.86C47.7827 7.62 47.7127 7.27 47.6827 6.98C47.2927 7.12 46.8427 7.22 46.3227 7.22C45.2927 7.22 44.9127 6.8 44.9127 6.01C44.9127 4.85 44.9127 3.79 44.9227 2.83C45.8727 2.83 46.8727 2.84 47.6927 2.86C47.6927 2.59 47.7027 2.25 47.7127 1.99C46.7627 2.01 45.8127 2.01 44.9327 2.01C44.9427 1.57 44.9427 1.14 44.9527 0.74C44.8027 0.75 44.6327 0.75 44.4727 0.75C44.3027 0.75 44.1227 0.74 43.9627 0.74C43.9627 1.15 43.9627 1.57 43.9627 2.01C43.6427 2 43.3327 2 43.0527 1.99C43.0627 2.25 43.0627 2.58 43.0627 2.82H43.9627ZM53.2081 8C53.1781 6.74 53.1881 5.61 53.1881 4.19C53.1881 2.55 53.1781 1.52 53.2081 0.26H52.1981C52.2281 1.55 52.2281 2.58 52.2281 4.15C52.2281 5.5 52.2281 6.77 52.1981 8H53.2081ZM56.3499 0.86C56.3499 0.589999 56.1899 0.409999 55.6399 0.409999C55.0899 0.409999 54.9399 0.589999 54.9399 0.86C54.9399 1.11 55.0799 1.33 55.6399 1.33C56.2099 1.33 56.3499 1.11 56.3499 0.86ZM56.1499 8C56.1099 7 56.1099 6.23 56.1099 4.92C56.1099 3.69 56.1099 2.93 56.1499 1.99H55.1299C55.1599 2.93 55.1599 3.7 55.1599 4.89C55.1599 6.15 55.1599 7 55.1299 8H56.1499ZM58.3475 2.82C58.3475 4.07 58.3375 5.29 58.3375 6.11C58.3375 7.29 58.9775 8.09 60.5975 8.09C61.2375 8.09 61.6875 7.99 62.2075 7.86C62.1675 7.62 62.0975 7.27 62.0675 6.98C61.6775 7.12 61.2275 7.22 60.7075 7.22C59.6775 7.22 59.2975 6.8 59.2975 6.01C59.2975 4.85 59.2975 3.79 59.3075 2.83C60.2575 2.83 61.2575 2.84 62.0775 2.86C62.0775 2.59 62.0875 2.25 62.0975 1.99C61.1475 2.01 60.1975 2.01 59.3175 2.01C59.3275 1.57 59.3275 1.14 59.3375 0.74C59.1875 0.75 59.0175 0.75 58.8575 0.75C58.6875 0.75 58.5075 0.74 58.3475 0.74C58.3475 1.15 58.3475 1.57 58.3475 2.01C58.0275 2 57.7175 2 57.4375 1.99C57.4475 2.25 57.4475 2.58 57.4475 2.82H58.3475Z" fill="white"/>
</svg>
