<svg width="86" height="9" viewBox="0 0 86 9" fill="none" xmlns="http://www.w3.org/2000/svg">
<path d="M2.65069 6.432C1.45069 6.432 0.906688 6.016 0.906688 5.184C0.906688 5.12 0.914688 5.024 0.922688 4.936C0.810688 4.944 0.666688 4.952 0.498688 4.952C0.354688 4.952 0.218688 4.944 0.114688 4.928C0.106688 5.072 0.0986875 5.176 0.0986875 5.32C0.0986875 6.472 0.906688 7.104 2.65869 7.104C4.24269 7.104 5.05069 6.488 5.05069 5.384C5.05069 4.368 4.45069 3.856 2.77069 3.616C1.25069 3.416 1.01069 3.016 1.01069 2.504C1.01069 1.88 1.49869 1.568 2.49869 1.568C3.67469 1.568 4.14669 1.992 4.14669 2.688C4.14669 2.776 4.14669 2.912 4.13869 3.032C4.22669 3.032 4.37869 3.024 4.52269 3.024C4.66669 3.024 4.80269 3.032 4.89869 3.032C4.90669 2.872 4.90669 2.768 4.90669 2.608C4.90669 1.528 4.19469 0.896 2.51469 0.896C1.00269 0.896 0.202688 1.488 0.202688 2.512C0.202688 3.488 0.762688 4.04 2.41869 4.256C3.89069 4.448 4.27469 4.792 4.27469 5.408C4.27469 6.072 3.80269 6.432 2.65069 6.432ZM7.39319 1.288C7.39319 1.072 7.26519 0.927999 6.82519 0.927999C6.38519 0.927999 6.26519 1.072 6.26519 1.288C6.26519 1.488 6.37719 1.664 6.82519 1.664C7.28119 1.664 7.39319 1.488 7.39319 1.288ZM7.23319 7C7.20119 6.2 7.20119 5.584 7.20119 4.536C7.20119 3.552 7.20119 2.944 7.23319 2.192H6.41719C6.44119 2.944 6.44119 3.56 6.44119 4.512C6.44119 5.52 6.44119 6.2 6.41719 7H7.23319ZM12.2793 3.848C12.2793 4.472 11.8313 4.856 10.7833 4.856C9.73525 4.856 9.29525 4.464 9.29525 3.832C9.29525 3.232 9.73525 2.76 10.7833 2.76C11.8473 2.76 12.2793 3.208 12.2793 3.848ZM11.8633 6.608C12.4233 6.608 12.6553 6.712 12.6553 7.032C12.6553 7.472 12.0953 7.68 10.8313 7.68C9.43925 7.68 9.09525 7.496 9.09525 7.136C9.09525 6.952 9.23125 6.792 9.48725 6.648C9.58325 6.656 9.69525 6.664 9.81525 6.664C10.3913 6.664 11.2473 6.608 11.8633 6.608ZM13.4553 2.2C12.3833 2.2 10.9433 2.184 10.7673 2.184C9.37525 2.184 8.60725 2.792 8.60725 3.824C8.60725 4.464 8.87925 4.944 9.48725 5.2V5.208C9.11125 5.368 8.75125 5.656 8.75125 6.056C8.75125 6.288 8.85525 6.48 9.17525 6.584V6.592C8.66325 6.744 8.36725 6.992 8.36725 7.36C8.36725 7.848 8.66325 8.216 10.8073 8.216C12.8153 8.216 13.3753 7.744 13.3753 7.032C13.3753 6.328 12.9273 6.064 12.0233 6.064C11.4633 6.064 10.7673 6.128 9.92725 6.128C9.64725 6.128 9.47125 6.04 9.47125 5.832C9.47125 5.664 9.57525 5.472 9.79125 5.304C10.0633 5.368 10.3913 5.408 10.7673 5.408C12.3113 5.408 12.9673 4.84 12.9673 4.024C12.9673 3.384 12.7033 3.008 11.9993 2.808V2.76C12.5273 2.784 13.1113 2.816 13.4553 2.816V2.2ZM18.9828 7C18.9668 6.504 18.9588 6.016 18.9588 5.472C18.9588 4.992 18.9748 4.728 18.9748 3.936C18.9748 2.728 18.3588 2.112 17.1828 2.112C16.2628 2.112 15.6068 2.448 15.2948 3.096L15.2468 3.088C15.2548 2.768 15.2548 2.512 15.2628 2.192H14.4548C14.4708 2.816 14.4788 3.624 14.4788 4.68C14.4788 5.704 14.4708 6.352 14.4548 7H15.2628C15.2548 6.512 15.2468 5.912 15.2468 4.24C15.2468 3.232 15.9668 2.776 16.8708 2.776C17.8228 2.776 18.1908 3.24 18.1908 4.088C18.1908 5.376 18.1828 6.248 18.1668 7H18.9828ZM23.8854 1.288C23.8854 1.072 23.7574 0.927999 23.3174 0.927999C22.8774 0.927999 22.7574 1.072 22.7574 1.288C22.7574 1.488 22.8694 1.664 23.3174 1.664C23.7734 1.664 23.8854 1.488 23.8854 1.288ZM23.7254 7C23.6934 6.2 23.6934 5.584 23.6934 4.536C23.6934 3.552 23.6934 2.944 23.7254 2.192H22.9094C22.9334 2.944 22.9334 3.56 22.9334 4.512C22.9334 5.52 22.9334 6.2 22.9094 7H23.7254ZM29.7874 7C29.7714 6.504 29.7634 6.016 29.7634 5.472C29.7634 4.992 29.7794 4.728 29.7794 3.936C29.7794 2.728 29.1634 2.112 27.9874 2.112C27.0674 2.112 26.4114 2.448 26.0994 3.096L26.0514 3.088C26.0594 2.768 26.0594 2.512 26.0674 2.192H25.2594C25.2754 2.816 25.2834 3.624 25.2834 4.68C25.2834 5.704 25.2754 6.352 25.2594 7H26.0674C26.0594 6.512 26.0514 5.912 26.0514 4.24C26.0514 3.232 26.7714 2.776 27.6754 2.776C28.6274 2.776 28.9954 3.24 28.9954 4.088C28.9954 5.376 28.9874 6.248 28.9714 7H29.7874ZM33.8741 2.856C33.8741 3.856 33.8661 4.832 33.8661 5.488C33.8661 6.432 34.3781 7.072 35.6741 7.072C36.1861 7.072 36.5461 6.992 36.9621 6.888C36.9301 6.696 36.8741 6.416 36.8501 6.184C36.5381 6.296 36.1781 6.376 35.7621 6.376C34.9381 6.376 34.6341 6.04 34.6341 5.408C34.6341 4.48 34.6341 3.632 34.6421 2.864C35.4021 2.864 36.2021 2.872 36.8581 2.888C36.8581 2.672 36.8661 2.4 36.8741 2.192C36.1141 2.208 35.3541 2.208 34.6501 2.208C34.6581 1.856 34.6581 1.512 34.6661 1.192C34.5461 1.2 34.4101 1.2 34.2821 1.2C34.1461 1.2 34.0021 1.192 33.8741 1.192C33.8741 1.52 33.8741 1.856 33.8741 2.208C33.6181 2.2 33.3701 2.2 33.1461 2.192C33.1541 2.4 33.1541 2.664 33.1541 2.856H33.8741ZM41.5981 4.56C41.5981 5.784 40.9101 6.432 39.9101 6.432C38.9261 6.432 38.2301 5.792 38.2301 4.56C38.2301 3.32 38.9421 2.768 39.9101 2.768C40.8861 2.768 41.5981 3.328 41.5981 4.56ZM42.3581 4.536C42.3581 2.904 41.2941 2.088 39.9101 2.088C38.5261 2.088 37.4781 2.904 37.4781 4.536C37.4781 6.168 38.4781 7.104 39.9101 7.104C41.3501 7.104 42.3581 6.168 42.3581 4.536ZM49.5151 5.208C49.5151 5.92 49.0911 6.424 48.0751 6.424C47.0351 6.424 46.3631 5.864 46.3631 4.576C46.3631 3.296 47.0351 2.76 48.0671 2.76C49.0751 2.76 49.4991 3.176 49.5071 3.944V4.064C49.5871 4.064 49.7151 4.056 49.8591 4.056C49.9951 4.056 50.1391 4.064 50.2271 4.064V3.912C50.2271 2.72 49.4671 2.08 48.0831 2.08C46.5871 2.08 45.6111 2.912 45.6111 4.576C45.6111 6.248 46.5871 7.104 48.0431 7.104C49.6911 7.104 50.2591 6.264 50.2591 5.224C50.2591 5.168 50.2591 5.136 50.2511 5.096C50.1471 5.104 50.0111 5.104 49.8751 5.104C49.7391 5.104 49.6191 5.104 49.5151 5.096V5.208ZM55.2387 4.56C55.2387 5.784 54.5508 6.432 53.5508 6.432C52.5668 6.432 51.8708 5.792 51.8708 4.56C51.8708 3.32 52.5828 2.768 53.5508 2.768C54.5268 2.768 55.2387 3.328 55.2387 4.56ZM55.9988 4.536C55.9988 2.904 54.9348 2.088 53.5508 2.088C52.1668 2.088 51.1188 2.904 51.1188 4.536C51.1188 6.168 52.1188 7.104 53.5508 7.104C54.9908 7.104 55.9988 6.168 55.9988 4.536ZM61.6546 7C61.6386 6.504 61.6306 6.016 61.6306 5.472C61.6306 4.992 61.6466 4.728 61.6466 3.936C61.6466 2.728 61.0306 2.112 59.8546 2.112C58.9346 2.112 58.2786 2.448 57.9666 3.096L57.9186 3.088C57.9266 2.768 57.9266 2.512 57.9346 2.192H57.1266C57.1426 2.816 57.1506 3.624 57.1506 4.68C57.1506 5.704 57.1426 6.352 57.1266 7H57.9346C57.9266 6.512 57.9186 5.912 57.9186 4.24C57.9186 3.232 58.6386 2.776 59.5426 2.776C60.4946 2.776 60.8626 3.24 60.8626 4.088C60.8626 5.376 60.8546 6.248 60.8386 7H61.6546ZM63.2881 2.856C63.2881 3.856 63.2801 4.832 63.2801 5.488C63.2801 6.432 63.7921 7.072 65.0881 7.072C65.6001 7.072 65.9601 6.992 66.3761 6.888C66.3441 6.696 66.2881 6.416 66.2641 6.184C65.9521 6.296 65.5921 6.376 65.1761 6.376C64.3521 6.376 64.0481 6.04 64.0481 5.408C64.0481 4.48 64.0481 3.632 64.0561 2.864C64.8161 2.864 65.6161 2.872 66.2721 2.888C66.2721 2.672 66.2801 2.4 66.2881 2.192C65.5281 2.208 64.7681 2.208 64.0641 2.208C64.0721 1.856 64.0721 1.512 64.0801 1.192C63.9601 1.2 63.8241 1.2 63.6961 1.2C63.5601 1.2 63.4161 1.192 63.2881 1.192C63.2881 1.52 63.2881 1.856 63.2881 2.208C63.0321 2.2 62.7841 2.2 62.5601 2.192C62.5681 2.4 62.5681 2.664 62.5681 2.856H63.2881ZM68.4713 1.288C68.4713 1.072 68.3433 0.927999 67.9033 0.927999C67.4633 0.927999 67.3433 1.072 67.3433 1.288C67.3433 1.488 67.4553 1.664 67.9033 1.664C68.3593 1.664 68.4713 1.488 68.4713 1.288ZM68.3113 7C68.2793 6.2 68.2793 5.584 68.2793 4.536C68.2793 3.552 68.2793 2.944 68.3113 2.192H67.4953C67.5193 2.944 67.5193 3.56 67.5193 4.512C67.5193 5.52 67.5193 6.2 67.4953 7H68.3113ZM74.3734 7C74.3574 6.504 74.3494 6.016 74.3494 5.472C74.3494 4.992 74.3654 4.728 74.3654 3.936C74.3654 2.728 73.7494 2.112 72.5734 2.112C71.6534 2.112 70.9974 2.448 70.6854 3.096L70.6374 3.088C70.6454 2.768 70.6454 2.512 70.6534 2.192H69.8454C69.8614 2.816 69.8694 3.624 69.8694 4.68C69.8694 5.704 69.8614 6.352 69.8454 7H70.6534C70.6454 6.512 70.6374 5.912 70.6374 4.24C70.6374 3.232 71.3574 2.776 72.2614 2.776C73.2134 2.776 73.5814 3.24 73.5814 4.088C73.5814 5.376 73.5734 6.248 73.5574 7H74.3734ZM79.4709 2.192C79.4789 2.688 79.4869 3.288 79.4869 4.968C79.4869 5.984 78.7589 6.448 77.8629 6.448C76.9189 6.448 76.5429 5.992 76.5429 5.144C76.5429 3.848 76.5509 2.952 76.5669 2.192H75.7509C75.7669 2.688 75.7749 3.176 75.7749 3.72C75.7749 4.216 75.7589 4.496 75.7589 5.304C75.7589 6.456 76.3909 7.08 77.5589 7.08C78.4869 7.08 79.1349 6.744 79.4469 6.096L79.4869 6.104C79.4709 6.424 79.4629 6.68 79.4549 7H80.2789C80.2629 6.368 80.2549 5.568 80.2549 4.52C80.2549 3.48 80.2629 2.84 80.2789 2.192H79.4709ZM83.7918 2.672C84.7518 2.672 85.1598 3.184 85.1598 4C85.1598 4.104 85.1598 4.216 85.1518 4.304C84.5118 4.32 83.0078 4.32 82.1678 4.304C82.2558 3.168 82.8478 2.672 83.7918 2.672ZM85.5278 5.4C85.3758 5.4 85.2638 5.392 85.1598 5.384C85.1598 6.056 84.8638 6.512 83.8158 6.512C82.7918 6.512 82.1918 5.944 82.1518 4.752C82.6638 4.76 83.3038 4.768 83.9198 4.768C84.8478 4.768 85.5118 4.76 85.8638 4.768C85.8798 4.576 85.8798 4.328 85.8798 4.072C85.8798 2.88 85.3038 2.088 83.8238 2.088C82.3758 2.088 81.4238 2.88 81.4238 4.6C81.4238 6.296 82.3518 7.104 83.8078 7.104C85.5198 7.104 85.8958 6.304 85.8718 5.384C85.7758 5.392 85.6718 5.4 85.5278 5.4Z" fill="white"/>
</svg>
