<svg width="290" height="42" viewBox="0 0 290 42" fill="none" xmlns="http://www.w3.org/2000/svg">
<path d="M4.9568 11.1C4.4968 11.14 3.8568 11.14 3.1768 11.14C2.2368 11.14 1.2368 11.08 0.576797 11.02C0.536797 11.38 0.536797 11.74 0.536797 12.08C0.536797 14.86 2.2368 16.28 7.4368 16.28C12.2768 16.28 14.1168 14.58 14.1168 11.66C14.1168 8.74 12.6768 7.44 8.5768 6.82C5.7568 6.4 5.4368 5.8 5.4368 5.08C5.4368 4.44 5.8968 4.02 7.3568 4.02C9.2568 4.02 9.6968 4.54 9.6968 5.34C9.6968 5.46 9.6968 5.6 9.6768 5.74C10.0968 5.72 10.7568 5.72 11.4368 5.72C12.2968 5.72 13.2768 5.74 13.8768 5.78C13.8968 5.46 13.9168 5.16 13.9168 4.88C13.9168 2.2 12.3368 0.719999 7.2168 0.719999C2.6168 0.719999 0.576797 2.4 0.576797 5.24C0.576797 7.84 1.6968 9.38 6.2768 10C8.8768 10.36 9.3368 10.94 9.3368 11.8C9.3368 12.54 8.8768 12.94 7.1968 12.94C5.4768 12.94 4.9568 12.52 4.9568 11.38V11.1ZM22.681 10.06H20.981C21.321 8.62 21.661 7.14 21.961 5.84C22.261 4.76 22.481 3.8 22.661 3.08H22.721C22.881 3.8 23.101 4.78 23.401 5.8C23.741 7.1 24.081 8.6 24.401 10.06H22.681ZM31.121 16C29.821 12.18 27.381 3.1 26.821 0.999999H18.801C18.301 3.08 15.881 12.24 14.661 16H19.781C19.861 15.4 20.061 14.38 20.321 13.14C21.201 13.14 22.061 13.14 22.681 13.14C23.341 13.14 24.181 13.14 25.041 13.14C25.301 14.42 25.461 15.46 25.521 16H31.121ZM39.6945 0.999999C39.4945 1.78 38.7745 3.92 38.1945 5.72C37.9145 6.6 37.6945 7.46 37.5145 8.14H37.3545C37.1745 7.44 36.9345 6.56 36.6745 5.64C36.1545 3.88 35.5145 1.78 35.2745 0.999999H29.8345C31.0345 3.22 33.6145 9.24 34.4145 11.42C34.4145 13.68 34.3745 15.38 34.3145 16.02C35.0945 15.98 36.2745 15.98 37.1945 15.98C38.0945 15.98 39.2745 15.98 40.0345 16.02C40.0145 15.38 39.9745 13.72 39.9545 11.48C40.7545 9.42 43.3145 3.38 44.5345 0.999999H39.6945ZM60.5568 0.999999C60.5968 2.4 60.6168 4.66 60.6368 6.46C59.9168 6.48 59.1168 6.5 58.3168 6.5C57.5168 6.5 56.7168 6.48 55.9968 6.46C55.9968 4.66 56.0168 2.4 56.0768 0.999999H51.0168C51.0968 3.06 51.0968 5.32 51.0968 8.5C51.0968 11.68 51.0968 13.84 51.0168 16H56.0768C56.0168 14.54 55.9968 12.38 55.9968 10.64C56.7168 10.62 57.5168 10.62 58.3168 10.62C59.1168 10.62 59.9168 10.62 60.6368 10.64C60.6168 12.38 60.5968 14.56 60.5568 16H65.6168C65.5568 13.84 65.5368 11.68 65.5368 8.5C65.5368 5.32 65.5568 3.06 65.6168 0.999999H60.5568ZM68.2238 0.999999C68.2838 2.94 68.2838 5.32 68.2838 8.5C68.2838 11.7 68.2838 13.98 68.2238 16H80.2638C80.2238 15.5 80.2238 14.7 80.2238 14.1C80.2238 13.4 80.2238 12.52 80.2638 12.04C77.9838 12.06 75.1838 12.08 73.1638 12.08V9.9C75.5238 9.9 78.1238 9.92 80.0638 9.96C80.0638 9.16 80.0638 7.42 80.0838 6.68C78.1238 6.74 75.5438 6.74 73.1638 6.74V4.64C75.1638 4.64 77.8238 4.66 80.2638 4.68C80.2238 4.24 80.2238 3.38 80.2238 2.76C80.2238 2.18 80.2438 1.42 80.2638 0.999999H68.2238ZM82.6184 0.999999C82.6784 2.44 82.6784 5.06 82.6784 8.5C82.6784 11.7 82.6184 14.78 82.6184 16H92.5184C92.5184 15.24 92.4984 14.5 92.4984 13.74C92.4984 13 92.5184 12.24 92.5184 11.5C90.9184 11.54 89.0784 11.56 87.6984 11.56C87.6784 10.62 87.6784 9.54 87.6784 8.48C87.6984 5.16 87.7384 2.12 87.7784 0.999999H82.6184ZM94.0832 0.999999C94.1432 2.44 94.1432 5.06 94.1432 8.5C94.1432 11.7 94.0832 14.78 94.0832 16H103.983C103.983 15.24 103.963 14.5 103.963 13.74C103.963 13 103.983 12.24 103.983 11.5C102.383 11.54 100.543 11.56 99.1632 11.56C99.1432 10.62 99.1432 9.54 99.1432 8.48C99.1632 5.16 99.2032 2.12 99.2432 0.999999H94.0832ZM120.234 8.24C120.234 2.82 117.294 0.719999 112.434 0.719999C107.554 0.719999 104.694 2.82 104.694 8.24C104.694 13.66 107.274 16.28 112.414 16.28C117.554 16.28 120.234 13.66 120.234 8.24ZM112.434 12.24C110.654 12.24 109.714 11.04 109.714 8.3C109.714 5.6 110.654 4.54 112.434 4.54C114.214 4.54 115.134 5.64 115.134 8.3C115.134 11 114.234 12.24 112.434 12.24ZM126.463 0.999999C126.483 1.56 126.483 2.42 126.483 3.2C126.483 3.94 126.483 4.88 126.463 5.48C127.663 5.46 128.843 5.44 129.923 5.44C129.923 10.28 129.903 14.94 129.843 16.02C130.563 15.96 131.663 15.96 132.463 15.96C133.263 15.96 134.403 15.96 135.103 16.02C135.043 14.94 135.023 10.26 135.023 5.44C136.103 5.44 137.283 5.46 138.463 5.48C138.443 4.88 138.443 3.94 138.443 3.2C138.443 2.42 138.443 1.56 138.463 0.999999H126.463ZM154.922 8.24C154.922 2.82 151.982 0.719999 147.122 0.719999C142.242 0.719999 139.382 2.82 139.382 8.24C139.382 13.66 141.962 16.28 147.102 16.28C152.242 16.28 154.922 13.66 154.922 8.24ZM147.122 12.24C145.342 12.24 144.402 11.04 144.402 8.3C144.402 5.6 145.342 4.54 147.122 4.54C148.902 4.54 149.822 5.64 149.822 8.3C149.822 11 148.922 12.24 147.122 12.24ZM176.131 7.64C174.731 7.68 173.351 7.66 172.291 7.66C171.331 7.66 170.051 7.66 168.771 7.64C168.791 8.04 168.791 8.56 168.791 9.18C168.791 9.5 168.791 10.22 168.771 10.52C169.571 10.5 170.611 10.48 171.571 10.48C171.451 12.08 170.831 12.7 169.331 12.7C167.231 12.7 166.511 11.42 166.511 8.4C166.511 5.2 167.311 4.2 169.191 4.2C170.631 4.2 171.371 4.74 171.371 5.96C171.371 6.1 171.351 6.28 171.351 6.44C171.951 6.4 172.831 6.4 173.751 6.4C174.651 6.4 175.571 6.42 176.231 6.44C176.251 6.14 176.251 5.88 176.251 5.6C176.251 2.92 174.471 0.74 169.211 0.74C163.951 0.74 161.491 3.16 161.491 8.34C161.491 13.54 163.911 16.26 169.151 16.26C175.451 16.26 176.511 13.38 176.171 7.64H176.131ZM193.554 8.24C193.554 2.82 190.614 0.719999 185.754 0.719999C180.874 0.719999 178.014 2.82 178.014 8.24C178.014 13.66 180.594 16.28 185.734 16.28C190.874 16.28 193.554 13.66 193.554 8.24ZM185.754 12.24C183.974 12.24 183.034 11.04 183.034 8.3C183.034 5.6 183.974 4.54 185.754 4.54C187.534 4.54 188.454 5.64 188.454 8.3C188.454 11 187.554 12.24 185.754 12.24ZM202.808 8.24C201.828 8.22 200.948 8.22 200.388 8.2C200.368 6.96 200.368 5.66 200.368 4.36C201.148 4.34 202.128 4.32 202.548 4.32C204.048 4.32 204.728 4.68 204.728 6.28C204.728 7.62 204.128 8.24 202.808 8.24ZM205.968 9.92C208.508 9.52 209.508 8.26 209.508 5.52C209.508 2.36 207.408 0.999999 203.748 0.999999H195.568C195.628 3.16 195.648 5.32 195.648 8.5C195.648 11.7 195.608 13.82 195.568 16H200.628C200.508 14.82 200.448 13.16 200.408 11.24C201.368 11.22 201.788 11.24 202.508 11.24C203.728 11.24 204.008 11.68 204.488 14.2C204.828 15.74 204.968 16 205.708 16H210.168C209.968 15.32 209.668 14.06 209.348 12.92C208.848 10.9 208.028 10.3 205.968 10.04V9.92ZM225.72 7.64C224.32 7.68 222.94 7.66 221.88 7.66C220.92 7.66 219.64 7.66 218.36 7.64C218.38 8.04 218.38 8.56 218.38 9.18C218.38 9.5 218.38 10.22 218.36 10.52C219.16 10.5 220.2 10.48 221.16 10.48C221.04 12.08 220.42 12.7 218.92 12.7C216.82 12.7 216.1 11.42 216.1 8.4C216.1 5.2 216.9 4.2 218.78 4.2C220.22 4.2 220.96 4.74 220.96 5.96C220.96 6.1 220.94 6.28 220.94 6.44C221.54 6.4 222.42 6.4 223.34 6.4C224.24 6.4 225.16 6.42 225.82 6.44C225.84 6.14 225.84 5.88 225.84 5.6C225.84 2.92 224.06 0.74 218.8 0.74C213.54 0.74 211.08 3.16 211.08 8.34C211.08 13.54 213.5 16.26 218.74 16.26C225.04 16.26 226.1 13.38 225.76 7.64H225.72ZM228.204 0.999999C228.264 2.94 228.264 5.32 228.264 8.5C228.264 11.7 228.264 13.98 228.204 16H240.244C240.204 15.5 240.204 14.7 240.204 14.1C240.204 13.4 240.204 12.52 240.244 12.04C237.964 12.06 235.164 12.08 233.144 12.08V9.9C235.504 9.9 238.104 9.92 240.044 9.96C240.044 9.16 240.044 7.42 240.064 6.68C238.104 6.74 235.524 6.74 233.144 6.74V4.64C235.144 4.64 237.804 4.66 240.244 4.68C240.204 4.24 240.204 3.38 240.204 2.76C240.204 2.18 240.224 1.42 240.244 0.999999H228.204ZM257.539 8.24C257.539 2.82 254.599 0.719999 249.739 0.719999C244.859 0.719999 241.999 2.82 241.999 8.24C241.999 13.66 244.579 16.28 249.719 16.28C254.859 16.28 257.539 13.66 257.539 8.24ZM249.739 12.24C247.959 12.24 247.019 11.04 247.019 8.3C247.019 5.6 247.959 4.54 249.739 4.54C251.519 4.54 252.439 5.64 252.439 8.3C252.439 11 251.539 12.24 249.739 12.24ZM269.032 0.999999C269.072 3.36 269.112 7.36 269.112 9.64C269.112 11.4 268.492 12.16 266.892 12.16C265.232 12.16 264.512 11.4 264.512 9.64C264.512 7.36 264.532 3.36 264.612 0.999999H259.512C259.552 2.3 259.592 3.58 259.592 5.52C259.592 6.72 259.552 8.6 259.552 10C259.552 14.04 261.392 16.28 266.772 16.28C272.152 16.28 273.972 14.04 273.972 10C273.972 8.6 273.932 6.72 273.932 5.52C273.932 3.58 273.972 2.3 274.012 0.999999H269.032ZM280.484 11.1C280.024 11.14 279.384 11.14 278.704 11.14C277.764 11.14 276.764 11.08 276.104 11.02C276.064 11.38 276.064 11.74 276.064 12.08C276.064 14.86 277.764 16.28 282.964 16.28C287.804 16.28 289.644 14.58 289.644 11.66C289.644 8.74 288.204 7.44 284.104 6.82C281.284 6.4 280.964 5.8 280.964 5.08C280.964 4.44 281.424 4.02 282.884 4.02C284.784 4.02 285.224 4.54 285.224 5.34C285.224 5.46 285.224 5.6 285.204 5.74C285.624 5.72 286.284 5.72 286.964 5.72C287.824 5.72 288.804 5.74 289.404 5.78C289.424 5.46 289.444 5.16 289.444 4.88C289.444 2.2 287.864 0.719999 282.744 0.719999C278.144 0.719999 276.104 2.4 276.104 5.24C276.104 7.84 277.224 9.38 281.804 10C284.404 10.36 284.864 10.94 284.864 11.8C284.864 12.54 284.404 12.94 282.724 12.94C281.004 12.94 280.484 12.52 280.484 11.38V11.1ZM74.0388 26C73.8988 27.46 73.3388 31.38 72.8988 34.34C72.7188 35.32 72.6188 36.18 72.5188 36.9H72.3988C72.2988 36.2 72.1788 35.34 71.9988 34.34C71.4788 31.36 70.9988 27.32 70.8588 26C70.1988 26.02 69.0188 26.02 68.2188 26.02C67.4188 26.02 66.0188 26.02 65.3188 26C65.2188 27.44 64.5588 31.38 64.1188 34.26C63.9588 35.2 63.8188 36.08 63.6988 36.82H63.5788C63.4588 36.1 63.3388 35.2 63.1988 34.3C62.7588 31.38 62.1788 27.1 62.0988 26H56.8188C57.7588 29.5 59.4588 38.52 59.9988 41C60.4588 40.98 61.3188 40.96 62.7788 40.96C63.8588 40.96 65.0388 41 65.6988 41C65.9188 39.7 66.4388 36.88 66.8788 34.4C67.0788 33.3 67.2388 31.96 67.3988 30.78H67.4988C67.6388 31.94 67.7788 33.24 67.9388 34.36C68.3588 36.94 68.8188 39.82 69.0188 41C69.4988 40.98 70.6388 40.96 72.1988 40.96C73.3188 40.96 74.2988 40.98 74.9988 41C75.4388 38.82 77.2787 29.48 78.1588 26H74.0388ZM85.5814 35.06H83.8814C84.2214 33.62 84.5614 32.14 84.8614 30.84C85.1614 29.76 85.3814 28.8 85.5614 28.08H85.6214C85.7814 28.8 86.0014 29.78 86.3014 30.8C86.6414 32.1 86.9814 33.6 87.3014 35.06H85.5814ZM94.0214 41C92.7214 37.18 90.2814 28.1 89.7214 26H81.7014C81.2014 28.08 78.7814 37.24 77.5614 41H82.6814C82.7614 40.4 82.9614 39.38 83.2214 38.14C84.1014 38.14 84.9614 38.14 85.5814 38.14C86.2414 38.14 87.0814 38.14 87.9414 38.14C88.2014 39.42 88.3614 40.46 88.4214 41H94.0214ZM95.2648 26C95.3248 27.44 95.3248 30.06 95.3248 33.5C95.3248 36.7 95.2648 39.78 95.2648 41H105.165C105.165 40.24 105.145 39.5 105.145 38.74C105.145 38 105.165 37.24 105.165 36.5C103.565 36.54 101.725 36.56 100.345 36.56C100.325 35.62 100.325 34.54 100.325 33.48C100.345 30.16 100.385 27.12 100.425 26H95.2648ZM106.73 26C106.79 27.44 106.79 30.06 106.79 33.5C106.79 36.7 106.73 39.78 106.73 41H116.63C116.63 40.24 116.61 39.5 116.61 38.74C116.61 38 116.63 37.24 116.63 36.5C115.03 36.54 113.19 36.56 111.81 36.56C111.79 35.62 111.79 34.54 111.79 33.48C111.81 30.16 111.85 27.12 111.89 26H106.73ZM123.37 26C123.43 27.44 123.43 30.06 123.43 33.5C123.43 36.7 123.37 39.78 123.37 41H133.27C133.27 40.24 133.25 39.5 133.25 38.74C133.25 38 133.27 37.24 133.27 36.5C131.67 36.54 129.83 36.56 128.45 36.56C128.43 35.62 128.43 34.54 128.43 33.48C128.45 30.16 128.49 27.12 128.53 26H123.37ZM139.915 41C139.875 38.82 139.875 36.66 139.875 33.48C139.875 30.28 139.875 28.12 139.915 26H134.835C134.895 28.14 134.895 30.3 134.895 33.5C134.895 36.68 134.895 38.84 134.835 41H139.915ZM156.531 32.64C155.131 32.68 153.751 32.66 152.691 32.66C151.731 32.66 150.451 32.66 149.171 32.64C149.191 33.04 149.191 33.56 149.191 34.18C149.191 34.5 149.191 35.22 149.171 35.52C149.971 35.5 151.011 35.48 151.971 35.48C151.851 37.08 151.231 37.7 149.731 37.7C147.631 37.7 146.911 36.42 146.911 33.4C146.911 30.2 147.711 29.2 149.591 29.2C151.031 29.2 151.771 29.74 151.771 30.96C151.771 31.1 151.751 31.28 151.751 31.44C152.351 31.4 153.231 31.4 154.151 31.4C155.051 31.4 155.971 31.42 156.631 31.44C156.651 31.14 156.651 30.88 156.651 30.6C156.651 27.92 154.871 25.74 149.611 25.74C144.351 25.74 141.891 28.16 141.891 33.34C141.891 38.54 144.311 41.26 149.551 41.26C155.851 41.26 156.911 38.38 156.571 32.64H156.531ZM168.555 26C168.595 27.4 168.615 29.66 168.635 31.46C167.915 31.48 167.115 31.5 166.315 31.5C165.515 31.5 164.715 31.48 163.995 31.46C163.995 29.66 164.015 27.4 164.075 26H159.015C159.095 28.06 159.095 30.32 159.095 33.5C159.095 36.68 159.095 38.84 159.015 41H164.075C164.015 39.54 163.995 37.38 163.995 35.64C164.715 35.62 165.515 35.62 166.315 35.62C167.115 35.62 167.915 35.62 168.635 35.64C168.615 37.38 168.595 39.56 168.555 41H173.615C173.555 38.84 173.535 36.68 173.535 33.5C173.535 30.32 173.555 28.06 173.615 26H168.555ZM175.262 26C175.282 26.56 175.282 27.42 175.282 28.2C175.282 28.94 175.282 29.88 175.262 30.48C176.462 30.46 177.642 30.44 178.722 30.44C178.722 35.28 178.702 39.94 178.642 41.02C179.362 40.96 180.462 40.96 181.262 40.96C182.062 40.96 183.202 40.96 183.902 41.02C183.842 39.94 183.822 35.26 183.822 30.44C184.902 30.44 186.082 30.46 187.262 30.48C187.242 29.88 187.242 28.94 187.242 28.2C187.242 27.42 187.242 26.56 187.262 26H175.262ZM193.978 41C193.938 38.82 193.938 36.66 193.938 33.48C193.938 30.28 193.938 28.12 193.978 26H188.898C188.958 28.14 188.958 30.3 188.958 33.5C188.958 36.68 188.958 38.84 188.898 41H193.978ZM206.633 26C206.713 27.22 206.773 29.72 206.793 31.92C206.793 32.88 206.853 33.96 206.953 35.1L206.913 35.12C206.613 34.2 206.253 33.28 205.853 32.5C204.553 30.1 202.593 26.96 202.193 26H196.573C196.613 27.98 196.613 30.32 196.613 33.5C196.613 36.7 196.593 39 196.573 41H201.013C200.953 40.16 200.953 38.16 200.933 35.22C200.893 34.04 200.833 32.86 200.733 31.56H200.773C201.133 32.58 201.553 33.62 202.073 34.62C203.513 36.92 205.213 39.66 205.853 41H210.953C210.913 39.06 210.913 36.8 210.913 33.48C210.913 30.3 210.933 27.44 210.973 26H206.633ZM227.586 32.64C226.186 32.68 224.806 32.66 223.746 32.66C222.786 32.66 221.506 32.66 220.226 32.64C220.246 33.04 220.246 33.56 220.246 34.18C220.246 34.5 220.246 35.22 220.226 35.52C221.026 35.5 222.066 35.48 223.026 35.48C222.906 37.08 222.286 37.7 220.786 37.7C218.686 37.7 217.966 36.42 217.966 33.4C217.966 30.2 218.766 29.2 220.646 29.2C222.086 29.2 222.826 29.74 222.826 30.96C222.826 31.1 222.806 31.28 222.806 31.44C223.406 31.4 224.286 31.4 225.206 31.4C226.106 31.4 227.026 31.42 227.686 31.44C227.706 31.14 227.706 30.88 227.706 30.6C227.706 27.92 225.926 25.74 220.666 25.74C215.406 25.74 212.946 28.16 212.946 33.34C212.946 38.54 215.366 41.26 220.606 41.26C226.906 41.26 227.966 38.38 227.626 32.64H227.586ZM230.762 36.06C229.262 36.06 228.402 36.86 228.402 38.58C228.402 40.32 229.242 41.18 230.762 41.18C232.302 41.18 233.142 40.32 233.142 38.58C233.142 36.86 232.282 36.06 230.762 36.06Z" fill="#FEF8E5"/>
</svg>
