<svg width="25" height="7" viewBox="0 0 25 7" fill="none" xmlns="http://www.w3.org/2000/svg">
<path d="M5.26 0.4V7H4.27L1.51 2.58L0.81 1.34H0.8L0.84 2.34V7H0.08V0.4H1.07L3.82 4.8L4.53 6.07H4.54L4.5 5.06V0.4H5.26ZM7.42375 7V0.4H12.0538V1.15H8.22375V3.28H11.2038V4.03H8.22375V6.25H12.2038V7H7.42375ZM18.4107 7H17.4907L15.7007 4.28L13.9007 7H12.9707L15.2807 3.64L13.1707 0.4H14.1107L15.7807 2.97L17.4707 0.4H18.3407L16.2007 3.6L18.4107 7ZM24.4466 0.4V1.15H22.1466V7H21.3466V1.15H19.0466V0.4H24.4466Z" fill="#FD4A1E"/>
</svg>
