<svg width="157" height="12" viewBox="0 0 157 12" fill="none" xmlns="http://www.w3.org/2000/svg">
<path d="M7.91796 0.499999C7.98796 1.494 8.02996 3.986 8.02996 6.142C8.02996 6.884 8.07196 7.682 8.14196 8.508L8.11396 8.522C7.83396 7.864 7.48396 7.178 7.11996 6.618C5.64996 4.364 3.49396 1.312 3.04596 0.499999H0.553961C0.581961 1.788 0.581961 3.524 0.581961 5.75C0.581961 7.99 0.567961 9.628 0.553961 11H2.47196C2.44396 10.188 2.44396 8.158 2.42996 5.176C2.41596 4.378 2.37396 3.524 2.31796 2.628H2.33196C2.63996 3.314 3.03196 4.028 3.46596 4.714C5.06196 7.024 7.07796 9.95 7.65196 11H9.80796C9.77996 9.614 9.77996 8.046 9.77996 5.736C9.77996 3.51 9.80796 1.662 9.82196 0.499999H7.91796ZM22.2052 5.638C22.2052 2.068 20.1052 0.303999 17.0252 0.303999C13.9592 0.303999 11.8732 2.068 11.8732 5.638C11.8732 9.208 13.8472 11.196 17.0252 11.196C20.2032 11.196 22.2052 9.208 22.2052 5.638ZM17.0392 9.348C15.0932 9.348 13.9452 8.102 13.9452 5.708C13.9452 3.3 15.0932 2.138 17.0392 2.138C18.9712 2.138 20.1052 3.328 20.1052 5.708C20.1052 8.088 18.9852 9.348 17.0392 9.348ZM32.4086 9.208C31.6526 9.208 31.1206 9.208 30.4206 9.166C30.4066 8.41 30.4066 7.416 30.4066 5.82C30.4066 4.63 30.4206 3.384 30.4346 2.334C31.0646 2.306 31.7366 2.292 32.4646 2.292C34.5926 2.292 35.6006 2.978 35.6006 5.666C35.6006 8.438 34.5786 9.208 32.4086 9.208ZM28.3206 0.499999C28.3626 1.788 28.3626 3.538 28.3626 5.764C28.3626 7.99 28.3626 9.558 28.3206 11H32.4226C36.1186 11 37.6446 9.39 37.6446 5.624C37.6446 1.844 36.0066 0.499999 32.4646 0.499999H28.3206ZM39.7366 0.499999C39.7786 1.746 39.7786 3.524 39.7786 5.75C39.7786 7.99 39.7786 9.67 39.7366 11H47.8146C47.8006 10.776 47.8006 10.384 47.8006 10.132C47.8006 9.81 47.8006 9.39 47.8146 9.166C45.7986 9.18 43.4746 9.194 41.8086 9.194V6.492C43.7966 6.492 46.0226 6.492 47.6746 6.52C47.6746 6.142 47.6746 5.232 47.6886 4.854C46.0086 4.896 43.8246 4.896 41.8086 4.896V2.236C43.4746 2.236 45.7286 2.25 47.8146 2.264C47.8006 2.054 47.8006 1.62 47.8006 1.326C47.8006 1.06 47.8006 0.681999 47.8146 0.499999H39.7366ZM57.0422 0.499999C56.7622 1.536 55.6562 4.966 54.9142 7.304C54.5922 8.242 54.3822 8.942 54.2142 9.488C54.0742 8.956 53.8502 8.27 53.5422 7.346C52.7862 4.994 51.6522 1.62 51.4002 0.499999H48.9362C49.9442 2.894 52.1142 9.334 52.6602 11C52.9682 10.986 53.4442 10.986 54.1862 10.986C54.7742 10.986 55.2922 10.986 55.6982 11C56.2022 9.348 58.4142 2.936 59.3662 0.499999H57.0422ZM62.8929 11C62.8509 9.474 62.8509 7.962 62.8509 5.736C62.8509 3.496 62.8509 1.984 62.8929 0.499999H60.7649C60.8069 1.998 60.8069 3.51 60.8069 5.75C60.8069 7.976 60.8069 9.488 60.7649 11H62.8929ZM72.5914 4.742C72.9274 4.728 73.2354 4.728 73.5854 4.728C73.9214 4.728 74.2714 4.728 74.6074 4.742C74.6214 4.532 74.6214 4.35 74.6214 4.154C74.6214 1.97 73.2494 0.332 70.0434 0.332C66.7394 0.332 64.9194 2.264 64.9194 5.694C64.9194 9.432 66.9354 11.168 70.0434 11.168C73.1094 11.168 74.6634 9.6 74.6634 7.136V6.73C74.3134 6.744 73.9634 6.744 73.6274 6.744C73.2774 6.744 72.9694 6.744 72.6194 6.73V7.01C72.6194 8.438 71.8354 9.32 70.0294 9.32C68.1814 9.32 67.0334 8.256 67.0334 5.638C67.0334 3.076 68.1394 2.152 69.9594 2.152C71.6954 2.152 72.5914 2.81 72.5914 4.476V4.742ZM76.801 0.499999C76.843 1.746 76.843 3.524 76.843 5.75C76.843 7.99 76.843 9.67 76.801 11H84.879C84.865 10.776 84.865 10.384 84.865 10.132C84.865 9.81 84.865 9.39 84.879 9.166C82.863 9.18 80.539 9.194 78.873 9.194V6.492C80.861 6.492 83.087 6.492 84.739 6.52C84.739 6.142 84.739 5.232 84.753 4.854C83.073 4.896 80.889 4.896 78.873 4.896V2.236C80.539 2.236 82.793 2.25 84.879 2.264C84.865 2.054 84.865 1.62 84.865 1.326C84.865 1.06 84.865 0.681999 84.879 0.499999H76.801ZM91.4047 9.516C89.5567 9.516 88.8287 8.97 88.8287 7.78C88.8287 7.682 88.8287 7.584 88.8427 7.486C88.5487 7.5 88.1847 7.514 87.7787 7.514C87.4147 7.514 87.0507 7.5 86.8127 7.458C86.7847 7.696 86.7847 7.906 86.7847 8.13C86.7847 10.09 88.1567 11.196 91.4187 11.196C94.4007 11.196 95.7867 9.992 95.7867 8.088C95.7867 6.212 94.6947 5.274 91.7407 4.854C89.2907 4.518 88.9407 3.93 88.9407 3.244C88.9407 2.432 89.5847 1.984 91.1387 1.984C93.0707 1.984 93.6867 2.572 93.6867 3.496C93.6867 3.608 93.6867 3.79 93.6727 3.944C93.8967 3.93 94.2747 3.916 94.6387 3.916C94.9887 3.916 95.3387 3.93 95.5627 3.944C95.5767 3.692 95.5907 3.51 95.5907 3.272C95.5907 1.438 94.3587 0.303999 91.1947 0.303999C88.3247 0.303999 86.9107 1.48 86.9107 3.258C86.9107 4.994 87.8767 6.03 90.9707 6.45C93.3087 6.758 93.8407 7.29 93.8407 8.144C93.8407 9.026 93.2107 9.516 91.4047 9.516ZM101.985 0.499999C102.027 1.928 102.027 3.524 102.027 5.75C102.027 7.976 102.013 9.572 101.985 11H104.141C104.099 10.02 104.085 8.62 104.071 7.304C106.101 7.304 108.131 7.332 109.853 7.318C109.853 6.898 109.853 6.058 109.881 5.61C108.131 5.638 106.115 5.652 104.057 5.652V5.456C104.057 4.574 104.057 3.328 104.071 2.292C105.751 2.292 107.851 2.306 109.979 2.32C109.979 2.04 109.965 1.676 109.965 1.34C109.965 1.06 109.979 0.724 109.979 0.499999H101.985ZM121.75 5.638C121.75 2.068 119.65 0.303999 116.57 0.303999C113.504 0.303999 111.418 2.068 111.418 5.638C111.418 9.208 113.392 11.196 116.57 11.196C119.748 11.196 121.75 9.208 121.75 5.638ZM116.584 9.348C114.638 9.348 113.49 8.102 113.49 5.708C113.49 3.3 114.638 2.138 116.584 2.138C118.516 2.138 119.65 3.328 119.65 5.708C119.65 8.088 118.53 9.348 116.584 9.348ZM130.988 0.499999C131.016 1.914 131.044 5.05 131.044 6.646C131.044 8.522 130.246 9.348 128.51 9.348C126.746 9.348 125.878 8.522 125.878 6.646C125.878 5.05 125.906 1.928 125.962 0.499999H123.806C123.848 1.34 123.862 2.194 123.862 3.468C123.862 4.336 123.834 5.624 123.834 6.716C123.834 9.488 125.206 11.182 128.468 11.182C131.73 11.182 133.088 9.488 133.088 6.716C133.088 5.624 133.06 4.336 133.06 3.468C133.06 2.194 133.074 1.354 133.116 0.499999H130.988ZM143.133 0.499999C143.203 1.494 143.245 3.986 143.245 6.142C143.245 6.884 143.287 7.682 143.357 8.508L143.329 8.522C143.049 7.864 142.699 7.178 142.335 6.618C140.865 4.364 138.709 1.312 138.261 0.499999H135.769C135.797 1.788 135.797 3.524 135.797 5.75C135.797 7.99 135.783 9.628 135.769 11H137.687C137.659 10.188 137.659 8.158 137.645 5.176C137.631 4.378 137.589 3.524 137.533 2.628H137.547C137.855 3.314 138.247 4.028 138.681 4.714C140.277 7.024 142.293 9.95 142.867 11H145.023C144.995 9.614 144.995 8.046 144.995 5.736C144.995 3.51 145.023 1.662 145.037 0.499999H143.133ZM151.764 9.208C151.008 9.208 150.476 9.208 149.776 9.166C149.762 8.41 149.762 7.416 149.762 5.82C149.762 4.63 149.776 3.384 149.79 2.334C150.42 2.306 151.092 2.292 151.82 2.292C153.948 2.292 154.956 2.978 154.956 5.666C154.956 8.438 153.934 9.208 151.764 9.208ZM147.676 0.499999C147.718 1.788 147.718 3.538 147.718 5.764C147.718 7.99 147.718 9.558 147.676 11H151.778C155.474 11 157 9.39 157 5.624C157 1.844 155.362 0.499999 151.82 0.499999H147.676Z" fill="black"/>
</svg>
