<svg width="55" height="52" viewBox="0 0 55 52" fill="none" xmlns="http://www.w3.org/2000/svg">
<g filter="url(#filter0_d_821_980)">
<path d="M29.1902 6.41553C29.0862 2.35678 16.323 11.2576 15.0571 12.0042C11.7171 13.9739 9.23216 15.3475 8.3738 19.3413C7.43073 23.7293 8.21999 27.6609 11.338 30.97C19.0722 39.1786 31.1587 35.7386 39.5851 30.5924C47.538 25.7354 46.9082 19.2387 39.9333 13.4839C33.2886 8.00159 23.4667 6.63919 16.37 11.975C8.84135 17.6355 4.53154 29.9241 17.3818 31.4024C23.2324 32.0754 41.2228 26.5415 37.4389 17.384C34.0242 9.12022 18.0351 5.64779 11.7239 11.7464C7.84073 15.4988 9.12889 21.9745 11.4798 26.1891C14.6385 31.8523 22.6706 33.5607 28.4456 31.4433C33.4444 29.6105 41.5587 25.3536 40.1413 18.7541C39.0817 13.8207 31.7031 11.7382 27.3955 12.2116C22.632 12.7351 15.8479 18.3604 15.1458 23.1611C14.1685 29.844 22.335 32.5262 27.6709 30.4946C32.4639 28.6697 39.7988 21.222 36.4446 15.6574C33.8567 11.3642 25.2148 6.8721 20.6274 10.244C8.31771 19.292 30.988 33.0887 34.0663 19.8555C35.2367 14.8241 29.7123 12.511 25.4941 14.074C21.5089 15.5506 14.4514 23.4913 20.4883 26.7895C25.4278 29.4881 30.3555 26.0777 32.4632 21.6376C34.2709 17.8294 31.6367 14.6288 27.4514 16.433C19.156 20.009 31.3283 28.4911 31.533 21.0102C31.6733 15.8831 24.8139 21.258 31.3063 22.9865C34.5031 23.8376 37.2533 21.0305 37.8418 18.0238C38.5216 14.5508 35.7565 12.1216 32.8267 10.7626C28.3965 8.70746 23.7822 12.4472 20.1954 14.7415C16.1272 17.3438 14.8201 21.4133 17.8472 25.656C20.6512 29.5861 25.9123 30.8226 30.4637 30.5625C34.3556 30.3401 42.3198 27.2125 44.7228 23.8958C46.896 20.8963 36.0056 10.9184 33.4996 9.37928C26.5725 5.12496 17.3306 8.41045 11.7787 13.8461C6.93282 18.5906 11.3426 31.1185 16.243 34.3545C23.8327 39.3663 31.232 32.8951 37.9787 29.5926C45.4105 25.9547 43.7402 17.7559 40.0033 11.5411C35.904 4.72358 30.0178 2.30786 22.26 5.20238C16.0752 7.51001 9.52152 11.7012 9.32152 18.8827C9.06838 27.9721 12.0843 36.9644 21.8264 39.1537C29.693 40.9215 38.192 36.0872 43.6272 30.5099C49.3727 24.6143 46.1551 16.2409 40.9888 11.2227C34.4303 4.85216 28.5711 5.54292 20.6159 9.52462C14.8555 12.4078 10.1838 16.2832 12.6634 23.3217" stroke="#FFCD29" stroke-width="8" stroke-linecap="round" stroke-linejoin="round"/>
<path d="M20.1958 16.4746V16.8877" stroke="#1E1E1E" stroke-width="3" stroke-linecap="round" stroke-linejoin="round"/>
<path d="M30.0388 16.3982C30.0446 16.3205 30.0565 15.6838 30.0565 16.0087" stroke="#1E1E1E" stroke-width="3" stroke-linecap="round" stroke-linejoin="round"/>
<path d="M20.1382 34.4909C20.1382 34.0651 21.8801 33.3972 22.1798 33.2399C24.8303 31.8481 27.3608 30.184 30.0952 28.9601C31.4601 28.3492 33.053 27.8311 34.2653 26.9344C34.5016 26.7596 35.0168 26.2077 34.8296 26.7072" stroke="#1E1E1E" stroke-width="3" stroke-linecap="round" stroke-linejoin="round"/>
</g>
<defs>
<filter id="filter0_d_821_980" x="0.00190735" y="-0.000295639" width="54.6758" height="51.5289" filterUnits="userSpaceOnUse" color-interpolation-filters="sRGB">
<feFlood flood-opacity="0" result="BackgroundImageFix"/>
<feColorMatrix in="SourceAlpha" type="matrix" values="0 0 0 0 0 0 0 0 0 0 0 0 0 0 0 0 0 0 127 0" result="hardAlpha"/>
<feOffset dy="4"/>
<feGaussianBlur stdDeviation="2"/>
<feComposite in2="hardAlpha" operator="out"/>
<feColorMatrix type="matrix" values="0 0 0 0 0 0 0 0 0 0 0 0 0 0 0 0 0 0 0.25 0"/>
<feBlend mode="normal" in2="BackgroundImageFix" result="effect1_dropShadow_821_980"/>
<feBlend mode="normal" in="SourceGraphic" in2="effect1_dropShadow_821_980" result="shape"/>
</filter>
</defs>
</svg>
