<svg width="251" height="44" viewBox="0 0 251 44" fill="none" xmlns="http://www.w3.org/2000/svg">
<rect x="7.5" y="0.5" width="236" height="43" rx="11.5" fill="#FEF8E5" stroke="black"/>
<path d="M45.2109 17.5H47.1149C47.1009 18.662 47.0729 20.51 47.0729 22.736C47.0729 25.046 47.0729 26.614 47.1009 28H44.9449C44.3709 26.95 42.3549 24.024 40.7589 21.714C40.3249 21.028 39.9329 20.314 39.6249 19.628H39.6109C39.6669 20.524 39.7089 21.378 39.7229 22.176C39.7369 25.158 39.7369 27.188 39.7649 28H37.8469C37.8609 26.628 37.8749 24.99 37.8749 22.75C37.8749 20.524 37.8749 18.788 37.8469 17.5H40.3389C40.7869 18.312 42.9429 21.364 44.4129 23.618C44.7769 24.178 45.1269 24.864 45.4069 25.522L45.4349 25.508C45.3649 24.682 45.3229 23.884 45.3229 23.142C45.3229 20.986 45.2809 18.494 45.2109 17.5ZM59.4981 22.638C59.4981 26.208 57.4961 28.196 54.3181 28.196C51.1401 28.196 49.1661 26.208 49.1661 22.638C49.1661 19.068 51.2521 17.304 54.3181 17.304C57.3981 17.304 59.4981 19.068 59.4981 22.638ZM54.3321 26.348C56.2781 26.348 57.3981 25.088 57.3981 22.708C57.3981 20.328 56.2641 19.138 54.3321 19.138C52.3861 19.138 51.2381 20.3 51.2381 22.708C51.2381 25.102 52.3861 26.348 54.3321 26.348ZM69.7855 23.296C71.6475 23.296 72.4175 22.75 72.4175 21.28C72.4175 19.838 71.6055 19.264 69.8835 19.264C69.4495 19.264 68.3715 19.278 67.7415 19.292C67.7415 20.678 67.7415 22.036 67.7415 23.268C68.1475 23.282 68.9315 23.296 69.7855 23.296ZM65.6415 17.5H70.2335C72.8655 17.5 74.4475 18.564 74.4475 21.308C74.4475 23.87 72.8515 25.074 70.1635 25.074C69.2955 25.074 68.7915 25.06 67.7555 25.032C67.7835 26.194 67.8115 27.216 67.8535 28H65.6415C65.6975 26.488 65.6975 24.99 65.6975 22.75C65.6975 20.524 65.6975 18.914 65.6415 17.5ZM85.9396 22.638C85.9396 26.208 83.9376 28.196 80.7596 28.196C77.5816 28.196 75.6076 26.208 75.6076 22.638C75.6076 19.068 77.6936 17.304 80.7596 17.304C83.8396 17.304 85.9396 19.068 85.9396 22.638ZM80.7736 26.348C82.7196 26.348 83.8396 25.088 83.8396 22.708C83.8396 20.328 82.7056 19.138 80.7736 19.138C78.8276 19.138 77.6796 20.3 77.6796 22.708C77.6796 25.102 78.8276 26.348 80.7736 26.348ZM92.139 23.296C94.001 23.296 94.771 22.75 94.771 21.28C94.771 19.838 93.959 19.264 92.237 19.264C91.803 19.264 90.725 19.278 90.095 19.292C90.095 20.678 90.095 22.036 90.095 23.268C90.501 23.282 91.285 23.296 92.139 23.296ZM87.995 17.5H92.587C95.219 17.5 96.801 18.564 96.801 21.308C96.801 23.87 95.205 25.074 92.517 25.074C91.649 25.074 91.145 25.06 90.109 25.032C90.137 26.194 90.165 27.216 90.207 28H87.995C88.051 26.488 88.051 24.99 88.051 22.75C88.051 20.524 88.051 18.914 87.995 17.5ZM98.5911 17.5H100.733C100.691 18.326 100.663 20.286 100.663 22.722C100.663 23.94 100.677 25.27 100.677 26.166C101.965 26.166 103.743 26.166 105.199 26.124C105.199 26.432 105.185 26.754 105.185 27.062C105.185 27.384 105.199 27.692 105.199 28H98.5911C98.5911 27.118 98.6331 24.99 98.6331 22.75C98.6331 20.188 98.6331 18.494 98.5911 17.5ZM108.936 28H106.808C106.85 26.488 106.85 24.976 106.85 22.75C106.85 20.51 106.85 18.998 106.808 17.5H108.936C108.894 18.984 108.894 20.496 108.894 22.736C108.894 24.962 108.894 26.474 108.936 28ZM120.594 22.358C120.846 26.096 120.048 28.182 116.072 28.182C112.768 28.182 110.976 26.04 110.976 22.652C110.976 19.25 112.782 17.318 116.114 17.318C119.348 17.318 120.636 18.998 120.636 20.762C120.636 20.958 120.636 21.112 120.622 21.308C120.384 21.294 120.02 21.28 119.642 21.28C119.222 21.28 118.844 21.28 118.592 21.308C118.606 21.182 118.606 21.056 118.606 20.958C118.606 19.726 117.78 19.054 116.1 19.054C114.168 19.054 113.062 20.02 113.062 22.68C113.062 25.27 114.126 26.474 116.156 26.474C118.032 26.474 118.704 25.718 118.662 23.744C117.71 23.758 116.366 23.758 115.582 23.786C115.596 23.646 115.596 23.366 115.596 23.212C115.596 22.862 115.596 22.582 115.582 22.344C116.436 22.372 117.29 22.372 117.92 22.372C118.634 22.372 119.642 22.386 120.594 22.358ZM130.275 17.5H132.445C132.403 18.9 132.389 20.524 132.389 22.75C132.389 24.976 132.403 26.488 132.445 28H130.275C130.317 26.866 130.331 24.948 130.331 23.73C129.547 23.716 128.609 23.716 127.713 23.716C126.831 23.716 125.893 23.716 125.095 23.73C125.095 24.948 125.109 26.866 125.151 28H122.995C123.051 26.488 123.037 24.976 123.037 22.75C123.037 20.524 123.051 18.9 122.995 17.5H125.151C125.109 18.564 125.095 20.552 125.095 21.84C125.893 21.854 126.831 21.868 127.713 21.868C128.609 21.868 129.547 21.854 130.331 21.84C130.331 20.552 130.317 18.55 130.275 17.5ZM134.059 17.5H142.333V18.396V19.32C141.241 19.306 140.149 19.292 139.211 19.292C139.211 23.212 139.211 27.132 139.253 28.014C138.959 27.986 138.511 27.986 138.189 27.986C137.895 27.986 137.461 27.986 137.153 28.014C137.195 27.146 137.195 23.226 137.195 19.292C136.257 19.292 135.165 19.306 134.059 19.32V18.396V17.5ZM148.112 26.516C149.918 26.516 150.548 26.026 150.548 25.144C150.548 24.29 150.016 23.758 147.678 23.45C144.584 23.03 143.618 21.994 143.618 20.258C143.618 18.48 145.032 17.304 147.902 17.304C151.066 17.304 152.298 18.438 152.298 20.272C152.298 20.51 152.284 20.692 152.27 20.944C152.046 20.93 151.696 20.916 151.346 20.916C150.982 20.916 150.604 20.93 150.38 20.944C150.394 20.79 150.394 20.608 150.394 20.496C150.394 19.572 149.778 18.984 147.846 18.984C146.292 18.984 145.648 19.432 145.648 20.244C145.648 20.93 145.998 21.518 148.448 21.854C151.402 22.274 152.494 23.212 152.494 25.088C152.494 26.992 151.108 28.196 148.126 28.196C144.864 28.196 143.492 27.09 143.492 25.13C143.492 24.906 143.492 24.696 143.52 24.458C143.758 24.5 144.122 24.514 144.486 24.514C144.892 24.514 145.256 24.5 145.55 24.486C145.536 24.584 145.536 24.682 145.536 24.78C145.536 25.97 146.264 26.516 148.112 26.516ZM158.692 17.5H166.686C166.686 17.724 166.672 18.06 166.672 18.34C166.672 18.676 166.686 19.04 166.686 19.32C164.558 19.306 162.458 19.292 160.778 19.292C160.764 20.328 160.764 21.574 160.764 22.456V22.652C162.822 22.652 164.838 22.638 166.588 22.61C166.56 23.058 166.56 23.898 166.56 24.318C164.838 24.332 162.808 24.304 160.778 24.304C160.792 25.62 160.806 27.02 160.848 28H158.692C158.72 26.572 158.734 24.976 158.734 22.75C158.734 20.524 158.734 18.928 158.692 17.5ZM178.457 22.638C178.457 26.208 176.455 28.196 173.277 28.196C170.099 28.196 168.125 26.208 168.125 22.638C168.125 19.068 170.211 17.304 173.277 17.304C176.357 17.304 178.457 19.068 178.457 22.638ZM173.291 26.348C175.237 26.348 176.357 25.088 176.357 22.708C176.357 20.328 175.223 19.138 173.291 19.138C171.345 19.138 170.197 20.3 170.197 22.708C170.197 25.102 171.345 26.348 173.291 26.348ZM187.695 17.5H189.823C189.781 18.354 189.767 19.194 189.767 20.468C189.767 21.336 189.795 22.624 189.795 23.716C189.795 26.488 188.437 28.182 185.175 28.182C181.913 28.182 180.541 26.488 180.541 23.716C180.541 22.624 180.569 21.336 180.569 20.468C180.569 19.194 180.555 18.34 180.513 17.5H182.669C182.613 18.928 182.585 22.05 182.585 23.646C182.585 25.522 183.453 26.348 185.217 26.348C186.953 26.348 187.751 25.522 187.751 23.646C187.751 22.05 187.723 18.914 187.695 17.5ZM199.84 17.5H201.744C201.73 18.662 201.702 20.51 201.702 22.736C201.702 25.046 201.702 26.614 201.73 28H199.574C199 26.95 196.984 24.024 195.388 21.714C194.954 21.028 194.562 20.314 194.254 19.628H194.24C194.296 20.524 194.338 21.378 194.352 22.176C194.366 25.158 194.366 27.188 194.394 28H192.476C192.49 26.628 192.504 24.99 192.504 22.75C192.504 20.524 192.504 18.788 192.476 17.5H194.968C195.416 18.312 197.572 21.364 199.042 23.618C199.406 24.178 199.756 24.864 200.036 25.522L200.064 25.508C199.994 24.682 199.952 23.884 199.952 23.142C199.952 20.986 199.91 18.494 199.84 17.5ZM208.471 26.208C210.641 26.208 211.663 25.438 211.663 22.666C211.663 19.978 210.655 19.292 208.527 19.292C207.799 19.292 207.127 19.306 206.497 19.334C206.483 20.384 206.469 21.63 206.469 22.82C206.469 24.416 206.469 25.41 206.483 26.166C207.183 26.208 207.715 26.208 208.471 26.208ZM204.383 17.5H208.527C212.069 17.5 213.707 18.844 213.707 22.624C213.707 26.39 212.181 28 208.485 28H204.383C204.425 26.558 204.425 24.99 204.425 22.764C204.425 20.538 204.425 18.788 204.383 17.5Z" fill="black"/>
</svg>
