<svg width="134" height="128" viewBox="0 0 134 128" fill="none" xmlns="http://www.w3.org/2000/svg">
<g filter="url(#filter0_d_1001_3792)">
<path d="M18.4753 68.9848C19.3094 62.4847 22.488 56.4622 26.7273 51.1251C27.6856 46.497 29.563 42.2304 33.228 38.2009C38.9418 31.9186 46.8466 27.7436 54.8159 24.4428C68.8065 18.6481 90.8692 11.9727 104.648 21.9304C118.153 31.6909 116.268 53.8514 111.543 67.2384C106.219 82.3189 94.3335 97.465 78.9231 104.721C65.6423 110.974 45.4452 112.155 32.4591 104.422C19.9183 96.9537 16.8208 81.8779 18.4753 68.9848Z" fill="#FEF8E5"/>
<path d="M58.2032 30.1089C54.3914 30.0744 50.8316 29.2639 47.5916 31.6335C43.6774 34.4963 40.2182 38.0656 36.5268 41.1834C27.9471 48.43 19.8812 58.0291 18.4753 68.9848C16.8208 81.8779 19.9183 96.9537 32.4591 104.422C45.4452 112.155 65.6423 110.974 78.9231 104.721C94.3335 97.465 106.219 82.3189 111.543 67.2384C116.268 53.8514 118.153 31.6909 104.648 21.9304C90.8692 11.9727 68.8065 18.6481 54.8159 24.4428C46.8466 27.7436 38.9418 31.9186 33.228 38.2009C27.2782 44.7425 26.0394 51.909 25.7964 60.2326" stroke="#1E1E1E" stroke-width="5" stroke-linecap="round" stroke-linejoin="round"/>
</g>
<path d="M59.3137 66.1213C59.3137 71.2413 56.3737 74.1213 51.7137 74.1213C47.0537 74.1213 44.1737 71.2413 44.1737 66.1213C44.1737 60.9613 47.2537 58.5213 51.7137 58.5213C56.1737 58.5213 59.3137 60.9613 59.3137 66.1213ZM51.7337 70.6213C54.0937 70.6213 55.3337 69.0413 55.3337 66.2413C55.3337 63.4213 54.0737 62.0013 51.7337 62.0013C49.3937 62.0013 48.0937 63.3813 48.0937 66.2413C48.0937 69.0813 49.3737 70.6213 51.7337 70.6213ZM65.8841 62.1813V65.8613C68.5641 65.8613 71.1841 65.8413 73.4841 65.8013C73.4441 66.6013 73.4441 68.1813 73.4441 68.9813C71.2041 69.0013 68.5441 68.9813 65.9041 68.9813C65.9241 70.6813 65.9641 72.4213 66.0241 73.8213H61.9641C62.0041 71.7613 62.0441 69.5013 62.0441 66.3213C62.0441 63.1413 62.0241 60.8613 61.9641 58.8213H73.6441C73.6241 59.2413 73.6041 59.8613 73.6041 60.3813C73.6041 61.0413 73.6041 61.7213 73.6441 62.2213C70.8641 62.2013 68.1241 62.1813 65.8841 62.1813ZM80.2005 62.1813V65.8613C82.8805 65.8613 85.5005 65.8413 87.8005 65.8013C87.7605 66.6013 87.7605 68.1813 87.7605 68.9813C85.5205 69.0013 82.8605 68.9813 80.2205 68.9813C80.2405 70.6813 80.2805 72.4213 80.3405 73.8213H76.2805C76.3205 71.7613 76.3605 69.5013 76.3605 66.3213C76.3605 63.1413 76.3405 60.8613 76.2805 58.8213H87.9605C87.9405 59.2413 87.9205 59.8613 87.9205 60.3813C87.9205 61.0413 87.9205 61.7213 87.9605 62.2213C85.1805 62.2013 82.4405 62.1813 80.2005 62.1813Z" fill="black"/>
<defs>
<filter id="filter0_d_1001_3792" x="11.5685" y="14.3213" width="109.997" height="106" filterUnits="userSpaceOnUse" color-interpolation-filters="sRGB">
<feFlood flood-opacity="0" result="BackgroundImageFix"/>
<feColorMatrix in="SourceAlpha" type="matrix" values="0 0 0 0 0 0 0 0 0 0 0 0 0 0 0 0 0 0 127 0" result="hardAlpha"/>
<feOffset dy="4"/>
<feGaussianBlur stdDeviation="2"/>
<feComposite in2="hardAlpha" operator="out"/>
<feColorMatrix type="matrix" values="0 0 0 0 0 0 0 0 0 0 0 0 0 0 0 0 0 0 0.25 0"/>
<feBlend mode="normal" in2="BackgroundImageFix" result="effect1_dropShadow_1001_3792"/>
<feBlend mode="normal" in="SourceGraphic" in2="effect1_dropShadow_1001_3792" result="shape"/>
</filter>
</defs>
</svg>
