<svg width="19" height="8" viewBox="0 0 19 8" fill="none" xmlns="http://www.w3.org/2000/svg">
<path d="M3.38113 0.3C4.01447 0.3 4.56447 0.436667 5.03113 0.71C5.50447 0.983333 5.8678 1.37667 6.12113 1.89C6.37447 2.40333 6.50113 3.00667 6.50113 3.7C6.50113 4.39333 6.37447 4.99667 6.12113 5.51C5.8678 6.02333 5.50447 6.41667 5.03113 6.69C4.56447 6.96333 4.01447 7.1 3.38113 7.1C2.7478 7.1 2.1978 6.96333 1.73113 6.69C1.26447 6.41667 0.904466 6.02333 0.651133 5.51C0.3978 4.99667 0.271133 4.39333 0.271133 3.7C0.271133 3.00667 0.3978 2.40333 0.651133 1.89C0.904466 1.37667 1.26447 0.983333 1.73113 0.71C2.1978 0.436667 2.7478 0.3 3.38113 0.3ZM3.38113 1.23C2.76113 1.23 2.27447 1.44667 1.92113 1.88C1.5678 2.31333 1.39113 2.92 1.39113 3.7C1.39113 4.48 1.5678 5.08667 1.92113 5.52C2.27447 5.95333 2.76113 6.17 3.38113 6.17C4.0078 6.17 4.4978 5.95333 4.85113 5.52C5.20447 5.08667 5.38113 4.48 5.38113 3.7C5.38113 2.92 5.20447 2.31333 4.85113 1.88C4.4978 1.44667 4.0078 1.23 3.38113 1.23ZM9.1623 1.32V3.23H12.0623V4.16H9.1623V7H8.0923V0.4H12.8623V1.32H9.1623ZM15.2756 1.32V3.23H18.1756V4.16H15.2756V7H14.2056V0.4H18.9756V1.32H15.2756Z" fill="black"/>
</svg>
