<svg width="134" height="128" viewBox="0 0 134 128" fill="none" xmlns="http://www.w3.org/2000/svg">
<g filter="url(#filter0_d_1001_3553)">
<path d="M18.4753 68.9848C19.3094 62.4847 22.488 56.4622 26.7273 51.1251C27.6856 46.497 29.563 42.2304 33.228 38.2009C38.9418 31.9186 46.8466 27.7436 54.8159 24.4428C68.8065 18.6481 90.8692 11.9727 104.648 21.9304C118.153 31.6909 116.268 53.8514 111.543 67.2384C106.219 82.3189 94.3335 97.465 78.9231 104.721C65.6423 110.974 45.4452 112.155 32.4591 104.422C19.9183 96.9537 16.8208 81.8779 18.4753 68.9848Z" fill="#FEF8E5"/>
<path d="M58.2032 30.1089C54.3914 30.0744 50.8316 29.2639 47.5916 31.6335C43.6774 34.4963 40.2182 38.0656 36.5268 41.1834C27.9471 48.43 19.8812 58.0291 18.4753 68.9848C16.8208 81.8779 19.9183 96.9537 32.4591 104.422C45.4452 112.155 65.6423 110.974 78.9231 104.721C94.3335 97.465 106.219 82.3189 111.543 67.2384C116.268 53.8514 118.153 31.6909 104.648 21.9304C90.8692 11.9727 68.8065 18.6481 54.8159 24.4428C46.8466 27.7436 38.9418 31.9186 33.228 38.2009C27.2782 44.7425 26.0394 51.909 25.7964 60.2326" stroke="#1E1E1E" stroke-width="5" stroke-linecap="round" stroke-linejoin="round"/>
</g>
<path d="M64.9583 66.1213C64.9583 71.2413 62.0183 74.1213 57.3583 74.1213C52.6983 74.1213 49.8183 71.2413 49.8183 66.1213C49.8183 60.9613 52.8983 58.5213 57.3583 58.5213C61.8183 58.5213 64.9583 60.9613 64.9583 66.1213ZM57.3783 70.6213C59.7383 70.6213 60.9783 69.0413 60.9783 66.2413C60.9783 63.4213 59.7183 62.0013 57.3783 62.0013C55.0383 62.0013 53.7383 63.3813 53.7383 66.2413C53.7383 69.0813 55.0183 70.6213 57.3783 70.6213ZM78.0686 58.8213H81.5686C81.5486 60.4013 81.5086 63.1213 81.5086 66.3013C81.5086 69.6213 81.5086 71.8613 81.5486 73.8213H77.4486C76.7086 72.3613 74.3686 68.8013 72.4486 65.9013C71.8486 64.9213 71.3486 63.9213 70.9486 62.9213C71.0486 64.2213 71.1086 65.4413 71.1286 66.6013C71.1486 70.2813 71.1486 72.8013 71.2086 73.8213H67.6086C67.6286 71.8413 67.6686 69.5213 67.6686 66.3213C67.6686 63.1413 67.6686 60.7413 67.6086 58.8213H72.2686C72.7886 59.8813 75.3686 63.6413 77.1286 66.5413C77.6086 67.3413 78.0686 68.2813 78.4086 69.2013C78.3086 68.0213 78.2286 66.8413 78.2286 65.7413C78.2286 63.1813 78.1486 60.1413 78.0686 58.8213Z" fill="black"/>
<defs>
<filter id="filter0_d_1001_3553" x="11.5685" y="14.3213" width="109.997" height="106" filterUnits="userSpaceOnUse" color-interpolation-filters="sRGB">
<feFlood flood-opacity="0" result="BackgroundImageFix"/>
<feColorMatrix in="SourceAlpha" type="matrix" values="0 0 0 0 0 0 0 0 0 0 0 0 0 0 0 0 0 0 127 0" result="hardAlpha"/>
<feOffset dy="4"/>
<feGaussianBlur stdDeviation="2"/>
<feComposite in2="hardAlpha" operator="out"/>
<feColorMatrix type="matrix" values="0 0 0 0 0 0 0 0 0 0 0 0 0 0 0 0 0 0 0.25 0"/>
<feBlend mode="normal" in2="BackgroundImageFix" result="effect1_dropShadow_1001_3553"/>
<feBlend mode="normal" in="SourceGraphic" in2="effect1_dropShadow_1001_3553" result="shape"/>
</filter>
</defs>
</svg>
