<svg width="14" height="8" viewBox="0 0 14 8" fill="none" xmlns="http://www.w3.org/2000/svg">
<path d="M3.81277 0.3C4.44611 0.3 4.99611 0.436667 5.46277 0.71C5.93611 0.983333 6.29944 1.37667 6.55277 1.89C6.80611 2.40333 6.93277 3.00667 6.93277 3.7C6.93277 4.39333 6.80611 4.99667 6.55277 5.51C6.29944 6.02333 5.93611 6.41667 5.46277 6.69C4.99611 6.96333 4.44611 7.1 3.81277 7.1C3.17944 7.1 2.62944 6.96333 2.16277 6.69C1.69611 6.41667 1.33611 6.02333 1.08277 5.51C0.82944 4.99667 0.702773 4.39333 0.702773 3.7C0.702773 3.00667 0.82944 2.40333 1.08277 1.89C1.33611 1.37667 1.69611 0.983333 2.16277 0.71C2.62944 0.436667 3.17944 0.3 3.81277 0.3ZM3.81277 1.23C3.19277 1.23 2.70611 1.44667 2.35277 1.88C1.99944 2.31333 1.82277 2.92 1.82277 3.7C1.82277 4.48 1.99944 5.08667 2.35277 5.52C2.70611 5.95333 3.19277 6.17 3.81277 6.17C4.43944 6.17 4.92944 5.95333 5.28277 5.52C5.63611 5.08667 5.81277 4.48 5.81277 3.7C5.81277 2.92 5.63611 2.31333 5.28277 1.88C4.92944 1.44667 4.43944 1.23 3.81277 1.23ZM13.9339 7H12.6639L10.1139 2.84L9.47395 1.62H9.46395L9.50395 2.74V7H8.52395V0.4H9.78395L12.3239 4.55L12.9739 5.78H12.9839L12.9439 4.66V0.4H13.9339V7Z" fill="black"/>
</svg>
