<svg width="278" height="12" viewBox="0 0 278 12" fill="none" xmlns="http://www.w3.org/2000/svg">
<path d="M4.808 0.44C5.61867 0.44 6.312 0.578666 6.888 0.856C7.464 1.12267 7.90667 1.512 8.216 2.024C8.536 2.52533 8.696 3.13333 8.696 3.848C8.696 4.56267 8.536 5.176 8.216 5.688C7.90667 6.18933 7.464 6.57867 6.888 6.856C6.312 7.12267 5.61867 7.256 4.808 7.256H2.584V11H0.376V0.44H4.808ZM4.472 5.512C5.13333 5.512 5.62933 5.37333 5.96 5.096C6.29067 4.808 6.456 4.392 6.456 3.848C6.456 3.29333 6.29067 2.87733 5.96 2.6C5.62933 2.32267 5.13333 2.184 4.472 2.184H2.584V5.512H4.472ZM15.2798 0.28C16.3251 0.28 17.2264 0.498666 17.9838 0.936C18.7411 1.37333 19.3224 1.99733 19.7278 2.808C20.1438 3.61867 20.3518 4.58933 20.3518 5.72C20.3518 6.85067 20.1438 7.82133 19.7278 8.632C19.3224 9.44267 18.7411 10.0667 17.9838 10.504C17.2264 10.9413 16.3251 11.16 15.2798 11.16C14.2344 11.16 13.3278 10.9413 12.5598 10.504C11.8024 10.0667 11.2158 9.44267 10.7998 8.632C10.3944 7.82133 10.1918 6.85067 10.1918 5.72C10.1918 4.58933 10.3944 3.61867 10.7998 2.808C11.2158 1.99733 11.8024 1.37333 12.5598 0.936C13.3278 0.498666 14.2344 0.28 15.2798 0.28ZM15.2798 2.088C14.6824 2.088 14.1758 2.22667 13.7598 2.504C13.3438 2.78133 13.0238 3.192 12.7998 3.736C12.5864 4.26933 12.4798 4.93067 12.4798 5.72C12.4798 6.49867 12.5864 7.16 12.7998 7.704C13.0238 8.248 13.3438 8.65867 13.7598 8.936C14.1758 9.21333 14.6824 9.352 15.2798 9.352C15.8664 9.352 16.3678 9.21333 16.7838 8.936C17.1998 8.65867 17.5144 8.248 17.7278 7.704C17.9518 7.16 18.0638 6.49867 18.0638 5.72C18.0638 4.93067 17.9518 4.26933 17.7278 3.736C17.5144 3.192 17.1998 2.78133 16.7838 2.504C16.3678 2.22667 15.8664 2.088 15.2798 2.088ZM27.0111 0.44C27.8218 0.44 28.5151 0.578666 29.0911 0.856C29.6671 1.12267 30.1098 1.512 30.4191 2.024C30.7391 2.52533 30.8991 3.13333 30.8991 3.848C30.8991 4.56267 30.7391 5.176 30.4191 5.688C30.1098 6.18933 29.6671 6.57867 29.0911 6.856C28.5151 7.12267 27.8218 7.256 27.0111 7.256H24.7871V11H22.5791V0.44H27.0111ZM26.6751 5.512C27.3365 5.512 27.8325 5.37333 28.1631 5.096C28.4938 4.808 28.6591 4.392 28.6591 3.848C28.6591 3.29333 28.4938 2.87733 28.1631 2.6C27.8325 2.32267 27.3365 2.184 26.6751 2.184H24.7871V5.512H26.6751ZM35.1309 9.224H40.6989V11H32.9229V0.44H35.1309V9.224ZM44.7403 0.44V11H42.5323V0.44H44.7403ZM51.8214 11.16C50.8507 11.16 49.9974 10.9467 49.2614 10.52C48.536 10.0933 47.9707 9.47467 47.5654 8.664C47.16 7.85333 46.9574 6.87733 46.9574 5.736C46.9574 4.60533 47.1707 3.63467 47.5974 2.824C48.024 2.00267 48.6267 1.37333 49.4054 0.936C50.1947 0.498666 51.1067 0.28 52.1414 0.28C53.2827 0.28 54.2054 0.493333 54.9094 0.919999C55.6134 1.336 56.1734 1.98667 56.5894 2.872L54.5414 3.752C54.3707 3.18667 54.0774 2.77067 53.6614 2.504C53.256 2.22667 52.7547 2.088 52.1574 2.088C51.56 2.088 51.0427 2.232 50.6054 2.52C50.168 2.79733 49.832 3.208 49.5974 3.752C49.3627 4.28533 49.2454 4.94133 49.2454 5.72C49.2454 6.52 49.3574 7.19733 49.5814 7.752C49.8054 8.296 50.136 8.70667 50.5734 8.984C51.0214 9.25067 51.5707 9.384 52.2214 9.384C52.5734 9.384 52.8987 9.34133 53.1974 9.256C53.5067 9.17067 53.7734 9.04267 53.9974 8.872C54.2214 8.70133 54.3974 8.48267 54.5254 8.216C54.6534 7.94933 54.7174 7.64 54.7174 7.288V7.048H51.9494V5.432H56.6214V11H55.0694L54.9094 8.696L55.2934 8.968C55.0587 9.672 54.6427 10.216 54.0454 10.6C53.4587 10.9733 52.7174 11.16 51.8214 11.16ZM68.1199 0.44V11H65.9119V0.44H68.1199ZM61.2559 0.44V11H59.0479V0.44H61.2559ZM67.0639 4.776V6.552H60.1519V4.776H67.0639ZM79.228 0.44V2.216H75.692V11H73.484V2.216H69.932V0.44H79.228ZM87.2666 11L84.1946 0.44H86.5466L88.6266 9.16L90.7386 0.44H92.8506L94.9946 9.16L97.0586 0.44H99.3146L96.2426 11H93.7626L92.2906 5.24L91.7946 2.744H91.7626L91.2666 5.24L89.8106 11H87.2666ZM103.225 0.44V11H101.017V0.44H103.225ZM108.178 9.224H113.746V11H105.97V0.44H108.178V9.224ZM117.787 9.224H123.355V11H115.579V0.44H117.787V9.224ZM137.712 0.44V2.216H134.176V11H131.968V2.216H128.416V0.44H137.712ZM148.333 0.44V6.84C148.333 8.28 147.949 9.36267 147.181 10.088C146.413 10.8027 145.293 11.16 143.821 11.16C142.349 11.16 141.229 10.8027 140.461 10.088C139.693 9.36267 139.309 8.28 139.309 6.84V0.44H141.517V6.744C141.517 7.62933 141.703 8.28533 142.077 8.712C142.461 9.13867 143.042 9.352 143.821 9.352C144.599 9.352 145.175 9.13867 145.549 8.712C145.922 8.28533 146.109 7.62933 146.109 6.744V0.44H148.333ZM155.532 0.44C156.727 0.44 157.665 0.728 158.348 1.304C159.031 1.88 159.372 2.65333 159.372 3.624C159.372 4.65867 159.031 5.45333 158.348 6.008C157.665 6.552 156.732 6.824 155.548 6.824L155.324 6.952H153.052V11H150.876V0.44H155.532ZM155.276 5.272C155.895 5.272 156.353 5.14933 156.652 4.904C156.961 4.648 157.116 4.25867 157.116 3.736C157.116 3.21333 156.961 2.82933 156.652 2.584C156.353 2.328 155.895 2.2 155.276 2.2H153.052V5.272H155.276ZM156.572 5.736L159.996 11H157.516L154.684 6.376L156.572 5.736ZM170.823 0.44V11H168.295L164.599 4.792L163.687 3.064H163.671L163.735 4.888V11H161.751V0.44H164.263L167.959 6.632L168.871 8.376H168.903L168.839 6.552V0.44H170.823ZM183.03 0.28C184.075 0.28 184.976 0.498666 185.734 0.936C186.491 1.37333 187.072 1.99733 187.478 2.808C187.894 3.61867 188.102 4.58933 188.102 5.72C188.102 6.85067 187.894 7.82133 187.478 8.632C187.072 9.44267 186.491 10.0667 185.734 10.504C184.976 10.9413 184.075 11.16 183.03 11.16C181.984 11.16 181.078 10.9413 180.31 10.504C179.552 10.0667 178.966 9.44267 178.55 8.632C178.144 7.82133 177.942 6.85067 177.942 5.72C177.942 4.58933 178.144 3.61867 178.55 2.808C178.966 1.99733 179.552 1.37333 180.31 0.936C181.078 0.498666 181.984 0.28 183.03 0.28ZM183.03 2.088C182.432 2.088 181.926 2.22667 181.51 2.504C181.094 2.78133 180.774 3.192 180.55 3.736C180.336 4.26933 180.23 4.93067 180.23 5.72C180.23 6.49867 180.336 7.16 180.55 7.704C180.774 8.248 181.094 8.65867 181.51 8.936C181.926 9.21333 182.432 9.352 183.03 9.352C183.616 9.352 184.118 9.21333 184.534 8.936C184.95 8.65867 185.264 8.248 185.478 7.704C185.702 7.16 185.814 6.49867 185.814 5.72C185.814 4.93067 185.702 4.26933 185.478 3.736C185.264 3.192 184.95 2.78133 184.534 2.504C184.118 2.22667 183.616 2.088 183.03 2.088ZM198.233 2.216H192.537V4.904H197.033V6.68H192.537V11H190.329V0.44H198.233V2.216ZM208.03 2.216H202.334V4.904H206.83V6.68H202.334V11H200.126V0.44H208.03V2.216ZM223.294 11H221.006L220.126 8.424H216.078L215.198 11H212.942L216.798 0.44H219.438L223.294 11ZM216.574 6.792H219.63L218.094 2.184L216.574 6.792ZM232.764 2.216H227.068V4.904H231.564V6.68H227.068V11H224.86V0.44H232.764V2.216ZM243.009 0.44V2.216H239.473V11H237.265V2.216H233.713V0.44H243.009ZM244.814 11V0.44H252.734V2.216H247.022V4.84H251.517V6.536H247.022V9.224H252.958V11H244.814ZM259.595 0.44C260.789 0.44 261.728 0.728 262.411 1.304C263.093 1.88 263.435 2.65333 263.435 3.624C263.435 4.65867 263.093 5.45333 262.411 6.008C261.728 6.552 260.795 6.824 259.611 6.824L259.387 6.952H257.115V11H254.939V0.44H259.595ZM259.339 5.272C259.957 5.272 260.416 5.14933 260.715 4.904C261.024 4.648 261.179 4.25867 261.179 3.736C261.179 3.21333 261.024 2.82933 260.715 2.584C260.416 2.328 259.957 2.2 259.339 2.2H257.115V5.272H259.339ZM260.635 5.736L264.059 11H261.579L258.747 6.376L260.635 5.736ZM266.756 8.552C267.183 8.552 267.519 8.66933 267.764 8.904C268.02 9.13867 268.148 9.45333 268.148 9.848C268.148 10.2533 268.02 10.5733 267.764 10.808C267.519 11.032 267.183 11.144 266.756 11.144C266.329 11.144 265.988 11.032 265.732 10.808C265.487 10.5733 265.364 10.2533 265.364 9.848C265.364 9.45333 265.487 9.13867 265.732 8.904C265.988 8.66933 266.329 8.552 266.756 8.552ZM271.256 8.552C271.683 8.552 272.019 8.66933 272.264 8.904C272.52 9.13867 272.648 9.45333 272.648 9.848C272.648 10.2533 272.52 10.5733 272.264 10.808C272.019 11.032 271.683 11.144 271.256 11.144C270.829 11.144 270.488 11.032 270.232 10.808C269.987 10.5733 269.864 10.2533 269.864 9.848C269.864 9.45333 269.987 9.13867 270.232 8.904C270.488 8.66933 270.829 8.552 271.256 8.552ZM275.756 8.552C276.183 8.552 276.519 8.66933 276.764 8.904C277.02 9.13867 277.148 9.45333 277.148 9.848C277.148 10.2533 277.02 10.5733 276.764 10.808C276.519 11.032 276.183 11.144 275.756 11.144C275.329 11.144 274.988 11.032 274.732 10.808C274.487 10.5733 274.364 10.2533 274.364 9.848C274.364 9.45333 274.487 9.13867 274.732 8.904C274.988 8.66933 275.329 8.552 275.756 8.552Z" fill="white"/>
</svg>
