<svg width="89" height="21" viewBox="0 0 89 21" fill="none" xmlns="http://www.w3.org/2000/svg">
<path d="M3.97313 4.12C3.48313 4.11 3.04313 4.11 2.76313 4.1C2.75313 3.48 2.75313 2.83 2.75313 2.18C3.14313 2.17 3.63313 2.16 3.84313 2.16C4.59313 2.16 4.93313 2.34 4.93313 3.14C4.93313 3.81 4.63313 4.12 3.97313 4.12ZM5.55313 4.96C6.82313 4.76 7.32313 4.13 7.32313 2.76C7.32313 1.18 6.27313 0.499999 4.44313 0.499999H0.353125C0.383125 1.58 0.393125 2.66 0.393125 4.25C0.393125 5.85 0.373125 6.91 0.353125 8H2.88313C2.82313 7.41 2.79313 6.58 2.77313 5.62C3.25313 5.61 3.46313 5.62 3.82313 5.62C4.43313 5.62 4.57313 5.84 4.81313 7.1C4.98312 7.87 5.05313 8 5.42313 8H7.65313C7.55313 7.66 7.40313 7.03 7.24313 6.46C6.99313 5.45 6.58313 5.15 5.55313 5.02V4.96ZM8.51719 0.499999C8.54719 1.47 8.54719 2.66 8.54719 4.25C8.54719 5.85 8.54719 6.99 8.51719 8H14.5372C14.5172 7.75 14.5172 7.35 14.5172 7.05C14.5172 6.7 14.5172 6.26 14.5372 6.02C13.3972 6.03 11.9972 6.04 10.9872 6.04V4.95C12.1672 4.95 13.4672 4.96 14.4372 4.98C14.4372 4.58 14.4372 3.71 14.4472 3.34C13.4672 3.37 12.1772 3.37 10.9872 3.37V2.32C11.9872 2.32 13.3172 2.33 14.5372 2.34C14.5172 2.12 14.5172 1.69 14.5172 1.38C14.5172 1.09 14.5272 0.71 14.5372 0.499999H8.51719ZM19.1345 5.03H18.2845C18.4545 4.31 18.6245 3.57 18.7745 2.92C18.9245 2.38 19.0345 1.9 19.1245 1.54H19.1545C19.2345 1.9 19.3445 2.39 19.4945 2.9C19.6645 3.55 19.8345 4.3 19.9945 5.03H19.1345ZM23.3545 8C22.7045 6.09 21.4845 1.55 21.2045 0.499999H17.1945C16.9445 1.54 15.7345 6.12 15.1245 8H17.6845C17.7245 7.7 17.8245 7.19 17.9545 6.57C18.3945 6.57 18.8245 6.57 19.1345 6.57C19.4645 6.57 19.8845 6.57 20.3145 6.57C20.4445 7.21 20.5245 7.73 20.5545 8H23.3545ZM27.3162 6.06C26.9962 6.06 26.7362 6.06 26.4462 6.04C26.4362 5.59 26.4362 5.03 26.4362 4.27C26.4362 3.62 26.4362 2.96 26.4562 2.35C26.7362 2.33 27.0262 2.32 27.3362 2.32C28.3262 2.32 28.7462 2.56 28.7462 4.14C28.7462 5.78 28.3162 6.06 27.3162 6.06ZM23.9762 0.499999C23.9962 1.48 24.0062 2.67 24.0062 4.26C24.0062 5.85 23.9962 6.95 23.9762 8H27.4662C30.2062 8 31.2062 7.05 31.2062 4.05C31.2062 1.25 30.0762 0.499999 27.5162 0.499999H23.9762ZM34.7486 8C34.7286 6.91 34.7286 5.83 34.7286 4.24C34.7286 2.64 34.7286 1.56 34.7486 0.499999H32.2086C32.2386 1.57 32.2386 2.65 32.2386 4.25C32.2386 5.84 32.2386 6.92 32.2086 8H34.7486ZM41.0765 0.499999C41.1165 1.11 41.1465 2.36 41.1565 3.46C41.1565 3.94 41.1865 4.48 41.2365 5.05L41.2165 5.06C41.0665 4.6 40.8865 4.14 40.6865 3.75C40.0365 2.55 39.0565 0.98 38.8565 0.499999H36.0465C36.0665 1.49 36.0665 2.66 36.0665 4.25C36.0665 5.85 36.0565 7 36.0465 8H38.2665C38.2365 7.58 38.2365 6.58 38.2265 5.11C38.2065 4.52 38.1765 3.93 38.1265 3.28H38.1465C38.3265 3.79 38.5365 4.31 38.7965 4.81C39.5165 5.96 40.3665 7.33 40.6865 8H43.2365C43.2165 7.03 43.2165 5.9 43.2165 4.24C43.2165 2.65 43.2265 1.22 43.2465 0.499999H41.0765ZM51.5526 3.82C50.8526 3.84 50.1626 3.83 49.6326 3.83C49.1526 3.83 48.5126 3.83 47.8726 3.82C47.8826 4.02 47.8826 4.28 47.8826 4.59C47.8826 4.75 47.8826 5.11 47.8726 5.26C48.2726 5.25 48.7926 5.24 49.2726 5.24C49.2126 6.04 48.9026 6.35 48.1526 6.35C47.1026 6.35 46.7426 5.71 46.7426 4.2C46.7426 2.6 47.1426 2.1 48.0826 2.1C48.8026 2.1 49.1726 2.37 49.1726 2.98C49.1726 3.05 49.1626 3.14 49.1626 3.22C49.4626 3.2 49.9026 3.2 50.3626 3.2C50.8126 3.2 51.2726 3.21 51.6026 3.22C51.6126 3.07 51.6126 2.94 51.6126 2.8C51.6126 1.46 50.7226 0.37 48.0926 0.37C45.4626 0.37 44.2326 1.58 44.2326 4.17C44.2326 6.77 45.4426 8.13 48.0626 8.13C51.2126 8.13 51.7426 6.69 51.5726 3.82H51.5526ZM60.4124 0.499999C60.4524 1.11 60.4824 2.36 60.4924 3.46C60.4924 3.94 60.5224 4.48 60.5724 5.05L60.5524 5.06C60.4024 4.6 60.2224 4.14 60.0224 3.75C59.3724 2.55 58.3924 0.98 58.1924 0.499999H55.3824C55.4024 1.49 55.4024 2.66 55.4024 4.25C55.4024 5.85 55.3924 7 55.3824 8H57.6024C57.5724 7.58 57.5724 6.58 57.5624 5.11C57.5424 4.52 57.5124 3.93 57.4624 3.28H57.4824C57.6624 3.79 57.8724 4.31 58.1324 4.81C58.8524 5.96 59.7024 7.33 60.0224 8H62.5724C62.5524 7.03 62.5524 5.9 62.5524 4.24C62.5524 2.65 62.5624 1.22 62.5824 0.499999H60.4124ZM71.3485 4.12C71.3485 1.41 69.8785 0.359999 67.4485 0.359999C65.0085 0.359999 63.5785 1.41 63.5785 4.12C63.5785 6.83 64.8685 8.14 67.4385 8.14C70.0085 8.14 71.3485 6.83 71.3485 4.12ZM67.4485 6.12C66.5585 6.12 66.0885 5.52 66.0885 4.15C66.0885 2.8 66.5585 2.27 67.4485 2.27C68.3385 2.27 68.7985 2.82 68.7985 4.15C68.7985 5.5 68.3485 6.12 67.4485 6.12ZM79.8251 4.12C79.8251 1.41 78.3551 0.359999 75.9251 0.359999C73.4851 0.359999 72.0551 1.41 72.0551 4.12C72.0551 6.83 73.3451 8.14 75.9151 8.14C78.4851 8.14 79.8251 6.83 79.8251 4.12ZM75.9251 6.12C75.0351 6.12 74.5651 5.52 74.5651 4.15C74.5651 2.8 75.0351 2.27 75.9251 2.27C76.8151 2.27 77.2751 2.82 77.2751 4.15C77.2751 5.5 76.8251 6.12 75.9251 6.12ZM85.3816 0.499999C85.1316 1.04 84.7916 1.79 84.2016 2.76C83.9516 3.15 83.6716 3.55 83.3916 3.92H83.3416C83.3416 2.68 83.3416 1.47 83.3816 0.499999H80.8316C80.8616 1.57 80.8716 2.65 80.8716 4.25C80.8716 5.84 80.8616 6.9 80.8316 8H83.3816C83.3516 7.13 83.3416 6.15 83.3416 5.08H83.4316C83.9816 5.69 84.6416 6.89 85.1116 7.69C85.2316 7.92 85.3716 8 85.6916 8H88.2616C88.0416 7.66 87.6116 6.85 86.7216 5.55C86.3916 4.99 86.0116 4.57 85.5116 4.32C86.4516 3.53 87.5416 1.54 88.2016 0.499999H85.3816ZM28.2682 12.5C28.2982 13.22 28.2982 14.53 28.2982 16.25C28.2982 17.85 28.2682 19.39 28.2682 20H33.2182C33.2182 19.62 33.2082 19.25 33.2082 18.87C33.2082 18.5 33.2182 18.12 33.2182 17.75C32.4182 17.77 31.4982 17.78 30.8082 17.78C30.7982 17.31 30.7982 16.77 30.7982 16.24C30.8082 14.58 30.8282 13.06 30.8482 12.5H28.2682ZM36.5406 20C36.5206 18.91 36.5206 17.83 36.5206 16.24C36.5206 14.64 36.5206 13.56 36.5406 12.5H34.0006C34.0306 13.57 34.0306 14.65 34.0306 16.25C34.0306 17.84 34.0306 18.92 34.0006 20H36.5406ZM44.8485 15.82C44.1485 15.84 43.4585 15.83 42.9285 15.83C42.4485 15.83 41.8085 15.83 41.1685 15.82C41.1785 16.02 41.1785 16.28 41.1785 16.59C41.1785 16.75 41.1785 17.11 41.1685 17.26C41.5685 17.25 42.0885 17.24 42.5685 17.24C42.5085 18.04 42.1985 18.35 41.4485 18.35C40.3985 18.35 40.0385 17.71 40.0385 16.2C40.0385 14.6 40.4385 14.1 41.3785 14.1C42.0985 14.1 42.4685 14.37 42.4685 14.98C42.4685 15.05 42.4585 15.14 42.4585 15.22C42.7585 15.2 43.1985 15.2 43.6585 15.2C44.1085 15.2 44.5685 15.21 44.8985 15.22C44.9085 15.07 44.9085 14.94 44.9085 14.8C44.9085 13.46 44.0185 12.37 41.3885 12.37C38.7585 12.37 37.5285 13.58 37.5285 16.17C37.5285 18.77 38.7385 20.13 41.3585 20.13C44.5085 20.13 45.0385 18.69 44.8685 15.82H44.8485ZM50.8604 12.5C50.8804 13.2 50.8904 14.33 50.9004 15.23C50.5404 15.24 50.1404 15.25 49.7404 15.25C49.3404 15.25 48.9404 15.24 48.5804 15.23C48.5804 14.33 48.5904 13.2 48.6204 12.5H46.0904C46.1304 13.53 46.1304 14.66 46.1304 16.25C46.1304 17.84 46.1304 18.92 46.0904 20H48.6204C48.5904 19.27 48.5804 18.19 48.5804 17.32C48.9404 17.31 49.3404 17.31 49.7404 17.31C50.1404 17.31 50.5404 17.31 50.9004 17.32C50.8904 18.19 50.8804 19.28 50.8604 20H53.3904C53.3604 18.92 53.3504 17.84 53.3504 16.25C53.3504 14.66 53.3604 13.53 53.3904 12.5H50.8604ZM54.2139 12.5C54.2239 12.78 54.2239 13.21 54.2239 13.6C54.2239 13.97 54.2239 14.44 54.2139 14.74C54.8139 14.73 55.4039 14.72 55.9439 14.72C55.9439 17.14 55.9339 19.47 55.9039 20.01C56.2639 19.98 56.8139 19.98 57.2139 19.98C57.6139 19.98 58.1839 19.98 58.5339 20.01C58.5039 19.47 58.4939 17.13 58.4939 14.72C59.0339 14.72 59.6239 14.73 60.2139 14.74C60.2039 14.44 60.2039 13.97 60.2039 13.6C60.2039 13.21 60.2039 12.78 60.2139 12.5H54.2139Z" fill="black"/>
</svg>
