<svg width="264" height="65" viewBox="0 0 264 65" fill="none" xmlns="http://www.w3.org/2000/svg">
<g filter="url(#filter0_d_1101_1527)">
<rect x="4.625" y="0.625" width="254.75" height="55.75" rx="14.375" fill="#FEF8E5" stroke="black" stroke-width="1.25"/>
<path d="M32.1767 29C32.7367 29.016 33.9687 29.032 35.3127 29.048C36.8807 29.048 37.6647 28.264 37.6647 26.984C37.6647 25.384 36.8647 24.904 35.0247 24.904C34.4647 24.904 33.0247 24.92 32.1767 24.952C32.1767 26.328 32.1607 27.704 32.1767 29ZM37.0887 30.104V30.168C38.7047 30.376 39.2487 30.824 39.8247 32.504C40.1927 33.592 40.4967 34.504 40.7047 35H38.4487C38.0167 35 37.9687 34.856 37.6807 33.8C36.9607 31.336 36.6727 30.808 35.1847 30.808C34.1767 30.808 33.6007 30.824 32.1927 30.824C32.2087 32.52 32.2567 33.992 32.3367 35H29.8567C29.8727 33.256 29.9047 31.56 29.9047 29C29.9047 26.456 29.8887 24.728 29.8567 23H35.5047C38.3207 23 39.9527 24.184 39.9527 26.648C39.9527 28.632 39.0887 29.768 37.0887 30.104ZM42.7458 23H51.9778C51.9618 23.208 51.9618 23.64 51.9618 23.944C51.9618 24.28 51.9618 24.776 51.9778 25.016C49.5938 25 47.0178 24.984 45.1138 24.984V28.024C47.4178 28.024 49.9138 28.024 51.8338 27.976C51.8178 28.408 51.8178 29.448 51.8178 29.88C49.9298 29.848 47.3858 29.848 45.1138 29.848V32.936C47.0178 32.936 49.6738 32.92 51.9778 32.904C51.9618 33.16 51.9618 33.64 51.9618 34.008C51.9618 34.296 51.9618 34.744 51.9778 35H42.7458C42.7938 33.48 42.7938 31.56 42.7938 29C42.7938 26.456 42.7938 24.424 42.7458 23ZM68.1877 35H65.8037C65.8837 32.632 65.8997 30.728 65.9157 28.152C65.9157 27.256 65.9637 26.248 65.9957 25.304L65.9157 25.288C65.6277 26.232 65.2917 27.224 64.9557 27.992L61.8997 35H60.8437L57.7397 27.832C57.3877 27.016 57.0517 26.072 56.7637 25.208L56.6677 25.224C56.6997 26.232 56.7637 27.272 56.7797 28.248C56.7797 30.856 56.8117 32.6 56.8597 35H54.7317C54.7797 33.272 54.7797 31.528 54.7797 28.984C54.7797 26.36 54.7797 24.568 54.7477 23H57.8037C58.3317 24.152 59.4997 26.92 60.6997 29.624C60.9557 30.2 61.2757 31.016 61.5477 31.784H61.6117C61.8837 31.048 62.1877 30.28 62.4757 29.656C63.6277 26.984 64.8117 24.2 65.3557 23H68.1717C68.1237 24.568 68.1077 26.36 68.1077 28.984C68.1077 31.528 68.1237 33.272 68.1877 35ZM82.3974 28.872C82.3974 32.952 80.1094 35.224 76.4774 35.224C72.8454 35.224 70.5894 32.952 70.5894 28.872C70.5894 24.792 72.9734 22.776 76.4774 22.776C79.9974 22.776 82.3974 24.792 82.3974 28.872ZM76.4934 33.112C78.7174 33.112 79.9974 31.672 79.9974 28.952C79.9974 26.232 78.7014 24.872 76.4934 24.872C74.2694 24.872 72.9574 26.2 72.9574 28.952C72.9574 31.688 74.2694 33.112 76.4934 33.112ZM92.3362 23H94.9922C93.9042 25.784 91.3762 33.112 90.8002 35C90.3362 34.984 89.7442 34.984 89.0722 34.984C88.2242 34.984 87.6802 34.984 87.3282 35C86.7042 33.096 84.2242 25.736 83.0722 23H85.8882C86.1762 24.28 87.4722 28.136 88.3362 30.824C88.6882 31.88 88.9442 32.664 89.1042 33.272C89.2962 32.648 89.5362 31.848 89.9042 30.776C90.7522 28.104 92.0162 24.184 92.3362 23ZM96.5427 23H105.775C105.759 23.208 105.759 23.64 105.759 23.944C105.759 24.28 105.759 24.776 105.775 25.016C103.391 25 100.815 24.984 98.9107 24.984V28.024C101.215 28.024 103.711 28.024 105.631 27.976C105.615 28.408 105.615 29.448 105.615 29.88C103.727 29.848 101.183 29.848 98.9107 29.848V32.936C100.815 32.936 103.471 32.92 105.775 32.904C105.759 33.16 105.759 33.64 105.759 34.008C105.759 34.296 105.759 34.744 105.775 35H96.5427C96.5907 33.48 96.5907 31.56 96.5907 29C96.5907 26.456 96.5907 24.424 96.5427 23ZM113.136 23H122.272C122.272 23.256 122.256 23.64 122.256 23.96C122.256 24.344 122.272 24.76 122.272 25.08C119.84 25.064 117.44 25.048 115.52 25.048C115.504 26.232 115.504 27.656 115.504 28.664V28.888C117.856 28.888 120.16 28.872 122.16 28.84C122.128 29.352 122.128 30.312 122.128 30.792C120.16 30.808 117.84 30.776 115.52 30.776C115.536 32.28 115.552 33.88 115.6 35H113.136C113.168 33.368 113.184 31.544 113.184 29C113.184 26.456 113.184 24.632 113.136 23ZM126.974 29C127.534 29.016 128.766 29.032 130.11 29.048C131.678 29.048 132.462 28.264 132.462 26.984C132.462 25.384 131.662 24.904 129.822 24.904C129.262 24.904 127.822 24.92 126.974 24.952C126.974 26.328 126.958 27.704 126.974 29ZM131.886 30.104V30.168C133.502 30.376 134.046 30.824 134.622 32.504C134.99 33.592 135.294 34.504 135.502 35H133.246C132.814 35 132.766 34.856 132.478 33.8C131.758 31.336 131.47 30.808 129.982 30.808C128.974 30.808 128.398 30.824 126.99 30.824C127.006 32.52 127.054 33.992 127.134 35H124.654C124.67 33.256 124.702 31.56 124.702 29C124.702 26.456 124.686 24.728 124.654 23H130.302C133.118 23 134.75 24.184 134.75 26.648C134.75 28.632 133.886 29.768 131.886 30.104ZM148.46 28.872C148.46 32.952 146.172 35.224 142.54 35.224C138.908 35.224 136.652 32.952 136.652 28.872C136.652 24.792 139.036 22.776 142.54 22.776C146.06 22.776 148.46 24.792 148.46 28.872ZM142.556 33.112C144.78 33.112 146.06 31.672 146.06 28.952C146.06 26.232 144.764 24.872 142.556 24.872C140.332 24.872 139.02 26.2 139.02 28.952C139.02 31.688 140.332 33.112 142.556 33.112ZM164.297 35H161.913C161.993 32.632 162.009 30.728 162.025 28.152C162.025 27.256 162.073 26.248 162.105 25.304L162.025 25.288C161.737 26.232 161.401 27.224 161.065 27.992L158.009 35H156.953L153.849 27.832C153.497 27.016 153.161 26.072 152.873 25.208L152.777 25.224C152.809 26.232 152.873 27.272 152.889 28.248C152.889 30.856 152.921 32.6 152.969 35H150.841C150.889 33.272 150.889 31.528 150.889 28.984C150.889 26.36 150.889 24.568 150.857 23H153.913C154.441 24.152 155.609 26.92 156.809 29.624C157.065 30.2 157.385 31.016 157.657 31.784H157.721C157.993 31.048 158.297 30.28 158.585 29.656C159.737 26.984 160.921 24.2 161.465 23H164.281C164.233 24.568 164.217 26.36 164.217 28.984C164.217 31.528 164.233 33.272 164.297 35ZM182.347 28.552C182.635 32.824 181.723 35.208 177.179 35.208C173.403 35.208 171.355 32.76 171.355 28.888C171.355 25 173.419 22.792 177.227 22.792C180.923 22.792 182.395 24.712 182.395 26.728C182.395 26.952 182.395 27.128 182.379 27.352C182.107 27.336 181.691 27.32 181.259 27.32C180.779 27.32 180.347 27.32 180.059 27.352C180.075 27.208 180.075 27.064 180.075 26.952C180.075 25.544 179.131 24.776 177.211 24.776C175.003 24.776 173.739 25.88 173.739 28.92C173.739 31.88 174.955 33.256 177.275 33.256C179.419 33.256 180.187 32.392 180.139 30.136C179.051 30.152 177.515 30.152 176.619 30.184C176.635 30.024 176.635 29.704 176.635 29.528C176.635 29.128 176.635 28.808 176.619 28.536C177.595 28.568 178.571 28.568 179.291 28.568C180.107 28.568 181.259 28.584 182.347 28.552ZM187.458 29C188.018 29.016 189.25 29.032 190.594 29.048C192.162 29.048 192.946 28.264 192.946 26.984C192.946 25.384 192.146 24.904 190.306 24.904C189.746 24.904 188.306 24.92 187.458 24.952C187.458 26.328 187.442 27.704 187.458 29ZM192.37 30.104V30.168C193.986 30.376 194.53 30.824 195.106 32.504C195.474 33.592 195.778 34.504 195.986 35H193.73C193.298 35 193.25 34.856 192.962 33.8C192.242 31.336 191.954 30.808 190.466 30.808C189.458 30.808 188.882 30.824 187.474 30.824C187.49 32.52 187.538 33.992 187.618 35H185.138C185.154 33.256 185.186 31.56 185.186 29C185.186 26.456 185.17 24.728 185.138 23H190.786C193.602 23 195.234 24.184 195.234 26.648C195.234 28.632 194.37 29.768 192.37 30.104ZM208.944 28.872C208.944 32.952 206.656 35.224 203.024 35.224C199.392 35.224 197.136 32.952 197.136 28.872C197.136 24.792 199.52 22.776 203.024 22.776C206.544 22.776 208.944 24.792 208.944 28.872ZM203.04 33.112C205.264 33.112 206.544 31.672 206.544 28.952C206.544 26.232 205.248 24.872 203.04 24.872C200.816 24.872 199.504 26.2 199.504 28.952C199.504 31.688 200.816 33.112 203.04 33.112ZM219.501 23H221.933C221.885 23.976 221.869 24.936 221.869 26.392C221.869 27.384 221.901 28.856 221.901 30.104C221.901 33.272 220.349 35.208 216.621 35.208C212.893 35.208 211.325 33.272 211.325 30.104C211.325 28.856 211.357 27.384 211.357 26.392C211.357 24.936 211.341 23.96 211.293 23H213.757C213.693 24.632 213.661 28.2 213.661 30.024C213.661 32.168 214.653 33.112 216.669 33.112C218.653 33.112 219.565 32.168 219.565 30.024C219.565 28.2 219.533 24.616 219.501 23ZM229.686 29.624C231.814 29.624 232.694 29 232.694 27.32C232.694 25.672 231.766 25.016 229.798 25.016C229.302 25.016 228.07 25.032 227.35 25.048C227.35 26.632 227.35 28.184 227.35 29.592C227.814 29.608 228.71 29.624 229.686 29.624ZM224.95 23H230.198C233.206 23 235.014 24.216 235.014 27.352C235.014 30.28 233.19 31.656 230.118 31.656C229.126 31.656 228.55 31.64 227.366 31.608C227.398 32.936 227.43 34.104 227.478 35H224.95C225.014 33.272 225.014 31.56 225.014 29C225.014 26.456 225.014 24.616 224.95 23Z" fill="black"/>
</g>
<defs>
<filter id="filter0_d_1101_1527" x="0" y="0" width="264" height="65" filterUnits="userSpaceOnUse" color-interpolation-filters="sRGB">
<feFlood flood-opacity="0" result="BackgroundImageFix"/>
<feColorMatrix in="SourceAlpha" type="matrix" values="0 0 0 0 0 0 0 0 0 0 0 0 0 0 0 0 0 0 127 0" result="hardAlpha"/>
<feOffset dy="4"/>
<feGaussianBlur stdDeviation="2"/>
<feComposite in2="hardAlpha" operator="out"/>
<feColorMatrix type="matrix" values="0 0 0 0 0 0 0 0 0 0 0 0 0 0 0 0 0 0 0.25 0"/>
<feBlend mode="normal" in2="BackgroundImageFix" result="effect1_dropShadow_1101_1527"/>
<feBlend mode="normal" in="SourceGraphic" in2="effect1_dropShadow_1101_1527" result="shape"/>
</filter>
</defs>
</svg>
