<svg width="264" height="65" viewBox="0 0 264 65" fill="none" xmlns="http://www.w3.org/2000/svg">
<g filter="url(#filter0_d_1001_5252)">
<rect x="4.625" y="0.625" width="254.75" height="55.75" rx="11.875" fill="#FEF8E5" stroke="black" stroke-width="1.25"/>
<path d="M61.0283 29C61.5883 29.016 62.8203 29.032 64.1643 29.048C65.7323 29.048 66.5163 28.264 66.5163 26.984C66.5163 25.384 65.7163 24.904 63.8763 24.904C63.3163 24.904 61.8763 24.92 61.0283 24.952C61.0283 26.328 61.0123 27.704 61.0283 29ZM65.9403 30.104V30.168C67.5563 30.376 68.1003 30.824 68.6763 32.504C69.0443 33.592 69.3483 34.504 69.5563 35H67.3003C66.8683 35 66.8203 34.856 66.5323 33.8C65.8123 31.336 65.5243 30.808 64.0363 30.808C63.0283 30.808 62.4523 30.824 61.0443 30.824C61.0603 32.52 61.1083 33.992 61.1883 35H58.7083C58.7243 33.256 58.7563 31.56 58.7563 29C58.7563 26.456 58.7403 24.728 58.7083 23H64.3563C67.1723 23 68.8043 24.184 68.8043 26.648C68.8043 28.632 67.9403 29.768 65.9403 30.104ZM71.5974 23H80.8294C80.8134 23.208 80.8134 23.64 80.8134 23.944C80.8134 24.28 80.8134 24.776 80.8294 25.016C78.4454 25 75.8694 24.984 73.9654 24.984V28.024C76.2694 28.024 78.7654 28.024 80.6854 27.976C80.6694 28.408 80.6694 29.448 80.6694 29.88C78.7814 29.848 76.2374 29.848 73.9654 29.848V32.936C75.8694 32.936 78.5254 32.92 80.8294 32.904C80.8134 33.16 80.8134 33.64 80.8134 34.008C80.8134 34.296 80.8134 34.744 80.8294 35H71.5974C71.6454 33.48 71.6454 31.56 71.6454 29C71.6454 26.456 71.6454 24.424 71.5974 23ZM91.9833 23H94.1593C94.1433 24.328 94.1113 26.44 94.1113 28.984C94.1113 31.624 94.1113 33.416 94.1433 35H91.6793C91.0233 33.8 88.7193 30.456 86.8953 27.816C86.3993 27.032 85.9513 26.216 85.5993 25.432H85.5833C85.6473 26.456 85.6953 27.432 85.7113 28.344C85.7273 31.752 85.7273 34.072 85.7593 35H83.5673C83.5833 33.432 83.5993 31.56 83.5993 29C83.5993 26.456 83.5993 24.472 83.5673 23H86.4153C86.9273 23.928 89.3913 27.416 91.0712 29.992C91.4873 30.632 91.8873 31.416 92.2073 32.168L92.2393 32.152C92.1593 31.208 92.1113 30.296 92.1113 29.448C92.1113 26.984 92.0633 24.136 91.9833 23ZM102.008 30.488C102.616 30.488 103.448 30.488 104.216 30.472C103.767 29.16 103.304 27.784 102.904 26.664C102.472 25.544 102.216 24.76 102.024 24.2C101.832 24.776 101.576 25.544 101.144 26.744C100.76 27.848 100.312 29.192 99.8635 30.472C100.616 30.488 101.432 30.488 102.008 30.488ZM108.424 35H105.672C105.56 34.536 105.24 33.496 104.808 32.216C103.816 32.216 102.792 32.216 102.008 32.216C101.304 32.216 100.232 32.216 99.2555 32.216C98.8395 33.448 98.5035 34.472 98.3435 35H95.7835C96.9515 32.2 99.6715 24.712 100.264 23H103.848C104.503 24.76 107.16 32.04 108.424 35ZM123.524 35H121.14C121.22 32.632 121.236 30.728 121.252 28.152C121.252 27.256 121.3 26.248 121.332 25.304L121.252 25.288C120.964 26.232 120.628 27.224 120.292 27.992L117.236 35H116.18L113.076 27.832C112.724 27.016 112.388 26.072 112.1 25.208L112.004 25.224C112.036 26.232 112.1 27.272 112.116 28.248C112.116 30.856 112.148 32.6 112.196 35H110.068C110.116 33.272 110.116 31.528 110.116 28.984C110.116 26.36 110.116 24.568 110.084 23H113.14C113.668 24.152 114.836 26.92 116.036 29.624C116.292 30.2 116.612 31.016 116.884 31.784H116.948C117.22 31.048 117.524 30.28 117.812 29.656C118.964 26.984 120.148 24.2 120.692 23H123.508C123.46 24.568 123.444 26.36 123.444 28.984C123.444 31.528 123.46 33.272 123.524 35ZM126.597 23H135.829C135.813 23.208 135.813 23.64 135.813 23.944C135.813 24.28 135.813 24.776 135.829 25.016C133.445 25 130.869 24.984 128.965 24.984V28.024C131.269 28.024 133.765 28.024 135.685 27.976C135.669 28.408 135.669 29.448 135.669 29.88C133.781 29.848 131.237 29.848 128.965 29.848V32.936C130.869 32.936 133.525 32.92 135.829 32.904C135.813 33.16 135.813 33.64 135.813 34.008C135.813 34.296 135.813 34.744 135.829 35H126.597C126.645 33.48 126.645 31.56 126.645 29C126.645 26.456 126.645 24.424 126.597 23ZM153.495 28.552C153.783 32.824 152.871 35.208 148.327 35.208C144.551 35.208 142.503 32.76 142.503 28.888C142.503 25 144.567 22.792 148.375 22.792C152.071 22.792 153.543 24.712 153.543 26.728C153.543 26.952 153.543 27.128 153.527 27.352C153.255 27.336 152.839 27.32 152.407 27.32C151.927 27.32 151.495 27.32 151.207 27.352C151.223 27.208 151.223 27.064 151.223 26.952C151.223 25.544 150.279 24.776 148.359 24.776C146.151 24.776 144.887 25.88 144.887 28.92C144.887 31.88 146.103 33.256 148.423 33.256C150.567 33.256 151.335 32.392 151.287 30.136C150.199 30.152 148.663 30.152 147.767 30.184C147.783 30.024 147.783 29.704 147.783 29.528C147.783 29.128 147.783 28.808 147.767 28.536C148.743 28.568 149.719 28.568 150.439 28.568C151.255 28.568 152.407 28.584 153.495 28.552ZM158.606 29C159.166 29.016 160.398 29.032 161.742 29.048C163.31 29.048 164.094 28.264 164.094 26.984C164.094 25.384 163.294 24.904 161.454 24.904C160.894 24.904 159.454 24.92 158.606 24.952C158.606 26.328 158.59 27.704 158.606 29ZM163.518 30.104V30.168C165.134 30.376 165.678 30.824 166.254 32.504C166.622 33.592 166.926 34.504 167.134 35H164.878C164.446 35 164.398 34.856 164.11 33.8C163.39 31.336 163.102 30.808 161.614 30.808C160.606 30.808 160.03 30.824 158.622 30.824C158.638 32.52 158.686 33.992 158.766 35H156.286C156.302 33.256 156.334 31.56 156.334 29C156.334 26.456 156.318 24.728 156.286 23H161.934C164.75 23 166.382 24.184 166.382 26.648C166.382 28.632 165.518 29.768 163.518 30.104ZM180.093 28.872C180.093 32.952 177.805 35.224 174.173 35.224C170.541 35.224 168.285 32.952 168.285 28.872C168.285 24.792 170.669 22.776 174.173 22.776C177.693 22.776 180.093 24.792 180.093 28.872ZM174.189 33.112C176.413 33.112 177.693 31.672 177.693 28.952C177.693 26.232 176.397 24.872 174.189 24.872C171.965 24.872 170.653 26.2 170.653 28.952C170.653 31.688 171.965 33.112 174.189 33.112ZM190.65 23H193.082C193.034 23.976 193.018 24.936 193.018 26.392C193.018 27.384 193.05 28.856 193.05 30.104C193.05 33.272 191.498 35.208 187.77 35.208C184.042 35.208 182.474 33.272 182.474 30.104C182.474 28.856 182.506 27.384 182.506 26.392C182.506 24.936 182.49 23.96 182.442 23H184.906C184.842 24.632 184.81 28.2 184.81 30.024C184.81 32.168 185.802 33.112 187.818 33.112C189.802 33.112 190.714 32.168 190.714 30.024C190.714 28.2 190.682 24.616 190.65 23ZM200.834 29.624C202.962 29.624 203.842 29 203.842 27.32C203.842 25.672 202.914 25.016 200.946 25.016C200.45 25.016 199.218 25.032 198.498 25.048C198.498 26.632 198.498 28.184 198.498 29.592C198.962 29.608 199.858 29.624 200.834 29.624ZM196.098 23H201.346C204.354 23 206.162 24.216 206.162 27.352C206.162 30.28 204.338 31.656 201.266 31.656C200.274 31.656 199.698 31.64 198.514 31.608C198.546 32.936 198.578 34.104 198.626 35H196.098C196.162 33.272 196.162 31.56 196.162 29C196.162 26.456 196.162 24.616 196.098 23Z" fill="black"/>
</g>
<defs>
<filter id="filter0_d_1001_5252" x="0" y="0" width="264" height="65" filterUnits="userSpaceOnUse" color-interpolation-filters="sRGB">
<feFlood flood-opacity="0" result="BackgroundImageFix"/>
<feColorMatrix in="SourceAlpha" type="matrix" values="0 0 0 0 0 0 0 0 0 0 0 0 0 0 0 0 0 0 127 0" result="hardAlpha"/>
<feOffset dy="4"/>
<feGaussianBlur stdDeviation="2"/>
<feComposite in2="hardAlpha" operator="out"/>
<feColorMatrix type="matrix" values="0 0 0 0 0 0 0 0 0 0 0 0 0 0 0 0 0 0 0.25 0"/>
<feBlend mode="normal" in2="BackgroundImageFix" result="effect1_dropShadow_1001_5252"/>
<feBlend mode="normal" in="SourceGraphic" in2="effect1_dropShadow_1001_5252" result="shape"/>
</filter>
</defs>
</svg>
