<svg width="390" height="844" viewBox="0 0 390 844" fill="none" xmlns="http://www.w3.org/2000/svg">
<path d="M310.268 -2.64826e-05C317.728 -2.64826e-05 322.772 6.33185 328.094 13.4037C347.633 39.3682 364.635 75.0391 377.3 108.458C385.978 131.359 396.573 168.995 387.571 195.198C379.719 218.055 356.102 209.548 343.06 203.751C306.338 187.426 266.259 147.805 265.719 86.7088C265.534 65.8643 277.04 59.4762 290.348 62.7287C311.748 67.9589 332.97 94.6977 344.285 120.055C364.046 164.341 371.053 266.243 334.378 299.071C305.483 324.935 269.867 286.295 263.372 243.218C260.967 227.263 269.712 238.876 273.667 244.923C287.488 266.05 300.43 290.367 308.04 317.432C313.852 338.106 318.609 368.271 302.605 381.851C289.994 392.552 271.986 385.948 259.785 377.137C253.362 372.498 246.793 361.839 239.813 359.516C233.318 357.355 241.224 389.462 241.99 392.55C246.077 409.039 277.88 526.128 238.124 508.238C232.01 505.487 203.989 461.484 200.992 478.764C191.831 531.581 217.531 606.215 172.95 636.281C156.411 647.435 135.351 645.158 117.525 644.451C106.216 644.002 98.2489 637.372 93.7377 622.403C93.1313 620.391 89.0264 601.291 94.5229 604.46C106.346 611.276 107.332 657.602 107.332 671.398C107.332 708.584 93.6062 740.613 80.4967 771.329C69.5355 797.011 57.0671 821.183 38.6041 836.414C31.045 842.651 20.1443 848.57 12.6815 838.863C8.75848 833.76 6.7111 827.041 0.999988 827.041" stroke="#D7EE00" stroke-width="8" stroke-linecap="round" stroke-linejoin="round"/>
</svg>
