<svg width="264" height="65" viewBox="0 0 264 65" fill="none" xmlns="http://www.w3.org/2000/svg">
<g filter="url(#filter0_d_1101_1524)">
<rect x="4.625" y="0.625" width="254.75" height="55.75" rx="14.375" fill="#FEF8E5" stroke="black" stroke-width="1.25"/>
<path d="M49.3408 29C49.9008 29.016 51.1328 29.032 52.4768 29.048C54.0448 29.048 54.8288 28.264 54.8288 26.984C54.8288 25.384 54.0288 24.904 52.1888 24.904C51.6288 24.904 50.1888 24.92 49.3408 24.952C49.3408 26.328 49.3248 27.704 49.3408 29ZM54.2528 30.104V30.168C55.8688 30.376 56.4128 30.824 56.9888 32.504C57.3568 33.592 57.6608 34.504 57.8688 35H55.6128C55.1808 35 55.1328 34.856 54.8448 33.8C54.1248 31.336 53.8368 30.808 52.3488 30.808C51.3408 30.808 50.7648 30.824 49.3568 30.824C49.3728 32.52 49.4208 33.992 49.5008 35H47.0208C47.0368 33.256 47.0688 31.56 47.0688 29C47.0688 26.456 47.0528 24.728 47.0208 23H52.6688C55.4848 23 57.1168 24.184 57.1168 26.648C57.1168 28.632 56.2528 29.768 54.2528 30.104ZM59.9099 23H69.1419C69.1259 23.208 69.1259 23.64 69.1259 23.944C69.1259 24.28 69.1259 24.776 69.1419 25.016C66.7579 25 64.1819 24.984 62.2779 24.984V28.024C64.5819 28.024 67.0779 28.024 68.9979 27.976C68.9819 28.408 68.9819 29.448 68.9819 29.88C67.0939 29.848 64.5499 29.848 62.2779 29.848V32.936C64.1819 32.936 66.8379 32.92 69.1419 32.904C69.1259 33.16 69.1259 33.64 69.1259 34.008C69.1259 34.296 69.1259 34.744 69.1419 35H59.9099C59.9579 33.48 59.9579 31.56 59.9579 29C59.9579 26.456 59.9579 24.424 59.9099 23ZM80.2958 23H82.4718C82.4558 24.328 82.4238 26.44 82.4238 28.984C82.4238 31.624 82.4238 33.416 82.4558 35H79.9918C79.3358 33.8 77.0318 30.456 75.2078 27.816C74.7118 27.032 74.2638 26.216 73.9118 25.432H73.8958C73.9598 26.456 74.0078 27.432 74.0238 28.344C74.0398 31.752 74.0398 34.072 74.0718 35H71.8798C71.8958 33.432 71.9118 31.56 71.9118 29C71.9118 26.456 71.9118 24.472 71.8798 23H74.7278C75.2398 23.928 77.7038 27.416 79.3837 29.992C79.7998 30.632 80.1998 31.416 80.5198 32.168L80.5518 32.152C80.4718 31.208 80.4238 30.296 80.4238 29.448C80.4238 26.984 80.3758 24.136 80.2958 23ZM90.32 30.488C90.928 30.488 91.76 30.488 92.528 30.472C92.08 29.16 91.616 27.784 91.216 26.664C90.784 25.544 90.528 24.76 90.336 24.2C90.144 24.776 89.888 25.544 89.456 26.744C89.072 27.848 88.624 29.192 88.176 30.472C88.928 30.488 89.744 30.488 90.32 30.488ZM96.736 35H93.984C93.872 34.536 93.552 33.496 93.12 32.216C92.128 32.216 91.104 32.216 90.32 32.216C89.616 32.216 88.544 32.216 87.568 32.216C87.152 33.448 86.816 34.472 86.656 35H84.096C85.264 32.2 87.984 24.712 88.576 23H92.16C92.816 24.76 95.472 32.04 96.736 35ZM111.836 35H109.452C109.532 32.632 109.548 30.728 109.564 28.152C109.564 27.256 109.612 26.248 109.644 25.304L109.564 25.288C109.276 26.232 108.94 27.224 108.604 27.992L105.548 35H104.492L101.388 27.832C101.036 27.016 100.7 26.072 100.412 25.208L100.316 25.224C100.348 26.232 100.412 27.272 100.428 28.248C100.428 30.856 100.46 32.6 100.508 35H98.3801C98.4281 33.272 98.4281 31.528 98.4281 28.984C98.4281 26.36 98.4281 24.568 98.3961 23H101.452C101.98 24.152 103.148 26.92 104.348 29.624C104.604 30.2 104.924 31.016 105.196 31.784H105.26C105.532 31.048 105.836 30.28 106.124 29.656C107.276 26.984 108.46 24.2 109.004 23H111.82C111.772 24.568 111.756 26.36 111.756 28.984C111.756 31.528 111.772 33.272 111.836 35ZM114.91 23H124.142C124.126 23.208 124.126 23.64 124.126 23.944C124.126 24.28 124.126 24.776 124.142 25.016C121.758 25 119.182 24.984 117.278 24.984V28.024C119.582 28.024 122.078 28.024 123.998 27.976C123.982 28.408 123.982 29.448 123.982 29.88C122.094 29.848 119.55 29.848 117.278 29.848V32.936C119.182 32.936 121.838 32.92 124.142 32.904C124.126 33.16 124.126 33.64 124.126 34.008C124.126 34.296 124.126 34.744 124.142 35H114.91C114.958 33.48 114.958 31.56 114.958 29C114.958 26.456 114.958 24.424 114.91 23ZM136.272 29.624C138.4 29.624 139.28 29 139.28 27.32C139.28 25.672 138.352 25.016 136.384 25.016C135.888 25.016 134.656 25.032 133.936 25.048C133.936 26.632 133.936 28.184 133.936 29.592C134.4 29.608 135.296 29.624 136.272 29.624ZM131.536 23H136.784C139.792 23 141.6 24.216 141.6 27.352C141.6 30.28 139.776 31.656 136.704 31.656C135.712 31.656 135.136 31.64 133.952 31.608C133.984 32.936 134.016 34.104 134.064 35H131.536C131.6 33.272 131.6 31.56 131.6 29C131.6 26.456 131.6 24.616 131.536 23ZM154.733 28.872C154.733 32.952 152.445 35.224 148.813 35.224C145.181 35.224 142.925 32.952 142.925 28.872C142.925 24.792 145.309 22.776 148.813 22.776C152.333 22.776 154.733 24.792 154.733 28.872ZM148.829 33.112C151.053 33.112 152.333 31.672 152.333 28.952C152.333 26.232 151.037 24.872 148.829 24.872C146.605 24.872 145.293 26.2 145.293 28.952C145.293 31.688 146.605 33.112 148.829 33.112ZM161.819 29.624C163.947 29.624 164.827 29 164.827 27.32C164.827 25.672 163.899 25.016 161.931 25.016C161.435 25.016 160.203 25.032 159.483 25.048C159.483 26.632 159.483 28.184 159.483 29.592C159.947 29.608 160.843 29.624 161.819 29.624ZM157.083 23H162.331C165.339 23 167.147 24.216 167.147 27.352C167.147 30.28 165.323 31.656 162.251 31.656C161.259 31.656 160.683 31.64 159.499 31.608C159.531 32.936 159.562 34.104 159.611 35H157.083C157.147 33.272 157.147 31.56 157.147 29C157.147 26.456 157.147 24.616 157.083 23ZM169.192 23H171.64C171.592 23.944 171.56 26.184 171.56 28.968C171.56 30.36 171.576 31.88 171.576 32.904C173.048 32.904 175.08 32.904 176.744 32.856C176.744 33.208 176.728 33.576 176.728 33.928C176.728 34.296 176.744 34.648 176.744 35H169.192C169.192 33.992 169.24 31.56 169.24 29C169.24 26.072 169.24 24.136 169.192 23ZM181.015 35H178.583C178.631 33.272 178.631 31.544 178.631 29C178.631 26.44 178.631 24.712 178.583 23H181.015C180.967 24.696 180.967 26.424 180.967 28.984C180.967 31.528 180.967 33.256 181.015 35ZM194.339 28.552C194.627 32.824 193.715 35.208 189.171 35.208C185.395 35.208 183.347 32.76 183.347 28.888C183.347 25 185.411 22.792 189.219 22.792C192.915 22.792 194.387 24.712 194.387 26.728C194.387 26.952 194.387 27.128 194.371 27.352C194.099 27.336 193.683 27.32 193.251 27.32C192.771 27.32 192.339 27.32 192.051 27.352C192.067 27.208 192.067 27.064 192.067 26.952C192.067 25.544 191.123 24.776 189.203 24.776C186.995 24.776 185.731 25.88 185.731 28.92C185.731 31.88 186.947 33.256 189.267 33.256C191.411 33.256 192.179 32.392 192.131 30.136C191.043 30.152 189.507 30.152 188.611 30.184C188.627 30.024 188.627 29.704 188.627 29.528C188.627 29.128 188.627 28.808 188.611 28.536C189.587 28.568 190.563 28.568 191.283 28.568C192.099 28.568 193.251 28.584 194.339 28.552ZM205.402 23H207.882C207.834 24.6 207.818 26.456 207.818 29C207.818 31.544 207.834 33.272 207.882 35H205.402C205.45 33.704 205.466 31.512 205.466 30.12C204.57 30.104 203.498 30.104 202.474 30.104C201.466 30.104 200.394 30.104 199.482 30.12C199.482 31.512 199.498 33.704 199.546 35H197.082C197.146 33.272 197.13 31.544 197.13 29C197.13 26.456 197.146 24.6 197.082 23H199.546C199.498 24.216 199.482 26.488 199.482 27.96C200.394 27.976 201.466 27.992 202.474 27.992C203.498 27.992 204.57 27.976 205.466 27.96C205.466 26.488 205.45 24.2 205.402 23ZM209.727 23H219.183V24.024V25.08C217.935 25.064 216.687 25.048 215.615 25.048C215.615 29.528 215.615 34.008 215.663 35.016C215.327 34.984 214.815 34.984 214.447 34.984C214.111 34.984 213.615 34.984 213.263 35.016C213.311 34.024 213.311 29.544 213.311 25.048C212.239 25.048 210.991 25.064 209.727 25.08V24.024V23Z" fill="black"/>
</g>
<defs>
<filter id="filter0_d_1101_1524" x="0" y="0" width="264" height="65" filterUnits="userSpaceOnUse" color-interpolation-filters="sRGB">
<feFlood flood-opacity="0" result="BackgroundImageFix"/>
<feColorMatrix in="SourceAlpha" type="matrix" values="0 0 0 0 0 0 0 0 0 0 0 0 0 0 0 0 0 0 127 0" result="hardAlpha"/>
<feOffset dy="4"/>
<feGaussianBlur stdDeviation="2"/>
<feComposite in2="hardAlpha" operator="out"/>
<feColorMatrix type="matrix" values="0 0 0 0 0 0 0 0 0 0 0 0 0 0 0 0 0 0 0.25 0"/>
<feBlend mode="normal" in2="BackgroundImageFix" result="effect1_dropShadow_1101_1524"/>
<feBlend mode="normal" in="SourceGraphic" in2="effect1_dropShadow_1101_1524" result="shape"/>
</filter>
</defs>
</svg>
