<svg width="107" height="65" viewBox="0 0 107 65" fill="none" xmlns="http://www.w3.org/2000/svg">
<g filter="url(#filter0_d_928_1596)">
<rect x="4.5" y="0.5" width="98" height="56" rx="12" fill="#FEF8E5" stroke="black"/>
<path d="M31.8102 33.3119C34.3902 33.3119 35.2902 32.6119 35.2902 31.3519C35.2902 30.1319 34.5302 29.3719 31.1902 28.9319C26.7702 28.3319 25.3902 26.8519 25.3902 24.3719C25.3902 21.8319 27.4102 20.1519 31.5102 20.1519C36.0302 20.1519 37.7902 21.7719 37.7902 24.3919C37.7902 24.7319 37.7702 24.9919 37.7502 25.3519C37.4302 25.3319 36.9302 25.3119 36.4302 25.3119C35.9102 25.3119 35.3702 25.3319 35.0502 25.3519C35.0702 25.1319 35.0702 24.8719 35.0702 24.7119C35.0702 23.3919 34.1902 22.5519 31.4302 22.5519C29.2102 22.5519 28.2902 23.1919 28.2902 24.3519C28.2902 25.3319 28.7902 26.1719 32.2902 26.6519C36.5102 27.2519 38.0702 28.5919 38.0702 31.2719C38.0702 33.9919 36.0902 35.7119 31.8302 35.7119C27.1702 35.7119 25.2102 34.1319 25.2102 31.3319C25.2102 31.0119 25.2102 30.7119 25.2502 30.3719C25.5902 30.4319 26.1102 30.4519 26.6302 30.4519C27.2102 30.4519 27.7302 30.4319 28.1502 30.4119C28.1302 30.5519 28.1302 30.6919 28.1302 30.8319C28.1302 32.5319 29.1702 33.3119 31.8102 33.3119ZM46.8707 29.7919C47.6307 29.7919 48.6707 29.7919 49.6307 29.7719C49.0707 28.1319 48.4907 26.4119 47.9907 25.0119C47.4507 23.6119 47.1307 22.6319 46.8907 21.9319C46.6507 22.6519 46.3307 23.6119 45.7907 25.1119C45.3107 26.4919 44.7507 28.1719 44.1907 29.7719C45.1307 29.7919 46.1507 29.7919 46.8707 29.7919ZM54.8907 35.4319H51.4507C51.3107 34.8519 50.9107 33.5519 50.3707 31.9519C49.1307 31.9519 47.8507 31.9519 46.8707 31.9519C45.9907 31.9519 44.6507 31.9519 43.4307 31.9519C42.9107 33.4919 42.4907 34.7719 42.2907 35.4319H39.0907C40.5507 31.9319 43.9507 22.5719 44.6907 20.4319H49.1707C49.9907 22.6319 53.3107 31.7319 54.8907 35.4319ZM65.7093 20.4319H69.0293C67.6693 23.9119 64.5093 33.0719 63.7893 35.4319C63.2093 35.4119 62.4693 35.4119 61.6293 35.4119C60.5693 35.4119 59.8893 35.4119 59.4493 35.4319C58.6693 33.0519 55.5693 23.8519 54.1293 20.4319H57.6493C58.0093 22.0319 59.6293 26.8519 60.7093 30.2119C61.1493 31.5319 61.4693 32.5119 61.6693 33.2719C61.9093 32.4919 62.2093 31.4919 62.6693 30.1519C63.7293 26.8119 65.3093 21.9119 65.7093 20.4319ZM70.9674 20.4319H82.5074C82.4874 20.6919 82.4874 21.2319 82.4874 21.6119C82.4874 22.0319 82.4874 22.6519 82.5074 22.9519C79.5274 22.9319 76.3074 22.9119 73.9274 22.9119V26.7119C76.8074 26.7119 79.9274 26.7119 82.3274 26.6519C82.3074 27.1919 82.3074 28.4919 82.3074 29.0319C79.9474 28.9919 76.7674 28.9919 73.9274 28.9919V32.8519C76.3074 32.8519 79.6274 32.8319 82.5074 32.8119C82.4874 33.1319 82.4874 33.7319 82.4874 34.1919C82.4874 34.5519 82.4874 35.1119 82.5074 35.4319H70.9674C71.0274 33.5319 71.0274 31.1319 71.0274 27.9319C71.0274 24.7519 71.0274 22.2119 70.9674 20.4319Z" fill="black"/>
</g>
<defs>
<filter id="filter0_d_928_1596" x="0" y="0" width="107" height="65" filterUnits="userSpaceOnUse" color-interpolation-filters="sRGB">
<feFlood flood-opacity="0" result="BackgroundImageFix"/>
<feColorMatrix in="SourceAlpha" type="matrix" values="0 0 0 0 0 0 0 0 0 0 0 0 0 0 0 0 0 0 127 0" result="hardAlpha"/>
<feOffset dy="4"/>
<feGaussianBlur stdDeviation="2"/>
<feComposite in2="hardAlpha" operator="out"/>
<feColorMatrix type="matrix" values="0 0 0 0 0 0 0 0 0 0 0 0 0 0 0 0 0 0 0.25 0"/>
<feBlend mode="normal" in2="BackgroundImageFix" result="effect1_dropShadow_928_1596"/>
<feBlend mode="normal" in="SourceGraphic" in2="effect1_dropShadow_928_1596" result="shape"/>
</filter>
</defs>
</svg>
