<svg width="107" height="65" viewBox="0 0 107 65" fill="none" xmlns="http://www.w3.org/2000/svg">
<g filter="url(#filter0_d_928_1595)">
<rect x="4.5" y="0.5" width="98" height="56" rx="12" fill="#FEF8E5" stroke="black"/>
<path d="M31.1394 33.0319C33.4794 33.0319 34.3394 32.5319 34.3394 30.8519C34.3394 29.3719 33.3994 28.7719 31.0394 28.7719C29.9594 28.7719 28.5794 28.7919 27.2194 28.8119C27.2194 30.2919 27.2194 31.7719 27.2594 32.9919C28.7994 33.0319 30.0794 33.0319 31.1394 33.0319ZM34.1594 24.6119C34.1594 23.1319 33.2594 22.6519 31.0794 22.6519C29.9394 22.6519 28.6394 22.6719 27.2394 22.7119C27.2194 23.8319 27.2194 25.3119 27.2194 26.8119C28.6194 26.8719 29.9194 26.8519 30.9994 26.8519C33.2394 26.8319 34.1594 26.0919 34.1594 24.6119ZM33.5594 27.8319V27.9319C34.2194 27.9919 34.7594 28.0719 35.1794 28.2119C36.5794 28.7119 37.2394 29.7319 37.2394 31.3919C37.2394 34.1319 35.4994 35.4319 31.9794 35.4319H24.2194C24.3194 33.3719 24.3394 31.1119 24.3394 27.9319C24.3394 24.7519 24.3194 22.3919 24.2194 20.4319H31.7394C35.3194 20.4319 37.0394 21.5519 37.0394 24.3119C37.0394 25.9519 36.4994 26.8319 35.3594 27.4119C34.9194 27.6319 34.2994 27.7519 33.5594 27.8319ZM46.3141 29.7919C47.0741 29.7919 48.1141 29.7919 49.0741 29.7719C48.5141 28.1319 47.9341 26.4119 47.4341 25.0119C46.8941 23.6119 46.5741 22.6319 46.3341 21.9319C46.0941 22.6519 45.7741 23.6119 45.2341 25.1119C44.7541 26.4919 44.1941 28.1719 43.6341 29.7719C44.5741 29.7919 45.5941 29.7919 46.3141 29.7919ZM54.3341 35.4319H50.8941C50.7541 34.8519 50.3541 33.5519 49.8141 31.9519C48.5741 31.9519 47.2941 31.9519 46.3141 31.9519C45.4341 31.9519 44.0941 31.9519 42.8741 31.9519C42.3541 33.4919 41.9341 34.7719 41.7341 35.4319H38.5341C39.9941 31.9319 43.3941 22.5719 44.1341 20.4319H48.6141C49.4341 22.6319 52.7541 31.7319 54.3341 35.4319ZM65.7838 26.4919V26.1119C65.7838 23.7319 64.5038 22.7919 62.0238 22.7919C59.4238 22.7919 57.8438 24.1119 57.8438 27.7719C57.8438 31.5119 59.4838 33.0319 62.1238 33.0319C64.7038 33.0319 65.8238 31.7719 65.8238 29.7319V29.3319C66.3238 29.3519 66.7638 29.3519 67.2638 29.3519C67.7438 29.3519 68.2438 29.3519 68.7438 29.3319V29.9119C68.7438 33.4319 66.5238 35.6719 62.1438 35.6719C57.7038 35.6719 54.8238 33.1919 54.8238 27.8519C54.8238 22.9519 57.4238 20.1919 62.1438 20.1919C66.7238 20.1919 68.6838 22.5319 68.6838 25.6519C68.6838 25.9319 68.6838 26.1919 68.6638 26.4919C68.1838 26.4719 67.6838 26.4719 67.2038 26.4719C66.7038 26.4719 66.2638 26.4719 65.7838 26.4919ZM81.3975 20.4319H85.1375C83.3775 22.2919 79.8575 26.1519 77.9375 28.1119C78.5575 28.6119 79.3975 29.3119 80.2175 30.1519C83.1175 32.9519 84.7775 34.7719 85.4575 35.4319H82.0375C81.4775 35.4319 81.1775 35.2919 80.8775 34.9719C79.2575 33.2119 76.6775 30.3719 75.1175 29.1119H74.8375C74.8375 31.4719 74.8575 33.5519 74.9375 35.4319H71.8575C71.8975 33.2319 71.9175 31.1119 71.9175 27.9319C71.9175 24.7319 71.8975 22.5719 71.8575 20.4319H74.9375C74.8375 22.4919 74.8375 24.8519 74.8375 27.6119H75.0575C75.8775 26.8319 76.7175 25.9919 77.5375 25.0719C79.2175 23.2719 80.4575 21.6919 81.3975 20.4319Z" fill="black"/>
</g>
<defs>
<filter id="filter0_d_928_1595" x="0" y="0" width="107" height="65" filterUnits="userSpaceOnUse" color-interpolation-filters="sRGB">
<feFlood flood-opacity="0" result="BackgroundImageFix"/>
<feColorMatrix in="SourceAlpha" type="matrix" values="0 0 0 0 0 0 0 0 0 0 0 0 0 0 0 0 0 0 127 0" result="hardAlpha"/>
<feOffset dy="4"/>
<feGaussianBlur stdDeviation="2"/>
<feComposite in2="hardAlpha" operator="out"/>
<feColorMatrix type="matrix" values="0 0 0 0 0 0 0 0 0 0 0 0 0 0 0 0 0 0 0.25 0"/>
<feBlend mode="normal" in2="BackgroundImageFix" result="effect1_dropShadow_928_1595"/>
<feBlend mode="normal" in="SourceGraphic" in2="effect1_dropShadow_928_1595" result="shape"/>
</filter>
</defs>
</svg>
