<svg width="96" height="21" viewBox="0 0 96 21" fill="none" xmlns="http://www.w3.org/2000/svg">
<path d="M3.99363 4.12C3.50363 4.11 3.06363 4.11 2.78363 4.1C2.77363 3.48 2.77363 2.83 2.77363 2.18C3.16363 2.17 3.65363 2.16 3.86363 2.16C4.61363 2.16 4.95363 2.34 4.95363 3.14C4.95363 3.81 4.65363 4.12 3.99363 4.12ZM5.57363 4.96C6.84363 4.76 7.34363 4.13 7.34363 2.76C7.34363 1.18 6.29363 0.499999 4.46363 0.499999H0.373633C0.403633 1.58 0.413633 2.66 0.413633 4.25C0.413633 5.85 0.393633 6.91 0.373633 8H2.90363C2.84363 7.41 2.81363 6.58 2.79363 5.62C3.27363 5.61 3.48363 5.62 3.84363 5.62C4.45363 5.62 4.59363 5.84 4.83363 7.1C5.00363 7.87 5.07363 8 5.44363 8H7.67363C7.57363 7.66 7.42363 7.03 7.26363 6.46C7.01363 5.45 6.60363 5.15 5.57363 5.02V4.96ZM11.0777 8C11.0577 6.91 11.0577 5.83 11.0577 4.24C11.0577 2.64 11.0577 1.56 11.0777 0.499999H8.5377C8.5677 1.57 8.5677 2.65 8.5677 4.25C8.5677 5.84 8.5677 6.92 8.5377 8H11.0777ZM19.3856 3.82C18.6856 3.84 17.9956 3.83 17.4656 3.83C16.9856 3.83 16.3456 3.83 15.7056 3.82C15.7156 4.02 15.7156 4.28 15.7156 4.59C15.7156 4.75 15.7156 5.11 15.7056 5.26C16.1056 5.25 16.6256 5.24 17.1056 5.24C17.0456 6.04 16.7356 6.35 15.9856 6.35C14.9356 6.35 14.5756 5.71 14.5756 4.2C14.5756 2.6 14.9756 2.1 15.9156 2.1C16.6356 2.1 17.0056 2.37 17.0056 2.98C17.0056 3.05 16.9956 3.14 16.9956 3.22C17.2956 3.2 17.7356 3.2 18.1956 3.2C18.6456 3.2 19.1056 3.21 19.4356 3.22C19.4456 3.07 19.4456 2.94 19.4456 2.8C19.4456 1.46 18.5556 0.37 15.9256 0.37C13.2956 0.37 12.0656 1.58 12.0656 4.17C12.0656 6.77 13.2756 8.13 15.8956 8.13C19.0456 8.13 19.5756 6.69 19.4056 3.82H19.3856ZM25.3975 0.499999C25.4175 1.2 25.4275 2.33 25.4375 3.23C25.0775 3.24 24.6775 3.25 24.2775 3.25C23.8775 3.25 23.4775 3.24 23.1175 3.23C23.1175 2.33 23.1275 1.2 23.1575 0.499999H20.6275C20.6675 1.53 20.6675 2.66 20.6675 4.25C20.6675 5.84 20.6675 6.92 20.6275 8H23.1575C23.1275 7.27 23.1175 6.19 23.1175 5.32C23.4775 5.31 23.8775 5.31 24.2775 5.31C24.6775 5.31 25.0775 5.31 25.4375 5.32C25.4275 6.19 25.4175 7.28 25.3975 8H27.9275C27.8975 6.92 27.8875 5.84 27.8875 4.25C27.8875 2.66 27.8975 1.53 27.9275 0.499999H25.3975ZM28.7511 0.499999C28.7611 0.779999 28.7611 1.21 28.7611 1.6C28.7611 1.97 28.7611 2.44 28.7511 2.74C29.3511 2.73 29.9411 2.72 30.4811 2.72C30.4811 5.14 30.4711 7.47 30.4411 8.01C30.8011 7.98 31.3511 7.98 31.7511 7.98C32.1511 7.98 32.7211 7.98 33.0711 8.01C33.0411 7.47 33.0311 5.13 33.0311 2.72C33.5711 2.72 34.1611 2.73 34.7511 2.74C34.7411 2.44 34.7411 1.97 34.7411 1.6C34.7411 1.21 34.7411 0.779999 34.7511 0.499999H28.7511ZM41.8568 6.37C41.4868 6.37 41.0768 6.37 40.5768 6.35C40.5668 5.89 40.5568 5.36 40.5568 4.82C41.0268 4.81 41.4568 4.8 41.8368 4.8C42.5268 4.8 42.8168 4.99 42.8168 5.57C42.8168 6.19 42.5468 6.37 41.8568 6.37ZM42.7568 2.7C42.7568 3.31 42.4668 3.56 41.8168 3.57C41.4368 3.57 41.0168 3.58 40.5568 3.56C40.5568 3 40.5568 2.46 40.5668 2.02C41.0268 2 41.4468 1.99 41.8468 1.99C42.4868 1.99 42.7568 2.17 42.7568 2.7ZM43.5768 4.18C43.8668 4.15 44.1068 4.1 44.2968 4.02C44.9368 3.75 45.1668 3.34 45.1668 2.48C45.1668 1.01 44.2568 0.499999 42.6168 0.499999H38.1368C38.1868 1.52 38.1868 2.66 38.1868 4.25C38.1868 5.84 38.1868 6.95 38.1368 8H42.7168C44.4968 8 45.2568 7.38 45.2568 6C45.2568 5.11 44.9768 4.59 44.2068 4.34C44.0368 4.28 43.8268 4.25 43.5768 4.23V4.18ZM46.3111 0.499999C46.3411 1.47 46.3411 2.66 46.3411 4.25C46.3411 5.85 46.3411 6.99 46.3111 8H52.3311C52.3111 7.75 52.3111 7.35 52.3111 7.05C52.3111 6.7 52.3111 6.26 52.3311 6.02C51.1911 6.03 49.7911 6.04 48.7811 6.04V4.95C49.9611 4.95 51.2611 4.96 52.2311 4.98C52.2311 4.58 52.2311 3.71 52.2411 3.34C51.2611 3.37 49.9711 3.37 48.7811 3.37V2.32C49.7811 2.32 51.1111 2.33 52.3311 2.34C52.3111 2.12 52.3111 1.69 52.3111 1.38C52.3111 1.09 52.3211 0.71 52.3311 0.499999H46.3111ZM56.8484 6.06C56.5284 6.06 56.2684 6.06 55.9784 6.04C55.9684 5.59 55.9684 5.03 55.9684 4.27C55.9684 3.62 55.9684 2.96 55.9884 2.35C56.2684 2.33 56.5584 2.32 56.8684 2.32C57.8584 2.32 58.2784 2.56 58.2784 4.14C58.2784 5.78 57.8484 6.06 56.8484 6.06ZM53.5084 0.499999C53.5284 1.48 53.5384 2.67 53.5384 4.26C53.5384 5.85 53.5284 6.95 53.5084 8H56.9984C59.7384 8 60.7384 7.05 60.7384 4.05C60.7384 1.25 59.6084 0.499999 57.0484 0.499999H53.5084ZM65.3608 4.12C64.8708 4.11 64.4308 4.11 64.1508 4.1C64.1408 3.48 64.1408 2.83 64.1408 2.18C64.5308 2.17 65.0208 2.16 65.2308 2.16C65.9808 2.16 66.3208 2.34 66.3208 3.14C66.3208 3.81 66.0208 4.12 65.3608 4.12ZM66.9408 4.96C68.2108 4.76 68.7108 4.13 68.7108 2.76C68.7108 1.18 67.6608 0.499999 65.8308 0.499999H61.7408C61.7708 1.58 61.7808 2.66 61.7808 4.25C61.7808 5.85 61.7608 6.91 61.7408 8H64.2708C64.2108 7.41 64.1808 6.58 64.1608 5.62C64.6408 5.61 64.8508 5.62 65.2108 5.62C65.8208 5.62 65.9608 5.84 66.2008 7.1C66.3708 7.87 66.4408 8 66.8108 8H69.0408C68.9408 7.66 68.7908 7.03 68.6308 6.46C68.3808 5.45 67.9708 5.15 66.9408 5.02V4.96ZM77.2772 4.12C77.2772 1.41 75.8072 0.359999 73.3772 0.359999C70.9372 0.359999 69.5072 1.41 69.5072 4.12C69.5072 6.83 70.7972 8.14 73.3672 8.14C75.9372 8.14 77.2772 6.83 77.2772 4.12ZM73.3772 6.12C72.4872 6.12 72.0172 5.52 72.0172 4.15C72.0172 2.8 72.4872 2.27 73.3772 2.27C74.2672 2.27 74.7272 2.82 74.7272 4.15C74.7272 5.5 74.2772 6.12 73.3772 6.12ZM85.7538 4.12C85.7538 1.41 84.2838 0.359999 81.8538 0.359999C79.4138 0.359999 77.9838 1.41 77.9838 4.12C77.9838 6.83 79.2738 8.14 81.8438 8.14C84.4138 8.14 85.7538 6.83 85.7538 4.12ZM81.8538 6.12C80.9638 6.12 80.4938 5.52 80.4938 4.15C80.4938 2.8 80.9638 2.27 81.8538 2.27C82.7438 2.27 83.2038 2.82 83.2038 4.15C83.2038 5.5 82.7538 6.12 81.8538 6.12ZM95.6304 8C95.5904 6.92 95.5804 5.83 95.5804 4.24C95.5804 2.6 95.5904 1.48 95.6204 0.499999H92.7504C92.5204 1.19 92.1104 2.38 91.6904 3.58C91.5804 3.92 91.4604 4.35 91.3404 4.78H91.3104C91.2004 4.35 91.0804 3.9 90.9804 3.57C90.5204 2.35 90.1404 1.2 89.9104 0.499999H86.7804C86.8004 1.48 86.8104 2.6 86.8104 4.24C86.8104 5.83 86.8004 6.92 86.7704 8H88.8604C88.8304 6.86 88.8104 5.95 88.8004 4.69C88.7904 4.14 88.7604 3.62 88.7404 3.08L88.7904 3.07C88.9404 3.61 89.1104 4.17 89.2604 4.59L90.5504 8H91.6104L92.8704 4.67C93.0104 4.26 93.1804 3.69 93.3304 3.12L93.3904 3.13C93.3604 3.67 93.3304 4.23 93.3304 4.72C93.3204 5.96 93.3004 6.84 93.2504 8H95.6304ZM32.2682 12.5C32.2982 13.22 32.2982 14.53 32.2982 16.25C32.2982 17.85 32.2682 19.39 32.2682 20H37.2182C37.2182 19.62 37.2082 19.25 37.2082 18.87C37.2082 18.5 37.2182 18.12 37.2182 17.75C36.4182 17.77 35.4982 17.78 34.8082 17.78C34.7982 17.31 34.7982 16.77 34.7982 16.24C34.8082 14.58 34.8282 13.06 34.8482 12.5H32.2682ZM40.5406 20C40.5206 18.91 40.5206 17.83 40.5206 16.24C40.5206 14.64 40.5206 13.56 40.5406 12.5H38.0006C38.0306 13.57 38.0306 14.65 38.0306 16.25C38.0306 17.84 38.0306 18.92 38.0006 20H40.5406ZM48.8485 15.82C48.1485 15.84 47.4585 15.83 46.9285 15.83C46.4485 15.83 45.8085 15.83 45.1685 15.82C45.1785 16.02 45.1785 16.28 45.1785 16.59C45.1785 16.75 45.1785 17.11 45.1685 17.26C45.5685 17.25 46.0885 17.24 46.5685 17.24C46.5085 18.04 46.1985 18.35 45.4485 18.35C44.3985 18.35 44.0385 17.71 44.0385 16.2C44.0385 14.6 44.4385 14.1 45.3785 14.1C46.0985 14.1 46.4685 14.37 46.4685 14.98C46.4685 15.05 46.4585 15.14 46.4585 15.22C46.7585 15.2 47.1985 15.2 47.6585 15.2C48.1085 15.2 48.5685 15.21 48.8985 15.22C48.9085 15.07 48.9085 14.94 48.9085 14.8C48.9085 13.46 48.0185 12.37 45.3885 12.37C42.7585 12.37 41.5285 13.58 41.5285 16.17C41.5285 18.77 42.7385 20.13 45.3585 20.13C48.5085 20.13 49.0385 18.69 48.8685 15.82H48.8485ZM54.8604 12.5C54.8804 13.2 54.8904 14.33 54.9004 15.23C54.5404 15.24 54.1404 15.25 53.7404 15.25C53.3404 15.25 52.9404 15.24 52.5804 15.23C52.5804 14.33 52.5904 13.2 52.6204 12.5H50.0904C50.1304 13.53 50.1304 14.66 50.1304 16.25C50.1304 17.84 50.1304 18.92 50.0904 20H52.6204C52.5904 19.27 52.5804 18.19 52.5804 17.32C52.9404 17.31 53.3404 17.31 53.7404 17.31C54.1404 17.31 54.5404 17.31 54.9004 17.32C54.8904 18.19 54.8804 19.28 54.8604 20H57.3904C57.3604 18.92 57.3504 17.84 57.3504 16.25C57.3504 14.66 57.3604 13.53 57.3904 12.5H54.8604ZM58.2139 12.5C58.2239 12.78 58.2239 13.21 58.2239 13.6C58.2239 13.97 58.2239 14.44 58.2139 14.74C58.8139 14.73 59.4039 14.72 59.9439 14.72C59.9439 17.14 59.9339 19.47 59.9039 20.01C60.2639 19.98 60.8139 19.98 61.2139 19.98C61.6139 19.98 62.1839 19.98 62.5339 20.01C62.5039 19.47 62.4939 17.13 62.4939 14.72C63.0339 14.72 63.6239 14.73 64.2139 14.74C64.2039 14.44 64.2039 13.97 64.2039 13.6C64.2039 13.21 64.2039 12.78 64.2139 12.5H58.2139Z" fill="black"/>
</svg>
