<svg width="35" height="34" viewBox="0 0 35 34" fill="none" xmlns="http://www.w3.org/2000/svg">
<g filter="url(#filter0_d_1001_1392)">
<path d="M18.409 20.4006C18.3579 22.2885 12.0884 18.1483 11.4666 17.801C9.8259 16.8848 8.60526 16.2459 8.18362 14.3881C7.72036 12.347 8.10806 10.5182 9.63966 8.97898C13.4389 5.16073 19.3759 6.76089 23.5151 9.15462C27.4217 11.4139 27.1123 14.4359 23.6861 17.1127C20.4222 19.6628 15.5975 20.2965 12.1115 17.8146C8.41328 15.1816 6.29624 9.46549 12.6085 8.77786C15.4824 8.4648 24.3196 11.0389 22.4608 15.2986C20.7835 19.1425 12.9294 20.7577 9.82926 17.9209C7.92176 16.1755 8.55453 13.1633 9.70931 11.2028C11.261 8.5686 15.2064 7.77393 18.0432 8.75884C20.4987 9.61136 24.4846 11.5915 23.7883 14.6612C23.2678 16.9561 19.6433 17.9247 17.5274 17.7045C15.1875 17.461 11.855 14.8444 11.5101 12.6113C11.0301 9.50277 15.0416 8.25514 17.6627 9.20014C20.0171 10.049 23.6201 13.5133 21.9725 16.1017C20.7013 18.0987 16.4562 20.1882 14.2028 18.6197C8.15607 14.411 19.2921 7.99346 20.8042 14.1489C21.3791 16.4893 18.6654 17.5653 16.5934 16.8382C14.6358 16.1514 11.169 12.4577 14.1345 10.9236C16.5608 9.66832 18.9814 11.2547 20.0167 13.32C20.9047 15.0914 19.6107 16.5801 17.5548 15.7409C13.48 14.0775 19.4592 10.1321 19.5598 13.6118C19.6287 15.9967 16.2593 13.4966 19.4484 12.6925C21.0188 12.2966 22.3697 13.6024 22.6588 15.001C22.9927 16.6165 21.6344 17.7464 20.1953 18.3785C18.0191 19.3345 15.7524 17.5949 13.9906 16.5277C11.9922 15.3173 11.3501 13.4243 12.8371 11.4508C14.2145 9.62273 16.7988 9.04756 19.0345 9.16855C20.9463 9.272 24.8584 10.7268 26.0388 12.2696C27.1063 13.6648 21.7568 18.3061 20.5258 19.022C17.1231 21.0009 12.5833 19.4726 9.85615 16.9442C7.47579 14.7373 9.64195 8.9099 12.0491 7.40469C15.7773 5.07342 19.4119 8.08352 22.726 9.61971C26.3767 11.3119 25.5562 15.1256 23.7206 18.0164C21.7069 21.1876 18.8155 22.3113 15.0047 20.9649C11.9667 19.8915 8.7474 17.942 8.64915 14.6015C8.5248 10.3735 10.0063 6.19068 14.7917 5.17234C18.6559 4.35005 22.8308 6.59872 25.5007 9.19301C28.3229 11.9354 26.7424 15.8303 24.2047 18.1645C20.983 21.1278 18.1048 20.8065 14.1971 18.9544C11.3676 17.6133 9.07274 15.8106 10.2908 12.5366" stroke="#FFCD29" stroke-width="8" stroke-linecap="round" stroke-linejoin="round"/>
<path d="M13.2719 10.7206C13.1987 10.7186 13.031 10.6857 13.1338 10.6357" stroke="#1E1E1E" stroke-width="3" stroke-linecap="round" stroke-linejoin="round"/>
<path d="M21.7839 9.88685C21.7422 9.85472 21.6035 9.78658 21.6035 9.87232" stroke="#1E1E1E" stroke-width="3" stroke-linecap="round" stroke-linejoin="round"/>
<path d="M13.0558 19.4153C12.7334 19.4153 13.9071 18.5358 14.0341 18.448C15.1683 17.6628 16.2428 17.2078 17.7236 17.0303C18.916 16.8874 20.5379 17.2483 21.2213 18.1437C21.4489 18.4419 21.7582 18.6585 22.0124 18.9369C22.134 19.0701 22.2618 19.4996 22.3524 19.3508" stroke="#1E1E1E" stroke-width="2" stroke-linecap="round" stroke-linejoin="round"/>
</g>
<defs>
<filter id="filter0_d_1001_1392" x="0.00191879" y="0.99646" width="34.9963" height="32.528" filterUnits="userSpaceOnUse" color-interpolation-filters="sRGB">
<feFlood flood-opacity="0" result="BackgroundImageFix"/>
<feColorMatrix in="SourceAlpha" type="matrix" values="0 0 0 0 0 0 0 0 0 0 0 0 0 0 0 0 0 0 127 0" result="hardAlpha"/>
<feOffset dy="4"/>
<feGaussianBlur stdDeviation="2"/>
<feComposite in2="hardAlpha" operator="out"/>
<feColorMatrix type="matrix" values="0 0 0 0 0 0 0 0 0 0 0 0 0 0 0 0 0 0 0.25 0"/>
<feBlend mode="normal" in2="BackgroundImageFix" result="effect1_dropShadow_1001_1392"/>
<feBlend mode="normal" in="SourceGraphic" in2="effect1_dropShadow_1001_1392" result="shape"/>
</filter>
</defs>
</svg>
