<svg width="390" height="194" viewBox="0 0 390 194" fill="none" xmlns="http://www.w3.org/2000/svg">
<path d="M-14.0381 128.046C-16.7461 113.127 -18.5459 99.0498 -17.8498 83.7312C-16.8315 61.3226 -12.2326 32.0408 3.31227 14.6305C11.1615 5.83931 24.0151 1.76772 34.7963 8.01518C51.5693 17.7347 54.7149 40.3482 56.5799 57.6248C58.7876 78.075 59.466 99.9406 47.0415 117.591C42.6634 123.811 29.4465 136.83 22.0598 126.848C13.9566 115.899 14.5051 95.75 14.3116 82.8845C14.0145 63.1249 21.6031 42.9115 36.4047 29.1645C70.5698 -2.56632 92.6602 64.1815 99.8084 85.8251C106.648 106.534 109.222 128.144 107.561 149.904C107.418 151.766 105.529 173.367 100.172 165.221C93.6631 155.322 92.9704 140.63 92.2223 129.273C90.6179 104.915 93.9133 77.1187 108.707 56.7131C117.879 44.061 135.805 42.9377 149.211 49.7359C169.445 59.9964 176.735 87.8731 180.827 108.007C185.4 130.509 187.974 157.179 177.238 178.352C171.86 188.958 160.216 196.114 153.834 182.596C145.242 164.394 144.906 139.969 146.044 120.332C146.999 103.854 151.452 73.9197 167.602 64.2577C181.422 55.989 191.653 71.7715 198.18 81.6795C208.756 97.7328 217.605 114.636 227.05 131.338C228.62 134.114 234.318 149.237 234.368 140.177C234.447 125.915 239.855 109.582 247.672 97.7154C270.098 63.6715 303.319 147.277 308.196 160.615C308.951 162.681 311.879 181.752 309.445 177.036C303.098 164.745 309.262 143.925 312.442 131.707C316.117 117.592 324.268 85.641 344.072 101.838C359.951 114.825 371.692 134.769 380.493 152.92C383.853 159.849 386.904 166.908 389.087 174.294C389.746 176.523 390.362 183.51 392.487 184.904C392.605 184.981 396.589 169.908 397 168.329" stroke="#D7EE00" stroke-width="8" stroke-linecap="round" stroke-linejoin="round"/>
</svg>
