<svg width="137" height="8" viewBox="0 0 137 8" fill="none" xmlns="http://www.w3.org/2000/svg">
<path d="M3.70453 0.3C4.31786 0.3 4.85786 0.396666 5.32453 0.59C5.79786 0.776666 6.20786 1.05333 6.55453 1.42L5.72453 2.53C5.43786 2.23 5.12786 2.00667 4.79453 1.86C4.46786 1.70667 4.09453 1.63 3.67453 1.63C3.42786 1.63 3.22786 1.65667 3.07453 1.71C2.9212 1.76333 2.8112 1.83667 2.74453 1.93C2.67786 2.02333 2.64453 2.13 2.64453 2.25C2.64453 2.39 2.70786 2.51 2.83453 2.61C2.96786 2.70333 3.1812 2.78333 3.47453 2.85L4.58453 3.1C5.24453 3.25333 5.72786 3.47667 6.03453 3.77C6.3412 4.06333 6.49453 4.45333 6.49453 4.94C6.49453 5.40667 6.37453 5.80333 6.13453 6.13C5.89453 6.45 5.56453 6.69333 5.14453 6.86C4.72453 7.02 4.24453 7.1 3.70453 7.1C3.26453 7.1 2.84453 7.05333 2.44453 6.96C2.04453 6.86 1.68453 6.72 1.36453 6.54C1.04453 6.36 0.774531 6.15333 0.554531 5.92L1.38453 4.77C1.5512 4.96333 1.75453 5.13667 1.99453 5.29C2.2412 5.43667 2.50786 5.55333 2.79453 5.64C3.08786 5.72667 3.38453 5.77 3.68453 5.77C3.91786 5.77 4.1112 5.74667 4.26453 5.7C4.42453 5.65333 4.5412 5.58333 4.61453 5.49C4.68786 5.39667 4.72453 5.28667 4.72453 5.16C4.72453 5.02 4.67453 4.90333 4.57453 4.81C4.47453 4.71 4.28453 4.62667 4.00453 4.56L2.78453 4.29C2.4112 4.20333 2.07786 4.09 1.78453 3.95C1.49786 3.80333 1.2712 3.61 1.10453 3.37C0.937865 3.12333 0.854531 2.81667 0.854531 2.45C0.854531 2.03667 0.967865 1.67 1.19453 1.35C1.4212 1.02333 1.74786 0.766666 2.17453 0.58C2.6012 0.393333 3.1112 0.3 3.70453 0.3ZM7.56984 7V0.4H12.7098V1.73H9.28984V3.07H12.0098V4.32H9.28984V5.67H12.8398V7H7.56984ZM19.8784 7H18.1084L17.6484 5.51H15.3884L14.9184 7H13.1884L15.5084 0.4H17.5684L19.8784 7ZM15.7084 4.34H17.3284L16.5184 1.67L15.7084 4.34ZM23.796 0.4C24.5827 0.4 25.1927 0.586666 25.626 0.96C26.066 1.32667 26.286 1.81667 26.286 2.43C26.286 3.10333 26.0693 3.61667 25.636 3.97C25.2027 4.32333 24.5927 4.5 23.806 4.5L23.646 4.59H22.336V7H20.646V0.4H23.796ZM23.556 3.37C23.8893 3.37 24.1393 3.30333 24.306 3.17C24.4727 3.03667 24.556 2.82333 24.556 2.53C24.556 2.24333 24.4727 2.03333 24.306 1.9C24.1393 1.76667 23.8893 1.7 23.556 1.7H22.336V3.37H23.556ZM24.566 3.73L26.676 7H24.776L23.086 4.11L24.566 3.73ZM33.3222 5.11C33.1955 5.57 32.9922 5.95 32.7122 6.25C32.4322 6.54333 32.0989 6.76 31.7122 6.9C31.3255 7.03333 30.8989 7.1 30.4322 7.1C29.7655 7.1 29.1889 6.96667 28.7022 6.7C28.2155 6.42667 27.8422 6.03667 27.5822 5.53C27.3222 5.02333 27.1922 4.41333 27.1922 3.7C27.1922 2.98667 27.3222 2.37667 27.5822 1.87C27.8422 1.36333 28.2155 0.976666 28.7022 0.71C29.1889 0.436667 29.7622 0.3 30.4222 0.3C30.8822 0.3 31.3055 0.366666 31.6922 0.5C32.0789 0.626666 32.4055 0.823333 32.6722 1.09C32.9389 1.35667 33.1289 1.7 33.2422 2.12L31.7322 2.73C31.6389 2.31667 31.4855 2.03333 31.2722 1.88C31.0655 1.72667 30.8022 1.65 30.4822 1.65C30.1689 1.65 29.8955 1.72667 29.6622 1.88C29.4355 2.03333 29.2589 2.26333 29.1322 2.57C29.0122 2.87 28.9522 3.24667 28.9522 3.7C28.9522 4.14667 29.0089 4.52333 29.1222 4.83C29.2355 5.13667 29.4055 5.36667 29.6322 5.52C29.8655 5.67333 30.1522 5.75 30.4922 5.75C30.8122 5.75 31.0822 5.66333 31.3022 5.49C31.5289 5.31 31.6822 5.03667 31.7622 4.67L33.3222 5.11ZM40.2388 0.4V7H38.5188V0.4H40.2388ZM35.9988 0.4V7H34.2788V0.4H35.9988ZM39.4388 3.01V4.34H35.1188V3.01H39.4388ZM43.4207 0.4V7H41.7007V0.4H43.4207ZM50.8343 0.4V7H48.9243L46.8743 3.43L46.3743 2.45H46.3643L46.4043 3.67V7H44.8843V0.4H46.7943L48.8443 3.97L49.3443 4.95H49.3543L49.3143 3.73V0.4H50.8343ZM55.0264 7.1C54.4397 7.1 53.9164 6.97 53.4564 6.71C53.0031 6.45 52.6497 6.06667 52.3964 5.56C52.1431 5.05333 52.0164 4.43667 52.0164 3.71C52.0164 2.99667 52.1497 2.38667 52.4164 1.88C52.6831 1.37333 53.0631 0.983333 53.5564 0.71C54.0564 0.436667 54.6431 0.3 55.3164 0.3C56.0631 0.3 56.6664 0.436667 57.1264 0.71C57.5864 0.976666 57.9431 1.40333 58.1964 1.99L56.6064 2.62C56.5197 2.28 56.3664 2.03333 56.1464 1.88C55.9264 1.72667 55.6531 1.65 55.3264 1.65C54.9997 1.65 54.7197 1.73 54.4864 1.89C54.2531 2.04333 54.0764 2.27333 53.9564 2.58C53.8364 2.88 53.7764 3.25333 53.7764 3.7C53.7764 4.16667 53.8364 4.55667 53.9564 4.87C54.0831 5.18333 54.2664 5.41667 54.5064 5.57C54.7531 5.71667 55.0564 5.79 55.4164 5.79C55.6097 5.79 55.7864 5.76667 55.9464 5.72C56.1064 5.67333 56.2464 5.60667 56.3664 5.52C56.4864 5.42667 56.5797 5.31333 56.6464 5.18C56.7131 5.04 56.7464 4.87667 56.7464 4.69V4.59H55.2364V3.44H58.2064V7H57.0364L56.9064 5.45L57.1864 5.69C57.0464 6.14333 56.7931 6.49333 56.4264 6.74C56.0664 6.98 55.5997 7.1 55.0264 7.1ZM67.5143 1.73H64.1043V3.13H66.8243V4.46H64.1043V7H62.3843V0.4H67.5143V1.73ZM71.4185 0.3C72.0852 0.3 72.6585 0.436667 73.1385 0.71C73.6252 0.976666 73.9985 1.36333 74.2585 1.87C74.5185 2.37667 74.6485 2.98667 74.6485 3.7C74.6485 4.41333 74.5185 5.02333 74.2585 5.53C73.9985 6.03667 73.6252 6.42667 73.1385 6.7C72.6585 6.96667 72.0852 7.1 71.4185 7.1C70.7518 7.1 70.1752 6.96667 69.6885 6.7C69.2018 6.42667 68.8285 6.03667 68.5685 5.53C68.3085 5.02333 68.1785 4.41333 68.1785 3.7C68.1785 2.98667 68.3085 2.37667 68.5685 1.87C68.8285 1.36333 69.2018 0.976666 69.6885 0.71C70.1752 0.436667 70.7518 0.3 71.4185 0.3ZM71.4185 1.65C71.0985 1.65 70.8285 1.72667 70.6085 1.88C70.3885 2.03333 70.2218 2.26333 70.1085 2.57C69.9952 2.87 69.9385 3.24667 69.9385 3.7C69.9385 4.14667 69.9952 4.52333 70.1085 4.83C70.2218 5.13667 70.3885 5.36667 70.6085 5.52C70.8285 5.67333 71.0985 5.75 71.4185 5.75C71.7385 5.75 72.0052 5.67333 72.2185 5.52C72.4385 5.36667 72.6052 5.13667 72.7185 4.83C72.8318 4.52333 72.8885 4.14667 72.8885 3.7C72.8885 3.24667 72.8318 2.87 72.7185 2.57C72.6052 2.26333 72.4385 2.03333 72.2185 1.88C72.0052 1.72667 71.7385 1.65 71.4185 1.65ZM78.9816 0.4C79.7682 0.4 80.3782 0.586666 80.8116 0.96C81.2516 1.32667 81.4716 1.81667 81.4716 2.43C81.4716 3.10333 81.2549 3.61667 80.8216 3.97C80.3882 4.32333 79.7782 4.5 78.9916 4.5L78.8316 4.59H77.5216V7H75.8316V0.4H78.9816ZM78.7416 3.37C79.0749 3.37 79.3249 3.30333 79.4916 3.17C79.6582 3.03667 79.7416 2.82333 79.7416 2.53C79.7416 2.24333 79.6582 2.03333 79.4916 1.9C79.3249 1.76667 79.0749 1.7 78.7416 1.7H77.5216V3.37H78.7416ZM79.7516 3.73L81.8616 7H79.9616L78.2716 4.11L79.7516 3.73ZM88.3874 0.4C89.4208 0.4 90.2108 0.686666 90.7574 1.26C91.3108 1.83333 91.5874 2.64667 91.5874 3.7C91.5874 4.75333 91.3108 5.56667 90.7574 6.14C90.2108 6.71333 89.4208 7 88.3874 7H85.5874V0.4H88.3874ZM88.2174 5.7C88.7774 5.7 89.1841 5.53333 89.4374 5.2C89.6974 4.86 89.8274 4.36 89.8274 3.7C89.8274 3.04 89.6974 2.54333 89.4374 2.21C89.1841 1.87 88.7774 1.7 88.2174 1.7H87.3074V5.7H88.2174ZM92.7652 7V0.4H97.9052V1.73H94.4852V3.07H97.2052V4.32H94.4852V5.67H98.0352V7H92.7652ZM105.114 0.4L102.774 7H100.754L98.4038 0.4H100.214L101.424 4.39L101.784 5.69L102.134 4.41L103.364 0.4H105.114ZM107.62 0.4V7H105.9V0.4H107.62ZM114.934 5.11C114.807 5.57 114.604 5.95 114.324 6.25C114.044 6.54333 113.71 6.76 113.324 6.9C112.937 7.03333 112.51 7.1 112.044 7.1C111.377 7.1 110.8 6.96667 110.314 6.7C109.827 6.42667 109.454 6.03667 109.194 5.53C108.934 5.02333 108.804 4.41333 108.804 3.7C108.804 2.98667 108.934 2.37667 109.194 1.87C109.454 1.36333 109.827 0.976666 110.314 0.71C110.8 0.436667 111.374 0.3 112.034 0.3C112.494 0.3 112.917 0.366666 113.304 0.5C113.69 0.626666 114.017 0.823333 114.284 1.09C114.55 1.35667 114.74 1.7 114.854 2.12L113.344 2.73C113.25 2.31667 113.097 2.03333 112.884 1.88C112.677 1.72667 112.414 1.65 112.094 1.65C111.78 1.65 111.507 1.72667 111.274 1.88C111.047 2.03333 110.87 2.26333 110.744 2.57C110.624 2.87 110.564 3.24667 110.564 3.7C110.564 4.14667 110.62 4.52333 110.734 4.83C110.847 5.13667 111.017 5.36667 111.244 5.52C111.477 5.67333 111.764 5.75 112.104 5.75C112.424 5.75 112.694 5.66333 112.914 5.49C113.14 5.31 113.294 5.03667 113.374 4.67L114.934 5.11ZM115.89 7V0.4H121.03V1.73H117.61V3.07H120.33V4.32H117.61V5.67H121.16V7H115.89ZM124.779 0.3C125.392 0.3 125.932 0.396666 126.399 0.59C126.872 0.776666 127.282 1.05333 127.629 1.42L126.799 2.53C126.512 2.23 126.202 2.00667 125.869 1.86C125.542 1.70667 125.169 1.63 124.749 1.63C124.502 1.63 124.302 1.65667 124.149 1.71C123.995 1.76333 123.885 1.83667 123.819 1.93C123.752 2.02333 123.719 2.13 123.719 2.25C123.719 2.39 123.782 2.51 123.909 2.61C124.042 2.70333 124.255 2.78333 124.549 2.85L125.659 3.1C126.319 3.25333 126.802 3.47667 127.109 3.77C127.415 4.06333 127.569 4.45333 127.569 4.94C127.569 5.40667 127.449 5.80333 127.209 6.13C126.969 6.45 126.639 6.69333 126.219 6.86C125.799 7.02 125.319 7.1 124.779 7.1C124.339 7.1 123.919 7.05333 123.519 6.96C123.119 6.86 122.759 6.72 122.439 6.54C122.119 6.36 121.849 6.15333 121.629 5.92L122.459 4.77C122.625 4.96333 122.829 5.13667 123.069 5.29C123.315 5.43667 123.582 5.55333 123.869 5.64C124.162 5.72667 124.459 5.77 124.759 5.77C124.992 5.77 125.185 5.74667 125.339 5.7C125.499 5.65333 125.615 5.58333 125.689 5.49C125.762 5.39667 125.799 5.28667 125.799 5.16C125.799 5.02 125.749 4.90333 125.649 4.81C125.549 4.71 125.359 4.62667 125.079 4.56L123.859 4.29C123.485 4.20333 123.152 4.09 122.859 3.95C122.572 3.80333 122.345 3.61 122.179 3.37C122.012 3.12333 121.929 2.81667 121.929 2.45C121.929 2.03667 122.042 1.67 122.269 1.35C122.495 1.02333 122.822 0.766666 123.249 0.58C123.675 0.393333 124.185 0.3 124.779 0.3ZM129.354 5.28C129.668 5.28 129.911 5.36 130.084 5.52C130.264 5.68 130.354 5.90333 130.354 6.19C130.354 6.47 130.264 6.69 130.084 6.85C129.911 7.01 129.668 7.09 129.354 7.09C129.048 7.09 128.804 7.01 128.624 6.85C128.444 6.69 128.354 6.47 128.354 6.19C128.354 5.90333 128.444 5.68 128.624 5.52C128.804 5.36 129.048 5.28 129.354 5.28ZM132.255 5.28C132.568 5.28 132.811 5.36 132.985 5.52C133.165 5.68 133.255 5.90333 133.255 6.19C133.255 6.47 133.165 6.69 132.985 6.85C132.811 7.01 132.568 7.09 132.255 7.09C131.948 7.09 131.705 7.01 131.525 6.85C131.345 6.69 131.255 6.47 131.255 6.19C131.255 5.90333 131.345 5.68 131.525 5.52C131.705 5.36 131.948 5.28 132.255 5.28ZM135.155 5.28C135.468 5.28 135.712 5.36 135.885 5.52C136.065 5.68 136.155 5.90333 136.155 6.19C136.155 6.47 136.065 6.69 135.885 6.85C135.712 7.01 135.468 7.09 135.155 7.09C134.848 7.09 134.605 7.01 134.425 6.85C134.245 6.69 134.155 6.47 134.155 6.19C134.155 5.90333 134.245 5.68 134.425 5.52C134.605 5.36 134.848 5.28 135.155 5.28Z" fill="#EAFC38"/>
</svg>
