<svg width="390" height="844" viewBox="0 0 390 844" fill="none" xmlns="http://www.w3.org/2000/svg">
<g clip-path="url(#clip0_917_1252)">
<rect width="390" height="844" fill="white"/>
<rect width="390" height="844" fill="#FEF8E5"/>
<path d="M492.524 58.4862C495.253 51.6413 457.954 46.793 451.205 45.1659C434.951 41.2469 385.571 26.7865 378.889 43.5405C367.321 72.5486 526.854 164.469 454.471 181.603C409.934 192.146 356.62 176.861 311.228 186.756C297.259 189.801 279.752 192.511 274.368 204.463C268.706 217.031 281.275 230.128 290.6 241.917C305.715 261.025 324.659 277.909 342.598 295.448C355.183 307.753 375.401 325.148 374.949 340.998C374.022 373.565 298.369 360.853 272.023 360.948C239.649 361.064 180.885 361.279 173.834 392.15C170.667 406.016 192.084 425.054 203.032 435.428C223.214 454.552 245.93 471.629 265.833 490.935C277.073 501.838 298.093 517.901 298.144 532.254C298.197 547.076 278.986 550.116 263.814 550.686C234.749 551.777 204.665 548.987 175.523 549.952C155.276 550.622 128.486 550.082 115.135 562.143C102.142 573.88 115.199 591.236 125.478 604.695C142.773 627.341 167.137 649.607 179.351 673.88C207.654 730.127 133.94 733.273 86.3122 735.878C62.9383 737.157 -27.0755 743.42 4.38837 781.238C16.7605 796.109 42.6753 813.215 59.5073 824.5C68.4808 830.516 74.2815 843.79 71.0073 852" stroke="#D7EE00" stroke-width="10" stroke-linecap="round" stroke-linejoin="round"/>
<path d="M383.677 23.0204C386.406 16.1755 349.107 11.3272 342.358 9.70006C326.104 5.78106 276.724 -8.67936 270.042 8.07463C258.474 37.0828 418.007 129.003 345.624 146.137C301.087 156.68 247.773 141.395 202.381 151.29C188.412 154.336 170.905 157.045 165.52 168.998C159.859 181.565 172.428 194.662 181.753 206.451C196.868 225.56 215.812 242.444 233.751 259.983C246.336 272.287 266.554 289.683 266.102 305.532C265.175 338.099 189.522 325.387 163.176 325.482C130.802 325.598 72.0382 325.813 64.9869 356.684C61.8197 370.55 83.2365 389.588 94.185 399.963C114.367 419.087 137.083 436.163 156.986 455.469C168.226 466.372 189.246 482.436 189.297 496.788C189.35 511.61 170.139 514.65 154.967 515.22C125.902 516.311 95.8177 513.521 66.6761 514.486C46.429 515.156 19.6392 514.616 6.28771 526.677C-6.70466 538.414 6.35218 555.77 16.6313 569.23C33.926 591.875 58.2902 614.141 70.5042 638.414C98.8074 694.662 25.0932 697.808 -22.5349 700.413C-45.9087 701.691 -135.923 707.954 -104.459 745.772C-92.0866 760.643 -74.3393 772.096 -57.5073 783.38C-48.5338 789.397 -42.0888 792.951 -45.363 801.162" stroke="#D7EE00" stroke-width="10" stroke-linecap="round" stroke-linejoin="round"/>
<g filter="url(#filter0_d_917_1252)">
<rect x="47" y="318" width="295" height="91" rx="6" fill="#FD4A1E"/>
<rect x="47.5" y="318.5" width="294" height="90" rx="5.5" stroke="black"/>
</g>
<path d="M47.0646 433.44V434.912H43.4486V444H41.7366V434.912H38.1206V433.44H47.0646ZM48.6249 444V432.4H50.3369V437.28C50.6035 436.779 50.9609 436.416 51.4089 436.192C51.8675 435.957 52.3742 435.84 52.9289 435.84C53.4942 435.84 54.0009 435.952 54.4489 436.176C54.9075 436.389 55.2702 436.715 55.5369 437.152C55.8035 437.589 55.9369 438.144 55.9369 438.816V444H54.2249V439.36C54.2249 438.571 54.0595 438.021 53.7289 437.712C53.4089 437.403 53.0035 437.248 52.5129 437.248C52.1715 437.248 51.8302 437.333 51.4889 437.504C51.1582 437.664 50.8809 437.931 50.6569 438.304C50.4435 438.667 50.3369 439.157 50.3369 439.776V444H48.6249ZM59.3951 434.656C59.0218 434.656 58.7338 434.565 58.5311 434.384C58.3391 434.192 58.2431 433.925 58.2431 433.584C58.2431 433.243 58.3391 432.981 58.5311 432.8C58.7338 432.619 59.0218 432.528 59.3951 432.528C59.7578 432.528 60.0351 432.619 60.2271 432.8C60.4298 432.981 60.5311 433.243 60.5311 433.584C60.5311 433.925 60.4298 434.192 60.2271 434.384C60.0351 434.565 59.7578 434.656 59.3951 434.656ZM60.2431 436V444H58.5311V436H60.2431ZM65.9618 444.16C65.1618 444.16 64.4311 444.005 63.7698 443.696C63.1084 443.387 62.5858 442.949 62.2018 442.384L63.3858 441.36C63.6204 441.797 63.9564 442.149 64.3938 442.416C64.8418 442.672 65.3751 442.8 65.9938 442.8C66.4844 442.8 66.8738 442.715 67.1618 442.544C67.4498 442.373 67.5938 442.133 67.5938 441.824C67.5938 441.621 67.5244 441.445 67.3858 441.296C67.2578 441.136 67.0071 441.013 66.6338 440.928L64.9538 440.576C64.1004 440.405 63.4924 440.133 63.1298 439.76C62.7671 439.376 62.5858 438.891 62.5858 438.304C62.5858 437.867 62.7138 437.461 62.9698 437.088C63.2258 436.715 63.5991 436.416 64.0898 436.192C64.5911 435.957 65.1884 435.84 65.8818 435.84C66.6818 435.84 67.3644 435.984 67.9298 436.272C68.4951 436.549 68.9271 436.949 69.2258 437.472L68.0418 438.464C67.8391 438.037 67.5404 437.723 67.1458 437.52C66.7511 437.307 66.3404 437.2 65.9138 437.2C65.5724 437.2 65.2791 437.243 65.0338 437.328C64.7884 437.413 64.6018 437.531 64.4738 437.68C64.3458 437.829 64.2818 438.005 64.2818 438.208C64.2818 438.421 64.3618 438.608 64.5218 438.768C64.6818 438.928 64.9698 439.051 65.3858 439.136L67.2098 439.52C67.9778 439.669 68.5164 439.925 68.8258 440.288C69.1458 440.64 69.3058 441.072 69.3058 441.584C69.3058 442.096 69.1724 442.549 68.9058 442.944C68.6391 443.328 68.2551 443.627 67.7538 443.84C67.2524 444.053 66.6551 444.16 65.9618 444.16ZM80.8976 433.44C81.655 433.44 82.3056 433.573 82.8496 433.84C83.4043 434.107 83.8363 434.485 84.1456 434.976C84.455 435.467 84.6096 436.059 84.6096 436.752C84.6096 437.435 84.455 438.027 84.1456 438.528C83.8363 439.019 83.4043 439.397 82.8496 439.664C82.3056 439.931 81.655 440.064 80.8976 440.064H78.5456V444H76.8336V433.44H80.8976ZM80.6256 438.592C81.383 438.592 81.9376 438.437 82.2896 438.128C82.6523 437.808 82.8336 437.349 82.8336 436.752C82.8336 436.144 82.6523 435.685 82.2896 435.376C81.9376 435.056 81.383 434.896 80.6256 434.896H78.5456V438.592H80.6256ZM89.925 435.84C90.7037 435.84 91.3917 436.005 91.989 436.336C92.5863 436.667 93.0503 437.147 93.381 437.776C93.7223 438.395 93.893 439.136 93.893 440C93.893 440.864 93.7223 441.611 93.381 442.24C93.0503 442.859 92.5863 443.333 91.989 443.664C91.3917 443.995 90.7037 444.16 89.925 444.16C89.1463 444.16 88.4583 443.995 87.861 443.664C87.2637 443.333 86.7943 442.859 86.453 442.24C86.1117 441.611 85.941 440.864 85.941 440C85.941 439.136 86.1117 438.395 86.453 437.776C86.7943 437.147 87.2637 436.667 87.861 436.336C88.4583 436.005 89.1463 435.84 89.925 435.84ZM89.925 437.184C89.445 437.184 89.0343 437.296 88.693 437.52C88.3623 437.733 88.1063 438.048 87.925 438.464C87.7437 438.88 87.653 439.392 87.653 440C87.653 440.597 87.7437 441.109 87.925 441.536C88.1063 441.952 88.3623 442.272 88.693 442.496C89.0343 442.709 89.445 442.816 89.925 442.816C90.405 442.816 90.8103 442.709 91.141 442.496C91.4717 442.272 91.7277 441.952 91.909 441.536C92.0903 441.109 92.181 440.597 92.181 440C92.181 439.392 92.0903 438.88 91.909 438.464C91.7277 438.048 91.4717 437.733 91.141 437.52C90.8103 437.296 90.405 437.184 89.925 437.184ZM96.0468 447.36V436H97.5668L97.6948 438.24L97.4708 437.968C97.5988 437.552 97.7961 437.184 98.0628 436.864C98.3294 436.544 98.6601 436.293 99.0548 436.112C99.4601 435.931 99.9028 435.84 100.383 435.84C101.033 435.84 101.625 436.005 102.159 436.336C102.692 436.667 103.113 437.141 103.423 437.76C103.732 438.368 103.887 439.109 103.887 439.984C103.887 440.859 103.727 441.611 103.407 442.24C103.097 442.859 102.671 443.333 102.127 443.664C101.593 443.995 100.996 444.16 100.335 444.16C99.6521 444.16 99.0708 443.984 98.5908 443.632C98.1108 443.269 97.7694 442.811 97.5668 442.256L97.7588 441.984V447.36H96.0468ZM99.9668 442.768C100.66 442.768 101.199 442.523 101.583 442.032C101.977 441.541 102.175 440.864 102.175 440C102.175 439.136 101.983 438.459 101.599 437.968C101.215 437.467 100.681 437.216 99.9988 437.216C99.5508 437.216 99.1561 437.333 98.8148 437.568C98.4841 437.792 98.2228 438.112 98.0308 438.528C97.8494 438.933 97.7588 439.424 97.7588 440C97.7588 440.565 97.8494 441.056 98.0308 441.472C98.2121 441.888 98.4681 442.208 98.7988 442.432C99.1294 442.656 99.5188 442.768 99.9668 442.768ZM107.742 432.4V441.76C107.742 442.155 107.811 442.427 107.95 442.576C108.089 442.725 108.318 442.8 108.638 442.8C108.83 442.8 108.99 442.789 109.118 442.768C109.257 442.736 109.427 442.683 109.63 442.608L109.438 443.888C109.257 443.973 109.049 444.037 108.814 444.08C108.579 444.133 108.345 444.16 108.11 444.16C107.395 444.16 106.867 443.979 106.526 443.616C106.195 443.243 106.03 442.672 106.03 441.904V432.4H107.742ZM111.926 434.656C111.553 434.656 111.265 434.565 111.062 434.384C110.87 434.192 110.774 433.925 110.774 433.584C110.774 433.243 110.87 432.981 111.062 432.8C111.265 432.619 111.553 432.528 111.926 432.528C112.289 432.528 112.566 432.619 112.758 432.8C112.961 432.981 113.062 433.243 113.062 433.584C113.062 433.925 112.961 434.192 112.758 434.384C112.566 434.565 112.289 434.656 111.926 434.656ZM112.774 436V444H111.062V436H112.774ZM122.493 434.32L122.765 435.664C122.733 435.664 122.701 435.664 122.669 435.664C122.637 435.653 122.605 435.648 122.573 435.648C122.061 435.648 121.672 435.76 121.405 435.984C121.138 436.197 121.005 436.512 121.005 436.928L120.173 436.544C120.173 436.117 120.264 435.739 120.445 435.408C120.626 435.067 120.882 434.8 121.213 434.608C121.554 434.416 121.938 434.32 122.365 434.32C122.386 434.32 122.408 434.32 122.429 434.32C122.45 434.32 122.472 434.32 122.493 434.32ZM119.965 442.752C120.776 442.752 121.405 442.933 121.853 443.296C122.301 443.648 122.525 444.139 122.525 444.768C122.525 445.323 122.349 445.797 121.997 446.192C121.645 446.597 121.165 446.907 120.557 447.12C119.96 447.333 119.272 447.44 118.493 447.44C117.181 447.44 116.21 447.237 115.581 446.832C114.952 446.427 114.637 445.92 114.637 445.312C114.637 444.885 114.786 444.512 115.085 444.192C115.394 443.872 115.912 443.691 116.637 443.648L116.541 443.904C116.093 443.808 115.73 443.637 115.453 443.392C115.186 443.136 115.053 442.779 115.053 442.32C115.053 441.861 115.229 441.472 115.581 441.152C115.933 440.832 116.429 440.645 117.069 440.592L117.965 441.024H117.773C117.282 441.067 116.936 441.179 116.733 441.36C116.53 441.541 116.429 441.744 116.429 441.968C116.429 442.235 116.525 442.432 116.717 442.56C116.92 442.688 117.202 442.752 117.565 442.752H119.965ZM118.493 446.16C119.08 446.16 119.56 446.101 119.933 445.984C120.317 445.877 120.6 445.733 120.781 445.552C120.973 445.381 121.069 445.189 121.069 444.976C121.069 444.731 120.968 444.533 120.765 444.384C120.573 444.235 120.221 444.16 119.709 444.16H117.133C116.834 444.16 116.584 444.235 116.381 444.384C116.178 444.544 116.077 444.757 116.077 445.024C116.077 445.376 116.29 445.653 116.717 445.856C117.144 446.059 117.736 446.16 118.493 446.16ZM118.429 435.84C119.133 435.84 119.741 435.952 120.253 436.176C120.776 436.4 121.176 436.715 121.453 437.12C121.741 437.525 121.885 438 121.885 438.544C121.885 439.088 121.741 439.563 121.453 439.968C121.176 440.373 120.776 440.688 120.253 440.912C119.741 441.136 119.133 441.248 118.429 441.248C117.32 441.248 116.466 441.003 115.869 440.512C115.282 440.011 114.989 439.355 114.989 438.544C114.989 438 115.133 437.525 115.421 437.12C115.709 436.715 116.109 436.4 116.621 436.176C117.144 435.952 117.746 435.84 118.429 435.84ZM118.429 437.04C117.938 437.04 117.528 437.179 117.197 437.456C116.877 437.723 116.717 438.085 116.717 438.544C116.717 439.003 116.877 439.371 117.197 439.648C117.528 439.925 117.938 440.064 118.429 440.064C118.93 440.064 119.341 439.925 119.661 439.648C119.992 439.371 120.157 439.003 120.157 438.544C120.157 438.085 119.992 437.723 119.661 437.456C119.341 437.179 118.93 437.04 118.429 437.04ZM124.094 444V432.4H125.806V437.28C126.072 436.779 126.43 436.416 126.878 436.192C127.336 435.957 127.843 435.84 128.398 435.84C128.963 435.84 129.47 435.952 129.918 436.176C130.376 436.389 130.739 436.715 131.006 437.152C131.272 437.589 131.406 438.144 131.406 438.816V444H129.694V439.36C129.694 438.571 129.528 438.021 129.198 437.712C128.878 437.403 128.472 437.248 127.982 437.248C127.64 437.248 127.299 437.333 126.958 437.504C126.627 437.664 126.35 437.931 126.126 438.304C125.912 438.667 125.806 439.157 125.806 439.776V444H124.094ZM136.242 433.648V441.6C136.242 441.995 136.343 442.283 136.546 442.464C136.759 442.645 137.042 442.736 137.394 442.736C137.682 442.736 137.933 442.693 138.146 442.608C138.359 442.512 138.557 442.384 138.738 442.224L139.122 443.472C138.877 443.685 138.573 443.856 138.21 443.984C137.858 444.101 137.463 444.16 137.026 444.16C136.567 444.16 136.146 444.085 135.762 443.936C135.378 443.787 135.079 443.547 134.866 443.216C134.653 442.875 134.541 442.432 134.53 441.888V434.128L136.242 433.648ZM138.994 436V437.344H132.994V436H138.994ZM150.179 444.16C149.709 444.16 149.277 444.069 148.883 443.888C148.499 443.707 148.173 443.456 147.907 443.136C147.64 442.805 147.443 442.437 147.315 442.032L147.523 441.76L147.395 444H145.891V432.4H147.603V438.016L147.411 437.744C147.613 437.189 147.96 436.736 148.451 436.384C148.941 436.021 149.533 435.84 150.227 435.84C150.867 435.84 151.453 436.005 151.987 436.336C152.531 436.667 152.957 437.141 153.267 437.76C153.576 438.379 153.731 439.131 153.731 440.016C153.731 440.88 153.571 441.621 153.251 442.24C152.941 442.859 152.515 443.333 151.971 443.664C151.437 443.995 150.84 444.16 150.179 444.16ZM149.811 442.784C150.504 442.784 151.043 442.539 151.427 442.048C151.821 441.547 152.019 440.864 152.019 440C152.019 439.136 151.827 438.459 151.443 437.968C151.059 437.477 150.52 437.232 149.827 437.232C149.379 437.232 148.989 437.349 148.659 437.584C148.328 437.808 148.067 438.128 147.875 438.544C147.693 438.96 147.603 439.456 147.603 440.032C147.603 440.597 147.693 441.088 147.875 441.504C148.056 441.909 148.312 442.224 148.643 442.448C148.984 442.672 149.373 442.784 149.811 442.784ZM159.442 444.16C158.642 444.16 157.938 443.995 157.33 443.664C156.722 443.333 156.247 442.859 155.906 442.24C155.575 441.611 155.41 440.864 155.41 440C155.41 439.136 155.575 438.395 155.906 437.776C156.247 437.147 156.716 436.667 157.314 436.336C157.911 436.005 158.588 435.84 159.346 435.84C160.124 435.84 160.786 436 161.33 436.32C161.874 436.64 162.29 437.077 162.578 437.632C162.866 438.187 163.01 438.816 163.01 439.52C163.01 439.712 163.004 439.893 162.994 440.064C162.983 440.235 162.967 440.384 162.946 440.512H156.514V439.2H162.194L161.346 439.456C161.346 438.731 161.164 438.176 160.802 437.792C160.439 437.397 159.943 437.2 159.314 437.2C158.855 437.2 158.455 437.307 158.114 437.52C157.772 437.733 157.511 438.053 157.33 438.48C157.148 438.896 157.058 439.408 157.058 440.016C157.058 440.613 157.154 441.12 157.346 441.536C157.538 441.952 157.81 442.267 158.162 442.48C158.514 442.693 158.93 442.8 159.41 442.8C159.943 442.8 160.375 442.699 160.706 442.496C161.036 442.293 161.298 442.011 161.49 441.648L162.85 442.288C162.658 442.672 162.396 443.008 162.066 443.296C161.746 443.573 161.362 443.787 160.914 443.936C160.466 444.085 159.975 444.16 159.442 444.16ZM166.836 432.4V441.76C166.836 442.155 166.905 442.427 167.044 442.576C167.182 442.725 167.412 442.8 167.732 442.8C167.924 442.8 168.084 442.789 168.212 442.768C168.35 442.736 168.521 442.683 168.724 442.608L168.532 443.888C168.35 443.973 168.142 444.037 167.908 444.08C167.673 444.133 167.438 444.16 167.204 444.16C166.489 444.16 165.961 443.979 165.62 443.616C165.289 443.243 165.124 442.672 165.124 441.904V432.4H166.836ZM173.628 435.84C174.407 435.84 175.095 436.005 175.692 436.336C176.289 436.667 176.753 437.147 177.084 437.776C177.425 438.395 177.596 439.136 177.596 440C177.596 440.864 177.425 441.611 177.084 442.24C176.753 442.859 176.289 443.333 175.692 443.664C175.095 443.995 174.407 444.16 173.628 444.16C172.849 444.16 172.161 443.995 171.564 443.664C170.967 443.333 170.497 442.859 170.156 442.24C169.815 441.611 169.644 440.864 169.644 440C169.644 439.136 169.815 438.395 170.156 437.776C170.497 437.147 170.967 436.667 171.564 436.336C172.161 436.005 172.849 435.84 173.628 435.84ZM173.628 437.184C173.148 437.184 172.737 437.296 172.396 437.52C172.065 437.733 171.809 438.048 171.628 438.464C171.447 438.88 171.356 439.392 171.356 440C171.356 440.597 171.447 441.109 171.628 441.536C171.809 441.952 172.065 442.272 172.396 442.496C172.737 442.709 173.148 442.816 173.628 442.816C174.108 442.816 174.513 442.709 174.844 442.496C175.175 442.272 175.431 441.952 175.612 441.536C175.793 441.109 175.884 440.597 175.884 440C175.884 439.392 175.793 438.88 175.612 438.464C175.431 438.048 175.175 437.733 174.844 437.52C174.513 437.296 174.108 437.184 173.628 437.184ZM179.75 444V436H181.27L181.382 438.08L181.158 437.856C181.307 437.397 181.521 437.019 181.798 436.72C182.086 436.411 182.422 436.187 182.806 436.048C183.201 435.909 183.617 435.84 184.054 435.84C184.619 435.84 185.126 435.952 185.574 436.176C186.033 436.389 186.395 436.715 186.662 437.152C186.929 437.589 187.062 438.144 187.062 438.816V444H185.35V439.344C185.35 438.555 185.185 438.011 184.854 437.712C184.534 437.403 184.129 437.248 183.638 437.248C183.286 437.248 182.945 437.333 182.614 437.504C182.283 437.664 182.006 437.925 181.782 438.288C181.569 438.651 181.462 439.136 181.462 439.744V444H179.75ZM196.696 434.32L196.968 435.664C196.936 435.664 196.904 435.664 196.872 435.664C196.84 435.653 196.808 435.648 196.776 435.648C196.264 435.648 195.875 435.76 195.608 435.984C195.341 436.197 195.208 436.512 195.208 436.928L194.376 436.544C194.376 436.117 194.467 435.739 194.648 435.408C194.829 435.067 195.085 434.8 195.416 434.608C195.757 434.416 196.141 434.32 196.568 434.32C196.589 434.32 196.611 434.32 196.632 434.32C196.653 434.32 196.675 434.32 196.696 434.32ZM194.168 442.752C194.979 442.752 195.608 442.933 196.056 443.296C196.504 443.648 196.728 444.139 196.728 444.768C196.728 445.323 196.552 445.797 196.2 446.192C195.848 446.597 195.368 446.907 194.76 447.12C194.163 447.333 193.475 447.44 192.696 447.44C191.384 447.44 190.413 447.237 189.784 446.832C189.155 446.427 188.84 445.92 188.84 445.312C188.84 444.885 188.989 444.512 189.288 444.192C189.597 443.872 190.115 443.691 190.84 443.648L190.744 443.904C190.296 443.808 189.933 443.637 189.656 443.392C189.389 443.136 189.256 442.779 189.256 442.32C189.256 441.861 189.432 441.472 189.784 441.152C190.136 440.832 190.632 440.645 191.272 440.592L192.168 441.024H191.976C191.485 441.067 191.139 441.179 190.936 441.36C190.733 441.541 190.632 441.744 190.632 441.968C190.632 442.235 190.728 442.432 190.92 442.56C191.123 442.688 191.405 442.752 191.768 442.752H194.168ZM192.696 446.16C193.283 446.16 193.763 446.101 194.136 445.984C194.52 445.877 194.803 445.733 194.984 445.552C195.176 445.381 195.272 445.189 195.272 444.976C195.272 444.731 195.171 444.533 194.968 444.384C194.776 444.235 194.424 444.16 193.912 444.16H191.336C191.037 444.16 190.787 444.235 190.584 444.384C190.381 444.544 190.28 444.757 190.28 445.024C190.28 445.376 190.493 445.653 190.92 445.856C191.347 446.059 191.939 446.16 192.696 446.16ZM192.632 435.84C193.336 435.84 193.944 435.952 194.456 436.176C194.979 436.4 195.379 436.715 195.656 437.12C195.944 437.525 196.088 438 196.088 438.544C196.088 439.088 195.944 439.563 195.656 439.968C195.379 440.373 194.979 440.688 194.456 440.912C193.944 441.136 193.336 441.248 192.632 441.248C191.523 441.248 190.669 441.003 190.072 440.512C189.485 440.011 189.192 439.355 189.192 438.544C189.192 438 189.336 437.525 189.624 437.12C189.912 436.715 190.312 436.4 190.824 436.176C191.347 435.952 191.949 435.84 192.632 435.84ZM192.632 437.04C192.141 437.04 191.731 437.179 191.4 437.456C191.08 437.723 190.92 438.085 190.92 438.544C190.92 439.003 191.08 439.371 191.4 439.648C191.731 439.925 192.141 440.064 192.632 440.064C193.133 440.064 193.544 439.925 193.864 439.648C194.195 439.371 194.36 439.003 194.36 438.544C194.36 438.085 194.195 437.723 193.864 437.456C193.544 437.179 193.133 437.04 192.632 437.04ZM201.337 444.16C200.537 444.16 199.806 444.005 199.145 443.696C198.483 443.387 197.961 442.949 197.577 442.384L198.761 441.36C198.995 441.797 199.331 442.149 199.769 442.416C200.217 442.672 200.75 442.8 201.369 442.8C201.859 442.8 202.249 442.715 202.537 442.544C202.825 442.373 202.969 442.133 202.969 441.824C202.969 441.621 202.899 441.445 202.761 441.296C202.633 441.136 202.382 441.013 202.009 440.928L200.329 440.576C199.475 440.405 198.867 440.133 198.505 439.76C198.142 439.376 197.961 438.891 197.961 438.304C197.961 437.867 198.089 437.461 198.345 437.088C198.601 436.715 198.974 436.416 199.465 436.192C199.966 435.957 200.563 435.84 201.257 435.84C202.057 435.84 202.739 435.984 203.305 436.272C203.87 436.549 204.302 436.949 204.601 437.472L203.417 438.464C203.214 438.037 202.915 437.723 202.521 437.52C202.126 437.307 201.715 437.2 201.289 437.2C200.947 437.2 200.654 437.243 200.409 437.328C200.163 437.413 199.977 437.531 199.849 437.68C199.721 437.829 199.657 438.005 199.657 438.208C199.657 438.421 199.737 438.608 199.897 438.768C200.057 438.928 200.345 439.051 200.761 439.136L202.585 439.52C203.353 439.669 203.891 439.925 204.201 440.288C204.521 440.64 204.681 441.072 204.681 441.584C204.681 442.096 204.547 442.549 204.281 442.944C204.014 443.328 203.63 443.627 203.129 443.84C202.627 444.053 202.03 444.16 201.337 444.16ZM214.055 433.648V441.6C214.055 441.995 214.156 442.283 214.359 442.464C214.572 442.645 214.855 442.736 215.207 442.736C215.495 442.736 215.745 442.693 215.959 442.608C216.172 442.512 216.369 442.384 216.551 442.224L216.935 443.472C216.689 443.685 216.385 443.856 216.023 443.984C215.671 444.101 215.276 444.16 214.839 444.16C214.38 444.16 213.959 444.085 213.575 443.936C213.191 443.787 212.892 443.547 212.679 443.216C212.465 442.875 212.353 442.432 212.343 441.888V434.128L214.055 433.648ZM216.807 436V437.344H210.807V436H216.807ZM221.972 435.84C222.751 435.84 223.439 436.005 224.036 436.336C224.633 436.667 225.097 437.147 225.428 437.776C225.769 438.395 225.94 439.136 225.94 440C225.94 440.864 225.769 441.611 225.428 442.24C225.097 442.859 224.633 443.333 224.036 443.664C223.439 443.995 222.751 444.16 221.972 444.16C221.193 444.16 220.505 443.995 219.908 443.664C219.311 443.333 218.841 442.859 218.5 442.24C218.159 441.611 217.988 440.864 217.988 440C217.988 439.136 218.159 438.395 218.5 437.776C218.841 437.147 219.311 436.667 219.908 436.336C220.505 436.005 221.193 435.84 221.972 435.84ZM221.972 437.184C221.492 437.184 221.081 437.296 220.74 437.52C220.409 437.733 220.153 438.048 219.972 438.464C219.791 438.88 219.7 439.392 219.7 440C219.7 440.597 219.791 441.109 219.972 441.536C220.153 441.952 220.409 442.272 220.74 442.496C221.081 442.709 221.492 442.816 221.972 442.816C222.452 442.816 222.857 442.709 223.188 442.496C223.519 442.272 223.775 441.952 223.956 441.536C224.137 441.109 224.228 440.597 224.228 440C224.228 439.392 224.137 438.88 223.956 438.464C223.775 438.048 223.519 437.733 223.188 437.52C222.857 437.296 222.452 437.184 221.972 437.184ZM237.921 438.864C237.921 438.331 237.771 437.92 237.473 437.632C237.185 437.333 236.785 437.184 236.273 437.184C235.793 437.184 235.382 437.296 235.041 437.52C234.699 437.744 234.449 438.107 234.289 438.608L232.849 438C233.051 437.349 233.446 436.827 234.033 436.432C234.63 436.037 235.398 435.84 236.337 435.84C236.977 435.84 237.542 435.947 238.033 436.16C238.523 436.363 238.907 436.672 239.185 437.088C239.473 437.504 239.617 438.037 239.617 438.688V442.256C239.617 442.651 239.814 442.848 240.209 442.848C240.401 442.848 240.587 442.821 240.769 442.768L240.673 443.952C240.427 444.069 240.118 444.128 239.745 444.128C239.403 444.128 239.094 444.069 238.817 443.952C238.55 443.824 238.337 443.637 238.177 443.392C238.027 443.136 237.953 442.821 237.953 442.448V442.336L238.305 442.32C238.209 442.736 238.011 443.083 237.713 443.36C237.414 443.627 237.067 443.829 236.673 443.968C236.278 444.096 235.878 444.16 235.473 444.16C234.971 444.16 234.518 444.08 234.113 443.92C233.718 443.76 233.403 443.52 233.169 443.2C232.945 442.869 232.833 442.464 232.833 441.984C232.833 441.387 233.025 440.896 233.409 440.512C233.803 440.128 234.358 439.867 235.073 439.728L238.177 439.12L238.161 440.32L235.905 440.784C235.457 440.869 235.121 440.992 234.897 441.152C234.673 441.312 234.561 441.547 234.561 441.856C234.561 442.155 234.673 442.395 234.897 442.576C235.131 442.747 235.441 442.832 235.825 442.832C236.091 442.832 236.347 442.8 236.593 442.736C236.849 442.672 237.078 442.571 237.281 442.432C237.483 442.283 237.638 442.096 237.745 441.872C237.862 441.637 237.921 441.36 237.921 441.04V438.864ZM242.422 444V436H243.942L244.054 438.08L243.83 437.856C243.979 437.397 244.192 437.019 244.47 436.72C244.758 436.411 245.094 436.187 245.478 436.048C245.872 435.909 246.288 435.84 246.726 435.84C247.291 435.84 247.798 435.952 248.246 436.176C248.704 436.389 249.067 436.715 249.334 437.152C249.6 437.589 249.734 438.144 249.734 438.816V444H248.022V439.344C248.022 438.555 247.856 438.011 247.526 437.712C247.206 437.403 246.8 437.248 246.31 437.248C245.958 437.248 245.616 437.333 245.286 437.504C244.955 437.664 244.678 437.925 244.454 438.288C244.24 438.651 244.134 439.136 244.134 439.744V444H242.422ZM261.051 444.16C260.251 444.16 259.547 443.995 258.939 443.664C258.331 443.333 257.856 442.859 257.515 442.24C257.184 441.611 257.019 440.864 257.019 440C257.019 439.136 257.184 438.395 257.515 437.776C257.856 437.147 258.326 436.667 258.923 436.336C259.52 436.005 260.198 435.84 260.955 435.84C261.734 435.84 262.395 436 262.939 436.32C263.483 436.64 263.899 437.077 264.187 437.632C264.475 438.187 264.619 438.816 264.619 439.52C264.619 439.712 264.614 439.893 264.603 440.064C264.592 440.235 264.576 440.384 264.555 440.512H258.123V439.2H263.803L262.955 439.456C262.955 438.731 262.774 438.176 262.411 437.792C262.048 437.397 261.552 437.2 260.923 437.2C260.464 437.2 260.064 437.307 259.723 437.52C259.382 437.733 259.12 438.053 258.939 438.48C258.758 438.896 258.667 439.408 258.667 440.016C258.667 440.613 258.763 441.12 258.955 441.536C259.147 441.952 259.419 442.267 259.771 442.48C260.123 442.693 260.539 442.8 261.019 442.8C261.552 442.8 261.984 442.699 262.315 442.496C262.646 442.293 262.907 442.011 263.099 441.648L264.459 442.288C264.267 442.672 264.006 443.008 263.675 443.296C263.355 443.573 262.971 443.787 262.523 443.936C262.075 444.085 261.584 444.16 261.051 444.16ZM267.701 436L269.957 439.424L270.277 439.472L273.525 444H271.493L269.141 440.48L268.773 440.352L265.637 436H267.701ZM273.477 436L270.341 440.288L269.989 440.272L267.429 444H265.477L268.885 439.44L269.221 439.472L271.509 436H273.477ZM276.114 434.656C275.741 434.656 275.453 434.565 275.25 434.384C275.058 434.192 274.962 433.925 274.962 433.584C274.962 433.243 275.058 432.981 275.25 432.8C275.453 432.619 275.741 432.528 276.114 432.528C276.477 432.528 276.754 432.619 276.946 432.8C277.149 432.981 277.25 433.243 277.25 433.584C277.25 433.925 277.149 434.192 276.946 434.384C276.754 434.565 276.477 434.656 276.114 434.656ZM276.962 436V444H275.25V436H276.962ZM282.681 444.16C281.881 444.16 281.15 444.005 280.489 443.696C279.827 443.387 279.305 442.949 278.921 442.384L280.105 441.36C280.339 441.797 280.675 442.149 281.113 442.416C281.561 442.672 282.094 442.8 282.713 442.8C283.203 442.8 283.593 442.715 283.881 442.544C284.169 442.373 284.313 442.133 284.313 441.824C284.313 441.621 284.243 441.445 284.105 441.296C283.977 441.136 283.726 441.013 283.353 440.928L281.673 440.576C280.819 440.405 280.211 440.133 279.849 439.76C279.486 439.376 279.305 438.891 279.305 438.304C279.305 437.867 279.433 437.461 279.689 437.088C279.945 436.715 280.318 436.416 280.809 436.192C281.31 435.957 281.907 435.84 282.601 435.84C283.401 435.84 284.083 435.984 284.649 436.272C285.214 436.549 285.646 436.949 285.945 437.472L284.761 438.464C284.558 438.037 284.259 437.723 283.865 437.52C283.47 437.307 283.059 437.2 282.633 437.2C282.291 437.2 281.998 437.243 281.753 437.328C281.507 437.413 281.321 437.531 281.193 437.68C281.065 437.829 281.001 438.005 281.001 438.208C281.001 438.421 281.081 438.608 281.241 438.768C281.401 438.928 281.689 439.051 282.105 439.136L283.929 439.52C284.697 439.669 285.235 439.925 285.545 440.288C285.865 440.64 286.025 441.072 286.025 441.584C286.025 442.096 285.891 442.549 285.625 442.944C285.358 443.328 284.974 443.627 284.473 443.84C283.971 444.053 283.374 444.16 282.681 444.16ZM290.445 433.648V441.6C290.445 441.995 290.547 442.283 290.749 442.464C290.963 442.645 291.245 442.736 291.597 442.736C291.885 442.736 292.136 442.693 292.349 442.608C292.563 442.512 292.76 442.384 292.941 442.224L293.325 443.472C293.08 443.685 292.776 443.856 292.413 443.984C292.061 444.101 291.667 444.16 291.229 444.16C290.771 444.16 290.349 444.085 289.965 443.936C289.581 443.787 289.283 443.547 289.069 443.216C288.856 442.875 288.744 442.432 288.733 441.888V434.128L290.445 433.648ZM293.197 436V437.344H287.197V436H293.197ZM295.755 434.656C295.381 434.656 295.093 434.565 294.891 434.384C294.699 434.192 294.603 433.925 294.603 433.584C294.603 433.243 294.699 432.981 294.891 432.8C295.093 432.619 295.381 432.528 295.755 432.528C296.117 432.528 296.395 432.619 296.587 432.8C296.789 432.981 296.891 433.243 296.891 433.584C296.891 433.925 296.789 434.192 296.587 434.384C296.395 434.565 296.117 434.656 295.755 434.656ZM296.603 436V444H294.891V436H296.603ZM299.281 444V436H300.801L300.913 438.08L300.689 437.856C300.838 437.397 301.052 437.019 301.329 436.72C301.617 436.411 301.953 436.187 302.337 436.048C302.732 435.909 303.148 435.84 303.585 435.84C304.15 435.84 304.657 435.952 305.105 436.176C305.564 436.389 305.926 436.715 306.193 437.152C306.46 437.589 306.593 438.144 306.593 438.816V444H304.881V439.344C304.881 438.555 304.716 438.011 304.385 437.712C304.065 437.403 303.66 437.248 303.169 437.248C302.817 437.248 302.476 437.333 302.145 437.504C301.814 437.664 301.537 437.925 301.313 438.288C301.1 438.651 300.993 439.136 300.993 439.744V444H299.281ZM316.227 434.32L316.499 435.664C316.467 435.664 316.435 435.664 316.403 435.664C316.371 435.653 316.339 435.648 316.307 435.648C315.795 435.648 315.406 435.76 315.139 435.984C314.873 436.197 314.739 436.512 314.739 436.928L313.907 436.544C313.907 436.117 313.998 435.739 314.179 435.408C314.361 435.067 314.617 434.8 314.947 434.608C315.289 434.416 315.673 434.32 316.099 434.32C316.121 434.32 316.142 434.32 316.163 434.32C316.185 434.32 316.206 434.32 316.227 434.32ZM313.699 442.752C314.51 442.752 315.139 442.933 315.587 443.296C316.035 443.648 316.259 444.139 316.259 444.768C316.259 445.323 316.083 445.797 315.731 446.192C315.379 446.597 314.899 446.907 314.291 447.12C313.694 447.333 313.006 447.44 312.227 447.44C310.915 447.44 309.945 447.237 309.315 446.832C308.686 446.427 308.371 445.92 308.371 445.312C308.371 444.885 308.521 444.512 308.819 444.192C309.129 443.872 309.646 443.691 310.371 443.648L310.275 443.904C309.827 443.808 309.465 443.637 309.187 443.392C308.921 443.136 308.787 442.779 308.787 442.32C308.787 441.861 308.963 441.472 309.315 441.152C309.667 440.832 310.163 440.645 310.803 440.592L311.699 441.024H311.507C311.017 441.067 310.67 441.179 310.467 441.36C310.265 441.541 310.163 441.744 310.163 441.968C310.163 442.235 310.259 442.432 310.451 442.56C310.654 442.688 310.937 442.752 311.299 442.752H313.699ZM312.227 446.16C312.814 446.16 313.294 446.101 313.667 445.984C314.051 445.877 314.334 445.733 314.515 445.552C314.707 445.381 314.803 445.189 314.803 444.976C314.803 444.731 314.702 444.533 314.499 444.384C314.307 444.235 313.955 444.16 313.443 444.16H310.867C310.569 444.16 310.318 444.235 310.115 444.384C309.913 444.544 309.811 444.757 309.811 445.024C309.811 445.376 310.025 445.653 310.451 445.856C310.878 446.059 311.47 446.16 312.227 446.16ZM312.163 435.84C312.867 435.84 313.475 435.952 313.987 436.176C314.51 436.4 314.91 436.715 315.187 437.12C315.475 437.525 315.619 438 315.619 438.544C315.619 439.088 315.475 439.563 315.187 439.968C314.91 440.373 314.51 440.688 313.987 440.912C313.475 441.136 312.867 441.248 312.163 441.248C311.054 441.248 310.201 441.003 309.603 440.512C309.017 440.011 308.723 439.355 308.723 438.544C308.723 438 308.867 437.525 309.155 437.12C309.443 436.715 309.843 436.4 310.355 436.176C310.878 435.952 311.481 435.84 312.163 435.84ZM312.163 437.04C311.673 437.04 311.262 437.179 310.931 437.456C310.611 437.723 310.451 438.085 310.451 438.544C310.451 439.003 310.611 439.371 310.931 439.648C311.262 439.925 311.673 440.064 312.163 440.064C312.665 440.064 313.075 439.925 313.395 439.648C313.726 439.371 313.891 439.003 313.891 438.544C313.891 438.085 313.726 437.723 313.395 437.456C313.075 437.179 312.665 437.04 312.163 437.04ZM330.071 434.32L330.343 435.664C330.311 435.664 330.279 435.664 330.247 435.664C330.215 435.653 330.183 435.648 330.151 435.648C329.639 435.648 329.25 435.76 328.983 435.984C328.716 436.197 328.583 436.512 328.583 436.928L327.751 436.544C327.751 436.117 327.842 435.739 328.023 435.408C328.204 435.067 328.46 434.8 328.791 434.608C329.132 434.416 329.516 434.32 329.943 434.32C329.964 434.32 329.986 434.32 330.007 434.32C330.028 434.32 330.05 434.32 330.071 434.32ZM327.543 442.752C328.354 442.752 328.983 442.933 329.431 443.296C329.879 443.648 330.103 444.139 330.103 444.768C330.103 445.323 329.927 445.797 329.575 446.192C329.223 446.597 328.743 446.907 328.135 447.12C327.538 447.333 326.85 447.44 326.071 447.44C324.759 447.44 323.788 447.237 323.159 446.832C322.53 446.427 322.215 445.92 322.215 445.312C322.215 444.885 322.364 444.512 322.663 444.192C322.972 443.872 323.49 443.691 324.215 443.648L324.119 443.904C323.671 443.808 323.308 443.637 323.031 443.392C322.764 443.136 322.631 442.779 322.631 442.32C322.631 441.861 322.807 441.472 323.159 441.152C323.511 440.832 324.007 440.645 324.647 440.592L325.543 441.024H325.351C324.86 441.067 324.514 441.179 324.311 441.36C324.108 441.541 324.007 441.744 324.007 441.968C324.007 442.235 324.103 442.432 324.295 442.56C324.498 442.688 324.78 442.752 325.143 442.752H327.543ZM326.071 446.16C326.658 446.16 327.138 446.101 327.511 445.984C327.895 445.877 328.178 445.733 328.359 445.552C328.551 445.381 328.647 445.189 328.647 444.976C328.647 444.731 328.546 444.533 328.343 444.384C328.151 444.235 327.799 444.16 327.287 444.16H324.711C324.412 444.16 324.162 444.235 323.959 444.384C323.756 444.544 323.655 444.757 323.655 445.024C323.655 445.376 323.868 445.653 324.295 445.856C324.722 446.059 325.314 446.16 326.071 446.16ZM326.007 435.84C326.711 435.84 327.319 435.952 327.831 436.176C328.354 436.4 328.754 436.715 329.031 437.12C329.319 437.525 329.463 438 329.463 438.544C329.463 439.088 329.319 439.563 329.031 439.968C328.754 440.373 328.354 440.688 327.831 440.912C327.319 441.136 326.711 441.248 326.007 441.248C324.898 441.248 324.044 441.003 323.447 440.512C322.86 440.011 322.567 439.355 322.567 438.544C322.567 438 322.711 437.525 322.999 437.12C323.287 436.715 323.687 436.4 324.199 436.176C324.722 435.952 325.324 435.84 326.007 435.84ZM326.007 437.04C325.516 437.04 325.106 437.179 324.775 437.456C324.455 437.723 324.295 438.085 324.295 438.544C324.295 439.003 324.455 439.371 324.775 439.648C325.106 439.925 325.516 440.064 326.007 440.064C326.508 440.064 326.919 439.925 327.239 439.648C327.57 439.371 327.735 439.003 327.735 438.544C327.735 438.085 327.57 437.723 327.239 437.456C326.919 437.179 326.508 437.04 326.007 437.04ZM331.672 444V436H333.128L333.288 437.44C333.501 436.917 333.816 436.523 334.232 436.256C334.658 435.979 335.181 435.84 335.8 435.84C335.96 435.84 336.12 435.856 336.28 435.888C336.44 435.909 336.573 435.947 336.68 436L336.44 437.504C336.322 437.461 336.189 437.429 336.04 437.408C335.901 437.376 335.709 437.36 335.464 437.36C335.133 437.36 334.808 437.451 334.488 437.632C334.168 437.803 333.901 438.064 333.688 438.416C333.485 438.768 333.384 439.216 333.384 439.76V444H331.672ZM341.566 435.84C342.344 435.84 343.032 436.005 343.63 436.336C344.227 436.667 344.691 437.147 345.022 437.776C345.363 438.395 345.534 439.136 345.534 440C345.534 440.864 345.363 441.611 345.022 442.24C344.691 442.859 344.227 443.333 343.63 443.664C343.032 443.995 342.344 444.16 341.566 444.16C340.787 444.16 340.099 443.995 339.502 443.664C338.904 443.333 338.435 442.859 338.094 442.24C337.752 441.611 337.582 440.864 337.582 440C337.582 439.136 337.752 438.395 338.094 437.776C338.435 437.147 338.904 436.667 339.502 436.336C340.099 436.005 340.787 435.84 341.566 435.84ZM341.566 437.184C341.086 437.184 340.675 437.296 340.334 437.52C340.003 437.733 339.747 438.048 339.566 438.464C339.384 438.88 339.294 439.392 339.294 440C339.294 440.597 339.384 441.109 339.566 441.536C339.747 441.952 340.003 442.272 340.334 442.496C340.675 442.709 341.086 442.816 341.566 442.816C342.046 442.816 342.451 442.709 342.782 442.496C343.112 442.272 343.368 441.952 343.55 441.536C343.731 441.109 343.822 440.597 343.822 440C343.822 439.392 343.731 438.88 343.55 438.464C343.368 438.048 343.112 437.733 342.782 437.52C342.451 437.296 342.046 437.184 341.566 437.184ZM350.535 444.16C350.013 444.16 349.527 444.064 349.079 443.872C348.642 443.68 348.29 443.371 348.023 442.944C347.757 442.517 347.623 441.963 347.623 441.28V436H349.335V440.848C349.335 441.573 349.49 442.075 349.799 442.352C350.109 442.619 350.541 442.752 351.095 442.752C351.362 442.752 351.618 442.709 351.863 442.624C352.119 442.528 352.349 442.384 352.551 442.192C352.754 441.989 352.909 441.733 353.015 441.424C353.133 441.115 353.191 440.752 353.191 440.336V436H354.903V444H353.399L353.319 442.704C353.042 443.205 352.669 443.573 352.199 443.808C351.73 444.043 351.175 444.16 350.535 444.16ZM357.578 447.36V436H359.098L359.226 438.24L359.002 437.968C359.13 437.552 359.327 437.184 359.594 436.864C359.861 436.544 360.191 436.293 360.586 436.112C360.991 435.931 361.434 435.84 361.914 435.84C362.565 435.84 363.157 436.005 363.69 436.336C364.223 436.667 364.645 437.141 364.954 437.76C365.263 438.368 365.418 439.109 365.418 439.984C365.418 440.859 365.258 441.611 364.938 442.24C364.629 442.859 364.202 443.333 363.658 443.664C363.125 443.995 362.527 444.16 361.866 444.16C361.183 444.16 360.602 443.984 360.122 443.632C359.642 443.269 359.301 442.811 359.098 442.256L359.29 441.984V447.36H357.578ZM361.498 442.768C362.191 442.768 362.73 442.523 363.114 442.032C363.509 441.541 363.706 440.864 363.706 440C363.706 439.136 363.514 438.459 363.13 437.968C362.746 437.467 362.213 437.216 361.53 437.216C361.082 437.216 360.687 437.333 360.346 437.568C360.015 437.792 359.754 438.112 359.562 438.528C359.381 438.933 359.29 439.424 359.29 440C359.29 440.565 359.381 441.056 359.562 441.472C359.743 441.888 359.999 442.208 360.33 442.432C360.661 442.656 361.05 442.768 361.498 442.768ZM368.176 441.84C368.539 441.84 368.827 441.947 369.04 442.16C369.264 442.363 369.376 442.64 369.376 442.992C369.376 443.344 369.264 443.627 369.04 443.84C368.827 444.053 368.539 444.16 368.176 444.16C367.803 444.16 367.504 444.053 367.28 443.84C367.067 443.627 366.96 443.344 366.96 442.992C366.96 442.64 367.067 442.363 367.28 442.16C367.504 441.947 367.803 441.84 368.176 441.84Z" fill="black"/>
<path d="M114.058 353.02C115.978 353.02 116.618 352.46 116.618 350.74C116.618 349.02 115.898 348.52 114.158 348.52C113.798 348.52 113.018 348.52 112.398 348.54C112.398 350.1 112.398 351.6 112.418 353C112.818 353 113.398 353.02 114.058 353.02ZM107.538 345H115.298C119.158 345 121.298 346.32 121.298 350.64C121.298 354.76 119.458 356.54 114.878 356.54C114.118 356.54 113.378 356.52 112.458 356.5C112.498 357.86 112.538 359.04 112.618 360H107.538C107.598 357.84 107.618 355.7 107.618 352.5C107.618 349.32 107.598 347.08 107.538 345ZM123.046 345H128.206C128.166 346.12 128.126 349.16 128.106 352.48C128.106 353.54 128.106 354.62 128.126 355.56C129.506 355.56 131.346 355.54 132.946 355.5C132.946 356.24 132.926 357 132.926 357.74C132.926 358.5 132.946 359.24 132.946 360H123.046C123.046 358.78 123.106 355.7 123.106 352.5C123.106 349.06 123.106 346.44 123.046 345ZM134.511 345H146.551C146.531 345.42 146.511 346.18 146.511 346.76C146.511 347.38 146.511 348.24 146.551 348.68C144.111 348.66 141.451 348.64 139.451 348.64V350.74C141.831 350.74 144.411 350.74 146.371 350.68C146.351 351.42 146.351 353.16 146.351 353.96C144.411 353.92 141.811 353.9 139.451 353.9V356.08C141.471 356.08 144.271 356.06 146.551 356.04C146.511 356.52 146.511 357.4 146.511 358.1C146.511 358.7 146.511 359.5 146.551 360H134.511C134.571 357.98 134.571 355.7 134.571 352.5C134.571 349.32 134.571 346.94 134.511 345ZM155.745 354.06H157.465C157.145 352.6 156.805 351.1 156.465 349.8C156.165 348.78 155.945 347.8 155.785 347.08H155.725C155.545 347.8 155.325 348.76 155.025 349.84C154.725 351.14 154.385 352.62 154.045 354.06H155.745ZM164.185 360H158.585C158.525 359.46 158.365 358.42 158.105 357.14C157.245 357.14 156.405 357.14 155.745 357.14C155.125 357.14 154.265 357.14 153.385 357.14C153.125 358.38 152.925 359.4 152.845 360H147.725C148.945 356.24 151.365 347.08 151.865 345H159.885C160.445 347.1 162.885 356.18 164.185 360ZM169.252 355.1V355.38C169.252 356.52 169.772 356.94 171.492 356.94C173.172 356.94 173.632 356.54 173.632 355.8C173.632 354.94 173.172 354.36 170.572 354C165.992 353.38 164.872 351.84 164.872 349.24C164.872 346.4 166.912 344.72 171.512 344.72C176.632 344.72 178.212 346.2 178.212 348.88C178.212 349.16 178.192 349.46 178.172 349.78C177.572 349.74 176.592 349.72 175.732 349.72C175.052 349.72 174.392 349.72 173.972 349.74C173.992 349.6 173.992 349.46 173.992 349.34C173.992 348.54 173.552 348.02 171.652 348.02C170.192 348.02 169.732 348.44 169.732 349.08C169.732 349.8 170.052 350.4 172.872 350.82C176.972 351.44 178.412 352.74 178.412 355.66C178.412 358.58 176.572 360.28 171.732 360.28C166.532 360.28 164.832 358.86 164.832 356.08C164.832 355.74 164.832 355.38 164.872 355.02C165.532 355.08 166.532 355.14 167.472 355.14C168.152 355.14 168.792 355.14 169.252 355.1ZM180.351 345H192.391C192.371 345.42 192.351 346.18 192.351 346.76C192.351 347.38 192.351 348.24 192.391 348.68C189.951 348.66 187.291 348.64 185.291 348.64V350.74C187.671 350.74 190.251 350.74 192.211 350.68C192.191 351.42 192.191 353.16 192.191 353.96C190.251 353.92 187.651 353.9 185.291 353.9V356.08C187.311 356.08 190.111 356.06 192.391 356.04C192.351 356.52 192.351 357.4 192.351 358.1C192.351 358.7 192.351 359.5 192.391 360H180.351C180.411 357.98 180.411 355.7 180.411 352.5C180.411 349.32 180.411 346.94 180.351 345ZM203.861 355.1V355.38C203.861 356.52 204.381 356.94 206.101 356.94C207.781 356.94 208.241 356.54 208.241 355.8C208.241 354.94 207.781 354.36 205.181 354C200.601 353.38 199.481 351.84 199.481 349.24C199.481 346.4 201.521 344.72 206.121 344.72C211.241 344.72 212.821 346.2 212.821 348.88C212.821 349.16 212.801 349.46 212.781 349.78C212.181 349.74 211.201 349.72 210.341 349.72C209.661 349.72 209.001 349.72 208.581 349.74C208.601 349.6 208.601 349.46 208.601 349.34C208.601 348.54 208.161 348.02 206.261 348.02C204.801 348.02 204.341 348.44 204.341 349.08C204.341 349.8 204.661 350.4 207.481 350.82C211.581 351.44 213.021 352.74 213.021 355.66C213.021 358.58 211.181 360.28 206.341 360.28C201.141 360.28 199.441 358.86 199.441 356.08C199.441 355.74 199.441 355.38 199.481 355.02C200.141 355.08 201.141 355.14 202.081 355.14C202.761 355.14 203.401 355.14 203.861 355.1ZM214.96 345H227C226.98 345.42 226.96 346.18 226.96 346.76C226.96 347.38 226.96 348.24 227 348.68C224.56 348.66 221.9 348.64 219.9 348.64V350.74C222.28 350.74 224.86 350.74 226.82 350.68C226.8 351.42 226.8 353.16 226.8 353.96C224.86 353.92 222.26 353.9 219.9 353.9V356.08C221.92 356.08 224.72 356.06 227 356.04C226.96 356.52 226.96 357.4 226.96 358.1C226.96 358.7 226.96 359.5 227 360H214.96C215.02 357.98 215.02 355.7 215.02 352.5C215.02 349.32 215.02 346.94 214.96 345ZM229.355 345H234.515C234.475 346.12 234.435 349.16 234.415 352.48C234.415 353.54 234.415 354.62 234.435 355.56C235.815 355.56 237.655 355.54 239.255 355.5C239.255 356.24 239.235 357 239.235 357.74C239.235 358.5 239.255 359.24 239.255 360H229.355C229.355 358.78 229.415 355.7 229.415 352.5C229.415 349.06 229.415 346.44 229.355 345ZM240.82 345H252.86C252.84 345.42 252.82 346.18 252.82 346.76C252.82 347.38 252.82 348.24 252.86 348.68C250.42 348.66 247.76 348.64 245.76 348.64V350.74C248.14 350.74 250.72 350.74 252.68 350.68C252.66 351.42 252.66 353.16 252.66 353.96C250.72 353.92 248.12 353.9 245.76 353.9V356.08C247.78 356.08 250.58 356.06 252.86 356.04C252.82 356.52 252.82 357.4 252.82 358.1C252.82 358.7 252.82 359.5 252.86 360H240.82C240.88 357.98 240.88 355.7 240.88 352.5C240.88 349.32 240.88 346.94 240.82 345ZM264.454 353.98V353.46C265.254 353.48 266.054 353.48 266.854 353.48C267.654 353.48 268.474 353.48 269.274 353.46C269.294 353.78 269.294 354.08 269.294 354.34C269.294 358.32 266.954 360.26 262.134 360.26C257.054 360.26 254.594 357.94 254.594 352.3C254.594 347.14 256.974 344.74 262.194 344.74C267.314 344.74 269.254 346.74 269.254 350C269.254 350.38 269.234 350.8 269.194 351.24C268.394 351.2 267.574 351.2 266.794 351.2C265.994 351.2 265.214 351.2 264.414 351.24C264.434 351.08 264.434 350.92 264.434 350.8C264.434 349.1 263.654 348.52 262.134 348.52C260.454 348.54 259.654 349.32 259.654 352.28C259.654 355.22 260.474 356.2 262.234 356.2C263.774 356.2 264.454 355.32 264.454 353.98ZM270.406 345H282.406C282.386 345.56 282.386 346.42 282.386 347.2C282.386 347.94 282.386 348.88 282.406 349.48C281.226 349.46 280.046 349.44 278.966 349.44C278.966 354.26 278.986 358.94 279.046 360.02C278.346 359.96 277.206 359.96 276.406 359.96C275.606 359.96 274.506 359.96 273.786 360.02C273.846 358.94 273.866 354.28 273.866 349.44C272.786 349.44 271.606 349.46 270.406 349.48C270.426 348.88 270.426 347.94 270.426 347.2C270.426 346.42 270.426 345.56 270.406 345ZM147.035 379.06H148.755C148.435 377.6 148.095 376.1 147.755 374.8C147.455 373.78 147.235 372.8 147.075 372.08H147.015C146.835 372.8 146.615 373.76 146.315 374.84C146.015 376.14 145.675 377.62 145.335 379.06H147.035ZM155.475 385H149.875C149.815 384.46 149.655 383.42 149.395 382.14C148.535 382.14 147.695 382.14 147.035 382.14C146.415 382.14 145.555 382.14 144.675 382.14C144.415 383.38 144.215 384.4 144.135 385H139.015C140.235 381.24 142.655 372.08 143.155 370H151.175C151.735 372.1 154.175 381.18 155.475 385ZM166.934 370H171.274C171.234 371.44 171.214 374.3 171.214 377.48C171.214 380.8 171.214 383.06 171.254 385H166.154C165.514 383.66 163.814 380.92 162.374 378.62C161.854 377.62 161.434 376.58 161.074 375.56H161.034C161.134 376.86 161.194 378.04 161.234 379.22C161.254 382.16 161.254 384.16 161.314 385H156.874C156.894 383 156.914 380.7 156.914 377.5C156.914 374.32 156.914 371.98 156.874 370H162.494C162.894 370.96 164.854 374.1 166.154 376.5C166.554 377.28 166.914 378.2 167.214 379.12L167.254 379.1C167.154 377.96 167.094 376.88 167.094 375.92C167.074 373.72 167.014 371.22 166.934 370ZM188.806 377.24C188.806 382.66 186.126 385.28 180.986 385.28C175.846 385.28 173.266 382.66 173.266 377.24C173.266 371.82 176.126 369.72 181.006 369.72C185.866 369.72 188.806 371.82 188.806 377.24ZM181.006 381.24C182.806 381.24 183.706 380 183.706 377.3C183.706 374.64 182.786 373.54 181.006 373.54C179.226 373.54 178.286 374.6 178.286 377.3C178.286 380.04 179.226 381.24 181.006 381.24ZM189.742 370H201.742C201.722 370.56 201.722 371.42 201.722 372.2C201.722 372.94 201.722 373.88 201.742 374.48C200.562 374.46 199.382 374.44 198.302 374.44C198.302 379.26 198.322 383.94 198.382 385.02C197.682 384.96 196.542 384.96 195.742 384.96C194.942 384.96 193.842 384.96 193.122 385.02C193.182 383.94 193.202 379.28 193.202 374.44C192.122 374.44 190.942 374.46 189.742 374.48C189.762 373.88 189.762 372.94 189.762 372.2C189.762 371.42 189.762 370.56 189.742 370ZM212.918 370H217.978C217.918 372.06 217.898 374.32 217.898 377.5C217.898 380.68 217.918 382.84 217.978 385H212.918C212.958 383.56 212.978 381.38 212.998 379.64C212.278 379.62 211.478 379.62 210.678 379.62C209.878 379.62 209.078 379.62 208.358 379.64C208.358 381.38 208.378 383.54 208.438 385H203.378C203.458 382.84 203.458 380.68 203.458 377.5C203.458 374.32 203.458 372.06 203.378 370H208.438C208.378 371.4 208.358 373.66 208.358 375.46C209.078 375.48 209.878 375.5 210.678 375.5C211.478 375.5 212.278 375.48 212.998 375.46C212.978 373.66 212.958 371.4 212.918 370ZM220.585 370H232.625C232.605 370.42 232.585 371.18 232.585 371.76C232.585 372.38 232.585 373.24 232.625 373.68C230.185 373.66 227.525 373.64 225.525 373.64V375.74C227.905 375.74 230.485 375.74 232.445 375.68C232.425 376.42 232.425 378.16 232.425 378.96C230.485 378.92 227.885 378.9 225.525 378.9V381.08C227.545 381.08 230.345 381.06 232.625 381.04C232.585 381.52 232.585 382.4 232.585 383.1C232.585 383.7 232.585 384.5 232.625 385H220.585C220.645 382.98 220.645 380.7 220.645 377.5C220.645 374.32 220.645 371.94 220.585 370ZM242.22 377.24C243.54 377.24 244.14 376.62 244.14 375.28C244.14 373.68 243.46 373.32 241.96 373.32C241.54 373.32 240.56 373.34 239.78 373.36C239.78 374.66 239.78 375.96 239.8 377.2C240.36 377.22 241.24 377.22 242.22 377.24ZM245.38 378.92V379.04C247.44 379.3 248.26 379.9 248.76 381.92C249.08 383.06 249.38 384.32 249.58 385H245.12C244.38 385 244.24 384.74 243.9 383.2C243.42 380.68 243.14 380.24 241.92 380.24C241.2 380.24 240.78 380.22 239.82 380.24C239.86 382.16 239.92 383.82 240.04 385H234.98C235.02 382.82 235.06 380.7 235.06 377.5C235.06 374.32 235.04 372.16 234.98 370H243.16C246.82 370 248.92 371.36 248.92 374.52C248.92 377.26 247.92 378.52 245.38 378.92Z" fill="#FEF8E5"/>
</g>
<defs>
<filter id="filter0_d_917_1252" x="43" y="318" width="303" height="99" filterUnits="userSpaceOnUse" color-interpolation-filters="sRGB">
<feFlood flood-opacity="0" result="BackgroundImageFix"/>
<feColorMatrix in="SourceAlpha" type="matrix" values="0 0 0 0 0 0 0 0 0 0 0 0 0 0 0 0 0 0 127 0" result="hardAlpha"/>
<feOffset dy="4"/>
<feGaussianBlur stdDeviation="2"/>
<feComposite in2="hardAlpha" operator="out"/>
<feColorMatrix type="matrix" values="0 0 0 0 0 0 0 0 0 0 0 0 0 0 0 0 0 0 0.25 0"/>
<feBlend mode="normal" in2="BackgroundImageFix" result="effect1_dropShadow_917_1252"/>
<feBlend mode="normal" in="SourceGraphic" in2="effect1_dropShadow_917_1252" result="shape"/>
</filter>
<clipPath id="clip0_917_1252">
<rect width="390" height="844" fill="white"/>
</clipPath>
</defs>
</svg>
