<svg width="148" height="21" viewBox="0 0 148 21" fill="none" xmlns="http://www.w3.org/2000/svg">
<path d="M5.80684 13.875V14.225C5.80684 15.65 6.45684 16.175 8.60684 16.175C10.7068 16.175 11.2818 15.675 11.2818 14.75C11.2818 13.675 10.7068 12.95 7.45684 12.5C1.73184 11.725 0.331836 9.8 0.331836 6.55C0.331836 3 2.88184 0.899999 8.63184 0.899999C15.0318 0.899999 17.0068 2.75 17.0068 6.1C17.0068 6.45 16.9818 6.825 16.9568 7.225C16.2068 7.175 14.9818 7.15 13.9068 7.15C13.0568 7.15 12.2318 7.15 11.7068 7.175C11.7318 7 11.7318 6.825 11.7318 6.675C11.7318 5.675 11.1818 5.025 8.80684 5.025C6.98184 5.025 6.40684 5.55 6.40684 6.35C6.40684 7.25 6.80684 8 10.3318 8.525C15.4568 9.3 17.2568 10.925 17.2568 14.575C17.2568 18.225 14.9568 20.35 8.90684 20.35C2.40684 20.35 0.281836 18.575 0.281836 15.1C0.281836 14.675 0.281836 14.225 0.331836 13.775C1.15684 13.85 2.40684 13.925 3.58184 13.925C4.43184 13.925 5.23184 13.925 5.80684 13.875ZM19.6807 1.25H34.7307C34.7057 1.775 34.6807 2.725 34.6807 3.45C34.6807 4.225 34.6807 5.3 34.7307 5.85C31.6807 5.825 28.3557 5.8 25.8557 5.8V8.425C28.8307 8.425 32.0557 8.425 34.5057 8.35C34.4807 9.275 34.4807 11.45 34.4807 12.45C32.0557 12.4 28.8057 12.375 25.8557 12.375V15.1C28.3807 15.1 31.8807 15.075 34.7307 15.05C34.6807 15.65 34.6807 16.75 34.6807 17.625C34.6807 18.375 34.6807 19.375 34.7307 20H19.6807C19.7557 17.475 19.7557 14.625 19.7557 10.625C19.7557 6.65 19.7557 3.675 19.6807 1.25ZM36.4738 1.25H51.4738C51.4488 1.95 51.4488 3.025 51.4488 4C51.4488 4.925 51.4488 6.1 51.4738 6.85C49.9988 6.825 48.5238 6.8 47.1738 6.8C47.1738 12.825 47.1988 18.675 47.2738 20.025C46.3988 19.95 44.9738 19.95 43.9738 19.95C42.9738 19.95 41.5988 19.95 40.6988 20.025C40.7738 18.675 40.7988 12.85 40.7988 6.8C39.4488 6.8 37.9738 6.825 36.4738 6.85C36.4988 6.1 36.4988 4.925 36.4988 4C36.4988 3.025 36.4988 1.95 36.4738 1.25ZM58.7883 1.25H73.7883C73.7633 1.95 73.7633 3.025 73.7633 4C73.7633 4.925 73.7633 6.1 73.7883 6.85C72.3133 6.825 70.8383 6.8 69.4883 6.8C69.4883 12.825 69.5133 18.675 69.5883 20.025C68.7133 19.95 67.2883 19.95 66.2883 19.95C65.2883 19.95 63.9133 19.95 63.0133 20.025C63.0883 18.675 63.1133 12.85 63.1133 6.8C61.7633 6.8 60.2883 6.825 58.7883 6.85C58.8133 6.1 58.8133 4.925 58.8133 4C58.8133 3.025 58.8133 1.95 58.7883 1.25ZM82.183 20H75.833C75.908 17.3 75.908 14.6 75.908 10.625C75.908 6.625 75.908 3.925 75.833 1.25H82.183C82.133 3.9 82.133 6.6 82.133 10.6C82.133 14.575 82.133 17.275 82.183 20ZM107.603 20H101.653C101.778 17.1 101.828 14.9 101.853 11.8C101.853 10.575 101.928 9.175 102.003 7.825L101.853 7.8C101.478 9.225 101.053 10.65 100.703 11.675L97.5527 20H94.9027L91.6777 11.475C91.3027 10.425 90.8777 9.025 90.5027 7.675L90.3777 7.7C90.4277 9.05 90.5027 10.35 90.5277 11.725C90.5527 14.875 90.6027 17.15 90.6777 20H85.4527C85.5277 17.3 85.5527 14.575 85.5527 10.6C85.5527 6.5 85.5277 3.7 85.4777 1.25H93.3027C93.8777 3 94.8277 5.875 95.9777 8.925C96.2277 9.75 96.5277 10.875 96.8027 11.95H96.8777C97.1777 10.875 97.4777 9.8 97.7527 8.95C98.8027 5.95 99.8277 2.975 100.403 1.25H107.578C107.503 3.7 107.478 6.5 107.478 10.6C107.478 14.575 107.503 17.3 107.603 20ZM110.843 1.25H125.893C125.868 1.775 125.843 2.725 125.843 3.45C125.843 4.225 125.843 5.3 125.893 5.85C122.843 5.825 119.518 5.8 117.018 5.8V8.425C119.993 8.425 123.218 8.425 125.668 8.35C125.643 9.275 125.643 11.45 125.643 12.45C123.218 12.4 119.968 12.375 117.018 12.375V15.1C119.543 15.1 123.043 15.075 125.893 15.05C125.843 15.65 125.843 16.75 125.843 17.625C125.843 18.375 125.843 19.375 125.893 20H110.843C110.918 17.475 110.918 14.625 110.918 10.625C110.918 6.65 110.918 3.675 110.843 1.25ZM137.886 10.3C139.536 10.3 140.286 9.525 140.286 7.85C140.286 5.85 139.436 5.4 137.561 5.4C137.036 5.4 135.811 5.425 134.836 5.45C134.836 7.075 134.836 8.7 134.861 10.25C135.561 10.275 136.661 10.275 137.886 10.3ZM141.836 12.4V12.55C144.411 12.875 145.436 13.625 146.061 16.15C146.461 17.575 146.836 19.15 147.086 20H141.511C140.586 20 140.411 19.675 139.986 17.75C139.386 14.6 139.036 14.05 137.511 14.05C136.611 14.05 136.086 14.025 134.886 14.05C134.936 16.45 135.011 18.525 135.161 20H128.836C128.886 17.275 128.936 14.625 128.936 10.625C128.936 6.65 128.911 3.95 128.836 1.25H139.061C143.636 1.25 146.261 2.95 146.261 6.9C146.261 10.325 145.011 11.9 141.836 12.4Z" fill="#FEF8E5"/>
</svg>
