<svg width="50" height="8" viewBox="0 0 50 8" fill="none" xmlns="http://www.w3.org/2000/svg">
<path d="M3.63039 0.3C4.23706 0.3 4.75372 0.41 5.18039 0.63C5.61372 0.85 5.97706 1.18667 6.27039 1.64L5.46039 2.37C5.27372 1.97 5.04039 1.68 4.76039 1.5C4.48039 1.32 4.10706 1.23 3.64039 1.23C3.18039 1.23 2.82372 1.32333 2.57039 1.51C2.31706 1.69 2.19039 1.92333 2.19039 2.21C2.19039 2.47667 2.31372 2.69 2.56039 2.85C2.80706 3.00333 3.24706 3.13667 3.88039 3.25C4.47372 3.35667 4.94372 3.49333 5.29039 3.66C5.64372 3.82 5.90039 4.02333 6.06039 4.27C6.22039 4.51 6.30039 4.81 6.30039 5.17C6.30039 5.55667 6.19039 5.89667 5.97039 6.19C5.75039 6.48333 5.44039 6.71 5.04039 6.87C4.64706 7.02333 4.19039 7.1 3.67039 7.1C2.33039 7.1 1.38372 6.65333 0.830391 5.76L1.58039 5.01C1.79372 5.41 2.06706 5.70333 2.40039 5.89C2.74039 6.07667 3.16039 6.17 3.66039 6.17C4.13372 6.17 4.50372 6.09 4.77039 5.93C5.04372 5.76333 5.18039 5.53 5.18039 5.23C5.18039 4.99 5.05706 4.79667 4.81039 4.65C4.57039 4.50333 4.14706 4.37333 3.54039 4.26C2.93372 4.14667 2.45039 4.00667 2.09039 3.84C1.73039 3.67333 1.46706 3.46667 1.30039 3.22C1.14039 2.97333 1.06039 2.67333 1.06039 2.32C1.06039 1.94667 1.16372 1.60667 1.37039 1.3C1.57706 0.993333 1.87372 0.75 2.26039 0.57C2.65372 0.39 3.11039 0.3 3.63039 0.3ZM12.7164 6.08V7H7.79641V0.4H12.5764V1.32H8.86641V3.22H11.7664V4.12H8.86641V6.08H12.7164ZM19.0638 1.32H16.8038V7H15.7338V1.32H13.4738V0.4H19.0638V1.32ZM25.2552 1.32H22.9952V7H21.9252V1.32H19.6652V0.4H25.2552V1.32ZM27.6066 7H26.5366V0.4H27.6066V7ZM34.974 7H33.704L31.154 2.84L30.514 1.62H30.504L30.544 2.74V7H29.564V0.4H30.824L33.364 4.55L34.014 5.78H34.024L33.984 4.66V0.4H34.974V7ZM42.4573 3.59V7H41.6673L41.6373 6.16C41.4439 6.46 41.1773 6.69333 40.8373 6.86C40.4973 7.02 40.0906 7.1 39.6173 7.1C39.0039 7.1 38.4673 6.96333 38.0073 6.69C37.5473 6.41667 37.1906 6.02667 36.9373 5.52C36.6839 5.00667 36.5573 4.4 36.5573 3.7C36.5573 3.00667 36.6873 2.40667 36.9473 1.9C37.2073 1.38667 37.5739 0.993333 38.0473 0.72C38.5206 0.44 39.0706 0.3 39.6973 0.3C40.3773 0.3 40.9373 0.426666 41.3773 0.68C41.8173 0.933333 42.1639 1.32667 42.4173 1.86L41.4373 2.33C41.3106 1.97 41.0973 1.69667 40.7973 1.51C40.4973 1.32333 40.1373 1.23 39.7173 1.23C39.0906 1.23 38.5939 1.44667 38.2273 1.88C37.8606 2.31333 37.6773 2.92 37.6773 3.7C37.6773 4.49333 37.8506 5.10667 38.1973 5.54C38.5506 5.96667 39.0639 6.18 39.7373 6.18C40.2639 6.18 40.6906 6.05 41.0173 5.79C41.3439 5.53 41.5073 5.15333 41.5073 4.66V4.47H39.4873V3.59H42.4573ZM46.4136 0.3C47.0203 0.3 47.5369 0.41 47.9636 0.63C48.3969 0.85 48.7603 1.18667 49.0536 1.64L48.2436 2.37C48.0569 1.97 47.8236 1.68 47.5436 1.5C47.2636 1.32 46.8903 1.23 46.4236 1.23C45.9636 1.23 45.6069 1.32333 45.3536 1.51C45.1003 1.69 44.9736 1.92333 44.9736 2.21C44.9736 2.47667 45.0969 2.69 45.3436 2.85C45.5903 3.00333 46.0303 3.13667 46.6636 3.25C47.2569 3.35667 47.7269 3.49333 48.0736 3.66C48.4269 3.82 48.6836 4.02333 48.8436 4.27C49.0036 4.51 49.0836 4.81 49.0836 5.17C49.0836 5.55667 48.9736 5.89667 48.7536 6.19C48.5336 6.48333 48.2236 6.71 47.8236 6.87C47.4303 7.02333 46.9736 7.1 46.4536 7.1C45.1136 7.1 44.1669 6.65333 43.6136 5.76L44.3636 5.01C44.5769 5.41 44.8503 5.70333 45.1836 5.89C45.5236 6.07667 45.9436 6.17 46.4436 6.17C46.9169 6.17 47.2869 6.09 47.5536 5.93C47.8269 5.76333 47.9636 5.53 47.9636 5.23C47.9636 4.99 47.8403 4.79667 47.5936 4.65C47.3536 4.50333 46.9303 4.37333 46.3236 4.26C45.7169 4.14667 45.2336 4.00667 44.8736 3.84C44.5136 3.67333 44.2503 3.46667 44.0836 3.22C43.9236 2.97333 43.8436 2.67333 43.8436 2.32C43.8436 1.94667 43.9469 1.60667 44.1536 1.3C44.3603 0.993333 44.6569 0.75 45.0436 0.57C45.4369 0.39 45.8936 0.3 46.4136 0.3Z" fill="#FEF8E5"/>
</svg>
