<svg width="43" height="9" viewBox="0 0 43 9" fill="none" xmlns="http://www.w3.org/2000/svg">
<path d="M3.10633 5.55C2.87633 5.57 2.55633 5.57 2.21633 5.57C1.74633 5.57 1.24633 5.54 0.916328 5.51C0.896328 5.69 0.896328 5.87 0.896328 6.04C0.896328 7.43 1.74633 8.14 4.34633 8.14C6.76633 8.14 7.68633 7.29 7.68633 5.83C7.68633 4.37 6.96633 3.72 4.91633 3.41C3.50633 3.2 3.34633 2.9 3.34633 2.54C3.34633 2.22 3.57633 2.01 4.30633 2.01C5.25633 2.01 5.47633 2.27 5.47633 2.67C5.47633 2.73 5.47633 2.8 5.46633 2.87C5.67633 2.86 6.00633 2.86 6.34633 2.86C6.77633 2.86 7.26633 2.87 7.56633 2.89C7.57633 2.73 7.58633 2.58 7.58633 2.44C7.58633 1.1 6.79633 0.359999 4.23633 0.359999C1.93633 0.359999 0.916328 1.2 0.916328 2.62C0.916328 3.92 1.47633 4.69 3.76633 5C5.06633 5.18 5.29633 5.47 5.29633 5.9C5.29633 6.27 5.06633 6.47 4.22633 6.47C3.36633 6.47 3.10633 6.26 3.10633 5.69V5.55ZM11.1959 8C11.1759 6.91 11.1759 5.83 11.1759 4.24C11.1759 2.64 11.1759 1.56 11.1959 0.499999H8.65586C8.68586 1.57 8.68586 2.65 8.68586 4.25C8.68586 5.84 8.68586 6.92 8.65586 8H11.1959ZM19.5038 3.82C18.8038 3.84 18.1138 3.83 17.5838 3.83C17.1038 3.83 16.4638 3.83 15.8238 3.82C15.8338 4.02 15.8338 4.28 15.8338 4.59C15.8338 4.75 15.8338 5.11 15.8238 5.26C16.2238 5.25 16.7438 5.24 17.2238 5.24C17.1638 6.04 16.8538 6.35 16.1038 6.35C15.0538 6.35 14.6938 5.71 14.6938 4.2C14.6938 2.6 15.0938 2.1 16.0338 2.1C16.7538 2.1 17.1237 2.37 17.1237 2.98C17.1237 3.05 17.1138 3.14 17.1138 3.22C17.4138 3.2 17.8538 3.2 18.3138 3.2C18.7638 3.2 19.2238 3.21 19.5538 3.22C19.5638 3.07 19.5638 2.94 19.5638 2.8C19.5638 1.46 18.6738 0.37 16.0438 0.37C13.4138 0.37 12.1838 1.58 12.1838 4.17C12.1838 6.77 13.3938 8.13 16.0138 8.13C19.1638 8.13 19.6938 6.69 19.5238 3.82H19.5038ZM25.7757 0.499999C25.8157 1.11 25.8457 2.36 25.8557 3.46C25.8557 3.94 25.8857 4.48 25.9357 5.05L25.9157 5.06C25.7657 4.6 25.5857 4.14 25.3857 3.75C24.7357 2.55 23.7557 0.98 23.5557 0.499999H20.7457C20.7657 1.49 20.7657 2.66 20.7657 4.25C20.7657 5.85 20.7557 7 20.7457 8H22.9657C22.9357 7.58 22.9357 6.58 22.9257 5.11C22.9057 4.52 22.8757 3.93 22.8257 3.28H22.8457C23.0257 3.79 23.2357 4.31 23.4957 4.81C24.2157 5.96 25.0657 7.33 25.3857 8H27.9357C27.9157 7.03 27.9157 5.9 27.9157 4.24C27.9157 2.65 27.9257 1.22 27.9457 0.499999H25.7757ZM34.3697 8C34.3497 6.91 34.3497 5.83 34.3497 4.24C34.3497 2.64 34.3497 1.56 34.3697 0.499999H31.8297C31.8597 1.57 31.8597 2.65 31.8597 4.25C31.8597 5.84 31.8597 6.92 31.8297 8H34.3697ZM40.6976 0.499999C40.7376 1.11 40.7676 2.36 40.7776 3.46C40.7776 3.94 40.8076 4.48 40.8576 5.05L40.8376 5.06C40.6876 4.6 40.5076 4.14 40.3076 3.75C39.6576 2.55 38.6776 0.98 38.4776 0.499999H35.6676C35.6876 1.49 35.6876 2.66 35.6876 4.25C35.6876 5.85 35.6776 7 35.6676 8H37.8876C37.8576 7.58 37.8576 6.58 37.8476 5.11C37.8276 4.52 37.7976 3.93 37.7476 3.28H37.7676C37.9476 3.79 38.1576 4.31 38.4176 4.81C39.1376 5.96 39.9876 7.33 40.3076 8H42.8576C42.8376 7.03 42.8376 5.9 42.8376 4.24C42.8376 2.65 42.8476 1.22 42.8676 0.499999H40.6976Z" fill="#EAFC38"/>
</svg>
