<svg width="70" height="13" viewBox="0 0 70 13" fill="none" xmlns="http://www.w3.org/2000/svg">
<path d="M3.68586 8.325C3.34086 8.355 2.86086 8.355 2.35086 8.355C1.64586 8.355 0.895859 8.31 0.400859 8.265C0.370859 8.535 0.370859 8.805 0.370859 9.06C0.370859 11.145 1.64586 12.21 5.54586 12.21C9.17586 12.21 10.5559 10.935 10.5559 8.745C10.5559 6.555 9.47586 5.58 6.40086 5.115C4.28586 4.8 4.04586 4.35 4.04586 3.81C4.04586 3.33 4.39086 3.015 5.48586 3.015C6.91086 3.015 7.24086 3.405 7.24086 4.005C7.24086 4.095 7.24086 4.2 7.22586 4.305C7.54086 4.29 8.03586 4.29 8.54586 4.29C9.19086 4.29 9.92586 4.305 10.3759 4.335C10.3909 4.095 10.4059 3.87 10.4059 3.66C10.4059 1.65 9.22086 0.539999 5.38086 0.539999C1.93086 0.539999 0.400859 1.8 0.400859 3.93C0.400859 5.88 1.24086 7.035 4.67586 7.5C6.62586 7.77 6.97086 8.205 6.97086 8.85C6.97086 9.405 6.62586 9.705 5.36586 9.705C4.07586 9.705 3.68586 9.39 3.68586 8.535V8.325ZM15.8202 12C15.7902 10.365 15.7902 8.745 15.7902 6.36C15.7902 3.96 15.7902 2.34 15.8202 0.749999H12.0102C12.0552 2.355 12.0552 3.975 12.0552 6.375C12.0552 8.76 12.0552 10.38 12.0102 12H15.8202ZM28.282 5.73C27.232 5.76 26.197 5.745 25.402 5.745C24.682 5.745 23.722 5.745 22.762 5.73C22.777 6.03 22.777 6.42 22.777 6.885C22.777 7.125 22.777 7.665 22.762 7.89C23.362 7.875 24.142 7.86 24.862 7.86C24.772 9.06 24.307 9.525 23.182 9.525C21.607 9.525 21.067 8.565 21.067 6.3C21.067 3.9 21.667 3.15 23.077 3.15C24.157 3.15 24.712 3.555 24.712 4.47C24.712 4.575 24.697 4.71 24.697 4.83C25.147 4.8 25.807 4.8 26.497 4.8C27.172 4.8 27.862 4.815 28.357 4.83C28.372 4.605 28.372 4.41 28.372 4.2C28.372 2.19 27.037 0.555 23.092 0.555C19.147 0.555 17.302 2.37 17.302 6.255C17.302 10.155 19.117 12.195 23.047 12.195C27.772 12.195 28.567 10.035 28.312 5.73H28.282ZM37.6899 0.749999C37.7499 1.665 37.7949 3.54 37.8099 5.19C37.8099 5.91 37.8549 6.72 37.9299 7.575L37.8999 7.59C37.6749 6.9 37.4049 6.21 37.1049 5.625C36.1299 3.825 34.6599 1.47 34.3599 0.749999H30.1449C30.1749 2.235 30.1749 3.99 30.1749 6.375C30.1749 8.775 30.1599 10.5 30.1449 12H33.4749C33.4299 11.37 33.4299 9.87 33.4149 7.665C33.3849 6.78 33.3399 5.895 33.2649 4.92H33.2949C33.5649 5.685 33.8799 6.465 34.2699 7.215C35.3499 8.94 36.6249 10.995 37.1049 12H40.9299C40.8999 10.545 40.8999 8.85 40.8999 6.36C40.8999 3.975 40.9149 1.83 40.9449 0.749999H37.6899ZM53.8809 0.749999C53.9109 2.52 53.9409 5.52 53.9409 7.23C53.9409 8.55 53.4759 9.12 52.2759 9.12C51.0309 9.12 50.4909 8.55 50.4909 7.23C50.4909 5.52 50.5059 2.52 50.5659 0.749999H46.7409C46.7709 1.725 46.8009 2.685 46.8009 4.14C46.8009 5.04 46.7709 6.45 46.7709 7.5C46.7709 10.53 48.1509 12.21 52.1859 12.21C56.2209 12.21 57.5859 10.53 57.5859 7.5C57.5859 6.45 57.5559 5.04 57.5559 4.14C57.5559 2.685 57.5859 1.725 57.6159 0.749999H53.8809ZM64.39 6.765C63.895 6.765 63.46 6.75 63.16 6.75C63.145 5.7 63.145 4.575 63.145 3.405C63.61 3.39 64.195 3.39 64.465 3.39C65.77 3.39 66.31 3.765 66.31 5.055C66.31 6.345 65.83 6.765 64.39 6.765ZM59.5 0.749999C59.545 2.31 59.56 3.99 59.56 6.375C59.56 8.775 59.545 10.38 59.5 12H63.31C63.25 11.28 63.22 10.395 63.19 9.375C63.88 9.39 64.435 9.405 65.005 9.405C68.44 9.405 69.82 8.07 69.82 4.98C69.82 1.74 68.215 0.749999 65.32 0.749999H59.5Z" fill="#FD4A1E"/>
</svg>
