<svg width="23" height="8" viewBox="0 0 23 8" fill="none" xmlns="http://www.w3.org/2000/svg">
<path d="M3.63137 0.3C4.23803 0.3 4.7547 0.41 5.18137 0.63C5.6147 0.85 5.97803 1.18667 6.27137 1.64L5.46137 2.37C5.2747 1.97 5.04137 1.68 4.76137 1.5C4.48137 1.32 4.10803 1.23 3.64137 1.23C3.18137 1.23 2.8247 1.32333 2.57137 1.51C2.31803 1.69 2.19137 1.92333 2.19137 2.21C2.19137 2.47667 2.3147 2.69 2.56137 2.85C2.80803 3.00333 3.24803 3.13667 3.88137 3.25C4.4747 3.35667 4.9447 3.49333 5.29137 3.66C5.6447 3.82 5.90137 4.02333 6.06137 4.27C6.22137 4.51 6.30137 4.81 6.30137 5.17C6.30137 5.55667 6.19137 5.89667 5.97137 6.19C5.75137 6.48333 5.44137 6.71 5.04137 6.87C4.64803 7.02333 4.19137 7.1 3.67137 7.1C2.33137 7.1 1.3847 6.65333 0.831367 5.76L1.58137 5.01C1.7947 5.41 2.06803 5.70333 2.40137 5.89C2.74137 6.07667 3.16137 6.17 3.66137 6.17C4.1347 6.17 4.5047 6.09 4.77137 5.93C5.0447 5.76333 5.18137 5.53 5.18137 5.23C5.18137 4.99 5.05803 4.79667 4.81137 4.65C4.57137 4.50333 4.14803 4.37333 3.54137 4.26C2.9347 4.14667 2.45137 4.00667 2.09137 3.84C1.73137 3.67333 1.46803 3.46667 1.30137 3.22C1.14137 2.97333 1.06137 2.67333 1.06137 2.32C1.06137 1.94667 1.1647 1.60667 1.37137 1.3C1.57803 0.993333 1.8747 0.75 2.26137 0.57C2.6547 0.39 3.11137 0.3 3.63137 0.3ZM9.93738 3.82L8.86738 4.97V7H7.79738V0.4H8.86738V3.68L11.8974 0.4H13.2074L10.7074 3.1L13.2674 7H12.0074L9.93738 3.82ZM15.5373 7H14.4673V0.4H15.5373V7ZM20.0346 0.4C20.748 0.4 21.3113 0.583333 21.7246 0.95C22.1446 1.31667 22.3546 1.82 22.3546 2.46C22.3546 3.1 22.1446 3.60333 21.7246 3.97C21.3113 4.33 20.748 4.51 20.0346 4.51H18.5646V7H17.4946V0.4H20.0346ZM19.8646 3.6C20.3313 3.6 20.678 3.50667 20.9046 3.32C21.1313 3.12667 21.2446 2.84 21.2446 2.46C21.2446 1.69333 20.7846 1.31 19.8646 1.31H18.5646V3.6H19.8646Z" fill="black"/>
</svg>
