<svg width="32" height="9" viewBox="0 0 32 9" fill="none" xmlns="http://www.w3.org/2000/svg">
<path d="M3.1073 5.55C2.8773 5.57 2.5573 5.57 2.2173 5.57C1.7473 5.57 1.2473 5.54 0.917305 5.51C0.897305 5.69 0.897305 5.87 0.897305 6.04C0.897305 7.43 1.7473 8.14 4.3473 8.14C6.7673 8.14 7.6873 7.29 7.6873 5.83C7.6873 4.37 6.9673 3.72 4.9173 3.41C3.5073 3.2 3.3473 2.9 3.3473 2.54C3.3473 2.22 3.5773 2.01 4.3073 2.01C5.2573 2.01 5.4773 2.27 5.4773 2.67C5.4773 2.73 5.4773 2.8 5.4673 2.87C5.67731 2.86 6.00731 2.86 6.3473 2.86C6.7773 2.86 7.26731 2.87 7.5673 2.89C7.57731 2.73 7.58731 2.58 7.58731 2.44C7.58731 1.1 6.79731 0.359999 4.2373 0.359999C1.9373 0.359999 0.917305 1.2 0.917305 2.62C0.917305 3.92 1.4773 4.69 3.7673 5C5.06731 5.18 5.29731 5.47 5.29731 5.9C5.29731 6.27 5.06731 6.47 4.2273 6.47C3.3673 6.47 3.1073 6.26 3.1073 5.69V5.55ZM13.6868 0.499999C13.7268 1.11 13.7568 2.36 13.7668 3.46C13.7668 3.94 13.7968 4.48 13.8468 5.05L13.8268 5.06C13.6768 4.6 13.4968 4.14 13.2968 3.75C12.6468 2.55 11.6668 0.98 11.4668 0.499999H8.65684C8.67684 1.49 8.67684 2.66 8.67684 4.25C8.67684 5.85 8.66684 7 8.65684 8H10.8768C10.8468 7.58 10.8468 6.58 10.8368 5.11C10.8168 4.52 10.7868 3.93 10.7368 3.28H10.7568C10.9368 3.79 11.1468 4.31 11.4068 4.81C12.1268 5.96 12.9768 7.33 13.2968 8H15.8468C15.8268 7.03 15.8268 5.9 15.8268 4.24C15.8268 2.65 15.8368 1.22 15.8568 0.499999H13.6868ZM21.4429 0.499999C21.3429 0.89 20.9829 1.96 20.6929 2.86C20.5529 3.3 20.4429 3.73 20.3529 4.07H20.2729C20.1829 3.72 20.0629 3.28 19.9329 2.82C19.6729 1.94 19.3529 0.89 19.2329 0.499999H16.5129C17.1129 1.61 18.4029 4.62 18.8029 5.71C18.8029 6.84 18.7829 7.69 18.7529 8.01C19.1429 7.99 19.7329 7.99 20.1929 7.99C20.6429 7.99 21.2329 7.99 21.6129 8.01C21.6029 7.69 21.5829 6.86 21.5729 5.74C21.9729 4.71 23.2529 1.69 23.8629 0.499999H21.4429ZM28.7065 4.99C28.7065 5.66 28.3665 6.1 27.5965 6.1C26.7165 6.1 26.3065 5.61 26.3065 4.14C26.3065 2.66 26.7065 2.27 27.5465 2.26C28.3065 2.26 28.6965 2.55 28.6965 3.4C28.6965 3.46 28.6965 3.54 28.6865 3.62C29.0865 3.6 29.4765 3.6 29.8765 3.6C30.2665 3.6 30.6765 3.6 31.0765 3.62C31.0965 3.4 31.1065 3.19 31.1065 3C31.1065 1.37 30.1365 0.37 27.5765 0.37C24.9665 0.37 23.7765 1.57 23.7765 4.15C23.7765 6.97 25.0065 8.13 27.5465 8.13C29.9565 8.13 31.1265 7.16 31.1265 5.17C31.1265 5.04 31.1265 4.89 31.1165 4.73C30.7165 4.74 30.3065 4.74 29.9065 4.74C29.5065 4.74 29.1065 4.74 28.7065 4.73V4.99Z" fill="#EAFC38"/>
</svg>
