<svg width="100" height="66" viewBox="0 0 100 66" fill="none" xmlns="http://www.w3.org/2000/svg">
<path d="M0.75 12C0.75 5.7868 5.7868 0.75 12 0.75H99.25V65.25H12C5.7868 65.25 0.75 60.2132 0.75 54V12Z" fill="#FEF8E5" stroke="black" stroke-width="1.5"/>
<path d="M52.3988 20.6639C46.8434 20.0468 46.2457 20.5101 43.3644 21.1934C39.2152 22.1772 35.2105 25.211 33.0425 29.2936C28.6734 37.5213 34.488 48.5861 43.4669 51.1451C46.8347 52.1049 51.9286 52.293 55.2642 50.8978C59.8625 48.9744 63.4895 45.6703 64.7999 40.7185C65.5179 38.0054 65.6421 35.197 65.1405 32.3798C64.7192 30.0143 63.5052 27.9077 62.1159 26.0571C60.8068 24.3133 58.5033 22.6354 56.4987 21.8864C55.3874 21.4712 54.6452 20.9844 51.8235 20.5739" stroke="black" stroke-width="2" stroke-linecap="round" stroke-linejoin="round"/>
<path d="M51.134 29.2822C50.9137 29.2822 50.4878 34.6725 50.4006 35.5055C50.3306 36.1751 50.0268 39.5236 49.8999 39.4578C49.1303 39.0583 43.2044 39.5717 43.1249 39.2935" stroke="black" stroke-width="2" stroke-linecap="round" stroke-linejoin="round"/>
<path d="M56.0357 50.8497C55.7264 50.8497 55.7722 50.6211 55.8987 50.8889C56.1183 51.3537 56.3525 51.8131 56.5708 52.2793C56.992 53.1791 57.3677 54.141 57.8008 55.0183C58.1386 55.7025 58.3751 56.5131 58.617 57.239" stroke="black" stroke-width="2" stroke-linecap="round" stroke-linejoin="round"/>
<path d="M41.3867 50.9308C41.7518 51.1295 41.3867 50.8651 41.3163 50.8927C40.7944 51.0968 40.2999 53.2236 40.12 53.7309C39.8222 54.5707 39.4995 55.5526 39.105 56.3413" stroke="black" stroke-width="2" stroke-linecap="round" stroke-linejoin="round"/>
<path d="M40.1083 15.1252C41.2263 17.714 38.3136 18.1854 35.3266 19.4754C32.3395 20.7654 29.8968 22.7528 28.7788 20.164C27.6608 17.5752 29.176 14.4308 32.1631 13.1408C35.1502 11.8508 38.9903 12.5364 40.1083 15.1252Z" fill="#FEF8E5"/>
<path d="M59.08 14.4532C57.8013 16.9665 60.6785 17.6203 63.5785 19.0958C66.4784 20.5713 68.7911 22.7085 70.0699 20.1952C71.3486 17.6819 70.0344 14.4484 67.1344 12.9729C64.2345 11.4974 60.3588 11.9399 59.08 14.4532Z" fill="#FEF8E5"/>
<path d="M29.8966 22.9807C31.7713 22.0222 34.6559 20.0354 36.8856 18.8318C37.9959 18.2326 39.1573 17.7556 40.2547 17.122C40.4098 17.0325 41.2867 16.6963 41.6795 16.3035" stroke="black" stroke-width="2" stroke-linecap="round" stroke-linejoin="round"/>
<path d="M68.7771 22.936C66.9664 21.8614 64.2126 19.6969 62.0631 18.3554C60.9928 17.6874 59.8637 17.1383 58.8084 16.4368C58.6592 16.3377 57.8052 15.947 57.438 15.5303" stroke="black" stroke-width="2" stroke-linecap="round" stroke-linejoin="round"/>
<path d="M62.7443 20.1045C61.71 21.4086 61.6427 21.4214 61.1184 22.1009C60.9177 22.361 60.5317 22.9796 60.0632 23.5807" stroke="black" stroke-width="2" stroke-linecap="round" stroke-linejoin="round"/>
<path d="M34.6975 20.8203C35.3952 21.8014 35.7991 22.1373 36.3233 22.8167C36.5241 23.0769 36.9467 23.6267 37.359 24.158" stroke="black" stroke-width="2" stroke-linecap="round" stroke-linejoin="round"/>
<path d="M45.3757 14.6132C46.6827 14.6132 47.9635 14.6132 49.2357 14.6133C49.5236 14.5869 49.8998 14.6133 50.7128 14.6132" stroke="black" stroke-width="2" stroke-linecap="round" stroke-linejoin="round"/>
<path d="M47.995 15.3076C47.8596 15.3076 47.9539 17.5193 47.9539 17.87C47.9539 18.5724 48.0321 20.6779 48.0321 19.9756" stroke="black" stroke-width="2" stroke-linecap="round" stroke-linejoin="round"/>
<path d="M29.8966 22.9802C29.5038 22.5876 29.024 21.0946 28.9299 20.6251C28.6148 19.0525 28.6867 17.3132 29.5039 15.517C30.84 12.5801 33.672 11.8284 36.6805 12.4141C37.9215 12.6557 39.1017 13.3589 39.9904 14.2353C40.2273 14.4689 41.2866 15.9096 41.6794 16.3024" stroke="black" stroke-width="2" stroke-linecap="round" stroke-linejoin="round"/>
<path d="M68.7768 22.9355C69.1936 22.5684 69.7665 21.1086 69.8899 20.646C70.3034 19.0963 70.3411 17.3559 69.6387 15.5118C68.4901 12.4967 65.711 11.5682 62.6716 11.9633C61.4178 12.1263 60.1957 12.7537 59.2537 13.5724C59.0025 13.7907 57.8546 15.1619 57.4379 15.5292" stroke="black" stroke-width="2" stroke-linecap="round" stroke-linejoin="round"/>
</svg>
