<svg width="390" height="298" viewBox="0 0 390 298" fill="none" xmlns="http://www.w3.org/2000/svg">
<path d="M-38.4121 22.6396C-40.1915 15.1732 -32.8292 12.7451 -26.9601 10.8444C-16.734 7.53271 -2.99708 1.91065 7.596 5.19361C38.7741 14.8562 59.7346 53.4876 54.1294 85.0923C51.1772 101.739 14.3653 130.84 -2.04199 111.237C-19.006 90.9691 19.1014 52.3104 36.0697 38.4868C48.0525 28.7246 67.6851 18.6159 83.4971 19.0993C102.365 19.6762 117.423 31.3808 129.092 45.3528C139.565 57.8925 147.904 75.815 149.405 92.2215C150.308 102.083 148.785 116.824 137.434 120.354C128.478 123.14 120.044 118.027 114.304 111.237C106.638 102.17 106.292 91.7908 111.106 81.2891C123.996 53.1695 162.041 31.548 188.951 55.2086C204.106 68.5343 216.053 84.0483 224.339 102.463C231.151 117.603 233.836 132.283 232.458 149.521C231.49 161.636 228.442 185.699 214.958 198.098C207.809 204.672 175.332 210.888 169.458 203.521C147.846 176.42 201.27 118.5 225.705 98.9242C242.27 81.2891 266.923 53.891 283.958 62.0214C299.216 69.3036 310.092 116.03 317.605 130.908C328.148 151.787 330.717 175.145 332.876 198.098C334.922 219.847 334.659 241.662 331.151 263.273C328.828 277.584 322.875 288.985 308.015 292.214C292.904 295.499 278.643 288.254 270.011 275.831C257.915 258.423 261.705 237.418 267.991 218.568C276.107 194.229 290.529 170.284 315.969 161.588C340.087 153.344 368.601 155.326 389.289 171.253C410.797 187.813 418.321 210.32 424.372 235.711" stroke="#D7EE00" stroke-width="8" stroke-linecap="round" stroke-linejoin="round"/>
</svg>
