<svg width="140" height="52" viewBox="0 0 140 52" fill="none" xmlns="http://www.w3.org/2000/svg">
<g filter="url(#filter0_d_705_427)">
<rect x="4" width="132" height="44" rx="12" fill="#FEF8E5" shape-rendering="crispEdges"/>
<path d="M22.7739 16H32.2299V17.024V18.08C30.9819 18.064 29.7339 18.048 28.6619 18.048C28.6619 22.528 28.6619 27.008 28.7099 28.016C28.3739 27.984 27.8619 27.984 27.4939 27.984C27.1579 27.984 26.6619 27.984 26.3099 28.016C26.3579 27.024 26.3579 22.544 26.3579 18.048C25.2859 18.048 24.0379 18.064 22.7739 18.08V17.024V16ZM36.4501 22C37.0101 22.016 38.2421 22.032 39.5861 22.048C41.1541 22.048 41.9381 21.264 41.9381 19.984C41.9381 18.384 41.1381 17.904 39.2981 17.904C38.7381 17.904 37.2981 17.92 36.4501 17.952C36.4501 19.328 36.4341 20.704 36.4501 22ZM41.3621 23.104V23.168C42.9781 23.376 43.5221 23.824 44.0981 25.504C44.4661 26.592 44.7701 27.504 44.9781 28H42.7221C42.2901 28 42.2421 27.856 41.9541 26.8C41.2341 24.336 40.9461 23.808 39.4581 23.808C38.4501 23.808 37.8741 23.824 36.4661 23.824C36.4821 25.52 36.5301 26.992 36.6101 28H34.1301C34.1461 26.256 34.1781 24.56 34.1781 22C34.1781 19.456 34.1621 17.728 34.1301 16H39.7781C42.5941 16 44.2261 17.184 44.2261 19.648C44.2261 21.632 43.3621 22.768 41.3621 23.104ZM53.4841 16H56.1561C54.9881 17.872 52.4761 22.592 51.6441 24.32C51.6441 26 51.6761 27.488 51.6761 28.016C51.3561 27.984 50.8761 27.984 50.4921 27.984C50.0921 27.984 49.6121 27.984 49.2761 28.016C49.3081 27.488 49.3241 25.984 49.3241 24.304C48.5241 22.528 45.9641 17.728 44.8121 16H47.7081C47.9961 16.704 49.0201 18.784 49.6601 20.24C49.9961 20.944 50.3001 21.632 50.5081 22.128H50.6521C50.8441 21.648 51.1161 21.024 51.4681 20.32C52.1561 18.832 53.2441 16.672 53.4841 16ZM67.1169 23.488C67.7249 23.488 68.5569 23.488 69.3249 23.472C68.8769 22.16 68.4129 20.784 68.0129 19.664C67.5809 18.544 67.3249 17.76 67.1329 17.2C66.9409 17.776 66.6849 18.544 66.2529 19.744C65.8689 20.848 65.4209 22.192 64.9729 23.472C65.7249 23.488 66.5409 23.488 67.1169 23.488ZM73.5329 28H70.7809C70.6689 27.536 70.3489 26.496 69.9169 25.216C68.9249 25.216 67.9009 25.216 67.1169 25.216C66.4129 25.216 65.3409 25.216 64.3649 25.216C63.9489 26.448 63.6129 27.472 63.4529 28H60.8929C62.0609 25.2 64.7809 17.712 65.3729 16H68.9569C69.6129 17.76 72.2689 25.04 73.5329 28ZM84.9326 21.552C85.2206 25.824 84.3086 28.208 79.7646 28.208C75.9886 28.208 73.9406 25.76 73.9406 21.888C73.9406 18 76.0046 15.792 79.8126 15.792C83.5086 15.792 84.9806 17.712 84.9806 19.728C84.9806 19.952 84.9806 20.128 84.9646 20.352C84.6926 20.336 84.2766 20.32 83.8446 20.32C83.3646 20.32 82.9326 20.32 82.6446 20.352C82.6606 20.208 82.6606 20.064 82.6606 19.952C82.6606 18.544 81.7166 17.776 79.7966 17.776C77.5886 17.776 76.3246 18.88 76.3246 21.92C76.3246 24.88 77.5406 26.256 79.8606 26.256C82.0046 26.256 82.7726 25.392 82.7246 23.136C81.6366 23.152 80.1006 23.152 79.2046 23.184C79.2206 23.024 79.2206 22.704 79.2206 22.528C79.2206 22.128 79.2206 21.808 79.2046 21.536C80.1806 21.568 81.1566 21.568 81.8766 21.568C82.6926 21.568 83.8446 21.584 84.9326 21.552ZM92.1013 23.488C92.7093 23.488 93.5413 23.488 94.3093 23.472C93.8612 22.16 93.3973 20.784 92.9973 19.664C92.5653 18.544 92.3093 17.76 92.1173 17.2C91.9253 17.776 91.6693 18.544 91.2373 19.744C90.8533 20.848 90.4053 22.192 89.9573 23.472C90.7093 23.488 91.5253 23.488 92.1013 23.488ZM98.5173 28H95.7653C95.6533 27.536 95.3333 26.496 94.9013 25.216C93.9093 25.216 92.8853 25.216 92.1013 25.216C91.3973 25.216 90.3253 25.216 89.3493 25.216C88.9333 26.448 88.5973 27.472 88.4373 28H85.8773C87.0453 25.2 89.7653 17.712 90.3573 16H93.9413C94.5972 17.76 97.2533 25.04 98.5173 28ZM102.39 28H99.9579C100.006 26.272 100.006 24.544 100.006 22C100.006 19.44 100.006 17.712 99.9579 16H102.39C102.342 17.696 102.342 19.424 102.342 21.984C102.342 24.528 102.342 26.256 102.39 28ZM113.874 16H116.05C116.034 17.328 116.002 19.44 116.002 21.984C116.002 24.624 116.002 26.416 116.034 28H113.57C112.914 26.8 110.61 23.456 108.786 20.816C108.29 20.032 107.842 19.216 107.49 18.432H107.474C107.538 19.456 107.586 20.432 107.602 21.344C107.618 24.752 107.618 27.072 107.65 28H105.458C105.474 26.432 105.49 24.56 105.49 22C105.49 19.456 105.49 17.472 105.458 16H108.306C108.818 16.928 111.282 20.416 112.962 22.992C113.378 23.632 113.778 24.416 114.098 25.168L114.13 25.152C114.05 24.208 114.002 23.296 114.002 22.448C114.002 19.984 113.954 17.136 113.874 16Z" fill="black"/>
<rect x="4.5" y="0.5" width="131" height="43" rx="11.5" stroke="black" shape-rendering="crispEdges"/>
</g>
<defs>
<filter id="filter0_d_705_427" x="0" y="0" width="140" height="52" filterUnits="userSpaceOnUse" color-interpolation-filters="sRGB">
<feFlood flood-opacity="0" result="BackgroundImageFix"/>
<feColorMatrix in="SourceAlpha" type="matrix" values="0 0 0 0 0 0 0 0 0 0 0 0 0 0 0 0 0 0 127 0" result="hardAlpha"/>
<feOffset dy="4"/>
<feGaussianBlur stdDeviation="2"/>
<feComposite in2="hardAlpha" operator="out"/>
<feColorMatrix type="matrix" values="0 0 0 0 0 0 0 0 0 0 0 0 0 0 0 0 0 0 0.25 0"/>
<feBlend mode="normal" in2="BackgroundImageFix" result="effect1_dropShadow_705_427"/>
<feBlend mode="normal" in="SourceGraphic" in2="effect1_dropShadow_705_427" result="shape"/>
</filter>
</defs>
</svg>
