<svg width="61" height="9" viewBox="0 0 61 9" fill="none" xmlns="http://www.w3.org/2000/svg">
<path d="M0.794023 0.499999C0.804023 0.779999 0.804023 1.21 0.804023 1.6C0.804023 1.97 0.804023 2.44 0.794023 2.74C1.39402 2.73 1.98402 2.72 2.52402 2.72C2.52402 5.14 2.51402 7.47 2.48402 8.01C2.84402 7.98 3.39402 7.98 3.79402 7.98C4.19402 7.98 4.76402 7.98 5.11402 8.01C5.08402 7.47 5.07402 5.13 5.07402 2.72C5.61402 2.72 6.20402 2.73 6.79402 2.74C6.78402 2.44 6.78402 1.97 6.78402 1.6C6.78402 1.21 6.78402 0.779999 6.79402 0.499999H0.794023ZM11.2319 4.12C10.7419 4.11 10.3019 4.11 10.0219 4.1C10.0119 3.48 10.0119 2.83 10.0119 2.18C10.4019 2.17 10.8919 2.16 11.1019 2.16C11.8519 2.16 12.1919 2.34 12.1919 3.14C12.1919 3.81 11.8919 4.12 11.2319 4.12ZM12.8119 4.96C14.0819 4.76 14.5819 4.13 14.5819 2.76C14.5819 1.18 13.5319 0.499999 11.7019 0.499999H7.61191C7.64191 1.58 7.65191 2.66 7.65191 4.25C7.65191 5.85 7.63191 6.91 7.61191 8H10.1419C10.0819 7.41 10.0519 6.58 10.0319 5.62C10.5119 5.61 10.7219 5.62 11.0819 5.62C11.6919 5.62 11.8319 5.84 12.0719 7.1C12.2419 7.87 12.3119 8 12.6819 8H14.9119C14.8119 7.66 14.6619 7.03 14.5019 6.46C14.2519 5.45 13.8419 5.15 12.8119 5.02V4.96ZM19.6656 0.499999C19.5656 0.89 19.2056 1.96 18.9156 2.86C18.7756 3.3 18.6656 3.73 18.5756 4.07H18.4956C18.4056 3.72 18.2856 3.28 18.1556 2.82C17.8956 1.94 17.5756 0.89 17.4556 0.499999H14.7356C15.3356 1.61 16.6256 4.62 17.0256 5.71C17.0256 6.84 17.0056 7.69 16.9756 8.01C17.3656 7.99 17.9556 7.99 18.4156 7.99C18.8656 7.99 19.4556 7.99 19.8356 8.01C19.8256 7.69 19.8056 6.86 19.7956 5.74C20.1956 4.71 21.4756 1.69 22.0856 0.499999H19.6656ZM28.7468 5.03H27.8968C28.0668 4.31 28.2368 3.57 28.3868 2.92C28.5368 2.38 28.6468 1.9 28.7368 1.54H28.7668C28.8468 1.9 28.9568 2.39 29.1068 2.9C29.2768 3.55 29.4468 4.3 29.6068 5.03H28.7468ZM32.9668 8C32.3168 6.09 31.0968 1.55 30.8168 0.499999H26.8068C26.5568 1.54 25.3468 6.12 24.7368 8H27.2968C27.3368 7.7 27.4368 7.19 27.5668 6.57C28.0068 6.57 28.4368 6.57 28.7468 6.57C29.0768 6.57 29.4968 6.57 29.9268 6.57C30.0568 7.21 30.1368 7.73 30.1668 8H32.9668ZM40.3641 3.82C39.6641 3.84 38.9741 3.83 38.4441 3.83C37.9641 3.83 37.3241 3.83 36.6841 3.82C36.6941 4.02 36.6941 4.28 36.6941 4.59C36.6941 4.75 36.6941 5.11 36.6841 5.26C37.0841 5.25 37.6041 5.24 38.0841 5.24C38.0241 6.04 37.7141 6.35 36.9641 6.35C35.9141 6.35 35.5541 5.71 35.5541 4.2C35.5541 2.6 35.9541 2.1 36.8941 2.1C37.6141 2.1 37.9841 2.37 37.9841 2.98C37.9841 3.05 37.9741 3.14 37.9741 3.22C38.2741 3.2 38.7141 3.2 39.1741 3.2C39.6241 3.2 40.0841 3.21 40.4141 3.22C40.4241 3.07 40.4241 2.94 40.4241 2.8C40.4241 1.46 39.5341 0.37 36.9041 0.37C34.2741 0.37 33.0441 1.58 33.0441 4.17C33.0441 6.77 34.2541 8.13 36.8741 8.13C40.0241 8.13 40.5541 6.69 40.3841 3.82H40.3641ZM44.8503 5.03H44.0003C44.1703 4.31 44.3403 3.57 44.4903 2.92C44.6403 2.38 44.7503 1.9 44.8403 1.54H44.8703C44.9503 1.9 45.0603 2.39 45.2103 2.9C45.3803 3.55 45.5503 4.3 45.7103 5.03H44.8503ZM49.0703 8C48.4203 6.09 47.2003 1.55 46.9203 0.499999H42.9103C42.6603 1.54 41.4503 6.12 40.8403 8H43.4003C43.4403 7.7 43.5403 7.19 43.6703 6.57C44.1103 6.57 44.5403 6.57 44.8503 6.57C45.1803 6.57 45.6003 6.57 46.0303 6.57C46.1603 7.21 46.2403 7.73 46.2703 8H49.0703ZM52.232 8C52.212 6.91 52.212 5.83 52.212 4.24C52.212 2.64 52.212 1.56 52.232 0.499999H49.692C49.722 1.57 49.722 2.65 49.722 4.25C49.722 5.84 49.722 6.92 49.692 8H52.232ZM58.5599 0.499999C58.5999 1.11 58.6299 2.36 58.6399 3.46C58.6399 3.94 58.6699 4.48 58.7199 5.05L58.6999 5.06C58.5499 4.6 58.3699 4.14 58.1699 3.75C57.5199 2.55 56.5399 0.98 56.3399 0.499999H53.5299C53.5499 1.49 53.5499 2.66 53.5499 4.25C53.5499 5.85 53.5399 7 53.5299 8H55.7499C55.7199 7.58 55.7199 6.58 55.7099 5.11C55.6899 4.52 55.6599 3.93 55.6099 3.28H55.6299C55.8099 3.79 56.0199 4.31 56.2799 4.81C56.9999 5.96 57.8499 7.33 58.1699 8H60.7199C60.6999 7.03 60.6999 5.9 60.6999 4.24C60.6999 2.65 60.7099 1.22 60.7299 0.499999H58.5599Z" fill="#EAFC38"/>
</svg>
