<svg width="390" height="844" viewBox="0 0 390 844" fill="none" xmlns="http://www.w3.org/2000/svg">
<g clip-path="url(#clip0_814_544)">
<rect width="390" height="844" fill="white"/>
<rect width="390" height="844" fill="#FEF8E5"/>
<path d="M-38.4121 102.64C-40.1915 95.1732 -32.8292 92.7451 -26.9601 90.8444C-16.734 87.5327 -2.99708 81.9106 7.596 85.1936C38.7741 94.8562 59.7346 133.488 54.1294 165.092C51.1772 181.739 14.3653 210.84 -2.04199 191.237C-19.006 170.969 19.1014 132.31 36.0697 118.487C48.0525 108.725 67.6851 98.6159 83.4971 99.0993C102.365 99.6762 117.423 111.381 129.092 125.353C139.565 137.893 147.904 155.815 149.405 172.222C150.308 182.083 148.785 196.824 137.434 200.354C128.478 203.14 120.044 198.027 114.304 191.237C106.638 182.17 106.292 171.791 111.106 161.289C123.996 133.17 162.041 111.548 188.951 135.209C204.106 148.534 216.053 164.048 224.339 182.463C231.151 197.603 233.836 212.283 232.458 229.521C231.49 241.636 228.442 265.699 214.958 278.098C207.809 284.672 175.332 290.888 169.458 283.521C147.846 256.42 201.27 198.5 225.705 178.924C242.27 161.289 266.923 133.891 283.958 142.021C299.216 149.304 310.092 196.03 317.605 210.908C328.148 231.787 330.717 255.145 332.876 278.098C334.922 299.847 334.659 321.662 331.151 343.273C328.828 357.584 322.875 368.985 308.015 372.214C292.904 375.499 278.643 368.254 270.011 355.831C257.915 338.423 261.705 317.418 267.991 298.568C276.107 274.229 290.529 250.284 315.969 241.588C340.087 233.344 368.601 235.326 389.289 251.253C410.797 267.813 418.321 290.32 424.372 315.711" stroke="#D7EE00" stroke-width="8" stroke-linecap="round" stroke-linejoin="round"/>
<path d="M428.412 730.217C430.191 737.683 422.829 740.111 416.96 742.012C406.734 745.324 392.997 750.946 382.404 747.663C351.226 738 330.265 699.369 335.871 667.764C338.823 651.118 375.635 622.016 392.042 641.619C409.006 661.887 370.899 700.546 353.93 714.37C341.947 724.132 322.315 734.241 306.503 733.757C287.635 733.18 272.577 721.476 260.908 707.504C250.435 694.964 242.096 677.041 240.595 660.635C239.692 650.774 241.215 636.033 252.566 632.502C261.522 629.716 269.956 634.829 275.696 641.619C283.362 650.686 283.708 661.066 278.894 671.567C266.004 699.687 227.959 721.308 201.049 697.648C185.894 684.322 173.947 668.808 165.661 650.393C158.849 635.253 156.164 620.574 157.542 603.335C158.51 591.22 161.558 567.158 175.042 554.759C182.191 548.185 214.668 541.969 220.542 549.335C242.154 576.436 181.953 636.297 164.295 653.932C146.638 671.567 123.077 698.965 106.042 690.835C90.7837 683.553 79.908 636.826 72.3948 621.948C61.8516 601.07 59.2831 577.712 57.1238 554.759C55.0779 533.009 55.3409 511.195 58.849 489.583C61.1721 475.272 67.1255 463.872 81.9849 460.642C97.0957 457.358 111.357 464.603 119.989 477.025C132.085 494.434 128.295 515.438 122.009 534.288C113.893 558.628 99.4709 582.573 74.031 591.269C49.9131 599.513 21.3987 597.531 0.711435 581.603C-20.7972 565.043 -28.3208 542.536 -34.3719 517.145" stroke="#D7EE00" stroke-width="8" stroke-linecap="round" stroke-linejoin="round"/>
</g>
<defs>
<clipPath id="clip0_814_544">
<rect width="390" height="844" fill="white"/>
</clipPath>
</defs>
</svg>
