<svg width="264" height="65" viewBox="0 0 264 65" fill="none" xmlns="http://www.w3.org/2000/svg">
<g filter="url(#filter0_d_1101_1474)">
<rect x="4" width="256" height="57" rx="15" fill="#FEF8E5"/>
<path d="M56.1108 23H58.5428C58.4948 23.976 58.4788 24.936 58.4788 26.392C58.4788 27.384 58.5108 28.856 58.5108 30.104C58.5108 33.272 56.9588 35.208 53.2308 35.208C49.5028 35.208 47.9348 33.272 47.9348 30.104C47.9348 28.856 47.9668 27.384 47.9668 26.392C47.9668 24.936 47.9508 23.96 47.9028 23H50.3668C50.3028 24.632 50.2708 28.2 50.2708 30.024C50.2708 32.168 51.2628 33.112 53.2788 33.112C55.2628 33.112 56.1748 32.168 56.1748 30.024C56.1748 28.2 56.1428 24.616 56.1108 23ZM69.9911 23H72.1671C72.1511 24.328 72.1191 26.44 72.1191 28.984C72.1191 31.624 72.1191 33.416 72.1511 35H69.6871C69.0311 33.8 66.7271 30.456 64.9031 27.816C64.4071 27.032 63.9591 26.216 63.6071 25.432H63.5911C63.6551 26.456 63.7031 27.432 63.7191 28.344C63.7351 31.752 63.7351 34.072 63.7671 35H61.5751C61.5911 33.432 61.6071 31.56 61.6071 29C61.6071 26.456 61.6071 24.472 61.5751 23H64.4231C64.9351 23.928 67.3991 27.416 69.0791 29.992C69.4951 30.632 69.8951 31.416 70.2151 32.168L70.2471 32.152C70.1671 31.208 70.1191 30.296 70.1191 29.448C70.1191 26.984 70.0711 24.136 69.9911 23ZM79.9513 33.304C82.0153 33.304 82.7353 32.744 82.7353 31.736C82.7353 30.76 82.1273 30.152 79.4553 29.8C75.9193 29.32 74.8153 28.136 74.8153 26.152C74.8153 24.12 76.4313 22.776 79.7113 22.776C83.3273 22.776 84.7353 24.072 84.7353 26.168C84.7353 26.44 84.7193 26.648 84.7033 26.936C84.4473 26.92 84.0473 26.904 83.6473 26.904C83.2313 26.904 82.7993 26.92 82.5433 26.936C82.5593 26.76 82.5593 26.552 82.5593 26.424C82.5593 25.368 81.8553 24.696 79.6473 24.696C77.8713 24.696 77.1353 25.208 77.1353 26.136C77.1353 26.92 77.5353 27.592 80.3353 27.976C83.7113 28.456 84.9593 29.528 84.9593 31.672C84.9593 33.848 83.3753 35.224 79.9673 35.224C76.2393 35.224 74.6713 33.96 74.6713 31.72C74.6713 31.464 74.6713 31.224 74.7033 30.952C74.9753 31 75.3913 31.016 75.8073 31.016C76.2713 31.016 76.6873 31 77.0233 30.984C77.0073 31.096 77.0073 31.208 77.0073 31.32C77.0073 32.68 77.8393 33.304 79.9513 33.304ZM94.2576 23H96.9296C95.7616 24.872 93.2496 29.592 92.4176 31.32C92.4176 33 92.4496 34.488 92.4496 35.016C92.1296 34.984 91.6496 34.984 91.2656 34.984C90.8656 34.984 90.3856 34.984 90.0496 35.016C90.0816 34.488 90.0976 32.984 90.0976 31.304C89.2976 29.528 86.7376 24.728 85.5856 23H88.4816C88.7696 23.704 89.7936 25.784 90.4336 27.24C90.7696 27.944 91.0736 28.632 91.2816 29.128H91.4256C91.6176 28.648 91.8896 28.024 92.2416 27.32C92.9296 25.832 94.0176 23.672 94.2576 23ZM106.85 23H109.026C109.01 24.328 108.978 26.44 108.978 28.984C108.978 31.624 108.978 33.416 109.01 35H106.546C105.89 33.8 103.586 30.456 101.762 27.816C101.266 27.032 100.818 26.216 100.466 25.432H100.45C100.514 26.456 100.562 27.432 100.578 28.344C100.594 31.752 100.594 34.072 100.626 35H98.4344C98.4504 33.432 98.4664 31.56 98.4664 29C98.4664 26.456 98.4664 24.472 98.4344 23H101.282C101.794 23.928 104.258 27.416 105.938 29.992C106.354 30.632 106.754 31.416 107.074 32.168L107.106 32.152C107.026 31.208 106.978 30.296 106.978 29.448C106.978 26.984 106.93 24.136 106.85 23ZM120.107 27.848V27.544C120.107 25.64 119.083 24.888 117.099 24.888C115.019 24.888 113.755 25.944 113.755 28.872C113.755 31.864 115.067 33.08 117.179 33.08C119.243 33.08 120.139 32.072 120.139 30.44V30.12C120.539 30.136 120.891 30.136 121.291 30.136C121.675 30.136 122.075 30.136 122.475 30.12V30.584C122.475 33.4 120.699 35.192 117.195 35.192C113.643 35.192 111.339 33.208 111.339 28.936C111.339 25.016 113.419 22.808 117.195 22.808C120.859 22.808 122.427 24.68 122.427 27.176C122.427 27.4 122.427 27.608 122.411 27.848C122.027 27.832 121.627 27.832 121.243 27.832C120.843 27.832 120.491 27.832 120.107 27.848ZM134.358 29.624C136.486 29.624 137.366 29 137.366 27.32C137.366 25.672 136.438 25.016 134.47 25.016C133.974 25.016 132.742 25.032 132.022 25.048C132.022 26.632 132.022 28.184 132.022 29.592C132.486 29.608 133.382 29.624 134.358 29.624ZM129.622 23H134.87C137.878 23 139.686 24.216 139.686 27.352C139.686 30.28 137.862 31.656 134.79 31.656C133.798 31.656 133.222 31.64 132.038 31.608C132.07 32.936 132.102 34.104 132.15 35H129.622C129.686 33.272 129.686 31.56 129.686 29C129.686 26.456 129.686 24.616 129.622 23ZM152.819 28.872C152.819 32.952 150.531 35.224 146.899 35.224C143.267 35.224 141.011 32.952 141.011 28.872C141.011 24.792 143.395 22.776 146.899 22.776C150.419 22.776 152.819 24.792 152.819 28.872ZM146.915 33.112C149.139 33.112 150.419 31.672 150.419 28.952C150.419 26.232 149.123 24.872 146.915 24.872C144.691 24.872 143.379 26.2 143.379 28.952C143.379 31.688 144.691 33.112 146.915 33.112ZM159.904 29.624C162.032 29.624 162.912 29 162.912 27.32C162.912 25.672 161.984 25.016 160.016 25.016C159.52 25.016 158.288 25.032 157.568 25.048C157.568 26.632 157.568 28.184 157.568 29.592C158.032 29.608 158.928 29.624 159.904 29.624ZM155.168 23H160.416C163.424 23 165.232 24.216 165.232 27.352C165.232 30.28 163.408 31.656 160.336 31.656C159.344 31.656 158.768 31.64 157.584 31.608C157.616 32.936 157.648 34.104 157.696 35H155.168C155.232 33.272 155.232 31.56 155.232 29C155.232 26.456 155.232 24.616 155.168 23ZM167.278 23H169.726C169.678 23.944 169.646 26.184 169.646 28.968C169.646 30.36 169.662 31.88 169.662 32.904C171.134 32.904 173.166 32.904 174.83 32.856C174.83 33.208 174.814 33.576 174.814 33.928C174.814 34.296 174.83 34.648 174.83 35H167.278C167.278 33.992 167.326 31.56 167.326 29C167.326 26.072 167.326 24.136 167.278 23ZM179.101 35H176.669C176.717 33.272 176.717 31.544 176.717 29C176.717 26.44 176.717 24.712 176.669 23H179.101C179.053 24.696 179.053 26.424 179.053 28.984C179.053 31.528 179.053 33.256 179.101 35ZM192.425 28.552C192.713 32.824 191.801 35.208 187.257 35.208C183.481 35.208 181.433 32.76 181.433 28.888C181.433 25 183.497 22.792 187.305 22.792C191.001 22.792 192.473 24.712 192.473 26.728C192.473 26.952 192.473 27.128 192.457 27.352C192.185 27.336 191.769 27.32 191.337 27.32C190.857 27.32 190.425 27.32 190.137 27.352C190.153 27.208 190.153 27.064 190.153 26.952C190.153 25.544 189.209 24.776 187.289 24.776C185.081 24.776 183.817 25.88 183.817 28.92C183.817 31.88 185.033 33.256 187.353 33.256C189.497 33.256 190.265 32.392 190.217 30.136C189.129 30.152 187.593 30.152 186.697 30.184C186.713 30.024 186.713 29.704 186.713 29.528C186.713 29.128 186.713 28.808 186.697 28.536C187.673 28.568 188.649 28.568 189.369 28.568C190.185 28.568 191.337 28.584 192.425 28.552ZM203.488 23H205.968C205.92 24.6 205.904 26.456 205.904 29C205.904 31.544 205.92 33.272 205.968 35H203.488C203.536 33.704 203.552 31.512 203.552 30.12C202.656 30.104 201.584 30.104 200.56 30.104C199.552 30.104 198.48 30.104 197.568 30.12C197.568 31.512 197.584 33.704 197.632 35H195.168C195.232 33.272 195.216 31.544 195.216 29C195.216 26.456 195.232 24.6 195.168 23H197.632C197.584 24.216 197.568 26.488 197.568 27.96C198.48 27.976 199.552 27.992 200.56 27.992C201.584 27.992 202.656 27.976 203.552 27.96C203.552 26.488 203.536 24.2 203.488 23ZM207.813 23H217.269V24.024V25.08C216.021 25.064 214.773 25.048 213.701 25.048C213.701 29.528 213.701 34.008 213.749 35.016C213.413 34.984 212.901 34.984 212.533 34.984C212.197 34.984 211.701 34.984 211.349 35.016C211.397 34.024 211.397 29.544 211.397 25.048C210.325 25.048 209.077 25.064 207.813 25.08V24.024V23Z" fill="black"/>
<rect x="4.625" y="0.625" width="254.75" height="55.75" rx="14.375" stroke="black" stroke-width="1.25"/>
</g>
<defs>
<filter id="filter0_d_1101_1474" x="0" y="0" width="264" height="65" filterUnits="userSpaceOnUse" color-interpolation-filters="sRGB">
<feFlood flood-opacity="0" result="BackgroundImageFix"/>
<feColorMatrix in="SourceAlpha" type="matrix" values="0 0 0 0 0 0 0 0 0 0 0 0 0 0 0 0 0 0 127 0" result="hardAlpha"/>
<feOffset dy="4"/>
<feGaussianBlur stdDeviation="2"/>
<feComposite in2="hardAlpha" operator="out"/>
<feColorMatrix type="matrix" values="0 0 0 0 0 0 0 0 0 0 0 0 0 0 0 0 0 0 0.25 0"/>
<feBlend mode="normal" in2="BackgroundImageFix" result="effect1_dropShadow_1101_1474"/>
<feBlend mode="normal" in="SourceGraphic" in2="effect1_dropShadow_1101_1474" result="shape"/>
</filter>
</defs>
</svg>
