<svg width="303" height="103" viewBox="0 0 303 103" fill="none" xmlns="http://www.w3.org/2000/svg">
<g filter="url(#filter0_d_833_1082)">
<rect x="4.5" y="0.5" width="294" height="94" rx="5.5" fill="#FD4A1E" stroke="black"/>
<path d="M48.9425 24.06H50.6625C50.3425 22.6 50.0025 21.1 49.6625 19.8C49.3625 18.78 49.1425 17.8 48.9825 17.08H48.9225C48.7425 17.8 48.5225 18.76 48.2225 19.84C47.9225 21.14 47.5825 22.62 47.2425 24.06H48.9425ZM57.3825 30H51.7825C51.7225 29.46 51.5625 28.42 51.3025 27.14C50.4425 27.14 49.6025 27.14 48.9425 27.14C48.3225 27.14 47.4625 27.14 46.5825 27.14C46.3225 28.38 46.1225 29.4 46.0425 30H40.9225C42.1425 26.24 44.5625 17.08 45.0625 15H53.0825C53.6425 17.1 56.0825 26.18 57.3825 30ZM65.866 22.24C67.186 22.24 67.786 21.62 67.786 20.28C67.786 18.68 67.106 18.32 65.606 18.32C65.186 18.32 64.206 18.34 63.426 18.36C63.426 19.66 63.426 20.96 63.446 22.2C64.006 22.22 64.886 22.22 65.866 22.24ZM69.026 23.92V24.04C71.086 24.3 71.906 24.9 72.406 26.92C72.726 28.06 73.026 29.32 73.226 30H68.766C68.026 30 67.886 29.74 67.546 28.2C67.066 25.68 66.786 25.24 65.566 25.24C64.846 25.24 64.426 25.22 63.466 25.24C63.506 27.16 63.566 28.82 63.686 30H58.626C58.666 27.82 58.706 25.7 58.706 22.5C58.706 19.32 58.686 17.16 58.626 15H66.806C70.466 15 72.566 16.36 72.566 19.52C72.566 22.26 71.566 23.52 69.026 23.92ZM74.9541 15H86.9941C86.9741 15.42 86.9541 16.18 86.9541 16.76C86.9541 17.38 86.9541 18.24 86.9941 18.68C84.5541 18.66 81.8941 18.64 79.8941 18.64V20.74C82.2741 20.74 84.8541 20.74 86.8141 20.68C86.7941 21.42 86.7941 23.16 86.7941 23.96C84.8541 23.92 82.2541 23.9 79.8941 23.9V26.08C81.9141 26.08 84.7141 26.06 86.9941 26.04C86.9541 26.52 86.9541 27.4 86.9541 28.1C86.9541 28.7 86.9541 29.5 86.9941 30H74.9541C75.0141 27.98 75.0141 25.7 75.0141 22.5C75.0141 19.32 75.0141 16.94 74.9541 15ZM103.104 15H107.944C106.724 17.38 104.164 23.42 103.364 25.48C103.384 27.72 103.424 29.38 103.444 30.02C102.684 29.98 101.504 29.98 100.604 29.98C99.6844 29.98 98.5044 29.98 97.7244 30.02C97.7844 29.38 97.8244 27.68 97.8244 25.42C97.0244 23.24 94.4444 17.22 93.2444 15H98.6844C98.9244 15.78 99.5644 17.88 100.084 19.64C100.344 20.56 100.584 21.44 100.764 22.14H100.924C101.104 21.46 101.324 20.6 101.604 19.72C102.184 17.92 102.904 15.78 103.104 15ZM123.332 22.24C123.332 27.66 120.652 30.28 115.512 30.28C110.372 30.28 107.792 27.66 107.792 22.24C107.792 16.82 110.652 14.72 115.532 14.72C120.392 14.72 123.332 16.82 123.332 22.24ZM115.532 26.24C117.332 26.24 118.232 25 118.232 22.3C118.232 19.64 117.312 18.54 115.532 18.54C113.752 18.54 112.812 19.6 112.812 22.3C112.812 25.04 113.752 26.24 115.532 26.24ZM134.825 15H139.805C139.765 16.3 139.725 17.58 139.725 19.52C139.725 20.72 139.765 22.6 139.765 24C139.765 28.04 137.945 30.28 132.565 30.28C127.185 30.28 125.345 28.04 125.345 24C125.345 22.6 125.385 20.72 125.385 19.52C125.385 17.58 125.345 16.3 125.305 15H130.405C130.325 17.36 130.305 21.36 130.305 23.64C130.305 25.4 131.025 26.16 132.685 26.16C134.285 26.16 134.905 25.4 134.905 23.64C134.905 21.36 134.865 17.36 134.825 15ZM151.453 25.1V25.38C151.453 26.52 151.973 26.94 153.693 26.94C155.373 26.94 155.833 26.54 155.833 25.8C155.833 24.94 155.373 24.36 152.773 24C148.193 23.38 147.073 21.84 147.073 19.24C147.073 16.4 149.113 14.72 153.713 14.72C158.833 14.72 160.413 16.2 160.413 18.88C160.413 19.16 160.393 19.46 160.373 19.78C159.773 19.74 158.793 19.72 157.933 19.72C157.253 19.72 156.593 19.72 156.173 19.74C156.193 19.6 156.193 19.46 156.193 19.34C156.193 18.54 155.753 18.02 153.853 18.02C152.393 18.02 151.933 18.44 151.933 19.08C151.933 19.8 152.253 20.4 155.073 20.82C159.173 21.44 160.613 22.74 160.613 25.66C160.613 28.58 158.773 30.28 153.933 30.28C148.733 30.28 147.033 28.86 147.033 26.08C147.033 25.74 147.033 25.38 147.073 25.02C147.733 25.08 148.733 25.14 149.673 25.14C150.353 25.14 150.993 25.14 151.453 25.1ZM172.032 15H177.012C176.972 16.3 176.932 17.58 176.932 19.52C176.932 20.72 176.972 22.6 176.972 24C176.972 28.04 175.152 30.28 169.772 30.28C164.392 30.28 162.552 28.04 162.552 24C162.552 22.6 162.592 20.72 162.592 19.52C162.592 17.58 162.552 16.3 162.512 15H167.612C167.532 17.36 167.512 21.36 167.512 23.64C167.512 25.4 168.232 26.16 169.892 26.16C171.492 26.16 172.112 25.4 172.112 23.64C172.112 21.36 172.072 17.36 172.032 15ZM186.784 22.24C188.104 22.24 188.704 21.62 188.704 20.28C188.704 18.68 188.024 18.32 186.524 18.32C186.104 18.32 185.124 18.34 184.344 18.36C184.344 19.66 184.344 20.96 184.364 22.2C184.924 22.22 185.804 22.22 186.784 22.24ZM189.944 23.92V24.04C192.004 24.3 192.824 24.9 193.324 26.92C193.644 28.06 193.944 29.32 194.144 30H189.684C188.944 30 188.804 29.74 188.464 28.2C187.984 25.68 187.704 25.24 186.484 25.24C185.764 25.24 185.344 25.22 184.384 25.24C184.424 27.16 184.484 28.82 184.604 30H179.544C179.584 27.82 179.624 25.7 179.624 22.5C179.624 19.32 179.604 17.16 179.544 15H187.724C191.384 15 193.484 16.36 193.484 19.52C193.484 22.26 192.484 23.52 189.944 23.92ZM195.872 15H207.912C207.892 15.42 207.872 16.18 207.872 16.76C207.872 17.38 207.872 18.24 207.912 18.68C205.472 18.66 202.812 18.64 200.812 18.64V20.74C203.192 20.74 205.772 20.74 207.732 20.68C207.712 21.42 207.712 23.16 207.712 23.96C205.772 23.92 203.172 23.9 200.812 23.9V26.08C202.832 26.08 205.632 26.06 207.912 26.04C207.872 26.52 207.872 27.4 207.872 28.1C207.872 28.7 207.872 29.5 207.912 30H195.872C195.932 27.98 195.932 25.7 195.932 22.5C195.932 19.32 195.932 16.94 195.872 15ZM224.022 15H228.862C227.642 17.38 225.082 23.42 224.282 25.48C224.302 27.72 224.342 29.38 224.362 30.02C223.602 29.98 222.422 29.98 221.522 29.98C220.602 29.98 219.422 29.98 218.642 30.02C218.702 29.38 218.742 27.68 218.742 25.42C217.942 23.24 215.362 17.22 214.162 15H219.602C219.842 15.78 220.482 17.88 221.002 19.64C221.262 20.56 221.502 21.44 221.682 22.14H221.842C222.022 21.46 222.242 20.6 222.522 19.72C223.102 17.92 223.822 15.78 224.022 15ZM244.25 22.24C244.25 27.66 241.57 30.28 236.43 30.28C231.29 30.28 228.71 27.66 228.71 22.24C228.71 16.82 231.57 14.72 236.45 14.72C241.31 14.72 244.25 16.82 244.25 22.24ZM236.45 26.24C238.25 26.24 239.15 25 239.15 22.3C239.15 19.64 238.23 18.54 236.45 18.54C234.67 18.54 233.73 19.6 233.73 22.3C233.73 25.04 234.67 26.24 236.45 26.24ZM255.743 15H260.723C260.683 16.3 260.643 17.58 260.643 19.52C260.643 20.72 260.683 22.6 260.683 24C260.683 28.04 258.863 30.28 253.483 30.28C248.103 30.28 246.263 28.04 246.263 24C246.263 22.6 246.303 20.72 246.303 19.52C246.303 17.58 246.263 16.3 246.223 15H251.323C251.243 17.36 251.223 21.36 251.223 23.64C251.223 25.4 251.943 26.16 253.603 26.16C255.203 26.16 255.823 25.4 255.823 23.64C255.823 21.36 255.783 17.36 255.743 15ZM66.98 40H71.1C70.22 43.48 68.38 52.82 67.94 55C67.24 54.98 66.26 54.96 65.14 54.96C63.58 54.96 62.44 54.98 61.96 55C61.76 53.82 61.3 50.94 60.88 48.36C60.72 47.24 60.58 45.94 60.44 44.78H60.34C60.18 45.96 60.02 47.3 59.82 48.4C59.38 50.88 58.86 53.7 58.64 55C57.98 55 56.8 54.96 55.72 54.96C54.26 54.96 53.4 54.98 52.94 55C52.4 52.52 50.7 43.5 49.76 40H55.04C55.12 41.1 55.7 45.38 56.14 48.3C56.28 49.2 56.4 50.1 56.52 50.82H56.64C56.76 50.08 56.9 49.2 57.06 48.26C57.5 45.38 58.16 41.44 58.26 40C58.96 40.02 60.36 40.02 61.16 40.02C61.96 40.02 63.14 40.02 63.8 40C63.94 41.32 64.42 45.36 64.94 48.34C65.12 49.34 65.24 50.2 65.34 50.9H65.46C65.56 50.18 65.66 49.32 65.84 48.34C66.28 45.38 66.84 41.46 66.98 40ZM78.5226 49.06H80.2426C79.9226 47.6 79.5826 46.1 79.2426 44.8C78.9426 43.78 78.7226 42.8 78.5626 42.08H78.5026C78.3226 42.8 78.1026 43.76 77.8026 44.84C77.5026 46.14 77.1626 47.62 76.8226 49.06H78.5226ZM86.9626 55H81.3626C81.3026 54.46 81.1426 53.42 80.8826 52.14C80.0226 52.14 79.1826 52.14 78.5226 52.14C77.9026 52.14 77.0426 52.14 76.1626 52.14C75.9026 53.38 75.7026 54.4 75.6226 55H70.5026C71.7226 51.24 74.1426 42.08 74.6426 40H82.6626C83.2226 42.1 85.6626 51.18 86.9626 55ZM98.4223 40H102.762C102.722 41.44 102.702 44.3 102.702 47.48C102.702 50.8 102.702 53.06 102.742 55H97.6423C97.0023 53.66 95.3023 50.92 93.8623 48.62C93.3423 47.62 92.9223 46.58 92.5623 45.56H92.5223C92.6223 46.86 92.6823 48.04 92.7223 49.22C92.7423 52.16 92.7423 54.16 92.8023 55H88.3623C88.3823 53 88.4023 50.7 88.4023 47.5C88.4023 44.32 88.4023 41.98 88.3623 40H93.9823C94.3823 40.96 96.3423 44.1 97.6423 46.5C98.0423 47.28 98.4023 48.2 98.7023 49.12L98.7423 49.1C98.6423 47.96 98.5823 46.88 98.5823 45.92C98.5623 43.72 98.5023 41.22 98.4223 40ZM104.394 40H116.394C116.374 40.56 116.374 41.42 116.374 42.2C116.374 42.94 116.374 43.88 116.394 44.48C115.214 44.46 114.034 44.44 112.954 44.44C112.954 49.26 112.974 53.94 113.034 55.02C112.334 54.96 111.194 54.96 110.394 54.96C109.594 54.96 108.494 54.96 107.774 55.02C107.834 53.94 107.854 49.28 107.854 44.44C106.774 44.44 105.594 44.46 104.394 44.48C104.414 43.88 104.414 42.94 104.414 42.2C104.414 41.42 104.414 40.56 104.394 40ZM122.246 40H134.246C134.226 40.56 134.226 41.42 134.226 42.2C134.226 42.94 134.226 43.88 134.246 44.48C133.066 44.46 131.886 44.44 130.806 44.44C130.806 49.26 130.826 53.94 130.886 55.02C130.186 54.96 129.046 54.96 128.246 54.96C127.446 54.96 126.346 54.96 125.626 55.02C125.686 53.94 125.706 49.28 125.706 44.44C124.626 44.44 123.446 44.46 122.246 44.48C122.266 43.88 122.266 42.94 122.266 42.2C122.266 41.42 122.266 40.56 122.246 40ZM150.705 47.24C150.705 52.66 148.025 55.28 142.885 55.28C137.745 55.28 135.165 52.66 135.165 47.24C135.165 41.82 138.025 39.72 142.905 39.72C147.765 39.72 150.705 41.82 150.705 47.24ZM142.905 51.24C144.705 51.24 145.605 50 145.605 47.3C145.605 44.64 144.685 43.54 142.905 43.54C141.125 43.54 140.185 44.6 140.185 47.3C140.185 50.04 141.125 51.24 142.905 51.24ZM167.374 40H172.354C172.314 41.3 172.274 42.58 172.274 44.52C172.274 45.72 172.314 47.6 172.314 49C172.314 53.04 170.494 55.28 165.114 55.28C159.734 55.28 157.894 53.04 157.894 49C157.894 47.6 157.934 45.72 157.934 44.52C157.934 42.58 157.894 41.3 157.854 40H162.954C162.874 42.36 162.854 46.36 162.854 48.64C162.854 50.4 163.574 51.16 165.234 51.16C166.834 51.16 167.454 50.4 167.454 48.64C167.454 46.36 167.414 42.36 167.374 40ZM184.946 40H189.286C189.246 41.44 189.226 44.3 189.226 47.48C189.226 50.8 189.226 53.06 189.266 55H184.166C183.526 53.66 181.826 50.92 180.386 48.62C179.866 47.62 179.446 46.58 179.086 45.56H179.046C179.146 46.86 179.206 48.04 179.246 49.22C179.266 52.16 179.266 54.16 179.326 55H174.886C174.906 53 174.926 50.7 174.926 47.5C174.926 44.32 174.926 41.98 174.886 40H180.506C180.906 40.96 182.866 44.1 184.166 46.5C184.566 47.28 184.926 48.2 185.226 49.12L185.266 49.1C185.166 47.96 185.106 46.88 185.106 45.92C185.086 43.72 185.026 41.22 184.946 40ZM195.818 50.1V50.38C195.818 51.52 196.338 51.94 198.058 51.94C199.738 51.94 200.198 51.54 200.198 50.8C200.198 49.94 199.738 49.36 197.138 49C192.558 48.38 191.438 46.84 191.438 44.24C191.438 41.4 193.478 39.72 198.078 39.72C203.198 39.72 204.778 41.2 204.778 43.88C204.778 44.16 204.758 44.46 204.738 44.78C204.138 44.74 203.158 44.72 202.298 44.72C201.618 44.72 200.958 44.72 200.538 44.74C200.558 44.6 200.558 44.46 200.558 44.34C200.558 43.54 200.118 43.02 198.218 43.02C196.758 43.02 196.298 43.44 196.298 44.08C196.298 44.8 196.618 45.4 199.438 45.82C203.538 46.44 204.978 47.74 204.978 50.66C204.978 53.58 203.138 55.28 198.298 55.28C193.098 55.28 191.398 53.86 191.398 51.08C191.398 50.74 191.398 50.38 191.438 50.02C192.098 50.08 193.098 50.14 194.038 50.14C194.718 50.14 195.358 50.14 195.818 50.1ZM215.106 40H219.946C218.726 42.38 216.166 48.42 215.366 50.48C215.386 52.72 215.426 54.38 215.446 55.02C214.686 54.98 213.506 54.98 212.606 54.98C211.686 54.98 210.506 54.98 209.726 55.02C209.786 54.38 209.826 52.68 209.826 50.42C209.026 48.24 206.446 42.22 205.246 40H210.686C210.926 40.78 211.566 42.88 212.086 44.64C212.346 45.56 212.586 46.44 212.766 47.14H212.926C213.106 46.46 213.326 45.6 213.606 44.72C214.186 42.92 214.906 40.78 215.106 40ZM231.313 40H235.653C235.613 41.44 235.593 44.3 235.593 47.48C235.593 50.8 235.593 53.06 235.633 55H230.533C229.893 53.66 228.193 50.92 226.753 48.62C226.233 47.62 225.813 46.58 225.453 45.56H225.413C225.513 46.86 225.573 48.04 225.613 49.22C225.633 52.16 225.633 54.16 225.693 55H221.253C221.273 53 221.293 50.7 221.293 47.5C221.293 44.32 221.293 41.98 221.253 40H226.873C227.273 40.96 229.233 44.1 230.533 46.5C230.933 47.28 231.293 48.2 231.593 49.12L231.633 49.1C231.533 47.96 231.473 46.88 231.473 45.92C231.453 43.72 231.393 41.22 231.313 40ZM247.485 48.98V48.46C248.285 48.48 249.085 48.48 249.885 48.48C250.685 48.48 251.505 48.48 252.305 48.46C252.325 48.78 252.325 49.08 252.325 49.34C252.325 53.32 249.985 55.26 245.165 55.26C240.085 55.26 237.625 52.94 237.625 47.3C237.625 42.14 240.005 39.74 245.225 39.74C250.345 39.74 252.285 41.74 252.285 45C252.285 45.38 252.265 45.8 252.225 46.24C251.425 46.2 250.605 46.2 249.825 46.2C249.025 46.2 248.245 46.2 247.445 46.24C247.465 46.08 247.465 45.92 247.465 45.8C247.465 44.1 246.685 43.52 245.165 43.52C243.485 43.54 242.685 44.32 242.685 47.28C242.685 50.22 243.505 51.2 245.265 51.2C246.805 51.2 247.485 50.32 247.485 48.98ZM63.0653 65H67.9053C66.6853 67.38 64.1253 73.42 63.3253 75.48C63.3453 77.72 63.3853 79.38 63.4053 80.02C62.6453 79.98 61.4653 79.98 60.5653 79.98C59.6453 79.98 58.4653 79.98 57.6853 80.02C57.7453 79.38 57.7853 77.68 57.7853 75.42C56.9853 73.24 54.4053 67.22 53.2053 65H58.6453C58.8853 65.78 59.5253 67.88 60.0453 69.64C60.3053 70.56 60.5453 71.44 60.7253 72.14H60.8853C61.0653 71.46 61.2853 70.6 61.5653 69.72C62.1453 67.92 62.8653 65.78 63.0653 65ZM83.2925 72.24C83.2925 77.66 80.6125 80.28 75.4725 80.28C70.3325 80.28 67.7525 77.66 67.7525 72.24C67.7525 66.82 70.6125 64.72 75.4925 64.72C80.3525 64.72 83.2925 66.82 83.2925 72.24ZM75.4925 76.24C77.2925 76.24 78.1925 75 78.1925 72.3C78.1925 69.64 77.2725 68.54 75.4925 68.54C73.7125 68.54 72.7725 69.6 72.7725 72.3C72.7725 75.04 73.7125 76.24 75.4925 76.24ZM94.7857 65H99.7657C99.7257 66.3 99.6857 67.58 99.6857 69.52C99.6857 70.72 99.7257 72.6 99.7257 74C99.7257 78.04 97.9057 80.28 92.5257 80.28C87.1457 80.28 85.3057 78.04 85.3057 74C85.3057 72.6 85.3457 70.72 85.3457 69.52C85.3457 67.58 85.3057 66.3 85.2657 65H90.3657C90.2857 67.36 90.2657 71.36 90.2657 73.64C90.2657 75.4 90.9857 76.16 92.6457 76.16C94.2457 76.16 94.8657 75.4 94.8657 73.64C94.8657 71.36 94.8257 67.36 94.7857 65ZM109.538 72.24C110.858 72.24 111.458 71.62 111.458 70.28C111.458 68.68 110.778 68.32 109.278 68.32C108.858 68.32 107.878 68.34 107.098 68.36C107.098 69.66 107.098 70.96 107.118 72.2C107.678 72.22 108.558 72.22 109.538 72.24ZM112.698 73.92V74.04C114.758 74.3 115.578 74.9 116.078 76.92C116.398 78.06 116.698 79.32 116.898 80H112.438C111.698 80 111.558 79.74 111.218 78.2C110.738 75.68 110.458 75.24 109.238 75.24C108.518 75.24 108.098 75.22 107.138 75.24C107.178 77.16 107.238 78.82 107.358 80H102.298C102.338 77.82 102.378 75.7 102.378 72.5C102.378 69.32 102.358 67.16 102.298 65H110.478C114.138 65 116.238 66.36 116.238 69.52C116.238 72.26 115.238 73.52 112.698 73.92ZM130.399 73.02C132.319 73.02 132.959 72.46 132.959 70.74C132.959 69.02 132.239 68.52 130.499 68.52C130.139 68.52 129.359 68.52 128.739 68.54C128.739 70.1 128.739 71.6 128.759 73C129.159 73 129.739 73.02 130.399 73.02ZM123.879 65H131.639C135.499 65 137.639 66.32 137.639 70.64C137.639 74.76 135.799 76.54 131.219 76.54C130.459 76.54 129.719 76.52 128.799 76.5C128.839 77.86 128.879 79.04 128.959 80H123.879C123.939 77.84 123.959 75.7 123.959 72.5C123.959 69.32 123.939 67.08 123.879 65ZM154.347 72.24C154.347 77.66 151.667 80.28 146.527 80.28C141.387 80.28 138.807 77.66 138.807 72.24C138.807 66.82 141.667 64.72 146.547 64.72C151.407 64.72 154.347 66.82 154.347 72.24ZM146.547 76.24C148.347 76.24 149.247 75 149.247 72.3C149.247 69.64 148.327 68.54 146.547 68.54C144.767 68.54 143.827 69.6 143.827 72.3C143.827 75.04 144.767 76.24 146.547 76.24ZM162.86 73.02C164.78 73.02 165.42 72.46 165.42 70.74C165.42 69.02 164.7 68.52 162.96 68.52C162.6 68.52 161.82 68.52 161.2 68.54C161.2 70.1 161.2 71.6 161.22 73C161.62 73 162.2 73.02 162.86 73.02ZM156.34 65H164.1C167.96 65 170.1 66.32 170.1 70.64C170.1 74.76 168.26 76.54 163.68 76.54C162.92 76.54 162.18 76.52 161.26 76.5C161.3 77.86 161.34 79.04 161.42 80H156.34C156.4 77.84 156.42 75.7 156.42 72.5C156.42 69.32 156.4 67.08 156.34 65ZM171.849 65H177.009C176.969 66.12 176.929 69.16 176.909 72.48C176.909 73.54 176.909 74.62 176.929 75.56C178.309 75.56 180.149 75.54 181.749 75.5C181.749 76.24 181.729 77 181.729 77.74C181.729 78.5 181.749 79.24 181.749 80H171.849C171.849 78.78 171.909 75.7 171.909 72.5C171.909 69.06 171.909 66.44 171.849 65ZM188.393 80H183.313C183.373 77.84 183.373 75.68 183.373 72.5C183.373 69.3 183.373 67.14 183.313 65H188.393C188.353 67.12 188.353 69.28 188.353 72.48C188.353 75.66 188.353 77.82 188.393 80ZM205.009 71.64H205.049C205.389 77.38 204.329 80.26 198.029 80.26C192.789 80.26 190.369 77.54 190.369 72.34C190.369 67.16 192.829 64.74 198.089 64.74C203.349 64.74 205.129 66.92 205.129 69.6C205.129 69.88 205.129 70.14 205.109 70.44C204.449 70.42 203.529 70.4 202.629 70.4C201.709 70.4 200.829 70.4 200.229 70.44C200.229 70.28 200.249 70.1 200.249 69.96C200.249 68.74 199.509 68.2 198.069 68.2C196.189 68.2 195.389 69.2 195.389 72.4C195.389 75.42 196.109 76.7 198.209 76.7C199.709 76.7 200.329 76.08 200.449 74.48C199.489 74.48 198.449 74.5 197.649 74.52C197.669 74.22 197.669 73.5 197.669 73.18C197.669 72.56 197.669 72.04 197.649 71.64C198.929 71.66 200.209 71.66 201.169 71.66C202.229 71.66 203.609 71.68 205.009 71.64ZM217.033 65H222.093C222.033 67.06 222.013 69.32 222.013 72.5C222.013 75.68 222.033 77.84 222.093 80H217.033C217.073 78.56 217.093 76.38 217.113 74.64C216.393 74.62 215.593 74.62 214.793 74.62C213.993 74.62 213.193 74.62 212.473 74.64C212.473 76.38 212.493 78.54 212.553 80H207.493C207.573 77.84 207.573 75.68 207.573 72.5C207.573 69.32 207.573 67.06 207.493 65H212.553C212.493 66.4 212.473 68.66 212.473 70.46C213.193 70.48 213.993 70.5 214.793 70.5C215.593 70.5 216.393 70.48 217.113 70.46C217.093 68.66 217.073 66.4 217.033 65ZM223.74 65H235.74C235.72 65.56 235.72 66.42 235.72 67.2C235.72 67.94 235.72 68.88 235.74 69.48C234.56 69.46 233.38 69.44 232.3 69.44C232.3 74.26 232.32 78.94 232.38 80.02C231.68 79.96 230.54 79.96 229.74 79.96C228.94 79.96 227.84 79.96 227.12 80.02C227.18 78.94 227.2 74.28 227.2 69.44C226.12 69.44 224.94 69.46 223.74 69.48C223.76 68.88 223.76 67.94 223.76 67.2C223.76 66.42 223.76 65.56 223.74 65ZM242.416 76.2C244.276 76.2 245.236 76.82 245.236 78.18C245.236 79.52 244.276 80.18 242.416 80.18C240.596 80.18 239.636 79.52 239.636 78.18C239.636 76.82 240.596 76.2 242.416 76.2ZM236.576 69.34C236.576 66.52 238.176 64.76 242.836 64.76C247.076 64.76 248.976 66.2 248.976 69.02C248.976 71.04 248.156 72.12 246.216 73.08C245.196 73.64 244.836 74.3 244.836 74.84C244.836 75.06 244.836 75.12 244.856 75.28C244.216 75.22 243.276 75.22 242.456 75.22C241.556 75.22 240.776 75.24 240.056 75.3C240.036 75.12 240.036 74.98 240.036 74.82C240.036 73.1 240.696 72.02 242.396 71.26C243.896 70.6 244.316 70.06 244.316 69.28C244.316 68.58 243.896 68.04 242.636 68.04C241.276 68.04 240.816 68.76 240.816 69.78C240.816 69.98 240.816 70.24 240.856 70.48C240.396 70.46 239.676 70.44 238.956 70.44C238.116 70.44 237.196 70.48 236.616 70.52C236.596 70.1 236.576 69.72 236.576 69.34Z" fill="#FEF8E5"/>
</g>
<defs>
<filter id="filter0_d_833_1082" x="0" y="0" width="303" height="103" filterUnits="userSpaceOnUse" color-interpolation-filters="sRGB">
<feFlood flood-opacity="0" result="BackgroundImageFix"/>
<feColorMatrix in="SourceAlpha" type="matrix" values="0 0 0 0 0 0 0 0 0 0 0 0 0 0 0 0 0 0 127 0" result="hardAlpha"/>
<feOffset dy="4"/>
<feGaussianBlur stdDeviation="2"/>
<feComposite in2="hardAlpha" operator="out"/>
<feColorMatrix type="matrix" values="0 0 0 0 0 0 0 0 0 0 0 0 0 0 0 0 0 0 0.25 0"/>
<feBlend mode="normal" in2="BackgroundImageFix" result="effect1_dropShadow_833_1082"/>
<feBlend mode="normal" in="SourceGraphic" in2="effect1_dropShadow_833_1082" result="shape"/>
</filter>
</defs>
</svg>
