<svg width="88" height="8" viewBox="0 0 88 8" fill="none" xmlns="http://www.w3.org/2000/svg">
<path d="M3.08938 0.3C3.69604 0.3 4.21271 0.41 4.63938 0.63C5.07271 0.85 5.43604 1.18667 5.72938 1.64L4.91938 2.37C4.73271 1.97 4.49938 1.68 4.21938 1.5C3.93938 1.32 3.56604 1.23 3.09938 1.23C2.63938 1.23 2.28271 1.32333 2.02938 1.51C1.77604 1.69 1.64938 1.92333 1.64938 2.21C1.64938 2.47667 1.77271 2.69 2.01938 2.85C2.26604 3.00333 2.70604 3.13667 3.33938 3.25C3.93271 3.35667 4.40271 3.49333 4.74938 3.66C5.10271 3.82 5.35938 4.02333 5.51938 4.27C5.67938 4.51 5.75938 4.81 5.75938 5.17C5.75938 5.55667 5.64938 5.89667 5.42938 6.19C5.20938 6.48333 4.89938 6.71 4.49938 6.87C4.10604 7.02333 3.64938 7.1 3.12938 7.1C1.78938 7.1 0.842708 6.65333 0.289375 5.76L1.03938 5.01C1.25271 5.41 1.52604 5.70333 1.85938 5.89C2.19938 6.07667 2.61938 6.17 3.11938 6.17C3.59271 6.17 3.96271 6.09 4.22938 5.93C4.50271 5.76333 4.63938 5.53 4.63938 5.23C4.63938 4.99 4.51604 4.79667 4.26938 4.65C4.02938 4.50333 3.60604 4.37333 2.99938 4.26C2.39271 4.14667 1.90938 4.00667 1.54938 3.84C1.18938 3.67333 0.926042 3.46667 0.759375 3.22C0.599375 2.97333 0.519375 2.67333 0.519375 2.32C0.519375 1.94667 0.622708 1.60667 0.829375 1.3C1.03604 0.993333 1.33271 0.75 1.71938 0.57C2.11271 0.39 2.56938 0.3 3.08938 0.3ZM12.1754 6.08V7H7.25539V0.4H12.0354V1.32H8.32539V3.22H11.2254V4.12H8.32539V6.08H12.1754ZM18.5228 1.32H16.2628V7H15.1928V1.32H12.9328V0.4H18.5228V1.32ZM28.122 4.47C28.122 5.33667 27.892 5.99333 27.432 6.44C26.972 6.88 26.302 7.1 25.422 7.1C24.542 7.1 23.872 6.88 23.412 6.44C22.952 5.99333 22.722 5.33667 22.722 4.47V0.4H23.802V4.34C23.802 4.96667 23.932 5.43 24.192 5.73C24.4587 6.02333 24.8687 6.17 25.422 6.17C25.9754 6.17 26.382 6.02333 26.642 5.73C26.9087 5.43 27.042 4.96667 27.042 4.34V0.4H28.122V4.47ZM32.5298 0.4C33.2431 0.4 33.8064 0.583333 34.2198 0.95C34.6398 1.31667 34.8498 1.82 34.8498 2.46C34.8498 3.1 34.6398 3.60333 34.2198 3.97C33.8064 4.33 33.2431 4.51 32.5298 4.51H31.0598V7H29.9898V0.4H32.5298ZM32.3598 3.6C32.8264 3.6 33.1731 3.50667 33.3998 3.32C33.6264 3.12667 33.7398 2.84 33.7398 2.46C33.7398 1.69333 33.2798 1.31 32.3598 1.31H31.0598V3.6H32.3598ZM41.8657 0.4C42.579 0.4 43.1424 0.583333 43.5557 0.95C43.9757 1.31667 44.1857 1.82 44.1857 2.46C44.1857 3.1 43.9757 3.60333 43.5557 3.97C43.1424 4.33 42.579 4.51 41.8657 4.51H40.3957V7H39.3257V0.4H41.8657ZM41.6957 3.6C42.1624 3.6 42.509 3.50667 42.7357 3.32C42.9624 3.12667 43.0757 2.84 43.0757 2.46C43.0757 1.69333 42.6157 1.31 41.6957 1.31H40.3957V3.6H41.6957ZM48.3352 0.3C48.9686 0.3 49.5186 0.436667 49.9852 0.71C50.4586 0.983333 50.8219 1.37667 51.0752 1.89C51.3286 2.40333 51.4552 3.00667 51.4552 3.7C51.4552 4.39333 51.3286 4.99667 51.0752 5.51C50.8219 6.02333 50.4586 6.41667 49.9852 6.69C49.5186 6.96333 48.9686 7.1 48.3352 7.1C47.7019 7.1 47.1519 6.96333 46.6852 6.69C46.2186 6.41667 45.8586 6.02333 45.6052 5.51C45.3519 4.99667 45.2252 4.39333 45.2252 3.7C45.2252 3.00667 45.3519 2.40333 45.6052 1.89C45.8586 1.37667 46.2186 0.983333 46.6852 0.71C47.1519 0.436667 47.7019 0.3 48.3352 0.3ZM48.3352 1.23C47.7152 1.23 47.2286 1.44667 46.8752 1.88C46.5219 2.31333 46.3452 2.92 46.3452 3.7C46.3452 4.48 46.5219 5.08667 46.8752 5.52C47.2286 5.95333 47.7152 6.17 48.3352 6.17C48.9619 6.17 49.4519 5.95333 49.8052 5.52C50.1586 5.08667 50.3352 4.48 50.3352 3.7C50.3352 2.92 50.1586 2.31333 49.8052 1.88C49.4519 1.44667 48.9619 1.23 48.3352 1.23ZM55.5864 0.4C56.2997 0.4 56.8631 0.583333 57.2764 0.95C57.6964 1.31667 57.9064 1.82 57.9064 2.46C57.9064 3.1 57.6964 3.60333 57.2764 3.97C56.8631 4.33 56.2997 4.51 55.5864 4.51H54.1164V7H53.0464V0.4H55.5864ZM55.4164 3.6C55.8831 3.6 56.2297 3.50667 56.4564 3.32C56.6831 3.12667 56.7964 2.84 56.7964 2.46C56.7964 1.69333 56.3364 1.31 55.4164 1.31H54.1164V3.6H55.4164ZM64.0259 6.08V7H59.3159V0.4H60.3859V6.08H64.0259ZM66.3723 7H65.3023V0.4H66.3723V7ZM73.8596 3.59V7H73.0696L73.0396 6.16C72.8463 6.46 72.5796 6.69333 72.2396 6.86C71.8996 7.02 71.4929 7.1 71.0196 7.1C70.4063 7.1 69.8696 6.96333 69.4096 6.69C68.9496 6.41667 68.5929 6.02667 68.3396 5.52C68.0863 5.00667 67.9596 4.4 67.9596 3.7C67.9596 3.00667 68.0896 2.40667 68.3496 1.9C68.6096 1.38667 68.9763 0.993333 69.4496 0.72C69.9229 0.44 70.4729 0.3 71.0996 0.3C71.7796 0.3 72.3396 0.426666 72.7796 0.68C73.2196 0.933333 73.5663 1.32667 73.8196 1.86L72.8396 2.33C72.7129 1.97 72.4996 1.69667 72.1996 1.51C71.8996 1.32333 71.5396 1.23 71.1196 1.23C70.4929 1.23 69.9963 1.44667 69.6296 1.88C69.2629 2.31333 69.0796 2.92 69.0796 3.7C69.0796 4.49333 69.2529 5.10667 69.5996 5.54C69.9529 5.96667 70.4663 6.18 71.1396 6.18C71.6663 6.18 72.0929 6.05 72.4196 5.79C72.7463 5.53 72.9096 5.15333 72.9096 4.66V4.47H70.8896V3.59H73.8596ZM80.9759 0.4V7H79.8959V4.12H76.6359V7H75.5659V0.4H76.6359V3.2H79.8959V0.4H80.9759ZM87.8392 1.32H85.5792V7H84.5092V1.32H82.2492V0.4H87.8392V1.32Z" fill="#EAFC38"/>
</svg>
