<svg width="34" height="8" viewBox="0 0 34 8" fill="none" xmlns="http://www.w3.org/2000/svg">
<path d="M3.47707 0.3C4.08374 0.3 4.6004 0.41 5.02707 0.63C5.4604 0.85 5.82374 1.18667 6.11707 1.64L5.30707 2.37C5.1204 1.97 4.88707 1.68 4.60707 1.5C4.32707 1.32 3.95374 1.23 3.48707 1.23C3.02707 1.23 2.6704 1.32333 2.41707 1.51C2.16374 1.69 2.03707 1.92333 2.03707 2.21C2.03707 2.47667 2.1604 2.69 2.40707 2.85C2.65374 3.00333 3.09374 3.13667 3.72707 3.25C4.3204 3.35667 4.7904 3.49333 5.13707 3.66C5.4904 3.82 5.74707 4.02333 5.90707 4.27C6.06707 4.51 6.14707 4.81 6.14707 5.17C6.14707 5.55667 6.03707 5.89667 5.81707 6.19C5.59707 6.48333 5.28707 6.71 4.88707 6.87C4.49374 7.02333 4.03707 7.1 3.51707 7.1C2.17707 7.1 1.2304 6.65333 0.67707 5.76L1.42707 5.01C1.6404 5.41 1.91374 5.70333 2.24707 5.89C2.58707 6.07667 3.00707 6.17 3.50707 6.17C3.9804 6.17 4.3504 6.09 4.61707 5.93C4.8904 5.76333 5.02707 5.53 5.02707 5.23C5.02707 4.99 4.90374 4.79667 4.65707 4.65C4.41707 4.50333 3.99374 4.37333 3.38707 4.26C2.7804 4.14667 2.29707 4.00667 1.93707 3.84C1.57707 3.67333 1.31374 3.46667 1.14707 3.22C0.98707 2.97333 0.90707 2.67333 0.90707 2.32C0.90707 1.94667 1.0104 1.60667 1.21707 1.3C1.42374 0.993333 1.7204 0.75 2.10707 0.57C2.5004 0.39 2.95707 0.3 3.47707 0.3ZM13.0531 0.4V7H11.9731V4.12H8.71309V7H7.64309V0.4H8.71309V3.2H11.9731V0.4H13.0531ZM18.7364 5.27H15.9564L15.3264 7H14.2264L16.7164 0.4H17.9964L20.4864 7H19.3564L18.7364 5.27ZM18.4164 4.4L17.6564 2.28L17.3564 1.33H17.3264L17.0464 2.26L16.2664 4.4H18.4164ZM24.1368 4.36H22.7168V7H21.6568V0.4H24.3468C25.0601 0.4 25.6234 0.576666 26.0368 0.929999C26.4501 1.27667 26.6568 1.76 26.6568 2.38C26.6568 2.85333 26.5334 3.25 26.2868 3.57C26.0468 3.88333 25.7034 4.10667 25.2568 4.24L27.0468 7H25.8168L24.1368 4.36ZM22.7168 3.47H24.2568C24.6901 3.47 25.0134 3.38333 25.2268 3.21C25.4401 3.03 25.5468 2.75667 25.5468 2.39C25.5468 2.02333 25.4401 1.75333 25.2268 1.58C25.0134 1.4 24.6901 1.31 24.2568 1.31H22.7168V3.47ZM33.2955 6.08V7H28.3755V0.4H33.1555V1.32H29.4455V3.22H32.3455V4.12H29.4455V6.08H33.2955Z" fill="#EAFC38"/>
</svg>
