<svg width="80" height="8" viewBox="0 0 80 8" fill="none" xmlns="http://www.w3.org/2000/svg">
<path d="M4.58305 5.27H1.80305L1.17305 7H0.0730469L2.56305 0.4H3.84305L6.33305 7H5.20305L4.58305 5.27ZM4.26305 4.4L3.50305 2.28L3.20305 1.33H3.17305L2.89305 2.26L2.11305 4.4H4.26305ZM9.83344 0.4C10.8734 0.4 11.6801 0.686666 12.2534 1.26C12.8268 1.83333 13.1134 2.64667 13.1134 3.7C13.1134 4.75333 12.8268 5.56667 12.2534 6.14C11.6801 6.71333 10.8734 7 9.83344 7H7.50344V0.4H9.83344ZM9.83344 6.09C10.5268 6.09 11.0601 5.88333 11.4334 5.47C11.8068 5.05 11.9934 4.46 11.9934 3.7C11.9934 2.94 11.8068 2.35333 11.4334 1.94C11.0601 1.52 10.5268 1.31 9.83344 1.31H8.57344V6.09H9.83344ZM17.0307 0.4C18.0707 0.4 18.8774 0.686666 19.4507 1.26C20.024 1.83333 20.3107 2.64667 20.3107 3.7C20.3107 4.75333 20.024 5.56667 19.4507 6.14C18.8774 6.71333 18.0707 7 17.0307 7H14.7007V0.4H17.0307ZM17.0307 6.09C17.724 6.09 18.2574 5.88333 18.6307 5.47C19.004 5.05 19.1907 4.46 19.1907 3.7C19.1907 2.94 19.004 2.35333 18.6307 1.94C18.2574 1.52 17.724 1.31 17.0307 1.31H15.7707V6.09H17.0307ZM27.6899 0.4C28.4033 0.4 28.9666 0.583333 29.3799 0.95C29.7999 1.31667 30.0099 1.82 30.0099 2.46C30.0099 3.1 29.7999 3.60333 29.3799 3.97C28.9666 4.33 28.4033 4.51 27.6899 4.51H26.2199V7H25.1499V0.4H27.6899ZM27.5199 3.6C27.9866 3.6 28.3333 3.50667 28.5599 3.32C28.7866 3.12667 28.8999 2.84 28.8999 2.46C28.8999 1.69333 28.4399 1.31 27.5199 1.31H26.2199V3.6H27.5199ZM34.1595 0.3C34.7928 0.3 35.3428 0.436667 35.8095 0.71C36.2828 0.983333 36.6461 1.37667 36.8995 1.89C37.1528 2.40333 37.2795 3.00667 37.2795 3.7C37.2795 4.39333 37.1528 4.99667 36.8995 5.51C36.6461 6.02333 36.2828 6.41667 35.8095 6.69C35.3428 6.96333 34.7928 7.1 34.1595 7.1C33.5261 7.1 32.9761 6.96333 32.5095 6.69C32.0428 6.41667 31.6828 6.02333 31.4295 5.51C31.1761 4.99667 31.0495 4.39333 31.0495 3.7C31.0495 3.00667 31.1761 2.40333 31.4295 1.89C31.6828 1.37667 32.0428 0.983333 32.5095 0.71C32.9761 0.436667 33.5261 0.3 34.1595 0.3ZM34.1595 1.23C33.5395 1.23 33.0528 1.44667 32.6995 1.88C32.3461 2.31333 32.1695 2.92 32.1695 3.7C32.1695 4.48 32.3461 5.08667 32.6995 5.52C33.0528 5.95333 33.5395 6.17 34.1595 6.17C34.7861 6.17 35.2761 5.95333 35.6295 5.52C35.9828 5.08667 36.1595 4.48 36.1595 3.7C36.1595 2.92 35.9828 2.31333 35.6295 1.88C35.2761 1.44667 34.7861 1.23 34.1595 1.23ZM41.4106 0.4C42.124 0.4 42.6873 0.583333 43.1006 0.95C43.5206 1.31667 43.7306 1.82 43.7306 2.46C43.7306 3.1 43.5206 3.60333 43.1006 3.97C42.6873 4.33 42.124 4.51 41.4106 4.51H39.9406V7H38.8706V0.4H41.4106ZM41.2406 3.6C41.7073 3.6 42.054 3.50667 42.2806 3.32C42.5073 3.12667 42.6206 2.84 42.6206 2.46C42.6206 1.69333 42.1606 1.31 41.2406 1.31H39.9406V3.6H41.2406ZM49.8502 6.08V7H45.1402V0.4H46.2102V6.08H49.8502ZM52.1965 7H51.1265V0.4H52.1965V7ZM59.6838 3.59V7H58.8938L58.8638 6.16C58.6705 6.46 58.4038 6.69333 58.0638 6.86C57.7238 7.02 57.3172 7.1 56.8438 7.1C56.2305 7.1 55.6938 6.96333 55.2338 6.69C54.7738 6.41667 54.4172 6.02667 54.1638 5.52C53.9105 5.00667 53.7838 4.4 53.7838 3.7C53.7838 3.00667 53.9138 2.40667 54.1738 1.9C54.4338 1.38667 54.8005 0.993333 55.2738 0.72C55.7472 0.44 56.2972 0.3 56.9238 0.3C57.6038 0.3 58.1638 0.426666 58.6038 0.68C59.0438 0.933333 59.3905 1.32667 59.6438 1.86L58.6638 2.33C58.5372 1.97 58.3238 1.69667 58.0238 1.51C57.7238 1.32333 57.3638 1.23 56.9438 1.23C56.3172 1.23 55.8205 1.44667 55.4538 1.88C55.0872 2.31333 54.9038 2.92 54.9038 3.7C54.9038 4.49333 55.0772 5.10667 55.4238 5.54C55.7772 5.96667 56.2905 6.18 56.9638 6.18C57.4905 6.18 57.9172 6.05 58.2438 5.79C58.5705 5.53 58.7338 5.15333 58.7338 4.66V4.47H56.7138V3.59H59.6838ZM66.8002 0.4V7H65.7202V4.12H62.4602V7H61.3902V0.4H62.4602V3.2H65.7202V0.4H66.8002ZM73.6634 1.32H71.4034V7H70.3334V1.32H68.0734V0.4H73.6634V1.32ZM76.9409 0.3C77.5476 0.3 78.0643 0.41 78.4909 0.63C78.9243 0.85 79.2876 1.18667 79.5809 1.64L78.7709 2.37C78.5843 1.97 78.3509 1.68 78.0709 1.5C77.7909 1.32 77.4176 1.23 76.9509 1.23C76.4909 1.23 76.1343 1.32333 75.8809 1.51C75.6276 1.69 75.5009 1.92333 75.5009 2.21C75.5009 2.47667 75.6243 2.69 75.8709 2.85C76.1176 3.00333 76.5576 3.13667 77.1909 3.25C77.7843 3.35667 78.2543 3.49333 78.6009 3.66C78.9543 3.82 79.2109 4.02333 79.3709 4.27C79.5309 4.51 79.6109 4.81 79.6109 5.17C79.6109 5.55667 79.5009 5.89667 79.2809 6.19C79.0609 6.48333 78.7509 6.71 78.3509 6.87C77.9576 7.02333 77.5009 7.1 76.9809 7.1C75.6409 7.1 74.6943 6.65333 74.1409 5.76L74.8909 5.01C75.1043 5.41 75.3776 5.70333 75.7109 5.89C76.0509 6.07667 76.4709 6.17 76.9709 6.17C77.4443 6.17 77.8143 6.09 78.0809 5.93C78.3543 5.76333 78.4909 5.53 78.4909 5.23C78.4909 4.99 78.3676 4.79667 78.1209 4.65C77.8809 4.50333 77.4576 4.37333 76.8509 4.26C76.2443 4.14667 75.7609 4.00667 75.4009 3.84C75.0409 3.67333 74.7776 3.46667 74.6109 3.22C74.4509 2.97333 74.3709 2.67333 74.3709 2.32C74.3709 1.94667 74.4743 1.60667 74.6809 1.3C74.8876 0.993333 75.1843 0.75 75.5709 0.57C75.9643 0.39 76.4209 0.3 76.9409 0.3Z" fill="#EAFC38"/>
</svg>
