<svg width="87" height="21" viewBox="0 0 87 21" fill="none" xmlns="http://www.w3.org/2000/svg">
<path d="M1.4991 4.25C1.4891 3.44 1.4991 2.58 1.4991 1.72C2.0291 1.7 2.9291 1.69 3.2791 1.69C4.4291 1.69 4.9291 1.99 4.9291 2.99C4.9291 3.79 4.4391 4.28 3.4591 4.28C2.6191 4.27 1.8491 4.26 1.4991 4.25ZM4.5691 4.94C5.8191 4.73 6.3591 4.02 6.3591 2.78C6.3591 1.24 5.3391 0.499999 3.5791 0.499999H0.0491016C0.0691016 1.58 0.0791016 2.66 0.0791016 4.25C0.0791016 5.85 0.0591016 6.91 0.0491016 8H1.5991C1.5491 7.37 1.5191 6.45 1.5091 5.39C2.3891 5.39 2.7491 5.38 3.3791 5.38C4.3091 5.38 4.4891 5.71 4.9391 7.25C5.1191 7.91 5.1491 8 5.4191 8H6.8291C6.6991 7.69 6.5091 7.12 6.2791 6.44C5.9191 5.39 5.5791 5.11 4.5691 4.98V4.94ZM8.1048 0.499999C8.1348 1.39 8.1348 2.66 8.1348 4.25C8.1348 5.85 8.1348 7.05 8.1048 8H13.8748C13.8648 7.84 13.8648 7.56 13.8648 7.38C13.8648 7.15 13.8648 6.85 13.8748 6.69C12.4348 6.7 10.7748 6.71 9.5848 6.71V4.78C11.0048 4.78 12.5948 4.78 13.7748 4.8C13.7748 4.53 13.7748 3.88 13.7848 3.61C12.5848 3.64 11.0248 3.64 9.5848 3.64V1.74C10.7748 1.74 12.3848 1.75 13.8748 1.76C13.8648 1.61 13.8648 1.3 13.8648 1.09C13.8648 0.9 13.8648 0.63 13.8748 0.499999H8.1048ZM18.576 5.18C18.216 5.18 17.706 5.18 17.236 5.17C17.516 4.37 17.796 3.53 18.036 2.84C18.306 2.09 18.466 1.61 18.586 1.25C18.706 1.6 18.866 2.09 19.136 2.79C19.386 3.49 19.676 4.35 19.956 5.17C19.476 5.18 18.956 5.18 18.576 5.18ZM22.586 8C21.796 6.15 20.136 1.6 19.726 0.499999H17.486C17.116 1.57 15.416 6.25 14.686 8H16.286C16.386 7.67 16.596 7.03 16.856 6.26C17.466 6.26 18.136 6.26 18.576 6.26C19.066 6.26 19.706 6.26 20.326 6.26C20.596 7.06 20.796 7.71 20.866 8H22.586ZM26.3764 6.72C25.8364 6.72 25.4564 6.72 24.9564 6.69C24.9464 6.15 24.9464 5.44 24.9464 4.3C24.9464 3.45 24.9564 2.56 24.9664 1.81C25.4164 1.79 25.8964 1.78 26.4164 1.78C27.9364 1.78 28.6564 2.27 28.6564 4.19C28.6564 6.17 27.9264 6.72 26.3764 6.72ZM23.4564 0.499999C23.4864 1.42 23.4864 2.67 23.4864 4.26C23.4864 5.85 23.4864 6.97 23.4564 8H26.3864C29.0264 8 30.1164 6.85 30.1164 4.16C30.1164 1.46 28.9464 0.499999 26.4164 0.499999H23.4564ZM33.1607 8C33.1307 6.91 33.1307 5.83 33.1307 4.24C33.1307 2.64 33.1307 1.56 33.1607 0.499999H31.6407C31.6707 1.57 31.6707 2.65 31.6707 4.25C31.6707 5.84 31.6707 6.92 31.6407 8H33.1607ZM40.3382 0.499999C40.3882 1.21 40.4182 2.99 40.4182 4.53C40.4182 5.06 40.4482 5.63 40.4982 6.22L40.4782 6.23C40.2782 5.76 40.0282 5.27 39.7682 4.87C38.7182 3.26 37.1782 1.08 36.8582 0.499999H35.0782C35.0982 1.42 35.0982 2.66 35.0982 4.25C35.0982 5.85 35.0882 7.02 35.0782 8H36.4482C36.4282 7.42 36.4282 5.97 36.4182 3.84C36.4082 3.27 36.3782 2.66 36.3382 2.02H36.3482C36.5682 2.51 36.8482 3.02 37.1582 3.51C38.2982 5.16 39.7382 7.25 40.1482 8H41.6882C41.6682 7.01 41.6682 5.89 41.6682 4.24C41.6682 2.65 41.6882 1.33 41.6982 0.499999H40.3382ZM50.0233 3.97C49.3433 3.99 48.6233 3.98 48.1133 3.98C47.6633 3.98 47.0533 3.98 46.4433 3.96C46.4533 4.13 46.4533 4.33 46.4533 4.58C46.4533 4.69 46.4533 4.89 46.4433 4.99C47.0033 4.97 47.9633 4.97 48.6433 4.96C48.6733 6.37 48.1933 6.91 46.8533 6.91C45.4033 6.91 44.6433 6.05 44.6433 4.2C44.6433 2.3 45.4333 1.61 46.8133 1.61C48.0133 1.61 48.6033 2.09 48.6033 2.97C48.6033 3.04 48.6033 3.13 48.5933 3.22C48.7733 3.2 49.0433 3.2 49.3433 3.2C49.6133 3.2 49.8733 3.21 50.0433 3.22C50.0533 3.08 50.0533 2.97 50.0533 2.83C50.0533 1.57 49.1333 0.37 46.8233 0.37C44.4433 0.37 43.1533 1.75 43.1533 4.18C43.1533 6.6 44.4333 8.13 46.7933 8.13C49.6333 8.13 50.2033 6.64 50.0233 3.97ZM59.9378 0.499999C59.9878 1.21 60.0178 2.99 60.0178 4.53C60.0178 5.06 60.0478 5.63 60.0978 6.22L60.0778 6.23C59.8778 5.76 59.6278 5.27 59.3678 4.87C58.3178 3.26 56.7778 1.08 56.4578 0.499999H54.6778C54.6978 1.42 54.6978 2.66 54.6978 4.25C54.6978 5.85 54.6878 7.02 54.6778 8H56.0478C56.0278 7.42 56.0278 5.97 56.0178 3.84C56.0078 3.27 55.9778 2.66 55.9378 2.02H55.9478C56.1678 2.51 56.4478 3.02 56.7578 3.51C57.8978 5.16 59.3378 7.25 59.7478 8H61.2878C61.2678 7.01 61.2678 5.89 61.2678 4.24C61.2678 2.65 61.2878 1.33 61.2978 0.499999H59.9378ZM70.1429 4.17C70.1429 1.62 68.6429 0.359999 66.4429 0.359999C64.2529 0.359999 62.7629 1.62 62.7629 4.17C62.7629 6.72 64.1729 8.14 66.4429 8.14C68.7129 8.14 70.1429 6.72 70.1429 4.17ZM66.4529 6.82C65.0629 6.82 64.2429 5.93 64.2429 4.22C64.2429 2.5 65.0629 1.67 66.4529 1.67C67.8329 1.67 68.6429 2.52 68.6429 4.22C68.6429 5.92 67.8429 6.82 66.4529 6.82ZM78.5511 4.17C78.5511 1.62 77.0511 0.359999 74.8511 0.359999C72.6611 0.359999 71.1711 1.62 71.1711 4.17C71.1711 6.72 72.5811 8.14 74.8511 8.14C77.1211 8.14 78.5511 6.72 78.5511 4.17ZM74.8611 6.82C73.4711 6.82 72.6511 5.93 72.6511 4.22C72.6511 2.5 73.4711 1.67 74.8611 1.67C76.2411 1.67 77.0511 2.52 77.0511 4.22C77.0511 5.92 76.2511 6.82 74.8611 6.82ZM84.7993 0.499999C84.3293 1.13 83.7093 1.92 82.8693 2.82C82.4593 3.28 82.0393 3.7 81.6293 4.09H81.5193C81.5193 2.71 81.5193 1.53 81.5693 0.499999H80.0293C80.0493 1.57 80.0593 2.65 80.0593 4.25C80.0593 5.84 80.0493 6.9 80.0293 8H81.5693C81.5293 7.06 81.5193 6.02 81.5193 4.84H81.6593C82.4393 5.47 83.7293 6.89 84.5393 7.77C84.6893 7.93 84.8393 8 85.1193 8H86.8293C86.4893 7.67 85.6593 6.76 84.2093 5.36C83.7993 4.94 83.3793 4.59 83.0693 4.34C84.0293 3.36 85.7893 1.43 86.6693 0.499999H84.7993ZM27.7491 12.5C27.7791 13.21 27.7791 14.42 27.7791 16.25C27.7791 17.85 27.7491 19.37 27.7491 20H32.4691C32.4691 19.78 32.4591 19.56 32.4591 19.33C32.4591 19.11 32.4691 18.88 32.4691 18.66C31.4291 18.69 30.1591 18.69 29.2391 18.69C29.2391 18.05 29.2291 17.1 29.2291 16.23C29.2291 14.49 29.2491 13.09 29.2791 12.5H27.7491ZM35.1382 20C35.1082 18.91 35.1082 17.83 35.1082 16.24C35.1082 14.64 35.1082 13.56 35.1382 12.5H33.6182C33.6482 13.57 33.6482 14.65 33.6482 16.25C33.6482 17.84 33.6482 18.92 33.6182 20H35.1382ZM43.4657 15.97C42.7857 15.99 42.0657 15.98 41.5557 15.98C41.1057 15.98 40.4957 15.98 39.8857 15.96C39.8957 16.13 39.8957 16.33 39.8957 16.58C39.8957 16.69 39.8957 16.89 39.8857 16.99C40.4457 16.97 41.4057 16.97 42.0857 16.96C42.1157 18.37 41.6357 18.91 40.2957 18.91C38.8457 18.91 38.0857 18.05 38.0857 16.2C38.0857 14.3 38.8757 13.61 40.2557 13.61C41.4557 13.61 42.0457 14.09 42.0457 14.97C42.0457 15.04 42.0457 15.13 42.0357 15.22C42.2157 15.2 42.4857 15.2 42.7857 15.2C43.0557 15.2 43.3157 15.21 43.4857 15.22C43.4957 15.08 43.4957 14.97 43.4957 14.83C43.4957 13.57 42.5757 12.37 40.2657 12.37C37.8857 12.37 36.5957 13.75 36.5957 16.18C36.5957 18.6 37.8757 20.13 40.2357 20.13C43.0757 20.13 43.6457 18.64 43.4657 15.97ZM50.3802 12.5C50.4102 13.25 50.4202 14.68 50.4202 15.6C49.8602 15.61 49.1902 15.62 48.5502 15.62C47.9202 15.62 47.2502 15.61 46.6802 15.6C46.6802 14.68 46.6902 13.26 46.7202 12.5H45.1802C45.2202 13.5 45.2102 14.66 45.2102 16.25C45.2102 17.84 45.2202 18.92 45.1802 20H46.7202C46.6902 19.19 46.6802 17.82 46.6802 16.95C47.2502 16.94 47.9202 16.94 48.5502 16.94C49.1902 16.94 49.8602 16.94 50.4202 16.95C50.4202 17.82 50.4102 19.19 50.3802 20H51.9302C51.9002 18.92 51.8902 17.84 51.8902 16.25C51.8902 14.66 51.9002 13.5 51.9302 12.5H50.3802ZM53.0833 12.5V13.14V13.8C53.8733 13.79 54.6533 13.78 55.3233 13.78C55.3233 16.59 55.3233 19.39 55.2933 20.01C55.5133 19.99 55.8233 19.99 56.0333 19.99C56.2633 19.99 56.5833 19.99 56.7933 20.01C56.7633 19.38 56.7633 16.58 56.7633 13.78C57.4333 13.78 58.2133 13.79 58.9933 13.8V13.14V12.5H53.0833Z" fill="black"/>
</svg>
