<svg width="96" height="21" viewBox="0 0 96 21" fill="none" xmlns="http://www.w3.org/2000/svg">
<path d="M2.23152 4.25C2.22152 3.44 2.23152 2.58 2.23152 1.72C2.76152 1.7 3.66152 1.69 4.01152 1.69C5.16152 1.69 5.66152 1.99 5.66152 2.99C5.66152 3.79 5.17152 4.28 4.19152 4.28C3.35152 4.27 2.58152 4.26 2.23152 4.25ZM5.30152 4.94C6.55152 4.73 7.09152 4.02 7.09152 2.78C7.09152 1.24 6.07152 0.499999 4.31152 0.499999H0.781523C0.801524 1.58 0.811523 2.66 0.811523 4.25C0.811523 5.85 0.791523 6.91 0.781523 8H2.33152C2.28152 7.37 2.25152 6.45 2.24152 5.39C3.12152 5.39 3.48152 5.38 4.11152 5.38C5.04152 5.38 5.22152 5.71 5.67152 7.25C5.85152 7.91 5.88152 8 6.15152 8H7.56152C7.43152 7.69 7.24152 7.12 7.01152 6.44C6.65152 5.39 6.31152 5.11 5.30152 4.98V4.94ZM10.3872 8C10.3572 6.91 10.3572 5.83 10.3572 4.24C10.3572 2.64 10.3572 1.56 10.3872 0.499999H8.86723C8.89723 1.57 8.89723 2.65 8.89723 4.25C8.89723 5.84 8.89723 6.92 8.86723 8H10.3872ZM18.7147 3.97C18.0347 3.99 17.3147 3.98 16.8047 3.98C16.3547 3.98 15.7447 3.98 15.1347 3.96C15.1447 4.13 15.1447 4.33 15.1447 4.58C15.1447 4.69 15.1447 4.89 15.1347 4.99C15.6947 4.97 16.6547 4.97 17.3347 4.96C17.3647 6.37 16.8847 6.91 15.5447 6.91C14.0947 6.91 13.3347 6.05 13.3347 4.2C13.3347 2.3 14.1247 1.61 15.5047 1.61C16.7047 1.61 17.2947 2.09 17.2947 2.97C17.2947 3.04 17.2947 3.13 17.2847 3.22C17.4647 3.2 17.7347 3.2 18.0347 3.2C18.3047 3.2 18.5647 3.21 18.7347 3.22C18.7447 3.08 18.7447 2.97 18.7447 2.83C18.7447 1.57 17.8247 0.37 15.5147 0.37C13.1347 0.37 11.8447 1.75 11.8447 4.18C11.8447 6.6 13.1247 8.13 15.4847 8.13C18.3247 8.13 18.8947 6.64 18.7147 3.97ZM25.6293 0.499999C25.6593 1.25 25.6693 2.68 25.6693 3.6C25.1093 3.61 24.4393 3.62 23.7993 3.62C23.1693 3.62 22.4993 3.61 21.9293 3.6C21.9293 2.68 21.9393 1.26 21.9693 0.499999H20.4293C20.4693 1.5 20.4593 2.66 20.4593 4.25C20.4593 5.84 20.4693 6.92 20.4293 8H21.9693C21.9393 7.19 21.9293 5.82 21.9293 4.95C22.4993 4.94 23.1693 4.94 23.7993 4.94C24.4393 4.94 25.1093 4.94 25.6693 4.95C25.6693 5.82 25.6593 7.19 25.6293 8H27.1793C27.1493 6.92 27.1393 5.84 27.1393 4.25C27.1393 2.66 27.1493 1.5 27.1793 0.499999H25.6293ZM28.3323 0.499999V1.14V1.8C29.1223 1.79 29.9023 1.78 30.5723 1.78C30.5723 4.59 30.5723 7.39 30.5423 8.01C30.7623 7.99 31.0723 7.99 31.2823 7.99C31.5123 7.99 31.8323 7.99 32.0423 8.01C32.0123 7.38 32.0123 4.58 32.0123 1.78C32.6823 1.78 33.4623 1.79 34.2423 1.8V1.14V0.499999H28.3323ZM41.7699 6.8C41.2399 6.8 40.5999 6.8 39.8299 6.78C39.8099 6.17 39.8099 5.43 39.8099 4.69C40.4899 4.68 41.1799 4.67 41.7199 4.67C42.8999 4.67 43.3699 4.97 43.3699 5.71C43.3699 6.55 42.9399 6.8 41.7699 6.8ZM43.2799 2.59C43.2799 3.33 42.8199 3.7 41.6999 3.71C41.1599 3.71 40.5099 3.72 39.8099 3.69C39.8099 2.94 39.8099 2.2 39.8199 1.64C40.5199 1.62 41.1699 1.61 41.7399 1.61C42.8299 1.61 43.2799 1.85 43.2799 2.59ZM42.9799 4.2C43.3499 4.16 43.6599 4.1 43.8799 3.99C44.4499 3.7 44.7199 3.26 44.7199 2.44C44.7199 1.06 43.8599 0.499999 42.0699 0.499999H38.3099C38.3599 1.48 38.3699 2.66 38.3699 4.25C38.3699 5.84 38.3599 6.97 38.3099 8H42.1899C43.9499 8 44.8199 7.35 44.8199 5.98C44.8199 5.15 44.4899 4.64 43.7899 4.39C43.5799 4.32 43.3099 4.28 42.9799 4.25V4.2ZM46.3665 0.499999C46.3965 1.39 46.3965 2.66 46.3965 4.25C46.3965 5.85 46.3965 7.05 46.3665 8H52.1365C52.1265 7.84 52.1265 7.56 52.1265 7.38C52.1265 7.15 52.1265 6.85 52.1365 6.69C50.6965 6.7 49.0365 6.71 47.8465 6.71V4.78C49.2665 4.78 50.8565 4.78 52.0365 4.8C52.0365 4.53 52.0365 3.88 52.0465 3.61C50.8465 3.64 49.2865 3.64 47.8465 3.64V1.74C49.0365 1.74 50.6465 1.75 52.1365 1.76C52.1265 1.61 52.1265 1.3 52.1265 1.09C52.1265 0.9 52.1265 0.63 52.1365 0.499999H46.3665ZM56.7377 6.72C56.1977 6.72 55.8177 6.72 55.3177 6.69C55.3077 6.15 55.3077 5.44 55.3077 4.3C55.3077 3.45 55.3177 2.56 55.3277 1.81C55.7777 1.79 56.2577 1.78 56.7777 1.78C58.2977 1.78 59.0177 2.27 59.0177 4.19C59.0177 6.17 58.2877 6.72 56.7377 6.72ZM53.8177 0.499999C53.8477 1.42 53.8477 2.67 53.8477 4.26C53.8477 5.85 53.8477 6.97 53.8177 8H56.7477C59.3877 8 60.4777 6.85 60.4777 4.16C60.4777 1.46 59.3077 0.499999 56.7777 0.499999H53.8177ZM63.462 4.25C63.452 3.44 63.462 2.58 63.462 1.72C63.992 1.7 64.892 1.69 65.242 1.69C66.392 1.69 66.892 1.99 66.892 2.99C66.892 3.79 66.402 4.28 65.422 4.28C64.582 4.27 63.812 4.26 63.462 4.25ZM66.532 4.94C67.782 4.73 68.322 4.02 68.322 2.78C68.322 1.24 67.302 0.499999 65.542 0.499999H62.012C62.032 1.58 62.042 2.66 62.042 4.25C62.042 5.85 62.022 6.91 62.012 8H63.562C63.512 7.37 63.482 6.45 63.472 5.39C64.352 5.39 64.712 5.38 65.342 5.38C66.272 5.38 66.452 5.71 66.902 7.25C67.082 7.91 67.112 8 67.382 8H68.792C68.662 7.69 68.472 7.12 68.242 6.44C67.882 5.39 67.542 5.11 66.532 4.98V4.94ZM76.891 4.17C76.891 1.62 75.391 0.359999 73.191 0.359999C71.001 0.359999 69.511 1.62 69.511 4.17C69.511 6.72 70.921 8.14 73.191 8.14C75.461 8.14 76.891 6.72 76.891 4.17ZM73.201 6.82C71.811 6.82 70.991 5.93 70.991 4.22C70.991 2.5 71.811 1.67 73.201 1.67C74.581 1.67 75.391 2.52 75.391 4.22C75.391 5.92 74.591 6.82 73.201 6.82ZM85.2992 4.17C85.2992 1.62 83.7992 0.359999 81.5992 0.359999C79.4092 0.359999 77.9192 1.62 77.9192 4.17C77.9192 6.72 79.3292 8.14 81.5992 8.14C83.8692 8.14 85.2992 6.72 85.2992 4.17ZM81.6092 6.82C80.2192 6.82 79.3992 5.93 79.3992 4.22C79.3992 2.5 80.2192 1.67 81.6092 1.67C82.9892 1.67 83.7992 2.52 83.7992 4.22C83.7992 5.92 82.9992 6.82 81.6092 6.82ZM95.1974 8C95.1574 6.92 95.1474 5.83 95.1474 4.24C95.1474 2.6 95.1574 1.48 95.1874 0.499999H93.4274C93.0874 1.25 92.3474 2.99 91.6274 4.66C91.4474 5.05 91.2574 5.53 91.0874 5.99H91.0474C90.8774 5.51 90.6774 5 90.5174 4.64C89.7674 2.95 89.0374 1.22 88.7074 0.499999H86.7974C86.8174 1.48 86.8174 2.6 86.8174 4.24C86.8174 5.83 86.8174 6.92 86.7874 8H88.1174C88.0874 6.5 88.0674 5.41 88.0674 3.78C88.0574 3.17 88.0174 2.52 87.9974 1.89L88.0574 1.88C88.2374 2.42 88.4474 3.01 88.6674 3.52L90.6074 8H91.2674L93.1774 3.62C93.3874 3.14 93.5974 2.52 93.7774 1.93L93.8274 1.94C93.8074 2.53 93.7774 3.16 93.7774 3.72C93.7674 5.33 93.7574 6.52 93.7074 8H95.1974ZM32.7491 12.5C32.7791 13.21 32.7791 14.42 32.7791 16.25C32.7791 17.85 32.7491 19.37 32.7491 20H37.4691C37.4691 19.78 37.4591 19.56 37.4591 19.33C37.4591 19.11 37.4691 18.88 37.4691 18.66C36.4291 18.69 35.1591 18.69 34.2391 18.69C34.2391 18.05 34.2291 17.1 34.2291 16.23C34.2291 14.49 34.2491 13.09 34.2791 12.5H32.7491ZM40.1382 20C40.1082 18.91 40.1082 17.83 40.1082 16.24C40.1082 14.64 40.1082 13.56 40.1382 12.5H38.6182C38.6482 13.57 38.6482 14.65 38.6482 16.25C38.6482 17.84 38.6482 18.92 38.6182 20H40.1382ZM48.4657 15.97C47.7857 15.99 47.0657 15.98 46.5557 15.98C46.1057 15.98 45.4957 15.98 44.8857 15.96C44.8957 16.13 44.8957 16.33 44.8957 16.58C44.8957 16.69 44.8957 16.89 44.8857 16.99C45.4457 16.97 46.4057 16.97 47.0857 16.96C47.1157 18.37 46.6357 18.91 45.2957 18.91C43.8457 18.91 43.0857 18.05 43.0857 16.2C43.0857 14.3 43.8757 13.61 45.2557 13.61C46.4557 13.61 47.0457 14.09 47.0457 14.97C47.0457 15.04 47.0457 15.13 47.0357 15.22C47.2157 15.2 47.4857 15.2 47.7857 15.2C48.0557 15.2 48.3157 15.21 48.4857 15.22C48.4957 15.08 48.4957 14.97 48.4957 14.83C48.4957 13.57 47.5757 12.37 45.2657 12.37C42.8857 12.37 41.5957 13.75 41.5957 16.18C41.5957 18.6 42.8757 20.13 45.2357 20.13C48.0757 20.13 48.6457 18.64 48.4657 15.97ZM55.3802 12.5C55.4102 13.25 55.4202 14.68 55.4202 15.6C54.8602 15.61 54.1902 15.62 53.5502 15.62C52.9202 15.62 52.2502 15.61 51.6802 15.6C51.6802 14.68 51.6902 13.26 51.7202 12.5H50.1802C50.2202 13.5 50.2102 14.66 50.2102 16.25C50.2102 17.84 50.2202 18.92 50.1802 20H51.7202C51.6902 19.19 51.6802 17.82 51.6802 16.95C52.2502 16.94 52.9202 16.94 53.5502 16.94C54.1902 16.94 54.8602 16.94 55.4202 16.95C55.4202 17.82 55.4102 19.19 55.3802 20H56.9302C56.9002 18.92 56.8902 17.84 56.8902 16.25C56.8902 14.66 56.9002 13.5 56.9302 12.5H55.3802ZM58.0833 12.5V13.14V13.8C58.8733 13.79 59.6533 13.78 60.3233 13.78C60.3233 16.59 60.3233 19.39 60.2933 20.01C60.5133 19.99 60.8233 19.99 61.0333 19.99C61.2633 19.99 61.5833 19.99 61.7933 20.01C61.7633 19.38 61.7633 16.58 61.7633 13.78C62.4333 13.78 63.2133 13.79 63.9933 13.8V13.14V12.5H58.0833Z" fill="black"/>
</svg>
