<svg width="52" height="21" viewBox="0 0 52 21" fill="none" xmlns="http://www.w3.org/2000/svg">
<path d="M5.38121 0.499999C5.41121 1.25 5.42121 2.68 5.42121 3.6C4.86121 3.61 4.19121 3.62 3.55121 3.62C2.92121 3.62 2.25121 3.61 1.68121 3.6C1.68121 2.68 1.69121 1.26 1.72121 0.499999H0.181211C0.221211 1.5 0.211211 2.66 0.211211 4.25C0.211211 5.84 0.221211 6.92 0.181211 8H1.72121C1.69121 7.19 1.68121 5.82 1.68121 4.95C2.25121 4.94 2.92121 4.94 3.55121 4.94C4.19121 4.94 4.86121 4.94 5.42121 4.95C5.42121 5.82 5.41121 7.19 5.38121 8H6.93121C6.90121 6.92 6.89121 5.84 6.89121 4.25C6.89121 2.66 6.90121 1.5 6.93121 0.499999H5.38121ZM11.8143 5.18C11.4543 5.18 10.9443 5.18 10.4743 5.17C10.7543 4.37 11.0343 3.53 11.2743 2.84C11.5443 2.09 11.7043 1.61 11.8243 1.25C11.9443 1.6 12.1043 2.09 12.3743 2.79C12.6243 3.49 12.9143 4.35 13.1943 5.17C12.7143 5.18 12.1943 5.18 11.8143 5.18ZM15.8243 8C15.0343 6.15 13.3743 1.6 12.9643 0.499999H10.7243C10.3543 1.57 8.65426 6.25 7.92426 8H9.52426C9.62426 7.67 9.83426 7.03 10.0943 6.26C10.7043 6.26 11.3743 6.26 11.8143 6.26C12.3043 6.26 12.9443 6.26 13.5643 6.26C13.8343 7.06 14.0343 7.71 14.1043 8H15.8243ZM16.7246 0.499999C16.7546 1.21 16.7546 2.42 16.7546 4.25C16.7546 5.85 16.7246 7.37 16.7246 8H21.4446C21.4446 7.78 21.4346 7.56 21.4346 7.33C21.4346 7.11 21.4446 6.88 21.4446 6.66C20.4046 6.69 19.1346 6.69 18.2146 6.69C18.2146 6.05 18.2046 5.1 18.2046 4.23C18.2046 2.49 18.2246 1.09 18.2546 0.499999H16.7246ZM22.5938 0.499999C22.6238 1.21 22.6238 2.42 22.6238 4.25C22.6238 5.85 22.5938 7.37 22.5938 8H27.3138C27.3138 7.78 27.3038 7.56 27.3038 7.33C27.3038 7.11 27.3138 6.88 27.3138 6.66C26.2738 6.69 25.0038 6.69 24.0838 6.69C24.0838 6.05 24.0738 5.1 24.0738 4.23C24.0738 2.49 24.0938 1.09 24.1238 0.499999H22.5938ZM36.446 0.499999C36.326 1.28 35.786 3.6 35.436 5.24C35.276 5.89 35.176 6.4 35.096 6.79H35.036C34.956 6.4 34.856 5.88 34.696 5.22C34.296 3.52 33.846 1.31 33.696 0.499999C33.456 0.51 33.116 0.51 32.846 0.51C32.576 0.51 32.126 0.51 31.886 0.499999C31.756 1.34 31.216 3.6 30.876 5.19C30.726 5.83 30.606 6.35 30.516 6.75H30.466C30.386 6.36 30.276 5.85 30.126 5.21C29.756 3.55 29.206 1.12 29.116 0.499999H27.426C27.986 2.13 29.076 6.56 29.476 8C29.646 7.99 29.906 7.99 30.326 7.99C30.626 7.99 30.976 7.99 31.196 8C31.396 7.18 31.876 5.33 32.246 3.79C32.396 3.18 32.526 2.49 32.626 1.95H32.676C32.766 2.48 32.886 3.14 33.026 3.77C33.366 5.33 33.816 7.26 33.996 8C34.176 7.99 34.556 7.99 34.996 7.99C35.326 7.99 35.616 7.99 35.816 8C36.176 6.7 37.386 2.12 37.896 0.499999H36.446ZM41.4529 5.18C41.0929 5.18 40.5829 5.18 40.1129 5.17C40.3929 4.37 40.6729 3.53 40.9129 2.84C41.1829 2.09 41.3429 1.61 41.4629 1.25C41.5829 1.6 41.7429 2.09 42.0129 2.79C42.2629 3.49 42.5529 4.35 42.8329 5.17C42.3529 5.18 41.8329 5.18 41.4529 5.18ZM45.4629 8C44.6729 6.15 43.0129 1.6 42.6029 0.499999H40.3629C39.9929 1.57 38.2929 6.25 37.5629 8H39.1629C39.2629 7.67 39.4729 7.03 39.7329 6.26C40.3429 6.26 41.0129 6.26 41.4529 6.26C41.9429 6.26 42.5829 6.26 43.2029 6.26C43.4729 7.06 43.6729 7.71 43.7429 8H45.4629ZM50.1883 0.499999C50.0383 0.92 49.3583 2.27 48.9283 3.2C48.7083 3.64 48.5383 4.03 48.4183 4.33H48.3283C48.1983 4.02 48.0083 3.59 47.7983 3.15C47.3983 2.24 46.7583 0.94 46.5783 0.499999H44.7683C45.4883 1.58 47.0883 4.58 47.5883 5.69C47.5883 6.74 47.5783 7.68 47.5583 8.01C47.7683 7.99 48.0683 7.99 48.3183 7.99C48.5583 7.99 48.8583 7.99 49.0583 8.01C49.0583 7.68 49.0383 6.75 49.0383 5.7C49.5583 4.62 51.1283 1.67 51.8583 0.499999H50.1883ZM11.7491 12.5C11.7791 13.21 11.7791 14.42 11.7791 16.25C11.7791 17.85 11.7491 19.37 11.7491 20H16.4691C16.4691 19.78 16.4591 19.56 16.4591 19.33C16.4591 19.11 16.4691 18.88 16.4691 18.66C15.4291 18.69 14.1591 18.69 13.2391 18.69C13.2391 18.05 13.2291 17.1 13.2291 16.23C13.2291 14.49 13.2491 13.09 13.2791 12.5H11.7491ZM19.1382 20C19.1082 18.91 19.1082 17.83 19.1082 16.24C19.1082 14.64 19.1082 13.56 19.1382 12.5H17.6182C17.6482 13.57 17.6482 14.65 17.6482 16.25C17.6482 17.84 17.6482 18.92 17.6182 20H19.1382ZM27.4657 15.97C26.7857 15.99 26.0657 15.98 25.5557 15.98C25.1057 15.98 24.4957 15.98 23.8857 15.96C23.8957 16.13 23.8957 16.33 23.8957 16.58C23.8957 16.69 23.8957 16.89 23.8857 16.99C24.4457 16.97 25.4057 16.97 26.0857 16.96C26.1157 18.37 25.6357 18.91 24.2957 18.91C22.8457 18.91 22.0857 18.05 22.0857 16.2C22.0857 14.3 22.8757 13.61 24.2557 13.61C25.4557 13.61 26.0457 14.09 26.0457 14.97C26.0457 15.04 26.0457 15.13 26.0357 15.22C26.2157 15.2 26.4857 15.2 26.7857 15.2C27.0557 15.2 27.3157 15.21 27.4857 15.22C27.4957 15.08 27.4957 14.97 27.4957 14.83C27.4957 13.57 26.5757 12.37 24.2657 12.37C21.8857 12.37 20.5957 13.75 20.5957 16.18C20.5957 18.6 21.8757 20.13 24.2357 20.13C27.0757 20.13 27.6457 18.64 27.4657 15.97ZM34.3802 12.5C34.4102 13.25 34.4202 14.68 34.4202 15.6C33.8602 15.61 33.1902 15.62 32.5502 15.62C31.9202 15.62 31.2502 15.61 30.6802 15.6C30.6802 14.68 30.6902 13.26 30.7202 12.5H29.1802C29.2202 13.5 29.2102 14.66 29.2102 16.25C29.2102 17.84 29.2202 18.92 29.1802 20H30.7202C30.6902 19.19 30.6802 17.82 30.6802 16.95C31.2502 16.94 31.9202 16.94 32.5502 16.94C33.1902 16.94 33.8602 16.94 34.4202 16.95C34.4202 17.82 34.4102 19.19 34.3802 20H35.9302C35.9002 18.92 35.8902 17.84 35.8902 16.25C35.8902 14.66 35.9002 13.5 35.9302 12.5H34.3802ZM37.0833 12.5V13.14V13.8C37.8733 13.79 38.6533 13.78 39.3233 13.78C39.3233 16.59 39.3233 19.39 39.2933 20.01C39.5133 19.99 39.8233 19.99 40.0333 19.99C40.2633 19.99 40.5833 19.99 40.7933 20.01C40.7633 19.38 40.7633 16.58 40.7633 13.78C41.4333 13.78 42.2133 13.79 42.9933 13.8V13.14V12.5H37.0833Z" fill="black"/>
</svg>
