<svg width="8" height="5" viewBox="0 0 8 5" fill="none" xmlns="http://www.w3.org/2000/svg">
<path d="M2.15639 0.65C2.47305 0.65 2.74805 0.718333 2.98139 0.855C3.21805 0.991667 3.39972 1.18833 3.52639 1.445C3.65305 1.70167 3.71639 2.00333 3.71639 2.35C3.71639 2.69667 3.65305 2.99833 3.52639 3.255C3.39972 3.51167 3.21805 3.70833 2.98139 3.845C2.74805 3.98167 2.47305 4.05 2.15639 4.05C1.83972 4.05 1.56472 3.98167 1.33139 3.845C1.09805 3.70833 0.918053 3.51167 0.791387 3.255C0.66472 2.99833 0.601387 2.69667 0.601387 2.35C0.601387 2.00333 0.66472 1.70167 0.791387 1.445C0.918053 1.18833 1.09805 0.991667 1.33139 0.855C1.56472 0.718333 1.83972 0.65 2.15639 0.65ZM2.15639 1.115C1.84639 1.115 1.60305 1.22333 1.42639 1.44C1.24972 1.65667 1.16139 1.96 1.16139 2.35C1.16139 2.74 1.24972 3.04333 1.42639 3.26C1.60305 3.47667 1.84639 3.585 2.15639 3.585C2.46972 3.585 2.71472 3.47667 2.89139 3.26C3.06805 3.04333 3.15639 2.74 3.15639 2.35C3.15639 1.96 3.06805 1.65667 2.89139 1.44C2.71472 1.22333 2.46972 1.115 2.15639 1.115ZM7.21697 4H6.58197L5.30697 1.92L4.98697 1.31H4.98197L5.00197 1.87V4H4.51197V0.7H5.14197L6.41197 2.775L6.73697 3.39H6.74197L6.72197 2.83V0.7H7.21697V4Z" fill="black"/>
</svg>
