<svg width="10" height="5" viewBox="0 0 10 5" fill="none" xmlns="http://www.w3.org/2000/svg">
<path d="M1.94057 0.65C2.25723 0.65 2.53223 0.718333 2.76557 0.855C3.00223 0.991667 3.1839 1.18833 3.31057 1.445C3.43723 1.70167 3.50057 2.00333 3.50057 2.35C3.50057 2.69667 3.43723 2.99833 3.31057 3.255C3.1839 3.51167 3.00223 3.70833 2.76557 3.845C2.53223 3.98167 2.25723 4.05 1.94057 4.05C1.6239 4.05 1.3489 3.98167 1.11557 3.845C0.882233 3.70833 0.702233 3.51167 0.575566 3.255C0.4489 2.99833 0.385566 2.69667 0.385566 2.35C0.385566 2.00333 0.4489 1.70167 0.575566 1.445C0.702233 1.18833 0.882233 0.991667 1.11557 0.855C1.3489 0.718333 1.6239 0.65 1.94057 0.65ZM1.94057 1.115C1.63057 1.115 1.38723 1.22333 1.21057 1.44C1.0339 1.65667 0.945566 1.96 0.945566 2.35C0.945566 2.74 1.0339 3.04333 1.21057 3.26C1.38723 3.47667 1.63057 3.585 1.94057 3.585C2.2539 3.585 2.4989 3.47667 2.67557 3.26C2.85223 3.04333 2.94057 2.74 2.94057 2.35C2.94057 1.96 2.85223 1.65667 2.67557 1.44C2.4989 1.22333 2.2539 1.115 1.94057 1.115ZM4.83115 1.16V2.115H6.28115V2.58H4.83115V4H4.29615V0.7H6.68115V1.16H4.83115ZM7.88779 1.16V2.115H9.33779V2.58H7.88779V4H7.35279V0.7H9.73779V1.16H7.88779Z" fill="black"/>
</svg>
