<svg width="86" height="8" viewBox="0 0 86 8" fill="none" xmlns="http://www.w3.org/2000/svg">
<path d="M6.6082 5.25C6.4082 5.84333 6.06487 6.3 5.5782 6.62C5.0982 6.94 4.53154 7.1 3.8782 7.1C3.24487 7.1 2.69487 6.96333 2.2282 6.69C1.76154 6.41667 1.40154 6.02333 1.1482 5.51C0.89487 4.99667 0.768203 4.39333 0.768203 3.7C0.768203 3.00667 0.89487 2.40333 1.1482 1.89C1.40154 1.37667 1.76154 0.983333 2.2282 0.71C2.69487 0.436667 3.24154 0.3 3.8682 0.3C4.5282 0.3 5.08154 0.436667 5.5282 0.71C5.98154 0.983333 6.3082 1.38667 6.5082 1.92L5.4982 2.37C5.36487 1.97667 5.17154 1.69 4.9182 1.51C4.66487 1.32333 4.33487 1.23 3.9282 1.23C3.3082 1.23 2.81154 1.45 2.4382 1.89C2.07154 2.32333 1.8882 2.92667 1.8882 3.7C1.8882 4.48 2.06487 5.08667 2.4182 5.52C2.77154 5.95333 3.26154 6.17 3.8882 6.17C4.31487 6.17 4.67154 6.06333 4.9582 5.85C5.25154 5.63667 5.46154 5.32333 5.5882 4.91L6.6082 5.25ZM13.3841 0.4V7H12.3041V4.12H9.04414V7H7.97414V0.4H9.04414V3.2H12.3041V0.4H13.3841ZM19.0674 5.27H16.2874L15.6574 7H14.5574L17.0474 0.4H18.3274L20.8174 7H19.6874L19.0674 5.27ZM18.7474 4.4L17.9874 2.28L17.6874 1.33H17.6574L17.3774 2.26L16.5974 4.4H18.7474ZM27.3978 7H26.1278L23.5778 2.84L22.9378 1.62H22.9278L22.9678 2.74V7H21.9878V0.4H23.2478L25.7878 4.55L26.4378 5.78H26.4478L26.4078 4.66V0.4H27.3978V7ZM34.8811 3.59V7H34.0911L34.0611 6.16C33.8678 6.46 33.6011 6.69333 33.2611 6.86C32.9211 7.02 32.5144 7.1 32.0411 7.1C31.4278 7.1 30.8911 6.96333 30.4311 6.69C29.9711 6.41667 29.6144 6.02667 29.3611 5.52C29.1078 5.00667 28.9811 4.4 28.9811 3.7C28.9811 3.00667 29.1111 2.40667 29.3711 1.9C29.6311 1.38667 29.9978 0.993333 30.4711 0.72C30.9444 0.44 31.4944 0.3 32.1211 0.3C32.8011 0.3 33.3611 0.426666 33.8011 0.68C34.2411 0.933333 34.5878 1.32667 34.8411 1.86L33.8611 2.33C33.7344 1.97 33.5211 1.69667 33.2211 1.51C32.9211 1.32333 32.5611 1.23 32.1411 1.23C31.5144 1.23 31.0178 1.44667 30.6511 1.88C30.2844 2.31333 30.1011 2.92 30.1011 3.7C30.1011 4.49333 30.2744 5.10667 30.6211 5.54C30.9744 5.96667 31.4878 6.18 32.1611 6.18C32.6878 6.18 33.1144 6.05 33.4411 5.79C33.7678 5.53 33.9311 5.15333 33.9311 4.66V4.47H31.9111V3.59H34.8811ZM41.5074 6.08V7H36.5874V0.4H41.3674V1.32H37.6574V3.22H40.5574V4.12H37.6574V6.08H41.5074ZM51.6668 5.25C51.4668 5.84333 51.1235 6.3 50.6368 6.62C50.1568 6.94 49.5901 7.1 48.9368 7.1C48.3035 7.1 47.7535 6.96333 47.2868 6.69C46.8201 6.41667 46.4601 6.02333 46.2068 5.51C45.9535 4.99667 45.8268 4.39333 45.8268 3.7C45.8268 3.00667 45.9535 2.40333 46.2068 1.89C46.4601 1.37667 46.8201 0.983333 47.2868 0.71C47.7535 0.436667 48.3001 0.3 48.9268 0.3C49.5868 0.3 50.1401 0.436667 50.5868 0.71C51.0401 0.983333 51.3668 1.38667 51.5668 1.92L50.5568 2.37C50.4235 1.97667 50.2301 1.69 49.9768 1.51C49.7235 1.32333 49.3935 1.23 48.9868 1.23C48.3668 1.23 47.8701 1.45 47.4968 1.89C47.1301 2.32333 46.9468 2.92667 46.9468 3.7C46.9468 4.48 47.1235 5.08667 47.4768 5.52C47.8301 5.95333 48.3201 6.17 48.9468 6.17C49.3735 6.17 49.7301 6.06333 50.0168 5.85C50.3101 5.63667 50.5201 5.32333 50.6468 4.91L51.6668 5.25ZM55.7727 0.3C56.4061 0.3 56.9561 0.436667 57.4227 0.71C57.8961 0.983333 58.2594 1.37667 58.5127 1.89C58.7661 2.40333 58.8927 3.00667 58.8927 3.7C58.8927 4.39333 58.7661 4.99667 58.5127 5.51C58.2594 6.02333 57.8961 6.41667 57.4227 6.69C56.9561 6.96333 56.4061 7.1 55.7727 7.1C55.1394 7.1 54.5894 6.96333 54.1227 6.69C53.6561 6.41667 53.2961 6.02333 53.0427 5.51C52.7894 4.99667 52.6627 4.39333 52.6627 3.7C52.6627 3.00667 52.7894 2.40333 53.0427 1.89C53.2961 1.37667 53.6561 0.983333 54.1227 0.71C54.5894 0.436667 55.1394 0.3 55.7727 0.3ZM55.7727 1.23C55.1527 1.23 54.6661 1.44667 54.3127 1.88C53.9594 2.31333 53.7827 2.92 53.7827 3.7C53.7827 4.48 53.9594 5.08667 54.3127 5.52C54.6661 5.95333 55.1527 6.17 55.7727 6.17C56.3994 6.17 56.8894 5.95333 57.2427 5.52C57.5961 5.08667 57.7727 4.48 57.7727 3.7C57.7727 2.92 57.5961 2.31333 57.2427 1.88C56.8894 1.44667 56.3994 1.23 55.7727 1.23ZM65.1939 6.08V7H60.4839V0.4H61.5539V6.08H65.1939ZM68.9759 0.3C69.6092 0.3 70.1592 0.436667 70.6259 0.71C71.0992 0.983333 71.4625 1.37667 71.7159 1.89C71.9692 2.40333 72.0959 3.00667 72.0959 3.7C72.0959 4.39333 71.9692 4.99667 71.7159 5.51C71.4625 6.02333 71.0992 6.41667 70.6259 6.69C70.1592 6.96333 69.6092 7.1 68.9759 7.1C68.3425 7.1 67.7925 6.96333 67.3259 6.69C66.8592 6.41667 66.4992 6.02333 66.2459 5.51C65.9925 4.99667 65.8659 4.39333 65.8659 3.7C65.8659 3.00667 65.9925 2.40333 66.2459 1.89C66.4992 1.37667 66.8592 0.983333 67.3259 0.71C67.7925 0.436667 68.3425 0.3 68.9759 0.3ZM68.9759 1.23C68.3559 1.23 67.8692 1.44667 67.5159 1.88C67.1625 2.31333 66.9859 2.92 66.9859 3.7C66.9859 4.48 67.1625 5.08667 67.5159 5.52C67.8692 5.95333 68.3559 6.17 68.9759 6.17C69.6025 6.17 70.0925 5.95333 70.4459 5.52C70.7992 5.08667 70.9759 4.48 70.9759 3.7C70.9759 2.92 70.7992 2.31333 70.4459 1.88C70.0925 1.44667 69.6025 1.23 68.9759 1.23ZM76.167 4.36H74.747V7H73.687V0.4H76.377C77.0904 0.4 77.6537 0.576666 78.067 0.929999C78.4804 1.27667 78.687 1.76 78.687 2.38C78.687 2.85333 78.5637 3.25 78.317 3.57C78.077 3.88333 77.7337 4.10667 77.287 4.24L79.077 7H77.847L76.167 4.36ZM74.747 3.47H76.287C76.7204 3.47 77.0437 3.38333 77.257 3.21C77.4704 3.03 77.577 2.75667 77.577 2.39C77.577 2.02333 77.4704 1.75333 77.257 1.58C77.0437 1.4 76.7204 1.31 76.287 1.31H74.747V3.47ZM82.6558 0.3C83.2624 0.3 83.7791 0.41 84.2058 0.63C84.6391 0.85 85.0024 1.18667 85.2958 1.64L84.4858 2.37C84.2991 1.97 84.0658 1.68 83.7858 1.5C83.5058 1.32 83.1324 1.23 82.6658 1.23C82.2058 1.23 81.8491 1.32333 81.5958 1.51C81.3424 1.69 81.2158 1.92333 81.2158 2.21C81.2158 2.47667 81.3391 2.69 81.5858 2.85C81.8324 3.00333 82.2724 3.13667 82.9058 3.25C83.4991 3.35667 83.9691 3.49333 84.3158 3.66C84.6691 3.82 84.9258 4.02333 85.0858 4.27C85.2458 4.51 85.3258 4.81 85.3258 5.17C85.3258 5.55667 85.2158 5.89667 84.9958 6.19C84.7758 6.48333 84.4658 6.71 84.0658 6.87C83.6724 7.02333 83.2158 7.1 82.6958 7.1C81.3558 7.1 80.4091 6.65333 79.8558 5.76L80.6058 5.01C80.8191 5.41 81.0924 5.70333 81.4258 5.89C81.7658 6.07667 82.1858 6.17 82.6858 6.17C83.1591 6.17 83.5291 6.09 83.7958 5.93C84.0691 5.76333 84.2058 5.53 84.2058 5.23C84.2058 4.99 84.0824 4.79667 83.8358 4.65C83.5958 4.50333 83.1724 4.37333 82.5658 4.26C81.9591 4.14667 81.4758 4.00667 81.1158 3.84C80.7558 3.67333 80.4924 3.46667 80.3258 3.22C80.1658 2.97333 80.0858 2.67333 80.0858 2.32C80.0858 1.94667 80.1891 1.60667 80.3958 1.3C80.6024 0.993333 80.8991 0.75 81.2858 0.57C81.6791 0.39 82.1358 0.3 82.6558 0.3Z" fill="#EAFC38"/>
</svg>
