<svg width="88" height="9" viewBox="0 0 88 9" fill="none" xmlns="http://www.w3.org/2000/svg">
<path d="M6.32027 5.47C6.32027 6.33667 6.09027 6.99333 5.63027 7.44C5.17027 7.88 4.50027 8.1 3.62027 8.1C2.74027 8.1 2.07027 7.88 1.61027 7.44C1.15027 6.99333 0.920273 6.33667 0.920273 5.47V1.4H2.00027V5.34C2.00027 5.96667 2.13027 6.43 2.39027 6.73C2.65694 7.02333 3.06694 7.17 3.62027 7.17C4.17361 7.17 4.58027 7.02333 4.84027 6.73C5.10694 6.43 5.24027 5.96667 5.24027 5.34V1.4H6.32027V5.47ZM13.598 8H12.328L9.77801 3.84L9.13801 2.62H9.12801L9.16801 3.74V8H8.18801V1.4H9.44801L11.988 5.55L12.638 6.78H12.648L12.608 5.66V1.4H13.598V8ZM21.0813 4.59V8H20.2913L20.2613 7.16C20.068 7.46 19.8013 7.69333 19.4613 7.86C19.1213 8.02 18.7146 8.1 18.2413 8.1C17.628 8.1 17.0913 7.96333 16.6313 7.69C16.1713 7.41667 15.8146 7.02667 15.5613 6.52C15.308 6.00667 15.1813 5.4 15.1813 4.7C15.1813 4.00667 15.3113 3.40667 15.5713 2.9C15.8313 2.38667 16.198 1.99333 16.6713 1.72C17.1446 1.44 17.6946 1.3 18.3213 1.3C19.0013 1.3 19.5613 1.42667 20.0013 1.68C20.4413 1.93333 20.788 2.32667 21.0413 2.86L20.0613 3.33C19.9346 2.97 19.7213 2.69667 19.4213 2.51C19.1213 2.32333 18.7613 2.23 18.3413 2.23C17.7146 2.23 17.218 2.44667 16.8513 2.88C16.4846 3.31333 16.3013 3.92 16.3013 4.7C16.3013 5.49333 16.4746 6.10667 16.8213 6.54C17.1746 6.96667 17.688 7.18 18.3613 7.18C18.888 7.18 19.3146 7.05 19.6413 6.79C19.968 6.53 20.1313 6.15333 20.1313 5.66V5.47H18.1113V4.59H21.0813ZM25.2676 5.36H23.8476V8H22.7876V1.4H25.4776C26.191 1.4 26.7543 1.57667 27.1676 1.93C27.581 2.27667 27.7876 2.76 27.7876 3.38C27.7876 3.85333 27.6643 4.25 27.4176 4.57C27.1776 4.88333 26.8343 5.10667 26.3876 5.24L28.1776 8H26.9476L25.2676 5.36ZM23.8476 4.47H25.3876C25.821 4.47 26.1443 4.38333 26.3576 4.21C26.571 4.03 26.6776 3.75667 26.6776 3.39C26.6776 3.02333 26.571 2.75333 26.3576 2.58C26.1443 2.4 25.821 2.31 25.3876 2.31H23.8476V4.47ZM32.1878 1.3C32.8211 1.3 33.3711 1.43667 33.8378 1.71C34.3111 1.98333 34.6744 2.37667 34.9278 2.89C35.1811 3.40333 35.3078 4.00667 35.3078 4.7C35.3078 5.39333 35.1811 5.99667 34.9278 6.51C34.6744 7.02333 34.3111 7.41667 33.8378 7.69C33.3711 7.96333 32.8211 8.1 32.1878 8.1C31.5544 8.1 31.0044 7.96333 30.5378 7.69C30.0711 7.41667 29.7111 7.02333 29.4578 6.51C29.2044 5.99667 29.0778 5.39333 29.0778 4.7C29.0778 4.00667 29.2044 3.40333 29.4578 2.89C29.7111 2.37667 30.0711 1.98333 30.5378 1.71C31.0044 1.43667 31.5544 1.3 32.1878 1.3ZM32.1878 2.23C31.5678 2.23 31.0811 2.44667 30.7278 2.88C30.3744 3.31333 30.1978 3.92 30.1978 4.7C30.1978 5.48 30.3744 6.08667 30.7278 6.52C31.0811 6.95333 31.5678 7.17 32.1878 7.17C32.8144 7.17 33.3044 6.95333 33.6578 6.52C34.0111 6.08667 34.1878 5.48 34.1878 4.7C34.1878 3.92 34.0111 3.31333 33.6578 2.88C33.3044 2.44667 32.8144 2.23 32.1878 2.23ZM42.2089 5.47C42.2089 6.33667 41.9789 6.99333 41.5189 7.44C41.0589 7.88 40.3889 8.1 39.5089 8.1C38.6289 8.1 37.9589 7.88 37.4989 7.44C37.0389 6.99333 36.8089 6.33667 36.8089 5.47V1.4H37.8889V5.34C37.8889 5.96667 38.0189 6.43 38.2789 6.73C38.5456 7.02333 38.9556 7.17 39.5089 7.17C40.0623 7.17 40.4689 7.02333 40.7289 6.73C40.9956 6.43 41.1289 5.96667 41.1289 5.34V1.4H42.2089V5.47ZM46.6167 1.4C47.33 1.4 47.8933 1.58333 48.3067 1.95C48.7267 2.31667 48.9367 2.82 48.9367 3.46C48.9367 4.1 48.7267 4.60333 48.3067 4.97C47.8933 5.33 47.33 5.51 46.6167 5.51H45.1467V8H44.0767V1.4H46.6167ZM46.4467 4.6C46.9133 4.6 47.26 4.50667 47.4867 4.32C47.7133 4.12667 47.8267 3.84 47.8267 3.46C47.8267 2.69333 47.3667 2.31 46.4467 2.31H45.1467V4.6H46.4467ZM50.1375 8.7H49.1375L52.1175 0.75H53.1175L50.1375 8.7ZM59.6848 4.59V8H58.8948L58.8648 7.16C58.6715 7.46 58.4048 7.69333 58.0648 7.86C57.7248 8.02 57.3181 8.1 56.8448 8.1C56.2315 8.1 55.6948 7.96333 55.2348 7.69C54.7748 7.41667 54.4181 7.02667 54.1648 6.52C53.9115 6.00667 53.7848 5.4 53.7848 4.7C53.7848 4.00667 53.9148 3.40667 54.1748 2.9C54.4348 2.38667 54.8015 1.99333 55.2748 1.72C55.7481 1.44 56.2981 1.3 56.9248 1.3C57.6048 1.3 58.1648 1.42667 58.6048 1.68C59.0448 1.93333 59.3915 2.32667 59.6448 2.86L58.6648 3.33C58.5381 2.97 58.3248 2.69667 58.0248 2.51C57.7248 2.32333 57.3648 2.23 56.9448 2.23C56.3181 2.23 55.8215 2.44667 55.4548 2.88C55.0881 3.31333 54.9048 3.92 54.9048 4.7C54.9048 5.49333 55.0781 6.10667 55.4248 6.54C55.7781 6.96667 56.2915 7.18 56.9648 7.18C57.4915 7.18 57.9181 7.05 58.2448 6.79C58.5715 6.53 58.7348 6.15333 58.7348 5.66V5.47H56.7148V4.59H59.6848ZM63.8711 5.36H62.4511V8H61.3911V1.4H64.0811C64.7945 1.4 65.3578 1.57667 65.7711 1.93C66.1845 2.27667 66.3911 2.76 66.3911 3.38C66.3911 3.85333 66.2678 4.25 66.0211 4.57C65.7811 4.88333 65.4378 5.10667 64.9911 5.24L66.7811 8H65.5511L63.8711 5.36ZM62.4511 4.47H63.9911C64.4245 4.47 64.7478 4.38333 64.9611 4.21C65.1745 4.03 65.2811 3.75667 65.2811 3.39C65.2811 3.02333 65.1745 2.75333 64.9611 2.58C64.7478 2.4 64.4245 2.31 63.9911 2.31H62.4511V4.47ZM70.7913 1.3C71.4246 1.3 71.9746 1.43667 72.4413 1.71C72.9146 1.98333 73.278 2.37667 73.5313 2.89C73.7846 3.40333 73.9113 4.00667 73.9113 4.7C73.9113 5.39333 73.7846 5.99667 73.5313 6.51C73.278 7.02333 72.9146 7.41667 72.4413 7.69C71.9746 7.96333 71.4246 8.1 70.7913 8.1C70.158 8.1 69.608 7.96333 69.1413 7.69C68.6746 7.41667 68.3146 7.02333 68.0613 6.51C67.808 5.99667 67.6813 5.39333 67.6813 4.7C67.6813 4.00667 67.808 3.40333 68.0613 2.89C68.3146 2.37667 68.6746 1.98333 69.1413 1.71C69.608 1.43667 70.158 1.3 70.7913 1.3ZM70.7913 2.23C70.1713 2.23 69.6846 2.44667 69.3313 2.88C68.978 3.31333 68.8013 3.92 68.8013 4.7C68.8013 5.48 68.978 6.08667 69.3313 6.52C69.6846 6.95333 70.1713 7.17 70.7913 7.17C71.418 7.17 71.908 6.95333 72.2613 6.52C72.6146 6.08667 72.7913 5.48 72.7913 4.7C72.7913 3.92 72.6146 3.31333 72.2613 2.88C71.908 2.44667 71.418 2.23 70.7913 2.23ZM80.8125 5.47C80.8125 6.33667 80.5825 6.99333 80.1225 7.44C79.6625 7.88 78.9925 8.1 78.1125 8.1C77.2325 8.1 76.5625 7.88 76.1025 7.44C75.6425 6.99333 75.4125 6.33667 75.4125 5.47V1.4H76.4925V5.34C76.4925 5.96667 76.6225 6.43 76.8825 6.73C77.1491 7.02333 77.5591 7.17 78.1125 7.17C78.6658 7.17 79.0725 7.02333 79.3325 6.73C79.5991 6.43 79.7325 5.96667 79.7325 5.34V1.4H80.8125V5.47ZM85.2202 1.4C85.9335 1.4 86.4969 1.58333 86.9102 1.95C87.3302 2.31667 87.5402 2.82 87.5402 3.46C87.5402 4.1 87.3302 4.60333 86.9102 4.97C86.4969 5.33 85.9335 5.51 85.2202 5.51H83.7502V8H82.6802V1.4H85.2202ZM85.0502 4.6C85.5169 4.6 85.8635 4.50667 86.0902 4.32C86.3169 4.12667 86.4302 3.84 86.4302 3.46C86.4302 2.69333 85.9702 2.31 85.0502 2.31H83.7502V4.6H85.0502Z" fill="#EAFC38"/>
</svg>
