<svg width="88" height="21" viewBox="0 0 88 21" fill="none" xmlns="http://www.w3.org/2000/svg">
<path d="M0.682656 0.499999C0.712656 1.21 0.712656 2.42 0.712656 4.25C0.712656 5.85 0.682656 7.37 0.682656 8H5.40266C5.40266 7.78 5.39266 7.56 5.39266 7.33C5.39266 7.11 5.40266 6.88 5.40266 6.66C4.36266 6.69 3.09266 6.69 2.17266 6.69C2.17266 6.05 2.16266 5.1 2.16266 4.23C2.16266 2.49 2.18266 1.09 2.21266 0.499999H0.682656ZM6.5218 0.499999C6.5518 1.39 6.5518 2.66 6.5518 4.25C6.5518 5.85 6.5518 7.05 6.5218 8H12.2918C12.2818 7.84 12.2818 7.56 12.2818 7.38C12.2818 7.15 12.2818 6.85 12.2918 6.69C10.8518 6.7 9.1918 6.71 8.0018 6.71V4.78C9.4218 4.78 11.0118 4.78 12.1918 4.8C12.1918 4.53 12.1918 3.88 12.2018 3.61C11.0018 3.64 9.4418 3.64 8.0018 3.64V1.74C9.1918 1.74 10.8018 1.75 12.2918 1.76C12.2818 1.61 12.2818 1.3 12.2818 1.09C12.2818 0.9 12.2818 0.63 12.2918 0.499999H6.5218ZM13.973 0.499999C14.003 1.52 14.003 2.66 14.003 4.25C14.003 5.84 13.993 6.98 13.973 8H15.513C15.483 7.3 15.473 6.3 15.463 5.36C16.913 5.36 18.363 5.38 19.593 5.37C19.593 5.07 19.593 4.47 19.613 4.15C18.363 4.17 16.923 4.18 15.453 4.18V4.04C15.453 3.41 15.453 2.52 15.463 1.78C16.663 1.78 18.163 1.79 19.683 1.8C19.683 1.6 19.673 1.34 19.673 1.1C19.673 0.9 19.683 0.66 19.683 0.499999H13.973ZM20.4212 0.499999V1.14V1.8C21.2112 1.79 21.9912 1.78 22.6612 1.78C22.6612 4.59 22.6612 7.39 22.6312 8.01C22.8512 7.99 23.1612 7.99 23.3712 7.99C23.6012 7.99 23.9212 7.99 24.1312 8.01C24.1012 7.38 24.1012 4.58 24.1012 1.78C24.7712 1.78 25.5512 1.79 26.3312 1.8V1.14V0.499999H20.4212ZM33.8588 6.8C33.3288 6.8 32.6888 6.8 31.9188 6.78C31.8988 6.17 31.8988 5.43 31.8988 4.69C32.5788 4.68 33.2688 4.67 33.8088 4.67C34.9888 4.67 35.4588 4.97 35.4588 5.71C35.4588 6.55 35.0288 6.8 33.8588 6.8ZM35.3688 2.59C35.3688 3.33 34.9088 3.7 33.7888 3.71C33.2488 3.71 32.5988 3.72 31.8988 3.69C31.8988 2.94 31.8988 2.2 31.9088 1.64C32.6088 1.62 33.2588 1.61 33.8288 1.61C34.9188 1.61 35.3688 1.85 35.3688 2.59ZM35.0688 4.2C35.4388 4.16 35.7488 4.1 35.9688 3.99C36.5388 3.7 36.8088 3.26 36.8088 2.44C36.8088 1.06 35.9488 0.499999 34.1588 0.499999H30.3988C30.4488 1.48 30.4588 2.66 30.4588 4.25C30.4588 5.84 30.4488 6.97 30.3988 8H34.2788C36.0388 8 36.9088 7.35 36.9088 5.98C36.9088 5.15 36.5788 4.64 35.8788 4.39C35.6688 4.32 35.3988 4.28 35.0688 4.25V4.2ZM38.4554 0.499999C38.4854 1.39 38.4854 2.66 38.4854 4.25C38.4854 5.85 38.4854 7.05 38.4554 8H44.2254C44.2154 7.84 44.2154 7.56 44.2154 7.38C44.2154 7.15 44.2154 6.85 44.2254 6.69C42.7854 6.7 41.1254 6.71 39.9354 6.71V4.78C41.3554 4.78 42.9454 4.78 44.1254 4.8C44.1254 4.53 44.1254 3.88 44.1354 3.61C42.9354 3.64 41.3754 3.64 39.9354 3.64V1.74C41.1254 1.74 42.7354 1.75 44.2254 1.76C44.2154 1.61 44.2154 1.3 44.2154 1.09C44.2154 0.9 44.2154 0.63 44.2254 0.499999H38.4554ZM48.8266 6.72C48.2866 6.72 47.9066 6.72 47.4066 6.69C47.3966 6.15 47.3966 5.44 47.3966 4.3C47.3966 3.45 47.4066 2.56 47.4166 1.81C47.8666 1.79 48.3466 1.78 48.8666 1.78C50.3866 1.78 51.1066 2.27 51.1066 4.19C51.1066 6.17 50.3766 6.72 48.8266 6.72ZM45.9066 0.499999C45.9366 1.42 45.9366 2.67 45.9366 4.26C45.9366 5.85 45.9366 6.97 45.9066 8H48.8366C51.4766 8 52.5666 6.85 52.5666 4.16C52.5666 1.46 51.3966 0.499999 48.8666 0.499999H45.9066ZM55.5509 4.25C55.5409 3.44 55.5509 2.58 55.5509 1.72C56.0809 1.7 56.9809 1.69 57.3309 1.69C58.4809 1.69 58.9809 1.99 58.9809 2.99C58.9809 3.79 58.4909 4.28 57.5109 4.28C56.6709 4.27 55.9009 4.26 55.5509 4.25ZM58.6209 4.94C59.8709 4.73 60.4109 4.02 60.4109 2.78C60.4109 1.24 59.3909 0.499999 57.6309 0.499999H54.1009C54.1209 1.58 54.1309 2.66 54.1309 4.25C54.1309 5.85 54.1109 6.91 54.1009 8H55.6509C55.6009 7.37 55.5709 6.45 55.5609 5.39C56.4409 5.39 56.8009 5.38 57.4309 5.38C58.3609 5.38 58.5409 5.71 58.9909 7.25C59.1709 7.91 59.2009 8 59.4709 8H60.8809C60.7509 7.69 60.5609 7.12 60.3309 6.44C59.9709 5.39 59.6309 5.11 58.6209 4.98V4.94ZM68.9798 4.17C68.9798 1.62 67.4798 0.359999 65.2798 0.359999C63.0898 0.359999 61.5998 1.62 61.5998 4.17C61.5998 6.72 63.0098 8.14 65.2798 8.14C67.5498 8.14 68.9798 6.72 68.9798 4.17ZM65.2898 6.82C63.8998 6.82 63.0798 5.93 63.0798 4.22C63.0798 2.5 63.8998 1.67 65.2898 1.67C66.6698 1.67 67.4798 2.52 67.4798 4.22C67.4798 5.92 66.6798 6.82 65.2898 6.82ZM77.388 4.17C77.388 1.62 75.888 0.359999 73.688 0.359999C71.498 0.359999 70.008 1.62 70.008 4.17C70.008 6.72 71.418 8.14 73.688 8.14C75.958 8.14 77.388 6.72 77.388 4.17ZM73.698 6.82C72.308 6.82 71.488 5.93 71.488 4.22C71.488 2.5 72.308 1.67 73.698 1.67C75.078 1.67 75.888 2.52 75.888 4.22C75.888 5.92 75.088 6.82 73.698 6.82ZM87.2863 8C87.2463 6.92 87.2363 5.83 87.2363 4.24C87.2363 2.6 87.2463 1.48 87.2763 0.499999H85.5163C85.1763 1.25 84.4363 2.99 83.7163 4.66C83.5363 5.05 83.3463 5.53 83.1763 5.99H83.1363C82.9663 5.51 82.7663 5 82.6063 4.64C81.8563 2.95 81.1263 1.22 80.7963 0.499999H78.8863C78.9063 1.48 78.9063 2.6 78.9063 4.24C78.9063 5.83 78.9063 6.92 78.8763 8H80.2063C80.1763 6.5 80.1563 5.41 80.1563 3.78C80.1463 3.17 80.1063 2.52 80.0863 1.89L80.1463 1.88C80.3263 2.42 80.5363 3.01 80.7563 3.52L82.6963 8H83.3563L85.2663 3.62C85.4763 3.14 85.6863 2.52 85.8663 1.93L85.9163 1.94C85.8963 2.53 85.8663 3.16 85.8663 3.72C85.8563 5.33 85.8463 6.52 85.7963 8H87.2863ZM28.7491 12.5C28.7791 13.21 28.7791 14.42 28.7791 16.25C28.7791 17.85 28.7491 19.37 28.7491 20H33.4691C33.4691 19.78 33.4591 19.56 33.4591 19.33C33.4591 19.11 33.4691 18.88 33.4691 18.66C32.4291 18.69 31.1591 18.69 30.2391 18.69C30.2391 18.05 30.2291 17.1 30.2291 16.23C30.2291 14.49 30.2491 13.09 30.2791 12.5H28.7491ZM36.1382 20C36.1082 18.91 36.1082 17.83 36.1082 16.24C36.1082 14.64 36.1082 13.56 36.1382 12.5H34.6182C34.6482 13.57 34.6482 14.65 34.6482 16.25C34.6482 17.84 34.6482 18.92 34.6182 20H36.1382ZM44.4657 15.97C43.7857 15.99 43.0657 15.98 42.5557 15.98C42.1057 15.98 41.4957 15.98 40.8857 15.96C40.8957 16.13 40.8957 16.33 40.8957 16.58C40.8957 16.69 40.8957 16.89 40.8857 16.99C41.4457 16.97 42.4057 16.97 43.0857 16.96C43.1157 18.37 42.6357 18.91 41.2957 18.91C39.8457 18.91 39.0857 18.05 39.0857 16.2C39.0857 14.3 39.8757 13.61 41.2557 13.61C42.4557 13.61 43.0457 14.09 43.0457 14.97C43.0457 15.04 43.0457 15.13 43.0357 15.22C43.2157 15.2 43.4857 15.2 43.7857 15.2C44.0557 15.2 44.3157 15.21 44.4857 15.22C44.4957 15.08 44.4957 14.97 44.4957 14.83C44.4957 13.57 43.5757 12.37 41.2657 12.37C38.8857 12.37 37.5957 13.75 37.5957 16.18C37.5957 18.6 38.8757 20.13 41.2357 20.13C44.0757 20.13 44.6457 18.64 44.4657 15.97ZM51.3802 12.5C51.4102 13.25 51.4202 14.68 51.4202 15.6C50.8602 15.61 50.1902 15.62 49.5502 15.62C48.9202 15.62 48.2502 15.61 47.6802 15.6C47.6802 14.68 47.6902 13.26 47.7202 12.5H46.1802C46.2202 13.5 46.2102 14.66 46.2102 16.25C46.2102 17.84 46.2202 18.92 46.1802 20H47.7202C47.6902 19.19 47.6802 17.82 47.6802 16.95C48.2502 16.94 48.9202 16.94 49.5502 16.94C50.1902 16.94 50.8602 16.94 51.4202 16.95C51.4202 17.82 51.4102 19.19 51.3802 20H52.9302C52.9002 18.92 52.8902 17.84 52.8902 16.25C52.8902 14.66 52.9002 13.5 52.9302 12.5H51.3802ZM54.0833 12.5V13.14V13.8C54.8733 13.79 55.6533 13.78 56.3233 13.78C56.3233 16.59 56.3233 19.39 56.2933 20.01C56.5133 19.99 56.8233 19.99 57.0333 19.99C57.2633 19.99 57.5833 19.99 57.7933 20.01C57.7633 19.38 57.7633 16.58 57.7633 13.78C58.4333 13.78 59.2133 13.79 59.9933 13.8V13.14V12.5H54.0833Z" fill="black"/>
</svg>
