<svg width="25" height="38" viewBox="0 0 25 38" fill="none" xmlns="http://www.w3.org/2000/svg">
<path d="M16.5338 18.9931C19.3615 21.7085 22.1625 24.3991 25 27.1239C24.8603 27.2696 24.7581 27.3827 24.6478 27.489C21.1165 30.8927 17.5825 34.2946 14.0566 37.7043C13.8405 37.9134 13.6279 38.0129 13.3192 37.9983C12.8193 37.9751 12.3185 37.9923 11.7671 37.9923C11.7671 33.2044 11.7671 28.4593 11.7671 23.6748C8.75169 26.5805 5.78257 29.4424 2.85081 32.2675C1.87682 31.329 0.960649 30.447 0.0373586 29.5573C3.63268 26.0928 7.28759 22.5717 10.9567 19.036C7.26624 15.4789 3.61489 11.9604 0 8.47787C0.948196 7.56503 1.85637 6.69161 2.79122 5.79163C5.70341 8.59873 8.67875 11.4667 11.655 14.3346C11.6897 14.3166 11.7244 14.2995 11.7591 14.2815C11.7591 9.53728 11.7591 4.79307 11.7591 0.00171426C12.4111 0.00171426 13.0141 -0.00514278 13.6163 0.0085713C13.7159 0.0111427 13.8325 0.0899986 13.9098 0.164569C17.5603 3.67623 21.2063 7.19132 24.8532 10.7064C24.8933 10.745 24.9226 10.7947 24.9822 10.871C22.1688 13.5752 19.3606 16.276 16.5338 18.9931ZM19.2245 27.2036C18.0691 26.0893 16.879 24.9408 15.7538 23.8556C15.7538 26.0182 15.7538 28.2999 15.7538 30.5918C16.9563 29.4184 18.1349 28.2673 19.2245 27.2036ZM15.7502 7.4236C15.7502 9.707 15.7502 11.9921 15.7502 14.2729C16.9537 13.1004 18.1411 11.9424 19.2841 10.8281C18.1394 9.72585 16.951 8.58073 15.7502 7.4236Z" fill="black"/>
</svg>
