<svg width="237" height="36" viewBox="0 0 237 36" fill="none" xmlns="http://www.w3.org/2000/svg">
<path d="M45.9833 0.999999C45.9953 1.336 45.9953 1.852 45.9953 2.32C45.9953 2.764 45.9953 3.328 45.9833 3.688C46.7033 3.676 47.4113 3.664 48.0593 3.664C48.0593 6.568 48.0473 9.364 48.0113 10.012C48.4433 9.976 49.1033 9.976 49.5833 9.976C50.0633 9.976 50.7473 9.976 51.1673 10.012C51.1313 9.364 51.1193 6.556 51.1193 3.664C51.7673 3.664 52.4753 3.676 53.1833 3.688C53.1713 3.328 53.1713 2.764 53.1713 2.32C53.1713 1.852 53.1713 1.336 53.1833 0.999999H45.9833ZM59.8528 0.999999C59.8768 2.416 59.9008 4.816 59.9008 6.184C59.9008 7.24 59.5288 7.696 58.5688 7.696C57.5728 7.696 57.1408 7.24 57.1408 6.184C57.1408 4.816 57.1528 2.416 57.2008 0.999999H54.1408C54.1648 1.78 54.1888 2.548 54.1888 3.712C54.1888 4.432 54.1648 5.56 54.1648 6.4C54.1648 8.824 55.2688 10.168 58.4968 10.168C61.7248 10.168 62.8168 8.824 62.8168 6.4C62.8168 5.56 62.7928 4.432 62.7928 3.712C62.7928 2.548 62.8168 1.78 62.8408 0.999999H59.8528ZM68.7041 5.344C68.1161 5.332 67.5881 5.332 67.2521 5.32C67.2401 4.576 67.2401 3.796 67.2401 3.016C67.7081 3.004 68.2961 2.992 68.5481 2.992C69.4481 2.992 69.8561 3.208 69.8561 4.168C69.8561 4.972 69.4961 5.344 68.7041 5.344ZM70.6001 6.352C72.1241 6.112 72.7241 5.356 72.7241 3.712C72.7241 1.816 71.4641 0.999999 69.2681 0.999999H64.3601C64.3961 2.296 64.4081 3.592 64.4081 5.5C64.4081 7.42 64.3841 8.692 64.3601 10H67.3961C67.3241 9.292 67.2881 8.296 67.2641 7.144C67.8401 7.132 68.0921 7.144 68.5241 7.144C69.2561 7.144 69.4241 7.408 69.7121 8.92C69.9161 9.844 70.0001 10 70.4441 10H73.1201C73.0001 9.592 72.8201 8.836 72.6281 8.152C72.3281 6.94 71.8361 6.58 70.6001 6.424V6.352ZM80.2515 0.999999C80.2995 1.732 80.3355 3.232 80.3475 4.552C80.3475 5.128 80.3835 5.776 80.4435 6.46L80.4195 6.472C80.2395 5.92 80.0235 5.368 79.7835 4.9C79.0035 3.46 77.8275 1.576 77.5875 0.999999H74.2155C74.2395 2.188 74.2395 3.592 74.2395 5.5C74.2395 7.42 74.2275 8.8 74.2155 10H76.8795C76.8435 9.496 76.8435 8.296 76.8315 6.532C76.8075 5.824 76.7715 5.116 76.7115 4.336H76.7355C76.9515 4.948 77.2035 5.572 77.5155 6.172C78.3795 7.552 79.3995 9.196 79.7835 10H82.8435C82.8195 8.836 82.8195 7.48 82.8195 5.488C82.8195 3.58 82.8315 1.864 82.8555 0.999999H80.2515ZM96.4803 5.344C96.4803 2.092 94.7163 0.831999 91.8003 0.831999C88.8723 0.831999 87.1563 2.092 87.1563 5.344C87.1563 8.596 88.7043 10.168 91.7883 10.168C94.8723 10.168 96.4803 8.596 96.4803 5.344ZM91.8003 7.744C90.7323 7.744 90.1683 7.024 90.1683 5.38C90.1683 3.76 90.7323 3.124 91.8003 3.124C92.8683 3.124 93.4203 3.784 93.4203 5.38C93.4203 7 92.8803 7.744 91.8003 7.744ZM103.724 0.999999C103.772 1.732 103.808 3.232 103.82 4.552C103.82 5.128 103.856 5.776 103.916 6.46L103.892 6.472C103.712 5.92 103.496 5.368 103.256 4.9C102.476 3.46 101.3 1.576 101.06 0.999999H97.6882C97.7122 2.188 97.7122 3.592 97.7122 5.5C97.7122 7.42 97.7002 8.8 97.6882 10H100.352C100.316 9.496 100.316 8.296 100.304 6.532C100.28 5.824 100.244 5.116 100.184 4.336H100.208C100.424 4.948 100.676 5.572 100.988 6.172C101.852 7.552 102.872 9.196 103.256 10H106.316C106.292 8.836 106.292 7.48 106.292 5.488C106.292 3.58 106.304 1.864 106.328 0.999999H103.724ZM115.429 8.044C114.985 8.044 114.493 8.044 113.893 8.02C113.881 7.468 113.869 6.832 113.869 6.184C114.433 6.172 114.949 6.16 115.405 6.16C116.233 6.16 116.581 6.388 116.581 7.084C116.581 7.828 116.257 8.044 115.429 8.044ZM116.509 3.64C116.509 4.372 116.161 4.672 115.381 4.684C114.925 4.684 114.421 4.696 113.869 4.672C113.869 4 113.869 3.352 113.881 2.824C114.433 2.8 114.937 2.788 115.417 2.788C116.185 2.788 116.509 3.004 116.509 3.64ZM117.493 5.416C117.841 5.38 118.129 5.32 118.357 5.224C119.125 4.9 119.401 4.408 119.401 3.376C119.401 1.612 118.309 0.999999 116.341 0.999999H110.965C111.025 2.224 111.025 3.592 111.025 5.5C111.025 7.408 111.025 8.74 110.965 10H116.461C118.597 10 119.509 9.256 119.509 7.6C119.509 6.532 119.173 5.908 118.249 5.608C118.045 5.536 117.793 5.5 117.493 5.476V5.416ZM120.774 0.999999C120.81 1.864 120.81 3.436 120.81 5.5C120.81 7.42 120.774 9.268 120.774 10H126.714C126.714 9.544 126.702 9.1 126.702 8.644C126.702 8.2 126.714 7.744 126.714 7.3C125.754 7.324 124.65 7.336 123.822 7.336C123.81 6.772 123.81 6.124 123.81 5.488C123.822 3.496 123.846 1.672 123.87 0.999999H120.774ZM133.118 0.999999C133.142 2.416 133.166 4.816 133.166 6.184C133.166 7.24 132.794 7.696 131.834 7.696C130.838 7.696 130.406 7.24 130.406 6.184C130.406 4.816 130.418 2.416 130.466 0.999999H127.406C127.43 1.78 127.454 2.548 127.454 3.712C127.454 4.432 127.43 5.56 127.43 6.4C127.43 8.824 128.534 10.168 131.762 10.168C134.99 10.168 136.082 8.824 136.082 6.4C136.082 5.56 136.058 4.432 136.058 3.712C136.058 2.548 136.082 1.78 136.106 0.999999H133.118ZM137.626 0.999999C137.662 2.164 137.662 3.592 137.662 5.5C137.662 7.42 137.662 8.788 137.626 10H144.85C144.826 9.7 144.826 9.22 144.826 8.86C144.826 8.44 144.826 7.912 144.85 7.624C143.482 7.636 141.802 7.648 140.59 7.648V6.34C142.006 6.34 143.566 6.352 144.73 6.376C144.73 5.896 144.73 4.852 144.742 4.408C143.566 4.444 142.018 4.444 140.59 4.444V3.184C141.79 3.184 143.386 3.196 144.85 3.208C144.826 2.944 144.826 2.428 144.826 2.056C144.826 1.708 144.838 1.252 144.85 0.999999H137.626ZM145.686 0.999999C145.698 1.336 145.698 1.852 145.698 2.32C145.698 2.764 145.698 3.328 145.686 3.688C146.406 3.676 147.114 3.664 147.762 3.664C147.762 6.568 147.75 9.364 147.714 10.012C148.146 9.976 148.806 9.976 149.286 9.976C149.766 9.976 150.45 9.976 150.87 10.012C150.834 9.364 150.822 6.556 150.822 3.664C151.47 3.664 152.178 3.676 152.886 3.688C152.874 3.328 152.874 2.764 152.874 2.32C152.874 1.852 152.874 1.336 152.886 0.999999H145.686ZM162.762 5.344C162.762 2.092 160.998 0.831999 158.082 0.831999C155.154 0.831999 153.438 2.092 153.438 5.344C153.438 8.596 154.986 10.168 158.07 10.168C161.154 10.168 162.762 8.596 162.762 5.344ZM158.082 7.744C157.014 7.744 156.45 7.024 156.45 5.38C156.45 3.76 157.014 3.124 158.082 3.124C159.15 3.124 159.702 3.784 159.702 5.38C159.702 7 159.162 7.744 158.082 7.744ZM172.933 5.344C172.933 2.092 171.169 0.831999 168.253 0.831999C165.325 0.831999 163.609 2.092 163.609 5.344C163.609 8.596 165.157 10.168 168.241 10.168C171.325 10.168 172.933 8.596 172.933 5.344ZM168.253 7.744C167.185 7.744 166.621 7.024 166.621 5.38C166.621 3.76 167.185 3.124 168.253 3.124C169.321 3.124 169.873 3.784 169.873 5.38C169.873 7 169.333 7.744 168.253 7.744ZM173.495 0.999999C173.507 1.336 173.507 1.852 173.507 2.32C173.507 2.764 173.507 3.328 173.495 3.688C174.215 3.676 174.923 3.664 175.571 3.664C175.571 6.568 175.559 9.364 175.523 10.012C175.955 9.976 176.615 9.976 177.095 9.976C177.575 9.976 178.259 9.976 178.679 10.012C178.643 9.364 178.631 6.556 178.631 3.664C179.279 3.664 179.987 3.676 180.695 3.688C180.683 3.328 180.683 2.764 180.683 2.32C180.683 1.852 180.683 1.336 180.695 0.999999H173.495ZM187.4 0.999999C187.424 1.84 187.436 3.196 187.448 4.276C187.016 4.288 186.536 4.3 186.056 4.3C185.576 4.3 185.096 4.288 184.664 4.276C184.664 3.196 184.676 1.84 184.712 0.999999H181.676C181.724 2.236 181.724 3.592 181.724 5.5C181.724 7.408 181.724 8.704 181.676 10H184.712C184.676 9.124 184.664 7.828 184.664 6.784C185.096 6.772 185.576 6.772 186.056 6.772C186.536 6.772 187.016 6.772 187.448 6.784C187.436 7.828 187.424 9.136 187.4 10H190.436C190.4 8.704 190.388 7.408 190.388 5.5C190.388 3.592 190.4 2.236 190.436 0.999999H187.4ZM5.41134 31.436H4.39134C4.59534 30.572 4.79934 29.684 4.97934 28.904C5.15934 28.256 5.29134 27.68 5.39934 27.248H5.43534C5.53134 27.68 5.66334 28.268 5.84334 28.88C6.04734 29.66 6.25134 30.56 6.44334 31.436H5.41134ZM10.4753 35C9.69534 32.708 8.23134 27.26 7.89534 26H3.08334C2.78334 27.248 1.33134 32.744 0.599344 35H3.67134C3.71934 34.64 3.83934 34.028 3.99534 33.284C4.52334 33.284 5.03934 33.284 5.41134 33.284C5.80734 33.284 6.31134 33.284 6.82734 33.284C6.98334 34.052 7.07934 34.676 7.11534 35H10.4753ZM17.3512 26C17.3992 26.732 17.4352 28.232 17.4472 29.552C17.4472 30.128 17.4832 30.776 17.5432 31.46L17.5192 31.472C17.3392 30.92 17.1232 30.368 16.8832 29.9C16.1032 28.46 14.9272 26.576 14.6872 26H11.3152C11.3392 27.188 11.3392 28.592 11.3392 30.5C11.3392 32.42 11.3272 33.8 11.3152 35H13.9792C13.9432 34.496 13.9432 33.296 13.9312 31.532C13.9072 30.824 13.8712 30.116 13.8112 29.336H13.8352C14.0512 29.948 14.3032 30.572 14.6152 31.172C15.4792 32.552 16.4992 34.196 16.8832 35H19.9432C19.9192 33.836 19.9192 32.48 19.9192 30.488C19.9192 28.58 19.9312 26.864 19.9552 26H17.3512ZM25.5185 32.672C25.1345 32.672 24.8225 32.672 24.4745 32.648C24.4625 32.108 24.4625 31.436 24.4625 30.524C24.4625 29.744 24.4625 28.952 24.4865 28.22C24.8225 28.196 25.1705 28.184 25.5425 28.184C26.7305 28.184 27.2345 28.472 27.2345 30.368C27.2345 32.336 26.7185 32.672 25.5185 32.672ZM21.5105 26C21.5345 27.176 21.5465 28.604 21.5465 30.512C21.5465 32.42 21.5345 33.74 21.5105 35H25.6985C28.9865 35 30.1865 33.86 30.1865 30.26C30.1865 26.9 28.8305 26 25.7585 26H21.5105ZM38.9348 33.044C38.4908 33.044 37.9988 33.044 37.3988 33.02C37.3868 32.468 37.3748 31.832 37.3748 31.184C37.9388 31.172 38.4548 31.16 38.9108 31.16C39.7388 31.16 40.0868 31.388 40.0868 32.084C40.0868 32.828 39.7628 33.044 38.9348 33.044ZM40.0148 28.64C40.0148 29.372 39.6668 29.672 38.8868 29.684C38.4308 29.684 37.9268 29.696 37.3748 29.672C37.3748 29 37.3748 28.352 37.3868 27.824C37.9388 27.8 38.4428 27.788 38.9228 27.788C39.6908 27.788 40.0148 28.004 40.0148 28.64ZM40.9988 30.416C41.3468 30.38 41.6348 30.32 41.8628 30.224C42.6308 29.9 42.9068 29.408 42.9068 28.376C42.9068 26.612 41.8148 26 39.8468 26H34.4708C34.5308 27.224 34.5308 28.592 34.5308 30.5C34.5308 32.408 34.5308 33.74 34.4708 35H39.9668C42.1028 35 43.0148 34.256 43.0148 32.6C43.0148 31.532 42.6788 30.908 41.7548 30.608C41.5508 30.536 41.2988 30.5 40.9988 30.476V30.416ZM44.28 26C44.316 27.164 44.316 28.592 44.316 30.5C44.316 32.42 44.316 33.788 44.28 35H51.504C51.48 34.7 51.48 34.22 51.48 33.86C51.48 33.44 51.48 32.912 51.504 32.624C50.136 32.636 48.456 32.648 47.244 32.648V31.34C48.66 31.34 50.22 31.352 51.384 31.376C51.384 30.896 51.384 29.852 51.396 29.408C50.22 29.444 48.672 29.444 47.244 29.444V28.184C48.444 28.184 50.04 28.196 51.504 28.208C51.48 27.944 51.48 27.428 51.48 27.056C51.48 26.708 51.492 26.252 51.504 26H44.28ZM65.6342 26C65.5502 26.876 65.2142 29.228 64.9502 31.004C64.8422 31.592 64.7822 32.108 64.7222 32.54H64.6502C64.5902 32.12 64.5182 31.604 64.4102 31.004C64.0982 29.216 63.8102 26.792 63.7262 26C63.3302 26.012 62.6222 26.012 62.1422 26.012C61.6622 26.012 60.8222 26.012 60.4022 26C60.3422 26.864 59.9462 29.228 59.6822 30.956C59.5862 31.52 59.5022 32.048 59.4302 32.492H59.3582C59.2862 32.06 59.2142 31.52 59.1302 30.98C58.8662 29.228 58.5182 26.66 58.4702 26H55.3022C55.8662 28.1 56.8862 33.512 57.2102 35C57.4862 34.988 58.0022 34.976 58.8782 34.976C59.5262 34.976 60.2342 35 60.6302 35C60.7622 34.22 61.0742 32.528 61.3382 31.04C61.4582 30.38 61.5542 29.576 61.6502 28.868H61.7102C61.7942 29.564 61.8782 30.344 61.9742 31.016C62.2262 32.564 62.5022 34.292 62.6222 35C62.9102 34.988 63.5942 34.976 64.5302 34.976C65.2022 34.976 65.7902 34.988 66.2102 35C66.4742 33.692 67.5782 28.088 68.1062 26H65.6342ZM71.9843 35C71.9603 33.692 71.9603 32.396 71.9603 30.488C71.9603 28.568 71.9603 27.272 71.9843 26H68.9363C68.9723 27.284 68.9723 28.58 68.9723 30.5C68.9723 32.408 68.9723 33.704 68.9363 35H71.9843ZM72.9657 26C72.9777 26.336 72.9777 26.852 72.9777 27.32C72.9777 27.764 72.9777 28.328 72.9657 28.688C73.6857 28.676 74.3937 28.664 75.0417 28.664C75.0417 31.568 75.0297 34.364 74.9937 35.012C75.4257 34.976 76.0857 34.976 76.5657 34.976C77.0457 34.976 77.7297 34.976 78.1497 35.012C78.1137 34.364 78.1017 31.556 78.1017 28.664C78.7497 28.664 79.4577 28.676 80.1657 28.688C80.1537 28.328 80.1537 27.764 80.1537 27.32C80.1537 26.852 80.1537 26.336 80.1657 26H72.9657ZM86.8712 26C86.8952 26.84 86.9072 28.196 86.9192 29.276C86.4872 29.288 86.0072 29.3 85.5272 29.3C85.0472 29.3 84.5672 29.288 84.1352 29.276C84.1352 28.196 84.1472 26.84 84.1832 26H81.1472C81.1952 27.236 81.1952 28.592 81.1952 30.5C81.1952 32.408 81.1952 33.704 81.1472 35H84.1832C84.1472 34.124 84.1352 32.828 84.1352 31.784C84.5672 31.772 85.0472 31.772 85.5272 31.772C86.0072 31.772 86.4872 31.772 86.9192 31.784C86.9072 32.828 86.8952 34.136 86.8712 35H89.9072C89.8712 33.704 89.8592 32.408 89.8592 30.5C89.8592 28.592 89.8712 27.236 89.9072 26H86.8712ZM94.5194 35C94.4954 33.692 94.4954 32.396 94.4954 30.488C94.4954 28.568 94.4954 27.272 94.5194 26H91.4714C91.5074 27.284 91.5074 28.58 91.5074 30.5C91.5074 32.408 91.5074 33.704 91.4714 35H94.5194ZM102.113 26C102.161 26.732 102.197 28.232 102.209 29.552C102.209 30.128 102.245 30.776 102.305 31.46L102.281 31.472C102.101 30.92 101.885 30.368 101.645 29.9C100.865 28.46 99.6889 26.576 99.4489 26H96.0769C96.1009 27.188 96.1009 28.592 96.1009 30.5C96.1009 32.42 96.0889 33.8 96.0769 35H98.7409C98.7049 34.496 98.7049 33.296 98.6929 31.532C98.6689 30.824 98.6329 30.116 98.5729 29.336H98.5969C98.8129 29.948 99.0649 30.572 99.3769 31.172C100.241 32.552 101.261 34.196 101.645 35H104.705C104.681 33.836 104.681 32.48 104.681 30.488C104.681 28.58 104.693 26.864 104.717 26H102.113ZM109.39 35.012C110.074 34.988 110.566 34.976 111.01 34.976C111.466 34.976 111.946 34.976 112.654 35C112.618 33.776 112.606 32.408 112.606 30.5C112.606 28.568 112.618 27.008 112.654 26C112.462 26.012 112.21 26.012 111.91 26.012C111.658 26.012 111.406 26.012 111.106 26C110.602 26.42 110.002 26.828 109.306 27.116C109.342 27.68 109.426 28.568 109.426 30.5C109.426 32.42 109.414 33.776 109.39 35.012ZM122.439 30.332C122.439 27.068 120.843 25.844 118.083 25.844C115.311 25.844 113.763 27.068 113.763 30.332C113.763 33.608 115.107 35.156 118.071 35.156C121.035 35.156 122.439 33.608 122.439 30.332ZM118.083 28.196C118.959 28.196 119.463 28.652 119.463 30.356C119.463 32.156 118.971 32.636 118.083 32.636C117.219 32.636 116.715 32.168 116.715 30.356C116.715 28.64 117.219 28.196 118.083 28.196ZM129.71 28.496C130.874 28.496 132.266 28.508 133.682 28.52C133.67 28.184 133.658 27.704 133.658 27.26C133.658 26.84 133.682 26.336 133.694 26H126.71C126.746 27.248 126.746 28.592 126.746 30.5C126.746 32.408 126.734 33.752 126.698 35H129.83C129.782 34.208 129.758 33.344 129.734 32.468C131.09 32.468 132.422 32.492 133.562 32.492C133.562 31.892 133.562 30.74 133.598 30.164C132.422 30.2 131.078 30.212 129.71 30.212V30.044V28.496ZM134.337 26C134.349 26.336 134.349 26.852 134.349 27.32C134.349 27.764 134.349 28.328 134.337 28.688C135.057 28.676 135.765 28.664 136.413 28.664C136.413 31.568 136.401 34.364 136.365 35.012C136.797 34.976 137.457 34.976 137.937 34.976C138.417 34.976 139.101 34.976 139.521 35.012C139.485 34.364 139.473 31.556 139.473 28.664C140.121 28.664 140.829 28.676 141.537 28.688C141.525 28.328 141.525 27.764 141.525 27.32C141.525 26.852 141.525 26.336 141.537 26H134.337ZM154.588 30.344C154.588 27.092 152.824 25.832 149.908 25.832C146.98 25.832 145.264 27.092 145.264 30.344C145.264 33.596 146.812 35.168 149.896 35.168C152.98 35.168 154.588 33.596 154.588 30.344ZM149.908 32.744C148.84 32.744 148.276 32.024 148.276 30.38C148.276 28.76 148.84 28.124 149.908 28.124C150.976 28.124 151.528 28.784 151.528 30.38C151.528 32 150.988 32.744 149.908 32.744ZM158.796 28.496C159.96 28.496 161.352 28.508 162.768 28.52C162.756 28.184 162.744 27.704 162.744 27.26C162.744 26.84 162.768 26.336 162.78 26H155.796C155.832 27.248 155.832 28.592 155.832 30.5C155.832 32.408 155.82 33.752 155.784 35H158.916C158.868 34.208 158.844 33.344 158.82 32.468C160.176 32.468 161.508 32.492 162.648 32.492C162.648 31.892 162.648 30.74 162.684 30.164C161.508 30.2 160.164 30.212 158.796 30.212V30.044V28.496ZM171.004 30.812C170.608 30.812 170.26 30.8 170.02 30.8C170.008 29.96 170.008 29.06 170.008 28.124C170.38 28.112 170.848 28.112 171.064 28.112C172.108 28.112 172.54 28.412 172.54 29.444C172.54 30.476 172.156 30.812 171.004 30.812ZM167.092 26C167.128 27.248 167.14 28.592 167.14 30.5C167.14 32.42 167.128 33.704 167.092 35H170.14C170.092 34.424 170.068 33.716 170.044 32.9C170.596 32.912 171.04 32.924 171.496 32.924C174.244 32.924 175.348 31.856 175.348 29.384C175.348 26.792 174.064 26 171.748 26H167.092ZM185.373 30.344C185.373 27.092 183.609 25.832 180.693 25.832C177.765 25.832 176.049 27.092 176.049 30.344C176.049 33.596 177.597 35.168 180.681 35.168C183.765 35.168 185.373 33.596 185.373 30.344ZM180.693 32.744C179.625 32.744 179.061 32.024 179.061 30.38C179.061 28.76 179.625 28.124 180.693 28.124C181.761 28.124 182.313 28.784 182.313 30.38C182.313 32 181.773 32.744 180.693 32.744ZM190.481 30.812C190.085 30.812 189.737 30.8 189.497 30.8C189.485 29.96 189.485 29.06 189.485 28.124C189.857 28.112 190.325 28.112 190.541 28.112C191.585 28.112 192.017 28.412 192.017 29.444C192.017 30.476 191.633 30.812 190.481 30.812ZM186.569 26C186.605 27.248 186.617 28.592 186.617 30.5C186.617 32.42 186.605 33.704 186.569 35H189.617C189.569 34.424 189.545 33.716 189.521 32.9C190.073 32.912 190.517 32.924 190.973 32.924C193.721 32.924 194.825 31.856 194.825 29.384C194.825 26.792 193.541 26 191.225 26H186.569ZM195.874 26C195.91 26.864 195.91 28.436 195.91 30.5C195.91 32.42 195.874 34.268 195.874 35H201.814C201.814 34.544 201.802 34.1 201.802 33.644C201.802 33.2 201.814 32.744 201.814 32.3C200.854 32.324 199.75 32.336 198.922 32.336C198.91 31.772 198.91 31.124 198.91 30.488C198.922 28.496 198.946 26.672 198.97 26H195.874ZM205.801 35C205.777 33.692 205.777 32.396 205.777 30.488C205.777 28.568 205.777 27.272 205.801 26H202.753C202.789 27.284 202.789 28.58 202.789 30.5C202.789 32.408 202.789 33.704 202.753 35H205.801ZM215.77 29.984C214.93 30.008 214.102 29.996 213.466 29.996C212.89 29.996 212.122 29.996 211.354 29.984C211.366 30.224 211.366 30.536 211.366 30.908C211.366 31.1 211.366 31.532 211.354 31.712C211.834 31.7 212.458 31.688 213.034 31.688C212.962 32.648 212.59 33.02 211.69 33.02C210.43 33.02 209.998 32.252 209.998 30.44C209.998 28.52 210.478 27.92 211.606 27.92C212.47 27.92 212.914 28.244 212.914 28.976C212.914 29.06 212.902 29.168 212.902 29.264C213.262 29.24 213.79 29.24 214.342 29.24C214.882 29.24 215.434 29.252 215.83 29.264C215.842 29.084 215.842 28.928 215.842 28.76C215.842 27.152 214.774 25.844 211.618 25.844C208.462 25.844 206.986 27.296 206.986 30.404C206.986 33.524 208.438 35.156 211.582 35.156C215.362 35.156 215.998 33.428 215.794 29.984H215.77ZM222.984 26C223.008 26.84 223.02 28.196 223.032 29.276C222.6 29.288 222.12 29.3 221.64 29.3C221.16 29.3 220.68 29.288 220.248 29.276C220.248 28.196 220.26 26.84 220.296 26H217.26C217.308 27.236 217.308 28.592 217.308 30.5C217.308 32.408 217.308 33.704 217.26 35H220.296C220.26 34.124 220.248 32.828 220.248 31.784C220.68 31.772 221.16 31.772 221.64 31.772C222.12 31.772 222.6 31.772 223.032 31.784C223.02 32.828 223.008 34.136 222.984 35H226.02C225.984 33.704 225.972 32.408 225.972 30.5C225.972 28.592 225.984 27.236 226.02 26H222.984ZM227.009 26C227.021 26.336 227.021 26.852 227.021 27.32C227.021 27.764 227.021 28.328 227.009 28.688C227.729 28.676 228.437 28.664 229.085 28.664C229.085 31.568 229.073 34.364 229.037 35.012C229.469 34.976 230.129 34.976 230.609 34.976C231.089 34.976 231.773 34.976 232.193 35.012C232.157 34.364 232.145 31.556 232.145 28.664C232.793 28.664 233.501 28.676 234.209 28.688C234.197 28.328 234.197 27.764 234.197 27.32C234.197 26.852 234.197 26.336 234.209 26H227.009ZM234.961 32.036C234.061 32.036 233.545 32.516 233.545 33.548C233.545 34.592 234.049 35.108 234.961 35.108C235.885 35.108 236.389 34.592 236.389 33.548C236.389 32.516 235.873 32.036 234.961 32.036Z" fill="#FEF8E5"/>
</svg>
