<svg width="232" height="9" viewBox="0 0 232 9" fill="none" xmlns="http://www.w3.org/2000/svg">
<path d="M2.64344 5.55C2.41344 5.57 2.09344 5.57 1.75344 5.57C1.28344 5.57 0.783438 5.54 0.453438 5.51C0.433438 5.69 0.433438 5.87 0.433438 6.04C0.433438 7.43 1.28344 8.14 3.88344 8.14C6.30344 8.14 7.22344 7.29 7.22344 5.83C7.22344 4.37 6.50344 3.72 4.45344 3.41C3.04344 3.2 2.88344 2.9 2.88344 2.54C2.88344 2.22 3.11344 2.01 3.84344 2.01C4.79344 2.01 5.01344 2.27 5.01344 2.67C5.01344 2.73 5.01344 2.8 5.00344 2.87C5.21344 2.86 5.54344 2.86 5.88344 2.86C6.31344 2.86 6.80344 2.87 7.10344 2.89C7.11344 2.73 7.12344 2.58 7.12344 2.44C7.12344 1.1 6.33344 0.359999 3.77344 0.359999C1.47344 0.359999 0.453438 1.2 0.453438 2.62C0.453438 3.92 1.01344 4.69 3.30344 5C4.60344 5.18 4.83344 5.47 4.83344 5.9C4.83344 6.27 4.60344 6.47 3.76344 6.47C2.90344 6.47 2.64344 6.26 2.64344 5.69V5.55ZM8.19297 0.499999C8.22297 1.47 8.22297 2.66 8.22297 4.25C8.22297 5.85 8.22297 6.99 8.19297 8H14.213C14.193 7.75 14.193 7.35 14.193 7.05C14.193 6.7 14.193 6.26 14.213 6.02C13.073 6.03 11.673 6.04 10.663 6.04V4.95C11.843 4.95 13.143 4.96 14.113 4.98C14.113 4.58 14.113 3.71 14.123 3.34C13.143 3.37 11.853 3.37 10.663 3.37V2.32C11.663 2.32 12.993 2.33 14.213 2.34C14.193 2.12 14.193 1.69 14.193 1.38C14.193 1.09 14.203 0.71 14.213 0.499999H8.19297ZM15.3902 0.499999C15.4202 1.22 15.4202 2.53 15.4202 4.25C15.4202 5.85 15.3902 7.39 15.3902 8H20.3402C20.3402 7.62 20.3302 7.25 20.3302 6.87C20.3302 6.5 20.3402 6.12 20.3402 5.75C19.5402 5.77 18.6202 5.78 17.9302 5.78C17.9202 5.31 17.9202 4.77 17.9202 4.24C17.9302 2.58 17.9502 1.06 17.9702 0.499999H15.3902ZM21.1227 0.499999C21.1527 1.47 21.1527 2.66 21.1527 4.25C21.1527 5.85 21.1527 6.99 21.1227 8H27.1427C27.1227 7.75 27.1227 7.35 27.1227 7.05C27.1227 6.7 27.1227 6.26 27.1427 6.02C26.0027 6.03 24.6027 6.04 23.5927 6.04V4.95C24.7727 4.95 26.0727 4.96 27.0427 4.98C27.0427 4.58 27.0427 3.71 27.0527 3.34C26.0727 3.37 24.7827 3.37 23.5927 3.37V2.32C24.5927 2.32 25.9227 2.33 27.1427 2.34C27.1227 2.12 27.1227 1.69 27.1227 1.38C27.1227 1.09 27.1327 0.71 27.1427 0.499999H21.1227ZM32.9399 4.99C32.9399 5.66 32.5999 6.1 31.8299 6.1C30.9499 6.1 30.5399 5.61 30.5399 4.14C30.5399 2.66 30.9399 2.27 31.7799 2.26C32.5399 2.26 32.9299 2.55 32.9299 3.4C32.9299 3.46 32.9299 3.54 32.9199 3.62C33.3199 3.6 33.7099 3.6 34.1099 3.6C34.4999 3.6 34.9099 3.6 35.3099 3.62C35.3299 3.4 35.3399 3.19 35.3399 3C35.3399 1.37 34.3699 0.37 31.8099 0.37C29.1999 0.37 28.0099 1.57 28.0099 4.15C28.0099 6.97 29.2399 8.13 31.7799 8.13C34.1899 8.13 35.3599 7.16 35.3599 5.17C35.3599 5.04 35.3599 4.89 35.3499 4.73C34.9499 4.74 34.5399 4.74 34.1399 4.74C33.7399 4.74 33.3399 4.74 32.9399 4.73V4.99ZM35.9161 0.499999C35.9261 0.779999 35.9261 1.21 35.9261 1.6C35.9261 1.97 35.9261 2.44 35.9161 2.74C36.5161 2.73 37.1061 2.72 37.6461 2.72C37.6461 5.14 37.6361 7.47 37.6061 8.01C37.9661 7.98 38.5161 7.98 38.9161 7.98C39.3161 7.98 39.8861 7.98 40.2361 8.01C40.2061 7.47 40.1961 5.13 40.1961 2.72C40.7361 2.72 41.3261 2.73 41.9161 2.74C41.9061 2.44 41.9061 1.97 41.9061 1.6C41.9061 1.21 41.9061 0.779999 41.9161 0.499999H35.9161ZM44.8419 0.499999C44.8519 0.779999 44.8519 1.21 44.8519 1.6C44.8519 1.97 44.8519 2.44 44.8419 2.74C45.4419 2.73 46.0319 2.72 46.5719 2.72C46.5719 5.14 46.5619 7.47 46.5319 8.01C46.8919 7.98 47.4419 7.98 47.8419 7.98C48.2419 7.98 48.8119 7.98 49.1619 8.01C49.1319 7.47 49.1219 5.13 49.1219 2.72C49.6619 2.72 50.2519 2.73 50.8419 2.74C50.8319 2.44 50.8319 1.97 50.8319 1.6C50.8319 1.21 50.8319 0.779999 50.8419 0.499999H44.8419ZM56.4298 0.499999C56.4498 1.2 56.4598 2.33 56.4698 3.23C56.1098 3.24 55.7098 3.25 55.3098 3.25C54.9098 3.25 54.5098 3.24 54.1498 3.23C54.1498 2.33 54.1598 1.2 54.1898 0.499999H51.6598C51.6998 1.53 51.6998 2.66 51.6998 4.25C51.6998 5.84 51.6998 6.92 51.6598 8H54.1898C54.1598 7.27 54.1498 6.19 54.1498 5.32C54.5098 5.31 54.9098 5.31 55.3098 5.31C55.7098 5.31 56.1098 5.31 56.4698 5.32C56.4598 6.19 56.4498 7.28 56.4298 8H58.9598C58.9298 6.92 58.9198 5.84 58.9198 4.25C58.9198 2.66 58.9298 1.53 58.9598 0.499999H56.4298ZM60.2633 0.499999C60.2933 1.47 60.2933 2.66 60.2933 4.25C60.2933 5.85 60.2933 6.99 60.2633 8H66.2833C66.2633 7.75 66.2633 7.35 66.2633 7.05C66.2633 6.7 66.2633 6.26 66.2833 6.02C65.1433 6.03 63.7433 6.04 62.7333 6.04V4.95C63.9133 4.95 65.2133 4.96 66.1833 4.98C66.1833 4.58 66.1833 3.71 66.1933 3.34C65.2133 3.37 63.9233 3.37 62.7333 3.37V2.32C63.7333 2.32 65.0633 2.33 66.2833 2.34C66.2633 2.12 66.2633 1.69 66.2633 1.38C66.2633 1.09 66.2733 0.71 66.2833 0.499999H60.2633ZM70.0484 0.499999C70.0784 1.22 70.0784 2.53 70.0784 4.25C70.0784 5.85 70.0484 7.39 70.0484 8H74.9984C74.9984 7.62 74.9884 7.25 74.9884 6.87C74.9884 6.5 74.9984 6.12 74.9984 5.75C74.1984 5.77 73.2784 5.78 72.5884 5.78C72.5784 5.31 72.5784 4.77 72.5784 4.24C72.5884 2.58 72.6084 1.06 72.6284 0.499999H70.0484ZM78.3209 8C78.3009 6.91 78.3009 5.83 78.3009 4.24C78.3009 2.64 78.3009 1.56 78.3209 0.499999H75.7809C75.8109 1.57 75.8109 2.65 75.8109 4.25C75.8109 5.84 75.8109 6.92 75.7809 8H78.3209ZM86.6288 3.82C85.9288 3.84 85.2388 3.83 84.7088 3.83C84.2288 3.83 83.5888 3.83 82.9488 3.82C82.9588 4.02 82.9588 4.28 82.9588 4.59C82.9588 4.75 82.9588 5.11 82.9488 5.26C83.3488 5.25 83.8688 5.24 84.3488 5.24C84.2888 6.04 83.9788 6.35 83.2288 6.35C82.1788 6.35 81.8188 5.71 81.8188 4.2C81.8188 2.6 82.2188 2.1 83.1588 2.1C83.8788 2.1 84.2487 2.37 84.2487 2.98C84.2487 3.05 84.2388 3.14 84.2388 3.22C84.5388 3.2 84.9788 3.2 85.4388 3.2C85.8888 3.2 86.3488 3.21 86.6788 3.22C86.6888 3.07 86.6888 2.94 86.6888 2.8C86.6888 1.46 85.7988 0.37 83.1688 0.37C80.5388 0.37 79.3088 1.58 79.3088 4.17C79.3088 6.77 80.5188 8.13 83.1388 8.13C86.2888 8.13 86.8188 6.69 86.6488 3.82H86.6288ZM92.6407 0.499999C92.6607 1.2 92.6707 2.33 92.6807 3.23C92.3207 3.24 91.9207 3.25 91.5207 3.25C91.1207 3.25 90.7207 3.24 90.3607 3.23C90.3607 2.33 90.3707 1.2 90.4007 0.499999H87.8707C87.9107 1.53 87.9107 2.66 87.9107 4.25C87.9107 5.84 87.9107 6.92 87.8707 8H90.4007C90.3707 7.27 90.3607 6.19 90.3607 5.32C90.7207 5.31 91.1207 5.31 91.5207 5.31C91.9207 5.31 92.3207 5.31 92.6807 5.32C92.6707 6.19 92.6607 7.28 92.6407 8H95.1707C95.1407 6.92 95.1307 5.84 95.1307 4.25C95.1307 2.66 95.1407 1.53 95.1707 0.499999H92.6407ZM95.9942 0.499999C96.0042 0.779999 96.0042 1.21 96.0042 1.6C96.0042 1.97 96.0042 2.44 95.9942 2.74C96.5942 2.73 97.1842 2.72 97.7242 2.72C97.7242 5.14 97.7142 7.47 97.6842 8.01C98.0442 7.98 98.5942 7.98 98.9942 7.98C99.3942 7.98 99.9642 7.98 100.314 8.01C100.284 7.47 100.274 5.13 100.274 2.72C100.814 2.72 101.404 2.73 101.994 2.74C101.984 2.44 101.984 1.97 101.984 1.6C101.984 1.21 101.984 0.779999 101.994 0.499999H95.9942ZM104.782 5.55C104.552 5.57 104.232 5.57 103.892 5.57C103.422 5.57 102.922 5.54 102.592 5.51C102.572 5.69 102.572 5.87 102.572 6.04C102.572 7.43 103.422 8.14 106.022 8.14C108.442 8.14 109.362 7.29 109.362 5.83C109.362 4.37 108.642 3.72 106.592 3.41C105.182 3.2 105.022 2.9 105.022 2.54C105.022 2.22 105.252 2.01 105.982 2.01C106.932 2.01 107.152 2.27 107.152 2.67C107.152 2.73 107.152 2.8 107.142 2.87C107.352 2.86 107.682 2.86 108.022 2.86C108.452 2.86 108.942 2.87 109.242 2.89C109.252 2.73 109.262 2.58 109.262 2.44C109.262 1.1 108.472 0.359999 105.912 0.359999C103.612 0.359999 102.592 1.2 102.592 2.62C102.592 3.92 103.152 4.69 105.442 5C106.742 5.18 106.972 5.47 106.972 5.9C106.972 6.27 106.742 6.47 105.902 6.47C105.042 6.47 104.782 6.26 104.782 5.69V5.55ZM117.21 0.499999C117.11 0.89 116.75 1.96 116.46 2.86C116.32 3.3 116.21 3.73 116.12 4.07H116.04C115.95 3.72 115.83 3.28 115.7 2.82C115.44 1.94 115.12 0.89 115 0.499999H112.28C112.88 1.61 114.17 4.62 114.57 5.71C114.57 6.84 114.55 7.69 114.52 8.01C114.91 7.99 115.5 7.99 115.96 7.99C116.41 7.99 117 7.99 117.38 8.01C117.37 7.69 117.35 6.86 117.34 5.74C117.74 4.71 119.02 1.69 119.63 0.499999H117.21ZM127.323 4.12C127.323 1.41 125.853 0.359999 123.423 0.359999C120.983 0.359999 119.553 1.41 119.553 4.12C119.553 6.83 120.843 8.14 123.413 8.14C125.983 8.14 127.323 6.83 127.323 4.12ZM123.423 6.12C122.533 6.12 122.063 5.52 122.063 4.15C122.063 2.8 122.533 2.27 123.423 2.27C124.313 2.27 124.773 2.82 124.773 4.15C124.773 5.5 124.323 6.12 123.423 6.12ZM133.07 0.499999C133.09 1.68 133.11 3.68 133.11 4.82C133.11 5.7 132.8 6.08 132 6.08C131.17 6.08 130.81 5.7 130.81 4.82C130.81 3.68 130.82 1.68 130.86 0.499999H128.31C128.33 1.15 128.35 1.79 128.35 2.76C128.35 3.36 128.33 4.3 128.33 5C128.33 7.02 129.25 8.14 131.94 8.14C134.63 8.14 135.54 7.02 135.54 5C135.54 4.3 135.52 3.36 135.52 2.76C135.52 1.79 135.54 1.15 135.56 0.499999H133.07ZM147.424 0.499999C147.354 1.23 147.074 3.19 146.854 4.67C146.764 5.16 146.714 5.59 146.664 5.95H146.604C146.554 5.6 146.494 5.17 146.404 4.67C146.144 3.18 145.904 1.16 145.834 0.499999C145.504 0.51 144.914 0.51 144.514 0.51C144.114 0.51 143.414 0.51 143.064 0.499999C143.014 1.22 142.684 3.19 142.464 4.63C142.384 5.1 142.314 5.54 142.254 5.91H142.194C142.134 5.55 142.074 5.1 142.004 4.65C141.784 3.19 141.494 1.05 141.454 0.499999H138.814C139.284 2.25 140.134 6.76 140.404 8C140.634 7.99 141.064 7.98 141.794 7.98C142.334 7.98 142.924 8 143.254 8C143.364 7.35 143.624 5.94 143.844 4.7C143.944 4.15 144.024 3.48 144.104 2.89H144.154C144.224 3.47 144.294 4.12 144.374 4.68C144.584 5.97 144.814 7.41 144.914 8C145.154 7.99 145.724 7.98 146.504 7.98C147.064 7.98 147.554 7.99 147.904 8C148.124 6.91 149.044 2.24 149.484 0.499999H147.424ZM153.195 5.03H152.345C152.515 4.31 152.685 3.57 152.835 2.92C152.985 2.38 153.095 1.9 153.185 1.54H153.215C153.295 1.9 153.405 2.39 153.555 2.9C153.725 3.55 153.895 4.3 154.055 5.03H153.195ZM157.415 8C156.765 6.09 155.545 1.55 155.265 0.499999H151.255C151.005 1.54 149.795 6.12 149.185 8H151.745C151.785 7.7 151.885 7.19 152.015 6.57C152.455 6.57 152.885 6.57 153.195 6.57C153.525 6.57 153.945 6.57 154.375 6.57C154.505 7.21 154.585 7.73 154.615 8H157.415ZM163.145 0.499999C163.185 1.11 163.215 2.36 163.225 3.46C163.225 3.94 163.255 4.48 163.305 5.05L163.285 5.06C163.135 4.6 162.955 4.14 162.755 3.75C162.105 2.55 161.125 0.98 160.925 0.499999H158.115C158.135 1.49 158.135 2.66 158.135 4.25C158.135 5.85 158.125 7 158.115 8H160.335C160.305 7.58 160.305 6.58 160.295 5.11C160.275 4.52 160.245 3.93 160.195 3.28H160.215C160.395 3.79 160.605 4.31 160.865 4.81C161.585 5.96 162.435 7.33 162.755 8H165.305C165.285 7.03 165.285 5.9 165.285 4.24C165.285 2.65 165.295 1.22 165.315 0.499999H163.145ZM166.131 0.499999C166.141 0.779999 166.141 1.21 166.141 1.6C166.141 1.97 166.141 2.44 166.131 2.74C166.731 2.73 167.321 2.72 167.861 2.72C167.861 5.14 167.851 7.47 167.821 8.01C168.181 7.98 168.731 7.98 169.131 7.98C169.531 7.98 170.101 7.98 170.451 8.01C170.421 7.47 170.411 5.13 170.411 2.72C170.951 2.72 171.541 2.73 172.131 2.74C172.121 2.44 172.121 1.97 172.121 1.6C172.121 1.21 172.121 0.779999 172.131 0.499999H166.131ZM175.057 0.499999C175.067 0.779999 175.067 1.21 175.067 1.6C175.067 1.97 175.067 2.44 175.057 2.74C175.657 2.73 176.247 2.72 176.787 2.72C176.787 5.14 176.777 7.47 176.747 8.01C177.107 7.98 177.657 7.98 178.057 7.98C178.457 7.98 179.027 7.98 179.377 8.01C179.347 7.47 179.337 5.13 179.337 2.72C179.877 2.72 180.467 2.73 181.057 2.74C181.047 2.44 181.047 1.97 181.047 1.6C181.047 1.21 181.047 0.779999 181.057 0.499999H175.057ZM189.286 4.12C189.286 1.41 187.816 0.359999 185.386 0.359999C182.946 0.359999 181.516 1.41 181.516 4.12C181.516 6.83 182.806 8.14 185.376 8.14C187.946 8.14 189.286 6.83 189.286 4.12ZM185.386 6.12C184.496 6.12 184.026 5.52 184.026 4.15C184.026 2.8 184.496 2.27 185.386 2.27C186.276 2.27 186.736 2.82 186.736 4.15C186.736 5.5 186.286 6.12 185.386 6.12ZM194.85 5.55C194.62 5.57 194.3 5.57 193.96 5.57C193.49 5.57 192.99 5.54 192.66 5.51C192.64 5.69 192.64 5.87 192.64 6.04C192.64 7.43 193.49 8.14 196.09 8.14C198.51 8.14 199.43 7.29 199.43 5.83C199.43 4.37 198.71 3.72 196.66 3.41C195.25 3.2 195.09 2.9 195.09 2.54C195.09 2.22 195.32 2.01 196.05 2.01C197 2.01 197.22 2.27 197.22 2.67C197.22 2.73 197.22 2.8 197.21 2.87C197.42 2.86 197.75 2.86 198.09 2.86C198.52 2.86 199.01 2.87 199.31 2.89C199.32 2.73 199.33 2.58 199.33 2.44C199.33 1.1 198.54 0.359999 195.98 0.359999C193.68 0.359999 192.66 1.2 192.66 2.62C192.66 3.92 193.22 4.69 195.51 5C196.81 5.18 197.04 5.47 197.04 5.9C197.04 6.27 196.81 6.47 195.97 6.47C195.11 6.47 194.85 6.26 194.85 5.69V5.55ZM205.17 0.499999C205.19 1.2 205.2 2.33 205.21 3.23C204.85 3.24 204.45 3.25 204.05 3.25C203.65 3.25 203.25 3.24 202.89 3.23C202.89 2.33 202.9 1.2 202.93 0.499999H200.4C200.44 1.53 200.44 2.66 200.44 4.25C200.44 5.84 200.44 6.92 200.4 8H202.93C202.9 7.27 202.89 6.19 202.89 5.32C203.25 5.31 203.65 5.31 204.05 5.31C204.45 5.31 204.85 5.31 205.21 5.32C205.2 6.19 205.19 7.28 205.17 8H207.7C207.67 6.92 207.66 5.84 207.66 4.25C207.66 2.66 207.67 1.53 207.7 0.499999H205.17ZM212.424 5.03H211.574C211.744 4.31 211.914 3.57 212.064 2.92C212.214 2.38 212.324 1.9 212.414 1.54H212.444C212.524 1.9 212.634 2.39 212.784 2.9C212.954 3.55 213.124 4.3 213.284 5.03H212.424ZM216.644 8C215.994 6.09 214.774 1.55 214.494 0.499999H210.484C210.234 1.54 209.024 6.12 208.414 8H210.974C211.014 7.7 211.114 7.19 211.244 6.57C211.684 6.57 212.114 6.57 212.424 6.57C212.754 6.57 213.174 6.57 213.604 6.57C213.734 7.21 213.814 7.73 213.844 8H216.644ZM220.885 4.12C220.395 4.11 219.955 4.11 219.675 4.1C219.665 3.48 219.665 2.83 219.665 2.18C220.055 2.17 220.545 2.16 220.755 2.16C221.505 2.16 221.845 2.34 221.845 3.14C221.845 3.81 221.545 4.12 220.885 4.12ZM222.465 4.96C223.735 4.76 224.235 4.13 224.235 2.76C224.235 1.18 223.185 0.499999 221.355 0.499999H217.265C217.295 1.58 217.305 2.66 217.305 4.25C217.305 5.85 217.285 6.91 217.265 8H219.795C219.735 7.41 219.705 6.58 219.685 5.62C220.165 5.61 220.375 5.62 220.735 5.62C221.345 5.62 221.485 5.84 221.725 7.1C221.895 7.87 221.965 8 222.335 8H224.565C224.465 7.66 224.315 7.03 224.155 6.46C223.905 5.45 223.495 5.15 222.465 5.02V4.96ZM225.429 0.499999C225.459 1.47 225.459 2.66 225.459 4.25C225.459 5.85 225.459 6.99 225.429 8H231.449C231.429 7.75 231.429 7.35 231.429 7.05C231.429 6.7 231.429 6.26 231.449 6.02C230.309 6.03 228.909 6.04 227.899 6.04V4.95C229.079 4.95 230.379 4.96 231.349 4.98C231.349 4.58 231.349 3.71 231.359 3.34C230.379 3.37 229.089 3.37 227.899 3.37V2.32C228.899 2.32 230.229 2.33 231.449 2.34C231.429 2.12 231.429 1.69 231.429 1.38C231.429 1.09 231.439 0.71 231.449 0.499999H225.429Z" fill="#FEF8E5"/>
</svg>
