<svg width="390" height="298" viewBox="0 0 390 298" fill="none" xmlns="http://www.w3.org/2000/svg">
<path d="M428.412 275.217C430.191 282.683 422.829 285.111 416.96 287.012C406.734 290.324 392.997 295.946 382.404 292.663C351.226 283 330.265 244.369 335.871 212.764C338.823 196.118 375.635 167.016 392.042 186.619C409.006 206.887 370.899 245.546 353.93 259.37C341.947 269.132 322.315 279.241 306.503 278.757C287.635 278.18 272.577 266.476 260.908 252.504C250.435 239.964 242.096 222.041 240.595 205.635C239.692 195.774 241.215 181.033 252.566 177.502C261.522 174.716 269.956 179.829 275.696 186.619C283.362 195.686 283.708 206.066 278.894 216.567C266.004 244.687 227.959 266.308 201.049 242.648C185.894 229.322 173.947 213.808 165.661 195.393C158.849 180.253 156.164 165.574 157.542 148.335C158.51 136.22 161.558 112.158 175.042 99.7586C182.191 93.1848 214.668 86.9688 220.542 94.3351C242.154 121.436 181.953 181.297 164.295 198.932C146.638 216.567 123.077 243.965 106.042 235.835C90.7837 228.553 79.908 181.826 72.3948 166.948C61.8516 146.07 59.2831 122.712 57.1238 99.7586C55.0779 78.0093 55.3409 56.1946 58.849 34.5834C61.1721 20.272 67.1255 8.8716 81.9849 5.64204C97.0957 2.35785 111.357 9.60291 119.989 22.0253C132.085 39.4337 128.295 60.4381 122.009 79.2884C113.893 103.628 99.4709 127.573 74.031 136.269C49.9131 144.513 21.3987 142.531 0.711435 126.603C-20.7972 110.043 -28.3208 87.536 -34.3719 62.1453" stroke="#D7EE00" stroke-width="8" stroke-linecap="round" stroke-linejoin="round"/>
</svg>
