<svg width="390" height="59" viewBox="0 0 390 59" fill="none" xmlns="http://www.w3.org/2000/svg">
<path d="M-4.50011 59C-8.56546 60.7659 -5.1491 47.7525 -4.5 46C-2.89331 41.6621 2.74225 27.7506 12.3087 28.3216C20.0273 28.7824 27.4237 35.5293 32.593 39.0356C39.8437 43.9537 48.5504 49.335 58.905 50.1796C70.7737 51.1477 76.9292 30.4801 79.7986 25.2348C83.8127 17.8969 92.096 4.01373 107 5C120.509 5.89393 130.319 19.5517 135.794 26.6777C140.801 33.1949 147.985 51.542 162.897 50.478C168.405 50.085 171.749 44.4039 174.139 41.6676C178.852 36.271 182.823 30.5418 187.736 25.2401C194.174 18.2929 204.649 10.484 218.008 16.3277C231.859 22.3865 240.407 33.2801 254.552 38.8644C269.252 44.6682 279.335 33.9445 287.642 27.5992C299.147 18.8105 309.802 19.5191 320.202 29.7447C326.156 35.598 331.253 54.8462 344 53.4999C356.319 52.1988 361 17.8278 373 16.3278C385 14.8278 386.984 37.3922 391.5 38.9998" stroke="#D7EE00" stroke-width="8" stroke-linecap="round" stroke-linejoin="round"/>
</svg>
