<svg width="100" height="66" viewBox="0 0 100 66" fill="none" xmlns="http://www.w3.org/2000/svg">
<rect x="0.75" y="0.75" width="98.5" height="64.5" fill="#FEF8E5" stroke="black" stroke-width="1.5"/>
<path d="M45.7858 16.8885C45.7858 15.9921 45.8341 15.0426 45.7858 14.3639C46.4896 13.9302 47.8859 12.877 48.9373 12.877H48.938C50.0631 12.877 51.5662 12.877 52.6174 13.4039C52.917 13.4039 52.9822 13.8611 53.2557 14.0289C53.4733 14.4049 53.4701 15.0982 53.4526 15.3818C53.4733 16.5404 53.7321 19.5539 53.7321 20.8113V28.6416C53.7321 30.3918 53.6072 30.7116 53.7321 32.6753C53.7171 32.989 53.9515 34.908 54.1026 35.2042C54.4175 35.8216 54.7548 36.1114 55.3221 36.5708C56.1567 37.2467 56.6166 37.7317 57.3555 38.4946C57.7662 38.9187 58.2644 39.5901 58.6495 40.0312C59.0678 40.5103 59.3604 41.1339 59.5373 41.7125C59.9852 43.1781 60.0771 44.6075 59.8774 46.1154C59.512 48.8753 57.9851 50.5373 55.9853 52.4901C55.1342 53.3211 54.0643 53.6618 52.9143 53.979C52.3488 54.135 51.7314 54.334 51.144 54.3498C50.6092 54.3641 50.0848 54.3461 49.5565 54.3498C47.2905 54.3657 44.7065 53.1355 43.2066 51.5746C41.6855 49.9918 40.0118 47.3513 40.0004 45.1778C39.9934 43.8261 40.0672 42.5634 40.6954 41.3133C41.1907 40.3276 41.9593 39.4045 42.6048 38.4946C43.2331 37.6089 44.2686 37.0416 45.0557 36.2769C45.2412 36.0967 45.8697 35.6252 45.8697 35.3539C45.8697 34.1235 45.7439 32.8756 45.6606 31.6469C45.5239 29.6287 45.6134 27.5925 45.6134 25.5715C45.6134 23.5497 45.7858 21.5502 45.7858 19.5289V16.8885Z" fill="#EAFC38" stroke="black" stroke-width="2" stroke-linecap="round" stroke-linejoin="round"/>
<path d="M50.5158 34.0996C50.454 34.105 52.5189 34.1516 53.1192 34.0997" stroke="black" stroke-linecap="round" stroke-linejoin="round"/>
<path d="M50.5158 31.9922C50.454 31.9975 52.5189 32.0442 53.1192 31.9922" stroke="black" stroke-linecap="round" stroke-linejoin="round"/>
<path d="M52.6174 50.1445C53.0096 50.0946 53.5735 49.8201 53.5735 49.8201C54.1372 49.5455 54.9692 48.7623 55.338 47.9728C55.7221 47.1509 55.9515 46.4804 55.8774 45.876C55.8284 45.4767 55.6813 44.2783 54.9705 43.3547" stroke="black" stroke-linecap="round"/>
<path d="M50.5158 27.7783C50.454 27.7837 52.5189 27.8303 53.1192 27.7784" stroke="black" stroke-linecap="round" stroke-linejoin="round"/>
<path d="M50.5158 29.8857C50.454 29.8911 52.5189 29.9377 53.1192 29.8858" stroke="black" stroke-linecap="round" stroke-linejoin="round"/>
<path d="M50.5158 25.6729C50.454 25.6782 52.5189 25.7249 53.1192 25.6729" stroke="black" stroke-linecap="round" stroke-linejoin="round"/>
<path d="M60.1871 13.0533C60.1871 13.635 59.7163 14.1066 59.1356 14.1066C58.5549 14.1066 58.0842 13.635 58.0842 13.0533C58.0842 12.4716 58.5549 12 59.1356 12C59.7163 12 60.1871 12.4716 60.1871 13.0533Z" fill="black"/>
<path d="M50.5158 21.459C50.454 21.4643 52.5189 21.511 53.1192 21.459" stroke="black" stroke-linecap="round" stroke-linejoin="round"/>
<path d="M50.5158 19.3525C50.454 19.3579 52.5189 19.4045 53.1192 19.3526" stroke="black" stroke-linecap="round" stroke-linejoin="round"/>
<path d="M50.5158 23.5664C50.454 23.5718 52.5189 23.6184 53.1192 23.5664" stroke="black" stroke-linecap="round" stroke-linejoin="round"/>
</svg>
