<svg width="107" height="65" viewBox="0 0 107 65" fill="none" xmlns="http://www.w3.org/2000/svg">
<g filter="url(#filter0_d_1001_2300)">
<rect x="4.5" y="0.5" width="98" height="56" rx="12" fill="#FEF8E5" stroke="black"/>
<path d="M42.8083 20.4316H46.1483C44.6883 22.7716 41.5483 28.6716 40.5083 30.8316C40.5083 32.9316 40.5483 34.7916 40.5483 35.4516C40.1483 35.4116 39.5483 35.4116 39.0683 35.4116C38.5683 35.4116 37.9683 35.4116 37.5483 35.4516C37.5883 34.7916 37.6083 32.9116 37.6083 30.8116C36.6083 28.5916 33.4083 22.5916 31.9683 20.4316H35.5883C35.9483 21.3116 37.2283 23.9116 38.0283 25.7316C38.4483 26.6116 38.8283 27.4716 39.0883 28.0916H39.2683C39.5083 27.4916 39.8483 26.7116 40.2883 25.8316C41.1483 23.9716 42.5083 21.2716 42.8083 20.4316ZM47.735 20.4316H59.275C59.255 20.6916 59.255 21.2316 59.255 21.6116C59.255 22.0316 59.255 22.6516 59.275 22.9516C56.295 22.9316 53.075 22.9116 50.695 22.9116V26.7116C53.575 26.7116 56.695 26.7116 59.095 26.6516C59.075 27.1916 59.075 28.4916 59.075 29.0316C56.715 28.9916 53.535 28.9916 50.695 28.9916V32.8516C53.075 32.8516 56.395 32.8316 59.275 32.8116C59.255 33.1316 59.255 33.7316 59.255 34.1916C59.255 34.5516 59.255 35.1116 59.275 35.4316H47.735C47.795 33.5316 47.795 31.1316 47.795 27.9316C47.795 24.7516 47.795 22.2116 47.735 20.4316ZM68.5973 33.3116C71.1773 33.3116 72.0773 32.6116 72.0773 31.3516C72.0773 30.1316 71.3173 29.3716 67.9773 28.9316C63.5573 28.3316 62.1773 26.8516 62.1773 24.3716C62.1773 21.8316 64.1973 20.1516 68.2973 20.1516C72.8173 20.1516 74.5773 21.7716 74.5773 24.3916C74.5773 24.7316 74.5573 24.9916 74.5373 25.3516C74.2173 25.3316 73.7173 25.3116 73.2173 25.3116C72.6973 25.3116 72.1573 25.3316 71.8373 25.3516C71.8573 25.1316 71.8573 24.8716 71.8573 24.7116C71.8573 23.3916 70.9773 22.5516 68.2173 22.5516C65.9973 22.5516 65.0773 23.1916 65.0773 24.3516C65.0773 25.3316 65.5773 26.1716 69.0773 26.6516C73.2973 27.2516 74.8573 28.5916 74.8573 31.2716C74.8573 33.9916 72.8773 35.7116 68.6173 35.7116C63.9573 35.7116 61.9973 34.1316 61.9973 31.3316C61.9973 31.0116 61.9973 30.7116 62.0373 30.3716C62.3773 30.4316 62.8973 30.4516 63.4173 30.4516C63.9973 30.4516 64.5173 30.4316 64.9373 30.4116C64.9173 30.5516 64.9173 30.6916 64.9173 30.8316C64.9173 32.5316 65.9573 33.3116 68.5973 33.3116Z" fill="black"/>
</g>
<defs>
<filter id="filter0_d_1001_2300" x="0" y="0" width="107" height="65" filterUnits="userSpaceOnUse" color-interpolation-filters="sRGB">
<feFlood flood-opacity="0" result="BackgroundImageFix"/>
<feColorMatrix in="SourceAlpha" type="matrix" values="0 0 0 0 0 0 0 0 0 0 0 0 0 0 0 0 0 0 127 0" result="hardAlpha"/>
<feOffset dy="4"/>
<feGaussianBlur stdDeviation="2"/>
<feComposite in2="hardAlpha" operator="out"/>
<feColorMatrix type="matrix" values="0 0 0 0 0 0 0 0 0 0 0 0 0 0 0 0 0 0 0.25 0"/>
<feBlend mode="normal" in2="BackgroundImageFix" result="effect1_dropShadow_1001_2300"/>
<feBlend mode="normal" in="SourceGraphic" in2="effect1_dropShadow_1001_2300" result="shape"/>
</filter>
</defs>
</svg>
